<svg width="1610" height="1265" viewBox="0 0 1610 1265" fill="none" xmlns="http://www.w3.org/2000/svg">
<path d="M524.996 1186.08C524.996 1186.08 513.132 1210.9 515.253 1216.06C517.373 1221.22 531.186 1220.99 531.186 1220.99L531.759 1187.17C531.759 1187.17 528.664 1178.18 524.996 1186.08Z" fill="white" stroke="#263238" stroke-width="1.96345" stroke-linecap="round" stroke-linejoin="round"/>
<path d="M557.494 1204.37C557.494 1204.37 572.453 1213.6 576.694 1215.83C580.935 1218.07 598.817 1221.85 599.161 1225.63C599.505 1229.41 581.967 1231.88 572.969 1233.14C556.231 1232.65 539.593 1230.38 523.335 1226.38C521.558 1225 528.207 1202.3 528.207 1202.3L557.494 1204.37Z" fill="white" stroke="#263238" stroke-width="1.96345" stroke-linecap="round" stroke-linejoin="round"/>
<path d="M616.125 879.515C616.125 879.515 608.331 1013 608.904 1030.54C609.477 1048.07 603.172 1060.22 602.657 1065.21C602.141 1070.2 560.302 1173.59 560.302 1173.59L552.335 1197.43L536.001 1172.44L553.195 1055.35L536.001 882.495L579.617 876.763L616.125 879.515Z" fill="#525252" stroke="#263238" stroke-width="1.96345" stroke-linecap="round" stroke-linejoin="round"/>
<path d="M479.26 883.412C479.26 883.412 488.888 941.127 498.976 965.657C509.063 990.187 521.901 1056.27 521.901 1056.27C521.901 1056.27 513.877 1089.51 519.15 1103.04C524.423 1116.56 524.881 1190.5 524.881 1190.5C524.253 1194.82 523.947 1199.19 523.964 1203.57C524.365 1206.14 524.709 1210.5 524.709 1210.5C524.709 1210.5 537.376 1208.32 541.903 1207.98C546.431 1207.63 561.505 1205.06 561.505 1205.06C561.505 1205.06 562.192 1195.71 563.224 1190.15C564.256 1184.59 560.53 1175.54 560.645 1173.65C560.76 1171.76 566.892 1122.75 566.892 1122.75C566.892 1122.75 576.062 1056.38 576.979 1043.95C577.896 1031.51 563.683 898.887 563.683 898.887C563.683 898.887 524.251 872.866 509.349 871.147C494.448 869.427 479.26 883.412 479.26 883.412Z" fill="#525252" stroke="#263238" stroke-width="1.96345" stroke-linecap="round" stroke-linejoin="round"/>
<path d="M524.137 646.019C524.137 646.019 469.173 676.854 468.944 679.834C468.715 682.815 479.891 802.141 479.891 802.141C479.891 802.141 473.013 870.173 472.497 877.566C472.227 882.878 472.341 888.203 472.841 893.499L504.249 878.884C504.249 878.884 559.671 903.3 567.294 904.847L582.024 907.885L589.474 894.473L590.219 911.668C596.613 906.906 602.508 901.51 607.815 895.562L619.85 880.031L614.463 804.033C614.463 804.033 608.732 704.479 609.362 699.034C609.993 693.589 602.771 664.188 597.899 660.29C589.166 655.789 580.104 651.957 570.79 648.828L532.333 641.148L524.137 646.019Z" fill="white" stroke="#263238" stroke-width="1.96345" stroke-linecap="round" stroke-linejoin="round"/>
<path d="M515.998 586.7C517.189 592.115 519.118 597.341 521.729 602.232C524.882 606.587 533.651 619.426 533.651 619.426L553.137 607.963L549.527 573.919L515.998 586.7Z" fill="#263238" stroke="#263238" stroke-width="1.96345" stroke-linecap="round" stroke-linejoin="round"/>
<path d="M530.67 603.722L527.403 638.683L566.548 664.531L573.426 638.167L540.585 597.475L530.67 603.722Z" fill="white" stroke="#263238" stroke-width="1.96345" stroke-linecap="round" stroke-linejoin="round"/>
<path d="M553.883 631.92L568.097 651.579L571.879 641.205L553.883 631.92Z" fill="#263238"/>
<path d="M599.962 567.442L598.873 589.222L596.007 594.494L596.523 614.955L592.798 618.165C592.798 618.165 587.066 635.359 585.977 637.078C583.282 639.727 580.258 642.019 576.979 643.899C574.973 644.701 554.913 633.296 551.761 628.596C548.609 623.896 545.055 618.165 545.055 618.165L545.686 602.805L544.253 574.148L599.962 567.442Z" fill="white" stroke="#263238" stroke-width="1.96345" stroke-linecap="round" stroke-linejoin="round"/>
<path d="M582.941 596.042V601.773C581.6 602.42 580.109 602.693 578.626 602.562C577.142 602.431 575.722 601.901 574.516 601.028" stroke="#263238" stroke-width="1.96345" stroke-linecap="round" stroke-linejoin="round"/>
<path d="M585.576 625.787C585.576 625.787 583.685 626.189 579.501 623.495" stroke="#263238" stroke-width="1.96345" stroke-linecap="round" stroke-linejoin="round"/>
<path d="M570.274 579.593L598.645 581.198L599.963 567.442L567.523 576.326L570.274 579.593Z" fill="#263238"/>
<path d="M587.641 593.405L571.822 591.743" stroke="#263238" stroke-width="1.96345" stroke-linecap="round" stroke-linejoin="round"/>
<path d="M592.797 618.165L582.309 618.91" stroke="#263238" stroke-width="1.96345" stroke-linecap="round" stroke-linejoin="round"/>
<path d="M603.402 566.411C603.402 566.411 600.364 545.835 593.372 539.359C586.379 532.882 549.871 527.609 546.26 529.329C542.649 531.048 536.173 534.315 536.173 534.315C531.723 536.793 527.52 539.691 523.621 542.969C520.715 545.064 518.327 547.795 516.638 550.954C514.95 554.112 514.005 557.616 513.878 561.195C513.825 569.743 514.534 578.278 515.998 586.7L603.402 566.411Z" fill="#92E3A9" stroke="#263238" stroke-width="1.96345" stroke-linecap="round" stroke-linejoin="round"/>
<path d="M524.997 627.163L557.723 642.007L567.81 668.085L518.692 645.102L524.997 627.163Z" fill="white" stroke="#263238" stroke-width="1.96345" stroke-linecap="round" stroke-linejoin="round"/>
<path d="M547.464 597.818C547.464 597.818 543.738 583.375 536.001 588.362C528.264 593.348 537.262 609.109 538.523 611.287C539.784 613.465 544.254 613.809 546.719 608.765" fill="white"/>
<path d="M547.464 597.818C547.464 597.818 543.738 583.375 536.001 588.362C528.264 593.348 537.262 609.109 538.523 611.287C539.784 613.465 544.254 613.809 546.719 608.765" stroke="#263238" stroke-width="1.96345" stroke-linecap="round" stroke-linejoin="round"/>
<path d="M556.289 577.071C556.289 577.071 574.916 586.127 588.327 585.267C603.458 584.235 634.981 580.567 627.301 574.549C618.358 571.567 609.225 569.192 599.962 567.442C599.962 567.442 567.58 572.027 556.289 577.071Z" fill="#92E3A9" stroke="#263238" stroke-width="1.96345" stroke-linecap="round" stroke-linejoin="round"/>
<path d="M765.598 853.036C747.831 836.701 712.125 834.294 710.52 834.179L710.062 841.802C710.405 841.802 739.578 843.751 756.485 855.443L765.598 853.036Z" fill="white" stroke="#263238" stroke-width="1.96345" stroke-miterlimit="10"/>
<path d="M745.251 850.972C745.303 851.131 745.386 851.278 745.495 851.404C745.604 851.531 745.737 851.634 745.886 851.709C746.035 851.783 746.198 851.828 746.365 851.839C746.531 851.85 746.698 851.828 746.856 851.775L758.319 848.049C758.63 847.932 758.886 847.702 759.035 847.405C759.184 847.107 759.215 846.764 759.121 846.444C759.016 846.122 758.79 845.853 758.491 845.693C758.192 845.533 757.843 845.494 757.517 845.585L746.054 849.367C745.742 849.484 745.486 849.715 745.337 850.012C745.189 850.31 745.158 850.653 745.251 850.972V850.972Z" fill="white" stroke="#263238" stroke-width="0.981724" stroke-miterlimit="10"/>
<path d="M732.529 845.241C732.623 845.561 732.835 845.834 733.122 846.005C733.41 846.175 733.751 846.23 734.077 846.158L745.826 843.063C746.147 842.969 746.419 842.757 746.59 842.47C746.76 842.183 746.815 841.842 746.743 841.516C746.703 841.353 746.631 841.2 746.531 841.066C746.431 840.931 746.306 840.818 746.162 840.733C746.018 840.647 745.858 840.592 745.692 840.569C745.526 840.546 745.358 840.556 745.196 840.599L733.733 843.694C733.549 843.707 733.369 843.759 733.206 843.846C733.043 843.933 732.9 844.053 732.786 844.199C732.673 844.345 732.591 844.513 732.547 844.693C732.503 844.872 732.497 845.059 732.529 845.241V845.241Z" fill="white" stroke="#263238" stroke-width="0.981724" stroke-miterlimit="10"/>
<path d="M717.971 842.834C717.971 842.834 717.971 842.834 717.971 843.12C718.049 843.268 718.156 843.399 718.285 843.505C718.414 843.611 718.562 843.69 718.722 843.738C718.882 843.786 719.05 843.802 719.216 843.784C719.383 843.767 719.544 843.716 719.69 843.636L731.153 837.905C731.457 837.753 731.688 837.486 731.795 837.164C731.903 836.842 731.878 836.49 731.726 836.186C731.574 835.882 731.307 835.65 730.985 835.543C730.662 835.435 730.311 835.46 730.006 835.612L718.544 841.344C718.291 841.488 718.096 841.715 717.991 841.987C717.887 842.258 717.88 842.558 717.971 842.834V842.834Z" fill="white" stroke="#263238" stroke-width="0.981724" stroke-miterlimit="10"/>
<path d="M677.909 849.998C677.909 849.998 645.756 855.042 643.521 856.417C641.285 857.793 641.629 872.923 641.629 872.923" stroke="#263238" stroke-width="1.96345" stroke-miterlimit="10"/>
<path d="M619.049 846.559L630.913 868.51C632.46 871.227 634.929 873.3 637.874 874.352C640.818 875.403 644.042 875.364 646.961 874.242L679.629 861.805L676.935 854.698L644.267 867.077C643.055 867.545 641.714 867.56 640.492 867.117C639.271 866.675 638.25 865.806 637.618 864.67L625.755 842.719L619.049 846.559Z" fill="black"/>
<path d="M622.289 844.952L604.143 852.052L607.839 861.499L625.986 854.399L622.289 844.952Z" fill="black" stroke="#263238" stroke-width="1.96345" stroke-miterlimit="10"/>
<path d="M670.853 825.909L622.337 844.893L626.033 854.34L674.55 835.356L670.853 825.909Z" fill="white" stroke="#263238" stroke-width="1.96345" stroke-miterlimit="10"/>
<path d="M715.679 831.371L712.87 847.648L704.56 847.935L700.204 860.716L679.457 862.951L660.027 828.735L667.478 817.731L701.809 815.667L707.884 828.907L715.679 831.371Z" fill="#92E3A9" stroke="#263238" stroke-width="1.96345" stroke-linecap="round" stroke-linejoin="round"/>
<path d="M698.886 824.207L706.05 839.108L714.074 840.771L715.679 831.371L707.885 828.907L701.809 815.667L667.478 817.731L661.575 826.442L698.886 824.207Z" fill="#92E3A9" stroke="#263238" stroke-width="1.96345" stroke-linecap="round" stroke-linejoin="round"/>
<path d="M506.887 779.846L518.636 797.441L624.322 845.585L641.917 862.034L659.513 856.13L674.815 853.781L656.017 822.086L618.476 820.94L548.038 775.146L537.435 762.194L506.887 779.846Z" fill="white" stroke="#263238" stroke-width="1.96345" stroke-linecap="round" stroke-linejoin="round"/>
<path d="M468.942 679.834L493.988 795.092L549.181 765.747L512.787 683.56" fill="white"/>
<path d="M468.942 679.834L493.988 795.092L549.181 765.747L512.787 683.56" stroke="#263238" stroke-width="1.96345" stroke-linecap="round" stroke-linejoin="round"/>
<path d="M441.894 838.421H439.429C436.938 838.419 434.482 837.826 432.264 836.692C430.046 835.557 428.128 833.913 426.668 831.894C425.208 829.875 424.248 827.538 423.866 825.076C423.484 822.614 423.691 820.097 424.47 817.73C427.622 808.044 432.953 798.244 441.664 796.754C460.234 793.659 511.243 809.076 511.243 819.679C511.243 830.282 511.243 835.096 505.053 835.096H466.424L435.532 869.141L434.844 868.568C433.253 867.228 431.973 865.557 431.095 863.671C430.218 861.785 429.763 859.73 429.763 857.649C429.763 855.569 430.218 853.514 431.095 851.628C431.973 849.742 433.253 848.071 434.844 846.731C437.675 844.408 440.063 841.592 441.894 838.421V838.421Z" fill="#263238" stroke="#263238" stroke-width="1.96345" stroke-linecap="round" stroke-linejoin="round"/>
<path d="M791.104 1125.85H1304.06C1304.06 1125.85 1378.22 1076.39 1362.75 946.571C1347.27 816.756 1263.88 903.357 1232.99 989.843H1004.31C1004.31 989.843 954.848 890.977 874.552 903.357C794.256 915.737 791.104 1125.85 791.104 1125.85Z" fill="#263238" stroke="#263238" stroke-width="1.96345" stroke-linecap="round" stroke-linejoin="round"/>
<path d="M917.137 1100.11C917.864 1065.73 907.956 1031.96 888.766 1003.43V967.319H826.925C777.062 967.319 736.656 1026.75 736.656 1100.11C736.656 1173.48 777.062 1233.02 826.925 1233.02H888.766V1196.92C907.978 1168.35 917.887 1134.54 917.137 1100.11V1100.11Z" fill="#263238" stroke="#263238" stroke-width="1.96345" stroke-linecap="round" stroke-linejoin="round"/>
<path d="M888.766 1232.91C938.589 1232.91 978.978 1173.46 978.978 1100.11C978.978 1026.77 938.589 967.319 888.766 967.319C838.944 967.319 798.555 1026.77 798.555 1100.11C798.555 1173.46 838.944 1232.91 888.766 1232.91Z" fill="#263238"/>
<path opacity="0.2" d="M888.766 1232.91C938.589 1232.91 978.978 1173.46 978.978 1100.11C978.978 1026.77 938.589 967.319 888.766 967.319C838.944 967.319 798.555 1026.77 798.555 1100.11C798.555 1173.46 838.944 1232.91 888.766 1232.91Z" fill="white" stroke="#263238" stroke-width="1.96345" stroke-linecap="round" stroke-linejoin="round"/>
<path d="M888.766 1232.91C938.589 1232.91 978.978 1173.46 978.978 1100.11C978.978 1026.77 938.589 967.319 888.766 967.319C838.944 967.319 798.555 1026.77 798.555 1100.11C798.555 1173.46 838.944 1232.91 888.766 1232.91Z" stroke="#263238" stroke-width="1.96345" stroke-linecap="round" stroke-linejoin="round"/>
<path d="M359.705 967.319H301.302C254.19 967.319 216.02 1026.75 216.02 1100.11C216.02 1173.48 254.19 1233.02 301.302 1233.02H359.705C406.816 1233.02 444.987 1173.59 444.987 1100.23C444.987 1026.87 406.816 967.319 359.705 967.319Z" fill="#263238" stroke="#263238" stroke-width="1.96345" stroke-linecap="round" stroke-linejoin="round"/>
<path d="M888.768 1206.09C928.525 1206.09 960.754 1158.64 960.754 1100.11C960.754 1041.59 928.525 994.142 888.768 994.142C849.011 994.142 816.782 1041.59 816.782 1100.11C816.782 1158.64 849.011 1206.09 888.768 1206.09Z" fill="white" stroke="#263238" stroke-width="1.96345" stroke-linecap="round" stroke-linejoin="round"/>
<path d="M1339.71 1100.11C1340.41 1066.99 1334.26 1034.07 1321.66 1003.43V967.319H1267.04C1235.28 967.319 1209.72 1026.75 1209.72 1100.11C1209.72 1173.48 1235.4 1232.91 1267.04 1232.91H1321.66V1196.8C1334.26 1166.16 1340.41 1133.24 1339.71 1100.11V1100.11Z" fill="#263238" stroke="#263238" stroke-width="1.96345" stroke-linecap="round" stroke-linejoin="round"/>
<path d="M1321.66 1232.91C1353.37 1232.91 1379.08 1173.46 1379.08 1100.11C1379.08 1026.77 1353.37 967.319 1321.66 967.319C1289.94 967.319 1264.23 1026.77 1264.23 1100.11C1264.23 1173.46 1289.94 1232.91 1321.66 1232.91Z" fill="#263238"/>
<path opacity="0.2" d="M1321.66 1232.91C1353.37 1232.91 1379.08 1173.46 1379.08 1100.11C1379.08 1026.77 1353.37 967.319 1321.66 967.319C1289.94 967.319 1264.23 1026.77 1264.23 1100.11C1264.23 1173.46 1289.94 1232.91 1321.66 1232.91Z" fill="white" stroke="#263238" stroke-width="1.96345" stroke-linecap="round" stroke-linejoin="round"/>
<path d="M1321.66 1232.91C1353.37 1232.91 1379.08 1173.46 1379.08 1100.11C1379.08 1026.77 1353.37 967.319 1321.66 967.319C1289.94 967.319 1264.23 1026.77 1264.23 1100.11C1264.23 1173.46 1289.94 1232.91 1321.66 1232.91Z" stroke="#263238" stroke-width="1.96345" stroke-linecap="round" stroke-linejoin="round"/>
<path d="M1367.45 1100.11C1367.45 1158.63 1346.93 1206.09 1321.6 1206.09C1296.27 1206.09 1275.75 1158.63 1275.75 1100.11C1275.75 1041.6 1296.27 994.142 1321.6 994.142C1346.93 994.142 1367.45 1041.6 1367.45 1100.11Z" fill="white" stroke="#263238" stroke-width="1.96345" stroke-linecap="round" stroke-linejoin="round"/>
<path d="M812.712 1132.55C812.712 1026.75 849.507 940.955 894.842 940.955C940.177 940.955 976.972 1026.92 976.972 1132.55C976.972 1138.29 976.972 1144.02 976.628 1149.75H1269.21C1269.21 1144.02 1268.93 1138.29 1268.93 1132.55C1268.93 1026.7 1295.75 940.725 1328.99 940.725C1351.06 940.725 1370.32 979.068 1380.57 1036.04V879.973C1380.58 872.848 1378.09 865.946 1373.54 860.469C1368.98 854.991 1362.65 851.286 1355.64 849.998L1354.21 849.711C1333.98 845.642 1297.47 807.127 1240.67 758.468C1183.87 709.809 1133.21 705.74 1133.21 705.74H620.826C611.143 705.743 601.733 708.947 594.06 714.853L419.369 849.711C419.369 849.711 262.96 880.088 228.572 914.59C194.184 949.093 198.138 1149.58 198.138 1149.58H813.17C812.826 1144.13 812.712 1138.4 812.712 1132.55Z" fill="white" stroke="#263238" stroke-width="1.96345" stroke-linecap="round" stroke-linejoin="round"/>
<path d="M1007.41 705.74H620.826C611.144 705.743 601.734 708.947 594.061 714.853L419.369 849.711H914.1L1007.41 705.74Z" fill="white" stroke="#263238" stroke-width="1.96345" stroke-linecap="round" stroke-linejoin="round"/>
<path d="M804.917 903.93C777.062 904.274 728.403 906.108 707.484 914.59C690.035 921.467 673.103 929.588 656.818 938.891H755.856L804.917 903.93Z" fill="#263238" stroke="#263238" stroke-width="1.96345" stroke-linecap="round" stroke-linejoin="round"/>
<path d="M762.047 969.382V951.156H656.59L675.675 968.752C675.37 968.935 675.082 969.146 674.816 969.382H762.047Z" fill="#263238" stroke="#263238" stroke-width="1.96345" stroke-linecap="round" stroke-linejoin="round"/>
<path d="M772.192 942.961V969.382C776.284 969.018 780.237 967.718 783.746 965.581C787.254 963.444 790.224 960.528 792.424 957.06C802.569 940.84 825.379 903.815 825.379 903.815L772.192 942.961Z" fill="#263238" stroke="#263238" stroke-width="1.96345" stroke-linecap="round" stroke-linejoin="round"/>
<path d="M238.545 968.694L257.63 951.099H212.639C211.263 956.83 209.945 962.906 208.799 969.325H239.404C239.138 969.088 238.85 968.877 238.545 968.694Z" fill="#263238" stroke="#263238" stroke-width="1.96345" stroke-linecap="round" stroke-linejoin="round"/>
<path d="M223.471 921.583C220.403 927.035 217.924 932.799 216.077 938.777H257.629C246.553 932.45 235.151 926.711 223.471 921.583V921.583Z" fill="#263238" stroke="#263238" stroke-width="1.96345" stroke-linecap="round" stroke-linejoin="round"/>
<path d="M914.1 849.711H1214.37C1214.37 849.711 1256.95 835.498 1244.8 782.769C1240.67 764.887 1155.56 723.965 1143.41 723.965H997.262L914.1 849.711Z" fill="#263238"/>
<path opacity="0.2" d="M914.1 849.711H1214.37C1214.37 849.711 1256.95 835.497 1244.8 782.769C1240.67 764.887 1155.56 723.965 1143.41 723.965H997.262L914.1 849.711Z" fill="white" stroke="#263238" stroke-width="1.96345" stroke-linecap="round" stroke-linejoin="round"/>
<path d="M914.1 849.711H1214.37C1214.37 849.711 1256.95 835.498 1244.8 782.769C1240.67 764.887 1155.56 723.965 1143.41 723.965H997.262L914.1 849.711Z" stroke="#263238" stroke-width="1.96345" stroke-linecap="round" stroke-linejoin="round"/>
<path d="M582.254 723.965L419.312 849.711H914.099L995.542 723.965H582.254Z" fill="#263238" stroke="#263238" stroke-width="1.96345" stroke-linecap="round" stroke-linejoin="round"/>
<path d="M265.252 942.961V985.545L295.628 1007.84H540.987L597.785 983.539V942.961H265.252Z" fill="#263238" stroke="#263238" stroke-width="1.96345" stroke-linecap="round" stroke-linejoin="round"/>
<path opacity="0.3" d="M276.6 942.961H265.252V954.309H276.6V942.961Z" fill="white" stroke="#263238" stroke-width="1.96345" stroke-linecap="round" stroke-linejoin="round"/>
<path opacity="0.3" d="M289.094 955.512H277.746V966.86H289.094V955.512Z" fill="white" stroke="#263238" stroke-width="1.96345" stroke-linecap="round" stroke-linejoin="round"/>
<path opacity="0.3" d="M301.648 968.064H290.3V979.412H301.648V968.064Z" fill="white" stroke="#263238" stroke-width="1.96345" stroke-linecap="round" stroke-linejoin="round"/>
<path opacity="0.3" d="M314.199 980.558H302.851V991.906H314.199V980.558Z" fill="white" stroke="#263238" stroke-width="1.96345" stroke-linecap="round" stroke-linejoin="round"/>
<path opacity="0.3" d="M595.551 942.961H584.203V954.309H595.551V942.961Z" fill="white" stroke="#263238" stroke-width="1.96345" stroke-linecap="round" stroke-linejoin="round"/>
<path opacity="0.3" d="M582.999 955.512H571.651V966.86H582.999V955.512Z" fill="white" stroke="#263238" stroke-width="1.96345" stroke-linecap="round" stroke-linejoin="round"/>
<path opacity="0.3" d="M570.448 968.064H559.1V979.412H570.448V968.064Z" fill="white" stroke="#263238" stroke-width="1.96345" stroke-linecap="round" stroke-linejoin="round"/>
<path opacity="0.3" d="M557.953 980.558H546.604V991.906H557.953V980.558Z" fill="white" stroke="#263238" stroke-width="1.96345" stroke-linecap="round" stroke-linejoin="round"/>
<path opacity="0.3" d="M331.621 980.558H320.272V991.906H331.621V980.558Z" fill="white" stroke="#263238" stroke-width="1.96345" stroke-linecap="round" stroke-linejoin="round"/>
<path opacity="0.3" d="M348.987 980.558H337.639V991.906H348.987V980.558Z" fill="white" stroke="#263238" stroke-width="1.96345" stroke-linecap="round" stroke-linejoin="round"/>
<path opacity="0.3" d="M366.411 980.558H355.062V991.906H366.411V980.558Z" fill="white" stroke="#263238" stroke-width="1.96345" stroke-linecap="round" stroke-linejoin="round"/>
<path opacity="0.3" d="M383.834 980.558H372.486V991.906H383.834V980.558Z" fill="white" stroke="#263238" stroke-width="1.96345" stroke-linecap="round" stroke-linejoin="round"/>
<path opacity="0.3" d="M401.258 980.558H389.91V991.906H401.258V980.558Z" fill="white" stroke="#263238" stroke-width="1.96345" stroke-linecap="round" stroke-linejoin="round"/>
<path opacity="0.3" d="M418.625 980.558H407.276V991.906H418.625V980.558Z" fill="white" stroke="#263238" stroke-width="1.96345" stroke-linecap="round" stroke-linejoin="round"/>
<path opacity="0.3" d="M436.048 980.558H424.7V991.906H436.048V980.558Z" fill="white" stroke="#263238" stroke-width="1.96345" stroke-linecap="round" stroke-linejoin="round"/>
<path opacity="0.3" d="M453.469 980.558H442.121V991.906H453.469V980.558Z" fill="white" stroke="#263238" stroke-width="1.96345" stroke-linecap="round" stroke-linejoin="round"/>
<path opacity="0.3" d="M470.893 980.558H459.545V991.906H470.893V980.558Z" fill="white" stroke="#263238" stroke-width="1.96345" stroke-linecap="round" stroke-linejoin="round"/>
<path opacity="0.3" d="M488.317 980.558H476.969V991.906H488.317V980.558Z" fill="white" stroke="#263238" stroke-width="1.96345" stroke-linecap="round" stroke-linejoin="round"/>
<path opacity="0.3" d="M505.683 980.558H494.335V991.906H505.683V980.558Z" fill="white" stroke="#263238" stroke-width="1.96345" stroke-linecap="round" stroke-linejoin="round"/>
<path opacity="0.3" d="M523.107 980.558H511.759V991.906H523.107V980.558Z" fill="white" stroke="#263238" stroke-width="1.96345" stroke-linecap="round" stroke-linejoin="round"/>
<path opacity="0.3" d="M540.529 980.558H529.181V991.906H540.529V980.558Z" fill="white" stroke="#263238" stroke-width="1.96345" stroke-linecap="round" stroke-linejoin="round"/>
<path d="M715.393 1060.57H210.461L203.698 1006.46C200.603 1036.21 199.227 1067.9 198.597 1093.92L200.373 1101.15L210.461 1080.86H253.79L226.738 1103.15H627.932L613.547 1080.86H715.106L743.477 1097.08H763.766V993.912L715.393 1060.57Z" fill="#263238" stroke="#263238" stroke-width="1.96345" stroke-linecap="round" stroke-linejoin="round"/>
<path d="M1111.95 849.711H1128.85C1127.08 824.837 1119.97 770.045 1092.12 723.965H1074.92C1084.95 745.171 1108.11 799.791 1111.95 849.711Z" fill="#263238" stroke="#263238" stroke-width="1.96345" stroke-linecap="round" stroke-linejoin="round"/>
<path d="M746.284 758.124L752.474 775.319C744.858 782.599 740.411 792.584 740.095 803.115V849.941H702.096L733.905 758.239L746.284 758.124ZM568.612 781.05C542.535 796.926 503.103 831.944 484.018 849.482H611.024L676.763 748.61L633.491 751.705C610.666 758.686 588.854 768.629 568.612 781.279V781.05ZM831.28 768.785L815.806 765.69H794.199L788.009 771.88C788.009 771.88 803.483 773.427 805.203 782.712C806.267 791.939 806.783 801.221 806.75 810.509H817.582C817.582 810.509 817.582 793.315 825.32 785.807C829.693 781.387 834.345 777.252 839.247 773.427L831.28 768.785Z" fill="#525252" stroke="#263238" stroke-width="1.96345" stroke-linecap="round" stroke-linejoin="round"/>
<path d="M1019.79 838.421H1017.26C1014.77 838.419 1012.32 837.826 1010.1 836.692C1007.88 835.557 1005.96 833.913 1004.5 831.894C1003.04 829.875 1002.08 827.538 1001.7 825.076C1001.32 822.614 1001.53 820.097 1002.31 817.73C1005.46 808.044 1010.79 798.244 1019.79 796.754C1038.3 793.659 1089.31 809.076 1089.31 819.679C1089.31 830.282 1089.31 835.096 1083.12 835.096H1044.49L1013.77 869.37L1013.08 868.797C1011.49 867.457 1010.21 865.786 1009.33 863.9C1008.45 862.014 1008 859.959 1008 857.879C1008 855.798 1008.45 853.743 1009.33 851.857C1010.21 849.971 1011.49 848.3 1013.08 846.96C1015.78 844.509 1018.05 841.622 1019.79 838.421V838.421Z" fill="white" stroke="#263238" stroke-width="1.96345" stroke-linecap="round" stroke-linejoin="round"/>
<path d="M1012.91 868.797L1013.59 869.37L1044.49 835.326H1083.12C1088.22 835.326 1088.85 832.116 1089.25 824.895H1001.73C1002.24 828.647 1004.1 832.086 1006.96 834.573C1009.81 837.061 1013.47 838.428 1017.26 838.421H1019.78C1017.99 841.635 1015.67 844.523 1012.91 846.96C1011.32 848.3 1010.04 849.971 1009.16 851.857C1008.28 853.743 1007.83 855.798 1007.83 857.879C1007.83 859.959 1008.28 862.014 1009.16 863.9C1010.04 865.786 1011.32 867.457 1012.91 868.797V868.797Z" fill="#263238" stroke="#263238" stroke-width="1.96345" stroke-linecap="round" stroke-linejoin="round"/>
<path d="M1108.33 887.022H1073.54V894.473H1108.33V887.022Z" fill="#263238" stroke="#263238" stroke-width="1.96345" stroke-linecap="round" stroke-linejoin="round"/>
<path d="M1264.8 887.022H1230.01V894.473H1264.8V887.022Z" fill="#263238" stroke="#263238" stroke-width="1.96345" stroke-linecap="round" stroke-linejoin="round"/>
<path d="M1267.26 857.219C1267.26 857.219 1292.43 874.413 1307.04 934.249C1307.04 934.249 1244.91 941.7 1244.91 1113.07" stroke="#263238" stroke-width="1.96345" stroke-linecap="round" stroke-linejoin="round"/>
<path d="M1237.29 1120.52H976.8C976.8 1124.34 976.8 1128.35 976.8 1132.55C976.8 1138.29 976.8 1144.02 976.456 1149.75H1269.04C1269.04 1144.02 1268.76 1138.29 1268.76 1132.55C1268.76 1132.15 1268.76 1131.75 1268.76 1131.35L1237.29 1120.52Z" fill="#263238" stroke="#263238" stroke-width="1.96345" stroke-linecap="round" stroke-linejoin="round"/>
<path d="M812.711 1132.55C812.711 1128.54 812.711 1124.53 812.711 1120.52H198.195C198.195 1138.4 198.195 1149.81 198.195 1149.81H813.17C812.826 1144.13 812.711 1138.4 812.711 1132.55Z" fill="#263238" stroke="#263238" stroke-width="1.96345" stroke-linecap="round" stroke-linejoin="round"/>
<path d="M1369.57 871.949C1366.48 871.949 1363.44 872.753 1360.75 874.284C1358.06 875.814 1355.82 878.017 1354.24 880.677C1352.66 883.336 1351.8 886.361 1351.75 889.453C1351.69 892.545 1352.44 895.599 1353.92 898.313L1380.46 946.972V879.973C1380.43 877.316 1380.04 874.676 1379.31 872.121H1369.57V871.949Z" fill="#263238" stroke="#263238" stroke-width="1.96345" stroke-linecap="round" stroke-linejoin="round"/>
<path d="M1131.03 875.503C1131.03 875.503 1186.63 955.741 1131.03 1091.8" stroke="#263238" stroke-width="1.96345" stroke-linecap="round" stroke-linejoin="round"/>
</svg>
