<svg width="1887" height="1215" viewBox="0 0 1887 1215" fill="none" xmlns="http://www.w3.org/2000/svg">
<path d="M333.755 405.953C333.755 405.953 395.202 412.052 426.282 450.14C437.469 436.582 451.524 425.674 467.433 418.202C483.343 410.729 500.712 406.878 518.289 406.926C532.725 389.519 541.919 368.37 544.803 345.94C547.687 323.511 544.142 300.724 534.579 280.231C525.017 259.738 509.831 242.383 490.789 230.184C471.747 217.986 449.632 211.447 427.019 211.328C404.405 211.208 382.222 217.514 363.053 229.511C343.883 241.508 328.515 258.702 318.737 279.093C308.959 299.484 305.174 322.232 307.821 344.691C310.468 367.149 319.439 388.394 333.69 405.953H333.755Z" fill="#92E3A9"/>
<path opacity="0.2" d="M333.755 405.953C333.755 405.953 395.202 412.052 426.282 450.14C437.469 436.582 451.524 425.674 467.433 418.202C483.343 410.729 500.712 406.878 518.289 406.926C532.725 389.519 541.919 368.37 544.803 345.94C547.687 323.511 544.142 300.724 534.579 280.231C525.017 259.738 509.831 242.383 490.789 230.184C471.747 217.986 449.632 211.447 427.019 211.328C404.405 211.208 382.222 217.514 363.053 229.511C343.883 241.508 328.515 258.702 318.737 279.093C308.959 299.484 305.174 322.232 307.821 344.691C310.468 367.149 319.439 388.394 333.69 405.953H333.755Z" fill="white"/>
<path d="M430.37 572.059L424.271 264.827L422.778 575.239L430.37 572.059Z" fill="#828282"/>
<path d="M427.385 438.395C427.385 438.395 448.148 401.021 485.457 389.666C485.457 389.666 446.072 398.945 426.347 431.128L427.385 438.395Z" fill="#828282"/>
<path d="M425.828 334.579C425.828 334.579 448.149 295.128 485.458 283.774C485.458 283.774 445.683 294.545 425.958 326.728L425.828 334.579Z" fill="#828282"/>
<path d="M426.476 386.876C426.476 386.876 448.148 347.945 485.457 336.85C485.457 336.85 446.072 346.128 426.347 378.312L426.476 386.876Z" fill="#828282"/>
<path d="M424.335 359.625C424.335 359.625 404.286 322.315 368.274 310.896C368.274 310.896 406.297 320.239 425.309 352.357L424.335 359.625Z" fill="#828282"/>
<path d="M424.335 411.468C424.335 411.468 404.286 374.159 368.274 362.739C368.274 362.739 406.297 372.082 425.309 404.201L424.335 411.468Z" fill="#828282"/>
<path d="M1674.03 284.617C1674.03 284.617 1735.47 290.716 1766.62 328.804C1777.8 315.252 1791.84 304.346 1807.74 296.874C1823.64 289.402 1840.99 285.548 1858.56 285.59C1873 268.176 1882.19 247.02 1885.06 224.585C1887.94 202.15 1884.38 179.36 1874.81 158.868C1865.23 138.376 1850.03 121.025 1830.98 108.835C1811.93 96.6461 1789.8 90.1198 1767.19 90.0164C1744.57 89.913 1722.39 96.2368 1703.22 108.251C1684.06 120.266 1668.7 137.477 1658.94 157.881C1649.18 178.285 1645.42 201.041 1648.09 223.502C1650.76 245.962 1659.75 267.201 1674.03 284.747V284.617Z" fill="#92E3A9"/>
<path opacity="0.2" d="M1674.03 284.617C1674.03 284.617 1735.47 290.716 1766.62 328.804C1777.8 315.252 1791.84 304.346 1807.74 296.874C1823.64 289.402 1840.99 285.548 1858.56 285.59C1873 268.176 1882.19 247.02 1885.06 224.585C1887.94 202.15 1884.38 179.36 1874.81 158.868C1865.23 138.376 1850.03 121.025 1830.98 108.835C1811.93 96.6461 1789.8 90.1198 1767.19 90.0164C1744.57 89.913 1722.39 96.2368 1703.22 108.251C1684.06 120.266 1668.7 137.477 1658.94 157.881C1649.18 178.285 1645.42 201.041 1648.09 223.502C1650.76 245.962 1659.75 267.201 1674.03 284.747V284.617Z" fill="white"/>
<path d="M1770.64 450.788L1764.54 143.556L1763.05 453.968L1770.64 450.788Z" fill="#828282"/>
<path d="M1767.66 317.19C1767.66 317.19 1788.42 279.881 1826.05 268.461C1826.05 268.461 1786.67 277.804 1766.94 309.922L1767.66 317.19Z" fill="#828282"/>
<path d="M1766.1 213.503C1766.1 213.503 1788.42 174.052 1825.73 162.697C1825.73 162.697 1785.95 173.468 1766.29 205.651L1766.1 213.503Z" fill="#828282"/>
<path d="M1766.68 265.605C1766.68 265.605 1788.36 226.674 1825.67 215.579C1825.67 215.579 1786.28 224.922 1766.55 257.041L1766.68 265.605Z" fill="#828282"/>
<path d="M1764.61 238.354C1764.61 238.354 1744.62 201.045 1708.55 189.625C1708.55 189.625 1746.57 198.968 1765.58 231.087L1764.61 238.354Z" fill="#828282"/>
<path d="M1764.61 290.197C1764.61 290.197 1744.62 252.888 1708.55 241.468C1708.55 241.468 1746.57 250.812 1765.58 282.995L1764.61 290.197Z" fill="#828282"/>
<path d="M402.663 265.541C402.663 265.541 486.495 273.846 528.995 325.819C544.26 307.317 563.438 292.43 585.149 282.231C606.859 272.032 630.561 266.775 654.548 266.838C674.232 243.067 686.759 214.194 690.671 183.58C694.583 152.966 689.72 121.87 676.646 93.913C663.573 65.9556 642.828 42.2864 616.826 25.6608C590.824 9.03506 560.634 0.136716 529.772 0.00156281C498.909 -0.133591 468.643 8.50001 442.496 24.8973C416.349 41.2947 395.398 64.7812 382.08 92.623C368.762 120.465 363.627 151.517 367.271 182.164C370.914 212.811 383.188 241.793 402.663 265.735V265.541Z" fill="#92E3A9"/>
<path opacity="0.4" d="M402.663 265.541C402.663 265.541 486.495 273.846 528.995 325.819C544.26 307.317 563.438 292.43 585.149 282.231C606.859 272.032 630.561 266.775 654.548 266.838C674.232 243.067 686.759 214.194 690.671 183.58C694.583 152.966 689.72 121.87 676.646 93.913C663.573 65.9556 642.828 42.2864 616.826 25.6608C590.824 9.03506 560.634 0.136716 529.772 0.00156281C498.909 -0.133591 468.643 8.50001 442.496 24.8973C416.349 41.2947 395.398 64.7812 382.08 92.623C368.762 120.465 363.627 151.517 367.271 182.164C370.914 212.811 383.188 241.793 402.663 265.735V265.541Z" fill="white"/>
<path d="M534.511 492.315L526.27 73.0906L524.194 496.597L534.511 492.315Z" fill="#828282"/>
<path d="M530.488 309.987C530.488 309.987 558.778 259.052 609.713 243.48C609.713 243.48 555.988 256.457 529.061 300.06L530.488 309.987Z" fill="#828282"/>
<path d="M528.346 168.472C528.346 168.472 558.777 114.747 609.712 99.1746C609.712 99.1746 555.468 113.904 528.541 157.571L528.346 168.472Z" fill="#828282"/>
<path d="M529.19 239.651C529.19 239.651 558.778 186.9 609.713 171.327C609.713 171.327 555.988 184.304 529.061 227.907L529.19 239.651Z" fill="#828282"/>
<path d="M526.27 202.472C526.27 202.472 498.953 151.537 449.835 135.965C449.835 135.965 501.743 148.942 527.697 192.545L526.27 202.472Z" fill="#828282"/>
<path d="M526.27 273.197C526.27 273.197 498.953 222.262 449.835 206.69C449.835 206.69 501.743 219.667 527.697 263.27L526.27 273.197Z" fill="#828282"/>
<path d="M1057.81 558.433H411.877V785.013H1057.81V558.433Z" fill="#92E3A9" stroke="#263238" stroke-width="1.67325" stroke-miterlimit="10"/>
<path d="M1021.35 558.433H448.278V785.013H1021.35V558.433Z" fill="white" stroke="#263238" stroke-width="1.67325" stroke-miterlimit="10"/>
<path d="M561.243 595.418V784.688" stroke="#263238" stroke-width="1.67325" stroke-miterlimit="10"/>
<path d="M787.304 595.418V784.688" stroke="#263238" stroke-width="1.67325" stroke-miterlimit="10"/>
<path d="M872.044 595.418V784.688" stroke="#263238" stroke-width="1.67325" stroke-miterlimit="10"/>
<path d="M956.85 595.418V784.688" stroke="#263238" stroke-width="1.67325" stroke-miterlimit="10"/>
<path d="M448.213 639.54H1022.06" stroke="#263238" stroke-width="1.67325" stroke-miterlimit="10"/>
<path d="M448.213 689.567H1022.06" stroke="#263238" stroke-width="1.67325" stroke-miterlimit="10"/>
<path d="M448.213 741.669H1022.06" stroke="#263238" stroke-width="1.67325" stroke-miterlimit="10"/>
<path d="M714.633 558.433H674.339V785.013H714.633V558.433Z" fill="#92E3A9" stroke="#263238" stroke-width="1.67325" stroke-miterlimit="10"/>
<path d="M347.316 592.044H1081.95V420.617H500.705L347.316 592.044Z" fill="#263238" stroke="#263238" stroke-width="1.67325" stroke-miterlimit="10"/>
<path d="M581.422 413.869H1085.71V265.346H702.498L581.422 413.869Z" fill="white" stroke="#263238" stroke-width="1.67325" stroke-miterlimit="10"/>
<path d="M799.373 329.842H585.446V450.853H799.373V329.842Z" fill="#92E3A9" stroke="#263238" stroke-width="1.67325" stroke-miterlimit="10"/>
<path d="M670.056 380.258H601.602V434.048H670.056V380.258Z" fill="white" stroke="#263238" stroke-width="1.67325" stroke-miterlimit="10"/>
<path d="M759.014 380.258H690.56V434.048H759.014V380.258Z" fill="white" stroke="#263238" stroke-width="1.67325" stroke-miterlimit="10"/>
<path d="M532.954 366.827H1089.99V218.304H666.747L532.954 366.827Z" fill="#263238" stroke="#263238" stroke-width="1.67325" stroke-miterlimit="10"/>
<path d="M1566.38 450.853H1780.31V329.842H1566.38V450.853Z" fill="#92E3A9" stroke="#263238" stroke-width="1.67325" stroke-miterlimit="10"/>
<path d="M1695.7 434.048H1764.15V380.258H1695.7V434.048Z" fill="white" stroke="#263238" stroke-width="1.67325" stroke-miterlimit="10"/>
<path d="M1606.68 434.048H1675.13V380.258H1606.68V434.048Z" fill="white" stroke="#263238" stroke-width="1.67325" stroke-miterlimit="10"/>
<path d="M1832.74 366.827H1275.7V218.304H1699.01L1832.74 366.827Z" fill="#263238" stroke="#263238" stroke-width="1.67325" stroke-miterlimit="10"/>
<path d="M1073.9 292.858L771.147 413.869V514.765H1069.81L1073.9 292.858Z" fill="#263238" stroke="#263238" stroke-width="1.67325" stroke-miterlimit="10"/>
<path d="M1214.19 243.415L746.686 436.773L729.362 407.769L1196.86 214.346L1214.19 243.415Z" fill="#525252" stroke="#263238" stroke-width="1.67325" stroke-miterlimit="10"/>
<path d="M1812.23 450.853L1161.63 282.151V785.013H1812.23V450.853Z" fill="#92E3A9" stroke="#263238" stroke-width="1.67325" stroke-miterlimit="10"/>
<path d="M1652.49 785.013H1812.23V450.853L1652.49 409.392V785.013Z" fill="#263238" stroke="#263238" stroke-width="1.67325" stroke-miterlimit="10"/>
<path d="M1855.32 472.46L1461.4 369.357L1473.08 338.407L1867 441.51L1855.32 472.46Z" fill="#525252" stroke="#263238" stroke-width="1.67325" stroke-miterlimit="10"/>
<path d="M1057.81 785.013H1488V81.0068L1057.81 252.953V785.013Z" fill="white" stroke="#263238" stroke-width="1.67325" stroke-miterlimit="10"/>
<path d="M1098.1 548.376H1488V81.0068L1098.1 236.861V548.376Z" fill="#263238" stroke="#263238" stroke-width="1.67325" stroke-miterlimit="10"/>
<path d="M1057.81 548.181H1298.02V317.838L1057.81 252.953V548.181Z" fill="white" stroke="#263238" stroke-width="1.67325" stroke-miterlimit="10"/>
<path d="M1212.3 548.181H1298.02V317.838L1212.3 294.674V548.181Z" fill="#92E3A9" stroke="#263238" stroke-width="1.67325" stroke-miterlimit="10"/>
<path d="M1298.02 557.914H1212.3V784.364H1298.02V557.914Z" fill="#92E3A9" stroke="#263238" stroke-width="1.67325" stroke-miterlimit="10"/>
<path d="M1531.73 531.96H1009.73V564.403H1531.73V531.96Z" fill="#525252" stroke="#263238" stroke-width="1.67325" stroke-miterlimit="10"/>
<path d="M1553.27 71.9876L1085.71 265.346L1068.39 236.277L1535.95 42.9189L1553.27 71.9876Z" fill="#525252" stroke="#263238" stroke-width="1.67325" stroke-miterlimit="10"/>
<path d="M1333.31 336.201L1017.26 249.319L1028.94 218.369L1344.99 305.251L1333.31 336.201Z" fill="#525252" stroke="#263238" stroke-width="1.67325" stroke-miterlimit="10"/>
<path d="M1453.81 204.289H1364.2V352.552H1453.81V204.289Z" fill="white" stroke="#263238" stroke-width="1.67325" stroke-miterlimit="10"/>
<path d="M1453.81 370.72H1364.2V518.983H1453.81V370.72Z" fill="white" stroke="#263238" stroke-width="1.67325" stroke-miterlimit="10"/>
<path d="M1188.94 337.304H1103.23V506.006H1188.94V337.304Z" fill="white" stroke="#263238" stroke-width="1.67325" stroke-miterlimit="10"/>
<path d="M1188.94 579.326H1103.23V704.361H1188.94V579.326Z" fill="white" stroke="#263238" stroke-width="1.67325" stroke-miterlimit="10"/>
<path d="M1772.26 518.074H1683.44V743.292H1772.26V518.074Z" fill="white" stroke="#263238" stroke-width="1.67325" stroke-miterlimit="10"/>
<path d="M1380.49 581.987H1312.03V766.91H1380.49V581.987Z" fill="white" stroke="#263238" stroke-width="1.67325" stroke-miterlimit="10"/>
<path d="M1469.44 581.987H1400.99V766.91H1469.44V581.987Z" fill="#263238" stroke="#263238" stroke-width="1.67325" stroke-miterlimit="10"/>
<path d="M1041.53 427.3H803.396V454.163H1041.53V427.3Z" fill="white" stroke="#263238" stroke-width="1.67325" stroke-miterlimit="10"/>
<path d="M1461.4 588.605H1409.36V624.941H1461.4V588.605Z" fill="white" stroke="#263238" stroke-width="1.67325" stroke-miterlimit="10"/>
<path d="M1461.4 630.521H1409.36V666.857H1461.4V630.521Z" fill="white" stroke="#263238" stroke-width="1.67325" stroke-miterlimit="10"/>
<path d="M1461.4 672.502H1409.36V708.838H1461.4V672.502Z" fill="white" stroke="#263238" stroke-width="1.67325" stroke-miterlimit="10"/>
<path d="M1461.4 714.417H1409.36V750.753H1461.4V714.417Z" fill="white" stroke="#263238" stroke-width="1.67325" stroke-miterlimit="10"/>
<path d="M1312.72 1159.31C1380.55 1143.49 1422.7 1075.68 1406.88 1007.86C1391.06 940.039 1323.26 897.883 1255.43 913.703C1187.61 929.523 1145.46 997.328 1161.28 1065.15C1177.1 1132.97 1244.9 1175.13 1312.72 1159.31Z" fill="#263238" stroke="#263238" stroke-miterlimit="10"/>
<path d="M490.092 1125.69C539.337 1076.44 539.337 996.6 490.092 947.356C440.848 898.111 361.006 898.111 311.762 947.356C262.517 996.6 262.517 1076.44 311.762 1125.69C361.006 1174.93 440.848 1174.93 490.092 1125.69Z" fill="#263238" stroke="#263238" stroke-miterlimit="10"/>
<path d="M1199.02 797.551C1199.02 797.551 1165.57 776.629 1012.8 726.396C860.028 676.164 761.637 659.389 610.987 663.63C460.338 667.871 257.288 724.323 219.638 739.025C181.987 753.727 165.212 757.874 173.6 768.288C181.987 778.702 227.978 816.447 221.711 833.175C215.444 849.903 113 942.121 106.592 956.588C100.183 971.054 127.561 1021.48 131.708 1034.06C135.855 1046.64 158.945 1050.79 177.746 1052.91C196.548 1055.03 1535.99 1052.91 1535.99 1052.91C1535.99 1052.91 1554.84 1029.91 1550.65 1000.6C1546.46 971.29 1541.98 932.65 1523.08 907.911C1507.82 887.837 1492.03 866.679 1452.4 862.485C1427.28 859.799 1205.34 799.671 1199.02 797.551Z" fill="#92E3A9"/>
<path d="M1199.02 797.551C1199.02 797.551 1165.57 776.629 1012.8 726.396C860.028 676.164 761.637 659.389 610.987 663.63C460.338 667.871 257.288 724.323 219.638 739.025C181.987 753.727 165.212 757.874 173.6 768.288C181.987 778.702 227.978 816.447 221.711 833.175C215.444 849.903 113 942.121 106.592 956.588C100.183 971.054 127.561 1021.48 131.708 1034.06C135.855 1046.64 158.945 1050.79 177.746 1052.91C196.548 1055.03 1535.99 1052.91 1535.99 1052.91C1535.99 1052.91 1554.84 1029.91 1550.65 1000.6C1546.46 971.29 1541.98 932.65 1523.08 907.911C1507.82 887.837 1492.03 866.679 1452.4 862.485C1427.28 859.799 1205.34 799.671 1199.02 797.551Z" fill="#92E3A9"/>
<path opacity="0.15" d="M1199.02 797.551C1199.02 797.551 1165.57 776.629 1012.8 726.396C860.028 676.164 761.637 659.389 610.987 663.63C460.338 667.871 257.288 724.323 219.638 739.025C181.987 753.727 165.212 757.874 173.6 768.288C181.987 778.702 227.978 816.447 221.711 833.175C215.444 849.903 113 942.121 106.592 956.588C100.183 971.054 127.561 1021.48 131.708 1034.06C135.855 1046.64 158.945 1050.79 177.746 1052.91C196.548 1055.03 1535.99 1052.91 1535.99 1052.91C1535.99 1052.91 1554.84 1029.91 1550.65 1000.6C1546.46 971.29 1541.98 932.65 1523.08 907.911C1507.82 887.837 1492.03 866.679 1452.4 862.485C1427.28 859.799 1205.34 799.671 1199.02 797.551Z" fill="black"/>
<path d="M1199.02 797.551C1199.02 797.551 1165.57 776.629 1012.8 726.396C860.028 676.164 761.637 659.389 610.987 663.63C460.338 667.871 257.288 724.323 219.638 739.025C181.987 753.727 165.212 757.874 173.6 768.288C181.987 778.702 227.978 816.447 221.711 833.175C215.444 849.903 113 942.121 106.592 956.588C100.183 971.054 127.561 1021.48 131.708 1034.06C135.855 1046.64 158.945 1050.79 177.746 1052.91C196.548 1055.03 1535.99 1052.91 1535.99 1052.91C1535.99 1052.91 1554.84 1029.91 1550.65 1000.6C1546.46 971.29 1541.98 932.65 1523.08 907.911C1507.82 887.837 1492.03 866.679 1452.4 862.485C1427.28 859.799 1205.34 799.671 1199.02 797.551Z" stroke="#263238" stroke-miterlimit="10"/>
<path d="M1535.99 944.053H1456.45V964.976H1535.99V944.053Z" fill="#263238" stroke="#263238" stroke-miterlimit="10"/>
<path d="M1418.28 907.864H1430.96C1439.07 907.847 1446.99 910.263 1453.71 914.799C1460.43 919.336 1465.64 925.784 1468.66 933.31L1481.43 964.976H1439.96L1418.28 907.864Z" fill="white" stroke="#263238" stroke-miterlimit="10"/>
<path d="M1535 929.257C1534.53 930.576 1534.11 931.896 1533.73 933.31L1525.2 964.976H1545.09C1542.89 952.771 1539.51 940.809 1535 929.257V929.257Z" fill="white" stroke="#263238" stroke-miterlimit="10"/>
<path d="M1199.02 797.551C1199.02 797.551 1165.57 776.628 1012.8 726.396C977.88 714.946 945.884 705.238 915.396 697.086H807.675L784.679 703.401L1094.41 797.645L1199.02 797.551Z" fill="#263238" stroke="#263238" stroke-miterlimit="10"/>
<path d="M71.0615 764V905.366C71.0615 905.366 157.107 834.683 146.457 814.562C135.807 794.441 71.0615 764 71.0615 764Z" fill="#8F8F8F" stroke="#263238" stroke-miterlimit="10"/>
<path d="M1094.41 797.551C1094.41 797.551 1060.91 776.629 908.139 726.396C755.369 676.164 657.026 659.389 506.329 663.63C355.632 667.871 152.63 724.323 115.215 739.025C77.8003 753.727 60.7892 757.874 69.177 768.288C77.5647 778.702 123.603 816.447 117.289 833.175C110.974 849.903 8.24807 942.121 1.98082 956.588C-4.28642 971.054 22.903 1021.48 27.0969 1034.06C31.2908 1046.64 54.2864 1050.79 73.1352 1052.91C91.9841 1055.03 1431.34 1052.91 1431.34 1052.91C1431.34 1052.91 1450.19 1029.91 1445.99 1000.6C1441.8 971.29 1437.13 932.697 1418.28 907.864C1403.02 887.79 1387.18 866.632 1347.6 862.438C1322.67 859.799 1100.68 799.671 1094.41 797.551Z" fill="#92E3A9"/>
<path opacity="0.15" d="M1418.28 907.864C1403.02 887.79 1387.18 866.632 1347.6 862.438C1341 861.731 1320.6 857.019 1294.07 850.422C1167.59 849.149 1097.15 900.277 908.186 917.618C662.115 940.142 491.862 878.648 286.787 854.003C201.26 843.777 132.226 856.359 80.7217 874.454C48.443 907.063 5.89172 947.352 1.93346 956.588C-4.33379 971.243 22.8557 1021.48 27.0496 1034.06C31.2434 1046.64 54.239 1050.79 73.0879 1052.91C91.9367 1055.03 1431.29 1052.91 1431.29 1052.91C1431.29 1052.91 1450.14 1029.91 1445.94 1000.6C1441.75 971.29 1437.13 932.697 1418.28 907.864Z" fill="black"/>
<path d="M1094.41 797.551C1094.41 797.551 1060.91 776.629 908.139 726.396C755.369 676.164 657.026 659.389 506.329 663.63C355.632 667.871 152.63 724.323 115.215 739.025C77.8003 753.727 60.7892 757.874 69.177 768.288C77.5647 778.702 123.603 816.447 117.289 833.175C110.974 849.903 8.24807 942.121 1.98082 956.588C-4.28642 971.054 22.903 1021.48 27.0969 1034.06C31.2908 1046.64 54.2864 1050.79 73.1352 1052.91C91.9841 1055.03 1431.34 1052.91 1431.34 1052.91C1431.34 1052.91 1450.19 1029.91 1445.99 1000.6C1441.8 971.29 1437.13 932.697 1418.28 907.864C1403.02 887.79 1387.18 866.632 1347.6 862.438C1322.67 859.799 1100.68 799.671 1094.41 797.551Z" stroke="#263238" stroke-miterlimit="10"/>
<path d="M302.95 720.365L386.686 808.813H1002.2V788.739C1002.2 788.739 876.049 739.213 743.023 713.343C609.998 687.473 576.776 689.782 516.837 690.913C456.898 692.044 302.95 720.365 302.95 720.365Z" fill="#8F8F8F"/>
<path d="M603.071 770.126C524.722 752.236 442.758 759 368.402 789.493L386.686 808.813H1002.2V788.739C1002.2 788.739 981.791 780.728 948.711 769.466C879.489 796.043 742.175 800.755 603.071 770.126Z" fill="#263238" stroke="#263238" stroke-miterlimit="10"/>
<path d="M302.95 720.365L386.686 808.813H1002.2V788.739C1002.2 788.739 876.049 739.213 743.023 713.343C609.998 687.473 576.776 689.782 516.837 690.913C456.898 692.044 302.95 720.365 302.95 720.365Z" stroke="#263238" stroke-width="4" stroke-miterlimit="10"/>
<path d="M581.253 820.593V1012.8" stroke="#263238" stroke-miterlimit="10"/>
<path d="M286.989 1159.44C354.827 1143.69 397.054 1075.93 381.305 1008.09C365.556 940.251 297.795 898.024 229.957 913.774C162.118 929.523 119.892 997.284 135.641 1065.12C151.39 1132.96 219.151 1175.19 286.989 1159.44Z" fill="#263238" stroke="#263238" stroke-miterlimit="10"/>
<path d="M258.608 945.514C240.605 945.514 223.007 950.854 208.04 960.859C193.073 970.864 181.411 985.083 174.528 1001.72C167.645 1018.35 165.851 1036.66 169.374 1054.31C172.896 1071.97 181.576 1088.18 194.316 1100.9C207.056 1113.62 223.282 1122.27 240.943 1125.77C258.603 1129.26 276.903 1127.44 293.527 1120.53C310.151 1113.62 324.353 1101.94 334.334 1086.96C344.316 1071.97 349.628 1054.37 349.6 1036.37C349.551 1012.26 339.943 989.16 322.886 972.129C305.828 955.098 282.712 945.527 258.608 945.514V945.514ZM319.866 1018.27L266.854 1028.21L281.886 977.086C290.902 980.642 298.996 986.195 305.558 993.328C312.12 1000.46 316.98 1008.99 319.772 1018.27H319.866ZM263.32 1031.94V1041.08H254.225V1031.94H263.32ZM240.56 975.39L250.503 1028.4L199.328 1013.32C202.837 1004.32 208.34 996.231 215.424 989.661C222.508 983.091 230.989 978.212 240.23 975.39H240.56ZM197.631 1054.74L250.644 1044.8L235.518 1095.93C226.458 1092.42 218.322 1086.88 211.731 1079.74C205.14 1072.6 200.269 1064.05 197.49 1054.74H197.631ZM276.985 1097.62L267.042 1044.66L318.076 1059.93C314.504 1068.92 308.937 1076.99 301.794 1083.52C294.652 1090.05 286.121 1094.87 276.844 1097.62H276.985Z" fill="white" stroke="#263238" stroke-miterlimit="10"/>
<path d="M286.834 1036.37C286.834 1030.77 285.175 1025.31 282.069 1020.66C278.962 1016.01 274.546 1012.38 269.38 1010.24C264.214 1008.1 258.529 1007.54 253.045 1008.64C247.56 1009.73 242.522 1012.42 238.568 1016.37C234.614 1020.33 231.921 1025.37 230.83 1030.85C229.739 1036.33 230.299 1042.02 232.439 1047.19C234.579 1052.35 238.203 1056.77 242.853 1059.87C247.502 1062.98 252.968 1064.64 258.56 1064.64C266.059 1064.64 273.25 1061.66 278.553 1056.36C283.855 1051.06 286.834 1043.86 286.834 1036.37V1036.37Z" fill="white" stroke="#263238" stroke-miterlimit="10"/>
<path d="M1235.14 1125.68C1284.39 1076.44 1284.39 996.597 1235.14 947.352C1185.9 898.108 1106.06 898.108 1056.81 947.352C1007.57 996.597 1007.57 1076.44 1056.81 1125.68C1106.06 1174.93 1185.9 1174.93 1235.14 1125.68Z" fill="#263238" stroke="#263238" stroke-miterlimit="10"/>
<path d="M1145.96 945.514C1127.96 945.514 1110.36 950.854 1095.4 960.859C1080.43 970.864 1068.77 985.083 1061.88 1001.72C1055 1018.35 1053.21 1036.66 1056.73 1054.31C1060.25 1071.97 1068.93 1088.18 1081.67 1100.9C1094.41 1113.62 1110.64 1122.27 1128.3 1125.77C1145.96 1129.26 1164.26 1127.44 1180.88 1120.53C1197.51 1113.62 1211.71 1101.94 1221.69 1086.96C1231.67 1071.97 1236.99 1054.37 1236.96 1036.37C1236.91 1012.26 1227.3 989.16 1210.24 972.129C1193.18 955.098 1170.07 945.527 1145.96 945.514V945.514ZM1207.22 1018.27L1154.26 1028.21L1169.29 977.086C1178.29 980.645 1186.37 986.2 1192.92 993.334C1199.47 1000.47 1204.31 1008.99 1207.08 1018.27H1207.22ZM1150.68 1031.94V1041.08H1141.53V1031.94H1150.68ZM1127.87 975.39L1137.81 1028.4L1086.68 1013.32C1090.2 1004.3 1095.73 996.199 1102.84 989.627C1109.95 983.055 1118.46 978.187 1127.73 975.39H1127.87ZM1084.99 1054.74L1138 1044.8L1122.92 1095.93C1113.86 1092.42 1105.71 1086.89 1099.11 1079.75C1092.51 1072.61 1087.63 1064.06 1084.85 1054.74H1084.99ZM1164.34 1097.62L1154.4 1044.66L1205.39 1059.93C1201.82 1068.92 1196.27 1076.99 1189.13 1083.52C1182 1090.05 1173.47 1094.87 1164.2 1097.62H1164.34Z" fill="white" stroke="#263238" stroke-miterlimit="10"/>
<path d="M1174.19 1036.37C1174.19 1030.77 1172.53 1025.31 1169.43 1020.66C1166.32 1016.01 1161.9 1012.38 1156.74 1010.24C1151.57 1008.1 1145.89 1007.54 1140.4 1008.64C1134.92 1009.73 1129.88 1012.42 1125.93 1016.37C1121.97 1020.33 1119.28 1025.37 1118.19 1030.85C1117.1 1036.33 1117.66 1042.02 1119.8 1047.19C1121.94 1052.35 1125.56 1056.77 1130.21 1059.87C1134.86 1062.98 1140.33 1064.64 1145.92 1064.64C1153.42 1064.64 1160.61 1061.66 1165.91 1056.36C1171.21 1051.06 1174.19 1043.86 1174.19 1036.37Z" fill="white" stroke="#263238" stroke-miterlimit="10"/>
<path d="M1418.28 907.864C1418.28 907.864 1324.42 903.151 1320.22 907.864C1316.03 912.576 1351.61 950.273 1364.19 958.708C1374.13 965.353 1420.97 964.08 1439.91 963.42C1436.1 943.158 1429.92 922.943 1418.28 907.864Z" fill="white" stroke="#263238" stroke-miterlimit="10"/>
<path d="M596.662 691.526C590.489 691.102 584.693 690.819 579.038 690.631L563.252 808.436H605.097L596.662 691.526Z" fill="#263238" stroke="#263238" stroke-miterlimit="10"/>
<path d="M394.924 995.731L385.081 1010.52L304.196 1045.67C304.196 1045.67 292.941 1047.79 292.941 1051.3C292.941 1054.81 290.823 1064.67 292.941 1066.09C295.059 1067.5 309.078 1062.56 309.078 1062.56C309.078 1062.56 304.862 1067.48 309.078 1068.89C313.293 1070.3 317.509 1063.97 317.509 1063.97C321.639 1061.37 325.632 1058.55 329.47 1055.54C331.452 1052.93 333.105 1050.09 334.392 1047.08L409.023 1028.1L424.494 1004.89C424.494 1004.89 392.826 1001.36 394.924 995.731Z" fill="#B5B5B5" stroke="#263238" stroke-width="1.62103" stroke-linecap="round" stroke-linejoin="round"/>
<path d="M400.551 962.57L391.394 992.624L415.336 1006.89L424.998 983.447L400.551 962.57Z" fill="white" stroke="#263238" stroke-width="1.62103" stroke-linecap="round" stroke-linejoin="round"/>
<path d="M392.342 982.943L421.388 1000.27L416.285 1009.43L388.792 995.166C388.982 990.867 390.2 986.675 392.342 982.943Z" fill="white" stroke="#263238" stroke-width="1.62103" stroke-linecap="round" stroke-linejoin="round"/>
<path d="M334.856 1141.81C334.856 1141.81 314.483 1151.99 308.876 1156.57C303.268 1161.15 302.26 1160.61 303.773 1164.22H368.984L367.451 1140.78L334.856 1141.81Z" fill="white" stroke="#263238" stroke-width="1.62103" stroke-linecap="round" stroke-linejoin="round"/>
<path d="M368.742 1160.71H303.773C302.885 1161.65 302.986 1162.42 303.773 1164.28H368.984L368.742 1160.71Z" fill="white" stroke="#263238" stroke-width="1.62103" stroke-linecap="round" stroke-linejoin="round"/>
<path d="M422.456 1020.64C422.456 1020.64 397.505 1010.46 377.133 1008.42C356.761 1006.38 314.483 1007.39 312.446 1016.49C310.409 1025.58 342.5 1125.41 342.5 1125.41C342.5 1125.41 336.893 1128.98 336.449 1131.46C336.005 1133.94 334.936 1141.54 334.936 1141.54L367.532 1146.63C367.532 1146.63 368.54 1136.44 368.54 1126.78C368.54 1117.12 357.346 1057.49 357.346 1057.49L423.041 1078.39L398.595 1130.33C398.595 1130.33 390.97 1145.62 399.623 1153.26C408.276 1160.91 422.537 1159.31 422.537 1159.31L538.679 1160.85L536.662 1141.99C536.662 1141.99 519.86 1139.45 516.794 1139.45C513.728 1139.45 455.153 1124.68 455.153 1124.68C455.153 1124.68 502.029 1075.77 507.112 1067.62C510.137 1063.11 512.197 1058.02 513.162 1052.67C514.127 1047.33 513.976 1041.84 512.72 1036.56C509.654 1024.33 507.617 1021.77 507.617 1021.77C507.617 1021.77 471.874 1038.94 453.539 1034.9C442.309 1032.33 431.728 1027.48 422.456 1020.64V1020.64Z" fill="#263238" stroke="#263238" stroke-width="1.62103" stroke-linecap="round" stroke-linejoin="round"/>
<path d="M339.435 864.259C339.435 864.259 343.005 875.978 343.005 877.511C343.005 879.044 340.443 886.668 342.501 889.21C344.558 891.751 350.569 892.276 350.569 892.276C350.569 892.276 359.726 902.966 363.801 907.041C367.875 911.115 372.454 912.648 377.557 910.107C382.66 907.565 387.239 900.929 387.239 900.929L396.921 910.611L419.331 884.631L411.262 874.445C411.262 874.445 413.279 862.726 405.655 847.457C398.03 832.188 371.526 828.093 354.2 831.159C336.873 834.225 332.819 844.391 332.819 846.428C332.819 848.465 339.435 864.259 339.435 864.259Z" fill="white" stroke="#263238" stroke-width="1.62103" stroke-linecap="round" stroke-linejoin="round"/>
<path d="M348.612 817.907C348.612 817.907 337.902 809.839 330.781 813.328C323.661 816.818 326.747 819.944 325.678 826.056C324.609 832.167 306.839 832.672 306.839 842.858C306.839 853.044 319.567 856.614 322.108 857.118C324.65 857.623 322.632 868.838 330.176 868.838C337.72 868.838 339.354 864.259 339.354 864.259C339.354 864.259 333.746 847.961 339.858 845.419C345.97 842.878 359.726 837.775 357.689 847.437C355.652 857.098 362.792 860.164 366.867 859.156C370.941 858.147 376.024 858.631 376.952 860.668C377.88 862.706 383.003 866.276 383.003 861.193C383.003 856.11 385.545 851.511 390.123 851.511C394.702 851.511 398.192 859.156 397.768 865.267C397.424 868.948 396.023 872.45 393.734 875.353L411.06 874.324C411.06 874.324 415.639 851.41 411.565 835.112C407.49 818.815 388.308 809.758 376.609 808.225C364.91 806.692 350.125 813.328 348.612 817.907Z" fill="#263238" stroke="#263238" stroke-width="1.62103" stroke-linecap="round" stroke-linejoin="round"/>
<path d="M352.989 873.356C354.26 875.373 354.563 877.39 353.695 877.894C352.828 878.398 351.053 877.39 349.803 875.454C348.552 873.517 348.209 871.419 349.097 870.915C349.984 870.411 351.719 871.52 352.989 873.356Z" fill="#263238"/>
<path d="M359.605 896.229C362.04 895.745 364.245 894.47 365.88 892.602C367.514 890.734 368.485 888.379 368.642 885.902" stroke="#263238" stroke-width="1.62103" stroke-linecap="round" stroke-linejoin="round"/>
<path d="M344.094 869.1C344.094 869.1 344.941 864.36 350.548 866.518" stroke="#263238" stroke-width="1.62103" stroke-linecap="round" stroke-linejoin="round"/>
<path d="M398.01 919.264C398.01 919.264 393.976 952.889 398.514 963.075C403.052 973.261 419.411 1014.01 419.411 1014.01C419.411 1014.01 415.841 1038.94 426.027 1045.59C436.213 1052.25 474.92 1053.24 489.705 1044.06C504.49 1034.88 510.582 1027.76 510.582 1021.15C510.582 1014.53 500.9 985.484 485.631 956.459C474.45 935.201 459.015 916.472 440.287 901.433C429.597 892.78 425.522 888.706 423.485 888.706C421.448 888.706 397.001 909.602 398.01 919.264Z" fill="white" stroke="#263238" stroke-width="1.62103" stroke-linecap="round" stroke-linejoin="round"/>
<path d="M419.411 882.089L391.898 913.152L397.506 929.975L428.569 889.734L419.411 882.089Z" fill="white" stroke="#263238" stroke-width="1.62103" stroke-linecap="round" stroke-linejoin="round"/>
<path d="M419.915 995.67C419.915 995.67 363.881 1027.76 356.761 1030.32C349.641 1032.88 326.707 1032.86 320.071 1032.34C319.257 1032.2 318.421 1032.23 317.623 1032.45C316.824 1032.66 316.083 1033.05 315.451 1033.58C314.82 1034.11 314.313 1034.78 313.968 1035.53C313.623 1036.28 313.448 1037.1 313.455 1037.93L312.446 1057.29C312.446 1057.29 318.034 1058.82 320.515 1057.29C322.996 1055.76 325.597 1050.15 325.597 1050.15C325.597 1050.15 334.775 1051.18 337.821 1049.14C339.82 1047.78 341.696 1046.25 343.428 1044.56C352.84 1043.78 362.196 1042.44 371.445 1040.53C381.631 1037.97 428.488 1022.7 435.628 1021.17C442.768 1019.63 445.31 1015.56 445.814 1013.1C446.318 1010.64 419.915 995.67 419.915 995.67Z" fill="white" stroke="#263238" stroke-width="1.62103" stroke-linecap="round" stroke-linejoin="round"/>
<path d="M356.035 1030.53C348.249 1032.84 326.505 1032.84 320.071 1032.36C319.257 1032.22 318.421 1032.25 317.623 1032.47C316.824 1032.68 316.083 1033.07 315.451 1033.6C314.82 1034.13 314.313 1034.8 313.968 1035.55C313.623 1036.3 313.448 1037.12 313.455 1037.95L312.446 1057.31C312.446 1057.31 318.034 1058.84 320.515 1057.31C322.996 1055.78 325.597 1050.17 325.597 1050.17C325.597 1050.17 334.775 1051.2 337.821 1049.16C339.82 1047.8 341.696 1046.27 343.428 1044.58C343.428 1044.58 351.981 1043.84 360.634 1042.57L356.035 1030.53Z" fill="#92E3A9" stroke="#263238" stroke-width="1.62103" stroke-linecap="round" stroke-linejoin="round"/>
<path d="M423.989 919.788C423.989 919.788 415.336 929.45 416.344 936.59C417.353 943.731 419.915 995.67 419.915 995.67L448.94 1007.39L457.008 966.14C457.008 966.14 463.645 955.43 462.616 945.244" fill="white"/>
<path d="M423.989 919.788C423.989 919.788 415.336 929.45 416.344 936.59C417.353 943.731 419.915 995.67 419.915 995.67L448.94 1007.39L457.008 966.14C457.008 966.14 463.645 955.43 462.616 945.244" stroke="#263238" stroke-width="1.62103" stroke-linecap="round" stroke-linejoin="round"/>
<path d="M417.374 998.232L446.904 1016.04C446.904 1016.04 450.938 1016.04 451.503 1009.43C452.067 1002.81 455.053 1001.78 452.511 998.232C449.97 994.682 422.961 983.447 420.42 983.447C417.878 983.447 415.337 989.559 417.374 998.232Z" fill="white" stroke="#263238" stroke-width="1.62103" stroke-linecap="round" stroke-linejoin="round"/>
<path d="M536.561 1142.37C536.561 1142.37 551.83 1129.14 554.392 1129.64C556.953 1130.15 577.306 1149.51 577.306 1149.51C577.306 1149.51 596.145 1159.7 596.145 1161.23C596.145 1162.76 593.099 1163.25 593.099 1163.25L538.639 1161.23L536.561 1142.37Z" fill="white" stroke="#263238" stroke-width="1.62103" stroke-linecap="round" stroke-linejoin="round"/>
<path d="M596.065 1161.23C596.065 1159.7 577.225 1149.51 577.225 1149.51C577.225 1149.51 556.853 1130.15 554.311 1129.64C553.404 1129.46 550.862 1131.04 547.998 1133.13L572.647 1150.52L590.598 1163.17L593.019 1163.27C593.019 1163.27 596.065 1162.74 596.065 1161.23Z" fill="white" stroke="#263238" stroke-width="1.62103" stroke-linecap="round" stroke-linejoin="round"/>
<path d="M422.96 1078.71L417.877 1057.31" stroke="#999999" stroke-width="1.62103" stroke-linecap="round" stroke-linejoin="round"/>
</svg>
