<svg width="1887" height="1581" viewBox="0 0 1887 1581" fill="none" xmlns="http://www.w3.org/2000/svg">
<path d="M333.755 771.953C333.755 771.953 395.202 778.052 426.282 816.14C437.469 802.582 451.524 791.674 467.433 784.202C483.343 776.729 500.712 772.878 518.289 772.926C532.725 755.519 541.919 734.37 544.803 711.94C547.687 689.511 544.142 666.724 534.579 646.231C525.017 625.738 509.831 608.383 490.789 596.184C471.747 583.986 449.632 577.447 427.019 577.328C404.405 577.208 382.222 583.514 363.053 595.511C343.883 607.508 328.515 624.702 318.737 645.093C308.959 665.484 305.174 688.232 307.821 710.691C310.468 733.149 319.439 754.394 333.69 771.953H333.755Z" fill="#92E3A9"/>
<path opacity="0.2" d="M333.755 771.953C333.755 771.953 395.202 778.052 426.282 816.14C437.469 802.582 451.524 791.674 467.433 784.202C483.343 776.729 500.712 772.878 518.289 772.926C532.725 755.519 541.919 734.37 544.803 711.94C547.687 689.511 544.142 666.724 534.579 646.231C525.017 625.738 509.831 608.383 490.789 596.184C471.747 583.986 449.632 577.447 427.019 577.328C404.405 577.208 382.222 583.514 363.053 595.511C343.883 607.508 328.515 624.702 318.737 645.093C308.959 665.484 305.174 688.232 307.821 710.691C310.468 733.149 319.439 754.394 333.69 771.953H333.755Z" fill="white"/>
<path d="M430.37 938.059L424.271 630.827L422.778 941.239L430.37 938.059Z" fill="#828282"/>
<path d="M427.385 804.395C427.385 804.395 448.148 767.021 485.457 755.666C485.457 755.666 446.072 764.945 426.347 797.128L427.385 804.395Z" fill="#828282"/>
<path d="M425.828 700.579C425.828 700.579 448.149 661.128 485.458 649.773C485.458 649.773 445.683 660.544 425.958 692.728L425.828 700.579Z" fill="#828282"/>
<path d="M426.476 752.876C426.476 752.876 448.148 713.945 485.457 702.85C485.457 702.85 446.072 712.128 426.347 744.312L426.476 752.876Z" fill="#828282"/>
<path d="M424.335 725.624C424.335 725.624 404.286 688.315 368.274 676.896C368.274 676.896 406.297 686.239 425.309 718.357L424.335 725.624Z" fill="#828282"/>
<path d="M424.335 777.468C424.335 777.468 404.286 740.159 368.274 728.739C368.274 728.739 406.297 738.082 425.309 770.201L424.335 777.468Z" fill="#828282"/>
<path d="M1674.03 650.617C1674.03 650.617 1735.47 656.716 1766.62 694.804C1777.8 681.252 1791.84 670.346 1807.74 662.874C1823.64 655.402 1840.99 651.548 1858.56 651.59C1873 634.176 1882.18 613.02 1885.06 590.585C1887.94 568.15 1884.38 545.36 1874.81 524.868C1865.23 504.376 1850.03 487.025 1830.98 474.835C1811.93 462.646 1789.8 456.12 1767.19 456.016C1744.57 455.913 1722.39 462.237 1703.22 474.251C1684.06 486.266 1668.7 503.477 1658.94 523.881C1649.18 544.285 1645.42 567.041 1648.09 589.502C1650.76 611.962 1659.75 633.201 1674.03 650.747V650.617Z" fill="#92E3A9"/>
<path opacity="0.2" d="M1674.03 650.617C1674.03 650.617 1735.47 656.716 1766.62 694.804C1777.8 681.252 1791.84 670.346 1807.74 662.874C1823.64 655.402 1840.99 651.548 1858.56 651.59C1873 634.176 1882.18 613.02 1885.06 590.585C1887.94 568.15 1884.38 545.36 1874.81 524.868C1865.23 504.376 1850.03 487.025 1830.98 474.835C1811.93 462.646 1789.8 456.12 1767.19 456.016C1744.57 455.913 1722.39 462.237 1703.22 474.251C1684.06 486.266 1668.7 503.477 1658.94 523.881C1649.18 544.285 1645.42 567.041 1648.09 589.502C1650.76 611.962 1659.75 633.201 1674.03 650.747V650.617Z" fill="white"/>
<path d="M1770.64 816.788L1764.54 509.556L1763.05 819.968L1770.64 816.788Z" fill="#828282"/>
<path d="M1767.66 683.19C1767.66 683.19 1788.42 645.881 1826.05 634.461C1826.05 634.461 1786.67 643.804 1766.94 675.922L1767.66 683.19Z" fill="#828282"/>
<path d="M1766.1 579.503C1766.1 579.503 1788.42 540.052 1825.73 528.697C1825.73 528.697 1785.95 539.468 1766.29 571.651L1766.1 579.503Z" fill="#828282"/>
<path d="M1766.68 631.605C1766.68 631.605 1788.36 592.674 1825.67 581.579C1825.67 581.579 1786.28 590.922 1766.55 623.041L1766.68 631.605Z" fill="#828282"/>
<path d="M1764.61 604.354C1764.61 604.354 1744.62 567.045 1708.55 555.625C1708.55 555.625 1746.57 564.968 1765.58 597.087L1764.61 604.354Z" fill="#828282"/>
<path d="M1764.61 656.197C1764.61 656.197 1744.62 618.888 1708.55 607.468C1708.55 607.468 1746.57 616.812 1765.58 648.995L1764.61 656.197Z" fill="#828282"/>
<path d="M402.663 631.541C402.663 631.541 486.495 639.846 528.995 691.819C544.26 673.317 563.438 658.43 585.149 648.231C606.859 638.032 630.561 632.775 654.548 632.838C674.232 609.067 686.759 580.194 690.671 549.58C694.583 518.966 689.72 487.87 676.646 459.913C663.573 431.956 642.828 408.286 616.826 391.661C590.824 375.035 560.634 366.137 529.772 366.002C498.909 365.866 468.643 374.5 442.496 390.897C416.349 407.295 395.398 430.781 382.08 458.623C368.762 486.465 363.627 517.517 367.271 548.164C370.914 578.811 383.188 607.793 402.663 631.735V631.541Z" fill="#92E3A9"/>
<path opacity="0.4" d="M402.663 631.541C402.663 631.541 486.495 639.846 528.995 691.819C544.26 673.317 563.438 658.43 585.149 648.231C606.859 638.032 630.561 632.775 654.548 632.838C674.232 609.067 686.759 580.194 690.671 549.58C694.583 518.966 689.72 487.87 676.646 459.913C663.573 431.956 642.828 408.286 616.826 391.661C590.824 375.035 560.634 366.137 529.772 366.002C498.909 365.866 468.643 374.5 442.496 390.897C416.349 407.295 395.398 430.781 382.08 458.623C368.762 486.465 363.627 517.517 367.271 548.164C370.914 578.811 383.188 607.793 402.663 631.735V631.541Z" fill="white"/>
<path d="M534.511 858.315L526.271 439.091L524.194 862.597L534.511 858.315Z" fill="#828282"/>
<path d="M530.488 675.987C530.488 675.987 558.778 625.052 609.713 609.48C609.713 609.48 555.988 622.457 529.061 666.06L530.488 675.987Z" fill="#828282"/>
<path d="M528.346 534.472C528.346 534.472 558.777 480.747 609.712 465.175C609.712 465.175 555.468 479.904 528.54 523.571L528.346 534.472Z" fill="#828282"/>
<path d="M529.19 605.651C529.19 605.651 558.778 552.9 609.713 537.327C609.713 537.327 555.988 550.304 529.061 593.907L529.19 605.651Z" fill="#828282"/>
<path d="M526.27 568.472C526.27 568.472 498.953 517.537 449.835 501.965C449.835 501.965 501.743 514.942 527.697 558.545L526.27 568.472Z" fill="#828282"/>
<path d="M526.27 639.197C526.27 639.197 498.953 588.262 449.835 572.69C449.835 572.69 501.743 585.667 527.697 629.27L526.27 639.197Z" fill="#828282"/>
<path d="M1057.81 924.433H411.877V1151.01H1057.81V924.433Z" fill="#92E3A9" stroke="#263238" stroke-width="1.67325" stroke-miterlimit="10"/>
<path d="M1021.35 924.433H448.278V1151.01H1021.35V924.433Z" fill="white" stroke="#263238" stroke-width="1.67325" stroke-miterlimit="10"/>
<path d="M561.243 961.418V1150.69" stroke="#263238" stroke-width="1.67325" stroke-miterlimit="10"/>
<path d="M787.305 961.418V1150.69" stroke="#263238" stroke-width="1.67325" stroke-miterlimit="10"/>
<path d="M872.044 961.418V1150.69" stroke="#263238" stroke-width="1.67325" stroke-miterlimit="10"/>
<path d="M956.85 961.418V1150.69" stroke="#263238" stroke-width="1.67325" stroke-miterlimit="10"/>
<path d="M448.213 1005.54H1022.06" stroke="#263238" stroke-width="1.67325" stroke-miterlimit="10"/>
<path d="M448.213 1055.57H1022.06" stroke="#263238" stroke-width="1.67325" stroke-miterlimit="10"/>
<path d="M448.213 1107.67H1022.06" stroke="#263238" stroke-width="1.67325" stroke-miterlimit="10"/>
<path d="M714.633 924.433H674.339V1151.01H714.633V924.433Z" fill="#92E3A9" stroke="#263238" stroke-width="1.67325" stroke-miterlimit="10"/>
<path d="M347.316 958.044H1081.95V786.617H500.705L347.316 958.044Z" fill="#263238" stroke="#263238" stroke-width="1.67325" stroke-miterlimit="10"/>
<path d="M581.422 779.869H1085.71V631.346H702.498L581.422 779.869Z" fill="white" stroke="#263238" stroke-width="1.67325" stroke-miterlimit="10"/>
<path d="M799.373 695.842H585.446V816.853H799.373V695.842Z" fill="#92E3A9" stroke="#263238" stroke-width="1.67325" stroke-miterlimit="10"/>
<path d="M670.056 746.258H601.602V800.048H670.056V746.258Z" fill="white" stroke="#263238" stroke-width="1.67325" stroke-miterlimit="10"/>
<path d="M759.014 746.258H690.56V800.048H759.014V746.258Z" fill="white" stroke="#263238" stroke-width="1.67325" stroke-miterlimit="10"/>
<path d="M532.953 732.827H1089.99V584.304H666.747L532.953 732.827Z" fill="#263238" stroke="#263238" stroke-width="1.67325" stroke-miterlimit="10"/>
<path d="M1566.38 816.853H1780.31V695.842H1566.38V816.853Z" fill="#92E3A9" stroke="#263238" stroke-width="1.67325" stroke-miterlimit="10"/>
<path d="M1695.7 800.048H1764.15V746.258H1695.7V800.048Z" fill="white" stroke="#263238" stroke-width="1.67325" stroke-miterlimit="10"/>
<path d="M1606.68 800.048H1675.13V746.258H1606.68V800.048Z" fill="white" stroke="#263238" stroke-width="1.67325" stroke-miterlimit="10"/>
<path d="M1832.74 732.827H1275.7V584.304H1699.01L1832.74 732.827Z" fill="#263238" stroke="#263238" stroke-width="1.67325" stroke-miterlimit="10"/>
<path d="M1073.9 658.857L771.147 779.869V880.765H1069.81L1073.9 658.857Z" fill="#263238" stroke="#263238" stroke-width="1.67325" stroke-miterlimit="10"/>
<path d="M1214.18 609.415L746.686 802.773L729.361 773.769L1196.86 580.346L1214.18 609.415Z" fill="#525252" stroke="#263238" stroke-width="1.67325" stroke-miterlimit="10"/>
<path d="M1812.23 816.853L1161.63 648.151V1151.01H1812.23V816.853Z" fill="#92E3A9" stroke="#263238" stroke-width="1.67325" stroke-miterlimit="10"/>
<path d="M1652.49 1151.01H1812.23V816.853L1652.49 775.392V1151.01Z" fill="#263238" stroke="#263238" stroke-width="1.67325" stroke-miterlimit="10"/>
<path d="M1855.32 838.46L1461.4 735.357L1473.08 704.407L1867 807.51L1855.32 838.46Z" fill="#525252" stroke="#263238" stroke-width="1.67325" stroke-miterlimit="10"/>
<path d="M1057.81 1151.01H1488V447.007L1057.81 618.953V1151.01Z" fill="white" stroke="#263238" stroke-width="1.67325" stroke-miterlimit="10"/>
<path d="M1098.1 914.376H1488V447.007L1098.1 602.861V914.376Z" fill="#263238" stroke="#263238" stroke-width="1.67325" stroke-miterlimit="10"/>
<path d="M1057.81 914.181H1298.02V683.838L1057.81 618.953V914.181Z" fill="white" stroke="#263238" stroke-width="1.67325" stroke-miterlimit="10"/>
<path d="M1212.3 914.181H1298.02V683.838L1212.3 660.674V914.181Z" fill="#92E3A9" stroke="#263238" stroke-width="1.67325" stroke-miterlimit="10"/>
<path d="M1298.02 923.914H1212.3V1150.36H1298.02V923.914Z" fill="#92E3A9" stroke="#263238" stroke-width="1.67325" stroke-miterlimit="10"/>
<path d="M1531.73 897.96H1009.73V930.403H1531.73V897.96Z" fill="#525252" stroke="#263238" stroke-width="1.67325" stroke-miterlimit="10"/>
<path d="M1553.27 437.988L1085.71 631.346L1068.39 602.277L1535.95 408.919L1553.27 437.988Z" fill="#525252" stroke="#263238" stroke-width="1.67325" stroke-miterlimit="10"/>
<path d="M1333.31 702.201L1017.26 615.319L1028.94 584.369L1344.99 671.251L1333.31 702.201Z" fill="#525252" stroke="#263238" stroke-width="1.67325" stroke-miterlimit="10"/>
<path d="M1453.81 570.289H1364.2V718.552H1453.81V570.289Z" fill="white" stroke="#263238" stroke-width="1.67325" stroke-miterlimit="10"/>
<path d="M1453.81 736.72H1364.2V884.983H1453.81V736.72Z" fill="white" stroke="#263238" stroke-width="1.67325" stroke-miterlimit="10"/>
<path d="M1188.94 703.304H1103.23V872.006H1188.94V703.304Z" fill="white" stroke="#263238" stroke-width="1.67325" stroke-miterlimit="10"/>
<path d="M1188.94 945.326H1103.23V1070.36H1188.94V945.326Z" fill="white" stroke="#263238" stroke-width="1.67325" stroke-miterlimit="10"/>
<path d="M1772.26 884.074H1683.44V1109.29H1772.26V884.074Z" fill="white" stroke="#263238" stroke-width="1.67325" stroke-miterlimit="10"/>
<path d="M1380.49 947.987H1312.03V1132.91H1380.49V947.987Z" fill="white" stroke="#263238" stroke-width="1.67325" stroke-miterlimit="10"/>
<path d="M1469.44 947.987H1400.99V1132.91H1469.44V947.987Z" fill="#263238" stroke="#263238" stroke-width="1.67325" stroke-miterlimit="10"/>
<path d="M1041.52 793.3H803.396V820.163H1041.52V793.3Z" fill="white" stroke="#263238" stroke-width="1.67325" stroke-miterlimit="10"/>
<path d="M1461.4 954.605H1409.36V990.941H1461.4V954.605Z" fill="white" stroke="#263238" stroke-width="1.67325" stroke-miterlimit="10"/>
<path d="M1461.4 996.521H1409.36V1032.86H1461.4V996.521Z" fill="white" stroke="#263238" stroke-width="1.67325" stroke-miterlimit="10"/>
<path d="M1461.4 1038.5H1409.36V1074.84H1461.4V1038.5Z" fill="white" stroke="#263238" stroke-width="1.67325" stroke-miterlimit="10"/>
<path d="M1461.4 1080.42H1409.36V1116.75H1461.4V1080.42Z" fill="white" stroke="#263238" stroke-width="1.67325" stroke-miterlimit="10"/>
<path d="M1312.72 1525.31C1380.55 1509.49 1422.7 1441.68 1406.88 1373.86C1391.06 1306.04 1323.26 1263.88 1255.43 1279.7C1187.61 1295.52 1145.46 1363.33 1161.28 1431.15C1177.1 1498.97 1244.9 1541.13 1312.72 1525.31Z" fill="#263238" stroke="#263238" stroke-miterlimit="10"/>
<path d="M490.092 1491.69C539.336 1442.44 539.336 1362.6 490.092 1313.36C440.847 1264.11 361.006 1264.11 311.761 1313.36C262.516 1362.6 262.516 1442.44 311.761 1491.69C361.006 1540.93 440.847 1540.93 490.092 1491.69Z" fill="#263238" stroke="#263238" stroke-miterlimit="10"/>
<path d="M1199.02 1163.55C1199.02 1163.55 1165.57 1142.63 1012.8 1092.4C860.027 1042.16 761.636 1025.39 610.987 1029.63C460.337 1033.87 257.288 1090.32 219.637 1105.03C181.987 1119.73 165.211 1123.87 173.599 1134.29C181.987 1144.7 227.978 1182.45 221.711 1199.18C215.443 1215.9 113 1308.12 106.591 1322.59C100.183 1337.05 127.561 1387.48 131.707 1400.06C135.854 1412.64 158.944 1416.79 177.746 1418.91C196.547 1421.03 1535.99 1418.91 1535.99 1418.91C1535.99 1418.91 1554.84 1395.91 1550.65 1366.6C1546.46 1337.29 1541.98 1298.65 1523.08 1273.91C1507.82 1253.84 1492.03 1232.68 1452.4 1228.49C1427.28 1225.8 1205.34 1165.67 1199.02 1163.55Z" fill="#92E3A9"/>
<path d="M1199.02 1163.55C1199.02 1163.55 1165.57 1142.63 1012.8 1092.4C860.027 1042.16 761.636 1025.39 610.987 1029.63C460.337 1033.87 257.288 1090.32 219.637 1105.03C181.987 1119.73 165.211 1123.87 173.599 1134.29C181.987 1144.7 227.978 1182.45 221.711 1199.18C215.443 1215.9 113 1308.12 106.591 1322.59C100.183 1337.05 127.561 1387.48 131.707 1400.06C135.854 1412.64 158.944 1416.79 177.746 1418.91C196.547 1421.03 1535.99 1418.91 1535.99 1418.91C1535.99 1418.91 1554.84 1395.91 1550.65 1366.6C1546.46 1337.29 1541.98 1298.65 1523.08 1273.91C1507.82 1253.84 1492.03 1232.68 1452.4 1228.49C1427.28 1225.8 1205.34 1165.67 1199.02 1163.55Z" fill="#92E3A9"/>
<path opacity="0.15" d="M1199.02 1163.55C1199.02 1163.55 1165.57 1142.63 1012.8 1092.4C860.027 1042.16 761.636 1025.39 610.987 1029.63C460.337 1033.87 257.288 1090.32 219.637 1105.03C181.987 1119.73 165.211 1123.87 173.599 1134.29C181.987 1144.7 227.978 1182.45 221.711 1199.18C215.443 1215.9 113 1308.12 106.591 1322.59C100.183 1337.05 127.561 1387.48 131.707 1400.06C135.854 1412.64 158.944 1416.79 177.746 1418.91C196.547 1421.03 1535.99 1418.91 1535.99 1418.91C1535.99 1418.91 1554.84 1395.91 1550.65 1366.6C1546.46 1337.29 1541.98 1298.65 1523.08 1273.91C1507.82 1253.84 1492.03 1232.68 1452.4 1228.49C1427.28 1225.8 1205.34 1165.67 1199.02 1163.55Z" fill="black"/>
<path d="M1199.02 1163.55C1199.02 1163.55 1165.57 1142.63 1012.8 1092.4C860.027 1042.16 761.636 1025.39 610.987 1029.63C460.337 1033.87 257.288 1090.32 219.637 1105.03C181.987 1119.73 165.211 1123.87 173.599 1134.29C181.987 1144.7 227.978 1182.45 221.711 1199.18C215.443 1215.9 113 1308.12 106.591 1322.59C100.183 1337.05 127.561 1387.48 131.707 1400.06C135.854 1412.64 158.944 1416.79 177.746 1418.91C196.547 1421.03 1535.99 1418.91 1535.99 1418.91C1535.99 1418.91 1554.84 1395.91 1550.65 1366.6C1546.46 1337.29 1541.98 1298.65 1523.08 1273.91C1507.82 1253.84 1492.03 1232.68 1452.4 1228.49C1427.28 1225.8 1205.34 1165.67 1199.02 1163.55Z" stroke="#263238" stroke-miterlimit="10"/>
<path d="M1535.99 1310.05H1456.45V1330.98H1535.99V1310.05Z" fill="#263238" stroke="#263238" stroke-miterlimit="10"/>
<path d="M1418.28 1273.86H1430.96C1439.07 1273.85 1446.99 1276.26 1453.71 1280.8C1460.43 1285.34 1465.64 1291.78 1468.66 1299.31L1481.43 1330.98H1439.96L1418.28 1273.86Z" fill="white" stroke="#263238" stroke-miterlimit="10"/>
<path d="M1535 1295.26C1534.53 1296.58 1534.11 1297.9 1533.73 1299.31L1525.2 1330.98H1545.09C1542.89 1318.77 1539.51 1306.81 1535 1295.26Z" fill="white" stroke="#263238" stroke-miterlimit="10"/>
<path d="M1199.02 1163.55C1199.02 1163.55 1165.57 1142.63 1012.8 1092.4C977.88 1080.95 945.884 1071.24 915.396 1063.09H807.674L784.679 1069.4L1094.41 1163.65L1199.02 1163.55Z" fill="#263238" stroke="#263238" stroke-miterlimit="10"/>
<path d="M71.0615 1130V1271.37C71.0615 1271.37 157.107 1200.68 146.457 1180.56C135.807 1160.44 71.0615 1130 71.0615 1130Z" fill="#8F8F8F" stroke="#263238" stroke-miterlimit="10"/>
<path d="M1094.41 1163.55C1094.41 1163.55 1060.91 1142.63 908.139 1092.4C755.369 1042.16 657.025 1025.39 506.329 1029.63C355.632 1033.87 152.63 1090.32 115.215 1105.03C77.7998 1119.73 60.7887 1123.87 69.1765 1134.29C77.5642 1144.7 123.603 1182.45 117.288 1199.18C110.974 1215.9 8.24758 1308.12 1.98033 1322.59C-4.28691 1337.05 22.9025 1387.48 27.0964 1400.06C31.2903 1412.64 54.2859 1416.79 73.1348 1418.91C91.9836 1421.03 1431.34 1418.91 1431.34 1418.91C1431.34 1418.91 1450.18 1395.91 1445.99 1366.6C1441.8 1337.29 1437.13 1298.7 1418.28 1273.86C1403.02 1253.79 1387.18 1232.63 1347.6 1228.44C1322.67 1225.8 1100.68 1165.67 1094.41 1163.55Z" fill="#92E3A9"/>
<path opacity="0.15" d="M1418.28 1273.86C1403.02 1253.79 1387.18 1232.63 1347.6 1228.44C1341 1227.73 1320.6 1223.02 1294.07 1216.42C1167.59 1215.15 1097.15 1266.28 908.186 1283.62C662.115 1306.14 491.862 1244.65 286.787 1220C201.26 1209.78 132.226 1222.36 80.7217 1240.45C48.443 1273.06 5.89172 1313.35 1.93346 1322.59C-4.33379 1337.24 22.8557 1387.48 27.0496 1400.06C31.2434 1412.64 54.239 1416.79 73.0879 1418.91C91.9367 1421.03 1431.29 1418.91 1431.29 1418.91C1431.29 1418.91 1450.14 1395.91 1445.94 1366.6C1441.75 1337.29 1437.13 1298.7 1418.28 1273.86Z" fill="black"/>
<path d="M1094.41 1163.55C1094.41 1163.55 1060.91 1142.63 908.139 1092.4C755.369 1042.16 657.025 1025.39 506.329 1029.63C355.632 1033.87 152.63 1090.32 115.215 1105.03C77.7998 1119.73 60.7887 1123.87 69.1765 1134.29C77.5642 1144.7 123.603 1182.45 117.288 1199.18C110.974 1215.9 8.24758 1308.12 1.98033 1322.59C-4.28691 1337.05 22.9025 1387.48 27.0964 1400.06C31.2903 1412.64 54.2859 1416.79 73.1348 1418.91C91.9836 1421.03 1431.34 1418.91 1431.34 1418.91C1431.34 1418.91 1450.18 1395.91 1445.99 1366.6C1441.8 1337.29 1437.13 1298.7 1418.28 1273.86C1403.02 1253.79 1387.18 1232.63 1347.6 1228.44C1322.67 1225.8 1100.68 1165.67 1094.41 1163.55Z" stroke="#263238" stroke-miterlimit="10"/>
<path d="M302.949 1086.36L386.685 1174.81H1002.19V1154.74C1002.19 1154.74 876.049 1105.21 743.023 1079.34C609.997 1053.47 576.776 1055.78 516.837 1056.91C456.897 1058.04 302.949 1086.36 302.949 1086.36Z" fill="#8F8F8F"/>
<path d="M603.071 1136.13C524.722 1118.24 442.758 1125 368.402 1155.49L386.686 1174.81H1002.2V1154.74C1002.2 1154.74 981.791 1146.73 948.711 1135.47C879.489 1162.04 742.175 1166.76 603.071 1136.13Z" fill="#263238" stroke="#263238" stroke-miterlimit="10"/>
<path d="M302.949 1086.36L386.685 1174.81H1002.19V1154.74C1002.19 1154.74 876.049 1105.21 743.023 1079.34C609.997 1053.47 576.776 1055.78 516.837 1056.91C456.897 1058.04 302.949 1086.36 302.949 1086.36Z" stroke="#263238" stroke-width="4" stroke-miterlimit="10"/>
<path d="M581.253 1186.59V1378.8" stroke="#263238" stroke-miterlimit="10"/>
<path d="M286.989 1525.44C354.827 1509.69 397.054 1441.93 381.305 1374.09C365.556 1306.25 297.795 1264.02 229.956 1279.77C162.118 1295.52 119.891 1363.28 135.64 1431.12C151.389 1498.96 219.15 1541.19 286.989 1525.44Z" fill="#263238" stroke="#263238" stroke-miterlimit="10"/>
<path d="M258.608 1311.51C240.605 1311.51 223.007 1316.85 208.04 1326.86C193.074 1336.86 181.411 1351.08 174.528 1367.72C167.645 1384.35 165.852 1402.66 169.374 1420.31C172.896 1437.97 181.577 1454.18 194.316 1466.9C207.056 1479.62 223.283 1488.27 240.943 1491.77C258.603 1495.26 276.903 1493.44 293.528 1486.53C310.152 1479.62 324.353 1467.94 334.335 1452.96C344.316 1437.97 349.629 1420.37 349.601 1402.37C349.551 1378.26 339.944 1355.16 322.886 1338.13C305.828 1321.1 282.713 1311.53 258.608 1311.51ZM319.867 1384.27L266.854 1394.21L281.886 1343.09C290.903 1346.64 298.996 1352.19 305.558 1359.33C312.12 1366.46 316.98 1374.99 319.773 1384.27H319.867ZM263.32 1397.94V1407.08H254.226V1397.94H263.32ZM240.56 1341.39L250.503 1394.4L199.328 1379.32C202.837 1370.32 208.341 1362.23 215.425 1355.66C222.509 1349.09 230.99 1344.21 240.23 1341.39H240.56ZM197.632 1420.74L250.644 1410.8L235.518 1461.93C226.459 1458.42 218.322 1452.88 211.731 1445.74C205.14 1438.6 200.269 1430.05 197.491 1420.74H197.632ZM276.986 1463.62L267.043 1410.66L318.076 1425.93C314.504 1434.92 308.937 1442.99 301.795 1449.52C294.653 1456.05 286.122 1460.87 276.844 1463.62H276.986Z" fill="white" stroke="#263238" stroke-miterlimit="10"/>
<path d="M286.834 1402.37C286.834 1396.77 285.175 1391.31 282.069 1386.66C278.962 1382.01 274.546 1378.38 269.38 1376.24C264.214 1374.1 258.529 1373.54 253.045 1374.64C247.56 1375.73 242.522 1378.42 238.568 1382.37C234.614 1386.33 231.921 1391.37 230.83 1396.85C229.739 1402.33 230.299 1408.02 232.439 1413.19C234.579 1418.35 238.203 1422.77 242.853 1425.87C247.502 1428.98 252.968 1430.64 258.56 1430.64C266.059 1430.64 273.25 1427.66 278.553 1422.36C283.855 1417.06 286.834 1409.86 286.834 1402.37Z" fill="white" stroke="#263238" stroke-miterlimit="10"/>
<path d="M1235.14 1491.68C1284.39 1442.44 1284.39 1362.6 1235.14 1313.35C1185.9 1264.11 1106.06 1264.11 1056.81 1313.35C1007.57 1362.6 1007.57 1442.44 1056.81 1491.68C1106.06 1540.93 1185.9 1540.93 1235.14 1491.68Z" fill="#263238" stroke="#263238" stroke-miterlimit="10"/>
<path d="M1145.96 1311.51C1127.96 1311.51 1110.36 1316.85 1095.4 1326.86C1080.43 1336.86 1068.77 1351.08 1061.88 1367.72C1055 1384.35 1053.21 1402.66 1056.73 1420.31C1060.25 1437.97 1068.93 1454.18 1081.67 1466.9C1094.41 1479.62 1110.64 1488.27 1128.3 1491.77C1145.96 1495.26 1164.26 1493.44 1180.88 1486.53C1197.51 1479.62 1211.71 1467.94 1221.69 1452.96C1231.67 1437.97 1236.99 1420.37 1236.96 1402.37C1236.91 1378.26 1227.3 1355.16 1210.24 1338.13C1193.18 1321.1 1170.07 1311.53 1145.96 1311.51ZM1207.22 1384.27L1154.26 1394.21L1169.29 1343.09C1178.29 1346.64 1186.37 1352.2 1192.92 1359.33C1199.47 1366.47 1204.31 1374.99 1207.08 1384.27H1207.22ZM1150.68 1397.94V1407.08H1141.53V1397.94H1150.68ZM1127.87 1341.39L1137.81 1394.4L1086.68 1379.32C1090.2 1370.3 1095.73 1362.2 1102.84 1355.63C1109.95 1349.06 1118.46 1344.19 1127.73 1341.39H1127.87ZM1084.99 1420.74L1138 1410.8L1122.92 1461.93C1113.86 1458.42 1105.71 1452.89 1099.11 1445.75C1092.51 1438.61 1087.63 1430.06 1084.85 1420.74H1084.99ZM1164.34 1463.62L1154.4 1410.66L1205.39 1425.93C1201.82 1434.92 1196.27 1442.99 1189.13 1449.52C1182 1456.05 1173.47 1460.87 1164.2 1463.62H1164.34Z" fill="white" stroke="#263238" stroke-miterlimit="10"/>
<path d="M1174.19 1402.37C1174.19 1396.77 1172.53 1391.31 1169.43 1386.66C1166.32 1382.01 1161.9 1378.38 1156.74 1376.24C1151.57 1374.1 1145.89 1373.54 1140.4 1374.64C1134.92 1375.73 1129.88 1378.42 1125.93 1382.37C1121.97 1386.33 1119.28 1391.37 1118.19 1396.85C1117.1 1402.33 1117.66 1408.02 1119.8 1413.19C1121.94 1418.35 1125.56 1422.77 1130.21 1425.87C1134.86 1428.98 1140.33 1430.64 1145.92 1430.64C1153.42 1430.64 1160.61 1427.66 1165.91 1422.36C1171.21 1417.06 1174.19 1409.86 1174.19 1402.37Z" fill="white" stroke="#263238" stroke-miterlimit="10"/>
<path d="M1418.28 1273.86C1418.28 1273.86 1324.42 1269.15 1320.22 1273.86C1316.03 1278.58 1351.61 1316.27 1364.19 1324.71C1374.13 1331.35 1420.97 1330.08 1439.91 1329.42C1436.1 1309.16 1429.92 1288.94 1418.28 1273.86Z" fill="white" stroke="#263238" stroke-miterlimit="10"/>
<path d="M596.662 1057.53C590.489 1057.1 584.692 1056.82 579.038 1056.63L563.252 1174.44H605.096L596.662 1057.53Z" fill="#263238" stroke="#263238" stroke-miterlimit="10"/>
<path d="M394.924 1361.73L385.081 1376.52L304.196 1411.67C304.196 1411.67 292.941 1413.79 292.941 1417.3C292.941 1420.81 290.823 1430.67 292.941 1432.09C295.059 1433.5 309.078 1428.56 309.078 1428.56C309.078 1428.56 304.862 1433.48 309.078 1434.89C313.293 1436.3 317.509 1429.97 317.509 1429.97C321.639 1427.37 325.632 1424.55 329.47 1421.54C331.452 1418.93 333.105 1416.09 334.392 1413.08L409.023 1394.1L424.494 1370.89C424.494 1370.89 392.826 1367.36 394.924 1361.73Z" fill="#B5B5B5" stroke="#263238" stroke-width="1.62103" stroke-linecap="round" stroke-linejoin="round"/>
<path d="M400.551 1328.57L391.394 1358.62L415.336 1372.89L424.998 1349.45L400.551 1328.57Z" fill="white" stroke="#263238" stroke-width="1.62103" stroke-linecap="round" stroke-linejoin="round"/>
<path d="M392.342 1348.94L421.388 1366.27L416.285 1375.43L388.792 1361.17C388.982 1356.87 390.2 1352.68 392.342 1348.94Z" fill="white" stroke="#263238" stroke-width="1.62103" stroke-linecap="round" stroke-linejoin="round"/>
<path d="M334.856 1507.81C334.856 1507.81 314.483 1517.99 308.876 1522.57C303.268 1527.15 302.26 1526.61 303.773 1530.22H368.984L367.451 1506.78L334.856 1507.81Z" fill="white" stroke="#263238" stroke-width="1.62103" stroke-linecap="round" stroke-linejoin="round"/>
<path d="M368.742 1526.71H303.773C302.885 1527.65 302.986 1528.42 303.773 1530.28H368.984L368.742 1526.71Z" fill="white" stroke="#263238" stroke-width="1.62103" stroke-linecap="round" stroke-linejoin="round"/>
<path d="M422.457 1386.64C422.457 1386.64 397.506 1376.46 377.134 1374.42C356.761 1372.38 314.484 1373.39 312.447 1382.49C310.409 1391.58 342.501 1491.41 342.501 1491.41C342.501 1491.41 336.893 1494.98 336.45 1497.46C336.006 1499.94 334.937 1507.54 334.937 1507.54L367.532 1512.63C367.532 1512.63 368.541 1502.44 368.541 1492.78C368.541 1483.12 357.346 1423.49 357.346 1423.49L423.042 1444.39L398.595 1496.33C398.595 1496.33 390.971 1511.62 399.624 1519.26C408.277 1526.91 422.538 1525.31 422.538 1525.31L538.68 1526.85L536.663 1507.99C536.663 1507.99 519.861 1505.45 516.795 1505.45C513.729 1505.45 455.153 1490.68 455.153 1490.68C455.153 1490.68 502.03 1441.77 507.113 1433.62C510.138 1429.11 512.197 1424.02 513.162 1418.67C514.127 1413.33 513.977 1407.84 512.72 1402.56C509.654 1390.33 507.617 1387.77 507.617 1387.77C507.617 1387.77 471.875 1404.94 453.54 1400.9C442.309 1398.33 431.728 1393.48 422.457 1386.64Z" fill="#263238" stroke="#263238" stroke-width="1.62103" stroke-linecap="round" stroke-linejoin="round"/>
<path d="M339.435 1230.26C339.435 1230.26 343.006 1241.98 343.006 1243.51C343.006 1245.04 340.444 1252.67 342.501 1255.21C344.559 1257.75 350.569 1258.28 350.569 1258.28C350.569 1258.28 359.727 1268.97 363.801 1273.04C367.876 1277.12 372.455 1278.65 377.558 1276.11C382.661 1273.57 387.24 1266.93 387.24 1266.93L396.921 1276.61L419.331 1250.63L411.263 1240.45C411.263 1240.45 413.28 1228.73 405.655 1213.46C398.031 1198.19 371.527 1194.09 354.2 1197.16C336.874 1200.22 332.819 1210.39 332.819 1212.43C332.819 1214.47 339.435 1230.26 339.435 1230.26Z" fill="white" stroke="#263238" stroke-width="1.62103" stroke-linecap="round" stroke-linejoin="round"/>
<path d="M348.612 1183.91C348.612 1183.91 337.902 1175.84 330.781 1179.33C323.661 1182.82 326.747 1185.94 325.678 1192.06C324.609 1198.17 306.839 1198.67 306.839 1208.86C306.839 1219.04 319.567 1222.61 322.108 1223.12C324.65 1223.62 322.632 1234.84 330.176 1234.84C337.72 1234.84 339.354 1230.26 339.354 1230.26C339.354 1230.26 333.746 1213.96 339.858 1211.42C345.97 1208.88 359.726 1203.77 357.689 1213.44C355.652 1223.1 362.792 1226.16 366.867 1225.16C370.941 1224.15 376.024 1224.63 376.952 1226.67C377.88 1228.71 383.003 1232.28 383.003 1227.19C383.003 1222.11 385.545 1217.51 390.123 1217.51C394.702 1217.51 398.192 1225.16 397.768 1231.27C397.424 1234.95 396.023 1238.45 393.734 1241.35L411.06 1240.32C411.06 1240.32 415.639 1217.41 411.565 1201.11C407.49 1184.81 388.308 1175.76 376.609 1174.22C364.91 1172.69 350.125 1179.33 348.612 1183.91Z" fill="#263238" stroke="#263238" stroke-width="1.62103" stroke-linecap="round" stroke-linejoin="round"/>
<path d="M352.99 1239.36C354.261 1241.37 354.563 1243.39 353.696 1243.89C352.829 1244.4 351.054 1243.39 349.803 1241.45C348.552 1239.52 348.21 1237.42 349.097 1236.92C349.985 1236.41 351.719 1237.52 352.99 1239.36Z" fill="#263238"/>
<path d="M359.605 1262.23C362.04 1261.74 364.245 1260.47 365.88 1258.6C367.514 1256.73 368.485 1254.38 368.642 1251.9" stroke="#263238" stroke-width="1.62103" stroke-linecap="round" stroke-linejoin="round"/>
<path d="M344.094 1235.1C344.094 1235.1 344.941 1230.36 350.548 1232.52" stroke="#263238" stroke-width="1.62103" stroke-linecap="round" stroke-linejoin="round"/>
<path d="M398.01 1285.26C398.01 1285.26 393.976 1318.89 398.514 1329.07C403.052 1339.26 419.411 1380.01 419.411 1380.01C419.411 1380.01 415.841 1404.94 426.027 1411.59C436.213 1418.25 474.92 1419.24 489.705 1410.06C504.49 1400.88 510.582 1393.76 510.582 1387.15C510.582 1380.53 500.9 1351.48 485.631 1322.46C474.45 1301.2 459.015 1282.47 440.287 1267.43C429.597 1258.78 425.522 1254.71 423.485 1254.71C421.448 1254.71 397.001 1275.6 398.01 1285.26Z" fill="white" stroke="#263238" stroke-width="1.62103" stroke-linecap="round" stroke-linejoin="round"/>
<path d="M419.411 1248.09L391.898 1279.15L397.506 1295.97L428.569 1255.73L419.411 1248.09Z" fill="white" stroke="#263238" stroke-width="1.62103" stroke-linecap="round" stroke-linejoin="round"/>
<path d="M419.915 1361.67C419.915 1361.67 363.881 1393.76 356.761 1396.32C349.641 1398.88 326.707 1398.86 320.071 1398.34C319.257 1398.2 318.421 1398.23 317.623 1398.45C316.824 1398.66 316.083 1399.05 315.451 1399.58C314.82 1400.11 314.313 1400.78 313.968 1401.53C313.623 1402.28 313.448 1403.1 313.455 1403.93L312.446 1423.29C312.446 1423.29 318.034 1424.82 320.515 1423.29C322.996 1421.76 325.597 1416.15 325.597 1416.15C325.597 1416.15 334.775 1417.18 337.821 1415.14C339.82 1413.78 341.696 1412.25 343.428 1410.56C352.84 1409.78 362.196 1408.44 371.445 1406.53C381.631 1403.97 428.488 1388.7 435.628 1387.17C442.768 1385.63 445.31 1381.56 445.814 1379.1C446.318 1376.64 419.915 1361.67 419.915 1361.67Z" fill="white" stroke="#263238" stroke-width="1.62103" stroke-linecap="round" stroke-linejoin="round"/>
<path d="M356.035 1396.53C348.249 1398.84 326.505 1398.84 320.071 1398.36C319.257 1398.22 318.421 1398.25 317.623 1398.47C316.824 1398.68 316.083 1399.07 315.451 1399.6C314.82 1400.13 314.313 1400.8 313.968 1401.55C313.623 1402.3 313.448 1403.12 313.455 1403.95L312.446 1423.31C312.446 1423.31 318.034 1424.84 320.515 1423.31C322.996 1421.78 325.597 1416.17 325.597 1416.17C325.597 1416.17 334.775 1417.2 337.821 1415.16C339.82 1413.8 341.696 1412.27 343.428 1410.58C343.428 1410.58 351.981 1409.84 360.634 1408.57L356.035 1396.53Z" fill="#92E3A9" stroke="#263238" stroke-width="1.62103" stroke-linecap="round" stroke-linejoin="round"/>
<path d="M423.989 1285.79C423.989 1285.79 415.336 1295.45 416.344 1302.59C417.353 1309.73 419.915 1361.67 419.915 1361.67L448.94 1373.39L457.008 1332.14C457.008 1332.14 463.645 1321.43 462.616 1311.24" fill="white"/>
<path d="M423.989 1285.79C423.989 1285.79 415.336 1295.45 416.344 1302.59C417.353 1309.73 419.915 1361.67 419.915 1361.67L448.94 1373.39L457.008 1332.14C457.008 1332.14 463.645 1321.43 462.616 1311.24" stroke="#263238" stroke-width="1.62103" stroke-linecap="round" stroke-linejoin="round"/>
<path d="M417.374 1364.23L446.904 1382.04C446.904 1382.04 450.938 1382.04 451.503 1375.43C452.067 1368.81 455.053 1367.78 452.511 1364.23C449.97 1360.68 422.961 1349.45 420.42 1349.45C417.878 1349.45 415.337 1355.56 417.374 1364.23Z" fill="white" stroke="#263238" stroke-width="1.62103" stroke-linecap="round" stroke-linejoin="round"/>
<path d="M536.562 1508.37C536.562 1508.37 551.831 1495.14 554.392 1495.64C556.954 1496.15 577.306 1515.51 577.306 1515.51C577.306 1515.51 596.145 1525.7 596.145 1527.23C596.145 1528.76 593.1 1529.25 593.1 1529.25L538.639 1527.23L536.562 1508.37Z" fill="white" stroke="#263238" stroke-width="1.62103" stroke-linecap="round" stroke-linejoin="round"/>
<path d="M596.065 1527.23C596.065 1525.7 577.225 1515.51 577.225 1515.51C577.225 1515.51 556.853 1496.15 554.311 1495.64C553.404 1495.46 550.862 1497.04 547.998 1499.13L572.647 1516.52L590.598 1529.17L593.019 1529.27C593.019 1529.27 596.065 1528.74 596.065 1527.23Z" fill="white" stroke="#263238" stroke-width="1.62103" stroke-linecap="round" stroke-linejoin="round"/>
<path d="M422.961 1444.71L417.878 1423.31" stroke="#999999" stroke-width="1.62103" stroke-linecap="round" stroke-linejoin="round"/>
</svg>
