<svg width="1888" height="1581" viewBox="0 0 1888 1581" fill="none" xmlns="http://www.w3.org/2000/svg">
<path d="M334.755 771.953C334.755 771.953 396.202 778.052 427.282 816.14C438.469 802.582 452.524 791.675 468.433 784.202C484.343 776.73 501.712 772.879 519.289 772.926C533.725 755.519 542.919 734.37 545.803 711.941C548.687 689.511 545.142 666.724 535.579 646.231C526.017 625.738 510.831 608.383 491.789 596.185C472.747 583.986 450.632 577.447 428.019 577.328C405.405 577.209 383.222 583.514 364.053 595.511C344.883 607.508 329.515 624.702 319.737 645.093C309.959 665.484 306.174 688.233 308.821 710.691C311.468 733.15 320.439 754.394 334.69 771.953H334.755Z" fill="#92E3A9"/>
<path opacity="0.2" d="M334.755 771.953C334.755 771.953 396.202 778.052 427.282 816.14C438.469 802.582 452.524 791.675 468.433 784.202C484.343 776.73 501.712 772.879 519.289 772.926C533.725 755.519 542.919 734.37 545.803 711.941C548.687 689.511 545.142 666.724 535.579 646.231C526.017 625.738 510.831 608.383 491.789 596.185C472.747 583.986 450.632 577.447 428.019 577.328C405.405 577.209 383.222 583.514 364.053 595.511C344.883 607.508 329.515 624.702 319.737 645.093C309.959 665.484 306.174 688.233 308.821 710.691C311.468 733.15 320.439 754.394 334.69 771.953H334.755Z" fill="white"/>
<path d="M431.37 938.059L425.271 630.827L423.778 941.239L431.37 938.059Z" fill="#828282"/>
<path d="M428.385 804.395C428.385 804.395 449.148 767.021 486.457 755.667C486.457 755.667 447.072 764.945 427.347 797.128L428.385 804.395Z" fill="#828282"/>
<path d="M426.828 700.579C426.828 700.579 449.149 661.128 486.458 649.773C486.458 649.773 446.683 660.544 426.958 692.728L426.828 700.579Z" fill="#828282"/>
<path d="M427.476 752.876C427.476 752.876 449.148 713.945 486.457 702.85C486.457 702.85 447.072 712.128 427.347 744.311L427.476 752.876Z" fill="#828282"/>
<path d="M425.335 725.624C425.335 725.624 405.286 688.315 369.274 676.896C369.274 676.896 407.297 686.239 426.309 718.357L425.335 725.624Z" fill="#828282"/>
<path d="M425.335 777.468C425.335 777.468 405.286 740.159 369.274 728.739C369.274 728.739 407.297 738.082 426.309 770.201L425.335 777.468Z" fill="#828282"/>
<path d="M1675.03 650.617C1675.03 650.617 1736.47 656.716 1767.62 694.804C1778.8 681.252 1792.84 670.346 1808.74 662.874C1824.64 655.402 1841.99 651.548 1859.56 651.59C1874 634.176 1883.19 613.02 1886.06 590.585C1888.94 568.15 1885.38 545.36 1875.81 524.868C1866.23 504.376 1851.03 487.025 1831.98 474.835C1812.93 462.646 1790.8 456.12 1768.19 456.016C1745.57 455.913 1723.39 462.237 1704.22 474.251C1685.06 486.266 1669.7 503.477 1659.94 523.881C1650.18 544.285 1646.42 567.041 1649.09 589.502C1651.76 611.962 1660.75 633.201 1675.03 650.747V650.617Z" fill="#92E3A9"/>
<path opacity="0.2" d="M1675.03 650.617C1675.03 650.617 1736.47 656.716 1767.62 694.804C1778.8 681.252 1792.84 670.346 1808.74 662.874C1824.64 655.402 1841.99 651.548 1859.56 651.59C1874 634.176 1883.19 613.02 1886.06 590.585C1888.94 568.15 1885.38 545.36 1875.81 524.868C1866.23 504.376 1851.03 487.025 1831.98 474.835C1812.93 462.646 1790.8 456.12 1768.19 456.016C1745.57 455.913 1723.39 462.237 1704.22 474.251C1685.06 486.266 1669.7 503.477 1659.94 523.881C1650.18 544.285 1646.42 567.041 1649.09 589.502C1651.76 611.962 1660.75 633.201 1675.03 650.747V650.617Z" fill="white"/>
<path d="M1771.64 816.788L1765.54 509.556L1764.05 819.968L1771.64 816.788Z" fill="#828282"/>
<path d="M1768.66 683.189C1768.66 683.189 1789.42 645.88 1827.05 634.46C1827.05 634.46 1787.67 643.804 1767.94 675.922L1768.66 683.189Z" fill="#828282"/>
<path d="M1767.1 579.503C1767.1 579.503 1789.42 540.052 1826.73 528.697C1826.73 528.697 1786.95 539.468 1767.29 571.651L1767.1 579.503Z" fill="#828282"/>
<path d="M1767.68 631.606C1767.68 631.606 1789.36 592.674 1826.66 581.579C1826.66 581.579 1787.28 590.923 1767.55 623.041L1767.68 631.606Z" fill="#828282"/>
<path d="M1765.61 604.354C1765.61 604.354 1745.62 567.045 1709.55 555.625C1709.55 555.625 1747.57 564.969 1766.58 597.087L1765.61 604.354Z" fill="#828282"/>
<path d="M1765.61 656.197C1765.61 656.197 1745.62 618.888 1709.55 607.468C1709.55 607.468 1747.57 616.812 1766.58 648.995L1765.61 656.197Z" fill="#828282"/>
<path d="M403.663 631.541C403.663 631.541 487.495 639.846 529.995 691.819C545.26 673.317 564.438 658.43 586.149 648.231C607.859 638.032 631.561 632.775 655.548 632.838C675.232 609.067 687.759 580.194 691.671 549.58C695.583 518.966 690.72 487.87 677.646 459.913C664.573 431.956 643.828 408.286 617.826 391.661C591.824 375.035 561.634 366.137 530.772 366.002C499.909 365.866 469.643 374.5 443.496 390.897C417.349 407.295 396.398 430.781 383.08 458.623C369.762 486.465 364.627 517.517 368.271 548.164C371.914 578.811 384.188 607.793 403.663 631.735V631.541Z" fill="#92E3A9"/>
<path opacity="0.4" d="M403.663 631.541C403.663 631.541 487.495 639.846 529.995 691.819C545.26 673.317 564.438 658.43 586.149 648.231C607.859 638.032 631.561 632.775 655.548 632.838C675.232 609.067 687.759 580.194 691.671 549.58C695.583 518.966 690.72 487.87 677.646 459.913C664.573 431.956 643.828 408.286 617.826 391.661C591.824 375.035 561.634 366.137 530.772 366.002C499.909 365.866 469.643 374.5 443.496 390.897C417.349 407.295 396.398 430.781 383.08 458.623C369.762 486.465 364.627 517.517 368.271 548.164C371.914 578.811 384.188 607.793 403.663 631.735V631.541Z" fill="white"/>
<path d="M535.511 858.315L527.27 439.09L525.194 862.597L535.511 858.315Z" fill="#828282"/>
<path d="M531.488 675.987C531.488 675.987 559.778 625.052 610.713 609.48C610.713 609.48 556.988 622.457 530.061 666.06L531.488 675.987Z" fill="#828282"/>
<path d="M529.346 534.472C529.346 534.472 559.777 480.747 610.712 465.175C610.712 465.175 556.468 479.904 529.541 523.572L529.346 534.472Z" fill="#828282"/>
<path d="M530.19 605.651C530.19 605.651 559.778 552.9 610.713 537.327C610.713 537.327 556.988 550.304 530.061 593.907L530.19 605.651Z" fill="#828282"/>
<path d="M527.27 568.472C527.27 568.472 499.953 517.537 450.835 501.965C450.835 501.965 502.743 514.942 528.697 558.545L527.27 568.472Z" fill="#828282"/>
<path d="M527.27 639.197C527.27 639.197 499.953 588.262 450.835 572.689C450.835 572.689 502.743 585.667 528.697 629.269L527.27 639.197Z" fill="#828282"/>
<path d="M1058.81 924.433H412.877V1151.01H1058.81V924.433Z" fill="#92E3A9" stroke="#263238" stroke-width="4" stroke-miterlimit="10"/>
<path d="M1022.35 924.433H449.278V1151.01H1022.35V924.433Z" fill="white" stroke="#263238" stroke-width="4" stroke-miterlimit="10"/>
<path d="M562.243 961.418V1150.69" stroke="#263238" stroke-width="4" stroke-miterlimit="10"/>
<path d="M788.304 961.418V1150.69" stroke="#263238" stroke-width="4" stroke-miterlimit="10"/>
<path d="M873.044 961.418V1150.69" stroke="#263238" stroke-width="4" stroke-miterlimit="10"/>
<path d="M957.85 961.418V1150.69" stroke="#263238" stroke-width="4" stroke-miterlimit="10"/>
<path d="M449.213 1005.54H1023.06" stroke="#263238" stroke-width="4" stroke-miterlimit="10"/>
<path d="M449.213 1055.57H1023.06" stroke="#263238" stroke-width="4" stroke-miterlimit="10"/>
<path d="M449.213 1107.67H1023.06" stroke="#263238" stroke-width="4" stroke-miterlimit="10"/>
<path d="M715.633 924.433H675.339V1151.01H715.633V924.433Z" fill="#92E3A9" stroke="#263238" stroke-width="4" stroke-miterlimit="10"/>
<path d="M348.316 958.044H1082.95V786.617H501.705L348.316 958.044Z" fill="#263238" stroke="#263238" stroke-width="4" stroke-miterlimit="10"/>
<path d="M582.422 779.869H1086.71V631.346H703.498L582.422 779.869Z" fill="white" stroke="#263238" stroke-width="4" stroke-miterlimit="10"/>
<path d="M800.373 695.842H586.446V816.853H800.373V695.842Z" fill="#92E3A9" stroke="#263238" stroke-width="4" stroke-miterlimit="10"/>
<path d="M671.056 746.258H602.602V800.048H671.056V746.258Z" fill="white" stroke="#263238" stroke-width="4" stroke-miterlimit="10"/>
<path d="M760.014 746.258H691.56V800.048H760.014V746.258Z" fill="white" stroke="#263238" stroke-width="4" stroke-miterlimit="10"/>
<path d="M533.954 732.827H1090.99V584.304H667.747L533.954 732.827Z" fill="#263238" stroke="#263238" stroke-width="4" stroke-miterlimit="10"/>
<path d="M1567.38 816.854H1781.31V695.842H1567.38V816.854Z" fill="#92E3A9" stroke="#263238" stroke-width="4" stroke-miterlimit="10"/>
<path d="M1696.7 800.048H1765.15V746.258H1696.7V800.048Z" fill="white" stroke="#263238" stroke-width="4" stroke-miterlimit="10"/>
<path d="M1607.68 800.048H1676.13V746.258H1607.68V800.048Z" fill="white" stroke="#263238" stroke-width="4" stroke-miterlimit="10"/>
<path d="M1833.74 732.827H1276.7V584.304H1700.01L1833.74 732.827Z" fill="#263238" stroke="#263238" stroke-width="4" stroke-miterlimit="10"/>
<path d="M1074.9 658.857L772.147 779.869V880.765H1070.81L1074.9 658.857Z" fill="#263238" stroke="#263238" stroke-width="4" stroke-miterlimit="10"/>
<path d="M1215.19 609.415L747.686 802.773L730.362 773.769L1197.86 580.346L1215.19 609.415Z" fill="#525252" stroke="#263238" stroke-width="4" stroke-miterlimit="10"/>
<path d="M1813.23 816.853L1162.63 648.151V1151.01H1813.23V816.853Z" fill="#92E3A9" stroke="#263238" stroke-width="4" stroke-miterlimit="10"/>
<path d="M1653.49 1151.01H1813.23V816.853L1653.49 775.392V1151.01Z" fill="#263238" stroke="#263238" stroke-width="4" stroke-miterlimit="10"/>
<path d="M1856.32 838.46L1462.4 735.357L1474.08 704.407L1868 807.51L1856.32 838.46Z" fill="#525252" stroke="#263238" stroke-width="4" stroke-miterlimit="10"/>
<path d="M1058.81 1151.01H1489V447.007L1058.81 618.953V1151.01Z" fill="white" stroke="#263238" stroke-width="4" stroke-miterlimit="10"/>
<path d="M1099.1 914.376H1489V447.007L1099.1 602.861V914.376Z" fill="#263238" stroke="#263238" stroke-width="4" stroke-miterlimit="10"/>
<path d="M1058.81 914.182H1299.02V683.838L1058.81 618.953V914.182Z" fill="white" stroke="#263238" stroke-width="4" stroke-miterlimit="10"/>
<path d="M1213.3 914.181H1299.02V683.838L1213.3 660.674V914.181Z" fill="#92E3A9" stroke="#263238" stroke-width="4" stroke-miterlimit="10"/>
<path d="M1299.02 923.914H1213.3V1150.36H1299.02V923.914Z" fill="#92E3A9" stroke="#263238" stroke-width="4" stroke-miterlimit="10"/>
<path d="M1532.73 897.96H1010.73V930.403H1532.73V897.96Z" fill="#525252" stroke="#263238" stroke-width="4" stroke-miterlimit="10"/>
<path d="M1554.27 437.988L1086.71 631.346L1069.39 602.277L1536.95 408.919L1554.27 437.988Z" fill="#525252" stroke="#263238" stroke-width="4" stroke-miterlimit="10"/>
<path d="M1334.31 702.201L1018.26 615.319L1029.94 584.369L1345.99 671.251L1334.31 702.201Z" fill="#525252" stroke="#263238" stroke-width="4" stroke-miterlimit="10"/>
<path d="M1454.81 570.289H1365.2V718.552H1454.81V570.289Z" fill="white" stroke="#263238" stroke-width="4" stroke-miterlimit="10"/>
<path d="M1454.81 736.72H1365.2V884.983H1454.81V736.72Z" fill="white" stroke="#263238" stroke-width="4" stroke-miterlimit="10"/>
<path d="M1189.94 703.304H1104.23V872.006H1189.94V703.304Z" fill="white" stroke="#263238" stroke-width="4" stroke-miterlimit="10"/>
<path d="M1189.94 945.326H1104.23V1070.36H1189.94V945.326Z" fill="white" stroke="#263238" stroke-width="4" stroke-miterlimit="10"/>
<path d="M1773.26 884.075H1684.44V1109.29H1773.26V884.075Z" fill="white" stroke="#263238" stroke-width="4" stroke-miterlimit="10"/>
<path d="M1381.49 947.986H1313.03V1132.91H1381.49V947.986Z" fill="white" stroke="#263238" stroke-width="4" stroke-miterlimit="10"/>
<path d="M1470.44 947.986H1401.99V1132.91H1470.44V947.986Z" fill="#263238" stroke="#263238" stroke-width="4" stroke-miterlimit="10"/>
<path d="M1042.53 793.3H804.396V820.162H1042.53V793.3Z" fill="white" stroke="#263238" stroke-width="4" stroke-miterlimit="10"/>
<path d="M1462.4 954.605H1410.36V990.941H1462.4V954.605Z" fill="white" stroke="#263238" stroke-width="4" stroke-miterlimit="10"/>
<path d="M1462.4 996.521H1410.36V1032.86H1462.4V996.521Z" fill="white" stroke="#263238" stroke-width="4" stroke-miterlimit="10"/>
<path d="M1462.4 1038.5H1410.36V1074.84H1462.4V1038.5Z" fill="white" stroke="#263238" stroke-width="4" stroke-miterlimit="10"/>
<path d="M1462.4 1080.42H1410.36V1116.75H1462.4V1080.42Z" fill="white" stroke="#263238" stroke-width="4" stroke-miterlimit="10"/>
<path d="M1313.72 1525.31C1381.55 1509.49 1423.7 1441.68 1407.88 1373.86C1392.06 1306.04 1324.26 1263.88 1256.43 1279.7C1188.61 1295.52 1146.46 1363.33 1162.28 1431.15C1178.1 1498.97 1245.9 1541.13 1313.72 1525.31Z" fill="#263238" stroke="#263238" stroke-width="4" stroke-miterlimit="10"/>
<path d="M491.092 1491.69C540.337 1442.44 540.337 1362.6 491.092 1313.36C441.848 1264.11 362.006 1264.11 312.762 1313.36C263.517 1362.6 263.517 1442.44 312.762 1491.69C362.006 1540.93 441.848 1540.93 491.092 1491.69Z" fill="#263238" stroke="#263238" stroke-width="4" stroke-miterlimit="10"/>
<path d="M1200.02 1163.55C1200.02 1163.55 1166.57 1142.63 1013.8 1092.4C861.028 1042.16 762.637 1025.39 611.987 1029.63C461.338 1033.87 258.288 1090.32 220.638 1105.03C182.987 1119.73 166.212 1123.87 174.6 1134.29C182.987 1144.7 228.978 1182.45 222.711 1199.18C216.444 1215.9 114 1308.12 107.592 1322.59C101.183 1337.05 128.561 1387.48 132.708 1400.06C136.855 1412.64 159.945 1416.79 178.746 1418.91C197.548 1421.03 1536.99 1418.91 1536.99 1418.91C1536.99 1418.91 1555.84 1395.91 1551.65 1366.6C1547.46 1337.29 1542.98 1298.65 1524.08 1273.91C1508.82 1253.84 1493.03 1232.68 1453.4 1228.49C1428.28 1225.8 1206.34 1165.67 1200.02 1163.55Z" fill="#92E3A9"/>
<path d="M1200.02 1163.55C1200.02 1163.55 1166.57 1142.63 1013.8 1092.4C861.028 1042.16 762.637 1025.39 611.987 1029.63C461.338 1033.87 258.288 1090.32 220.638 1105.03C182.987 1119.73 166.212 1123.87 174.6 1134.29C182.987 1144.7 228.978 1182.45 222.711 1199.18C216.444 1215.9 114 1308.12 107.592 1322.59C101.183 1337.05 128.561 1387.48 132.708 1400.06C136.855 1412.64 159.945 1416.79 178.746 1418.91C197.548 1421.03 1536.99 1418.91 1536.99 1418.91C1536.99 1418.91 1555.84 1395.91 1551.65 1366.6C1547.46 1337.29 1542.98 1298.65 1524.08 1273.91C1508.82 1253.84 1493.03 1232.68 1453.4 1228.49C1428.28 1225.8 1206.34 1165.67 1200.02 1163.55Z" fill="#92E3A9"/>
<path opacity="0.15" d="M1200.02 1163.55C1200.02 1163.55 1166.57 1142.63 1013.8 1092.4C861.028 1042.16 762.637 1025.39 611.987 1029.63C461.338 1033.87 258.288 1090.32 220.638 1105.03C182.987 1119.73 166.212 1123.87 174.6 1134.29C182.987 1144.7 228.978 1182.45 222.711 1199.18C216.444 1215.9 114 1308.12 107.592 1322.59C101.183 1337.05 128.561 1387.48 132.708 1400.06C136.855 1412.64 159.945 1416.79 178.746 1418.91C197.548 1421.03 1536.99 1418.91 1536.99 1418.91C1536.99 1418.91 1555.84 1395.91 1551.65 1366.6C1547.46 1337.29 1542.98 1298.65 1524.08 1273.91C1508.82 1253.84 1493.03 1232.68 1453.4 1228.49C1428.28 1225.8 1206.34 1165.67 1200.02 1163.55Z" fill="black"/>
<path d="M1200.02 1163.55C1200.02 1163.55 1166.57 1142.63 1013.8 1092.4C861.028 1042.16 762.637 1025.39 611.987 1029.63C461.338 1033.87 258.288 1090.32 220.638 1105.03C182.987 1119.73 166.212 1123.87 174.6 1134.29C182.987 1144.7 228.978 1182.45 222.711 1199.18C216.444 1215.9 114 1308.12 107.592 1322.59C101.183 1337.05 128.561 1387.48 132.708 1400.06C136.855 1412.64 159.945 1416.79 178.746 1418.91C197.548 1421.03 1536.99 1418.91 1536.99 1418.91C1536.99 1418.91 1555.84 1395.91 1551.65 1366.6C1547.46 1337.29 1542.98 1298.65 1524.08 1273.91C1508.82 1253.84 1493.03 1232.68 1453.4 1228.49C1428.28 1225.8 1206.34 1165.67 1200.02 1163.55Z" stroke="#263238" stroke-width="4" stroke-miterlimit="10"/>
<path d="M1536.99 1310.05H1457.45V1330.98H1536.99V1310.05Z" fill="#263238" stroke="#263238" stroke-width="4" stroke-miterlimit="10"/>
<path d="M1419.28 1273.86H1431.96C1440.07 1273.85 1447.99 1276.26 1454.71 1280.8C1461.43 1285.34 1466.64 1291.78 1469.66 1299.31L1482.43 1330.98H1440.96L1419.28 1273.86Z" fill="white" stroke="#263238" stroke-width="4" stroke-miterlimit="10"/>
<path d="M1536 1295.26C1535.53 1296.58 1535.11 1297.9 1534.73 1299.31L1526.2 1330.98H1546.09C1543.89 1318.77 1540.51 1306.81 1536 1295.26V1295.26Z" fill="white" stroke="#263238" stroke-width="4" stroke-miterlimit="10"/>
<path d="M1200.02 1163.55C1200.02 1163.55 1166.57 1142.63 1013.8 1092.4C978.88 1080.95 946.884 1071.24 916.396 1063.09H808.675L785.679 1069.4L1095.41 1163.65L1200.02 1163.55Z" fill="#263238" stroke="#263238" stroke-width="4" stroke-miterlimit="10"/>
<path d="M72.0615 1130V1271.37C72.0615 1271.37 158.107 1200.68 147.457 1180.56C136.807 1160.44 72.0615 1130 72.0615 1130Z" fill="#8F8F8F" stroke="#263238" stroke-width="4" stroke-miterlimit="10"/>
<path d="M1095.41 1163.55C1095.41 1163.55 1061.91 1142.63 909.139 1092.4C756.369 1042.16 658.026 1025.39 507.329 1029.63C356.632 1033.87 153.63 1090.32 116.215 1105.03C78.8003 1119.73 61.7892 1123.87 70.177 1134.29C78.5647 1144.7 124.603 1182.45 118.289 1199.18C111.974 1215.9 9.24807 1308.12 2.98082 1322.59C-3.28642 1337.05 23.903 1387.48 28.0969 1400.06C32.2908 1412.64 55.2864 1416.79 74.1352 1418.91C92.9841 1421.03 1432.34 1418.91 1432.34 1418.91C1432.34 1418.91 1451.19 1395.91 1446.99 1366.6C1442.8 1337.29 1438.13 1298.7 1419.28 1273.86C1404.02 1253.79 1388.18 1232.63 1348.6 1228.44C1323.67 1225.8 1101.68 1165.67 1095.41 1163.55Z" fill="#92E3A9"/>
<path opacity="0.15" d="M1419.28 1273.86C1404.02 1253.79 1388.18 1232.63 1348.6 1228.44C1342 1227.73 1321.6 1223.02 1295.07 1216.42C1168.59 1215.15 1098.15 1266.28 909.186 1283.62C663.115 1306.14 492.862 1244.65 287.787 1220C202.26 1209.78 133.226 1222.36 81.7217 1240.45C49.443 1273.06 6.89172 1313.35 2.93346 1322.59C-3.33379 1337.24 23.8557 1387.47 28.0496 1400.06C32.2434 1412.64 55.239 1416.78 74.0879 1418.91C92.9367 1421.03 1432.29 1418.91 1432.29 1418.91C1432.29 1418.91 1451.14 1395.91 1446.94 1366.6C1442.75 1337.29 1438.13 1298.7 1419.28 1273.86Z" fill="black"/>
<path d="M1095.41 1163.55C1095.41 1163.55 1061.91 1142.63 909.139 1092.4C756.369 1042.16 658.026 1025.39 507.329 1029.63C356.632 1033.87 153.63 1090.32 116.215 1105.03C78.8003 1119.73 61.7892 1123.87 70.177 1134.29C78.5647 1144.7 124.603 1182.45 118.289 1199.18C111.974 1215.9 9.24807 1308.12 2.98082 1322.59C-3.28642 1337.05 23.903 1387.48 28.0969 1400.06C32.2908 1412.64 55.2864 1416.79 74.1352 1418.91C92.9841 1421.03 1432.34 1418.91 1432.34 1418.91C1432.34 1418.91 1451.19 1395.91 1446.99 1366.6C1442.8 1337.29 1438.13 1298.7 1419.28 1273.86C1404.02 1253.79 1388.18 1232.63 1348.6 1228.44C1323.67 1225.8 1101.68 1165.67 1095.41 1163.55Z" stroke="#263238" stroke-width="4" stroke-miterlimit="10"/>
<path d="M303.95 1086.36L387.686 1174.81H1003.2V1154.74C1003.2 1154.74 877.049 1105.21 744.023 1079.34C610.998 1053.47 577.776 1055.78 517.837 1056.91C457.898 1058.04 303.95 1086.36 303.95 1086.36Z" fill="#8F8F8F"/>
<path d="M604.071 1136.13C525.722 1118.24 443.758 1125 369.402 1155.49L387.686 1174.81H1003.2V1154.74C1003.2 1154.74 982.791 1146.73 949.711 1135.47C880.489 1162.04 743.175 1166.75 604.071 1136.13Z" fill="#263238" stroke="#263238" stroke-width="4" stroke-miterlimit="10"/>
<path d="M303.95 1086.36L387.686 1174.81H1003.2V1154.74C1003.2 1154.74 877.049 1105.21 744.023 1079.34C610.998 1053.47 577.776 1055.78 517.837 1056.91C457.898 1058.04 303.95 1086.36 303.95 1086.36Z" stroke="#263238" stroke-width="4" stroke-miterlimit="10"/>
<path d="M582.253 1186.59V1378.8" stroke="#263238" stroke-width="4" stroke-miterlimit="10"/>
<path d="M287.989 1525.44C355.827 1509.69 398.054 1441.93 382.305 1374.09C366.556 1306.25 298.795 1264.02 230.957 1279.77C163.118 1295.52 120.892 1363.28 136.641 1431.12C152.39 1498.96 220.151 1541.19 287.989 1525.44Z" fill="#263238" stroke="#263238" stroke-width="4" stroke-miterlimit="10"/>
<path d="M259.608 1311.51C241.605 1311.51 224.007 1316.85 209.04 1326.86C194.073 1336.86 182.411 1351.08 175.528 1367.72C168.645 1384.35 166.851 1402.66 170.374 1420.31C173.896 1437.97 182.576 1454.18 195.316 1466.9C208.056 1479.62 224.282 1488.27 241.943 1491.77C259.603 1495.26 277.903 1493.44 294.527 1486.53C311.151 1479.62 325.353 1467.94 335.334 1452.96C345.316 1437.97 350.628 1420.37 350.6 1402.37C350.551 1378.26 340.943 1355.16 323.886 1338.13C306.828 1321.1 283.712 1311.53 259.608 1311.51V1311.51ZM320.866 1384.27L267.854 1394.21L282.886 1343.09C291.902 1346.64 299.996 1352.19 306.558 1359.33C313.12 1366.46 317.98 1374.99 320.772 1384.27H320.866ZM264.32 1397.94V1407.08H255.225V1397.94H264.32ZM241.56 1341.39L251.503 1394.4L200.328 1379.32C203.837 1370.32 209.34 1362.23 216.424 1355.66C223.508 1349.09 231.989 1344.21 241.23 1341.39H241.56ZM198.631 1420.74L251.644 1410.8L236.518 1461.93C227.458 1458.42 219.322 1452.88 212.731 1445.74C206.14 1438.6 201.269 1430.05 198.49 1420.74H198.631ZM277.985 1463.62L268.042 1410.66L319.076 1425.93C315.504 1434.92 309.937 1442.99 302.794 1449.52C295.652 1456.05 287.121 1460.87 277.844 1463.62H277.985Z" fill="white" stroke="#263238" stroke-width="4" stroke-miterlimit="10"/>
<path d="M287.834 1402.37C287.834 1396.77 286.175 1391.31 283.069 1386.66C279.962 1382.01 275.546 1378.38 270.38 1376.24C265.214 1374.1 259.529 1373.54 254.045 1374.64C248.56 1375.73 243.522 1378.42 239.568 1382.37C235.614 1386.33 232.921 1391.37 231.83 1396.85C230.739 1402.33 231.299 1408.02 233.439 1413.19C235.579 1418.35 239.203 1422.77 243.853 1425.87C248.502 1428.98 253.968 1430.64 259.56 1430.64C267.059 1430.64 274.25 1427.66 279.553 1422.36C284.855 1417.06 287.834 1409.86 287.834 1402.37V1402.37Z" fill="white" stroke="#263238" stroke-width="4" stroke-miterlimit="10"/>
<path d="M1236.14 1491.68C1285.39 1442.44 1285.39 1362.6 1236.14 1313.35C1186.9 1264.11 1107.06 1264.11 1057.81 1313.35C1008.57 1362.6 1008.57 1442.44 1057.81 1491.68C1107.06 1540.93 1186.9 1540.93 1236.14 1491.68Z" fill="#263238" stroke="#263238" stroke-width="4" stroke-miterlimit="10"/>
<path d="M1146.96 1311.51C1128.96 1311.51 1111.36 1316.85 1096.4 1326.86C1081.43 1336.86 1069.77 1351.08 1062.88 1367.72C1056 1384.35 1054.21 1402.66 1057.73 1420.31C1061.25 1437.97 1069.93 1454.18 1082.67 1466.9C1095.41 1479.62 1111.64 1488.27 1129.3 1491.77C1146.96 1495.26 1165.26 1493.44 1181.88 1486.53C1198.51 1479.62 1212.71 1467.94 1222.69 1452.96C1232.67 1437.97 1237.99 1420.37 1237.96 1402.37C1237.91 1378.26 1228.3 1355.16 1211.24 1338.13C1194.18 1321.1 1171.07 1311.53 1146.96 1311.51V1311.51ZM1208.22 1384.27L1155.26 1394.21L1170.29 1343.09C1179.29 1346.64 1187.37 1352.2 1193.92 1359.33C1200.47 1366.47 1205.31 1374.99 1208.08 1384.27H1208.22ZM1151.68 1397.94V1407.08H1142.53V1397.94H1151.68ZM1128.87 1341.39L1138.81 1394.4L1087.68 1379.32C1091.2 1370.3 1096.73 1362.2 1103.84 1355.63C1110.95 1349.06 1119.46 1344.19 1128.73 1341.39H1128.87ZM1085.99 1420.74L1139 1410.8L1123.92 1461.93C1114.86 1458.42 1106.71 1452.89 1100.11 1445.75C1093.51 1438.61 1088.63 1430.06 1085.85 1420.74H1085.99ZM1165.34 1463.62L1155.4 1410.66L1206.39 1425.93C1202.82 1434.92 1197.27 1442.99 1190.13 1449.52C1183 1456.05 1174.47 1460.87 1165.2 1463.62H1165.34Z" fill="white" stroke="#263238" stroke-width="4" stroke-miterlimit="10"/>
<path d="M1175.19 1402.37C1175.19 1396.77 1173.53 1391.31 1170.43 1386.66C1167.32 1382.01 1162.9 1378.38 1157.74 1376.24C1152.57 1374.1 1146.89 1373.54 1141.4 1374.64C1135.92 1375.73 1130.88 1378.42 1126.93 1382.37C1122.97 1386.33 1120.28 1391.37 1119.19 1396.85C1118.1 1402.33 1118.66 1408.02 1120.8 1413.19C1122.94 1418.35 1126.56 1422.77 1131.21 1425.87C1135.86 1428.98 1141.33 1430.64 1146.92 1430.64C1154.42 1430.64 1161.61 1427.66 1166.91 1422.36C1172.21 1417.06 1175.19 1409.86 1175.19 1402.37Z" fill="white" stroke="#263238" stroke-width="4" stroke-miterlimit="10"/>
<path d="M1419.28 1273.86C1419.28 1273.86 1325.42 1269.15 1321.22 1273.86C1317.03 1278.58 1352.61 1316.27 1365.19 1324.71C1375.13 1331.35 1421.97 1330.08 1440.91 1329.42C1437.1 1309.16 1430.92 1288.94 1419.28 1273.86Z" fill="white" stroke="#263238" stroke-width="4" stroke-miterlimit="10"/>
<path d="M597.662 1057.53C591.489 1057.1 585.693 1056.82 580.038 1056.63L564.252 1174.44H606.097L597.662 1057.53Z" fill="#263238" stroke="#263238" stroke-width="4" stroke-miterlimit="10"/>
<path d="M395.924 1361.73L386.081 1376.52L305.196 1411.67C305.196 1411.67 293.941 1413.79 293.941 1417.3C293.941 1420.81 291.823 1430.67 293.941 1432.09C296.059 1433.5 310.078 1428.56 310.078 1428.56C310.078 1428.56 305.862 1433.48 310.078 1434.89C314.293 1436.3 318.509 1429.97 318.509 1429.97C322.639 1427.37 326.632 1424.55 330.47 1421.54C332.452 1418.93 334.105 1416.09 335.392 1413.09L410.023 1394.1L425.494 1370.89C425.494 1370.89 393.826 1367.36 395.924 1361.73Z" fill="#B5B5B5" stroke="#263238" stroke-width="4" stroke-linecap="round" stroke-linejoin="round"/>
<path d="M401.551 1328.57L392.394 1358.62L416.336 1372.89L425.998 1349.45L401.551 1328.57Z" fill="white" stroke="#263238" stroke-width="4" stroke-linecap="round" stroke-linejoin="round"/>
<path d="M393.342 1348.94L422.388 1366.27L417.285 1375.43L389.792 1361.17C389.982 1356.87 391.2 1352.68 393.342 1348.94Z" fill="white" stroke="#263238" stroke-width="4" stroke-linecap="round" stroke-linejoin="round"/>
<path d="M335.856 1507.81C335.856 1507.81 315.483 1517.99 309.876 1522.57C304.268 1527.15 303.26 1526.61 304.773 1530.22H369.984L368.451 1506.78L335.856 1507.81Z" fill="white" stroke="#263238" stroke-width="4" stroke-linecap="round" stroke-linejoin="round"/>
<path d="M369.742 1526.71H304.773C303.885 1527.65 303.986 1528.42 304.773 1530.28H369.984L369.742 1526.71Z" fill="white" stroke="#263238" stroke-width="4" stroke-linecap="round" stroke-linejoin="round"/>
<path d="M423.456 1386.64C423.456 1386.64 398.505 1376.46 378.133 1374.42C357.761 1372.38 315.483 1373.39 313.446 1382.49C311.409 1391.58 343.5 1491.41 343.5 1491.41C343.5 1491.41 337.893 1494.98 337.449 1497.46C337.005 1499.94 335.936 1507.54 335.936 1507.54L368.532 1512.63C368.532 1512.63 369.54 1502.44 369.54 1492.78C369.54 1483.12 358.346 1423.49 358.346 1423.49L424.041 1444.39L399.595 1496.33C399.595 1496.33 391.97 1511.62 400.623 1519.26C409.276 1526.91 423.537 1525.31 423.537 1525.31L539.679 1526.85L537.662 1507.99C537.662 1507.99 520.86 1505.45 517.794 1505.45C514.728 1505.45 456.153 1490.68 456.153 1490.68C456.153 1490.68 503.029 1441.77 508.112 1433.62C511.137 1429.11 513.197 1424.02 514.162 1418.67C515.127 1413.33 514.976 1407.84 513.72 1402.56C510.654 1390.33 508.617 1387.77 508.617 1387.77C508.617 1387.77 472.874 1404.94 454.539 1400.9C443.309 1398.33 432.728 1393.48 423.456 1386.64V1386.64Z" fill="#263238" stroke="#263238" stroke-width="4" stroke-linecap="round" stroke-linejoin="round"/>
<path d="M340.435 1230.26C340.435 1230.26 344.005 1241.98 344.005 1243.51C344.005 1245.04 341.443 1252.67 343.501 1255.21C345.558 1257.75 351.569 1258.28 351.569 1258.28C351.569 1258.28 360.726 1268.97 364.801 1273.04C368.875 1277.11 373.454 1278.65 378.557 1276.11C383.66 1273.57 388.239 1266.93 388.239 1266.93L397.921 1276.61L420.331 1250.63L412.262 1240.44C412.262 1240.44 414.279 1228.73 406.655 1213.46C399.03 1198.19 372.526 1194.09 355.2 1197.16C337.873 1200.22 333.819 1210.39 333.819 1212.43C333.819 1214.47 340.435 1230.26 340.435 1230.26Z" fill="white" stroke="#263238" stroke-width="4" stroke-linecap="round" stroke-linejoin="round"/>
<path d="M349.612 1183.91C349.612 1183.91 338.902 1175.84 331.781 1179.33C324.661 1182.82 327.747 1185.94 326.678 1192.06C325.609 1198.17 307.839 1198.67 307.839 1208.86C307.839 1219.04 320.567 1222.61 323.108 1223.12C325.65 1223.62 323.632 1234.84 331.176 1234.84C338.72 1234.84 340.354 1230.26 340.354 1230.26C340.354 1230.26 334.746 1213.96 340.858 1211.42C346.97 1208.88 360.726 1203.77 358.689 1213.44C356.652 1223.1 363.792 1226.16 367.867 1225.16C371.941 1224.15 377.024 1224.63 377.952 1226.67C378.88 1228.71 384.003 1232.28 384.003 1227.19C384.003 1222.11 386.545 1217.51 391.123 1217.51C395.702 1217.51 399.192 1225.16 398.768 1231.27C398.424 1234.95 397.023 1238.45 394.734 1241.35L412.06 1240.32C412.06 1240.32 416.639 1217.41 412.565 1201.11C408.49 1184.81 389.308 1175.76 377.609 1174.23C365.91 1172.69 351.125 1179.33 349.612 1183.91Z" fill="#263238" stroke="#263238" stroke-width="4" stroke-linecap="round" stroke-linejoin="round"/>
<path d="M353.989 1239.36C355.26 1241.37 355.563 1243.39 354.695 1243.89C353.828 1244.4 352.053 1243.39 350.803 1241.45C349.552 1239.52 349.209 1237.42 350.097 1236.92C350.984 1236.41 352.719 1237.52 353.989 1239.36Z" fill="#263238"/>
<path d="M360.605 1262.23C363.04 1261.74 365.245 1260.47 366.88 1258.6C368.514 1256.73 369.485 1254.38 369.642 1251.9" stroke="#263238" stroke-width="4" stroke-linecap="round" stroke-linejoin="round"/>
<path d="M345.094 1235.1C345.094 1235.1 345.941 1230.36 351.548 1232.52" stroke="#263238" stroke-width="4" stroke-linecap="round" stroke-linejoin="round"/>
<path d="M399.01 1285.26C399.01 1285.26 394.976 1318.89 399.514 1329.07C404.052 1339.26 420.411 1380.01 420.411 1380.01C420.411 1380.01 416.841 1404.94 427.027 1411.59C437.213 1418.25 475.92 1419.24 490.705 1410.06C505.49 1400.88 511.582 1393.76 511.582 1387.15C511.582 1380.53 501.9 1351.48 486.631 1322.46C475.45 1301.2 460.015 1282.47 441.287 1267.43C430.597 1258.78 426.522 1254.71 424.485 1254.71C422.448 1254.71 398.001 1275.6 399.01 1285.26Z" fill="white" stroke="#263238" stroke-width="4" stroke-linecap="round" stroke-linejoin="round"/>
<path d="M420.411 1248.09L392.898 1279.15L398.506 1295.97L429.569 1255.73L420.411 1248.09Z" fill="white" stroke="#263238" stroke-width="4" stroke-linecap="round" stroke-linejoin="round"/>
<path d="M420.915 1361.67C420.915 1361.67 364.881 1393.76 357.761 1396.32C350.641 1398.89 327.707 1398.87 321.071 1398.34C320.257 1398.2 319.421 1398.23 318.623 1398.45C317.824 1398.66 317.083 1399.05 316.451 1399.58C315.82 1400.11 315.313 1400.78 314.968 1401.53C314.623 1402.28 314.448 1403.1 314.455 1403.93L313.446 1423.29C313.446 1423.29 319.034 1424.82 321.515 1423.29C323.996 1421.76 326.597 1416.15 326.597 1416.15C326.597 1416.15 335.775 1417.18 338.821 1415.14C340.82 1413.78 342.696 1412.25 344.428 1410.56C353.84 1409.78 363.196 1408.44 372.445 1406.53C382.631 1403.97 429.488 1388.7 436.628 1387.17C443.768 1385.63 446.31 1381.56 446.814 1379.1C447.318 1376.64 420.915 1361.67 420.915 1361.67Z" fill="white" stroke="#263238" stroke-width="4" stroke-linecap="round" stroke-linejoin="round"/>
<path d="M357.035 1396.52C349.249 1398.84 327.505 1398.84 321.071 1398.36C320.257 1398.22 319.421 1398.25 318.623 1398.47C317.824 1398.68 317.083 1399.07 316.451 1399.6C315.82 1400.13 315.313 1400.8 314.968 1401.55C314.623 1402.3 314.448 1403.12 314.455 1403.95L313.446 1423.31C313.446 1423.31 319.034 1424.84 321.515 1423.31C323.996 1421.78 326.597 1416.17 326.597 1416.17C326.597 1416.17 335.775 1417.2 338.821 1415.16C340.82 1413.8 342.696 1412.27 344.428 1410.58C344.428 1410.58 352.981 1409.84 361.634 1408.57L357.035 1396.52Z" fill="#92E3A9" stroke="#263238" stroke-width="4" stroke-linecap="round" stroke-linejoin="round"/>
<path d="M424.989 1285.79C424.989 1285.79 416.336 1295.45 417.344 1302.59C418.353 1309.73 420.915 1361.67 420.915 1361.67L449.94 1373.39L458.008 1332.14C458.008 1332.14 464.645 1321.43 463.616 1311.24" fill="white"/>
<path d="M424.989 1285.79C424.989 1285.79 416.336 1295.45 417.344 1302.59C418.353 1309.73 420.915 1361.67 420.915 1361.67L449.94 1373.39L458.008 1332.14C458.008 1332.14 464.645 1321.43 463.616 1311.24" stroke="#263238" stroke-width="4" stroke-linecap="round" stroke-linejoin="round"/>
<path d="M418.374 1364.23L447.904 1382.04C447.904 1382.04 451.938 1382.04 452.503 1375.43C453.067 1368.81 456.053 1367.78 453.511 1364.23C450.97 1360.68 423.961 1349.45 421.42 1349.45C418.878 1349.45 416.337 1355.56 418.374 1364.23Z" fill="white" stroke="#263238" stroke-width="4" stroke-linecap="round" stroke-linejoin="round"/>
<path d="M537.561 1508.37C537.561 1508.37 552.83 1495.14 555.392 1495.64C557.953 1496.15 578.306 1515.51 578.306 1515.51C578.306 1515.51 597.145 1525.7 597.145 1527.23C597.145 1528.76 594.099 1529.25 594.099 1529.25L539.639 1527.23L537.561 1508.37Z" fill="white" stroke="#263238" stroke-width="4" stroke-linecap="round" stroke-linejoin="round"/>
<path d="M597.065 1527.23C597.065 1525.7 578.225 1515.51 578.225 1515.51C578.225 1515.51 557.853 1496.15 555.311 1495.64C554.404 1495.46 551.862 1497.03 548.998 1499.13L573.647 1516.52L591.598 1529.17L594.019 1529.27C594.019 1529.27 597.065 1528.74 597.065 1527.23Z" fill="white" stroke="#263238" stroke-width="4" stroke-linecap="round" stroke-linejoin="round"/>
<path d="M423.96 1444.71L418.877 1423.31" stroke="#999999" stroke-width="4" stroke-linecap="round" stroke-linejoin="round"/>
</svg>
