<svg width="383" height="399" viewBox="0 0 383 399" fill="none" xmlns="http://www.w3.org/2000/svg">
<path d="M6.43268 398.454H376.021" stroke="#263238" stroke-width="0.590139" stroke-linecap="round" stroke-linejoin="round"/>
<path d="M308.237 167.406L307.748 169.566C307.376 171.227 307.893 172.012 308.926 172.307C309.96 172.603 310.74 172.185 311.12 170.534L312.281 165.44C312.652 163.779 312.145 162.964 311.111 162.668C310.078 162.373 309.298 162.811 308.908 164.472L308.754 165.175L305.681 164.288L309.307 150.981L317.874 153.436L317.122 156.758L311.447 155.138L309.987 160.579H310.051C310.458 160.114 310.971 159.785 311.534 159.626C312.097 159.468 312.688 159.488 313.242 159.683C315.635 160.375 316.415 162.607 315.635 166.031L314.42 171.227C313.577 174.946 311.447 176.597 308.256 175.68C305.064 174.763 303.895 172.175 304.729 168.456L305.173 166.53L308.237 167.406Z" fill="#1DCF9F"/>
<path d="M319.053 159.683C319.896 155.974 322.117 154.343 325.308 155.26C328.499 156.177 329.759 158.796 328.934 162.505L326.215 174.59C325.371 178.309 323.15 179.929 319.959 179.022C316.768 178.116 315.508 175.487 316.333 171.767L319.053 159.683ZM319.515 172.929C319.134 174.59 319.642 175.405 320.675 175.701C321.709 175.996 322.489 175.558 322.878 173.897L325.725 161.344C326.097 159.693 325.589 158.868 324.556 158.572C323.522 158.277 322.742 158.725 322.353 160.386L319.515 172.929Z" fill="#1DCF9F"/>
<path d="M332.008 159.479C332.048 159.189 332.141 158.912 332.282 158.666C332.422 158.419 332.607 158.208 332.825 158.046C333.042 157.884 333.287 157.775 333.544 157.725C333.801 157.675 334.064 157.686 334.317 157.757C334.57 157.828 334.807 157.958 335.013 158.138C335.219 158.317 335.389 158.543 335.513 158.801C335.637 159.059 335.712 159.343 335.732 159.635C335.753 159.927 335.72 160.221 335.634 160.498L334.628 164.92C334.587 165.21 334.494 165.486 334.353 165.733C334.213 165.98 334.028 166.191 333.811 166.353C333.593 166.515 333.348 166.624 333.091 166.674C332.834 166.724 332.571 166.712 332.318 166.641C332.065 166.57 331.828 166.441 331.622 166.261C331.416 166.081 331.246 165.855 331.122 165.598C330.998 165.34 330.924 165.056 330.903 164.764C330.882 164.472 330.915 164.178 331.001 163.901L332.008 159.479ZM332.189 164.339C332.053 164.94 332.189 165.256 332.606 165.358C333.023 165.46 333.286 165.287 333.422 164.686L334.464 160.06C334.6 159.469 334.419 159.143 334.038 159.041C333.658 158.939 333.367 159.112 333.231 159.713L332.189 164.339ZM339.024 159.244L340.139 159.56L332.352 171.696L331.237 171.38L339.024 159.244ZM336.84 166.071C336.88 165.782 336.973 165.505 337.114 165.258C337.254 165.011 337.439 164.8 337.657 164.638C337.874 164.476 338.119 164.367 338.376 164.317C338.633 164.268 338.896 164.279 339.149 164.35C339.402 164.421 339.639 164.551 339.845 164.73C340.051 164.91 340.221 165.136 340.345 165.394C340.469 165.652 340.544 165.936 340.564 166.228C340.585 166.52 340.552 166.814 340.466 167.09L339.46 171.513C339.419 171.802 339.326 172.079 339.185 172.326C339.045 172.573 338.86 172.784 338.643 172.946C338.425 173.108 338.18 173.217 337.923 173.266C337.666 173.316 337.403 173.305 337.15 173.234C336.897 173.163 336.66 173.033 336.454 172.854C336.248 172.674 336.078 172.448 335.954 172.19C335.83 171.932 335.756 171.648 335.735 171.356C335.714 171.064 335.747 170.77 335.833 170.494L336.84 166.071ZM337.012 170.942C336.876 171.533 337.012 171.849 337.438 171.961C337.864 172.073 338.118 171.89 338.245 171.288L339.296 166.662C339.432 166.071 339.251 165.756 338.87 165.643C338.489 165.531 338.199 165.715 338.063 166.316L337.012 170.942Z" fill="#1DCF9F"/>
<path d="M306.85 190.22L343.086 199.972L344.79 193.247" stroke="#263238" stroke-width="0.590139" stroke-linecap="round" stroke-linejoin="round"/>
<path d="M293.234 148.657L286.815 184.84L299.688 188.295" stroke="#263238" stroke-width="0.590139" stroke-linecap="round" stroke-linejoin="round"/>
<path d="M346.132 187.938L355.451 151.123L295.5 135.89L294.14 143.593" stroke="#263238" stroke-width="0.590139" stroke-linecap="round" stroke-linejoin="round"/>
<path d="M280.37 348.301L279.372 353.549" stroke="#263238" stroke-width="0.590139" stroke-linecap="round" stroke-linejoin="round"/>
<path d="M305.346 216.357L281.893 340.251" stroke="#263238" stroke-width="0.590139" stroke-linecap="round" stroke-linejoin="round"/>
<path d="M309.652 193.583L306.85 208.399" stroke="#263238" stroke-width="0.590139" stroke-linecap="round" stroke-linejoin="round"/>
<path d="M299.906 267.131L286.498 339.579" stroke="#263238" stroke-width="0.590139" stroke-linecap="round" stroke-linejoin="round"/>
<path d="M313.332 194.572L301.32 259.489" stroke="#263238" stroke-width="0.590139" stroke-linecap="round" stroke-linejoin="round"/>
<path d="M53.0664 357.064C52.7632 359.271 52.5755 361.496 52.5043 363.728C52.6856 366.388 53.2205 387.887 53.2205 387.887L52.5043 388.733C51.7881 389.579 50.528 387.398 50.528 387.398C50.528 387.398 50.528 386.074 47.0105 367.091C46.0224 361.772 44.4631 355.556 43.1848 349.544C42.0779 344.829 41.3557 340.009 41.0272 335.146C40.7099 326.811 43.7469 321.9 43.7469 321.9L54.9974 315.511C54.9974 315.511 56.6201 317.947 57.7171 319.455C58.814 320.963 55.5232 337.49 55.5232 337.49C55.5232 337.49 53.9458 349.228 53.0664 357.064Z" fill="#1DCF9F" stroke="#263238" stroke-width="0.590139" stroke-linecap="round" stroke-linejoin="round"/>
<path d="M53.2207 387.888L52.5045 388.733C51.7883 389.579 50.5282 387.399 50.5282 387.399C50.5282 387.399 50.5282 386.074 47.0107 367.091C46.0225 361.772 44.4633 355.556 43.185 349.544C46.0868 352.647 49.4258 355.188 53.0666 357.064C52.7634 359.271 52.5757 361.497 52.5045 363.728C52.6858 366.388 53.2207 387.888 53.2207 387.888Z" fill="#263238"/>
<path d="M38.7427 299.015C37.3466 299.412 32.3967 318.854 32.3967 318.854C32.3967 318.854 34.1011 322.145 34.2824 321.911C34.4637 321.676 40.9819 306.861 40.9819 306.861L38.7427 299.015Z" fill="white" stroke="#263238" stroke-width="0.590139" stroke-linecap="round" stroke-linejoin="round"/>
<path d="M54.0546 279.603C55.2694 282.325 57.3165 284.463 59.8204 285.625C61.3525 286.512 59.494 290.608 60.8085 293.227C62.1231 295.846 65.5317 293.573 65.5317 293.573C65.5317 293.573 65.2326 299.544 61.1077 299.473C61.276 299.805 61.5203 300.08 61.8152 300.27C62.1102 300.46 62.445 300.558 62.7848 300.553C62.7848 300.553 52.8126 307.339 43.058 302.499C33.3033 297.659 37.7364 287.215 37.7364 287.215C37.7364 287.215 34.3277 291.179 35.0167 295.815C35.0167 295.815 30.1666 288.152 36.7483 284.607C43.3299 281.061 44.0733 275.436 47.1375 276.007C50.2017 276.577 54.0546 279.603 54.0546 279.603Z" fill="#263238"/>
<path d="M51.5435 287.918C51.5435 287.918 50.2924 293.563 51.1899 295.377C52.0874 297.191 43.3572 297.731 43.3572 297.731C43.3572 297.731 46.5846 294.837 45.3335 290.669C44.0824 286.502 51.5435 287.918 51.5435 287.918Z" fill="white" stroke="#263238" stroke-width="0.590139" stroke-linecap="round" stroke-linejoin="round"/>
<path d="M53.2023 387.245C53.5944 389.067 53.8791 390.915 54.0545 392.778C54.0545 394.123 53.9366 399.768 51.5433 398.158C49.15 396.548 50.528 387.398 50.528 387.398L53.2023 387.245Z" fill="#263238"/>
<path d="M57.962 347.374C57.962 347.374 60.2556 352.734 59.893 355.363C59.5303 357.992 55.9494 358.053 55.8316 351.368C55.7137 344.684 57.962 347.374 57.962 347.374Z" fill="#757575" stroke="#263238" stroke-width="0.590139" stroke-linecap="round" stroke-linejoin="round"/>
<path d="M41.5169 280.307C41.8886 273.551 55.5687 271.961 52.9033 284.596C50.238 297.231 40.7372 294.765 41.5169 280.307Z" fill="white" stroke="#263238" stroke-width="0.590139" stroke-linecap="round" stroke-linejoin="round"/>
<path d="M39.5223 298.24C39.5223 298.24 52.7854 291.749 55.8405 292.707C58.8956 293.665 57.9528 314.737 55.8405 317.091C51.5071 321.92 43.7288 321.91 43.7288 321.91C43.7288 321.91 32.1701 304.415 39.5223 298.24Z" fill="#757575" stroke="#263238" stroke-width="0.590139" stroke-linecap="round" stroke-linejoin="round"/>
<path d="M54.0547 329.369C52.5044 328.829 48.9144 334.464 48.9144 334.464C47.2769 342.373 46.6904 350.511 47.1738 358.613C48.6515 362.383 50.8907 360.478 53.9821 357.248C57.0735 354.017 58.7779 341.331 60.7542 332.721C62.7305 324.111 55.8768 317.091 55.8768 317.091" fill="#1DCF9F"/>
<path d="M54.0547 329.369C52.5044 328.829 48.9144 334.464 48.9144 334.464C47.2769 342.373 46.6904 350.511 47.1738 358.613C48.6515 362.383 50.8907 360.478 53.9821 357.248C57.0735 354.017 58.7779 341.331 60.7542 332.721C62.7305 324.111 55.8768 317.091 55.8768 317.091" stroke="#263238" stroke-width="0.590139" stroke-linecap="round" stroke-linejoin="round"/>
<path d="M44.6082 331.142C44.6082 331.142 46.7658 334.199 48.9143 334.474Z" fill="#1DCF9F"/>
<path d="M44.6082 331.142C44.6082 331.142 46.7658 334.199 48.9143 334.474" stroke="#263238" stroke-width="0.590139" stroke-linecap="round" stroke-linejoin="round"/>
<path d="M49.4492 278.717C46.9018 277.239 44.309 282.212 39.6493 285.442C34.9895 288.672 33.5571 284.637 33.5571 284.637C33.5571 284.637 35.9414 285.167 36.2768 283.965C36.2768 283.965 35.9867 277.321 42.6228 274.193C49.2589 271.065 52.0964 273.021 52.8126 274.193C53.9178 275.764 54.6563 277.62 54.9612 279.593C55.6773 283.017 57.2457 286.96 55.6773 286.726C50.4102 285.768 49.4492 278.717 49.4492 278.717Z" fill="#263238"/>
<path d="M55.8768 292.707C57.2548 292.779 65.5317 307.258 65.5317 307.258L63.9815 310.692L55.8768 301.654C55.8768 301.654 53.6467 299.076 54.0637 297.099C54.4908 295.551 55.1006 294.074 55.8768 292.707V292.707Z" fill="white" stroke="#263238" stroke-width="0.590139" stroke-linecap="round" stroke-linejoin="round"/>
<path d="M59.5483 316.734L63.2743 331.957L63.5282 336.807L75.9934 332.946L80.9252 327.525L78.423 324.977L71.9864 308.114L60.8719 312.984L59.5483 316.734Z" fill="#263238"/>
<path d="M63.1112 313.382C63.1112 313.382 60.1377 309.173 62.7395 306.3C65.3414 303.427 68.0702 310.478 68.0702 310.478" stroke="#263238" stroke-width="0.590139" stroke-linecap="round" stroke-linejoin="round"/>
<path d="M63.0568 315.542L69.575 329.532L70.7444 334.209L82.2034 327.453L85.9838 320.973L83.0647 319.078L73.582 304.14L63.637 311.568L63.0568 315.542Z" fill="#757575" stroke="#263238" stroke-width="0.590139" stroke-linecap="round" stroke-linejoin="round"/>
<path d="M65.9034 311.415C65.9034 311.415 62.1955 308.012 64.199 304.588C66.2025 301.164 70.2005 307.39 70.2005 307.39" stroke="#263238" stroke-width="0.590139" stroke-linecap="round" stroke-linejoin="round"/>
<path d="M85.9839 320.973L73.7815 327.158L72.8297 330.276" stroke="#263238" stroke-width="0.590139" stroke-linecap="round" stroke-linejoin="round"/>
<path d="M73.7815 327.158L71.7508 325.069L65.5317 314.054" stroke="#263238" stroke-width="0.590139" stroke-linecap="round" stroke-linejoin="round"/>
<path d="M38.6882 324.845L35.8235 340.302L35.8416 345.163L23.1769 342.187L17.9551 337.123L20.3122 334.403L25.7878 317.121L37.1561 321.197L38.6882 324.845Z" fill="#757575" stroke="#263238" stroke-width="0.590139" stroke-linecap="round" stroke-linejoin="round"/>
<path d="M34.9442 321.747C34.9442 321.747 37.6639 317.335 34.9442 314.614C32.2245 311.894 29.8583 319.2 29.8583 319.2" stroke="#263238" stroke-width="0.590139" stroke-linecap="round" stroke-linejoin="round"/>
<path d="M17.9551 337.123L31.2907 339.905L33.3214 343.074" stroke="#263238" stroke-width="0.590139" stroke-linecap="round" stroke-linejoin="round"/>
<path d="M31.2908 339.905L32.4875 337.246L36.15 324.611" stroke="#263238" stroke-width="0.590139" stroke-linecap="round" stroke-linejoin="round"/>
<path d="M35.1165 323.897L29.3961 338.326L28.4895 343.074L16.6769 337.144L12.5339 330.938L15.3534 328.849L23.9839 313.27L34.3187 319.974L35.1165 323.897Z" fill="#1DCF9F"/>
<path d="M35.1165 323.897L35.3908 324.006C35.4119 323.953 35.4171 323.895 35.4056 323.838L35.1165 323.897ZM29.3961 338.326L29.1218 338.217C29.1149 338.234 29.1097 338.252 29.1062 338.27L29.3961 338.326ZM28.4895 343.074L28.3571 343.338C28.4398 343.379 28.5371 343.379 28.6201 343.339C28.703 343.298 28.762 343.22 28.7793 343.129L28.4895 343.074ZM16.6769 337.144L16.4315 337.307C16.4599 337.35 16.4989 337.384 16.5446 337.407L16.6769 337.144ZM12.5339 330.938L12.3583 330.701C12.2319 330.795 12.2012 330.971 12.2885 331.102L12.5339 330.938ZM15.3534 328.849L15.529 329.086C15.5629 329.061 15.591 329.029 15.6115 328.992L15.3534 328.849ZM23.9839 313.27L24.1445 313.022C24.0758 312.977 23.9918 312.963 23.9124 312.983C23.833 313.003 23.7654 313.055 23.7258 313.127L23.9839 313.27ZM34.3187 319.974L34.6079 319.915C34.5921 319.838 34.5458 319.77 34.4793 319.727L34.3187 319.974ZM34.8422 323.788L29.1218 338.217L29.6704 338.434L35.3908 324.006L34.8422 323.788ZM29.1062 338.27L28.1997 343.019L28.7793 343.129L29.6859 338.381L29.1062 338.27ZM28.6219 342.81L16.8093 336.88L16.5446 337.407L28.3571 343.338L28.6219 342.81ZM16.9223 336.98L12.7793 330.774L12.2885 331.102L16.4315 337.307L16.9223 336.98ZM12.7096 331.175L15.529 329.086L15.1777 328.612L12.3583 330.701L12.7096 331.175ZM15.6115 328.992L24.242 313.413L23.7258 313.127L15.0952 328.706L15.6115 328.992ZM23.8233 313.517L34.1581 320.222L34.4793 319.727L24.1445 313.022L23.8233 313.517ZM34.0296 320.033L34.8273 323.956L35.4056 323.838L34.6079 319.915L34.0296 320.033Z" fill="#263238"/>
<path d="M32.0522 319.995C32.0522 319.995 35.5606 316.337 33.3668 313.056C31.1729 309.775 27.5375 316.286 27.5375 316.286" stroke="#263238" stroke-width="0.590139" stroke-linecap="round" stroke-linejoin="round"/>
<path d="M12.5339 330.938L24.4825 336.298L26.3953 339.905" stroke="#263238" stroke-width="0.590139" stroke-linecap="round" stroke-linejoin="round"/>
<path d="M24.4825 336.298L26.3954 333.751L31.8892 322.736" stroke="#263238" stroke-width="0.590139" stroke-linecap="round" stroke-linejoin="round"/>
<path d="M23.7118 314.085L11.3735 321.635L8.08265 324.794L1.90894 312.016L1.96333 304.262L5.33576 304.527L20.6023 298.036L25.1986 310.417L23.7118 314.085Z" fill="#BFBFBF" stroke="#263238" stroke-width="0.590139" stroke-linecap="round" stroke-linejoin="round"/>
<path d="M23.3854 308.878C23.3854 308.878 28.154 308.368 28.1812 304.262C28.2084 300.156 21.8352 302.846 21.8352 302.846" stroke="#263238" stroke-width="0.590139" stroke-linecap="round" stroke-linejoin="round"/>
<path d="M1.96326 304.262L8.56306 316.673L8.1279 320.851" stroke="#263238" stroke-width="0.590139" stroke-linecap="round" stroke-linejoin="round"/>
<path d="M8.56305 316.673L11.4641 315.949L21.7808 310.957" stroke="#263238" stroke-width="0.590139" stroke-linecap="round" stroke-linejoin="round"/>
<path d="M34.0105 313.636L28.9247 307.523L26.1415 308.154C26.1415 308.154 29.1423 317.773 32.415 318.894C35.6877 320.015 34.0105 313.636 34.0105 313.636Z" fill="white" stroke="#263238" stroke-width="0.590139" stroke-linecap="round" stroke-linejoin="round"/>
<path d="M63.7548 305.648C64.2534 304.629 67.653 297.73 67.653 297.73L70.2367 298.097C70.2367 298.097 67.653 312.505 63.9814 310.692C63.5293 309.958 63.2686 309.097 63.2285 308.206C63.1885 307.315 63.3707 306.429 63.7548 305.648V305.648Z" fill="white" stroke="#263238" stroke-width="0.590139" stroke-linecap="round" stroke-linejoin="round"/>
<path d="M26.8576 309.5C25.6972 307.941 24.3464 304.181 24.7 303.559C25.0535 302.938 27.1386 300.319 27.3562 300.635L28.3172 302.01C28.3172 302.01 28.7433 300.533 29.2237 301.338C29.7042 302.143 30.2754 307.686 29.0152 308.399" fill="white"/>
<path d="M26.8576 309.5C25.6972 307.941 24.3464 304.181 24.7 303.559C25.0535 302.938 27.1386 300.319 27.3562 300.635L28.3172 302.01C28.3172 302.01 28.7433 300.533 29.2237 301.338C29.7042 302.143 30.2754 307.686 29.0152 308.399" stroke="#263238" stroke-width="0.590139" stroke-linecap="round" stroke-linejoin="round"/>
<path d="M28.3173 301.99C28.7513 303.074 28.9886 304.245 29.0154 305.434C28.8794 306.758 27.1478 308.042 26.1415 308.317" stroke="#263238" stroke-width="0.590139" stroke-linecap="round" stroke-linejoin="round"/>
<path d="M72.8116 304.649L85.15 312.2L88.4317 315.359L94.6054 302.591L94.5511 294.837L91.1877 295.092L75.9121 288.611L71.3248 300.991L72.8116 304.649Z" fill="#1DCF9F" stroke="#263238" stroke-width="0.590139" stroke-linecap="round" stroke-linejoin="round"/>
<path d="M73.1287 299.442C73.1287 299.442 68.3692 298.933 68.333 294.837C68.2967 290.74 74.6789 293.42 74.6789 293.42" stroke="#263238" stroke-width="0.590139" stroke-linecap="round" stroke-linejoin="round"/>
<path d="M94.551 294.837L87.9603 307.248L88.3864 311.415" stroke="#263238" stroke-width="0.590139" stroke-linecap="round" stroke-linejoin="round"/>
<path d="M87.9602 307.248L85.0591 306.524L74.7424 301.521" stroke="#263238" stroke-width="0.590139" stroke-linecap="round" stroke-linejoin="round"/>
<path d="M69.6567 300.064C70.8262 298.515 72.1769 294.745 71.8143 294.123C71.4517 293.502 69.3938 290.883 69.1671 291.189C68.9405 291.494 68.1971 292.554 68.1971 292.554C68.1971 292.554 67.7801 291.087 67.2906 291.892C66.801 292.697 66.248 298.23 67.4991 298.943" fill="white"/>
<path d="M69.6567 300.064C70.8262 298.515 72.1769 294.745 71.8143 294.123C71.4517 293.502 69.3938 290.883 69.1671 291.189C68.9405 291.494 68.1971 292.554 68.1971 292.554C68.1971 292.554 67.7801 291.087 67.2906 291.892C66.801 292.697 66.248 298.23 67.4991 298.943" stroke="#263238" stroke-width="0.590139" stroke-linecap="round" stroke-linejoin="round"/>
<path d="M68.1971 292.554C67.7632 293.638 67.5288 294.81 67.5081 295.998C67.6441 297.333 69.3212 298.607 70.3819 298.892" stroke="#263238" stroke-width="0.590139" stroke-linecap="round" stroke-linejoin="round"/>
<path d="M308.491 387.439C307.655 389.24 307.167 391.219 307.059 393.247C307.059 396.07 306.252 397.985 307.821 398.23C309.389 398.474 311.9 398.699 311.9 397.894V395.856C311.9 395.856 313.151 388.275 311.9 387.429C310.649 386.583 308.491 387.439 308.491 387.439Z" fill="white" stroke="#263238" stroke-width="0.590139" stroke-linecap="round" stroke-linejoin="round"/>
<path d="M330.258 324.855C330.258 324.855 331.328 350.787 329.297 358.175C327.266 365.562 313.278 387.062 313.278 387.062C313.278 387.062 312.562 390.292 310.649 390.017C308.736 389.742 307.413 386.797 308.138 385.32C308.863 383.842 310.858 379.267 310.858 379.267C310.858 379.267 318.509 359.958 319.706 357.319C320.902 354.68 315.282 342.462 315.282 342.462L312.435 334.005L312.317 325.527L330.258 324.855Z" fill="#999999" stroke="#263238" stroke-width="0.590139" stroke-linecap="round" stroke-linejoin="round"/>
<path d="M326.088 366.775L324.637 371.931C325.22 374.053 325.898 376.141 326.668 378.187C327.575 380.307 330.603 381.499 331.056 379.909C331.509 378.32 330.376 371.584 330.376 371.584C330.376 371.584 332.026 367.733 330.856 367.213C329.687 366.693 326.088 366.775 326.088 366.775Z" fill="white" stroke="#263238" stroke-width="0.590139" stroke-linecap="round" stroke-linejoin="round"/>
<path d="M314.23 271.207C310.404 272.226 306.978 273.449 308.011 282.864C308.337 285.748 309.271 287.541 310.495 288.58C310.794 289.174 310.951 289.844 310.951 290.526C310.951 291.208 310.794 291.879 310.495 292.473C309.452 294.51 317.702 293.675 317.702 293.675C317.702 293.675 316.379 290.995 317.702 288.906C318.782 288.455 319.769 287.762 320.603 286.868C322.734 284.25 318.056 270.168 314.23 271.207Z" fill="white" stroke="#263238" stroke-width="0.590139" stroke-linecap="round" stroke-linejoin="round"/>
<path d="M307.821 273.031C307.821 273.031 307.413 270.3 305.799 269.495C304.185 268.69 310.105 269.893 310.105 269.495C309.855 268.408 309.553 267.336 309.199 266.286C309.199 266.286 312.426 265.909 313.323 268.558C314.221 271.207 315.137 267.59 315.835 267.834C316.533 268.079 316.796 271.156 316.796 271.156L318.464 269.648C318.464 269.648 321.347 276.057 319.905 278.421C319.905 278.421 317.185 275.089 314.466 274.916C313.03 274.71 311.577 275.117 310.395 276.057L310.595 281.835C310.595 281.835 310.096 279.145 308.89 280.877C308.21 281.896 309.38 286.074 309.38 286.074C309.38 286.074 306.488 285.483 305.518 281.111C304.548 276.74 307.821 273.031 307.821 273.031Z" fill="#263238"/>
<path d="M303.714 294.653C304.911 291.8 318.772 290.577 324.51 291.26C330.249 291.943 332.525 332.375 332.525 332.375C332.525 332.375 331.382 329.318 324.637 329.939C320.152 330.442 315.794 331.909 311.8 334.26L310.368 320.728C310.368 320.728 303.116 303.273 302.717 301.297C302.317 299.02 302.672 296.657 303.714 294.653V294.653Z" fill="#263238"/>
<path d="M312.299 288.336C312.299 288.336 315.264 289.701 317.82 288.591C320.377 287.48 318.727 286.471 318.727 286.471C318.727 286.471 313.423 289.049 312.299 288.336Z" fill="#263238"/>
<path d="M317.485 244.215L331.301 241.861L349.994 246.121V249.677L332.298 250.91L317.476 249.595L317.485 245.04" fill="#999999"/>
<path d="M317.485 244.215L331.301 241.861L349.994 246.121V249.677L332.298 250.91L317.476 249.595L317.485 245.04" stroke="#263238" stroke-width="0.590139" stroke-linecap="round" stroke-linejoin="round"/>
<path d="M322.017 249.412L334.32 250.268L349.495 257.757L347.691 266.051L332.534 263.351L319.751 259.856L322.017 249.412Z" fill="#999999" stroke="#263238" stroke-width="0.590139" stroke-linecap="round" stroke-linejoin="round"/>
<path d="M334.32 250.268L333.159 255.638" stroke="#263238" stroke-width="0.590139" stroke-linecap="round" stroke-linejoin="round"/>
<path d="M317.476 249.595L332.153 246.385L347.274 248.271" fill="#999999"/>
<path d="M317.476 249.595L332.153 246.385L347.274 248.271" stroke="#263238" stroke-width="0.590139" stroke-linecap="round" stroke-linejoin="round"/>
<path d="M319.751 259.856L332.38 257.727L346.023 263.606" fill="#999999"/>
<path d="M319.751 259.856L332.38 257.727L346.023 263.606" stroke="#263238" stroke-width="0.590139" stroke-linecap="round" stroke-linejoin="round"/>
<path d="M317.566 269.312L326.65 270.331H349.795V264.553L329.524 259.489L317.566 265.389V269.312Z" fill="#1DCF9F" stroke="#263238" stroke-width="0.590139" stroke-linecap="round" stroke-linejoin="round"/>
<path d="M319.697 268.201L321.637 280.245H348.408V267.244L330.72 264.553L319.697 268.201Z" fill="#1DCF9F" stroke="#263238" stroke-width="0.590139" stroke-linecap="round" stroke-linejoin="round"/>
<path d="M330.72 264.553L331.5 277.046L346.023 279.145" fill="#1DCF9F"/>
<path d="M330.72 264.553L331.5 277.046L346.023 279.145" stroke="#263238" stroke-width="0.590139" stroke-linecap="round" stroke-linejoin="round"/>
<path d="M329.705 262.577V260.508" stroke="#263238" stroke-width="0.590139" stroke-linecap="round" stroke-linejoin="round"/>
<path d="M315.898 280.245L329.705 277.861L348.408 282.069V285.625L330.72 286.909L315.898 285.625V281.06" fill="#999999"/>
<path d="M315.898 280.245L329.705 277.861L348.408 282.069V285.625L330.72 286.909L315.898 285.625V281.06" stroke="#263238" stroke-width="0.590139" stroke-linecap="round" stroke-linejoin="round"/>
<path d="M317.566 284.821L329.705 282.385L346.023 285.626V294.164L330.72 295.571H317.566V284.821Z" fill="#999999" stroke="#263238" stroke-width="0.590139" stroke-linecap="round" stroke-linejoin="round"/>
<path d="M321.637 299.004L321.093 293.217L330.72 290.333L351.218 294.664V299.004L336.16 300.767L321.637 299.004Z" fill="#757575" stroke="#263238" stroke-width="0.590139" stroke-linecap="round" stroke-linejoin="round"/>
<path d="M324.148 297.384L330.721 295.57L349.758 299.167V309.591C349.758 309.591 331.7 310.284 330.721 310.284C329.742 310.284 322.888 309.591 322.888 309.591L324.148 297.384Z" fill="#757575" stroke="#263238" stroke-width="0.590139" stroke-linecap="round" stroke-linejoin="round"/>
<path d="M330.72 295.57V307.125L347.274 307.849" fill="#757575"/>
<path d="M330.72 295.57V307.125L347.274 307.849" stroke="#263238" stroke-width="0.590139" stroke-linecap="round" stroke-linejoin="round"/>
<path d="M329.705 282.385V287.918" stroke="#263238" stroke-width="0.590139" stroke-linecap="round" stroke-linejoin="round"/>
<path d="M318.128 316.214L327.212 317.233H350.348V311.456L330.077 306.392L318.128 312.291V316.214Z" fill="#1DCF9F" stroke="#263238" stroke-width="0.590139" stroke-linecap="round" stroke-linejoin="round"/>
<path d="M320.25 315.103L322.19 327.147H348.97V314.146L331.273 311.456L320.25 315.103Z" fill="#1DCF9F" stroke="#263238" stroke-width="0.590139" stroke-linecap="round" stroke-linejoin="round"/>
<path d="M331.273 311.456L332.053 323.948L346.576 326.047" fill="#1DCF9F"/>
<path d="M331.273 311.456L332.053 323.948L346.576 326.047" stroke="#263238" stroke-width="0.590139" stroke-linecap="round" stroke-linejoin="round"/>
<path d="M330.258 309.479V307.411" stroke="#263238" stroke-width="0.590139" stroke-linecap="round" stroke-linejoin="round"/>
<path d="M305.346 305.169C305.346 305.169 306.035 297.527 310.404 297.618L315.898 309.265L328.59 300.095C328.59 300.095 333.322 298.281 334.628 298.892C334.996 299.041 335.327 299.286 335.595 299.607C335.863 299.927 336.059 300.314 336.169 300.736H334.628L337.193 302.897C337.193 302.897 336.377 305.138 334.628 304.935C333.172 304.846 331.712 304.914 330.267 305.138C330.267 305.138 317.575 315.562 315.907 317.203C314.239 318.843 305.346 305.169 305.346 305.169Z" fill="white" stroke="#263238" stroke-width="0.590139" stroke-linecap="round" stroke-linejoin="round"/>
<path d="M348.97 321.095C348.97 321.095 351.091 320.28 351.218 321.095C351.345 321.91 351.318 329.247 350.311 328.982C349.305 328.717 346.93 328.737 347.238 327.963C347.546 327.189 348.97 321.095 348.97 321.095Z" fill="white" stroke="#263238" stroke-width="0.590139" stroke-linecap="round" stroke-linejoin="round"/>
<path d="M312.462 334.005C312.462 334.005 311.619 344.562 314.475 348.077C317.33 351.593 328.454 345.815 328.454 345.815L326.088 366.775C326.088 366.775 328.581 369.465 331.165 368.385C332.552 367.814 342.687 335.513 340.774 331.336C338.861 327.158 319.243 333.7 319.243 333.7" fill="#999999"/>
<path d="M312.462 334.005C312.462 334.005 311.619 344.562 314.475 348.077C317.33 351.593 328.454 345.815 328.454 345.815L326.088 366.775C326.088 366.775 328.581 369.465 331.165 368.385C332.552 367.814 342.687 335.513 340.774 331.336C338.861 327.158 319.243 333.7 319.243 333.7" stroke="#263238" stroke-width="0.590139" stroke-linecap="round" stroke-linejoin="round"/>
<path d="M328.454 345.815C328.454 345.815 326.741 342.758 327.956 340.435" stroke="#263238" stroke-width="0.590139" stroke-linecap="round" stroke-linejoin="round"/>
<path d="M324.637 343.125C324.896 343.847 325.286 344.499 325.783 345.042C326.279 345.584 326.871 346.003 327.52 346.274" stroke="#263238" stroke-width="0.590139" stroke-linecap="round" stroke-linejoin="round"/>
<path d="M242.448 113.769C242.448 113.769 238.867 119.944 234.561 116.449C230.255 112.954 228.822 109.204 223.564 110.274C223.564 110.274 227.39 108.399 230.971 110.274C234.552 112.149 239.71 104.894 239.71 104.894L235.041 101.562C235.041 101.562 232.177 107.849 229.539 105.699C226.9 103.549 224.28 98.4948 219.503 101.562C218.596 102.153 217.925 101.755 217.427 100.706C219.186 97.0377 222.476 89.1306 221.416 83.1392C221.129 81.4105 220.642 79.7318 219.965 78.1463C222.204 80.439 225.151 82.5992 227.744 81.6923L224.516 76.944C224.516 76.944 220.074 78.2482 212.54 67.2741C209.948 63.504 204.073 55.4543 191.164 60.9974C182.098 64.8796 171.754 69.149 169.923 76.944C168.092 84.739 170.149 93.6854 162.19 96.4671C154.23 99.2489 149.679 96.0697 148.727 101.562C147.775 107.054 150.495 107.676 150.495 107.676L153.985 106.657C153.985 106.657 150.16 103.6 151.837 102.754C153.514 101.908 158.337 101.572 158.337 101.572C158.337 101.572 155.182 104.099 155.418 105.179C155.653 106.259 157.095 111.894 153.505 112.159C149.915 112.424 142.091 109.744 139.906 114.309C139.906 114.309 143.941 115.114 144.666 116.734C144.666 116.734 146.053 115.929 150.495 116.734C154.937 117.539 161.256 117.804 161.084 111.894C161.084 111.894 164.71 119.414 153.033 118.884C153.033 118.884 156.107 124.254 156.959 126.404C157.811 128.554 183.249 135.004 190.611 135.004C197.972 135.004 217.255 125.375 218.016 125.375H221.642L228.786 122.95C228.786 122.95 228.496 118.436 219.031 117.407L218.007 117.305C207.536 116.5 227.381 115.43 231.923 119.995C236.465 124.56 244.814 121.075 244.814 121.075L242.448 113.769ZM208.905 76.944C208.905 76.944 213.039 76.4956 216.393 83.4449C218.206 87.266 217.4 92.3709 216.275 96.192C215.151 89.7624 214.181 79.7868 208.896 76.944H208.905Z" fill="#263238"/>
<path d="M201.326 96.4668C201.326 96.4668 193.775 115.103 205.923 116.989C205.923 116.989 197.047 124.121 191.889 124.121C186.731 124.121 178.852 116.989 178.852 116.989C178.852 116.989 184.509 115.389 184.491 110.274C184.473 105.158 181.962 98.25 181.962 98.25L201.326 96.4668Z" fill="white" stroke="#263238" stroke-width="0.590139" stroke-linecap="round" stroke-linejoin="round"/>
<path d="M175.58 84.9936C175.58 84.9936 173.767 82.8945 172.86 83.5772C172.263 84.0799 171.807 84.765 171.546 85.5509C171.286 86.3368 171.232 87.1904 171.391 88.0097C171.881 89.803 174.011 92.9108 174.175 94.7246C174.338 96.5383 175.435 98.5864 176.64 97.384C177.846 96.1817 175.58 84.9936 175.58 84.9936Z" fill="white" stroke="#263238" stroke-width="0.590139" stroke-linecap="round" stroke-linejoin="round"/>
<path d="M208.207 84.9936C208.207 84.9936 210.02 82.8945 210.927 83.5772C211.524 84.0799 211.98 84.765 212.241 85.5509C212.501 86.3368 212.555 87.1904 212.395 88.0097C211.906 89.803 209.775 92.9108 209.612 94.7246C209.449 96.5383 208.352 98.5864 207.146 97.384C205.941 96.1817 208.207 84.9936 208.207 84.9936Z" fill="white" stroke="#263238" stroke-width="0.590139" stroke-linecap="round" stroke-linejoin="round"/>
<path d="M192.279 58.2256C169.252 58.2256 175.48 89.5176 179.723 100.583C181.21 104.476 188.716 107.655 192.415 107.655C195.887 107.655 202.659 104.792 204.064 101.144C208.379 90.0169 214.236 58.2256 192.279 58.2256Z" fill="white" stroke="#263238" stroke-width="0.590139" stroke-linecap="round" stroke-linejoin="round"/>
<path d="M188.381 77.4836C188.381 77.4836 182.379 75.4457 180.53 79.5215" stroke="#263238" stroke-width="0.590139" stroke-linecap="round" stroke-linejoin="round"/>
<path d="M184.736 84.5758C185.182 84.5758 185.543 83.9326 185.543 83.1391C185.543 82.3456 185.182 81.7024 184.736 81.7024C184.29 81.7024 183.929 82.3456 183.929 83.1391C183.929 83.9326 184.29 84.5758 184.736 84.5758Z" fill="#263238"/>
<path d="M195.406 77.4836C195.406 77.4836 201.408 75.4457 203.257 79.5215" stroke="#263238" stroke-width="0.590139" stroke-linecap="round" stroke-linejoin="round"/>
<path d="M199.849 83.1391C199.849 83.9339 199.495 84.5758 199.051 84.5758C198.607 84.5758 198.244 83.9339 198.244 83.1391C198.244 82.3443 198.607 81.7024 199.051 81.7024C199.495 81.7024 199.849 82.3443 199.849 83.1391Z" fill="#263238"/>
<path d="M193.403 82.0383C192.614 83.5362 195.089 88.0705 194.191 88.8246C193.5 89.3075 192.703 89.5682 191.889 89.5786" fill="white"/>
<path d="M193.403 82.0383C192.614 83.5362 195.089 88.0705 194.191 88.8246C193.5 89.3075 192.703 89.5682 191.889 89.5786" stroke="#263238" stroke-width="0.590139" stroke-linecap="round" stroke-linejoin="round"/>
<path d="M197.791 92.6558C194.31 93.8928 190.574 93.8928 187.093 92.6558C187.093 92.6558 187.039 96.8131 190.076 97.7505C193.947 99.0344 197.346 97.8626 197.791 92.6558Z" fill="white" stroke="#263238" stroke-width="0.590139" stroke-linecap="round" stroke-linejoin="round"/>
<path d="M191.889 56.687C167.647 56.687 176.042 88.2746 176.042 88.2746C176.042 83.6383 178.182 79.0021 177.647 76.9132C177.112 74.8244 178.671 69.0775 178.671 69.0775C182.613 66.1996 187.189 64.6087 191.889 64.482C196.482 64.5616 200.953 66.1599 204.744 69.0775C204.744 69.0775 206.312 74.8346 205.768 76.9132C205.224 78.9919 207.373 83.6383 207.382 88.2746C207.382 88.3051 216.139 56.687 191.889 56.687Z" fill="#263238"/>
<path d="M205.923 65.1237C204.78 62.9024 201.553 61.3841 199.051 61.3434C199.051 61.3434 198.688 61.0988 198.199 60.8135C197.428 59.6111 195.95 58.4597 193.14 58.2356C186.794 57.7465 187.338 55.3112 187.093 54.6387C186.848 53.9662 188.381 52.3562 188.381 52.3562H186.386C183.666 52.3562 183.938 56.6868 183.938 56.6868C181.971 55.1074 178.018 54.3737 178.018 54.3737C176.106 54.3737 174.664 56.6868 174.664 56.6868C177.284 56.9924 181.482 59.7436 181.482 59.7436C178.374 58.9371 175.143 58.9371 172.035 59.7436C169.315 63.3813 170.004 65.1237 170.004 65.1237C172.439 64.4694 174.921 64.0635 177.42 63.9111C173.994 65.0354 170.842 67.027 168.207 69.7329C165.571 72.4389 163.522 75.7874 162.217 79.5215C162.217 79.5215 162.698 85.6352 163.051 84.5449C163.754 81.0098 165.343 77.7747 167.629 75.2215C165.273 80.9184 163.963 87.0904 163.776 93.3691L165.444 97.0169C165.444 97.0169 168.472 74.5286 178.191 68.7206C177.029 70.4903 176.219 72.5195 175.816 74.6713L179.668 73.6523C180.575 69.1078 183.966 67.3144 186.921 66.591C188.544 66.377 190.049 66.1936 190.937 66.0917H191.68C190.212 67.5182 186.123 67.4978 186.123 67.4978L184.736 69.332C189.033 70.5139 193.203 68.4557 195.923 66.5604C195.497 67.4319 194.983 68.2456 194.391 68.9855L196.784 69.6886C197.687 69.0066 198.375 68.0227 198.752 66.8763C200.379 67.414 201.873 68.3682 203.118 69.664C204.362 70.9599 205.322 72.5622 205.923 74.3452C208.144 81.5594 208.171 69.5154 205.923 65.1237Z" fill="#263238"/>
<path d="M142.001 124.08C144.539 119.444 156.234 122.043 158.156 118.415C160.078 114.788 166.061 113.901 168.572 113.901C171.083 113.901 192.442 118.537 192.442 118.537C192.442 118.537 214.2 113.901 216.384 113.901C218.569 113.901 225.776 120.952 225.776 120.952C225.776 120.952 239.049 122.776 240.662 124.08C242.276 125.385 239.221 132.64 235.993 136.878C232.766 141.117 219.331 146.508 219.331 146.508L215.36 195.988H171.754L164.955 145.04C164.955 145.04 134.231 138.295 142.001 124.08Z" fill="#1DCF9F" stroke="#263238" stroke-width="0.590139" stroke-linecap="round" stroke-linejoin="round"/>
<path d="M146.615 133.975C145.5 133.528 144.541 132.696 143.874 131.597C143.208 130.498 142.869 129.19 142.907 127.861C142.907 123.041 145.482 128.401 149.035 128.401C152.589 128.401 156.75 128.146 157.63 129.043C158.509 129.94 162.335 136.593 163.142 137.806C163.948 139.018 167.058 140.628 166.695 141.708C166.333 142.788 151.474 141.678 146.615 133.975Z" fill="#263238"/>
<path d="M161.582 137.908C161.582 137.908 157.956 129.44 155.354 129.44H148.102C148.102 129.44 142.01 141.128 140.849 142.748C139.689 144.368 134.258 145.56 132.482 147.781C130.705 150.003 119.735 179.766 119.735 179.766L132.482 182.579C132.482 182.579 149.543 162.903 149.543 159.275C149.543 155.648 161.582 137.908 161.582 137.908Z" fill="white" stroke="#263238" stroke-width="0.590139" stroke-linecap="round" stroke-linejoin="round"/>
<path d="M217.01 143.002C218.497 144.979 227.408 141.474 229.321 139.599C231.234 137.724 239.792 128.89 239.792 125.874C239.792 122.858 236.32 128.717 232.938 128.717C229.557 128.717 225.359 128.176 224.208 129.471C223.057 130.765 215.931 141.576 217.01 143.002Z" fill="#263238"/>
<path d="M220.391 137.908C220.391 137.908 224.018 129.44 226.619 129.44H233.872C233.872 129.44 239.964 141.128 241.124 142.748C242.285 144.368 247.706 145.56 249.483 147.781C251.26 150.003 262.229 179.766 262.229 179.766L249.483 182.579C249.483 182.579 232.43 162.903 232.43 159.275C232.43 155.648 220.391 137.908 220.391 137.908Z" fill="white" stroke="#263238" stroke-width="0.590139" stroke-linecap="round" stroke-linejoin="round"/>
<path d="M164.937 145.03C165.666 145.225 166.433 145.119 167.098 144.732C167.764 144.345 168.284 143.702 168.563 142.921C169.705 140.058 165.698 131.468 166.206 130.123C166.714 128.778 168.753 124.396 167.548 119.23" stroke="#263238" stroke-width="0.590139" stroke-linecap="round" stroke-linejoin="round"/>
<path d="M219.331 146.507C215.985 145.967 215.269 144.969 215.025 143.593C214.78 142.218 216.339 129.98 215.741 129.44C215.142 128.9 212.849 120.84 213.166 119.25" stroke="#263238" stroke-width="0.590139" stroke-linecap="round" stroke-linejoin="round"/>
<path d="M175.634 162.903C176.912 161.955 193.629 150.675 201.707 148.637" stroke="#263238" stroke-width="0.590139" stroke-linecap="round" stroke-linejoin="round"/>
<path d="M183.974 119.261C183.974 119.261 195.986 120.198 200.637 119.261" stroke="#263238" stroke-width="0.590139" stroke-linecap="round" stroke-linejoin="round"/>
<path d="M282.863 290.679C277.849 292.717 273.19 315.674 272.664 329.206C272.138 342.737 260.28 337.439 251.16 333.006C242.04 328.574 221.189 344.704 199.676 347.975C178.164 351.246 172.769 328.982 156.841 329.165C140.913 329.348 105.693 331.356 101.042 323.296C96.3913 315.236 101.758 303.936 100.326 291.851C98.8934 279.766 84.9141 289.028 78.0786 276.842C71.8052 265.633 77.0995 243.298 82.7565 244.337C83.2863 244.449 83.7803 244.716 84.1889 245.112C90.2719 250.787 109.283 239.049 108.222 229.827C107.161 220.606 156.841 194.531 156.841 194.531C156.841 194.531 226.112 195.682 227.272 201.796C228.433 207.91 250.952 217.355 261.314 218.374C271.676 219.393 273.19 250.41 275.094 253.019C276.68 255.22 287.976 261.17 292.536 268.863C293.444 270.315 294.062 271.969 294.349 273.714C295.781 283.771 287.894 288.672 282.863 290.679Z" fill="#1DCF9F" stroke="#263238" stroke-width="0.590139" stroke-linecap="round" stroke-linejoin="round"/>
<path d="M282.863 290.679C277.849 292.717 273.19 315.674 272.664 329.206C272.138 342.738 260.28 337.439 251.16 333.007C242.04 328.574 221.189 344.704 199.676 347.975C178.164 351.246 172.769 328.982 156.841 329.165C140.913 329.349 105.693 331.356 101.042 323.296C96.3913 315.236 101.758 303.936 100.326 291.851C98.8934 279.766 84.9141 289.029 78.0786 276.842C71.8052 265.633 77.0995 243.298 82.7565 244.337C85.1317 247.985 94.5419 263.005 98.8481 268.792C103.508 274.967 127.632 254.883 132.545 259.245C137.459 263.606 184.219 286.308 194.618 284.066C205.016 281.825 224.852 271.319 234.76 274.549C244.669 277.779 242.321 302.774 261.685 290.679C281.05 278.584 284.667 261.955 292.509 268.864C293.417 270.315 294.035 271.969 294.322 273.714C295.781 283.771 287.894 288.672 282.863 290.679Z" fill="#263238"/>
<path d="M189.514 340.618L191.227 377.433H199.323L206.457 340.659C206.457 340.659 201.091 337.775 198.181 337.775C196.748 337.775 189.514 340.618 189.514 340.618Z" fill="white" stroke="#263238" stroke-width="0.590139" stroke-linecap="round" stroke-linejoin="round"/>
<path d="M193.394 396.63C189.922 396.457 187.048 392.992 186.93 391.81C186.657 388.722 186.048 385.683 185.117 382.762C183.548 377.148 188.661 371.452 188.661 371.452C189.052 369.44 189.292 367.395 189.378 365.338C189.378 363.147 194.899 360.192 198.09 361.435C201.281 362.679 201.834 364.961 202.459 365.756C203.085 366.551 202.459 372.685 202.459 372.685C204.173 374.953 205.173 377.793 205.306 380.765C205.306 385.289 204.191 385.921 202.233 389.069C200.275 392.218 198.733 396.895 193.394 396.63Z" fill="#A6F1DD" stroke="#263238" stroke-width="0.590139" stroke-linecap="round" stroke-linejoin="round"/>
<path d="M187.429 391.627C187.982 383.302 183.267 380.419 188.816 377.362C194.364 374.305 201.925 374.366 204.227 379.4C206.53 384.433 199.042 393.848 199.042 393.848C197.278 395.186 195.173 395.834 193.049 395.693C189.65 395.458 187.429 391.627 187.429 391.627Z" fill="#263238"/>
<path d="M188.68 371.451C188.68 371.451 192.514 368.568 196.177 369.658C199.84 370.748 201.281 370.82 202.523 372.715" stroke="#263238" stroke-width="0.590139" stroke-linecap="round" stroke-linejoin="round"/>
<path d="M187.22 375.976C189.88 374.046 193.017 373.118 196.177 373.326C201.018 373.866 202.895 375.364 202.895 375.364" stroke="#263238" stroke-width="0.590139" stroke-linecap="round" stroke-linejoin="round"/>
<path d="M192.134 367.559C192.134 367.559 192.832 363.392 191.59 362.668" stroke="#263238" stroke-width="0.590139" stroke-linecap="round" stroke-linejoin="round"/>
<path d="M199.568 368.497C199.568 368.497 199.658 362.699 201.154 363.677" stroke="#263238" stroke-width="0.590139" stroke-linecap="round" stroke-linejoin="round"/>
<path d="M191.173 365.114C192.69 364.11 194.416 363.576 196.177 363.565C197.069 363.595 197.946 363.83 198.755 364.254C199.564 364.678 200.288 365.282 200.882 366.031" stroke="#263238" stroke-width="0.590139" stroke-linecap="round" stroke-linejoin="round"/>
<path d="M190.756 366.774C192.486 366.315 194.255 366.066 196.032 366.031C197.77 366.116 199.452 366.752 200.882 367.865" stroke="#263238" stroke-width="0.590139" stroke-linecap="round" stroke-linejoin="round"/>
<path opacity="0.2" d="M187.982 381.499C187.982 381.499 198.244 381.356 202.133 382.212" stroke="white" stroke-width="0.590139" stroke-linecap="round" stroke-linejoin="round"/>
<path opacity="0.2" d="M188.399 385.574C188.399 385.574 197.274 385.401 201.154 386.338" stroke="white" stroke-width="0.590139" stroke-linecap="round" stroke-linejoin="round"/>
<path opacity="0.2" d="M189.097 388.753C189.097 388.753 198.217 389.772 199.069 389.691" stroke="white" stroke-width="0.590139" stroke-linecap="round" stroke-linejoin="round"/>
<path opacity="0.2" d="M189.858 392.269C189.858 392.269 194.599 392.962 196.204 392.962" stroke="white" stroke-width="0.590139" stroke-linecap="round" stroke-linejoin="round"/>
<path d="M169.47 323.653L178.1 351.165C178.1 351.165 180.004 357.125 179.469 361.211C178.934 365.297 179.342 373.592 183.603 372.96C187.864 372.328 185.761 363.474 187.093 359.897C188.426 356.32 186.83 351.297 185.724 349.85C184.618 348.403 185.407 336.125 184.056 329.889C182.705 323.653 169.47 323.653 169.47 323.653Z" fill="#263238"/>
<path d="M243.98 323.051L254.759 218.782L127.686 220.738L128.447 321.421L243.98 323.051Z" fill="#A6F1DD"/>
<path opacity="0.5" d="M243.98 323.052L254.759 218.782L127.686 220.739L128.447 321.421L243.98 323.052Z" fill="black" fill-opacity="0.7"/>
<path opacity="0.4" d="M128.447 286.777L143.85 290.262V311.619H233.654L236.691 292.575H246.437L254.759 218.782L127.686 220.739L128.447 286.777Z" fill="black" fill-opacity="0.7"/>
<path d="M243.98 323.051L254.759 218.782L127.686 220.738L128.447 321.421L243.98 323.051Z" stroke="#263238" stroke-width="0.590139" stroke-linecap="round" stroke-linejoin="round"/>
<path d="M140.305 167.233C140.305 167.233 139.399 156.249 150.278 153.447C161.156 150.644 161.492 161.14 161.492 161.14" stroke="#263238" stroke-width="1.18028" stroke-linecap="round" stroke-linejoin="round"/>
<path d="M115.755 268.547L120.887 246.436L118.693 167.742L177.42 154.251L203.883 224.427L216.765 242.697L207.799 260.172L137.794 276.882L115.755 268.547Z" fill="#A6F1DD"/>
<path opacity="0.3" d="M216.765 242.697L207.799 260.172L137.785 276.883L115.755 268.548L115.855 268.13L120.007 250.207L120.877 246.436L120.805 243.767L118.693 167.743L177.42 154.252L183.394 170.096L203.883 224.427L216.765 242.697Z" fill="black" fill-opacity="0.7"/>
<path d="M154.275 175.517L157.33 173.999L159.642 176.72L162.933 176.098L164.574 179.379L167.901 179.705L168.762 183.333L171.917 184.576L171.944 188.336L174.727 190.425L173.921 194.072L176.151 196.875L174.573 200.176L176.105 203.518L173.839 206.279L174.601 209.938L171.79 211.975L171.709 215.735L168.545 216.928L167.629 220.535L164.302 220.81L162.616 224.06L159.334 223.388L156.986 226.068L153.949 224.498L151.084 226.434L148.491 224.06L145.282 225.14L143.297 222.114L139.961 222.267L138.701 218.782L135.437 217.987L134.984 214.268L131.992 212.587L132.382 208.857L129.862 206.392L131.058 202.886L129.163 199.799L131.104 196.742L129.943 193.217L132.5 190.791L132.164 187.052L135.174 185.422L135.673 181.713L138.945 180.969L140.251 177.514L143.596 177.718L145.618 174.733L148.809 175.864L151.438 173.541L154.275 175.517Z" fill="#263238"/>
<path d="M143.097 198.841C142.834 197.445 142.336 197.17 141.647 197.333C140.958 197.496 140.613 198.016 140.813 199.116L141.003 200.135L138.963 200.614L138.809 199.779C138.347 197.313 139.181 195.642 141.293 195.143C143.406 194.643 144.775 195.795 145.237 198.261L145.309 198.658C145.618 200.309 145.309 201.429 144.403 202.163C145.581 202.438 146.216 203.467 146.515 205.026L146.742 206.239C147.204 208.705 146.37 210.376 144.249 210.875C142.127 211.374 140.768 210.223 140.314 207.757L140.069 206.473L142.109 205.994L142.381 207.431C142.581 208.532 143.097 208.847 143.777 208.684C144.457 208.521 144.829 208.053 144.575 206.647L144.348 205.444C144.076 204.007 143.551 203.579 142.535 203.814L141.81 203.987L141.393 201.776L142.236 201.582C143.043 201.389 143.46 200.879 143.224 199.646L143.097 198.841Z" fill="white"/>
<path d="M146.515 197.945C146.053 195.468 146.941 193.787 149.063 193.288C151.184 192.789 152.598 193.93 153.061 196.345L154.556 204.364C155.019 206.83 154.121 208.511 152.009 209.01C149.897 209.51 148.464 208.379 148.011 205.953L146.515 197.945ZM150.196 205.607C150.395 206.708 150.903 207.023 151.592 206.86C152.281 206.697 152.635 206.178 152.426 205.077L150.876 196.752C150.667 195.652 150.16 195.326 149.471 195.489C148.782 195.652 148.437 196.172 148.637 197.272L150.196 205.607Z" fill="white"/>
<path d="M154.058 194.755C153.938 194.136 154.041 193.489 154.345 192.956C154.65 192.423 155.13 192.047 155.681 191.912C156.231 191.777 156.807 191.893 157.281 192.235C157.756 192.577 158.09 193.117 158.21 193.736L159.116 198.831C159.176 199.137 159.181 199.454 159.132 199.762C159.083 200.071 158.98 200.366 158.829 200.63C158.678 200.894 158.483 201.122 158.254 201.301C158.025 201.48 157.766 201.607 157.494 201.674C157.221 201.741 156.939 201.746 156.665 201.691C156.39 201.636 156.128 201.52 155.893 201.35C155.658 201.181 155.455 200.961 155.296 200.704C155.137 200.446 155.024 200.156 154.964 199.85L154.058 194.755ZM156.397 199.605C156.524 200.288 156.832 200.512 157.303 200.41C157.775 200.308 157.956 199.952 157.829 199.269L156.841 193.981C156.714 193.298 156.388 193.084 155.934 193.186C155.481 193.288 155.282 193.634 155.409 194.317L156.397 199.605ZM161.129 190.587L162.407 190.282L159.869 206.982L158.6 207.288L161.129 190.587ZM161.936 198.739C161.866 198.428 161.853 198.104 161.897 197.787C161.941 197.47 162.041 197.166 162.192 196.894C162.342 196.621 162.54 196.385 162.773 196.2C163.006 196.015 163.27 195.885 163.549 195.816C163.827 195.748 164.116 195.743 164.396 195.803C164.677 195.862 164.944 195.984 165.181 196.162C165.419 196.339 165.623 196.569 165.78 196.836C165.937 197.104 166.045 197.405 166.097 197.72L167.004 202.815C167.073 203.126 167.086 203.45 167.042 203.767C166.998 204.084 166.898 204.387 166.748 204.66C166.597 204.933 166.4 205.169 166.167 205.354C165.933 205.539 165.67 205.669 165.391 205.738C165.112 205.806 164.824 205.811 164.543 205.751C164.263 205.692 163.996 205.57 163.758 205.392C163.52 205.215 163.317 204.985 163.159 204.717C163.002 204.45 162.894 204.149 162.842 203.834L161.936 198.739ZM164.275 203.589C164.402 204.272 164.71 204.506 165.181 204.394C165.653 204.282 165.834 203.946 165.707 203.263L164.719 197.975C164.592 197.292 164.266 197.068 163.812 197.17C163.359 197.272 163.16 197.618 163.287 198.301L164.275 203.589Z" fill="white"/>
<path opacity="0.2" d="M216.765 242.697L207.799 260.172L137.785 276.883L115.755 268.548L115.855 268.13L135.12 263.596L120.007 250.207L120.877 246.436L120.805 243.767L157.856 224.172L183.394 170.096L203.883 224.427L216.765 242.697Z" fill="black" fill-opacity="0.7"/>
<path d="M115.755 268.547L120.887 246.436L118.693 167.742L177.42 154.251L203.883 224.427L216.765 242.697L207.799 260.172L137.794 276.882L115.755 268.547Z" stroke="#263238" stroke-width="0.590139" stroke-linecap="round" stroke-linejoin="round"/>
<path d="M115.755 268.548L212.803 243.757" stroke="#263238" stroke-width="0.590139" stroke-linecap="round" stroke-linejoin="round"/>
<path d="M137.014 165.98C137.014 165.98 130.714 150.583 141.13 145.784C151.547 140.985 157.557 149.86 157.33 160.865" stroke="#263238" stroke-width="1.18028" stroke-linecap="round" stroke-linejoin="round"/>
<path d="M124.395 268.344L143.433 268.945L138.202 274.305" stroke="#263238" stroke-width="0.590139" stroke-linecap="round" stroke-linejoin="round"/>
<path d="M147.576 268.099L199.223 256.259L208.751 247.354" stroke="#263238" stroke-width="0.590139" stroke-linecap="round" stroke-linejoin="round"/>
<path d="M199.223 256.269L205.37 258.317" stroke="#263238" stroke-width="0.590139" stroke-linecap="round" stroke-linejoin="round"/>
<path d="M120.878 246.436L196.549 226.781" stroke="#263238" stroke-width="0.590139" stroke-linecap="round" stroke-linejoin="round"/>
<path d="M229.176 167.967C229.176 167.967 233.654 158.154 244.152 162.312C254.65 166.469 249.945 175.558 249.945 175.558" stroke="#263238" stroke-width="1.18028" stroke-linecap="round" stroke-linejoin="round"/>
<path d="M160.141 238.702L175.018 223.133L210.691 155.372L266.699 179.369L255.575 254.547L257.742 277.728L241.841 287.082L174.764 259.02L160.141 238.702Z" fill="#A6F1DD"/>
<path opacity="0.2" d="M258.63 233.913L255.575 254.547L257.742 277.739L241.841 287.082L174.764 259.02L160.259 238.876L160.141 238.713L160.232 238.621L160.903 237.918L175.009 223.133L181.962 209.927L210.691 155.373L265.275 178.758L266.699 179.369L258.63 233.913Z" fill="black" fill-opacity="0.7"/>
<path d="M239.139 184.504L242.43 185.126L243.037 188.825L246.092 190.343L245.857 194.093L248.477 196.426L247.425 199.982L249.447 202.978L247.643 206.137L248.939 209.591L246.482 212.149L246.981 215.858L244.044 217.651L243.699 221.38L240.454 222.297L239.293 225.813L235.948 225.792L234.053 228.88L230.817 227.922L228.288 230.378L225.377 228.544L222.386 230.215L219.965 227.627L216.693 228.411L214.925 225.232L211.58 225.079L210.573 221.503L207.373 220.423L207.183 216.673L204.327 214.727L204.971 211.038L202.632 208.358L204.073 204.975L202.396 201.725L204.545 198.851L203.647 195.234L206.358 193.043L206.285 189.294L209.404 187.928L210.156 184.27L213.483 183.832L215.024 180.5L218.333 180.989L220.564 178.197L223.664 179.603L226.447 177.525L229.14 179.746L232.295 178.513L234.407 181.417L237.734 181.101L239.139 184.504Z" fill="#263238"/>
<path d="M214.082 202.489L213.601 203.844C213.239 204.863 213.51 205.454 214.163 205.739C214.816 206.025 215.36 205.831 215.723 204.782L216.856 201.562C217.218 200.543 216.955 199.931 216.303 199.646C215.65 199.361 215.097 199.575 214.734 200.665L214.58 201.103L212.64 200.247L215.985 191.902L221.425 194.297L220.691 196.386L217.064 194.806L215.704 198.189C216.004 197.923 216.364 197.756 216.743 197.705C217.122 197.655 217.506 197.724 217.853 197.904C219.358 198.566 219.711 200.105 218.95 202.255L217.808 205.526C216.992 207.869 215.478 208.756 213.456 207.859C211.434 206.962 210.872 205.169 211.697 202.825L212.123 201.603L214.082 202.489Z" fill="white"/>
<path d="M221.688 198.454C222.513 196.1 224.081 195.244 226.094 196.141C228.106 197.037 228.741 198.861 227.907 201.235L225.187 208.857C224.371 211.201 222.803 212.057 220.79 211.17C218.778 210.284 218.143 208.45 218.977 206.075L221.688 198.454ZM221.017 207.125C220.654 208.144 220.926 208.755 221.579 209.041C222.232 209.326 222.775 209.112 223.147 208.022L225.921 200.094C226.284 199.075 226.012 198.474 225.359 198.179C224.706 197.883 224.163 198.107 223.791 199.198L221.017 207.125Z" fill="white"/>
<path d="M237.462 201.368L238.677 201.908L228.396 214.289L227.181 213.759L237.462 201.368ZM229.557 200.461C229.641 200.144 229.783 199.849 229.974 199.596C230.164 199.344 230.4 199.138 230.665 198.993C230.93 198.848 231.219 198.766 231.513 198.752C231.808 198.739 232.102 198.795 232.376 198.916C232.651 199.037 232.9 199.221 233.108 199.455C233.316 199.69 233.479 199.971 233.585 200.28C233.692 200.589 233.74 200.92 233.727 201.251C233.714 201.582 233.64 201.906 233.509 202.204L231.823 207.023C231.739 207.341 231.597 207.636 231.406 207.888C231.216 208.141 230.98 208.347 230.715 208.492C230.45 208.637 230.161 208.719 229.866 208.732C229.572 208.746 229.278 208.69 229.003 208.569C228.729 208.448 228.48 208.264 228.272 208.029C228.064 207.794 227.901 207.514 227.795 207.205C227.688 206.895 227.64 206.565 227.653 206.234C227.666 205.903 227.74 205.578 227.87 205.281L229.557 200.461ZM229.14 205.964C228.913 206.616 229.058 206.983 229.484 207.176C229.91 207.37 230.255 207.176 230.481 206.555L232.24 201.531C232.467 200.879 232.304 200.512 231.896 200.308C231.488 200.105 231.125 200.308 230.898 200.93L229.14 205.964ZM234.144 208.684C234.231 208.37 234.375 208.079 234.566 207.829C234.758 207.58 234.993 207.378 235.258 207.236C235.522 207.093 235.81 207.014 236.103 207.002C236.396 206.99 236.687 207.047 236.96 207.168C237.233 207.288 237.48 207.471 237.687 207.705C237.894 207.938 238.056 208.217 238.163 208.524C238.269 208.831 238.318 209.159 238.307 209.488C238.296 209.817 238.224 210.14 238.097 210.437L236.41 215.246C236.326 215.564 236.184 215.859 235.993 216.111C235.803 216.364 235.567 216.57 235.302 216.715C235.037 216.86 234.748 216.942 234.454 216.955C234.159 216.969 233.865 216.913 233.591 216.792C233.316 216.671 233.067 216.487 232.859 216.252C232.651 216.017 232.488 215.737 232.382 215.427C232.275 215.118 232.227 214.788 232.24 214.457C232.253 214.126 232.327 213.801 232.458 213.504L234.144 208.684ZM233.727 214.187C233.5 214.839 233.645 215.206 234.08 215.399C234.516 215.593 234.842 215.399 235.069 214.778L236.827 209.754C237.054 209.102 236.891 208.735 236.483 208.531C236.075 208.328 235.712 208.531 235.486 209.153L233.727 214.187Z" fill="white"/>
<path opacity="0.2" d="M255.575 254.547L257.742 277.739L241.841 287.082L174.764 259.02L160.141 238.713L175.009 223.133L181.962 209.927L265.275 178.758L266.699 179.369L255.575 254.547Z" fill="black" fill-opacity="0.7"/>
<path opacity="0.2" d="M255.593 254.547L257.76 277.739L241.859 287.083L174.773 259.021L160.268 238.876V238.621C160.213 237.979 160.177 237.602 160.177 237.602L160.939 237.898L253.925 274.284L187.256 226.76L258.667 233.893L255.593 254.547Z" fill="black" fill-opacity="0.7"/>
<path d="M160.141 238.702L175.018 223.133L210.691 155.372L266.699 179.369L255.575 254.547L257.742 277.728L241.841 287.082L174.764 259.02L160.141 238.702Z" stroke="#263238" stroke-width="0.590139" stroke-linecap="round" stroke-linejoin="round"/>
<path d="M160.141 238.702L253.889 276.241" stroke="#263238" stroke-width="0.590139" stroke-linecap="round" stroke-linejoin="round"/>
<path d="M227 164.92C227 164.92 229.022 148.128 240.1 150.359C251.178 152.591 252.003 163.728 246.591 172.848" stroke="#263238" stroke-width="1.18028" stroke-linecap="round" stroke-linejoin="round"/>
<path d="M167.539 243.746L183.313 255.709L176.341 257.084" stroke="#263238" stroke-width="0.590139" stroke-linecap="round" stroke-linejoin="round"/>
<path d="M187.22 257.502L236.465 278.625L248.758 276.832" stroke="#263238" stroke-width="0.590139" stroke-linecap="round" stroke-linejoin="round"/>
<path d="M236.465 278.625L240.671 284.066" stroke="#263238" stroke-width="0.590139" stroke-linecap="round" stroke-linejoin="round"/>
<path d="M175.009 223.133L248.268 252.112" stroke="#263238" stroke-width="0.590139" stroke-linecap="round" stroke-linejoin="round"/>
<path d="M166.26 224.213C166.26 224.213 167.067 213.219 178.182 212.567C189.296 211.914 188.036 222.328 188.036 222.328" stroke="#263238" stroke-width="1.18028" stroke-linecap="round" stroke-linejoin="round"/>
<path d="M229.919 313.392L218.388 328.849L146.869 331.662L126.453 319.159L126.634 318.721L134.911 298.383L144.892 220.453L204.817 218.619L210.773 247.649L220.047 292.89L229.883 313.31L229.919 313.392Z" fill="#A6F1DD"/>
<path opacity="0.2" d="M229.919 313.392L218.388 328.849L146.869 331.662L126.453 319.159L126.634 318.721L229.883 313.31L229.919 313.392Z" fill="black" fill-opacity="0.7"/>
<path d="M181.636 236.909L184.881 236.033L186.722 239.171L190.058 239.242L191.146 242.788L194.364 243.787L194.627 247.537L197.528 249.401L196.957 253.1L199.35 255.719L197.981 259.143L199.722 262.352L197.628 265.287L198.607 268.874L195.932 271.136L196.086 274.885L193.004 276.322L192.315 280.001L189.006 280.53L187.537 283.903L184.21 283.485L182.035 286.338L178.907 285.014L176.169 287.164L173.44 285.014L170.313 286.328L168.137 283.475L164.819 283.883L163.341 280.51L160.041 279.97L159.361 276.292L156.27 274.855L156.433 271.095L153.759 268.843L154.738 265.246L152.662 262.312L154.402 259.112L153.034 255.688L155.427 253.07L154.865 249.371L157.766 247.506L158.029 243.767L161.256 242.768L162.344 239.222L165.689 239.161L167.52 236.023L170.775 236.899L173.25 234.372L176.205 236.135L179.161 234.382L181.636 236.909Z" fill="#263238"/>
<path d="M169.025 253.63L169.08 255.79L166.133 269.485L163.93 269.546L166.859 255.943L162.471 256.076L162.417 253.824L169.025 253.63Z" fill="white"/>
<path d="M170.376 257.38C170.322 254.863 171.473 253.386 173.631 253.304C175.788 253.223 177.012 254.649 177.067 257.176L177.248 265.328C177.302 267.845 176.151 269.322 173.993 269.404C171.836 269.485 170.612 268.048 170.558 265.532L170.376 257.38ZM172.761 265.664C172.761 266.795 173.241 267.213 173.939 267.192C174.637 267.172 175.072 266.734 175.045 265.603L174.855 257.095C174.855 255.974 174.383 255.556 173.685 255.576C172.987 255.597 172.552 256.035 172.579 257.156L172.761 265.664Z" fill="white"/>
<path d="M178.354 255.801C178.347 255.487 178.396 255.176 178.496 254.884C178.597 254.592 178.748 254.325 178.94 254.098C179.132 253.872 179.363 253.69 179.618 253.563C179.872 253.437 180.147 253.368 180.426 253.36C180.704 253.353 180.981 253.407 181.241 253.52C181.501 253.633 181.739 253.803 181.94 254.019C182.142 254.235 182.304 254.494 182.416 254.78C182.529 255.067 182.59 255.375 182.597 255.689L182.715 260.865C182.721 261.178 182.673 261.489 182.572 261.782C182.472 262.074 182.321 262.341 182.129 262.567C181.936 262.794 181.706 262.976 181.451 263.102C181.196 263.229 180.922 263.298 180.643 263.305C180.365 263.313 180.087 263.258 179.828 263.145C179.568 263.032 179.33 262.863 179.128 262.646C178.927 262.43 178.765 262.172 178.652 261.885C178.54 261.599 178.478 261.29 178.472 260.977L178.354 255.801ZM179.877 261.048C179.877 261.751 180.158 262.067 180.611 262.067C181.065 262.067 181.328 261.751 181.319 261.048L181.192 255.648C181.192 254.955 180.892 254.629 180.448 254.629C180.004 254.629 179.741 254.945 179.75 255.648L179.877 261.048ZM185.951 253.182H187.247L182.071 269.047H180.775L185.951 253.182ZM185.434 261.334C185.428 261.02 185.476 260.709 185.577 260.417C185.677 260.125 185.828 259.858 186.02 259.631C186.213 259.404 186.443 259.223 186.698 259.096C186.953 258.969 187.227 258.9 187.506 258.893C187.784 258.886 188.062 258.94 188.321 259.053C188.581 259.166 188.819 259.336 189.02 259.552C189.222 259.768 189.384 260.027 189.496 260.313C189.609 260.6 189.67 260.908 189.677 261.221L189.786 266.398C189.792 266.711 189.744 267.022 189.643 267.314C189.543 267.607 189.392 267.874 189.2 268.1C189.007 268.327 188.777 268.509 188.522 268.635C188.267 268.762 187.993 268.831 187.714 268.838C187.436 268.845 187.159 268.791 186.899 268.678C186.639 268.565 186.401 268.396 186.2 268.179C185.998 267.963 185.836 267.704 185.724 267.418C185.611 267.132 185.55 266.823 185.543 266.51L185.434 261.334ZM186.948 266.591C186.948 267.284 187.229 267.61 187.692 267.559C188.154 267.508 188.408 267.243 188.39 266.54L188.272 261.14C188.272 260.437 187.973 260.121 187.528 260.121C187.084 260.121 186.812 260.437 186.83 261.14L186.948 266.591Z" fill="white"/>
<path opacity="0.2" d="M220.047 292.89L138.819 298.383L210.773 247.649L220.047 292.89Z" fill="black" fill-opacity="0.7"/>
<path d="M229.919 313.392L218.388 328.849L146.869 331.662L126.453 319.159L126.634 318.721L134.911 298.383L144.892 220.453L204.817 218.619L210.773 247.649L220.047 292.89L229.883 313.31L229.919 313.392Z" stroke="#263238" stroke-width="0.590139" stroke-linecap="round" stroke-linejoin="round"/>
<path d="M126.453 319.159L225.849 313.656" stroke="#263238" stroke-width="0.590139" stroke-linecap="round" stroke-linejoin="round"/>
<path d="M163.214 222.287C163.214 222.287 159.388 205.872 170.376 203.212C181.364 200.553 185.915 210.467 183.975 221.217" stroke="#263238" stroke-width="1.18028" stroke-linecap="round" stroke-linejoin="round"/>
<path d="M134.993 320.646L153.65 324.946L147.667 329.206" stroke="#263238" stroke-width="0.590139" stroke-linecap="round" stroke-linejoin="round"/>
<path d="M157.856 324.926L210.546 323.337L221.307 316.408" stroke="#263238" stroke-width="0.590139" stroke-linecap="round" stroke-linejoin="round"/>
<path d="M210.555 323.337L216.294 326.557" stroke="#263238" stroke-width="0.590139" stroke-linecap="round" stroke-linejoin="round"/>
<path d="M134.911 298.383L212.468 293.777" stroke="#263238" stroke-width="0.590139" stroke-linecap="round" stroke-linejoin="round"/>
<path d="M257.388 323.245H125.066L110.225 182.579H272.229L257.388 323.245Z" stroke="#263238" stroke-width="1.77042" stroke-linecap="round" stroke-linejoin="round"/>
<path d="M144.612 323.245L134.159 182.579H248.296L237.843 323.245" stroke="#263238" stroke-width="1.77042" stroke-linecap="round" stroke-linejoin="round"/>
<path d="M166.505 323.245L160.957 182.579H221.497L215.949 323.245" stroke="#263238" stroke-width="1.77042" stroke-linecap="round" stroke-linejoin="round"/>
<path d="M191.227 182.579V323.245" stroke="#263238" stroke-width="1.77042" stroke-linecap="round" stroke-linejoin="round"/>
<path d="M274.105 175.497H108.358C106.701 175.497 105.357 177.007 105.357 178.87V182.171C105.357 184.034 106.701 185.544 108.358 185.544H274.105C275.763 185.544 277.106 184.034 277.106 182.171V178.87C277.106 177.007 275.763 175.497 274.105 175.497Z" fill="#A6F1DD" stroke="#263238" stroke-width="0.590139" stroke-linecap="round" stroke-linejoin="round"/>
<path d="M113.28 210.671H269.174" stroke="#263238" stroke-width="1.77042" stroke-linecap="round" stroke-linejoin="round"/>
<path d="M116.771 239.731H265.683" stroke="#263238" stroke-width="1.77042" stroke-linecap="round" stroke-linejoin="round"/>
<path d="M119.962 268.782H262.492" stroke="#263238" stroke-width="1.77042" stroke-linecap="round" stroke-linejoin="round"/>
<path d="M122.818 297.842H259.636" stroke="#263238" stroke-width="1.77042" stroke-linecap="round" stroke-linejoin="round"/>
<path d="M123.615 365.338H116.508C116.118 365.338 115.732 365.424 115.371 365.593C115.011 365.761 114.684 366.007 114.409 366.317C114.133 366.628 113.915 366.996 113.767 367.402C113.618 367.807 113.542 368.242 113.543 368.68V384.382C113.543 387.205 115.538 388.917 116.073 386.553L119.699 370.555C119.827 369.974 120.124 369.458 120.542 369.088C120.961 368.719 121.478 368.518 122.011 368.517H124.35V384.362C124.35 387.184 126.344 388.896 126.879 386.532L130.215 371.727C130.42 370.832 130.334 369.884 129.972 369.054C129.609 368.224 128.995 367.567 128.239 367.203L125.002 365.633C124.562 365.432 124.091 365.331 123.615 365.338V365.338Z" fill="#263238"/>
<path d="M114.894 373.928C112.51 373.928 110.579 379.42 110.579 386.155C110.579 392.89 112.51 398.383 114.894 398.383H124.332V373.928H114.894Z" fill="#757575" stroke="#263238" stroke-width="0.590139" stroke-linecap="round" stroke-linejoin="round"/>
<path d="M124.332 398.454C126.71 398.454 128.638 392.966 128.638 386.196C128.638 379.426 126.71 373.938 124.332 373.938C121.953 373.938 120.025 379.426 120.025 386.196C120.025 392.966 121.953 398.454 124.332 398.454Z" fill="#999999" stroke="#263238" stroke-width="0.590139" stroke-linecap="round" stroke-linejoin="round"/>
<path d="M127.396 386.227C127.396 389.609 126.435 392.34 125.238 392.34C124.041 392.34 123.081 389.599 123.081 386.227C123.081 382.854 124.051 380.113 125.238 380.113C126.426 380.113 127.396 382.803 127.396 386.227Z" fill="#263238"/>
<path d="M128.221 367.223L124.984 365.654C124.551 365.448 124.086 365.34 123.615 365.338H121.349V368.66C121.557 368.583 121.774 368.542 121.993 368.537H124.332V384.382C124.332 387.205 126.326 388.916 126.861 386.552L130.197 371.747C130.402 370.852 130.316 369.904 129.953 369.074C129.591 368.244 128.976 367.588 128.221 367.223V367.223Z" fill="#263238"/>
<path d="M120.642 357.543V366.54L126.235 367.437L127.396 358.44C127.396 358.44 125.954 357.543 120.642 357.543Z" fill="#263238"/>
<path d="M258.839 365.338H265.946C266.336 365.338 266.723 365.424 267.083 365.593C267.443 365.761 267.77 366.007 268.046 366.317C268.321 366.628 268.539 366.996 268.688 367.402C268.836 367.807 268.912 368.242 268.911 368.68V384.382C268.911 387.205 266.916 388.917 266.381 386.553L262.755 370.555C262.628 369.974 262.331 369.458 261.912 369.088C261.493 368.719 260.976 368.518 260.443 368.517H258.105V384.362C258.105 387.184 256.11 388.896 255.575 386.532L252.239 371.727C252.034 370.832 252.12 369.884 252.483 369.054C252.845 368.224 253.46 367.567 254.215 367.203L257.452 365.633C257.892 365.432 258.364 365.331 258.839 365.338V365.338Z" fill="#263238"/>
<path d="M267.56 373.928C269.944 373.928 271.875 379.42 271.875 386.155C271.875 392.89 269.944 398.383 267.56 398.383H258.122V373.928H267.56Z" fill="#757575" stroke="#263238" stroke-width="0.590139" stroke-linecap="round" stroke-linejoin="round"/>
<path d="M258.123 398.454C260.501 398.454 262.429 392.966 262.429 386.196C262.429 379.426 260.501 373.938 258.123 373.938C255.744 373.938 253.816 379.426 253.816 386.196C253.816 392.966 255.744 398.454 258.123 398.454Z" fill="#999999" stroke="#263238" stroke-width="0.590139" stroke-linecap="round" stroke-linejoin="round"/>
<path d="M255.058 386.227C255.058 389.609 256.019 392.34 257.216 392.34C258.413 392.34 259.374 389.599 259.374 386.227C259.374 382.854 258.404 380.113 257.216 380.113C256.028 380.113 255.058 382.803 255.058 386.227Z" fill="#263238"/>
<path d="M254.233 367.223L257.47 365.654C257.903 365.448 258.368 365.34 258.839 365.338H261.105V368.66C260.897 368.583 260.68 368.542 260.462 368.537H258.123V384.382C258.123 387.205 256.128 388.916 255.593 386.552L252.257 371.747C252.052 370.852 252.138 369.904 252.501 369.074C252.863 368.244 253.478 367.588 254.233 367.223Z" fill="#263238"/>
<path d="M261.812 357.543V366.54L256.219 367.437L255.058 358.44C255.058 358.44 256.5 357.543 261.812 357.543Z" fill="#263238"/>
<path d="M145.436 376.037H140.623C140.358 376.037 140.097 376.096 139.852 376.209C139.608 376.323 139.386 376.49 139.2 376.7C139.013 376.91 138.864 377.159 138.763 377.434C138.662 377.708 138.61 378.002 138.61 378.299V388.937C138.61 390.842 139.961 391.994 140.323 390.404L142.771 379.573C142.86 379.18 143.062 378.832 143.346 378.583C143.63 378.334 143.979 378.198 144.34 378.197H145.899V388.937C145.899 390.842 147.25 391.994 147.612 390.404L149.879 380.378C150.013 379.772 149.951 379.133 149.706 378.573C149.46 378.014 149.046 377.57 148.537 377.321L146.343 376.302C146.06 376.145 145.752 376.055 145.436 376.037V376.037Z" fill="#263238"/>
<path d="M139.553 381.845C137.939 381.845 136.634 385.564 136.634 390.15C136.634 394.735 137.912 398.454 139.553 398.454H145.899V381.845H139.553Z" fill="#263238"/>
<path d="M145.917 398.454C147.529 398.454 148.836 394.736 148.836 390.15C148.836 385.563 147.529 381.845 145.917 381.845C144.305 381.845 142.998 385.563 142.998 390.15C142.998 394.736 144.305 398.454 145.917 398.454Z" fill="#263238"/>
<path d="M147.993 390.15C147.993 392.442 147.34 394.297 146.533 394.297C145.726 394.297 145.074 392.442 145.074 390.15C145.074 387.857 145.726 386.002 146.533 386.002C147.34 386.002 147.993 387.857 147.993 390.15Z" fill="#263238"/>
<path d="M148.555 377.3L146.361 376.281C146.075 376.142 145.767 376.069 145.455 376.067H143.904V378.319C144.044 378.262 144.191 378.231 144.34 378.228H145.899V388.967C145.899 390.873 147.25 392.024 147.612 390.435L149.879 380.408C150.026 379.798 149.973 379.148 149.73 378.578C149.487 378.008 149.07 377.554 148.555 377.3V377.3Z" fill="#263238"/>
<path d="M143.424 370.749V376.862L147.213 377.463L147.993 371.35C147.993 371.35 147.032 370.749 143.424 370.749Z" fill="#263238"/>
<path d="M237.018 376.037H241.832C242.096 376.037 242.358 376.096 242.602 376.209C242.846 376.323 243.068 376.49 243.255 376.7C243.441 376.91 243.59 377.159 243.691 377.434C243.792 377.708 243.844 378.002 243.844 378.299V388.937C243.844 390.842 242.493 391.994 242.131 390.404L239.683 379.573C239.594 379.18 239.392 378.832 239.108 378.583C238.824 378.334 238.475 378.198 238.115 378.197H236.555V388.937C236.555 390.842 235.204 391.994 234.842 390.404L232.575 380.378C232.441 379.772 232.503 379.133 232.748 378.573C232.994 378.014 233.408 377.57 233.917 377.321L236.111 376.302C236.394 376.145 236.703 376.055 237.018 376.037V376.037Z" fill="#263238"/>
<path d="M242.901 381.845C244.515 381.845 245.82 385.564 245.82 390.15C245.82 394.735 244.542 398.454 242.901 398.454H236.555V381.845H242.901Z" fill="#263238"/>
<path d="M236.537 398.454C238.149 398.454 239.456 394.736 239.456 390.15C239.456 385.563 238.149 381.845 236.537 381.845C234.925 381.845 233.618 385.563 233.618 390.15C233.618 394.736 234.925 398.454 236.537 398.454Z" fill="#263238"/>
<path d="M234.461 390.15C234.461 392.442 235.114 394.297 235.921 394.297C236.728 394.297 237.38 392.442 237.38 390.15C237.38 387.857 236.728 386.002 235.921 386.002C235.114 386.002 234.461 387.857 234.461 390.15Z" fill="#263238"/>
<path d="M233.899 377.3L236.093 376.281C236.379 376.142 236.688 376.069 237 376.067H238.532V378.319C238.392 378.262 238.245 378.231 238.097 378.228H236.555V388.967C236.555 390.873 235.205 392.024 234.842 390.435L232.576 380.408C232.428 379.798 232.481 379.148 232.724 378.578C232.967 378.008 233.384 377.554 233.899 377.3V377.3Z" fill="#263238"/>
<path d="M239.039 370.749V376.862L235.241 377.463L234.461 371.35C234.461 371.35 235.422 370.749 239.039 370.749Z" fill="#263238"/>
<path d="M230.246 335.167H152.027L125.066 323.245H257.216L230.246 335.167Z" fill="#263238" stroke="#263238" stroke-width="1.77042" stroke-linecap="round" stroke-linejoin="round"/>
<path d="M114.958 357.543L143.415 370.749H239.039L265.883 357.543H116.571" stroke="#263238" stroke-width="1.77042" stroke-linecap="round" stroke-linejoin="round"/>
<path d="M230.246 335.167V362.485L239.04 370.749" stroke="#263238" stroke-width="1.77042" stroke-linecap="round" stroke-linejoin="round"/>
<path d="M152.027 335.167V362.485L143.415 370.749" stroke="#263238" stroke-width="1.77042" stroke-linecap="round" stroke-linejoin="round"/>
</svg>
