<svg width="2017" height="1644" viewBox="0 0 2017 1644" fill="none" xmlns="http://www.w3.org/2000/svg">
<path d="M963.94 1643.8C1490.73 1643.8 1917.78 1553.48 1917.78 1442.07C1917.78 1330.66 1490.73 1240.34 963.94 1240.34C437.146 1240.34 10.0952 1330.66 10.0952 1442.07C10.0952 1553.48 437.146 1643.8 963.94 1643.8Z" fill="#92E3A9"/>
<path opacity="0.3" d="M963.94 1643.8C1490.73 1643.8 1917.78 1553.48 1917.78 1442.07C1917.78 1330.66 1490.73 1240.34 963.94 1240.34C437.146 1240.34 10.0952 1330.66 10.0952 1442.07C10.0952 1553.48 437.146 1643.8 963.94 1643.8Z" fill="white"/>
<path d="M1791.32 315.189C1791.32 315.189 1742.61 352.446 1735.88 381.136C1729.16 409.826 1737.82 440.359 1743.55 458.539C1749.28 476.72 1750.23 564.633 1696.73 603.783C1643.24 642.933 1619.33 682.132 1625.06 730.896C1630.78 779.659 1703.41 833.154 1763.63 845.457C1823.84 857.759 1908.87 830.165 1942.29 758.49C1975.71 686.815 1930.83 607.767 1905.98 562.939C1881.13 518.111 1883.07 475.973 1910.96 474.08C1938.85 472.187 1953 479.061 1954 439.662C1954.99 400.263 1945.38 339.346 1894.72 308.763C1844.07 278.18 1791.32 315.189 1791.32 315.189Z" fill="#2E353A" stroke="#2E353A" stroke-linecap="round" stroke-linejoin="round"/>
<path d="M1671.38 795.847C1676.36 799.184 1721.19 817.464 1754.36 765.961C1787.53 714.458 1742.36 666.99 1751.07 621.515" stroke="white" stroke-width="0.5" stroke-miterlimit="10"/>
<path d="M1845.81 374.462C1845.81 374.462 1830.27 324.254 1863.94 340.542C1900.05 357.975 1928.69 440.16 1916.24 458.838" stroke="white" stroke-width="0.5" stroke-miterlimit="10"/>
<path d="M1836.55 367.937C1836.55 367.937 1817.87 331.825 1830.32 315.637C1842.77 299.449 1871.41 318.128 1886.36 329.335" stroke="white" stroke-width="0.5" stroke-miterlimit="10"/>
<path d="M1878.88 466.31C1878.88 466.31 1883.86 488.724 1868.92 533.552C1853.98 578.38 1826.58 629.434 1853.98 676.753C1881.37 724.072 1902.54 756.448 1871.41 803.766" stroke="white" stroke-width="0.5" stroke-miterlimit="10"/>
<path d="M1878.88 492.459C1879.97 521.654 1877.88 550.881 1872.66 579.625C1863.94 629.435 1891.34 661.811 1919.98 692.941C1948.62 724.072 1941.15 750.222 1931.18 778.862" stroke="white" stroke-width="0.5" stroke-miterlimit="10"/>
<path d="M1835.3 375.408C1835.3 375.408 1776.78 380.389 1759.34 372.918C1741.91 365.446 1745.64 359.22 1745.64 359.22" stroke="white" stroke-width="0.5" stroke-miterlimit="10"/>
<path d="M1843.07 574.346C1843.07 574.346 1850.69 651.749 1860.45 696.528C1870.22 741.306 1885.76 797.839 1881.87 813.43C1877.99 829.02 1792.22 961.462 1792.22 961.462L1766.91 943.929L1819.51 786.134L1775.23 638.201C1775.23 638.201 1815.78 578.779 1843.07 574.346Z" fill="white" stroke="#2E353A" stroke-linecap="round" stroke-linejoin="round"/>
<path d="M1836.25 561.744C1823.79 547.399 1797.05 510.142 1797.05 510.142L1755.01 460.333L1696.73 380.09C1689.06 369.58 1663.26 373.366 1588.75 374.362C1514.23 375.358 1288.05 332.323 1288.05 332.323L1280.43 382.132C1280.43 382.132 1487.43 426.961 1539.98 431.941C1592.53 436.922 1641.29 443.398 1641.29 443.398C1634.12 457.696 1627.73 472.379 1622.17 487.379C1616.44 504.563 1549.55 596.312 1549.55 596.312C1549.55 596.312 1547.9 597.308 1545.06 599.201C1544.32 615.837 1545.91 651.151 1570.76 669.78C1589.99 684.175 1618.13 690.252 1638.46 692.792C1638.8 691.646 1639.1 690.65 1639.35 689.953C1642.24 682.282 1663.26 670.826 1674.72 670.029C1686.17 669.232 1721.54 670.975 1742.61 669.083C1763.68 667.19 1775.08 638.5 1775.08 638.5C1775.08 638.5 1821.5 593.174 1842.87 574.645C1841.55 569.945 1839.29 565.559 1836.25 561.744Z" fill="white" stroke="#2E353A" stroke-linecap="round" stroke-linejoin="round"/>
<path d="M1667.74 454.953L1641.29 443.248L1660.52 473.831" stroke="#2E353A" stroke-width="0.75" stroke-linecap="round" stroke-linejoin="round"/>
<path d="M1601.05 628.986C1620.95 641.336 1644.51 646.455 1667.74 643.481" stroke="#2E353A" stroke-width="0.75" stroke-linecap="round" stroke-linejoin="round"/>
<path d="M1579.08 594.169C1579.08 594.169 1583.42 611.603 1611.01 623.208" stroke="#2E353A" stroke-width="0.75" stroke-linecap="round" stroke-linejoin="round"/>
<path d="M1819.36 786.134C1819.36 786.134 1837.44 778.364 1851.94 798.686" stroke="#2E353A" stroke-width="0.75" stroke-linecap="round" stroke-linejoin="round"/>
<path d="M1824.39 650.753L1775.08 638.201L1818.56 672.519" stroke="#2E353A" stroke-width="0.75" stroke-linecap="round" stroke-linejoin="round"/>
<path d="M1689.51 398.569C1689.51 398.569 1664.85 442.053 1635.87 440.608C1596.47 438.616 1484.99 405.742 1484.99 394.186C1484.99 382.63 1515.48 378.247 1515.48 378.247" stroke="#2E353A" stroke-width="0.75" stroke-linecap="round" stroke-linejoin="round"/>
<path d="M1775.08 434.631C1775.08 434.631 1755.16 429.65 1740.66 438.466C1726.17 447.282 1688.11 530.214 1688.11 530.214C1688.11 530.214 1690.95 534.05 1702.46 534.05C1713.97 534.05 1716.8 549.341 1716.8 563.636C1716.8 577.932 1715.81 584.656 1720.59 583.56C1725.37 582.464 1754.06 572.104 1759.79 575.939C1765.52 579.775 1752.12 598.851 1754.81 600.844C1757.5 602.836 1781.56 578.828 1789.23 553.027C1796.9 527.226 1804.52 489.022 1802.58 473.731C1800.63 458.44 1788.28 438.416 1775.08 434.631Z" fill="#92E3A9" stroke="#2E353A" stroke-linecap="round" stroke-linejoin="round"/>
<path d="M1791.32 513.977C1780.8 525.718 1769.64 536.875 1757.9 547.399C1735.88 567.322 1717.75 581.817 1718.7 572.303C1719.64 562.79 1741.61 511.138 1747.34 482.647C1753.07 454.156 1763.63 434.83 1775.08 434.83C1786.54 434.83 1811.39 493.206 1791.32 513.977Z" fill="white" stroke="#2E353A" stroke-linecap="round" stroke-linejoin="round"/>
<path d="M1779.86 390.699C1780.63 393.026 1781.87 395.165 1783.52 396.976C1785.17 398.787 1787.18 400.23 1789.43 401.209C1796.1 403.102 1845.81 374.461 1845.81 374.461C1845.81 374.461 1881.18 449.922 1875.4 461.378C1869.62 472.834 1852.48 487.229 1833.36 500.578C1814.23 513.927 1778.92 524.487 1765.52 516.816C1752.12 509.145 1761.68 430.845 1761.68 430.845C1761.68 430.845 1751.17 418.393 1762.63 398.32C1774.09 378.247 1779.86 390.699 1779.86 390.699Z" fill="white" stroke="#2E353A" stroke-linecap="round" stroke-linejoin="round"/>
<path d="M1859.91 468.65C1859.91 468.65 1860.75 462.723 1849.7 462.723C1838.64 462.723 1819.21 483.045 1819.21 483.045" stroke="#2E353A" stroke-width="0.75" stroke-linecap="round" stroke-linejoin="round"/>
<path d="M1811.59 484.739L1805.66 478.812" stroke="#2E353A" stroke-width="0.75" stroke-linecap="round" stroke-linejoin="round"/>
<path d="M1803.22 495.796C1803.22 495.796 1787.98 493.256 1785.44 473.731" stroke="#2E353A" stroke-width="0.75" stroke-linecap="round" stroke-linejoin="round"/>
<path d="M1838.49 437.869C1838.49 437.869 1834.7 419.29 1818.56 415.704" stroke="#2E353A" stroke-width="0.75" stroke-linecap="round" stroke-linejoin="round"/>
<path d="M1819.31 447.83C1815.43 450.869 1811.14 451.865 1809.7 450.022C1808.25 448.179 1810.2 444.244 1814.03 441.206C1817.87 438.167 1822.2 437.171 1823.65 439.014C1825.09 440.857 1823.15 444.792 1819.31 447.83Z" fill="#2E353A"/>
<path d="M1843.32 479.21C1840.13 481.7 1836.6 482.547 1835.4 481.003C1834.2 479.459 1835.8 476.022 1838.99 473.681C1842.17 471.34 1845.71 470.394 1846.91 471.888C1848.1 473.382 1846.51 476.67 1843.32 479.21Z" fill="#2E353A"/>
<path d="M1750.33 1292.49L1799.19 1360.38C1799.19 1360.38 1799.19 1372.84 1781.76 1372.84C1764.32 1372.84 1754.36 1372.84 1744.4 1360.38C1734.44 1347.93 1734.44 1340.46 1724.48 1335.48C1714.51 1330.5 1704.55 1330.5 1709.53 1303.1C1714.51 1275.71 1750.33 1292.49 1750.33 1292.49Z" fill="white" stroke="#2E353A" stroke-linecap="round" stroke-linejoin="round"/>
<path d="M1798.99 1361.93C1791.25 1365.64 1782.57 1366.93 1774.09 1365.61C1756.45 1362.43 1745.74 1344.79 1739.22 1337.22C1732.69 1329.65 1724.72 1329.7 1717.2 1323.38C1713.62 1320.32 1710.5 1316.76 1707.94 1312.82C1706.89 1330.55 1715.51 1331.15 1724.08 1335.48C1734.04 1340.46 1734.04 1347.93 1744 1360.38C1753.96 1372.84 1763.92 1372.84 1781.36 1372.84C1795.35 1372.84 1798.24 1365.26 1798.99 1361.93Z" fill="white" stroke="#2E353A" stroke-linecap="round" stroke-linejoin="round"/>
<path d="M1747.54 1283.88C1737.58 1253.99 1723.38 1075.08 1716.01 1018.44C1701.07 903.285 1634.62 753.808 1634.62 753.808L1638.46 692.642C1618.13 690.102 1589.99 684.025 1570.76 669.63C1545.86 651.002 1544.32 615.687 1545.06 599.051C1532.46 607.17 1495.25 631.626 1463.53 657.327C1424.38 688.857 1397.58 800.678 1389.96 835.993C1382.34 871.307 1373.72 975.458 1373.72 975.458C1373.72 975.458 1304.88 1002.21 1277.19 1040.21C1249.5 1078.21 1165.37 1164.43 1165.37 1164.43L1173.04 1193.12C1173.04 1193.12 1198.84 1174.99 1220.81 1157.76C1242.77 1140.53 1413.87 1044.99 1425.32 1038.22C1436.78 1031.44 1450.23 1018.29 1465.47 979.941C1471.05 965.945 1478.92 943.033 1486.69 919.573L1513.24 836.889L1538.79 815.123C1563.99 883.262 1622.57 1014.61 1630.88 1033.39C1640.85 1055.9 1648.42 1156.02 1675.96 1218.63C1703.51 1281.24 1710.83 1311.27 1710.83 1311.27C1710.83 1311.27 1757.55 1313.91 1747.54 1283.88Z" fill="#2E353A" stroke="#2E353A" stroke-linecap="round" stroke-linejoin="round"/>
<path d="M1636.81 704.447L1646.33 759.984" stroke="white" stroke-width="0.5" stroke-miterlimit="10"/>
<path d="M289.923 275.491L146.074 1497.31C145.879 1499.07 146.182 1500.85 146.947 1502.44C147.713 1504.04 148.911 1505.39 150.405 1506.34C151.899 1507.29 153.63 1507.8 155.4 1507.81C157.17 1507.83 158.909 1507.35 160.419 1506.42L252.865 1449.54C258.352 1446.14 264.945 1445 271.254 1446.37C277.564 1447.74 283.096 1451.5 286.685 1456.86L402.84 1629.55L451.304 903.135L289.923 275.491Z" fill="#92E3A9" stroke="#2E353A" stroke-linecap="round" stroke-linejoin="round"/>
<path d="M289.026 306.223L159.025 1466.78C158.744 1469.28 159.2 1471.81 160.337 1474.06C161.475 1476.31 163.244 1478.18 165.428 1479.44C167.612 1480.7 170.116 1481.29 172.633 1481.15C175.149 1481 177.569 1480.13 179.596 1478.63L247.187 1428.82C250.702 1426.22 254.711 1424.37 258.968 1423.37C263.225 1422.37 267.64 1422.26 271.944 1423.03C276.248 1423.79 280.35 1425.43 283.998 1427.84C287.646 1430.25 290.764 1433.38 293.16 1437.04L372.257 1557.78C373.114 1559.12 374.396 1560.13 375.898 1560.66C377.4 1561.19 379.035 1561.2 380.543 1560.69C382.051 1560.18 383.344 1559.18 384.217 1557.85C385.089 1556.52 385.491 1554.93 385.357 1553.34L293.011 306.273C292.915 305.819 292.667 305.411 292.309 305.117C291.95 304.823 291.502 304.659 291.039 304.653C290.575 304.648 290.123 304.8 289.757 305.085C289.391 305.371 289.134 305.772 289.026 306.223Z" fill="#92E3A9" stroke="#2E353A" stroke-linecap="round" stroke-linejoin="round"/>
<path opacity="0.6" d="M290.819 289.387L158.925 1466.68C158.644 1469.18 159.1 1471.71 160.238 1473.96C161.375 1476.21 163.145 1478.08 165.329 1479.34C167.513 1480.6 170.016 1481.19 172.533 1481.05C175.05 1480.9 177.47 1480.03 179.496 1478.53L247.087 1428.72C250.602 1426.12 254.611 1424.27 258.868 1423.27C263.125 1422.27 267.541 1422.16 271.845 1422.93C276.149 1423.69 280.25 1425.33 283.898 1427.74C287.546 1430.15 290.664 1433.28 293.061 1436.94L372.158 1557.68C373.015 1559.02 374.296 1560.03 375.798 1560.56C377.3 1561.09 378.935 1561.1 380.443 1560.59C381.951 1560.08 383.244 1559.08 384.117 1557.75C384.99 1556.42 385.391 1554.83 385.258 1553.24L291.766 289.387C291.733 289.288 291.67 289.201 291.585 289.14C291.5 289.078 291.398 289.045 291.293 289.045C291.188 289.045 291.086 289.078 291.001 289.14C290.916 289.201 290.852 289.288 290.819 289.387Z" fill="black"/>
<path d="M266.762 1422.35C271.994 1422.44 277.125 1423.81 281.709 1426.33C286.292 1428.86 290.189 1432.46 293.061 1436.84L372.158 1557.58C373.015 1558.92 374.296 1559.93 375.798 1560.46C377.3 1560.99 378.935 1561 380.443 1560.49C381.951 1559.98 383.244 1558.98 384.117 1557.65C384.99 1556.32 385.391 1554.73 385.258 1553.14L373.951 1400.53L265.068 1421.85C265.647 1421.96 266.214 1422.13 266.762 1422.35Z" fill="#92E3A9" stroke="#2E353A" stroke-linecap="round" stroke-linejoin="round"/>
<path opacity="0.3" d="M266.762 1422.35C271.994 1422.44 277.125 1423.81 281.709 1426.33C286.292 1428.86 290.189 1432.46 293.061 1436.84L372.158 1557.58C373.015 1558.92 374.296 1559.93 375.798 1560.46C377.3 1560.99 378.935 1561 380.443 1560.49C381.951 1559.98 383.244 1558.98 384.117 1557.65C384.99 1556.32 385.391 1554.73 385.258 1553.14L373.951 1400.53L265.068 1421.85C265.647 1421.96 266.214 1422.13 266.762 1422.35Z" fill="black"/>
<path d="M292.862 274.744L402.79 1629.55L1684.63 1385.29L1383.38 328.687L292.862 274.744Z" fill="#2E353A" stroke="#2E353A" stroke-linecap="round" stroke-linejoin="round"/>
<path d="M352.284 303.981L427.795 1557.93L1633.18 1338.77L1379.1 364.549L352.284 303.981Z" fill="#92E3A9" stroke="#2E353A" stroke-linecap="round" stroke-linejoin="round"/>
<path d="M425.952 921.067L483.282 1515.44L1578.48 1316.3L1476.72 869.564L425.952 921.067Z" fill="white" stroke="#2E353A" stroke-linecap="round" stroke-linejoin="round"/>
<path d="M637.341 1485.85L619.161 1294.93" stroke="#2E353A" stroke-linecap="round" stroke-linejoin="round"/>
<path d="M804.949 1456.32L787.417 1297.18" stroke="#2E353A" stroke-linecap="round" stroke-linejoin="round"/>
<path d="M969.269 1424.49L948.798 1297.18" stroke="#2E353A" stroke-linecap="round" stroke-linejoin="round"/>
<path d="M1138.57 1395.45L1114.21 1243.68" stroke="#2E353A" stroke-linecap="round" stroke-linejoin="round"/>
<path d="M1287.7 1368.55L1266.93 1220.42" stroke="#2E353A" stroke-linecap="round" stroke-linejoin="round"/>
<path d="M1430.7 1342.1L1399.77 1163.99" stroke="#2E353A" stroke-linecap="round" stroke-linejoin="round"/>
<path d="M1766.76 943.929C1766.76 943.929 1751.52 959.271 1750.53 967.24C1749.53 975.209 1757.5 999.217 1757.5 999.217L1781.51 1003.2L1792.07 961.462L1766.76 943.929Z" fill="white" stroke="#2E353A" stroke-linecap="round" stroke-linejoin="round"/>
<g style="mix-blend-mode:multiply" opacity="0.49">
<path d="M358.361 650.404C358.361 650.404 383.664 1014.56 406.924 1147.35C430.185 1280.14 473.32 1478.88 473.32 1478.88C473.32 1478.88 1220.46 1363.22 1589.04 1207.12L1559.16 1064.37L358.361 650.404Z" fill="#92E3A9"/>
</g>
<path d="M324.59 290.334L1373.92 346.867C1373.92 346.867 1476.08 652.944 1577.74 825.782C1679.4 998.62 1847.06 987.363 1847.06 987.363C1847.06 987.363 1462.53 1197.61 1163.03 1309.53C851.322 1425.93 581.007 1446.85 581.007 1446.85C581.007 1446.85 334.801 1110.54 324.59 290.334Z" fill="#92E3A9" stroke="#2E353A" stroke-linecap="round" stroke-linejoin="round"/>
<path d="M444.73 235.843C425.254 235.843 411.158 253.127 406.725 280.223L426.649 281.319C429.737 265.678 435.864 255.766 444.68 255.766C454.941 255.766 466.347 272.253 466.347 295.962C466.347 319.671 454.941 336.208 444.68 336.208C442.038 336.208 439.504 337.258 437.636 339.126C435.768 340.994 434.718 343.528 434.718 346.17C434.718 348.812 435.768 351.346 437.636 353.214C439.504 355.082 442.038 356.132 444.68 356.132C467.991 356.132 486.271 329.683 486.271 295.962C486.271 262.242 468.04 235.843 444.73 235.843Z" fill="white" stroke="#2E353A" stroke-miterlimit="10"/>
<path d="M473.32 312.101C472.366 315.613 471.134 319.044 469.634 322.361" stroke="#2E353A" stroke-width="0.75" stroke-linecap="round" stroke-linejoin="round"/>
<path d="M416.587 271.257C416.587 271.257 424.059 244.26 446.124 245.755C463.458 246.95 477.753 272.701 475.362 300.246" stroke="#2E353A" stroke-width="0.75" stroke-linecap="round" stroke-linejoin="round"/>
<path d="M617.767 244.56C598.291 244.56 584.195 261.843 579.762 288.94L599.686 290.035C602.774 274.395 608.901 264.483 617.717 264.483C627.977 264.483 639.384 280.97 639.384 304.679C639.384 328.388 627.977 344.925 617.717 344.925C615.075 344.925 612.541 345.974 610.673 347.843C608.805 349.711 607.755 352.245 607.755 354.887C607.755 357.529 608.805 360.063 610.673 361.931C612.541 363.799 615.075 364.849 617.717 364.849C641.027 364.849 659.307 338.4 659.307 304.679C659.307 270.958 641.127 244.56 617.767 244.56Z" fill="white" stroke="#2E353A" stroke-miterlimit="10"/>
<path d="M646.407 320.817C645.453 324.33 644.22 327.761 642.721 331.078" stroke="#2E353A" stroke-width="0.75" stroke-linecap="round" stroke-linejoin="round"/>
<path d="M589.674 279.974C589.674 279.974 597.146 252.977 619.211 254.471C636.545 255.667 650.84 281.418 648.449 308.963" stroke="#2E353A" stroke-width="0.75" stroke-linecap="round" stroke-linejoin="round"/>
<path d="M790.903 253.276C771.428 253.276 757.332 270.56 752.899 297.656L772.823 298.752C775.911 283.112 782.037 273.2 790.853 273.2C801.114 273.2 812.52 289.686 812.52 313.395C812.52 337.105 801.114 353.641 790.853 353.641C788.211 353.641 785.678 354.691 783.809 356.559C781.941 358.427 780.892 360.961 780.892 363.603C780.892 366.245 781.941 368.779 783.809 370.647C785.678 372.515 788.211 373.565 790.853 373.565C814.164 373.565 832.444 347.116 832.444 313.395C832.444 279.675 814.214 253.276 790.903 253.276Z" fill="white" stroke="#2E353A" stroke-miterlimit="10"/>
<path d="M819.494 329.534C818.54 333.046 817.307 336.478 815.808 339.794" stroke="#2E353A" stroke-width="0.75" stroke-linecap="round" stroke-linejoin="round"/>
<path d="M762.761 288.69C762.761 288.69 770.232 261.694 792.298 263.188C809.631 264.384 823.926 290.135 821.536 317.679" stroke="#2E353A" stroke-width="0.75" stroke-linecap="round" stroke-linejoin="round"/>
<path d="M963.99 261.993C944.514 261.993 930.418 279.276 925.985 306.373L945.909 307.468C948.997 291.828 955.124 281.916 963.94 281.916C974.201 281.916 985.607 298.403 985.607 322.112C985.607 345.821 974.201 362.358 963.94 362.358C961.298 362.358 958.764 363.408 956.896 365.276C955.028 367.144 953.978 369.678 953.978 372.32C953.978 374.962 955.028 377.496 956.896 379.364C958.764 381.232 961.298 382.282 963.94 382.282C987.251 382.282 1005.53 355.833 1005.53 322.112C1005.53 288.391 987.3 261.993 963.99 261.993Z" fill="white" stroke="#2E353A" stroke-miterlimit="10"/>
<path d="M992.58 338.25C991.626 341.763 990.394 345.194 988.895 348.511" stroke="#2E353A" stroke-width="0.75" stroke-linecap="round" stroke-linejoin="round"/>
<path d="M935.848 297.407C935.848 297.407 943.319 270.41 965.385 271.905C982.718 273.1 997.013 298.851 994.622 326.396" stroke="#2E353A" stroke-width="0.75" stroke-linecap="round" stroke-linejoin="round"/>
<path d="M1140.21 269.713C1120.74 269.713 1106.64 286.997 1102.26 314.143L1122.18 315.238C1125.32 299.598 1131.45 289.637 1140.21 289.637C1150.48 289.637 1161.93 306.173 1161.93 329.882C1161.93 353.591 1150.48 370.078 1140.21 370.078C1137.57 370.078 1135.04 371.128 1133.17 372.996C1131.3 374.864 1130.25 377.398 1130.25 380.04C1130.25 382.682 1131.3 385.216 1133.17 387.084C1135.04 388.952 1137.57 390.002 1140.21 390.002C1163.57 390.002 1181.85 363.603 1181.85 329.882C1181.85 296.162 1163.57 269.713 1140.21 269.713Z" fill="white" stroke="#2E353A" stroke-miterlimit="10"/>
<path d="M1168.8 346.021C1167.86 349.52 1166.63 352.935 1165.12 356.231" stroke="#2E353A" stroke-width="0.75" stroke-linecap="round" stroke-linejoin="round"/>
<path d="M1112.07 305.177C1112.07 305.177 1119.59 278.131 1141.61 279.625C1158.99 280.821 1173.24 306.622 1170.9 334.166" stroke="#2E353A" stroke-width="0.75" stroke-linecap="round" stroke-linejoin="round"/>
<path d="M1309.52 279.027C1290.04 279.027 1275.94 296.311 1271.56 323.407L1291.48 324.553C1294.62 308.913 1300.75 298.951 1309.52 298.951C1319.78 298.951 1331.23 315.488 1331.23 339.147C1331.23 362.806 1319.78 379.393 1309.52 379.393C1306.87 379.393 1304.34 380.442 1302.47 382.31C1300.6 384.179 1299.55 386.712 1299.55 389.355C1299.55 391.997 1300.6 394.53 1302.47 396.399C1304.34 398.267 1306.87 399.316 1309.52 399.316C1332.88 399.316 1351.16 372.868 1351.16 339.147C1351.16 305.426 1332.88 279.027 1309.52 279.027Z" fill="white" stroke="#2E353A" stroke-miterlimit="10"/>
<path d="M1338.11 355.036C1337.17 358.554 1335.94 361.986 1334.42 365.297" stroke="#2E353A" stroke-width="0.75" stroke-linecap="round" stroke-linejoin="round"/>
<path d="M1281.37 314.242C1281.37 314.242 1288.89 287.196 1310.91 288.69C1328.29 289.886 1342.54 315.637 1340.2 343.181" stroke="#2E353A" stroke-width="0.75" stroke-linecap="round" stroke-linejoin="round"/>
<path d="M1792.07 961.412C1792.07 961.412 1802.03 975.06 1802.03 980.887C1802.03 986.715 1788.38 996.478 1788.38 1010.08C1788.38 1023.67 1770.85 1020.04 1768.9 1010.08C1766.96 1000.11 1772.79 986.715 1772.79 986.715C1772.79 986.715 1764.67 981.734 1762.83 964.201C1760.99 946.669 1776.77 951.649 1776.77 951.649L1792.07 961.412Z" fill="white" stroke="#2E353A" stroke-linecap="round" stroke-linejoin="round"/>
<path d="M1543.02 826.579C1470.85 703.849 1395.04 510.042 1368.09 438.715L430.335 400.711C429.737 1093.8 639.533 1380.16 639.533 1380.16C639.533 1380.16 878.368 1361.68 1153.81 1258.77C1418.5 1159.9 1734.19 993.938 1734.19 993.938C1734.19 993.938 1632.83 979.344 1543.02 826.579Z" fill="white" stroke="#2E353A" stroke-linecap="round" stroke-linejoin="round"/>
<path d="M1368.09 438.715L430.335 400.711C430.335 468.9 432.277 533.054 435.864 593.472L1426.17 584.208C1400.52 523.092 1379.85 469.547 1368.09 438.715Z" fill="#2E353A" stroke="#2E353A" stroke-linecap="round" stroke-linejoin="round"/>
<path d="M1384.68 645.323L1429.01 643.779" stroke="#2E353A" stroke-width="3" stroke-linecap="round" stroke-linejoin="round"/>
<path d="M1254.38 649.757L1351.45 646.419" stroke="#2E353A" stroke-width="3" stroke-linecap="round" stroke-linejoin="round"/>
<path d="M1096.63 655.086L1221.4 650.853" stroke="#2E353A" stroke-width="3" stroke-linecap="round" stroke-linejoin="round"/>
<path d="M936.146 660.516L1069.09 656.033" stroke="#2E353A" stroke-width="3" stroke-linecap="round" stroke-linejoin="round"/>
<path d="M780.991 665.795L902.874 661.661" stroke="#2E353A" stroke-width="3" stroke-linecap="round" stroke-linejoin="round"/>
<path d="M617.518 671.374L739.5 667.19" stroke="#2E353A" stroke-width="3" stroke-linecap="round" stroke-linejoin="round"/>
<path d="M473.619 676.255L587.134 672.37" stroke="#2E353A" stroke-width="3" stroke-linecap="round" stroke-linejoin="round"/>
<path d="M455.14 783.095L1486.84 720.236" stroke="#2E353A" stroke-linecap="round" stroke-linejoin="round"/>
<path d="M618.165 774.229C618.165 774.229 635.1 1048.58 815.957 1353.11" stroke="#2E353A" stroke-linecap="round" stroke-linejoin="round"/>
<path d="M784.627 763.222C784.627 763.222 803.704 1077.02 1001.99 1306.79" stroke="#2E353A" stroke-linecap="round" stroke-linejoin="round"/>
<path d="M935.35 753.957C935.35 753.957 945.312 1042.85 1168.21 1250.45" stroke="#2E353A" stroke-linecap="round" stroke-linejoin="round"/>
<path d="M1091.6 747.233C1091.6 747.233 1116.21 1068.4 1331.93 1181.52" stroke="#2E353A" stroke-linecap="round" stroke-linejoin="round"/>
<path d="M1255.32 734.333C1255.32 734.333 1272.66 977.252 1493.31 1110.29" stroke="#2E353A" stroke-linecap="round" stroke-linejoin="round"/>
<path d="M1384.23 726.463C1384.23 726.463 1443.6 975.508 1609.72 1056.15" stroke="#2E353A" stroke-linecap="round" stroke-linejoin="round"/>
<path d="M477.753 924.603L1531.52 808.697" stroke="#2E353A" stroke-linecap="round" stroke-linejoin="round"/>
<path d="M505.248 1048.58C505.248 1048.58 730.236 1039.76 1580.53 883.062" stroke="#2E353A" stroke-linecap="round" stroke-linejoin="round"/>
<path d="M544.946 1179.83C544.946 1179.83 764.106 1204.73 1622.72 931.328" stroke="#2E353A" stroke-linecap="round" stroke-linejoin="round"/>
<path d="M592.364 1294.34C592.364 1294.34 775.064 1354.85 1672.52 970.577" stroke="#2E353A" stroke-linecap="round" stroke-linejoin="round"/>
<path d="M835.383 536.291L497.577 531.759C494.84 531.718 492.211 530.685 490.178 528.854C488.145 527.022 486.845 524.514 486.519 521.797L483.631 494.501C483.461 492.93 483.627 491.342 484.118 489.84C484.608 488.338 485.413 486.957 486.477 485.79C487.541 484.622 488.841 483.693 490.291 483.066C491.741 482.438 493.308 482.125 494.887 482.149L828.608 487.927C831.075 487.97 833.458 488.822 835.393 490.352C837.328 491.881 838.707 494.004 839.317 496.394L846.091 522.345C846.515 523.986 846.56 525.702 846.221 527.363C845.883 529.023 845.17 530.585 844.138 531.929C843.106 533.274 841.781 534.365 840.264 535.121C838.747 535.877 837.077 536.277 835.383 536.291Z" fill="white"/>
</svg>
