<svg width="1229" height="935" viewBox="0 0 1229 935" fill="none" xmlns="http://www.w3.org/2000/svg">
<path d="M522.619 882.112C306.439 882.112 130.581 706.232 130.581 490.073C130.581 273.915 306.502 98.014 522.619 98.014C738.736 98.014 914.658 273.894 914.658 490.073C914.658 706.253 738.862 882.112 522.619 882.112ZM522.619 123.071C320.263 123.071 155.638 287.717 155.638 490.073C155.638 692.43 320.325 857.055 522.619 857.055C724.913 857.055 889.663 692.43 889.663 490.073C889.663 287.717 725.038 123.071 522.619 123.071Z" fill="#263238"/>
<path d="M917.594 662.154C918.005 647.145 739.79 630.084 519.538 624.047C299.287 618.01 120.404 625.284 119.993 640.293C119.582 655.302 297.797 672.364 518.048 678.4C738.3 684.437 917.182 677.164 917.594 662.154Z" fill="#263238"/>
<path d="M137.973 582.262L222.457 589.905C222.457 589.905 214.104 507.258 198.84 488.382C183.577 469.506 150.439 465.872 135.091 496.567C119.744 527.262 137.973 582.262 137.973 582.262Z" fill="#263238"/>
<path d="M223.605 590.991L137.2 583.223L136.97 582.576C136.323 580.321 118.783 526.845 134.235 496.108C140.979 482.619 151.838 474.413 164.805 472.972C171.382 472.334 178.014 473.335 184.11 475.885C190.206 478.436 195.575 482.457 199.738 487.589C215.107 506.507 223.229 586.293 223.563 589.675L223.605 590.991ZM138.745 581.281L221.287 588.694C220.16 578.253 211.974 506.131 198.026 488.967C194.093 484.094 189.013 480.273 183.241 477.846C177.468 475.419 171.184 474.462 164.951 475.06C152.715 476.396 142.441 484.206 136.01 497.048C121.936 525.174 136.782 575.017 138.745 581.281Z" fill="#263238"/>
<path d="M209.406 507.697H171.236V639.351H209.406C224.691 639.351 237.073 609.888 237.073 573.534C237.073 537.181 224.753 507.697 209.406 507.697Z" fill="#263238"/>
<path d="M209.406 640.395H170.192V506.653H209.406C225.505 506.653 238.117 536.032 238.117 573.472C238.117 610.911 225.568 640.395 209.406 640.395ZM172.217 638.307H209.406C224.023 638.307 236.029 609.241 236.029 573.576C236.029 537.912 224.085 508.845 209.406 508.845H172.28L172.217 638.307Z" fill="#263238"/>
<path d="M171.236 639.372C186.516 639.372 198.903 609.895 198.903 573.534C198.903 537.173 186.516 507.697 171.236 507.697C155.956 507.697 143.569 537.173 143.569 573.534C143.569 609.895 155.956 639.372 171.236 639.372Z" fill="#878787"/>
<path d="M171.236 640.395C155.116 640.395 142.504 611.015 142.504 573.576C142.504 536.137 155.032 506.757 171.236 506.757C187.439 506.757 199.947 536.137 199.947 573.576C199.947 611.015 187.335 640.395 171.236 640.395ZM171.236 508.741C156.619 508.741 144.592 537.807 144.592 573.472C144.592 609.136 156.536 638.202 171.236 638.202C185.936 638.202 197.859 609.136 197.859 573.472C197.859 537.807 185.915 508.741 171.236 508.741Z" fill="#263238"/>
<path d="M171.236 629.391C184.106 629.391 194.539 605.589 194.539 576.228C194.539 546.867 184.106 523.065 171.236 523.065C158.366 523.065 147.933 546.867 147.933 576.228C147.933 605.589 158.366 629.391 171.236 629.391Z" fill="white"/>
<path d="M171.236 630.435C157.58 630.435 146.868 606.631 146.868 576.144C146.868 545.658 157.58 521.854 171.236 521.854C184.892 521.854 195.583 545.658 195.583 576.144C195.583 606.631 184.892 630.435 171.236 630.435ZM171.236 524.109C158.958 524.109 148.956 547.496 148.956 576.311C148.956 605.127 158.958 628.514 171.236 628.514C183.514 628.514 193.495 605.127 193.495 576.311C193.495 547.496 183.493 524.109 171.236 524.109Z" fill="#263238"/>
<path d="M504.098 490.408H460.541C443.126 490.408 429.01 521.604 429.01 560.087C429.01 598.571 443.126 629.746 460.541 629.746H504.098C521.534 629.746 535.649 598.55 535.649 560.087C535.649 521.624 521.534 490.408 504.098 490.408Z" fill="#263238"/>
<path d="M504.098 630.79H460.54C442.583 630.79 427.966 599.072 427.966 560.087C427.966 521.102 442.583 489.364 460.54 489.364H504.098C522.076 489.364 536.693 521.082 536.693 560.087C536.693 599.093 522.076 630.79 504.098 630.79ZM460.54 491.452C443.731 491.452 430.054 522.251 430.054 560.087C430.054 597.923 443.731 628.702 460.54 628.702H504.098C520.928 628.702 534.605 597.923 534.605 560.087C534.605 522.251 520.928 491.452 504.098 491.452H460.54Z" fill="#263238"/>
<path d="M547.99 512.061H495.787V667.164H547.99C568.871 667.164 585.784 632.46 585.784 589.654C585.784 546.848 568.871 512.061 547.99 512.061Z" fill="#263238"/>
<path d="M547.99 668.146H494.743V511.017H547.99C569.413 511.017 586.828 546.264 586.828 589.592C586.828 632.92 569.413 668.146 547.99 668.146ZM496.831 666.058H547.99C568.265 666.058 584.74 631.75 584.74 589.592C584.74 547.433 568.265 513.105 547.99 513.105H496.831V666.058Z" fill="#263238"/>
<path d="M495.787 667.102C516.661 667.102 533.582 632.399 533.582 589.592C533.582 546.784 516.661 512.082 495.787 512.082C474.914 512.082 457.993 546.784 457.993 589.592C457.993 632.399 474.914 667.102 495.787 667.102Z" fill="#878787"/>
<path d="M495.787 668.146C474.364 668.146 456.949 632.899 456.949 589.592C456.949 546.285 474.364 511.017 495.787 511.017C517.211 511.017 534.626 546.264 534.626 589.592C534.626 632.92 517.19 668.146 495.787 668.146ZM495.787 513.105C475.512 513.105 459.037 547.412 459.037 589.592C459.037 631.771 475.512 666.058 495.787 666.058C516.063 666.058 532.538 631.75 532.538 589.592C532.538 547.433 516.042 513.105 495.787 513.105Z" fill="#263238"/>
<path d="M495.787 655.367C513.362 655.367 527.61 627.339 527.61 592.766C527.61 558.192 513.362 530.165 495.787 530.165C478.212 530.165 463.965 558.192 463.965 592.766C463.965 627.339 478.212 655.367 495.787 655.367Z" fill="white"/>
<path d="M495.787 656.41C477.663 656.41 462.921 627.866 462.921 592.765C462.921 557.665 477.663 529.121 495.787 529.121C513.912 529.121 528.654 557.686 528.654 592.765C528.654 627.845 513.912 656.41 495.787 656.41ZM495.787 531.125C478.811 531.125 465.009 558.751 465.009 592.682C465.009 626.613 478.811 654.239 495.787 654.239C512.764 654.239 526.566 626.634 526.566 592.682C526.566 558.73 512.764 531.209 495.787 531.209V531.125Z" fill="#263238"/>
<path d="M843.935 496.359H791.732C770.852 496.359 753.938 531.063 753.938 573.868C753.938 616.674 770.852 651.399 791.732 651.399H843.935C864.815 651.399 881.729 616.674 881.729 573.868C881.729 531.063 864.795 496.359 843.935 496.359Z" fill="#263238"/>
<path d="M843.934 652.548H791.732C770.329 652.548 752.894 617.301 752.894 573.973C752.894 530.645 770.329 495.419 791.732 495.419H843.934C865.337 495.419 882.773 530.666 882.773 573.973C882.773 617.28 865.337 652.548 843.934 652.548ZM791.732 497.507C771.478 497.507 754.982 531.814 754.982 573.973C754.982 616.131 771.478 650.459 791.732 650.459H843.934C864.189 650.459 880.685 616.152 880.685 573.973C880.685 531.793 864.189 497.507 843.934 497.507H791.732Z" fill="#263238"/>
<path d="M331.622 319.08C322.799 320.038 314.056 321.622 305.458 323.82C286.891 328.526 268.735 334.727 251.168 342.362C217.111 357.563 175.746 388.467 163.176 394.209C150.606 399.952 131.228 401.037 129.119 409.411C127.503 416.998 126.283 424.665 125.465 432.38C125.465 432.38 117.113 439.709 116.027 460.13C114.941 480.552 113.417 548.644 114.983 557.56C116.549 566.477 116.027 568.544 123.899 572.741C131.771 576.938 136.427 582.179 138.035 582.179C139.643 582.179 129.057 517.302 145.824 502.205C162.591 487.108 187.732 490.679 198.193 525.174C208.654 559.669 205 596.942 209.197 599.03C212.185 600.398 215.37 601.286 218.635 601.661L450.664 620.454C450.664 620.454 439.66 570.694 452.23 537.682C464.8 504.669 488.897 487.923 511.406 496.317C533.916 504.711 550.182 543.445 554.88 568.586C559.578 593.726 561.144 606.296 560.121 615.212C559.098 624.129 559.077 628.305 565.884 628.827C572.692 629.349 870.745 619.932 894.299 617.301C917.853 614.67 933.576 611.537 935.142 605.252C936.708 598.967 936.708 602.642 936.708 598.988C936.708 595.334 934.098 533.004 932.532 524.088C930.966 515.172 929.901 508.908 926.268 503.667C922.344 498.584 918.162 493.705 913.739 489.05C913.739 489.05 915.305 477.524 908.498 469.673C901.691 461.822 800.606 422.524 800.606 422.524C800.606 422.524 728.839 375.375 702.132 359.672C675.426 343.97 632.996 328.351 590.566 321.439C548.136 314.528 478.999 312.001 439.2 311.479C408.61 311.062 354.967 316.512 331.622 319.08Z" fill="#92E3A9"/>
<path d="M567.409 629.934H565.801C564.75 629.937 563.71 629.721 562.746 629.3C561.783 628.88 560.917 628.263 560.205 627.49C558.117 625.006 558.451 620.976 559.14 615.087C560.142 606.63 558.827 594.937 553.92 568.794C549.597 545.7 534.146 505.859 511.114 497.298C489.294 489.176 465.51 505.943 453.274 538.058C441.038 570.173 451.624 619.765 451.624 620.266L451.917 621.644L218.489 602.663C215.094 602.289 211.78 601.373 208.675 599.949C206.587 598.863 206.128 593.789 205.397 581.406C204.562 567.207 203.309 545.742 197.045 525.467C192.096 509.179 183.368 498.551 172.426 495.523C163.698 493.101 154.197 495.795 146.367 502.894C133.838 514.274 137.096 555.702 138.495 573.388C139.163 581.74 139.163 582.346 138.62 582.931L138.307 583.265H137.806C136.741 583.265 135.488 582.304 133.233 580.529C130.086 577.966 126.718 575.688 123.168 573.722C115.714 569.755 115.296 567.207 114.168 560.442C114.043 559.628 113.897 558.751 113.73 557.79C112.101 548.582 113.73 478.652 114.753 460.13C115.776 441.609 122.646 433.528 124.233 431.941C125.076 424.287 126.324 416.682 127.971 409.16C129.474 403.146 138.411 400.682 147.954 398.072C152.945 396.858 157.832 395.252 162.57 393.27C170.784 388.821 178.758 383.942 186.458 378.653C204.437 366.981 229.076 351.007 250.562 341.422C268.169 333.744 286.376 327.522 304.999 322.818C313.681 320.608 322.507 319.01 331.413 318.036L331.518 319.08L331.413 318.036C353.505 315.614 408.255 310.038 439.054 310.414C483.99 311.02 550.621 313.964 590.566 320.375C630.239 326.743 673.066 341.443 702.487 358.754C728.484 374.038 797.955 419.621 800.92 421.563C806.328 423.651 902.276 461.049 909.124 468.963C915.389 476.229 914.888 486.273 914.658 488.654C919.019 493.246 923.138 498.062 926.998 503.082C930.715 508.407 931.822 514.671 933.263 523.358L933.367 523.942C934.954 532.942 937.543 595.939 937.543 599.009C937.543 600.972 937.543 601.097 937.209 601.703C936.598 602.912 936.175 604.207 935.956 605.545C934.202 612.561 918.667 615.672 894.195 618.386C871.33 620.934 592.278 629.934 567.409 629.934ZM499.901 493.206C503.954 493.186 507.978 493.893 511.782 495.294C535.607 504.168 551.456 544.823 555.904 568.377C560.852 594.77 562.168 606.61 561.165 615.317C560.56 620.495 560.247 624.296 561.75 626.133C562.299 626.674 562.953 627.097 563.671 627.377C564.389 627.657 565.156 627.788 565.926 627.762V627.762C570.708 627.762 867.488 619.201 894.09 616.236C912.987 614.148 932.511 611.162 934.056 604.981C934.321 603.445 934.821 601.959 935.539 600.575C935.573 600.033 935.573 599.489 935.539 598.946C935.539 595.898 932.95 533.192 931.363 524.235V523.65C929.859 515.298 928.794 509.159 925.349 504.231C921.431 499.143 917.249 494.264 912.82 489.614L912.486 489.259V488.758C912.486 488.654 913.906 477.587 907.496 470.195C902.255 464.139 834.893 436.911 800.022 423.359L799.813 423.255C799.103 422.774 727.774 375.939 701.381 360.424C672.147 343.239 629.571 328.643 590.19 322.316C550.37 315.927 483.844 312.983 438.971 312.377C408.255 311.98 353.651 317.577 331.601 319.999C322.793 320.952 314.064 322.529 305.479 324.718C286.97 329.389 268.876 335.569 251.377 343.197C230.036 352.719 205.439 368.651 187.544 380.282C179.788 385.667 171.751 390.637 163.468 395.17C158.62 397.198 153.622 398.846 148.518 400.098C139.601 402.541 131.207 404.838 129.996 409.661C128.388 417.25 127.169 424.917 126.342 432.63V433.027L126.05 433.298C126.05 433.298 117.969 440.669 116.967 460.339C115.881 481.491 114.377 548.853 115.902 557.519C116.069 558.479 116.215 559.377 116.361 560.191C117.468 566.873 117.718 568.544 124.275 571.968C127.961 573.977 131.455 576.318 134.715 578.963C135.551 579.611 136.448 580.321 137.117 580.78C137.117 579.256 136.866 576.479 136.636 573.618C135.07 554.094 131.855 513.481 145.156 501.412C153.508 493.811 163.761 490.971 173.199 493.561C184.85 496.797 194.08 507.927 199.237 524.882C205.501 545.408 206.733 567.019 207.59 581.26C208.07 589.132 208.55 597.276 209.678 597.965C212.551 599.262 215.608 600.107 218.74 600.471L449.348 619.263C447.72 610.911 439.889 567.061 451.249 537.306C461.752 509.785 480.649 493.206 499.901 493.206Z" fill="#263238"/>
<path d="M728.776 489.03L743.957 501.078L611.989 490.596L564.84 451.319L561.165 436.639L656.507 470.174L728.776 489.03Z" fill="#263238"/>
<path d="M747.298 502.372L611.572 491.598L611.301 491.389L563.901 451.903L559.725 435.01L656.884 469.172L729.34 488.069L747.298 502.372ZM612.407 489.677L740.658 499.866L728.317 490.073L656.257 471.281L562.669 438.372L565.78 450.901L612.407 489.677Z" fill="#263238"/>
<path d="M670.999 495.273L682.692 489.008H725.164C725.164 489.008 678.537 485.333 675.405 485.333C672.273 485.333 661.77 489.51 657.594 490.575C653.417 491.639 637.694 491.619 630.866 487.944C624.038 484.269 616.73 469.151 616.73 469.151L679.727 476.25L656.55 470.216L577.328 442.319C570.604 445.284 569.685 453.762 569.56 455.244L570.061 455.662L605.162 467.021L626.565 491.765L670.999 495.273Z" fill="white"/>
<path d="M671.229 496.338L626.063 492.767L604.577 467.919L569.393 456.476L568.495 455.703V455.181C568.62 453.427 569.643 444.553 576.847 441.358L577.223 441.191L656.8 469.172L679.915 475.206L679.539 477.294L618.463 470.425C620.551 474.434 626.168 484.352 631.284 487.129C637.778 490.637 653.042 490.721 657.26 489.656C658.763 489.28 661.206 488.466 663.774 487.568C667.494 486.082 671.367 485.011 675.321 484.373C678.454 484.373 723.347 487.902 725.143 488.048V490.136H682.943L671.229 496.338ZM627.024 490.742L670.874 494.208L682.504 487.944H698.019C687.119 487.108 676.762 486.357 675.363 486.357C671.645 487.03 668.001 488.066 664.484 489.447C661.874 490.324 659.41 491.159 657.802 491.535C653.229 492.684 637.36 492.6 630.344 488.821C623.328 485.041 616.062 470.028 615.727 469.506L614.913 467.814L665.299 473.494L656.257 471.176L577.39 443.446C572.149 446.036 570.938 452.467 570.687 454.764L605.788 466.123L627.024 490.742Z" fill="#263238"/>
<path d="M872.205 488.006L861.304 488.667L861.431 490.751L872.331 490.09L872.205 488.006Z" fill="#263238"/>
<path d="M759.722 493.227L737.066 491.138L737.254 489.05L759.659 491.138C762.207 490.742 801.275 484.874 820.527 486.44C835.394 487.61 847.338 488.528 852.433 488.862L852.287 490.95C847.192 490.596 835.227 489.719 820.36 488.528C800.774 487.004 760.244 493.185 759.805 493.247L759.722 493.227Z" fill="#263238"/>
<path d="M908.435 469.652C906.556 467.564 897.577 462.949 885.466 457.52L883.754 458.126C883.754 458.126 893.171 464.933 891.083 471.74C888.995 478.547 876.467 486.357 876.467 486.357L876.989 497.883C876.989 497.883 907.37 495.795 913.656 488.988C913.677 489.03 915.18 477.503 908.435 469.652Z" fill="white"/>
<path d="M876.007 499.031L875.402 485.835L875.924 485.521C876.049 485.521 888.202 477.795 890.144 471.427C892.002 465.413 883.295 459.024 883.211 458.898L881.582 457.729L885.591 456.33L885.967 456.518C899.79 462.782 907.412 466.791 909.229 468.9C916.265 477.023 914.762 488.612 914.699 489.092V489.426L914.47 489.677C907.997 496.693 878.367 498.823 877.114 498.906L876.007 499.031ZM877.552 486.962L877.991 496.797C883.315 496.359 906.932 494.103 912.674 488.445C912.841 486.545 913.426 476.898 907.642 470.216C906.577 469.005 902.067 466.04 886.761 459.107C889.58 461.759 893.756 466.75 892.169 471.949C890.123 478.422 880.016 485.354 877.594 486.962H877.552Z" fill="#263238"/>
<path d="M896.909 489.029C893.756 485.876 879.62 487.443 879.62 487.443C879.62 487.443 886.427 485.876 890.06 484.832C893.694 483.788 894.237 482.744 895.824 475.394C896.336 473.436 896.207 471.365 895.455 469.486C894.704 467.607 893.369 466.018 891.647 464.954L884.381 457.938L883.796 458.147C883.796 458.147 893.213 464.954 891.125 471.761C889.037 478.568 876.509 486.378 876.509 486.378L877.031 497.904C884.706 497.321 892.336 496.247 899.874 494.688C899.466 492.551 898.435 490.582 896.909 489.029V489.029Z" fill="#263238"/>
<path d="M876.007 499.031L875.402 485.835L875.924 485.521C876.049 485.521 888.202 477.796 890.144 471.427C892.002 465.413 883.295 459.024 883.211 458.898L881.582 457.729L884.673 456.643L892.315 464.035C894.188 465.236 895.636 466.994 896.457 469.062C897.277 471.13 897.428 473.403 896.888 475.561C895.28 482.995 894.612 484.561 890.394 485.772L889.559 486.002C892.921 486.19 896.178 486.774 897.64 488.215C899.316 489.936 900.443 492.116 900.876 494.479L901.064 495.482L900.083 495.711C892.504 497.286 884.832 498.367 877.114 498.948L876.007 499.031ZM877.552 486.962L877.991 496.797C884.904 496.242 891.779 495.28 898.579 493.916C898.145 492.343 897.319 490.906 896.178 489.739V489.739C894.09 487.651 885.007 487.881 879.745 488.466L879.39 486.378C879.39 486.378 886.218 484.791 889.83 483.767C892.837 482.911 893.276 482.515 894.863 475.123C895.284 473.512 895.223 471.812 894.689 470.235C894.154 468.658 893.169 467.272 891.856 466.248C892.607 468.072 892.718 470.096 892.169 471.991C890.123 478.422 880.016 485.354 877.594 486.962H877.552Z" fill="#263238"/>
<path d="M915.18 512.061C915.18 512.061 839.236 523.065 707.248 515.214C707.248 515.214 716.665 527.262 740.24 531.919C763.814 536.575 834.517 535.594 870.662 531.919C906.807 528.244 907.851 525.654 912.027 521.478C913.246 520.26 914.165 518.775 914.712 517.141C915.259 515.507 915.419 513.768 915.18 512.061V512.061Z" fill="#263238"/>
<path d="M795.679 536.158C772.584 536.158 751.286 535.239 740.094 533.005C716.415 528.265 706.872 516.3 706.476 515.861L705.056 514.024L707.373 514.17C837.712 521.917 914.324 511.142 915.096 511.038L916.078 510.892L916.266 511.852C916.558 513.739 916.401 515.669 915.806 517.483C915.211 519.298 914.195 520.946 912.841 522.293L912.298 522.836C908.331 526.866 905.721 529.538 870.829 533.067C852.349 534.884 822.782 536.158 795.679 536.158ZM709.879 516.404C713.554 519.912 723.159 527.471 740.511 531.021C763.021 535.531 832.888 534.842 870.62 531.021C904.76 527.555 907.162 525.112 910.795 521.395L911.359 520.831C912.34 519.852 913.108 518.681 913.615 517.391C914.122 516.101 914.356 514.72 914.303 513.335C904.614 514.504 830.508 523.399 709.879 516.404V516.404Z" fill="#263238"/>
<path d="M932.01 599.009C894.693 604.384 857.09 607.535 819.399 608.447C761.246 609.491 693.153 603.206 682.17 607.403C671.187 611.6 659.64 619.431 654.92 621.017C650.201 622.604 628.214 623.628 628.214 623.628C628.214 623.628 673.776 585.395 692.109 579.632C710.443 573.868 734.539 573.367 741.346 573.367C748.154 573.367 898.475 568.627 906.827 568.105C915.18 567.583 923.532 572.281 926.205 577.543C928.878 582.805 932.01 599.009 932.01 599.009Z" fill="#263238"/>
<path d="M625.165 624.818L627.545 622.73C629.404 621.164 673.483 584.288 691.796 578.525C710.985 572.511 736.439 572.261 741.346 572.261C748.989 572.261 898.976 567.521 906.785 567.02C916.015 566.456 924.534 571.759 927.165 577.021C929.796 582.283 932.887 598.111 933.033 598.779L933.242 599.844L932.156 600.011C894.787 605.36 857.137 608.512 819.399 609.449C793.026 609.909 765.109 608.907 740.365 608.009C711.299 606.944 688.351 606.109 682.525 608.322C676.334 610.877 670.327 613.856 664.546 617.238C661.577 619.051 658.47 620.628 655.254 621.957C650.452 623.565 629.174 624.588 628.255 624.63L625.165 624.818ZM908.143 569.024H906.932C899.101 569.525 748.989 574.265 741.346 574.265C736.481 574.265 711.32 574.558 692.422 580.53C676.908 585.395 640.993 614.377 631.325 622.291C637.589 621.936 651.12 621.059 654.607 619.89C657.692 618.59 660.679 617.068 663.544 615.338C669.407 611.898 675.505 608.877 681.794 606.297C688.058 603.916 711.027 604.772 740.428 605.837C765.088 606.735 793.047 607.737 819.378 607.278C856.647 606.416 893.835 603.404 930.757 598.257C930.005 594.561 927.458 582.388 925.307 578.107C923.156 573.827 915.806 569.024 908.143 569.024Z" fill="#263238"/>
<path d="M640.784 517.824C640.784 517.824 611.969 606.338 608.315 605.294C604.66 604.25 600.985 600.053 600.985 597.965C600.985 595.877 607.793 537.202 613.514 526.218C619.235 515.235 640.784 517.824 640.784 517.824Z" fill="#263238"/>
<path d="M608.503 606.38C608.343 606.402 608.182 606.402 608.022 606.38C603.846 605.211 599.941 600.617 599.941 598.028C599.941 595.438 606.749 536.993 612.616 525.78C618.484 514.567 640.012 516.738 640.91 516.864L642.163 517.01L641.787 518.221C641.787 518.43 634.478 540.605 626.92 562.363C612.804 602.788 610.027 606.38 608.503 606.38ZM635.376 518.68C628.82 518.68 618.129 519.787 614.495 526.761C609.004 537.202 601.967 595.668 601.967 598.028C601.967 599.406 604.848 603.102 608.231 604.292C611.948 600.283 629.008 550.649 639.385 518.847C638.446 518.68 637.047 518.618 635.376 518.618V518.68Z" fill="#263238"/>
<path d="M546.027 506.068L545.296 504.105C546.57 503.646 547.906 503.166 549.326 502.706C558.701 499.574 604.055 489.468 605.997 489.05L606.435 491.138C605.976 491.243 559.244 501.579 550.057 504.711C548.595 505.149 547.259 505.609 546.027 506.068Z" fill="#263238"/>
<path d="M534.396 510.913L533.477 509.033C533.477 509.033 535.231 508.156 538.155 506.945L538.969 508.866C536.108 510.056 534.417 510.892 534.396 510.913Z" fill="#263238"/>
<path d="M530.784 420.937C530.784 420.937 511.991 419.35 503.639 413.065C495.286 406.78 425.085 329.792 425.085 329.792C425.085 329.792 607.354 333.467 628.819 334.511C650.285 335.555 650.306 339.752 674.904 348.647C699.501 357.543 777.575 412.021 777.575 412.021L792.755 422.461C792.755 422.461 756.088 423.505 667.052 421.417C578.016 419.329 530.784 420.937 530.784 420.937Z" fill="#878787"/>
<path d="M763.209 423.798C742.85 423.798 711.341 423.547 666.948 422.503C578.956 420.415 531.222 421.96 530.825 421.981H530.7C529.928 421.981 511.448 420.31 502.929 413.9C494.409 407.49 427.089 333.655 424.229 330.502L422.579 328.706H425.022C426.839 328.706 607.542 332.381 628.799 333.425C643.415 334.135 648.322 336.328 657.28 340.337C661.665 342.279 667.094 344.701 675.175 347.624C699.647 356.478 774.902 408.91 778.076 411.123L795.908 423.422H792.713C792.526 423.547 783.254 423.798 763.209 423.798ZM580.752 419.329C602.656 419.329 631.555 419.58 666.99 420.415C740.532 422.148 778.681 421.73 789.414 421.522L776.886 412.898C776.113 412.334 698.687 358.378 674.569 349.629C666.426 346.684 660.934 344.241 656.528 342.279C647.508 338.269 642.998 336.244 628.799 335.555C608.92 334.594 449.223 331.379 427.507 330.899C438.135 342.508 496.79 406.613 504.286 412.334C512.095 418.181 529.781 419.872 530.93 419.976C532.078 420.081 549.117 419.329 580.752 419.329V419.329Z" fill="#263238"/>
<path d="M460.603 445.033C460.603 445.033 471.607 431.941 471.044 423.025C470.48 414.109 432.832 360.696 413.475 344.993C394.118 329.291 368.957 322.985 354.8 322.985C340.643 322.985 298.755 330.836 272.571 340.796C246.386 350.756 212.35 366.48 212.35 366.48L170.964 393.625C170.964 393.625 221.768 408.826 315.523 422.962C409.278 437.099 460.603 445.033 460.603 445.033Z" fill="#878787"/>
<path d="M461.042 446.14H460.457C459.935 446.14 408.046 438.122 315.377 424.153C222.707 410.183 171.173 394.919 170.672 394.773L168.584 394.147L211.828 365.665C212.309 365.436 246.344 349.754 272.258 339.898C299.11 329.708 340.893 322.024 354.862 322.024C370.189 321.941 395.246 328.894 414.039 344.179C433.312 359.798 471.482 413.274 472.046 422.962C472.589 432.171 461.793 445.159 461.334 445.702L461.042 446.14ZM173.428 393.312C184.098 396.318 233.732 409.64 315.69 422.002C403.055 435.178 454.172 442.883 460.185 443.906C462.065 441.546 470.48 430.584 470.041 423.025C469.561 414.673 432.581 361.761 412.807 345.766C394.369 330.815 369.813 324.008 354.8 324.008C340.977 324.008 299.591 331.63 272.947 341.757C247.096 351.571 213.123 367.231 212.789 367.378L173.428 393.312Z" fill="#263238"/>
<path d="M413.475 344.993C394.098 329.27 368.957 322.985 354.8 322.985C340.643 322.985 298.755 330.836 272.571 340.796C246.386 350.756 212.35 366.48 212.35 366.48L170.964 393.625C170.964 393.625 184.662 397.801 210.889 403.627L233.858 362.721L253.235 352.782L232.605 408.283L236.948 409.181L256.91 352.803C274.722 343.364 326.047 330.794 326.047 330.794C310.846 351.362 299.09 404.712 295.957 419.914C302.222 420.937 308.799 422.002 315.565 422.983L316.63 423.15C317.402 376.711 339.598 329.186 339.598 329.186C339.598 329.186 360.479 327.098 387.27 336.516C403.215 342.13 417.46 351.725 428.655 364.392L414.999 438.101L420.533 438.936L432.33 370.656L448.555 391.077L440.432 441.943L460.603 445.033C460.603 445.033 471.607 431.941 471.044 423.025C470.48 414.109 432.832 360.696 413.475 344.993Z" fill="#263238"/>
<path d="M461.042 446.14L439.242 442.82L447.448 391.37L432.936 373.12L421.368 440.106L413.746 438.957L427.528 364.663C416.449 352.389 402.493 343.061 386.915 337.518C371.986 332.108 356.155 329.626 340.288 330.21C337.844 335.639 318.321 380.136 317.611 423.15V424.341L315.377 423.986C308.59 422.983 302.076 421.897 295.749 420.916L294.684 420.749L294.893 419.684C298.025 404.462 309.071 354.515 323.562 332.465C312.85 335.179 273.135 345.515 257.704 353.513L237.575 410.371L231.164 409.077L251.272 354.932L234.568 363.515L211.494 404.88L210.722 404.712C184.767 398.866 170.86 394.731 170.735 394.69L168.647 394.063L211.891 365.582C212.371 365.352 246.407 349.67 272.32 339.815C299.173 329.625 340.956 321.941 354.925 321.941C370.189 321.941 395.246 328.894 414.039 344.179C433.312 359.798 471.482 413.274 472.046 422.962C472.589 432.171 461.793 445.159 461.334 445.702L461.042 446.14ZM441.643 441.066L460.186 443.906C462.065 441.546 470.48 430.584 470.041 423.025C469.561 414.673 432.581 361.761 412.807 345.766C394.369 330.815 369.813 324.008 354.8 324.008C340.977 324.008 299.591 331.629 272.947 341.757C247.096 351.571 213.123 367.231 212.789 367.377L173.428 393.312C178.21 394.669 190.76 398.072 210.367 402.499L233.064 362.011L255.114 350.694L233.962 407.573L236.217 408.033L256.012 352.114L256.367 351.926C274.095 342.529 323.645 330.335 325.754 329.834L328.552 329.145L326.84 331.462C312.224 351.341 300.677 402.228 297.169 419.162C303.099 420.123 309.231 421.083 315.565 422.044C316.692 376.294 338.534 329.374 338.68 328.894L338.93 328.351H339.515C355.855 327.615 372.179 330.127 387.541 335.743C403.6 341.448 417.962 351.107 429.303 363.828L429.595 364.204L416.043 437.287L419.51 437.809L431.516 368.254L449.495 390.868L441.643 441.066Z" fill="#263238"/>
<path d="M454.318 408.367C454.318 408.367 444.901 400.014 440.182 403.648C437.033 406.468 434.685 410.069 433.374 414.088L423.936 413.023C423.936 413.023 415.584 391.035 409.32 390.513C403.055 389.991 373.175 388.425 366.368 391.035C359.56 393.646 358.516 399.388 358.015 403.084C357.514 406.78 356.449 418.264 361.669 420.895C366.89 423.526 416.148 429.247 416.148 429.247L432.852 435.512L430.221 441.275L460.603 444.95C460.603 444.95 470.041 428.245 471.043 422.941C472.046 417.638 454.318 408.367 454.318 408.367Z" fill="#263238"/>
<path d="M461.167 446.14L428.655 442.214L431.391 436.18L415.793 430.333C412.452 429.936 366.368 424.487 361.106 421.856C355.113 418.87 356.345 406.654 356.93 403.063C357.389 399.826 358.35 393.124 365.971 390.179C373.279 387.381 404.872 389.219 409.382 389.595C415.647 390.117 423.122 408.137 424.709 412.188L432.685 413.086C434.053 409.157 436.421 405.652 439.555 402.917C444.671 398.928 453.838 406.613 454.944 407.573C458.265 409.348 473.257 417.659 472.129 423.317C471.065 428.663 461.919 444.929 461.543 445.618L461.167 446.14ZM431.767 440.502L459.977 443.906C461.668 440.857 469.102 427.201 470 422.816C470.605 419.747 460.875 413.044 453.775 409.285L453.566 409.139C451.123 407.051 444.066 401.914 440.766 404.462C437.791 407.168 435.568 410.6 434.314 414.422L434.043 415.257L423.143 414.046L422.913 413.441C419.76 405.088 413.224 391.933 409.132 391.599C401.949 390.994 373.05 389.511 366.639 392.059C360.229 394.606 359.352 400.223 358.913 403.272C357.995 409.807 358.245 418.118 362.025 419.976C366.201 422.064 402.513 426.658 416.148 428.329H416.398L434.21 435.011L431.767 440.502Z" fill="#263238"/>
<path d="M420.804 415.696L423.936 413.065C423.936 413.065 415.584 391.077 409.32 390.555C403.055 390.033 373.175 388.467 366.368 391.077C359.56 393.687 358.516 399.43 358.015 403.126C357.547 406.375 357.456 409.669 357.744 412.94C372.277 414.171 418.215 417.888 420.804 415.696Z" fill="white"/>
<path d="M412.723 417.387C402.7 417.387 384.263 416.239 357.598 413.983H356.742L356.637 413.127C356.355 409.773 356.446 406.397 356.909 403.063C357.368 399.826 358.329 393.124 365.95 390.179C373.258 387.381 404.851 389.219 409.361 389.595C416.106 390.158 423.978 410.475 424.918 412.793L425.189 413.482L421.472 416.594C420.762 417.095 417.839 417.387 412.723 417.387ZM358.642 411.979C393.763 414.944 417.86 416.155 420.157 414.86L422.704 412.772C419.468 404.42 413.183 391.892 409.194 391.62C402.011 391.015 373.112 389.532 366.702 392.079C360.291 394.627 359.414 400.244 358.976 403.292C358.581 406.17 358.469 409.079 358.642 411.979V411.979Z" fill="#263238"/>
<path d="M438.616 456.539L436.527 455.975C438.24 449.899 439.618 445.785 439.639 445.743L441.622 446.412C441.622 446.412 440.328 450.525 438.616 456.539Z" fill="#263238"/>
<path d="M421.848 605.294C417.944 605.294 239.036 584.539 237.345 584.413C234.115 583.96 231.081 582.599 228.596 580.488L226.508 579.005C221.225 575.497 189.945 489.593 186.834 478.38C186.176 475.798 185.736 473.164 185.518 470.508L187.607 470.299C187.822 472.835 188.241 475.349 188.859 477.817C192.889 492.203 223.396 574.182 227.719 577.272L229.807 578.755C232.032 580.67 234.754 581.915 237.658 582.346C239.328 582.555 418.215 603.227 421.89 603.227C424.855 603.227 425.649 602.726 426.63 597.777C427.173 595.063 427.59 570.214 428.008 546.181C428.363 524.819 428.739 502.706 429.24 493.707C429.989 484.203 431.611 474.788 434.084 465.58L436.173 466.081C433.727 475.158 432.119 484.441 431.37 493.811C430.89 502.79 430.514 524.861 430.159 546.222C429.72 571.467 429.324 595.292 428.739 598.195C427.59 603.436 426.4 605.294 421.848 605.294Z" fill="#263238"/>
<path d="M184.767 460.297C184.299 446.037 184.599 431.762 185.665 417.533C186.187 415.445 196.23 410.016 204.457 405.861L205.397 407.719C197.212 411.896 188.317 416.823 187.586 418.16C186.606 432.169 186.334 446.219 186.771 460.256L184.767 460.297Z" fill="#263238"/>
<path d="M297.106 584.873H295.018V582.242C295.018 581.72 294.684 576.541 294.203 569.379C293.661 561.027 292.888 549.709 292.115 537.473L294.203 537.348C294.955 549.584 295.707 560.985 296.292 569.233C296.876 577.481 297.106 581.761 297.106 582.242V584.873Z" fill="#263238"/>
<path d="M291.176 520.142C289.568 492.391 288.962 475.018 289.338 468.525C290.382 450.797 297.691 427.139 297.691 426.909L299.779 427.535C299.779 427.765 292.47 451.172 291.426 468.65C291.05 475.06 291.656 492.35 293.264 520.017L291.176 520.142Z" fill="#263238"/>
<path d="M212.246 439.208C211.139 444.887 207.945 449.042 205.105 448.5C202.265 447.957 200.929 442.903 201.973 437.224C203.017 431.544 206.149 427.389 209.093 427.932C212.037 428.475 213.353 433.528 212.246 439.208Z" fill="#263238"/>
<path d="M205.627 449.585C205.391 449.606 205.153 449.606 204.917 449.585C203.915 449.284 203.02 448.704 202.336 447.912C201.652 447.121 201.207 446.152 201.054 445.117C200.401 442.482 200.358 439.732 200.929 437.078C202.161 430.814 205.836 426.282 209.281 426.971C212.726 427.661 214.48 433.131 213.248 439.5C212.781 442.173 211.718 444.707 210.137 446.913C209.637 447.671 208.971 448.305 208.19 448.768C207.408 449.232 206.532 449.511 205.627 449.585V449.585ZM208.592 428.934C206.671 428.934 203.998 432.233 202.996 437.412C202.468 439.742 202.468 442.16 202.996 444.491C203.476 446.203 204.29 447.289 205.251 447.476C206.211 447.664 207.339 446.954 208.446 445.555C209.832 443.609 210.76 441.375 211.16 439.02C212.225 433.549 210.784 429.331 208.842 428.955L208.592 428.934Z" fill="#263238"/>
<path d="M211.787 435.22L199.258 433.925C198.719 433.855 198.171 433.897 197.648 434.048C197.126 434.199 196.64 434.456 196.221 434.802C195.802 435.149 195.459 435.578 195.213 436.063C194.966 436.548 194.822 437.078 194.79 437.621C194.724 438.628 195.046 439.623 195.691 440.399C196.336 441.176 197.254 441.676 198.256 441.797L210.784 443.384C211.368 443.446 211.959 443.383 212.517 443.201C213.076 443.019 213.59 442.721 214.025 442.327C214.461 441.933 214.808 441.452 215.045 440.914C215.282 440.377 215.402 439.795 215.399 439.208C215.364 438.224 214.982 437.284 214.321 436.554C213.66 435.825 212.762 435.352 211.787 435.22Z" fill="#92E3A9"/>
<path d="M211.369 444.47C211.154 444.49 210.937 444.49 210.722 444.47L198.193 442.904C196.891 442.756 195.697 442.106 194.867 441.092C194.036 440.079 193.634 438.781 193.745 437.475C193.785 436.802 193.963 436.146 194.269 435.546C194.574 434.946 195 434.415 195.52 433.988C196.032 433.55 196.627 433.22 197.269 433.019C197.912 432.818 198.588 432.75 199.258 432.818L211.787 434.113C212.786 434.212 213.734 434.601 214.515 435.231C215.297 435.862 215.877 436.707 216.185 437.662C216.493 438.618 216.516 439.642 216.25 440.61C215.984 441.579 215.442 442.448 214.689 443.112C213.777 443.943 212.601 444.424 211.369 444.47V444.47ZM198.84 434.948C198.151 434.944 197.484 435.189 196.961 435.637C196.656 435.896 196.407 436.215 196.231 436.574C196.055 436.934 195.955 437.325 195.938 437.725C195.889 438.47 196.125 439.206 196.598 439.783C197.071 440.361 197.745 440.737 198.485 440.836L211.014 442.403C211.421 442.461 211.835 442.438 212.233 442.333C212.631 442.229 213.003 442.046 213.329 441.794C213.654 441.543 213.926 441.229 214.127 440.871C214.329 440.513 214.457 440.118 214.503 439.709C214.549 439.301 214.513 438.887 214.396 438.493C214.279 438.099 214.085 437.732 213.824 437.415C213.562 437.097 213.24 436.835 212.876 436.645C212.512 436.454 212.113 436.339 211.703 436.305V436.305L199.175 435.011L198.84 434.948Z" fill="#263238"/>
<path d="M321.286 453.093C320.012 459.963 316.295 464.996 312.933 464.327C309.572 463.659 308.006 457.541 309.279 450.671C310.553 443.801 314.291 438.769 317.632 439.437C320.973 440.106 322.56 446.224 321.286 453.093Z" fill="#263238"/>
<path d="M313.581 465.434C313.31 465.455 313.038 465.455 312.767 465.434C308.862 464.641 306.878 458.105 308.298 450.567C309.238 445.472 311.514 441.191 314.228 439.375C314.739 438.991 315.323 438.715 315.944 438.564C316.565 438.413 317.211 438.391 317.841 438.498C321.745 439.291 323.729 445.827 322.309 453.365C321.37 458.46 319.094 462.741 316.4 464.557C315.566 465.119 314.586 465.424 313.581 465.434ZM317.026 440.377C316.438 440.411 315.873 440.614 315.398 440.962C313.163 442.465 311.221 446.349 310.344 450.818C309.092 457.562 310.846 462.782 313.184 463.346C313.551 463.401 313.925 463.381 314.284 463.287C314.642 463.194 314.979 463.029 315.272 462.803C317.486 461.3 319.448 457.437 320.305 452.947C321.557 446.203 319.824 440.983 317.465 440.419L317.026 440.377Z" fill="#263238"/>
<path d="M320.743 448.249L306.126 446.683C305.496 446.629 304.861 446.703 304.259 446.9C303.658 447.098 303.103 447.415 302.627 447.832C302.151 448.249 301.764 448.758 301.49 449.329C301.216 449.899 301.06 450.519 301.031 451.152C300.934 452.356 301.298 453.553 302.05 454.499C302.802 455.446 303.886 456.07 305.082 456.247L319.699 458.147C320.385 458.221 321.078 458.148 321.734 457.933C322.389 457.718 322.991 457.365 323.499 456.899C324.007 456.432 324.409 455.863 324.68 455.228C324.95 454.593 325.081 453.908 325.065 453.219V453.219C325.089 452.002 324.66 450.819 323.862 449.901C323.063 448.983 321.951 448.394 320.743 448.249V448.249Z" fill="#92E3A9"/>
<path d="M320.263 459.232H319.532L304.915 457.332C303.45 457.11 302.124 456.339 301.205 455.176C300.287 454.013 299.844 452.545 299.966 451.068C300.016 450.267 300.227 449.485 300.585 448.767C300.944 448.05 301.444 447.412 302.055 446.892C302.629 446.408 303.295 446.046 304.012 445.827C304.73 445.609 305.485 445.537 306.231 445.618L320.847 447.184C322.307 447.355 323.65 448.064 324.615 449.172C325.581 450.28 326.098 451.708 326.068 453.177C326.067 454.044 325.881 454.901 325.521 455.69C325.16 456.479 324.635 457.182 323.979 457.75C322.96 458.677 321.64 459.204 320.263 459.232V459.232ZM305.646 447.706C304.826 447.71 304.033 448.006 303.412 448.541C302.864 449.011 302.459 449.626 302.246 450.316C302.033 451.006 302.02 451.742 302.208 452.439C302.396 453.136 302.777 453.765 303.308 454.254C303.839 454.743 304.498 455.072 305.208 455.202L319.824 457.123C320.338 457.189 320.859 457.142 321.353 456.987C321.846 456.832 322.301 456.573 322.685 456.226C323.11 455.849 323.449 455.386 323.679 454.867C323.91 454.349 324.027 453.786 324.021 453.219C324.049 452.264 323.721 451.332 323.099 450.606C322.477 449.88 321.608 449.412 320.659 449.293L306.043 447.727L305.646 447.706Z" fill="#263238"/>
<path d="M151.065 412.021C151.378 408.513 144.091 404.608 138.37 402.102C133.525 403.877 130.017 406.049 129.057 409.411C127.441 416.998 126.221 424.665 125.402 432.38C125.402 432.38 150.543 417.784 151.065 412.021Z" fill="#263238"/>
<path d="M124.15 434.405L124.358 432.317C125.151 424.539 126.356 416.809 127.971 409.16C129.036 404.879 133.859 402.624 137.931 401.121L138.328 400.975L138.704 401.142C147.975 405.193 152.318 408.784 152.026 412.125C151.483 418.118 130.121 430.918 125.841 433.361L124.15 434.405ZM138.411 403.23C133.421 405.13 130.79 407.176 130.163 409.661C128.668 416.558 127.532 423.527 126.76 430.542C136.302 424.821 149.729 415.57 150.104 412C150.209 409.807 145.866 406.571 138.411 403.23Z" fill="#263238"/>
<path d="M642.121 336.035L545.212 420.624C562.648 420.352 595.64 420.102 643.248 420.958L689.353 355.559C684.649 352.915 679.765 350.605 674.736 348.647C656.737 342.112 651.935 338.102 642.121 336.035Z" fill="white"/>
<path d="M643.729 422.023H643.186C596.935 421.188 564.381 421.375 545.192 421.689H542.331L641.787 334.887L642.309 334.991C647.474 336.203 652.483 338.004 657.239 340.358C661.624 342.3 667.073 344.722 675.133 347.645C680.163 349.625 685.047 351.956 689.75 354.619L690.794 355.183L643.729 422.023ZM580.585 419.329C597.436 419.329 618.17 419.475 642.664 419.914L687.787 355.914C683.48 353.525 679.015 351.432 674.424 349.65C666.28 346.705 660.809 344.262 656.403 342.3C651.919 340.106 647.216 338.391 642.371 337.184L548.011 419.559C556.558 419.42 567.43 419.343 580.627 419.329H580.585Z" fill="#263238"/>
<path d="M733.287 422.607L739.551 386.442C732.389 381.743 724.788 376.836 717.313 372.159L696.286 422.064C710.276 422.336 722.554 422.503 733.287 422.607Z" fill="white"/>
<path d="M734.143 423.651H733.266C721.761 423.526 709.336 423.359 696.328 423.109H694.782L695.367 421.689C702.237 405.402 709.671 387.736 716.415 371.762L716.812 370.656L717.856 371.303C724.747 375.625 732.222 380.449 740.094 385.606L740.679 385.982L734.143 423.651ZM697.894 421.062C710.005 421.271 721.614 421.438 732.41 421.542L738.465 386.943C731.22 382.182 724.287 377.734 717.877 373.683C711.445 388.906 704.429 405.569 697.894 421.062Z" fill="#263238"/>
<path d="M333.006 894.963C375.363 884.81 401.47 842.241 391.316 799.884C381.163 757.527 338.595 731.421 296.237 741.574C253.88 751.728 227.774 794.296 237.927 836.653C248.081 879.01 290.649 905.116 333.006 894.963Z" fill="#263238"/>
<path d="M361.314 823.562H330.369L343.545 724.19L269.439 824.877H300.384L287.229 924.249L361.314 823.562Z" fill="white"/>
<path d="M285.663 928.175L299.194 825.859H267.371L345.132 720.285L331.58 822.601H363.403L285.663 928.175ZM271.506 823.771H301.574L288.753 920.366L359.226 824.606H329.179L341.979 728.074L271.506 823.771Z" fill="#263238"/>
<path opacity="0.22" d="M1088.14 678.947C1139.82 678.947 1181.71 668.76 1181.71 656.195C1181.71 643.629 1139.82 633.443 1088.14 633.443C1036.47 633.443 994.579 643.629 994.579 656.195C994.579 668.76 1036.47 678.947 1088.14 678.947Z" fill="black"/>
<path d="M1030.1 255.129L980.961 325.462C980.961 325.462 973.738 337.628 985.923 347.994C998.108 358.359 1007.98 347.093 1007.98 347.093L1038.17 310.135L1037.27 266.027L1030.1 255.129Z" fill="#263238" stroke="#263238" stroke-width="1.63807" stroke-linecap="round" stroke-linejoin="round"/>
<path d="M1077.43 241.603L1030.1 255.129L1041.26 381.019H1142.69L1167.37 255.239L1113.26 241.051L1083.86 242.062L1077.43 241.603Z" fill="#92E3A9" stroke="#263238" stroke-width="1.63807" stroke-linecap="round" stroke-linejoin="round"/>
<path d="M1147.82 298.446C1147.82 300.856 1147.1 303.212 1145.76 305.216C1144.42 307.219 1142.52 308.781 1140.29 309.703C1138.07 310.626 1135.62 310.867 1133.25 310.397C1130.89 309.927 1128.72 308.766 1127.02 307.062C1125.31 305.358 1124.15 303.187 1123.68 300.823C1123.21 298.46 1123.45 296.01 1124.37 293.783C1125.3 291.557 1126.86 289.654 1128.86 288.315C1130.87 286.976 1133.22 286.261 1135.63 286.261C1138.86 286.261 1141.96 287.545 1144.25 289.83C1146.53 292.115 1147.82 295.215 1147.82 298.446V298.446Z" fill="white"/>
<path d="M1019.28 328.752L1029.9 259.172C1029.9 259.172 1004.04 258.419 1003.69 260.642C1003.35 262.866 975.245 326.638 975.245 326.638C975.245 326.638 972.801 335.092 980.189 343.858C983.02 347.521 986.904 350.231 991.319 351.624C995.734 353.016 1000.47 353.026 1004.89 351.651C1012.98 349.372 1019.28 328.752 1019.28 328.752Z" fill="#92E3A9" stroke="#263238" stroke-width="1.63807" stroke-linecap="round" stroke-linejoin="round"/>
<path d="M996.086 268.931L1033.01 272.68L1032.09 254.063L1001.53 252.574L996.086 268.931Z" fill="white" stroke="#263238" stroke-width="1.63807" stroke-linecap="round" stroke-linejoin="round"/>
<path d="M1123.74 157.67L946.208 285.471C939.59 282.159 932.052 281.162 924.801 282.638C917.549 284.115 911.002 287.981 906.207 293.617C901.411 299.254 898.644 306.336 898.348 313.73C898.052 321.125 900.244 328.405 904.573 334.407C908.903 340.409 915.12 344.786 922.23 346.837C929.341 348.889 936.934 348.498 943.795 345.725C950.657 342.953 956.39 337.96 960.08 331.544C963.769 325.129 965.2 317.662 964.145 310.337L1141.68 182.554C1147.14 185.314 1153.26 186.505 1159.35 185.995C1165.45 185.486 1171.29 183.295 1176.21 179.667C1181.14 176.039 1184.97 171.116 1187.26 165.445C1189.56 159.774 1190.24 153.577 1189.22 147.543L1186.7 145.026L1165.16 164.892L1148.11 141.313L1172.35 123.836C1171.45 123.069 1170.61 122.227 1169.85 121.318C1169.85 121.318 1147.21 118.763 1137.08 126.114C1132.19 129.655 1128.36 134.468 1126.01 140.03C1123.66 145.593 1122.87 151.693 1123.74 157.67V157.67ZM922.537 334.688L909.966 317.247L918.788 297.656L940.161 295.487L952.732 312.91L943.929 332.501L922.537 334.688Z" fill="white" stroke="#263238" stroke-width="1.63807" stroke-linecap="round" stroke-linejoin="round"/>
<path d="M1121.22 155.17L943.69 282.953C937.072 279.641 929.535 278.644 922.283 280.121C915.031 281.597 908.484 285.463 903.689 291.1C898.893 296.736 896.126 303.818 895.83 311.212C895.534 318.607 897.726 325.887 902.056 331.889C906.385 337.891 912.602 342.268 919.712 344.32C926.823 346.371 934.416 345.98 941.277 343.207C948.139 340.435 953.873 335.442 957.562 329.026C961.251 322.611 962.682 315.144 961.627 307.819L1139.16 180.036C1144.62 182.796 1150.74 183.987 1156.84 183.477C1162.93 182.968 1168.77 180.777 1173.7 177.149C1178.62 173.522 1182.45 168.598 1184.74 162.927C1187.04 157.256 1187.72 151.059 1186.7 145.026L1162.63 162.393L1145.63 138.795L1169.87 121.318C1164.47 118.347 1158.35 116.944 1152.19 117.267C1146.04 117.59 1140.09 119.626 1135.03 123.146C1129.97 126.665 1126 131.528 1123.56 137.187C1121.11 142.845 1120.3 149.074 1121.2 155.17H1121.22ZM920.037 332.17L907.467 314.748L916.27 295.193L937.644 293.025L950.214 310.447L941.411 330.057L920.037 332.17Z" fill="white" stroke="#263238" stroke-width="1.63807" stroke-linecap="round" stroke-linejoin="round"/>
<path d="M1167.37 255.239L1195.1 419.227L1169.85 421.929L1148.66 351.614L1167.37 255.239Z" fill="#92E3A9" stroke="#263238" stroke-width="1.63807" stroke-linecap="round" stroke-linejoin="round"/>
<path d="M1161.64 286.923L1153.07 361.979L1148.66 351.614L1161.64 286.923Z" fill="#263238" stroke="#263238" stroke-width="1.63807" stroke-linecap="round" stroke-linejoin="round"/>
<path d="M996.987 236.585C994.359 237.725 991.198 241.988 992.153 242.944C993.513 244.323 997.667 251.141 999.651 250.112C1001.64 249.082 1004.78 246.032 1004.78 244.323C1004.78 242.613 999.266 236.824 999.266 236.806C998.958 236.533 998.571 236.365 998.162 236.325C997.753 236.286 997.341 236.377 996.987 236.585V236.585Z" fill="white" stroke="#263238" stroke-width="1.63807" stroke-linecap="round" stroke-linejoin="round"/>
<path d="M1000.86 225.761C998.236 226.882 995.075 231.164 996.031 232.119C997.391 233.498 1004.21 243.826 1006.27 242.797C1008.33 241.768 1011.38 238.699 1011.38 236.99C1011.38 235.28 1003.22 225.963 1003.2 225.963C1002.88 225.68 1002.49 225.508 1002.07 225.472C1001.64 225.435 1001.22 225.537 1000.86 225.761V225.761Z" fill="white" stroke="#263238" stroke-width="1.63807" stroke-linecap="round" stroke-linejoin="round"/>
<path d="M1008.9 220.027C1006.27 221.148 1003.11 225.43 1004.06 226.386C1005.44 227.746 1012.26 238.074 1014.3 237.045C1016.34 236.016 1019.43 232.965 1019.43 231.256C1019.43 229.547 1011.25 220.229 1011.23 220.229C1010.91 219.947 1010.52 219.774 1010.1 219.738C1009.68 219.701 1009.25 219.803 1008.9 220.027V220.027Z" fill="white" stroke="#263238" stroke-width="1.63807" stroke-linecap="round" stroke-linejoin="round"/>
<path d="M1018.38 216.425C1015.75 217.564 1012.59 221.828 1013.55 222.802C1014.91 224.162 1021.74 234.49 1023.78 233.461C1025.82 232.432 1028.89 229.363 1028.89 227.654C1028.89 225.944 1020.73 216.627 1020.71 216.627C1020.4 216.344 1020 216.172 1019.58 216.136C1019.16 216.099 1018.74 216.201 1018.38 216.425V216.425Z" fill="white" stroke="#263238" stroke-width="1.63807" stroke-linecap="round" stroke-linejoin="round"/>
<path d="M1036.74 431.394H1042.78L1041.37 377.748H1036.89C1033.41 377.748 1030.08 379.128 1027.62 381.586C1025.16 384.043 1023.78 387.376 1023.78 390.851V418.419C1023.77 420.125 1024.09 421.817 1024.74 423.397C1025.38 424.977 1026.34 426.412 1027.54 427.619C1028.75 428.827 1030.18 429.783 1031.76 430.43C1033.34 431.078 1035.03 431.406 1036.74 431.394V431.394Z" fill="white" stroke="#263238" stroke-width="1.63807" stroke-linecap="round" stroke-linejoin="round"/>
<path d="M1041.37 389.932H1037.69C1035.81 389.932 1034 390.682 1032.67 392.016C1031.33 393.349 1030.58 395.158 1030.58 397.045V411.104C1030.58 412.912 1029.86 414.647 1028.58 415.925C1027.31 417.204 1025.57 417.922 1023.76 417.922V417.922" stroke="#263238" stroke-width="1.63807" stroke-linecap="round" stroke-linejoin="round"/>
<path d="M1041.37 387.672C1041.37 387.672 1045.05 527.879 1045.05 530.58C1045.05 533.282 1050.91 620.743 1050.91 620.743C1049.75 624.432 1048.85 628.196 1048.21 632.009C1048.59 635.059 1049.21 638.075 1050.04 641.033H1088.36L1092.42 438.157L1096.49 641.492H1133.41C1133.41 641.492 1135.67 622.544 1134.31 619.843C1133.45 618.089 1132.7 616.285 1132.07 614.44L1145.13 475.575L1142.87 387.672H1041.37Z" fill="white" stroke="#263238" stroke-width="1.63807" stroke-linecap="round" stroke-linejoin="round"/>
<path d="M1044.53 501.727H1065.26V514.812H1052.19" stroke="#263238" stroke-width="1.63807" stroke-linecap="round" stroke-linejoin="round"/>
<path d="M1065.26 514.812V563.036H1049.49" stroke="#263238" stroke-width="1.63807" stroke-linecap="round" stroke-linejoin="round"/>
<path d="M1141.46 501.727H1120.71V514.812H1133.79" stroke="#263238" stroke-width="1.63807" stroke-linecap="round" stroke-linejoin="round"/>
<path d="M1120.71 514.812V563.036H1136.49" stroke="#263238" stroke-width="1.63807" stroke-linecap="round" stroke-linejoin="round"/>
<path d="M1142.8 375.947H1041.37V389.914H1142.8V375.947Z" fill="#263238" stroke="#263238" stroke-width="1.63807" stroke-linecap="round" stroke-linejoin="round"/>
<path d="M1102.24 375.947H1081.95V389.914H1102.24V375.947Z" fill="white" stroke="#263238" stroke-width="1.63807" stroke-linecap="round" stroke-linejoin="round"/>
<path d="M1070.22 373.778H1061.2V388.793H1070.22V373.778Z" fill="white" stroke="#263238" stroke-width="1.63807" stroke-linecap="round" stroke-linejoin="round"/>
<path d="M1137.4 374.624H1130.63V407.539H1137.4V374.624Z" fill="white" stroke="#263238" stroke-width="1.63807" stroke-linecap="round" stroke-linejoin="round"/>
<path d="M1081.49 434.114L1097.72 439.057" stroke="#263238" stroke-width="1.63807" stroke-linecap="round" stroke-linejoin="round"/>
<path d="M1088.71 637.027H1075.63C1075.63 637.027 1071.12 623.059 1063 623.96C1054.88 624.86 1054.44 636.126 1054.44 636.126C1054.44 636.126 1031.91 650.553 1030.55 653.254C1029.19 655.956 1030.55 661.819 1030.55 661.819H1088.8L1088.71 637.027Z" fill="#92E3A9" stroke="#263238" stroke-width="1.63807" stroke-linecap="round" stroke-linejoin="round"/>
<path d="M1030.49 661.763H1088.75V655.974H1029.94C1029.9 657.919 1030.08 659.861 1030.49 661.763V661.763Z" fill="white" stroke="#263238" stroke-width="1.63807" stroke-linecap="round" stroke-linejoin="round"/>
<path d="M1095.86 637.027H1108.93C1108.93 637.027 1113.43 623.059 1121.55 623.96C1129.68 624.86 1130.12 636.126 1130.12 636.126C1130.12 636.126 1152.65 650.553 1154.01 653.254C1155.37 655.956 1154.01 661.819 1154.01 661.819H1095.75L1095.86 637.027Z" fill="#92E3A9" stroke="#263238" stroke-width="1.63807" stroke-linecap="round" stroke-linejoin="round"/>
<path d="M1154.01 661.763H1095.75V655.974H1154.56C1154.59 657.919 1154.41 659.86 1154.01 661.763V661.763Z" fill="white" stroke="#263238" stroke-width="1.63807" stroke-linecap="round" stroke-linejoin="round"/>
<path d="M1080.61 388.131H1050.39V419.687H1080.61V388.131Z" fill="white" stroke="#263238" stroke-width="1.63807" stroke-linecap="round" stroke-linejoin="round"/>
<path d="M1077.43 403.9C1077.43 406.263 1076.73 408.575 1075.42 410.542C1074.11 412.508 1072.25 414.042 1070.07 414.949C1067.88 415.856 1065.48 416.096 1063.16 415.637C1060.84 415.178 1058.71 414.042 1057.04 412.372C1055.37 410.702 1054.23 408.573 1053.77 406.255C1053.3 403.938 1053.54 401.535 1054.44 399.351C1055.35 397.167 1056.88 395.3 1058.84 393.987C1060.81 392.673 1063.12 391.972 1065.48 391.972C1068.65 391.972 1071.68 393.228 1073.92 395.465C1076.16 397.701 1077.42 400.735 1077.43 403.9Z" fill="white" stroke="#263238" stroke-width="1.63807" stroke-linecap="round" stroke-linejoin="round"/>
<path d="M1071.75 403.9C1071.75 405.14 1071.39 406.354 1070.7 407.387C1070.02 408.42 1069.04 409.226 1067.89 409.703C1066.75 410.18 1065.49 410.307 1064.27 410.067C1063.05 409.827 1061.94 409.232 1061.06 408.356C1060.18 407.48 1059.58 406.364 1059.34 405.148C1059.09 403.932 1059.22 402.671 1059.69 401.524C1060.16 400.378 1060.97 399.398 1062 398.709C1063.03 398.019 1064.24 397.651 1065.48 397.651C1067.14 397.651 1068.73 398.309 1069.91 399.48C1071.08 400.652 1071.74 402.241 1071.75 403.9V403.9Z" fill="white" stroke="#263238" stroke-width="1.63807" stroke-linecap="round" stroke-linejoin="round"/>
<path d="M1068.02 403.9C1068.05 404.25 1068 404.602 1067.89 404.935C1067.78 405.267 1067.6 405.572 1067.36 405.831C1067.12 406.09 1066.83 406.296 1066.51 406.438C1066.19 406.579 1065.84 406.652 1065.49 406.652C1065.14 406.652 1064.79 406.579 1064.47 406.438C1064.15 406.296 1063.86 406.09 1063.62 405.831C1063.39 405.572 1063.2 405.267 1063.09 404.935C1062.98 404.602 1062.93 404.25 1062.96 403.9C1063.02 403.267 1063.31 402.677 1063.78 402.248C1064.24 401.818 1064.86 401.579 1065.49 401.579C1066.13 401.579 1066.74 401.818 1067.21 402.248C1067.67 402.677 1067.96 403.267 1068.02 403.9V403.9Z" fill="white" stroke="#263238" stroke-width="1.63807" stroke-linecap="round" stroke-linejoin="round"/>
<path d="M1077.78 237.394L1073.72 240.739C1071.83 242.285 1070.35 244.261 1069.39 246.5C1068.43 248.738 1068.02 251.175 1068.2 253.604L1070.04 278.028C1070.04 278.028 1086.58 266.523 1090.38 265.347C1094.19 264.171 1106.59 263.509 1106.59 263.509L1130.78 276.484C1130.78 276.484 1132.05 255.129 1129.09 245.995C1126.13 236.861 1120.45 232.542 1118.06 232.542C1115.67 232.542 1077.78 237.394 1077.78 237.394Z" fill="white" stroke="#263238" stroke-width="1.63807" stroke-linecap="round" stroke-linejoin="round"/>
<path d="M1064.21 184.924C1063.77 186.957 1063.67 189.052 1063.92 191.118C1064.51 192.956 1065.39 195.235 1065.39 195.235C1065.39 195.235 1057.73 202.586 1058.61 204.681C1059.49 206.776 1063.92 209.404 1063.92 209.404C1063.92 209.404 1060.96 232.395 1061.84 234.159C1062.73 235.924 1075.41 234.454 1075.41 234.454C1075.41 234.454 1078.36 247.429 1082.19 254.798C1086.01 262.168 1098.73 274.261 1101.06 273.967C1103.4 273.672 1116.11 255.092 1117.6 252.152C1119.09 249.211 1120.84 238.295 1120.84 234.159C1120.45 229.306 1119.76 224.482 1118.78 219.714C1118.78 219.714 1127.97 195.235 1128.21 190.824C1128.45 186.413 1101.06 173.99 1089.3 171.343C1077.54 168.697 1070.72 173.695 1068.35 176.36C1066.51 178.967 1065.11 181.861 1064.21 184.924Z" fill="white" stroke="#263238" stroke-width="1.63807" stroke-linecap="round" stroke-linejoin="round"/>
<path d="M1118.71 219.696C1118.71 219.696 1127.89 195.216 1128.13 190.805C1128.39 187.13 1110.12 178.253 1097 173.659L1096.3 183.436L1096.6 187.259L1096.01 198.469L1101.3 199.351C1101.3 199.351 1103.97 192 1107.49 191.1C1111.02 190.199 1114.57 198.451 1114.57 203.78C1114.57 209.11 1108.08 213.797 1106.32 213.797H1103.38C1103.38 213.797 1110.07 221.809 1118.87 220.523C1118.82 220.008 1118.71 219.696 1118.71 219.696Z" fill="#263238" stroke="#263238" stroke-width="1.63807" stroke-linecap="round" stroke-linejoin="round"/>
<path d="M1060.67 201.116L1088.99 199.645V190.217L1060.96 187.258C1060.96 187.258 1058.31 196.411 1060.67 201.116Z" stroke="#263238" stroke-width="1.63807" stroke-linecap="round" stroke-linejoin="round"/>
<path d="M1096.36 196.117L1102.68 196.981L1104.31 194.04L1088.99 190.218V199.645L1095.38 199.498L1096.36 196.117Z" fill="#92E3A9" stroke="#263238" stroke-width="1.63807" stroke-linecap="round" stroke-linejoin="round"/>
<path d="M1073.94 194.922C1073.94 196.392 1073.35 197.587 1072.61 197.587C1071.88 197.587 1071.29 196.392 1071.29 194.922C1071.29 193.452 1071.88 192.276 1072.61 192.276C1073.35 192.276 1073.94 193.47 1073.94 194.922Z" fill="#263238" stroke="#263238" stroke-width="1.63807" stroke-linecap="round" stroke-linejoin="round"/>
<path d="M1075.42 234.435L1088.67 232.377L1078.36 243.882L1075.42 234.435Z" fill="#263238" stroke="#263238" stroke-width="1.63807" stroke-linecap="round" stroke-linejoin="round"/>
<path d="M1068.04 210.856C1068.04 210.856 1076.01 211.15 1081.01 205.839" stroke="#263238" stroke-width="1.63807" stroke-linecap="round" stroke-linejoin="round"/>
<path d="M1063.92 181.359L1128.79 195.51C1128.79 195.51 1132.32 181.653 1132.32 174.872C1132.32 168.09 1114.04 153.645 1103.14 150.98C1092.24 148.315 1069.23 157.468 1067.45 161.584C1065.67 165.701 1063.92 181.359 1063.92 181.359Z" fill="#92E3A9" stroke="#263238" stroke-width="1.63807" stroke-linecap="round" stroke-linejoin="round"/>
<path d="M1063.92 181.359C1063.92 181.359 1036 178.713 1036 180.771C1036 182.829 1046.61 189.335 1055.45 190.217C1064.29 191.1 1080.81 185.2 1080.81 185.2L1063.92 181.359Z" fill="#92E3A9" stroke="#263238" stroke-width="1.63807" stroke-linecap="round" stroke-linejoin="round"/>
<path d="M1179.32 463.408H1198.25V483.698" stroke="#263238" stroke-width="6.55229" stroke-linecap="round" stroke-linejoin="round"/>
<path d="M1175.25 428.692C1175.25 428.692 1176.17 435.455 1174.35 436.356C1172.53 437.256 1161.29 448.54 1161.29 450.782C1161.29 453.025 1165.35 463.408 1167.15 467.01C1168.95 470.612 1171.21 472.873 1173.01 472.873C1177.82 472.093 1182.51 470.729 1186.98 468.811C1189.24 467.47 1196 441.244 1196 437.256C1195.58 433.259 1194.67 429.328 1193.3 425.549L1175.25 428.692Z" fill="white" stroke="#263238" stroke-width="1.63807" stroke-linecap="round" stroke-linejoin="round"/>
<path d="M1169.41 454.385C1171.33 455.836 1172.9 457.709 1173.99 459.859C1175.08 462.009 1175.66 464.38 1175.7 466.79" stroke="#263238" stroke-width="1.63807" stroke-linecap="round" stroke-linejoin="round"/>
<path d="M1172.7 463.408H1155.88V483.698" stroke="#263238" stroke-width="6.55229" stroke-linecap="round" stroke-linejoin="round"/>
<path d="M1139.12 483.698H1214.95C1216.66 483.698 1218.36 484.035 1219.94 484.691C1221.53 485.347 1222.97 486.308 1224.18 487.519C1225.39 488.731 1226.35 490.17 1227.01 491.753C1227.66 493.336 1228 495.033 1228 496.746V559.434H1128.76V493.989C1128.76 492.632 1129.03 491.287 1129.55 490.034C1130.07 488.78 1130.83 487.643 1131.8 486.686C1132.76 485.729 1133.9 484.973 1135.16 484.46C1136.42 483.947 1137.77 483.688 1139.12 483.698Z" fill="#5E5E5E" stroke="#263238" stroke-width="1.63807" stroke-linecap="round" stroke-linejoin="round"/>
<path d="M1157.15 483.698H1214.95C1216.67 483.698 1218.36 484.035 1219.94 484.691C1221.53 485.347 1222.97 486.308 1224.18 487.52C1225.39 488.731 1226.35 490.17 1227.01 491.753C1227.66 493.336 1228 495.033 1228 496.746V559.434H1146.86V493.99C1146.86 491.26 1147.94 488.642 1149.87 486.712C1151.81 484.782 1154.42 483.698 1157.15 483.698V483.698Z" fill="#263238" stroke="#263238" stroke-width="1.63807" stroke-linecap="round" stroke-linejoin="round"/>
<path d="M1187.88 510.217H1187.99C1188.6 510.217 1189.18 510.459 1189.61 510.89C1190.05 511.321 1190.29 511.905 1190.29 512.515V516.65H1185.58V512.515C1185.58 511.905 1185.82 511.321 1186.26 510.89C1186.69 510.459 1187.27 510.217 1187.88 510.217Z" fill="#263238" stroke="#263238" stroke-width="1.63807" stroke-linecap="round" stroke-linejoin="round"/>
<path d="M1182.92 510.566C1182.81 510.568 1182.71 510.533 1182.62 510.466C1182.54 510.398 1182.48 510.304 1182.46 510.199L1181.34 504.887C1181.32 504.828 1181.32 504.767 1181.33 504.707C1181.34 504.647 1181.37 504.59 1181.4 504.539C1181.43 504.488 1181.47 504.443 1181.52 504.409C1181.57 504.374 1181.63 504.349 1181.69 504.336C1181.75 504.323 1181.81 504.321 1181.87 504.331C1181.93 504.341 1181.98 504.363 1182.04 504.396C1182.09 504.428 1182.13 504.471 1182.17 504.52C1182.2 504.57 1182.23 504.626 1182.24 504.685L1183.38 510.015C1183.4 510.137 1183.37 510.262 1183.31 510.365C1183.24 510.467 1183.13 510.54 1183.01 510.566H1182.92Z" fill="#263238"/>
<path d="M1185.99 512.184H1185.86L1182.79 510.346C1182.75 510.302 1182.72 510.242 1182.72 510.181C1182.72 510.119 1182.75 510.06 1182.79 510.015C1182.81 509.995 1182.83 509.978 1182.86 509.967C1182.89 509.956 1182.92 509.95 1182.95 509.95C1182.97 509.95 1183 509.956 1183.03 509.967C1183.06 509.978 1183.08 509.995 1183.1 510.015L1186.17 511.853C1186.22 511.887 1186.26 511.94 1186.28 512.001C1186.3 512.062 1186.29 512.127 1186.26 512.184C1186.22 512.21 1186.17 512.224 1186.13 512.224C1186.08 512.224 1186.03 512.21 1185.99 512.184V512.184Z" fill="#263238"/>
<path d="M1177.39 517.569C1177.25 517.536 1177.11 517.547 1176.98 517.6C1176.85 517.653 1176.74 517.745 1176.67 517.863L1173.36 524.093C1173.29 524.237 1173.27 524.405 1173.32 524.56C1173.37 524.715 1173.48 524.844 1173.62 524.92C1173.76 524.995 1173.93 525.011 1174.09 524.963C1174.24 524.914 1174.37 524.806 1174.45 524.663L1177.74 518.432C1177.77 518.364 1177.8 518.288 1177.81 518.21C1177.82 518.132 1177.81 518.053 1177.79 517.978C1177.76 517.902 1177.73 517.832 1177.68 517.771C1177.63 517.711 1177.57 517.66 1177.5 517.624L1177.39 517.569Z" fill="#263238"/>
<path d="M1181.78 516.723C1181.72 516.714 1181.67 516.714 1181.61 516.723L1177.13 517.918C1177.09 517.926 1177.05 517.942 1177.02 517.966C1176.99 517.99 1176.96 518.02 1176.94 518.055C1176.92 518.09 1176.91 518.129 1176.91 518.168C1176.91 518.208 1176.91 518.248 1176.93 518.285C1176.94 518.325 1176.95 518.362 1176.98 518.394C1177 518.427 1177.03 518.454 1177.06 518.475C1177.1 518.496 1177.14 518.509 1177.18 518.515C1177.22 518.52 1177.26 518.517 1177.29 518.506L1181.76 517.311C1181.8 517.303 1181.84 517.286 1181.87 517.263C1181.9 517.24 1181.93 517.21 1181.95 517.175C1181.97 517.141 1181.98 517.102 1181.99 517.063C1181.99 517.023 1181.99 516.982 1181.98 516.944C1181.97 516.894 1181.94 516.849 1181.9 516.811C1181.87 516.773 1181.83 516.743 1181.78 516.723V516.723Z" fill="#263238"/>
<path d="M1176.36 524.203C1176.22 524.194 1176.09 524.234 1175.97 524.314C1175.86 524.395 1175.78 524.512 1175.75 524.644L1173.91 531.444C1173.89 531.52 1173.88 531.6 1173.89 531.678C1173.9 531.757 1173.93 531.833 1173.97 531.902C1174.01 531.97 1174.06 532.03 1174.12 532.078C1174.19 532.126 1174.26 532.16 1174.34 532.179C1174.41 532.201 1174.49 532.208 1174.57 532.198C1174.65 532.189 1174.72 532.164 1174.79 532.124C1174.86 532.085 1174.92 532.032 1174.97 531.969C1175.02 531.906 1175.05 531.833 1175.07 531.756L1176.91 524.975C1176.93 524.898 1176.94 524.817 1176.93 524.737C1176.92 524.657 1176.89 524.58 1176.85 524.51C1176.82 524.44 1176.76 524.378 1176.7 524.329C1176.64 524.279 1176.56 524.243 1176.49 524.221L1176.36 524.203Z" fill="#263238"/>
<path d="M1180.46 522.365C1180.4 522.348 1180.34 522.348 1180.29 522.365L1176.19 524.516C1176.16 524.534 1176.13 524.558 1176.1 524.589C1176.07 524.619 1176.06 524.653 1176.04 524.691C1176.03 524.729 1176.03 524.768 1176.03 524.807C1176.03 524.847 1176.05 524.885 1176.06 524.92C1176.08 524.955 1176.11 524.986 1176.14 525.011C1176.17 525.037 1176.2 525.056 1176.24 525.068C1176.28 525.08 1176.32 525.084 1176.35 525.081C1176.39 525.078 1176.43 525.067 1176.47 525.048L1180.57 522.898C1180.6 522.881 1180.63 522.856 1180.66 522.826C1180.68 522.796 1180.7 522.761 1180.72 522.724C1180.73 522.686 1180.73 522.646 1180.73 522.606C1180.73 522.567 1180.71 522.529 1180.69 522.494C1180.67 522.452 1180.64 522.418 1180.59 522.396C1180.55 522.373 1180.5 522.362 1180.46 522.365Z" fill="#263238"/>
<path d="M1179.22 527.989C1179.09 527.983 1178.95 528.023 1178.84 528.103C1178.72 528.183 1178.64 528.298 1178.6 528.43L1176.76 535.23C1176.73 535.386 1176.75 535.549 1176.84 535.685C1176.92 535.822 1177.05 535.922 1177.2 535.965C1177.28 535.987 1177.36 535.994 1177.44 535.984C1177.52 535.975 1177.59 535.95 1177.66 535.91C1177.73 535.871 1177.79 535.818 1177.84 535.755C1177.88 535.692 1177.92 535.619 1177.94 535.543L1179.78 528.761C1179.82 528.605 1179.79 528.44 1179.72 528.299C1179.64 528.159 1179.51 528.054 1179.35 528.007L1179.22 527.989Z" fill="#263238"/>
<path d="M1183.3 526.151C1183.26 526.134 1183.2 526.134 1183.16 526.151L1179.04 528.301C1178.97 528.344 1178.92 528.411 1178.9 528.49C1178.88 528.569 1178.89 528.653 1178.93 528.724C1178.95 528.76 1178.97 528.791 1179 528.817C1179.03 528.843 1179.07 528.863 1179.1 528.875C1179.14 528.887 1179.18 528.891 1179.22 528.887C1179.26 528.883 1179.3 528.872 1179.33 528.853L1183.43 526.703C1183.5 526.66 1183.55 526.594 1183.58 526.516C1183.6 526.438 1183.6 526.354 1183.56 526.28C1183.53 526.238 1183.49 526.204 1183.45 526.182C1183.4 526.159 1183.35 526.149 1183.3 526.151V526.151Z" fill="#263238"/>
<path d="M1198.23 517.569C1198.36 517.534 1198.5 517.545 1198.63 517.598C1198.75 517.651 1198.86 517.744 1198.93 517.863L1202.23 524.093C1202.27 524.163 1202.29 524.239 1202.3 524.318C1202.31 524.397 1202.3 524.477 1202.28 524.552C1202.25 524.628 1202.21 524.698 1202.16 524.758C1202.11 524.818 1202.05 524.867 1201.98 524.902C1201.91 524.94 1201.83 524.964 1201.75 524.973C1201.68 524.982 1201.6 524.975 1201.52 524.953C1201.45 524.931 1201.38 524.893 1201.32 524.844C1201.25 524.794 1201.2 524.732 1201.17 524.663L1197.86 518.432C1197.82 518.363 1197.8 518.286 1197.79 518.207C1197.78 518.128 1197.79 518.049 1197.82 517.973C1197.84 517.898 1197.88 517.828 1197.93 517.768C1197.98 517.708 1198.05 517.659 1198.12 517.624L1198.23 517.569Z" fill="#263238"/>
<path d="M1193.83 516.723C1193.89 516.714 1193.95 516.714 1194 516.723L1198.47 517.918C1198.5 517.927 1198.54 517.945 1198.57 517.968C1198.6 517.992 1198.63 518.022 1198.65 518.056C1198.67 518.09 1198.69 518.128 1198.69 518.167C1198.7 518.207 1198.7 518.247 1198.69 518.285C1198.68 518.324 1198.66 518.36 1198.64 518.392C1198.61 518.424 1198.58 518.451 1198.55 518.472C1198.51 518.492 1198.48 518.506 1198.44 518.512C1198.4 518.518 1198.36 518.516 1198.32 518.506L1193.83 517.311C1193.8 517.303 1193.76 517.286 1193.73 517.263C1193.69 517.24 1193.67 517.21 1193.64 517.175C1193.62 517.141 1193.61 517.102 1193.61 517.063C1193.6 517.023 1193.6 516.982 1193.61 516.944C1193.63 516.892 1193.66 516.844 1193.7 516.806C1193.74 516.767 1193.78 516.739 1193.83 516.723V516.723Z" fill="#263238"/>
<path d="M1199.24 524.203C1199.38 524.194 1199.51 524.232 1199.63 524.313C1199.74 524.393 1199.83 524.51 1199.86 524.644L1201.7 531.444C1201.72 531.521 1201.73 531.602 1201.72 531.681C1201.71 531.76 1201.68 531.837 1201.64 531.906C1201.56 532.045 1201.42 532.147 1201.27 532.188C1201.11 532.23 1200.95 532.208 1200.81 532.127C1200.67 532.046 1200.57 531.913 1200.52 531.757L1198.69 524.975C1198.65 524.819 1198.67 524.654 1198.75 524.513C1198.83 524.373 1198.96 524.269 1199.11 524.222L1199.24 524.203Z" fill="#263238"/>
<path d="M1195.16 522.365C1195.21 522.347 1195.26 522.347 1195.31 522.365L1199.42 524.516C1199.46 524.533 1199.49 524.558 1199.51 524.588C1199.54 524.618 1199.56 524.653 1199.57 524.69C1199.58 524.728 1199.59 524.768 1199.58 524.807C1199.58 524.847 1199.57 524.885 1199.55 524.92C1199.51 524.99 1199.44 525.041 1199.36 525.065C1199.29 525.089 1199.2 525.083 1199.13 525.049L1195.03 522.898C1194.99 522.881 1194.96 522.856 1194.94 522.826C1194.91 522.796 1194.89 522.761 1194.88 522.724C1194.87 522.686 1194.86 522.646 1194.87 522.607C1194.87 522.567 1194.88 522.529 1194.9 522.494C1194.93 522.451 1194.97 522.416 1195.01 522.393C1195.06 522.371 1195.11 522.361 1195.16 522.365V522.365Z" fill="#263238"/>
<path d="M1196.37 527.989C1196.51 527.98 1196.65 528.018 1196.76 528.099C1196.88 528.179 1196.96 528.296 1197 528.43L1198.83 535.23C1198.87 535.383 1198.85 535.546 1198.77 535.684C1198.69 535.821 1198.56 535.922 1198.41 535.965C1198.33 535.99 1198.25 535.999 1198.17 535.99C1198.1 535.982 1198.02 535.958 1197.95 535.918C1197.88 535.878 1197.82 535.824 1197.77 535.759C1197.73 535.694 1197.69 535.621 1197.68 535.542L1195.84 528.761C1195.82 528.684 1195.81 528.603 1195.82 528.523C1195.83 528.443 1195.85 528.366 1195.89 528.296C1195.93 528.225 1195.98 528.164 1196.05 528.114C1196.11 528.065 1196.18 528.028 1196.26 528.007L1196.37 527.989Z" fill="#263238"/>
<path d="M1192.22 526.151C1192.27 526.133 1192.33 526.133 1192.38 526.151L1196.48 528.302C1196.55 528.344 1196.6 528.41 1196.63 528.488C1196.65 528.566 1196.64 528.65 1196.61 528.724C1196.59 528.76 1196.57 528.792 1196.54 528.817C1196.51 528.843 1196.47 528.863 1196.44 528.875C1196.4 528.887 1196.36 528.891 1196.32 528.887C1196.28 528.884 1196.24 528.872 1196.21 528.853L1192.22 526.758C1192.15 526.716 1192.1 526.649 1192.07 526.571C1192.05 526.493 1192.05 526.409 1192.09 526.335C1192.11 526.259 1192.15 526.193 1192.22 526.151Z" fill="#263238"/>
<path d="M1193.25 510.566H1193.14C1193.02 510.536 1192.92 510.462 1192.85 510.36C1192.79 510.257 1192.76 510.134 1192.79 510.015L1193.91 504.685C1193.95 504.582 1194.03 504.497 1194.13 504.445C1194.23 504.393 1194.34 504.378 1194.45 504.402C1194.56 504.426 1194.66 504.488 1194.73 504.577C1194.8 504.665 1194.83 504.776 1194.83 504.888L1193.69 510.217C1193.66 510.316 1193.61 510.404 1193.53 510.467C1193.45 510.53 1193.35 510.565 1193.25 510.566V510.566Z" fill="#263238"/>
<path d="M1190.18 512.184C1190.14 512.188 1190.1 512.18 1190.06 512.16C1190.02 512.141 1189.99 512.11 1189.98 512.074C1189.93 512.029 1189.91 511.97 1189.91 511.908C1189.91 511.847 1189.93 511.787 1189.98 511.743L1193.04 509.905C1193.09 509.862 1193.15 509.839 1193.21 509.839C1193.27 509.839 1193.33 509.862 1193.38 509.905C1193.41 509.951 1193.44 510.01 1193.44 510.07C1193.44 510.131 1193.41 510.189 1193.38 510.236L1190.31 512.074L1190.18 512.184Z" fill="#263238"/>
<path d="M1187.92 517.679V513.985" stroke="#263238" stroke-width="1.63807" stroke-miterlimit="10"/>
<path d="M1165.79 416.066L1172.11 430.953L1198.25 429.593L1200.06 412.464L1165.79 416.066Z" fill="white" stroke="#263238" stroke-width="1.63807" stroke-linecap="round" stroke-linejoin="round"/>
<path d="M1175.03 431.394L1195.1 432.533L1193.96 429.593L1175.03 431.394Z" fill="#263238" stroke="#263238" stroke-width="1.63807" stroke-linecap="round" stroke-linejoin="round"/>
<circle opacity="0.9" cx="1181.33" cy="519.869" r="9.99243" fill="url(#paint0_linear_119_1816)"/>
<circle opacity="0.9" cx="1187.32" cy="525.365" r="9.99243" fill="url(#paint1_linear_119_1816)"/>
<defs>
<linearGradient id="paint0_linear_119_1816" x1="1171.91" y1="522.467" x2="1191.32" y2="522.396" gradientUnits="userSpaceOnUse">
<stop stop-color="#2CD59F"/>
<stop offset="0.15625" stop-color="#1DCF96"/>
<stop offset="0.432292" stop-color="#53A9DA"/>
<stop offset="0.838542" stop-color="#5D5FEF"/>
<stop offset="0.958333" stop-color="#7879F1"/>
</linearGradient>
<linearGradient id="paint1_linear_119_1816" x1="1177.9" y1="527.963" x2="1197.31" y2="527.891" gradientUnits="userSpaceOnUse">
<stop stop-color="#2CD59F"/>
<stop offset="0.15625" stop-color="#1DCF96"/>
<stop offset="0.432292" stop-color="#53A9DA"/>
<stop offset="0.838542" stop-color="#5D5FEF"/>
<stop offset="0.958333" stop-color="#7879F1"/>
</linearGradient>
</defs>
</svg>
