<svg width="2040" height="1319" viewBox="0 0 2040 1319" fill="none" xmlns="http://www.w3.org/2000/svg">
<path d="M1661.25 411.17H715.462V1267.39H1661.25V411.17Z" fill="#263238" stroke="#263238" stroke-width="2" stroke-miterlimit="10" stroke-linecap="round"/>
<path d="M822.729 412.959H779.42V1265.25H822.729V412.959Z" fill="#C9C9C9" stroke="#263238" stroke-width="2" stroke-miterlimit="10" stroke-linecap="round"/>
<path d="M863.975 412.959H820.667V1265.25H863.975V412.959Z" fill="#BABABA" stroke="#263238" stroke-width="2" stroke-miterlimit="10" stroke-linecap="round"/>
<path d="M905.198 412.959H861.889V1265.25H905.198V412.959Z" fill="#C9C9C9" stroke="#263238" stroke-width="2" stroke-miterlimit="10" stroke-linecap="round"/>
<path d="M946.444 412.959H903.135V1265.25H946.444V412.959Z" fill="#BABABA" stroke="#263238" stroke-width="2" stroke-miterlimit="10" stroke-linecap="round"/>
<path d="M987.666 412.959H944.357V1265.25H987.666V412.959Z" fill="#C9C9C9" stroke="#263238" stroke-width="2" stroke-miterlimit="10" stroke-linecap="round"/>
<path d="M1028.91 412.959H985.604V1265.25H1028.91V412.959Z" fill="#BABABA" stroke="#263238" stroke-width="2" stroke-miterlimit="10" stroke-linecap="round"/>
<path d="M1070.16 412.959H1026.85V1265.25H1070.16V412.959Z" fill="#C9C9C9" stroke="#263238" stroke-width="2" stroke-miterlimit="10" stroke-linecap="round"/>
<path d="M1111.38 412.959H1068.07V1265.25H1111.38V412.959Z" fill="#BABABA" stroke="#263238" stroke-width="2" stroke-miterlimit="10" stroke-linecap="round"/>
<path d="M1152.63 412.959H1109.32V1265.25H1152.63V412.959Z" fill="#C9C9C9" stroke="#263238" stroke-width="2" stroke-miterlimit="10" stroke-linecap="round"/>
<path d="M1193.87 412.959H1150.56V1265.25H1193.87V412.959Z" fill="#BABABA" stroke="#263238" stroke-width="2" stroke-miterlimit="10" stroke-linecap="round"/>
<path d="M1235.1 412.959H1191.79V1265.25H1235.1V412.959Z" fill="#C9C9C9" stroke="#263238" stroke-width="2" stroke-miterlimit="10" stroke-linecap="round"/>
<path d="M1276.34 412.959H1233.03V1265.25H1276.34V412.959Z" fill="#BABABA" stroke="#263238" stroke-width="2" stroke-miterlimit="10" stroke-linecap="round"/>
<path d="M1317.56 412.959H1274.26V1265.25H1317.56V412.959Z" fill="#C9C9C9" stroke="#263238" stroke-width="2" stroke-miterlimit="10" stroke-linecap="round"/>
<path d="M1358.81 412.959H1315.5V1265.25H1358.81V412.959Z" fill="#BABABA" stroke="#263238" stroke-width="2" stroke-miterlimit="10" stroke-linecap="round"/>
<path d="M1400.06 412.959H1356.75V1265.25H1400.06V412.959Z" fill="#C9C9C9" stroke="#263238" stroke-width="2" stroke-miterlimit="10" stroke-linecap="round"/>
<path d="M1441.28 412.959H1397.97V1265.25H1441.28V412.959Z" fill="#BABABA" stroke="#263238" stroke-width="2" stroke-miterlimit="10" stroke-linecap="round"/>
<path d="M1482.53 412.959H1439.22V1265.25H1482.53V412.959Z" fill="#C9C9C9" stroke="#263238" stroke-width="2" stroke-miterlimit="10" stroke-linecap="round"/>
<path d="M1523.75 412.959H1480.44V1265.25H1523.75V412.959Z" fill="#BABABA" stroke="#263238" stroke-width="2" stroke-miterlimit="10" stroke-linecap="round"/>
<path d="M1564.99 412.959H1521.69V1265.25H1564.99V412.959Z" fill="#C9C9C9" stroke="#263238" stroke-width="2" stroke-miterlimit="10" stroke-linecap="round"/>
<path d="M821.04 486.209C821.04 486.209 828.071 615.738 821.835 705.586L821.04 486.209Z" fill="#263238"/>
<path d="M903.086 513.789C903.086 513.789 917.994 647.369 902.315 720.221L903.086 513.789Z" fill="#263238"/>
<path d="M863.478 780.551V1008.25C863.478 1008.25 880.126 903.545 863.478 780.551Z" fill="#263238"/>
<path d="M985.529 452.963V662.178C985.529 662.178 1002.15 529.99 985.529 452.963Z" fill="#263238"/>
<path d="M944.481 679.397V916.317C944.481 916.317 957.774 739.18 944.481 679.397Z" fill="#263238"/>
<path d="M1026.58 467.325V798.963C1026.58 798.963 1048.77 654.674 1026.58 467.325Z" fill="#263238"/>
<path d="M1028.79 1236.33V887.469C1028.79 887.469 1043.22 1106.28 1028.79 1236.33Z" fill="#263238"/>
<path d="M1191.89 1045.52V696.641C1191.89 696.641 1206.32 915.472 1191.89 1045.52Z" fill="#263238"/>
<path d="M1149.72 943.202V594.344C1149.72 594.344 1164.16 813.175 1149.72 943.202Z" fill="#263238"/>
<path d="M1234.05 820.232V471.35C1234.05 471.35 1248.49 690.206 1234.05 820.232Z" fill="#263238"/>
<path d="M1275.1 1177.71V828.829C1275.1 828.829 1289.54 1047.66 1275.1 1177.71Z" fill="#263238"/>
<path d="M1317.27 1016.77V667.843C1317.27 667.843 1331.7 886.724 1317.27 1016.77Z" fill="#263238"/>
<path d="M1397.15 1131.72V782.862C1397.15 782.862 1411.59 1001.67 1397.15 1131.72Z" fill="#263238"/>
<path d="M1357.22 784.626V435.719C1357.22 435.719 1371.63 654.525 1357.22 784.626Z" fill="#263238"/>
<path d="M1439.32 894.923V546.091C1439.32 546.091 1453.73 764.897 1439.32 894.923Z" fill="#263238"/>
<path d="M1521.41 1188.05V839.29C1521.41 839.29 1535.85 1057.95 1521.41 1188.05Z" fill="#263238"/>
<path d="M1480.41 1235.18V886.326C1480.41 886.326 1494.8 1105.16 1480.41 1235.18Z" fill="#263238"/>
<path d="M1480.41 761.592V412.735C1480.41 412.735 1494.8 631.541 1480.41 761.592Z" fill="#263238"/>
<path d="M1522.66 867.343V518.485C1522.66 518.485 1536.94 737.416 1522.66 867.343Z" fill="#263238"/>
<path d="M1110.91 1255.88V906.999C1110.91 906.999 1125.32 1125.83 1110.91 1255.88Z" fill="#263238"/>
<path d="M820.194 1119.07V770.214C820.194 770.214 834.631 989.02 820.194 1119.07Z" fill="#263238"/>
<path d="M904.526 1242.07V893.209C904.526 893.209 918.863 1112.01 904.526 1242.07Z" fill="#263238"/>
<path d="M1109.79 444.912V880.561C1109.79 880.561 1125.32 622.521 1109.79 444.912Z" fill="#263238"/>
<path d="M735.962 411.17H622.906V1267.39H735.962V411.17Z" fill="white" stroke="#263238" stroke-width="2" stroke-miterlimit="10" stroke-linecap="round"/>
<path d="M1717.78 411.17H1604.73V1267.39H1717.78V411.17Z" fill="white" stroke="#263238" stroke-width="2" stroke-miterlimit="10" stroke-linecap="round"/>
<path d="M1736.69 288.299H601.91V420.537H1736.69V288.299Z" fill="#263238" stroke="#263238" stroke-width="2" stroke-miterlimit="10" stroke-linecap="round"/>
<path d="M1252.05 1288.39H1471.48C1467.22 1261.56 1450.19 1266.29 1447.76 1224.51C1446.61 1203.56 1465.99 1177.67 1464.28 1150.12C1462.92 1127.47 1440.56 1104.22 1438.73 1078.28C1437.2 1054.9 1456.24 1028.93 1454.4 1003.72C1452.66 979.871 1430 956.876 1428 932.22C1426 907.564 1444.74 881.8 1442.52 857.357C1440.31 832.914 1417.27 810.515 1414.8 786.37C1412.29 761.586 1430.39 734.929 1427.58 711.252C1424.64 686.085 1400.88 664.41 1397.77 641.16C1394.15 615.354 1410.97 587.759 1407.05 565.488C1402.24 538.192 1376.82 518.433 1371.45 498.291C1361.49 460.775 1362.93 424.578 1350.97 422.236C1338.41 419.724 1335.55 455.154 1326.06 494.629C1321.24 514.558 1296.25 534.743 1292.33 562.039C1289.01 584.182 1306.6 611.053 1303.7 636.773C1301.14 659.811 1278.15 681.912 1275.72 706.951C1273.64 730.5 1292.42 756.434 1290.54 781.047C1288.75 804.979 1266.31 827.889 1264.74 852.077C1263.16 876.264 1282.58 901.815 1281.26 925.832C1279.94 949.849 1257.84 973.611 1256.73 997.288C1255.54 1022.28 1275.25 1047.54 1274.32 1070.74C1273.25 1096.29 1251.49 1120.06 1250.68 1142.54C1249.7 1169.84 1269.76 1195 1269.16 1215.78C1267.8 1260.88 1247.15 1251.56 1246.42 1287.84L1252.05 1288.39Z" fill="#92E3A9"/>
<path d="M1346.24 494.544V1278.26" stroke="#263238" stroke-width="2" stroke-miterlimit="10"/>
<path d="M1380.52 576.688L1344.79 607.561L1315.54 568.554" stroke="#263238" stroke-width="2" stroke-miterlimit="10"/>
<path d="M1380.52 713.126L1344.79 743.957L1315.54 704.993" stroke="#263238" stroke-width="2" stroke-miterlimit="10"/>
<path d="M1380.52 841.388L1344.79 872.261L1315.54 833.297" stroke="#263238" stroke-width="2" stroke-miterlimit="10"/>
<path d="M1380.52 994.051L1344.79 1024.92L1315.54 985.96" stroke="#263238" stroke-width="2" stroke-miterlimit="10"/>
<path d="M1380.52 1148.33L1344.79 1179.21L1315.54 1140.24" stroke="#263238" stroke-width="2" stroke-miterlimit="10"/>
<path d="M1021.24 1288.39H1211.55C1207.89 1265.14 1192.94 1269.23 1190.94 1233.03C1189.96 1214.85 1206.78 1192.36 1205.33 1168.52C1204.1 1148.89 1184.72 1128.7 1183.23 1106.22C1181.87 1085.95 1198.43 1063.42 1196.82 1041.53C1195.28 1020.88 1175.52 1001.03 1173.91 979.573C1172.29 958.11 1188.43 935.839 1186.68 914.632C1184.93 893.426 1164.75 873.965 1162.66 853.099C1160.45 831.594 1176.12 808.471 1173.73 787.946C1171.18 766.1 1150.61 747.278 1147.8 727.179C1144.69 704.78 1159.3 680.848 1155.89 661.557C1151.63 637.881 1129.66 620.719 1125.02 603.26C1116.5 570.726 1117.48 539.384 1107.26 537.34C1096.36 535.126 1093.89 565.871 1085.63 600.279C1081.37 617.313 1060.08 635.027 1056.42 658.704C1053.52 677.909 1068.77 701.288 1066.25 723.516C1064.04 743.488 1043.98 762.651 1042.02 784.369C1040.19 804.766 1056.46 827.293 1054.8 848.628C1053.14 869.962 1033.8 889.167 1032.44 910.204C1031.08 931.24 1047.9 953.341 1046.75 974.079C1045.6 994.818 1026.44 1015.51 1025.46 1036.04C1024.44 1057.76 1041.55 1079.64 1040.7 1099.91C1039.81 1122.23 1020.94 1142.5 1020.26 1162.17C1019.41 1185.85 1036.79 1207.69 1036.27 1225.71C1035.08 1264.8 1017.2 1256.71 1016.56 1288.18L1021.24 1288.39Z" fill="#92E3A9"/>
<path d="M1102.83 599.981V1279.62" stroke="#263238" stroke-width="2" stroke-miterlimit="10"/>
<path d="M1132.56 671.224L1101.6 698.009L1076.22 664.197" stroke="#263238" stroke-width="2" stroke-miterlimit="10"/>
<path d="M1132.56 789.521L1101.6 816.307L1076.22 782.495" stroke="#263238" stroke-width="2" stroke-miterlimit="10"/>
<path d="M1132.56 900.793L1101.6 927.535L1076.22 893.766" stroke="#263238" stroke-width="2" stroke-miterlimit="10"/>
<path d="M1132.56 1033.19L1101.6 1059.93L1076.22 1026.12" stroke="#263238" stroke-width="2" stroke-miterlimit="10"/>
<path d="M1132.56 1166.94L1101.6 1193.73L1076.22 1159.92" stroke="#263238" stroke-width="2" stroke-miterlimit="10"/>
<path d="M351.314 1288.39H616.015C610.947 1256.03 590.124 1261.73 587.356 1211.74C585.993 1186.44 609.372 1155.19 607.328 1122.02C605.667 1094.68 578.711 1066.66 576.625 1035.36C574.751 1007.12 597.917 975.74 595.532 945.378C593.403 916.634 566.064 889.04 563.679 859.146C561.295 830.018 583.821 798.379 581.181 768.868C578.541 739.358 550.691 712.317 547.753 683.275C544.729 653.466 566.532 621.23 563.211 592.614C559.634 562.294 531.018 536.063 527.142 508.085C522.884 476.957 543.111 443.699 538.342 416.828C532.551 383.911 501.89 360.064 495.417 335.919C483.409 290.653 484.899 247.004 470.719 244.151C455.559 241.128 452.11 283.924 440.655 331.703C434.863 355.721 404.884 380.078 399.987 412.996C395.984 439.696 417.021 472.145 413.699 503.146C410.591 530.91 382.698 557.61 379.973 587.802C377.418 616.163 400.072 647.419 397.858 677.228C395.686 706.057 368.603 733.566 366.729 762.864C364.856 792.162 388.021 822.907 386.616 851.821C384.955 881.63 358.383 909.48 357.02 938.011C355.572 968.203 379.377 998.65 378.312 1026.63C377.035 1057.67 350.803 1086.24 349.824 1113.2C348.674 1146.12 372.861 1176.52 372.095 1201.56C370.477 1255.98 345.565 1244.7 344.671 1288.48L351.314 1288.39Z" fill="#92E3A9"/>
<path d="M464.928 330.852V1276.17" stroke="#263238" stroke-width="2" stroke-miterlimit="10"/>
<path d="M506.276 429.987L463.181 467.205L427.922 420.192" stroke="#263238" stroke-width="2" stroke-miterlimit="10"/>
<path d="M506.276 594.488L463.181 631.706L427.922 584.736" stroke="#263238" stroke-width="2" stroke-miterlimit="10"/>
<path d="M506.276 749.237L463.181 786.455L427.922 739.443" stroke="#263238" stroke-width="2" stroke-miterlimit="10"/>
<path d="M506.276 933.369L463.181 970.588L427.922 923.575" stroke="#263238" stroke-width="2" stroke-miterlimit="10"/>
<path d="M506.276 1119.46L463.181 1156.68L427.922 1109.67" stroke="#263238" stroke-width="2" stroke-miterlimit="10"/>
<path d="M1172.21 502.658C1297.18 502.658 1398.49 439.159 1398.49 360.829C1398.49 282.499 1297.18 219 1172.21 219C1047.23 219 945.921 282.499 945.921 360.829C945.921 439.159 1047.23 502.658 1172.21 502.658Z" fill="#263238" stroke="#263238" stroke-width="2" stroke-miterlimit="10" stroke-linecap="round"/>
<path d="M385.737 1200.94C385.737 1200.94 368.667 1213.37 372.493 1218.88C376.32 1224.4 399.353 1238.07 406.484 1246.22C413.616 1254.37 428.847 1262.64 443.755 1265.37C458.664 1268.11 476.628 1270.34 475.535 1259.91C474.442 1249.47 456.353 1246.22 451.433 1240.18C446.513 1234.14 439.208 1218.26 439.208 1218.26L393.887 1191.4L385.737 1200.94Z" fill="white" stroke="#263238" stroke-width="2" stroke-miterlimit="10" stroke-linecap="round"/>
<path d="M575.322 898.924C575.322 898.924 566.153 1047.34 562.153 1067.39C558.153 1087.44 439.308 1218.34 439.308 1218.34C439.308 1218.34 415.255 1219.65 407.23 1215.65C399.73 1211.31 392.577 1206.39 385.836 1200.94C385.836 1200.94 403.229 1176.89 408.571 1172.89C413.914 1168.89 427.281 1162.21 431.282 1159.52C435.282 1156.84 462.018 1103.39 462.018 1103.39L476.156 907.869L575.322 898.924Z" fill="#263238" stroke="#263238" stroke-width="2" stroke-miterlimit="10" stroke-linecap="round"/>
<path d="M530.97 1221.32L543.021 1241.59C544.661 1244.33 576.44 1259.66 576.44 1262.96C576.44 1266.27 572.067 1271.19 569.334 1272.28C566.601 1273.37 527.093 1273.92 515.067 1272.28C503.041 1270.64 494.245 1266.24 485.474 1264.06C476.703 1261.87 470.566 1264.6 470.118 1254.74C469.671 1244.87 474.293 1225.67 474.293 1225.67C474.293 1225.67 478.89 1226.24 494.171 1221.32C509.452 1216.4 530.97 1221.32 530.97 1221.32Z" fill="white" stroke="#263238" stroke-width="2" stroke-miterlimit="10" stroke-linecap="round"/>
<path d="M443.78 909.558C443.78 909.558 456.9 1069.3 463.658 1081.35C470.417 1093.4 478.368 1205.59 478.368 1205.59C478.368 1205.59 465.646 1218.01 472.33 1224.65C479.014 1231.28 472.852 1233.17 472.852 1233.17C472.852 1233.17 493.077 1228.33 499.761 1225.72C506.445 1223.11 533.057 1223.73 533.057 1223.73C533.057 1223.73 541.182 1208.35 542.524 1197.66C543.865 1186.98 535.84 1152.22 535.84 1148.22C535.84 1144.22 541.182 959.725 541.182 959.725L573.881 919.969L443.78 909.558Z" fill="#263238" stroke="#263238" stroke-width="2" stroke-miterlimit="10" stroke-linecap="round"/>
<path d="M518.322 618.62L516.732 632.883C501.893 635.933 486.752 637.259 471.609 636.833C447.035 636.038 443.805 646.772 443.805 646.772C443.805 646.772 372.518 748.224 375.698 756.101C378.879 763.978 405.018 771.556 405.018 771.556L448.625 733.515L443.854 909.509C443.854 909.509 457.347 926.156 496.978 927.747C536.61 929.337 569.036 923.001 573.881 919.82C578.726 916.64 586.578 766.015 586.578 766.015L614.556 765.717C614.556 765.717 609.586 697.834 606.381 679.596C603.176 661.358 592.119 652.661 573.881 646.3C555.643 639.939 549.307 632.833 549.307 632.833L534.249 612.955C528.424 612.82 522.753 614.837 518.322 618.62Z" fill="white" stroke="#263238" stroke-width="2" stroke-miterlimit="10" stroke-linecap="round"/>
<path d="M496.903 927.796C536.659 929.386 568.961 923.05 573.806 919.87C578.651 916.689 586.503 766.065 586.503 766.065L622.184 767.953C622.184 767.953 609.487 697.883 606.306 679.645C603.126 661.407 592.044 652.711 573.806 646.35C555.568 639.989 549.232 632.883 549.232 632.883L534.174 613.005C528.388 612.86 522.748 614.84 518.322 618.571L516.732 632.833C501.895 635.9 486.754 637.242 471.609 636.833C447.035 636.038 443.805 646.772 443.805 646.772C443.805 646.772 407.95 682.254 392.097 712.27L433.021 747.205L448.65 733.564L443.879 909.558C443.879 909.558 457.272 926.256 496.903 927.796Z" fill="#A3A3A3" stroke="#263238" stroke-width="2" stroke-miterlimit="10" stroke-linecap="round"/>
<path d="M594.33 870.598C614.779 850.173 617.91 818.195 617.91 818.195L614.432 767.804L586.503 766.065L584.714 811.386C580.955 820.252 579.206 829.841 579.596 839.464C580.091 846.115 579.673 852.804 578.353 859.342H578.154C578.154 859.342 570.477 874.499 569.756 877.133C569.035 879.766 583.198 885.779 587.149 886.748C591.1 887.717 596.541 887.717 596.765 884.264C596.989 880.81 600.716 880.089 597.486 876.809C596.569 876.04 595.817 875.093 595.274 874.025C594.732 872.958 594.411 871.792 594.33 870.598Z" fill="white" stroke="#263238" stroke-width="2" stroke-miterlimit="10" stroke-linecap="round"/>
<path d="M588.044 809.175C588.044 809.175 602.604 802.864 612.444 811.138" stroke="#263238" stroke-width="2" stroke-miterlimit="10" stroke-linecap="round"/>
<path d="M594.331 870.598C593.145 869.511 591.695 868.753 590.126 868.4C588.557 868.047 586.923 868.111 585.386 868.585" stroke="#263238" stroke-width="2" stroke-miterlimit="10" stroke-linecap="round"/>
<path d="M578.006 854.521C584.566 850.794 595.821 852.658 600.567 857.329C603.82 860.895 605.623 865.547 605.623 870.374C605.623 875.201 603.82 879.853 600.567 883.419C595.598 888.687 588.442 890.575 581.907 886.525C575.372 882.475 571.049 881.555 570.726 875.02C570.469 869.382 571.578 863.765 573.956 858.646C574.845 856.885 576.261 855.443 578.006 854.521Z" fill="#92E3A9" stroke="#263238" stroke-width="2" stroke-miterlimit="10" stroke-linecap="round"/>
<path d="M475.162 704.418L448.551 733.564L475.162 720.793" stroke="#263238" stroke-width="2" stroke-miterlimit="10" stroke-linecap="round"/>
<path d="M585.559 757.741L586.503 709.636" stroke="#263238" stroke-width="2" stroke-miterlimit="10" stroke-linecap="round"/>
<path d="M585.634 716.917C585.634 722.607 579.422 727.204 571.744 727.204C564.066 727.204 557.879 722.607 557.879 716.917C557.879 711.227 564.091 706.63 571.744 706.63C579.397 706.63 585.634 711.251 585.634 716.917Z" fill="#92E3A9" stroke="#263238" stroke-width="2" stroke-miterlimit="10" stroke-linecap="round"/>
<path d="M578.876 716.917C578.876 719.824 575.67 722.184 571.745 722.184C567.819 722.184 564.638 719.699 564.638 716.917C564.638 714.134 567.819 711.649 571.745 711.649C575.67 711.649 578.876 714.009 578.876 716.917Z" fill="white" stroke="#263238" stroke-width="2" stroke-miterlimit="10" stroke-linecap="round"/>
<path d="M690.167 980.324L838.804 994.015L836.27 1232.87L685.521 988.449L690.167 980.324Z" fill="white" stroke="#263238" stroke-width="2" stroke-miterlimit="10" stroke-linecap="round"/>
<path d="M757.602 1071.36L763.044 1078.47" stroke="#263238" stroke-width="2" stroke-miterlimit="10" stroke-linecap="round"/>
<path d="M700.354 996.872L751.118 1062.94" stroke="#263238" stroke-width="2" stroke-miterlimit="10" stroke-linecap="round"/>
<path d="M713.225 993.443L745.875 999.456" stroke="#263238" stroke-width="2" stroke-miterlimit="10" stroke-linecap="round"/>
<path d="M776.958 1041.27L785.381 1046.69" stroke="#263238" stroke-width="2" stroke-miterlimit="10" stroke-linecap="round"/>
<path d="M725.251 1008.05L772.56 1038.47" stroke="#263238" stroke-width="2" stroke-miterlimit="10" stroke-linecap="round"/>
<path d="M676.973 971.602L690.54 984.846" stroke="#263238" stroke-width="2" stroke-miterlimit="10" stroke-linecap="round"/>
<path d="M530.622 828.531L676.973 971.602" stroke="#263238" stroke-width="2" stroke-miterlimit="10" stroke-linecap="round"/>
<path d="M457.844 821.375C457.844 821.375 422.039 820.182 418.461 863.143C414.883 906.104 461.248 1201.07 371.4 1269.3C290.025 1331.04 210.215 1320.96 158.855 1297.15C116.988 1277.72 246.492 1265.02 305.927 1280.53C348.963 1291.76 262.37 1317.55 176.447 1317.8C77.7039 1318.02 26.0462 1283.01 1 1280.53" stroke="#263238" stroke-width="2" stroke-miterlimit="10" stroke-linecap="round"/>
<path d="M480.256 827.115L503.191 820.182L523.391 837.352C524.389 838.201 525.67 838.642 526.978 838.587C528.287 838.532 529.526 837.984 530.448 837.054L541.331 826.17C541.83 825.686 542.227 825.107 542.498 824.467C542.769 823.827 542.908 823.139 542.908 822.443C542.908 821.748 542.769 821.06 542.498 820.42C542.227 819.78 541.83 819.2 541.331 818.716C534.2 811.56 517.652 796.354 503.166 792.627C484.058 787.856 466.168 800.975 466.168 800.975L480.256 827.115Z" fill="#263238" stroke="#263238" stroke-width="2" stroke-miterlimit="10" stroke-linecap="round"/>
<path d="M400.198 742.385L463.609 791.533C463.609 791.533 475.511 794.714 479.462 798.664C483.412 802.615 499.339 815.312 494.519 820.083C489.699 824.854 495.314 823.239 489.773 824.829C484.232 826.419 480.257 827.313 480.257 827.313C480.257 827.313 466.789 832.854 458.863 832.059C450.937 831.264 438.24 813.051 438.24 809.076C438.24 805.1 373.239 768.649 370.854 763.878C368.468 759.107 390.732 728.222 390.732 728.222" fill="white"/>
<path d="M400.198 742.385L463.609 791.533C463.609 791.533 475.511 794.714 479.462 798.664C483.412 802.615 499.339 815.312 494.519 820.083C489.699 824.854 495.314 823.239 489.773 824.829C484.232 826.419 480.257 827.313 480.257 827.313C480.257 827.313 466.789 832.854 458.863 832.059C450.937 831.264 438.24 813.051 438.24 809.076C438.24 805.1 373.239 768.649 370.854 763.878C368.468 759.107 390.732 728.222 390.732 728.222" stroke="#263238" stroke-width="2" stroke-miterlimit="10" stroke-linecap="round"/>
<path d="M441.792 766.487L414.261 797.546L438.239 808.877C438.239 808.877 443.208 821.549 448.874 827.91C454.539 834.271 454.514 836.383 460.154 836.383C465.795 836.383 485.002 830.022 485.002 830.022C485.002 830.022 486.443 831.388 494.941 825.798C503.438 820.207 499.19 816.604 495.661 810.889C492.133 805.174 474.466 792.527 469.547 788.999C464.627 785.47 462.465 783.358 460.353 781.942C458.241 780.526 441.792 766.487 441.792 766.487Z" fill="#92E3A9" stroke="#263238" stroke-width="2" stroke-miterlimit="10" stroke-linecap="round"/>
<path d="M573.807 646.35C555.569 640.014 549.232 632.883 549.232 632.883L534.175 613.005C528.388 612.86 522.749 614.84 518.322 618.571L516.732 632.833C516.732 632.833 515.042 633.206 512.16 633.727C515.862 641.654 529.876 673.483 550.823 674.055C565.731 674.527 575.074 660.14 580.143 648.735C578.13 647.965 575.968 647.12 573.807 646.35Z" fill="white" stroke="#263238" stroke-width="2" stroke-miterlimit="10" stroke-linecap="round"/>
<path d="M592.044 613.85L584.913 635.268L576.192 632.783C576.192 632.783 573.707 651.816 569.06 654.177C564.414 656.537 559.544 657.357 550.027 650.226C540.511 643.095 530.994 634.374 530.994 626.447C530.994 618.521 535.765 589.176 540.511 582.84C545.257 576.504 592.044 613.85 592.044 613.85Z" fill="white" stroke="#263238" stroke-width="2" stroke-miterlimit="10" stroke-linecap="round"/>
<path d="M575.77 616.657C575.372 618.993 574.006 620.732 572.689 620.509C571.372 620.285 570.626 618.198 571.024 615.862C571.421 613.526 572.788 611.762 574.105 611.986C575.422 612.21 576.167 614.297 575.77 616.657Z" fill="#263238"/>
<path d="M558.748 591.661C558.748 591.661 555.568 601.178 546.847 601.973C538.125 602.768 532.584 590.866 532.584 590.866L530.994 626.547L518.322 618.62C518.322 618.62 520.682 588.481 523.863 579.759C527.043 571.038 539.715 567.087 539.715 567.087C539.715 567.087 553.208 582.144 558.748 591.661Z" fill="#263238" stroke="#263238" stroke-width="2" stroke-miterlimit="10" stroke-linecap="round"/>
<path d="M534.175 613.179C520.683 610.694 523.863 593.301 532.585 590.99C541.306 588.679 538.126 602.867 538.126 602.867" fill="white"/>
<path d="M534.175 613.179C520.683 610.694 523.863 593.301 532.585 590.99C541.306 588.679 538.126 602.867 538.126 602.867" stroke="#263238" stroke-width="2" stroke-miterlimit="10" stroke-linecap="round"/>
<path d="M523.789 579.759L564.215 601.177C570.989 604.103 578.258 605.714 585.634 605.923C591.528 606.047 597.403 605.207 603.027 603.439L608.543 579.585C609.037 577.428 609.071 575.192 608.643 573.022C608.214 570.851 607.334 568.795 606.058 566.987C600.427 558.769 593.534 551.49 585.634 545.42C570.576 534.338 547.692 542.115 535.02 549.246C522.348 556.378 523.789 579.759 523.789 579.759Z" fill="#92E3A9" stroke="#263238" stroke-width="2" stroke-miterlimit="10" stroke-linecap="round"/>
<path d="M602.903 582.915C601.884 588.505 594.952 591.909 587.423 590.543C579.894 589.176 574.602 583.511 575.621 577.92C576.639 572.33 583.572 568.926 591.101 570.292C598.629 571.659 603.922 577.324 602.903 582.915Z" fill="#92E3A9" stroke="#263238" stroke-width="2" stroke-miterlimit="10" stroke-linecap="round"/>
<path d="M596.243 581.697C595.722 584.554 592.168 586.319 588.317 585.598C584.466 584.877 581.733 582.02 582.254 579.138C582.776 576.255 586.329 574.516 590.205 575.237C594.082 575.957 596.79 578.84 596.243 581.697Z" fill="white" stroke="#263238" stroke-width="2" stroke-miterlimit="10" stroke-linecap="round"/>
<path d="M557.954 598.792C567.337 596.822 576.922 595.988 586.504 596.307C600.766 597.103 613.413 609.775 613.413 609.775C613.413 609.775 625.837 622.347 624.992 624.683C624.148 627.019 606.307 623.242 594.43 622.447C582.553 621.652 557.954 598.792 557.954 598.792Z" fill="#92E3A9" stroke="#263238" stroke-width="2" stroke-miterlimit="10" stroke-linecap="round"/>
<path d="M560.737 629.305C561.499 631.793 562.944 634.018 564.908 635.727C566.871 637.436 569.274 638.559 571.844 638.97" stroke="#263238" stroke-width="2" stroke-miterlimit="10" stroke-linecap="round"/>
<path d="M557.159 655.395L555.419 669.235L569.061 654.276L557.159 655.395Z" fill="#263238"/>
<path d="M572.291 872.983C572.291 872.983 564.837 884.388 569.135 888.339C572.067 891.022 581.559 895.793 587.373 898.427C588.722 899.062 590.242 899.233 591.698 898.914C593.155 898.595 594.464 897.803 595.424 896.663C597.421 894.565 599.05 892.145 600.244 889.507C601.039 886.351 593.535 879.269 593.535 879.269L590.405 880.462C590.405 880.462 578.577 868.237 576.217 868.635C573.856 869.032 572.291 872.983 572.291 872.983Z" fill="#92E3A9" stroke="#263238" stroke-width="2" stroke-miterlimit="10" stroke-linecap="round"/>
<path d="M594.156 873.48C594.156 873.48 588.889 879.742 591.001 881.406C593.113 883.071 599.871 889.979 601.138 888.711C602.406 887.444 606.853 885.233 604.319 882.052C601.784 878.872 597.66 873.182 594.156 873.48Z" fill="#92E3A9" stroke="#263238" stroke-width="2" stroke-miterlimit="10" stroke-linecap="round"/>
<path d="M1450.82 1035.58V1177.21H897.868V1035.58H793.906V1242.31C793.9 1246.13 794.646 1249.91 796.104 1253.44C797.561 1256.97 799.7 1260.18 802.398 1262.88C805.096 1265.58 808.3 1267.72 811.828 1269.18C815.355 1270.64 819.135 1271.39 822.953 1271.39H868.821C876.52 1271.39 883.905 1268.33 889.351 1262.89C894.798 1257.45 897.861 1250.06 897.868 1242.36V1232.82H948.233L971.814 1217.91H1374.74L1404.75 1235.06H1450.82V1242.51C1450.83 1250.21 1453.89 1257.59 1459.34 1263.04C1464.78 1268.48 1472.17 1271.53 1479.87 1271.53H1525.74C1529.55 1271.54 1533.33 1270.79 1536.85 1269.33C1540.37 1267.88 1543.58 1265.74 1546.27 1263.04C1548.97 1260.35 1551.11 1257.15 1552.57 1253.63C1554.03 1250.1 1554.78 1246.33 1554.78 1242.51V1035.58H1450.82Z" fill="#263238" stroke="#263238" stroke-width="2" stroke-miterlimit="10" stroke-linecap="round"/>
<path d="M1533.34 933.834C1529.07 925.237 1494.78 889.879 1494.78 889.879C1494.78 889.879 1429.55 765.493 1418.69 745.218C1398.07 706.754 1364.03 713.065 1364.03 713.065L1173.28 703.425L1172.21 703.723L1171.14 703.425L980.386 713.065C980.386 713.065 945.45 709.487 925.722 745.218C914.59 765.344 849.639 889.879 849.639 889.879C849.639 889.879 815.349 925.237 811.051 933.834C806.752 942.431 789.657 974.534 789.657 980.92C789.657 986.66 793.906 1084.11 812.989 1156.86C815.147 1164.89 819.231 1172.26 824.886 1178.35C830.541 1184.44 837.596 1189.06 845.44 1191.8C849.229 1193.32 853.157 1194.48 857.168 1195.25H996.487L1031.84 1134.18C1045.39 1122.95 1062.48 1116.88 1080.07 1117.03H1264.39C1281.99 1116.88 1299.07 1122.95 1312.62 1134.18L1347.98 1195.25H1487.3C1491.3 1194.48 1495.22 1193.33 1499 1191.8C1506.85 1189.06 1513.91 1184.45 1519.57 1178.36C1525.23 1172.27 1529.32 1164.89 1531.48 1156.86C1550.56 1084.11 1554.81 986.66 1554.81 980.92C1554.78 974.534 1537.56 942.407 1533.34 933.834Z" fill="#92E3A9" stroke="#263238" stroke-width="2" stroke-miterlimit="10" stroke-linecap="round"/>
<path d="M996.462 1195.3L989.008 1212.45H1353.32L1347.95 1195.3L1312.6 1134.23C1312.6 1134.23 1298.66 1118.15 1264.37 1117.08C1230.08 1116.02 1080.05 1117.08 1080.05 1117.08C1062.4 1116.63 1045.22 1122.74 1031.82 1134.23L996.462 1195.3Z" fill="#787878" stroke="#263238" stroke-width="2" stroke-miterlimit="10" stroke-linecap="round"/>
<path d="M1027.52 991.704C1027.52 991.704 1056.47 1043.14 1065.04 1051.71C1073.61 1060.28 1083.25 1060.28 1095.06 1061.35C1106.86 1062.42 1268.64 1061.35 1268.64 1061.35C1268.64 1061.35 1281.51 1059.21 1287.95 1049.57C1294.38 1039.93 1315.8 991.704 1315.8 991.704H1027.52Z" fill="#263238" stroke="#263238" stroke-width="2" stroke-miterlimit="10" stroke-linecap="round"/>
<path d="M1056.25 998.686C1056.25 998.686 1079.4 1039.86 1086.29 1046.74C1093.17 1053.62 1100.87 1053.6 1110.31 1054.47C1119.75 1055.34 1249.33 1054.47 1249.33 1054.47C1249.33 1054.47 1259.65 1052.75 1264.79 1045.03C1269.93 1037.3 1287.15 998.686 1287.15 998.686H1056.25Z" fill="#787878" stroke="#263238" stroke-width="2" stroke-miterlimit="10" stroke-linecap="round"/>
<path d="M1292.57 1177.21L1286.16 1159.5C1284.17 1154.04 1280.53 1149.34 1275.74 1146.05C1270.95 1142.76 1265.26 1141.05 1259.45 1141.16L1085.39 1142.92C1079.41 1143.05 1073.63 1145.09 1068.9 1148.76C1064.18 1152.42 1060.76 1157.51 1059.15 1163.27L1054.83 1177.21H1292.57Z" fill="#263238" stroke="#263238" stroke-width="2" stroke-miterlimit="10" stroke-linecap="round"/>
<path d="M1052.15 1185.66L1046.83 1202.81H1301.86L1295.67 1185.66H1052.15Z" fill="#263238" stroke="#263238" stroke-width="2" stroke-miterlimit="10" stroke-linecap="round"/>
<path d="M1494.78 889.879C1494.78 889.879 1500.12 848.086 1509.68 848.086C1519.25 848.086 1562.19 859.888 1563.26 868.461C1564.32 877.033 1554.68 886.674 1546.11 888.811C1537.54 890.948 1519.33 893.109 1519.33 893.109L1515.2 909.186L1494.78 889.879Z" fill="#92E3A9" stroke="#263238" stroke-width="2" stroke-miterlimit="10" stroke-linecap="round"/>
<path d="M849.639 889.879C849.639 889.879 844.272 848.086 834.731 848.086C825.189 848.086 782.228 859.888 781.16 868.461C780.091 877.033 789.732 886.674 798.304 888.811C806.877 890.948 825.09 893.109 825.09 893.109L829.364 909.186L849.639 889.879Z" fill="#92E3A9" stroke="#263238" stroke-width="2" stroke-miterlimit="10" stroke-linecap="round"/>
<path d="M878.561 865.231C878.561 865.231 1296.52 849.154 1462.62 865.231L1389.75 732.446C1389.75 732.446 1201.13 708.866 955.737 733.515C955.737 733.415 905.371 812.728 878.561 865.231Z" fill="white" stroke="#263238" stroke-width="2" stroke-miterlimit="10" stroke-linecap="round"/>
<path d="M973.95 986.337C973.95 986.337 993.232 1006.69 999.667 1044.21C999.667 1044.21 908.577 1039.91 873.219 1025.99C837.861 1012.08 833.463 1011.08 832.494 1004.55C831.525 998.015 834.631 952.047 848.57 944.543C862.51 937.04 877.493 939.177 891.432 949.886C905.371 960.595 922.516 976.696 932.157 979.901C941.798 983.107 973.95 986.337 973.95 986.337Z" fill="white" stroke="#263238" stroke-width="2" stroke-miterlimit="10" stroke-linecap="round"/>
<path d="M904.173 1007.21C913.984 997.4 913.984 981.494 904.173 971.684C894.363 961.874 878.458 961.874 868.647 971.684C858.837 981.494 858.837 997.4 868.647 1007.21C878.458 1017.02 894.363 1017.02 904.173 1007.21Z" fill="white" stroke="#263238" stroke-width="2" stroke-miterlimit="10" stroke-linecap="round"/>
<path d="M956.383 1020.85C956.383 1023.16 955.698 1025.42 954.414 1027.34C953.129 1029.26 951.304 1030.76 949.168 1031.64C947.033 1032.52 944.684 1032.75 942.418 1032.3C940.152 1031.85 938.071 1030.73 936.439 1029.1C934.806 1027.46 933.696 1025.38 933.248 1023.11C932.8 1020.85 933.035 1018.5 933.923 1016.36C934.811 1014.23 936.311 1012.41 938.235 1011.13C940.159 1009.85 942.419 1009.17 944.73 1009.17C946.262 1009.17 947.78 1009.47 949.195 1010.06C950.611 1010.65 951.897 1011.51 952.979 1012.59C954.061 1013.68 954.919 1014.97 955.504 1016.38C956.088 1017.8 956.387 1019.32 956.383 1020.85Z" fill="white" stroke="#263238" stroke-width="2" stroke-miterlimit="10" stroke-linecap="round"/>
<path d="M1373.57 986.337C1373.57 986.337 1354.26 1006.69 1347.83 1044.21C1347.83 1044.21 1438.92 1039.91 1474.3 1025.99C1509.68 1012.08 1514.06 1011.08 1515.03 1004.55C1516 998.015 1512.86 952.047 1498.95 944.543C1485.04 937.04 1470 939.177 1456.06 949.886C1442.12 960.595 1425 976.696 1415.36 979.901C1405.72 983.107 1373.57 986.337 1373.57 986.337Z" fill="white" stroke="#263238" stroke-width="2" stroke-miterlimit="10" stroke-linecap="round"/>
<path d="M1472.57 1013.93C1486.07 1010.73 1494.42 997.19 1491.22 983.691C1488.02 970.192 1474.48 961.843 1460.98 965.044C1447.48 968.245 1439.13 981.784 1442.33 995.283C1445.53 1008.78 1459.07 1017.13 1472.57 1013.93Z" fill="white" stroke="#263238" stroke-width="2" stroke-miterlimit="10" stroke-linecap="round"/>
<path d="M1396.83 1020.85C1396.83 1023.16 1397.51 1025.42 1398.8 1027.34C1400.08 1029.26 1401.91 1030.76 1404.04 1031.64C1406.18 1032.52 1408.53 1032.75 1410.79 1032.3C1413.06 1031.85 1415.14 1030.73 1416.77 1029.1C1418.4 1027.46 1419.52 1025.38 1419.96 1023.11C1420.41 1020.85 1420.18 1018.5 1419.29 1016.36C1418.4 1014.23 1416.9 1012.41 1414.98 1011.13C1413.05 1009.85 1410.79 1009.17 1408.48 1009.17C1406.95 1009.17 1405.43 1009.47 1404.02 1010.06C1402.6 1010.65 1401.31 1011.51 1400.23 1012.59C1399.15 1013.68 1398.29 1014.97 1397.71 1016.38C1397.12 1017.8 1396.82 1019.32 1396.83 1020.85Z" fill="white" stroke="#263238" stroke-width="2" stroke-miterlimit="10" stroke-linecap="round"/>
<path d="M1488.34 1081.7C1488.34 1081.7 1388.68 1101.01 1384.38 1104.21C1380.08 1107.42 1371.53 1125.66 1371.53 1125.66L1391.88 1120.29C1391.88 1120.29 1439.09 1122.43 1455.12 1114.92C1471.15 1107.42 1488.34 1081.7 1488.34 1081.7Z" fill="#263238" stroke="#263238" stroke-width="2" stroke-miterlimit="10" stroke-linecap="round"/>
<path d="M863.578 1081.7C863.578 1081.7 963.241 1101.01 967.515 1104.21C971.788 1107.42 980.386 1125.66 980.386 1125.66L960.011 1120.29C960.011 1120.29 912.801 1122.43 896.799 1114.92C880.797 1107.42 863.578 1081.7 863.578 1081.7Z" fill="#263238" stroke="#263238" stroke-width="2" stroke-miterlimit="10" stroke-linecap="round"/>
<path d="M1363.43 1002.84L1336.82 993.965H1315.8" stroke="#263238" stroke-width="2" stroke-miterlimit="10" stroke-linecap="round"/>
<path d="M985.753 1001.57L1003.49 991.431L1027.52 991.679" stroke="#263238" stroke-width="2" stroke-miterlimit="10" stroke-linecap="round"/>
<path d="M1438.87 882.972C1441.58 881.431 1444.31 879.965 1447.07 878.623" stroke="#263238" stroke-width="2" stroke-miterlimit="10" stroke-linecap="round"/>
<path d="M1320.89 1035.11C1337.67 998.239 1376.01 924.939 1429.58 888.761" stroke="#263238" stroke-width="2" stroke-miterlimit="10" stroke-linecap="round"/>
<path d="M1311.45 1057.33C1311.45 1057.33 1312.77 1053.82 1315.33 1047.73" stroke="#263238" stroke-width="2" stroke-miterlimit="10" stroke-linecap="round"/>
<path d="M914.665 888.761C910.209 886.045 905.604 883.51 900.85 881.158" stroke="#263238" stroke-width="2" stroke-miterlimit="10" stroke-linecap="round"/>
<path d="M1022.01 1035.91C1011.02 1003.11 982.424 935.251 924.107 894.874" stroke="#263238" stroke-width="2" stroke-miterlimit="10" stroke-linecap="round"/>
<path d="M1027.57 1054.79C1027.57 1054.79 1026.8 1051.39 1025.09 1045.47" stroke="#263238" stroke-width="2" stroke-miterlimit="10" stroke-linecap="round"/>
<path d="M870.436 940.717C870.436 940.717 859.031 912.838 859.031 896.365L870.436 940.717Z" fill="white"/>
<path d="M870.436 940.717C870.436 940.717 859.031 912.838 859.031 896.365" stroke="#263238" stroke-width="2" stroke-miterlimit="10" stroke-linecap="round"/>
<path d="M1480.02 939.45C1483.09 927.79 1485.21 915.898 1486.35 903.893L1480.02 939.45Z" fill="white"/>
<path d="M1480.02 939.45C1483.09 927.79 1485.21 915.898 1486.35 903.893" stroke="#263238" stroke-width="2" stroke-miterlimit="10" stroke-linecap="round"/>
<path d="M1519.33 1058.59L1511.72 1157.34L1371.09 1163.77C1371.09 1163.77 1347.01 1134.63 1345.74 1121.95C1344.47 1109.28 1362.22 1090.27 1367.28 1089.01C1372.35 1087.74 1461.06 1070 1461.06 1070" stroke="#263238" stroke-width="2" stroke-miterlimit="10" stroke-linecap="round"/>
<path d="M831.078 1058.59L838.681 1157.34L979.367 1163.67C979.367 1163.67 1003.44 1134.53 1004.71 1121.85C1005.98 1109.18 988.237 1090.17 983.168 1088.91C978.1 1087.64 889.37 1069.9 889.37 1069.9" stroke="#263238" stroke-width="2" stroke-miterlimit="10" stroke-linecap="round"/>
<path d="M1066.26 1015.71L1169.67 1023.98C1174.06 1024.33 1178.48 1024.33 1182.87 1023.98L1278.18 1016.53" stroke="#263238" stroke-width="2" stroke-miterlimit="10" stroke-linecap="round"/>
<path d="M1073.07 1026.39L1169.67 1034.12C1174.06 1034.48 1178.48 1034.48 1182.87 1034.12L1274.8 1026.99" stroke="#263238" stroke-width="2" stroke-miterlimit="10" stroke-linecap="round"/>
<path d="M1080 1037.22L1169.67 1044.4C1174.06 1044.74 1178.48 1044.74 1182.87 1044.4L1270.21 1037.62" stroke="#263238" stroke-width="2" stroke-miterlimit="10" stroke-linecap="round"/>
<path d="M1139.26 799.882C1091.33 828.059 960.359 853.155 892.649 864.734C966.844 862.1 1314.66 850.919 1462.62 865.231L1397.37 746.236C1302.51 739.9 1188.43 770.96 1139.26 799.882Z" fill="#787878"/>
<path d="M878.561 865.231C878.561 865.231 1296.52 849.154 1462.62 865.231L1389.75 732.446C1389.75 732.446 1201.13 708.866 955.737 733.515C955.737 733.415 905.371 812.728 878.561 865.231Z" stroke="#263238" stroke-width="2" stroke-miterlimit="10" stroke-linecap="round"/>
<path d="M1008.96 881.729C1008.96 881.729 1011.45 889.059 1030.98 907.422C1050.51 925.784 1066.46 900.092 1087.28 889.059C1108.1 878.027 1083.6 868.262 1158.24 922.106C1232.89 975.951 1265.91 986.958 1295.28 955.128C1324.65 923.299 1366.24 875.617 1385.82 886.624C1405.4 897.632 1417.65 918.429 1434.77 918.429C1451.89 918.429 1473.93 884.164 1473.93 884.164" stroke="white" stroke-width="2" stroke-miterlimit="10" stroke-linecap="round"/>
<path d="M1008.96 887.842C1008.96 887.842 1011.45 895.296 1030.98 913.534C1050.51 931.772 1066.46 906.204 1087.28 895.196C1108.1 884.189 1083.6 874.374 1158.24 928.219C1232.89 982.063 1265.91 993.07 1295.28 961.266C1324.65 929.461 1366.24 881.754 1385.82 892.737C1405.4 903.719 1417.65 924.541 1434.77 924.541C1451.89 924.541 1473.93 890.302 1473.93 890.302" stroke="#263238" stroke-width="2" stroke-miterlimit="10" stroke-linecap="round"/>
<path d="M846.16 915.348C846.16 915.348 807.423 952.246 808.342 981.765C809.262 1011.28 836.022 1015.91 840.644 1037.12C845.265 1058.34 891.382 1072.18 936.58 1060.18C981.777 1048.18 1001.18 1060.18 1015 1085.03C1028.81 1109.88 1051.87 1111.84 1070.43 1102.67" stroke="#263238" stroke-width="2" stroke-miterlimit="10" stroke-linecap="round"/>
<path d="M850.782 910.726C850.782 910.726 812.02 947.649 812.964 977.168C813.908 1006.69 840.619 1011.28 845.266 1032.5C849.912 1053.72 895.979 1067.56 941.226 1055.46C986.473 1043.36 1005.83 1055.46 1019.64 1080.31C1033.46 1105.16 1056.54 1107.05 1074.98 1097.83" stroke="white" stroke-width="2" stroke-miterlimit="10" stroke-linecap="round"/>
<path d="M1526.03 960.545C1526.03 960.545 1517.74 1025.15 1492.84 1037.12C1467.94 1049.1 1365.52 1058.34 1341.54 1074.94C1317.56 1091.54 1316.7 1127.52 1316.7 1127.52" stroke="white" stroke-width="2" stroke-miterlimit="10" stroke-linecap="round"/>
<path d="M1526.03 966.012C1526.03 966.012 1517.69 1030.61 1492.84 1042.67C1467.99 1054.72 1365.52 1063.86 1341.54 1080.48C1317.56 1097.11 1316.7 1133.06 1316.7 1133.06" stroke="#263238" stroke-width="2" stroke-miterlimit="10" stroke-linecap="round"/>
<path d="M1193.97 726.085C1193.97 726.085 1208.63 723.601 1217.26 746.758C1225.88 769.916 1241.38 826.071 1267.25 826.916C1293.11 827.761 1297.41 776.923 1311.97 756.25C1326.53 735.577 1354.21 739.876 1370.56 753.765" stroke="white" stroke-width="2" stroke-miterlimit="10" stroke-linecap="round"/>
<path d="M1193.1 731.254C1193.1 731.254 1207.76 728.769 1216.39 751.927C1225.01 775.084 1240.51 831.239 1266.38 832.084C1292.25 832.929 1296.54 782.141 1311.2 761.418C1325.86 740.696 1353.44 745.044 1369.82 758.934" stroke="#263238" stroke-width="2" stroke-miterlimit="10" stroke-linecap="round"/>
<path d="M875.902 908.589C875.902 908.589 887.183 916.491 901.868 934.555C916.553 952.619 922.168 943.574 928.952 930.033C935.735 916.491 951.513 945.836 965.055 966.161C978.597 986.486 982.001 989.865 984.262 978.584" stroke="white" stroke-width="2" stroke-miterlimit="10" stroke-linecap="round"/>
<path d="M875.455 913.037C875.455 913.037 886.736 920.939 901.421 938.978C916.105 957.017 921.721 948.022 928.504 934.48C935.288 920.939 951.066 950.283 964.632 970.584C978.199 990.884 981.553 994.288 983.815 983.007" stroke="#263238" stroke-width="2" stroke-miterlimit="10" stroke-linecap="round"/>
</svg>
