<svg width="2039" height="1319" viewBox="0 0 2039 1319" fill="none" xmlns="http://www.w3.org/2000/svg">
<path d="M1660.58 411.17H714.792V1267.39H1660.58V411.17Z" fill="#263238" stroke="#263238" stroke-width="0.153417" stroke-miterlimit="10" stroke-linecap="round"/>
<path d="M822.058 412.959H778.749V1265.25H822.058V412.959Z" fill="#C9C9C9" stroke="#263238" stroke-width="0.153417" stroke-miterlimit="10" stroke-linecap="round"/>
<path d="M863.304 412.959H819.995V1265.25H863.304V412.959Z" fill="#BABABA" stroke="#263238" stroke-width="0.153417" stroke-miterlimit="10" stroke-linecap="round"/>
<path d="M904.527 412.959H861.218V1265.25H904.527V412.959Z" fill="#C9C9C9" stroke="#263238" stroke-width="0.153417" stroke-miterlimit="10" stroke-linecap="round"/>
<path d="M945.773 412.959H902.464V1265.25H945.773V412.959Z" fill="#BABABA" stroke="#263238" stroke-width="0.153417" stroke-miterlimit="10" stroke-linecap="round"/>
<path d="M986.995 412.959H943.687V1265.25H986.995V412.959Z" fill="#C9C9C9" stroke="#263238" stroke-width="0.153417" stroke-miterlimit="10" stroke-linecap="round"/>
<path d="M1028.24 412.959H984.933V1265.25H1028.24V412.959Z" fill="#BABABA" stroke="#263238" stroke-width="0.153417" stroke-miterlimit="10" stroke-linecap="round"/>
<path d="M1069.49 412.959H1026.18V1265.25H1069.49V412.959Z" fill="#C9C9C9" stroke="#263238" stroke-width="0.153417" stroke-miterlimit="10" stroke-linecap="round"/>
<path d="M1110.71 412.959H1067.4V1265.25H1110.71V412.959Z" fill="#BABABA" stroke="#263238" stroke-width="0.153417" stroke-miterlimit="10" stroke-linecap="round"/>
<path d="M1151.96 412.959H1108.65V1265.25H1151.96V412.959Z" fill="#C9C9C9" stroke="#263238" stroke-width="0.153417" stroke-miterlimit="10" stroke-linecap="round"/>
<path d="M1193.2 412.959H1149.89V1265.25H1193.2V412.959Z" fill="#BABABA" stroke="#263238" stroke-width="0.153417" stroke-miterlimit="10" stroke-linecap="round"/>
<path d="M1234.43 412.959H1191.12V1265.25H1234.43V412.959Z" fill="#C9C9C9" stroke="#263238" stroke-width="0.153417" stroke-miterlimit="10" stroke-linecap="round"/>
<path d="M1275.67 412.959H1232.36V1265.25H1275.67V412.959Z" fill="#BABABA" stroke="#263238" stroke-width="0.153417" stroke-miterlimit="10" stroke-linecap="round"/>
<path d="M1316.89 412.959H1273.58V1265.25H1316.89V412.959Z" fill="#C9C9C9" stroke="#263238" stroke-width="0.153417" stroke-miterlimit="10" stroke-linecap="round"/>
<path d="M1358.14 412.959H1314.83V1265.25H1358.14V412.959Z" fill="#BABABA" stroke="#263238" stroke-width="0.153417" stroke-miterlimit="10" stroke-linecap="round"/>
<path d="M1399.39 412.959H1356.08V1265.25H1399.39V412.959Z" fill="#C9C9C9" stroke="#263238" stroke-width="0.153417" stroke-miterlimit="10" stroke-linecap="round"/>
<path d="M1440.61 412.959H1397.3V1265.25H1440.61V412.959Z" fill="#BABABA" stroke="#263238" stroke-width="0.153417" stroke-miterlimit="10" stroke-linecap="round"/>
<path d="M1481.86 412.959H1438.55V1265.25H1481.86V412.959Z" fill="#C9C9C9" stroke="#263238" stroke-width="0.153417" stroke-miterlimit="10" stroke-linecap="round"/>
<path d="M1523.08 412.959H1479.77V1265.25H1523.08V412.959Z" fill="#BABABA" stroke="#263238" stroke-width="0.153417" stroke-miterlimit="10" stroke-linecap="round"/>
<path d="M1564.32 412.959H1521.01V1265.25H1564.32V412.959Z" fill="#C9C9C9" stroke="#263238" stroke-width="0.153417" stroke-miterlimit="10" stroke-linecap="round"/>
<path d="M820.368 486.209C820.368 486.209 827.4 615.738 821.163 705.586L820.368 486.209Z" fill="#263238"/>
<path d="M902.415 513.789C902.415 513.789 917.323 647.369 901.645 720.221L902.415 513.789Z" fill="#263238"/>
<path d="M862.808 780.551V1008.25C862.808 1008.25 879.455 903.545 862.808 780.551Z" fill="#263238"/>
<path d="M984.857 452.963V662.178C984.857 662.178 1001.48 529.99 984.857 452.963Z" fill="#263238"/>
<path d="M943.81 679.397V916.317C943.81 916.317 957.103 739.18 943.81 679.397Z" fill="#263238"/>
<path d="M1025.91 467.325V798.963C1025.91 798.963 1048.09 654.674 1025.91 467.325Z" fill="#263238"/>
<path d="M1028.12 1236.33V887.469C1028.12 887.469 1042.55 1106.28 1028.12 1236.33Z" fill="#263238"/>
<path d="M1191.21 1045.52V696.641C1191.21 696.641 1205.65 915.472 1191.21 1045.52Z" fill="#263238"/>
<path d="M1149.05 943.202V594.344C1149.05 594.344 1163.49 813.175 1149.05 943.202Z" fill="#263238"/>
<path d="M1233.38 820.232V471.35C1233.38 471.35 1247.82 690.206 1233.38 820.232Z" fill="#263238"/>
<path d="M1274.43 1177.71V828.829C1274.43 828.829 1288.87 1047.66 1274.43 1177.71Z" fill="#263238"/>
<path d="M1316.6 1016.77V667.843C1316.6 667.843 1331.03 886.724 1316.6 1016.77Z" fill="#263238"/>
<path d="M1396.48 1131.72V782.862C1396.48 782.862 1410.92 1001.67 1396.48 1131.72Z" fill="#263238"/>
<path d="M1356.55 784.626V435.719C1356.55 435.719 1370.96 654.525 1356.55 784.626Z" fill="#263238"/>
<path d="M1438.65 894.923V546.091C1438.65 546.091 1453.06 764.897 1438.65 894.923Z" fill="#263238"/>
<path d="M1520.74 1188.05V839.29C1520.74 839.29 1535.18 1057.95 1520.74 1188.05Z" fill="#263238"/>
<path d="M1479.74 1235.18V886.326C1479.74 886.326 1494.13 1105.16 1479.74 1235.18Z" fill="#263238"/>
<path d="M1479.74 761.592V412.735C1479.74 412.735 1494.13 631.541 1479.74 761.592Z" fill="#263238"/>
<path d="M1521.98 867.343V518.485C1521.98 518.485 1536.27 737.416 1521.98 867.343Z" fill="#263238"/>
<path d="M1110.24 1255.88V906.999C1110.24 906.999 1124.65 1125.83 1110.24 1255.88Z" fill="#263238"/>
<path d="M819.523 1119.07V770.214C819.523 770.214 833.96 989.02 819.523 1119.07Z" fill="#263238"/>
<path d="M903.855 1242.07V893.209C903.855 893.209 918.192 1112.01 903.855 1242.07Z" fill="#263238"/>
<path d="M1109.12 444.912V880.562C1109.12 880.562 1124.65 622.522 1109.12 444.912Z" fill="#263238"/>
<path d="M735.291 411.17H622.235V1267.39H735.291V411.17Z" fill="white" stroke="#263238" stroke-width="0.153417" stroke-miterlimit="10" stroke-linecap="round"/>
<path d="M1717.11 411.17H1604.05V1267.39H1717.11V411.17Z" fill="white" stroke="#263238" stroke-width="0.153417" stroke-miterlimit="10" stroke-linecap="round"/>
<path d="M1736.02 288.299H601.239V420.537H1736.02V288.299Z" fill="#263238" stroke="#263238" stroke-width="0.153417" stroke-miterlimit="10" stroke-linecap="round"/>
<path d="M1171.54 502.658C1296.51 502.658 1397.82 439.159 1397.82 360.829C1397.82 282.499 1296.51 219 1171.54 219C1046.56 219 945.251 282.499 945.251 360.829C945.251 439.159 1046.56 502.658 1171.54 502.658Z" fill="#263238" stroke="#263238" stroke-width="0.153417" stroke-miterlimit="10" stroke-linecap="round"/>
<path d="M385.065 1200.94C385.065 1200.94 367.995 1213.37 371.822 1218.88C375.648 1224.4 398.682 1238.07 405.813 1246.22C412.944 1254.37 428.176 1262.64 443.084 1265.37C457.992 1268.11 475.957 1270.34 474.864 1259.91C473.771 1249.47 455.682 1246.22 450.762 1240.18C445.842 1234.14 438.537 1218.26 438.537 1218.26L393.215 1191.4L385.065 1200.94Z" fill="white" stroke="#263238" stroke-width="0.153417" stroke-miterlimit="10" stroke-linecap="round"/>
<path d="M574.651 898.924C574.651 898.924 565.483 1047.34 561.482 1067.39C557.482 1087.44 438.637 1218.34 438.637 1218.34C438.637 1218.34 414.584 1219.65 406.559 1215.65C399.059 1211.31 391.906 1206.39 385.165 1200.94C385.165 1200.94 402.558 1176.89 407.9 1172.89C413.243 1168.89 426.61 1162.21 430.611 1159.52C434.611 1156.84 461.347 1103.39 461.347 1103.39L475.485 907.869L574.651 898.924Z" fill="#263238" stroke="#263238" stroke-width="0.153417" stroke-miterlimit="10" stroke-linecap="round"/>
<path d="M530.299 1221.32L542.35 1241.59C543.99 1244.33 575.769 1259.66 575.769 1262.96C575.769 1266.27 571.396 1271.19 568.663 1272.28C565.93 1273.37 526.423 1273.92 514.396 1272.28C502.37 1270.64 493.574 1266.24 484.803 1264.06C476.032 1261.87 469.895 1264.6 469.447 1254.74C469 1244.87 473.622 1225.67 473.622 1225.67C473.622 1225.67 478.219 1226.24 493.5 1221.32C508.781 1216.4 530.299 1221.32 530.299 1221.32Z" fill="white" stroke="#263238" stroke-width="0.153417" stroke-miterlimit="10" stroke-linecap="round"/>
<path d="M443.109 909.558C443.109 909.558 456.229 1069.3 462.987 1081.35C469.746 1093.4 477.697 1205.59 477.697 1205.59C477.697 1205.59 464.975 1218.01 471.659 1224.65C478.343 1231.28 472.181 1233.17 472.181 1233.17C472.181 1233.17 492.407 1228.33 499.091 1225.72C505.774 1223.11 532.386 1223.73 532.386 1223.73C532.386 1223.73 540.511 1208.35 541.853 1197.66C543.195 1186.98 535.169 1152.22 535.169 1148.22C535.169 1144.22 540.511 959.725 540.511 959.725L573.21 919.969L443.109 909.558Z" fill="#263238" stroke="#263238" stroke-width="0.153417" stroke-miterlimit="10" stroke-linecap="round"/>
<path d="M517.651 618.62L516.061 632.883C501.222 635.933 486.081 637.259 470.938 636.833C446.364 636.038 443.134 646.772 443.134 646.772C443.134 646.772 371.847 748.224 375.027 756.101C378.208 763.977 404.347 771.556 404.347 771.556L447.954 733.515L443.184 909.509C443.184 909.509 456.676 926.156 496.307 927.747C535.939 929.337 568.365 923.001 573.21 919.82C578.055 916.64 585.907 766.015 585.907 766.015L613.885 765.717C613.885 765.717 608.916 697.834 605.71 679.596C602.505 661.358 591.448 652.661 573.21 646.3C554.972 639.939 548.636 632.833 548.636 632.833L533.578 612.955C527.753 612.82 522.082 614.837 517.651 618.62V618.62Z" fill="white" stroke="#263238" stroke-width="0.153417" stroke-miterlimit="10" stroke-linecap="round"/>
<path d="M496.233 927.796C535.989 929.386 568.29 923.05 573.136 919.87C577.981 916.689 585.833 766.065 585.833 766.065L621.514 767.953C621.514 767.953 608.816 697.883 605.636 679.645C602.456 661.407 591.374 652.711 573.136 646.35C554.898 639.989 548.562 632.883 548.562 632.883L533.504 613.005C527.717 612.86 522.078 614.84 517.651 618.571L516.061 632.833C501.225 635.9 486.083 637.242 470.938 636.833C446.364 636.038 443.134 646.772 443.134 646.772C443.134 646.772 407.279 682.254 391.427 712.27L432.35 747.206L447.979 733.564L443.209 909.558C443.209 909.558 456.601 926.256 496.233 927.796Z" fill="#A3A3A3" stroke="#263238" stroke-width="0.153417" stroke-miterlimit="10" stroke-linecap="round"/>
<path d="M593.659 870.598C614.109 850.173 617.239 818.195 617.239 818.195L613.761 767.804L585.832 766.065L584.043 811.386C580.284 820.252 578.536 829.841 578.925 839.464C579.42 846.115 579.002 852.804 577.682 859.342H577.484C577.484 859.342 569.806 874.499 569.085 877.133C568.365 879.766 582.528 885.779 586.478 886.748C590.429 887.717 595.871 887.717 596.094 884.264C596.318 880.81 600.045 880.089 596.815 876.809C595.898 876.04 595.146 875.093 594.604 874.025C594.061 872.958 593.74 871.792 593.659 870.598V870.598Z" fill="white" stroke="#263238" stroke-width="0.153417" stroke-miterlimit="10" stroke-linecap="round"/>
<path d="M587.373 809.175C587.373 809.175 601.934 802.864 611.773 811.138" stroke="#263238" stroke-width="0.153417" stroke-miterlimit="10" stroke-linecap="round"/>
<path d="M593.66 870.598C592.474 869.511 591.025 868.753 589.455 868.4C587.886 868.047 586.252 868.111 584.715 868.585" stroke="#263238" stroke-width="0.153417" stroke-miterlimit="10" stroke-linecap="round"/>
<path d="M577.335 854.521C583.895 850.794 595.151 852.658 599.896 857.329C603.149 860.895 604.952 865.547 604.952 870.374C604.952 875.201 603.149 879.853 599.896 883.419C594.927 888.687 587.771 890.575 581.236 886.525C574.701 882.475 570.378 881.555 570.055 875.02C569.799 869.382 570.907 863.765 573.285 858.646C574.175 856.884 575.59 855.443 577.335 854.521V854.521Z" fill="#92E3A9" stroke="#263238" stroke-width="0.153417" stroke-miterlimit="10" stroke-linecap="round"/>
<path d="M474.491 704.418L447.88 733.564L474.491 720.793" stroke="#263238" stroke-width="0.153417" stroke-miterlimit="10" stroke-linecap="round"/>
<path d="M584.889 757.741L585.833 709.636" stroke="#263238" stroke-width="0.153417" stroke-miterlimit="10" stroke-linecap="round"/>
<path d="M584.964 716.917C584.964 722.607 578.752 727.203 571.074 727.203C563.396 727.203 557.209 722.607 557.209 716.917C557.209 711.227 563.421 706.63 571.074 706.63C578.727 706.63 584.964 711.251 584.964 716.917Z" fill="#92E3A9" stroke="#263238" stroke-width="0.153417" stroke-miterlimit="10" stroke-linecap="round"/>
<path d="M578.204 716.917C578.204 719.824 574.999 722.184 571.073 722.184C567.147 722.184 563.967 719.699 563.967 716.917C563.967 714.134 567.147 711.649 571.073 711.649C574.999 711.649 578.204 714.009 578.204 716.917Z" fill="white" stroke="#263238" stroke-width="0.153417" stroke-miterlimit="10" stroke-linecap="round"/>
<path d="M689.496 980.324L838.133 994.015L835.599 1232.87L684.85 988.449L689.496 980.324Z" fill="white" stroke="#263238" stroke-width="0.153417" stroke-miterlimit="10" stroke-linecap="round"/>
<path d="M756.932 1071.36L762.373 1078.47" stroke="#263238" stroke-width="0.153417" stroke-miterlimit="10" stroke-linecap="round"/>
<path d="M699.684 996.872L750.447 1062.94" stroke="#263238" stroke-width="0.153417" stroke-miterlimit="10" stroke-linecap="round"/>
<path d="M712.555 993.443L745.204 999.456" stroke="#263238" stroke-width="0.153417" stroke-miterlimit="10" stroke-linecap="round"/>
<path d="M776.287 1041.27L784.71 1046.69" stroke="#263238" stroke-width="0.153417" stroke-miterlimit="10" stroke-linecap="round"/>
<path d="M724.58 1008.05L771.89 1038.47" stroke="#263238" stroke-width="0.153417" stroke-miterlimit="10" stroke-linecap="round"/>
<path d="M676.303 971.602L689.869 984.846" stroke="#263238" stroke-width="0.767084" stroke-miterlimit="10" stroke-linecap="round"/>
<path d="M529.951 828.531L676.302 971.602" stroke="#263238" stroke-width="0.46025" stroke-miterlimit="10" stroke-linecap="round"/>
<path d="M457.173 821.375C457.173 821.375 421.368 820.182 417.79 863.143C414.212 906.104 460.577 1201.07 370.729 1269.3C289.354 1331.04 209.544 1320.96 158.185 1297.15C116.317 1277.72 245.821 1265.02 305.256 1280.53C348.292 1291.76 261.699 1317.55 175.776 1317.8C77.033 1318.02 25.3753 1283.01 0.329102 1280.53" stroke="#263238" stroke-width="0.46025" stroke-miterlimit="10" stroke-linecap="round"/>
<path d="M479.586 827.115L502.52 820.182L522.721 837.352C523.718 838.201 524.999 838.642 526.307 838.587C527.616 838.532 528.855 837.984 529.777 837.054L540.66 826.171C541.159 825.686 541.556 825.107 541.827 824.467C542.098 823.827 542.237 823.139 542.237 822.443C542.237 821.748 542.098 821.06 541.827 820.42C541.556 819.78 541.159 819.2 540.66 818.716C533.529 811.56 516.981 796.354 502.495 792.627C483.387 787.856 465.497 800.975 465.497 800.975L479.586 827.115Z" fill="#263238" stroke="#263238" stroke-width="0.153417" stroke-miterlimit="10" stroke-linecap="round"/>
<path d="M399.528 742.385L462.938 791.533C462.938 791.533 474.84 794.714 478.791 798.664C482.741 802.615 498.669 815.312 493.848 820.083C489.028 824.854 494.643 823.238 489.102 824.829C483.561 826.419 479.586 827.313 479.586 827.313C479.586 827.313 466.118 832.854 458.192 832.059C450.266 831.264 437.569 813.051 437.569 809.075C437.569 805.1 372.568 768.649 370.183 763.878C367.797 759.107 390.061 728.222 390.061 728.222" fill="white"/>
<path d="M399.528 742.385L462.938 791.533C462.938 791.533 474.84 794.714 478.791 798.664C482.741 802.615 498.669 815.312 493.848 820.083C489.028 824.854 494.643 823.238 489.102 824.829C483.561 826.419 479.586 827.313 479.586 827.313C479.586 827.313 466.118 832.854 458.192 832.059C450.266 831.264 437.569 813.051 437.569 809.075C437.569 805.1 372.568 768.649 370.183 763.878C367.797 759.107 390.061 728.222 390.061 728.222" stroke="#263238" stroke-width="0.153417" stroke-miterlimit="10" stroke-linecap="round"/>
<path d="M441.122 766.487L413.591 797.546L437.569 808.877C437.569 808.877 442.538 821.549 448.203 827.91C453.868 834.271 453.844 836.383 459.484 836.383C465.124 836.383 484.331 830.022 484.331 830.022C484.331 830.022 485.772 831.389 494.27 825.798C502.768 820.207 498.519 816.604 494.991 810.889C491.462 805.175 473.796 792.527 468.876 788.999C463.956 785.471 461.795 783.359 459.683 781.942C457.571 780.526 441.122 766.487 441.122 766.487Z" fill="#92E3A9" stroke="#263238" stroke-width="0.153417" stroke-miterlimit="10" stroke-linecap="round"/>
<path d="M573.136 646.35C554.898 640.014 548.562 632.883 548.562 632.883L533.504 613.005C527.717 612.86 522.078 614.84 517.651 618.571L516.061 632.833C516.061 632.833 514.372 633.206 511.489 633.728C515.192 641.654 529.205 673.483 550.152 674.055C565.06 674.527 574.403 660.14 579.472 648.735C577.459 647.965 575.297 647.12 573.136 646.35Z" fill="white" stroke="#263238" stroke-width="0.153417" stroke-miterlimit="10" stroke-linecap="round"/>
<path d="M591.373 613.85L584.242 635.268L575.521 632.783C575.521 632.783 573.036 651.816 568.389 654.177C563.743 656.537 558.873 657.357 549.356 650.226C539.84 643.095 530.323 634.374 530.323 626.447C530.323 618.521 535.094 589.176 539.84 582.84C544.586 576.504 591.373 613.85 591.373 613.85Z" fill="white" stroke="#263238" stroke-width="0.153417" stroke-miterlimit="10" stroke-linecap="round"/>
<path d="M575.099 616.657C574.701 618.993 573.335 620.732 572.018 620.509C570.701 620.285 569.955 618.198 570.353 615.862C570.751 613.527 572.117 611.762 573.434 611.986C574.751 612.21 575.496 614.297 575.099 616.657Z" fill="#263238"/>
<path d="M558.078 591.661C558.078 591.661 554.898 601.177 546.176 601.973C537.455 602.768 531.914 590.866 531.914 590.866L530.324 626.547L517.651 618.62C517.651 618.62 520.012 588.48 523.192 579.759C526.373 571.038 539.045 567.087 539.045 567.087C539.045 567.087 552.537 582.144 558.078 591.661Z" fill="#263238" stroke="#263238" stroke-width="0.153417" stroke-miterlimit="10" stroke-linecap="round"/>
<path d="M533.504 613.179C520.012 610.694 523.192 593.301 531.914 590.99C540.635 588.679 537.455 602.867 537.455 602.867" fill="white"/>
<path d="M533.504 613.179C520.012 610.694 523.192 593.301 531.914 590.99C540.635 588.679 537.455 602.867 537.455 602.867" stroke="#263238" stroke-width="0.153417" stroke-miterlimit="10" stroke-linecap="round"/>
<path d="M523.118 579.759L563.545 601.177C570.319 604.103 577.587 605.714 584.963 605.923C590.857 606.047 596.732 605.207 602.356 603.439L607.872 579.585C608.366 577.428 608.4 575.192 607.972 573.022C607.544 570.851 606.663 568.795 605.388 566.987C599.756 558.769 592.863 551.49 584.963 545.42C569.905 534.338 547.021 542.115 534.349 549.246C521.677 556.378 523.118 579.759 523.118 579.759Z" fill="#92E3A9" stroke="#263238" stroke-width="0.153417" stroke-miterlimit="10" stroke-linecap="round"/>
<path d="M602.232 582.915C601.213 588.505 594.281 591.909 586.752 590.543C579.224 589.176 573.931 583.511 574.95 577.92C575.969 572.33 582.901 568.926 590.43 570.292C597.958 571.659 603.251 577.324 602.232 582.915Z" fill="#92E3A9" stroke="#263238" stroke-width="0.153417" stroke-miterlimit="10" stroke-linecap="round"/>
<path d="M595.572 581.697C595.051 584.555 591.498 586.319 587.646 585.598C583.795 584.878 581.062 582.02 581.583 579.138C582.105 576.256 585.658 574.516 589.535 575.237C593.411 575.957 596.119 578.84 595.572 581.697Z" fill="white" stroke="#263238" stroke-width="0.153417" stroke-miterlimit="10" stroke-linecap="round"/>
<path d="M557.283 598.792C566.666 596.822 576.251 595.988 585.833 596.307C600.095 597.103 612.743 609.775 612.743 609.775C612.743 609.775 625.166 622.347 624.321 624.683C623.477 627.019 605.636 623.242 593.759 622.447C581.882 621.652 557.283 598.792 557.283 598.792Z" fill="#92E3A9" stroke="#263238" stroke-width="0.153417" stroke-miterlimit="10" stroke-linecap="round"/>
<path d="M560.066 629.305C560.828 631.793 562.273 634.018 564.237 635.727C566.2 637.436 568.603 638.559 571.173 638.97" stroke="#263238" stroke-width="0.153417" stroke-miterlimit="10" stroke-linecap="round"/>
<path d="M556.488 655.394L554.749 669.234L568.39 654.276L556.488 655.394Z" fill="#263238"/>
<path d="M571.62 872.983C571.62 872.983 564.166 884.388 568.464 888.339C571.396 891.022 580.888 895.793 586.702 898.427C588.051 899.062 589.572 899.233 591.028 898.914C592.484 898.595 593.793 897.803 594.753 896.663C596.75 894.564 598.379 892.145 599.573 889.506C600.368 886.351 592.864 879.269 592.864 879.269L589.734 880.462C589.734 880.462 577.906 868.237 575.546 868.635C573.185 869.032 571.62 872.983 571.62 872.983Z" fill="#92E3A9" stroke="#263238" stroke-width="0.153417" stroke-miterlimit="10" stroke-linecap="round"/>
<path d="M593.485 873.48C593.485 873.48 588.218 879.741 590.33 881.406C592.442 883.071 599.2 889.979 600.467 888.711C601.735 887.444 606.182 885.233 603.648 882.052C601.113 878.872 596.989 873.182 593.485 873.48Z" fill="#92E3A9" stroke="#263238" stroke-width="0.153417" stroke-miterlimit="10" stroke-linecap="round"/>
<path d="M1450.15 1035.58V1177.21H897.197V1035.58H793.235V1242.31C793.229 1246.13 793.976 1249.91 795.433 1253.44C796.89 1256.97 799.029 1260.18 801.727 1262.88C804.425 1265.58 807.63 1267.72 811.157 1269.18C814.684 1270.64 818.465 1271.39 822.282 1271.39H868.15C875.85 1271.39 883.234 1268.33 888.681 1262.89C894.127 1257.45 897.19 1250.06 897.197 1242.36V1232.82H947.562L971.143 1217.91H1374.07L1404.08 1235.06H1450.15V1242.51C1450.16 1250.21 1453.22 1257.59 1458.67 1263.04C1464.11 1268.48 1471.5 1271.53 1479.2 1271.53H1525.07C1528.88 1271.54 1532.66 1270.79 1536.18 1269.33C1539.7 1267.88 1542.91 1265.74 1545.6 1263.04C1548.3 1260.35 1550.44 1257.15 1551.9 1253.63C1553.36 1250.1 1554.11 1246.33 1554.11 1242.51V1035.58H1450.15Z" fill="#263238" stroke="#263238" stroke-width="0.153417" stroke-miterlimit="10" stroke-linecap="round"/>
<path d="M1532.67 933.834C1528.39 925.237 1494.11 889.879 1494.11 889.879C1494.11 889.879 1428.88 765.493 1418.02 745.218C1397.4 706.754 1363.36 713.065 1363.36 713.065L1172.61 703.425L1171.54 703.723L1170.47 703.425L979.715 713.065C979.715 713.065 944.779 709.487 925.051 745.218C913.919 765.344 848.968 889.879 848.968 889.879C848.968 889.879 814.678 925.237 810.38 933.834C806.081 942.431 788.986 974.534 788.986 980.92C788.986 986.66 793.235 1084.11 812.318 1156.86C814.476 1164.89 818.56 1172.26 824.215 1178.35C829.87 1184.44 836.925 1189.06 844.769 1191.8C848.558 1193.32 852.486 1194.48 856.497 1195.25H995.816L1031.17 1134.18C1044.72 1122.95 1061.81 1116.88 1079.4 1117.03H1263.72C1281.32 1116.88 1298.4 1122.95 1311.95 1134.18L1347.31 1195.25H1486.63C1490.63 1194.48 1494.55 1193.33 1498.33 1191.8C1506.18 1189.06 1513.24 1184.45 1518.9 1178.36C1524.56 1172.27 1528.65 1164.89 1530.8 1156.86C1549.89 1084.11 1554.14 986.66 1554.14 980.92C1554.11 974.534 1536.89 942.407 1532.67 933.834Z" fill="#92E3A9" stroke="#263238" stroke-width="0.153417" stroke-miterlimit="10" stroke-linecap="round"/>
<path d="M995.791 1195.3L988.337 1212.45H1352.65L1347.28 1195.3L1311.92 1134.23C1311.92 1134.23 1297.98 1118.15 1263.7 1117.08C1229.41 1116.02 1079.38 1117.08 1079.38 1117.08C1061.73 1116.63 1044.55 1122.74 1031.15 1134.23L995.791 1195.3Z" fill="#787878" stroke="#263238" stroke-width="0.153417" stroke-miterlimit="10" stroke-linecap="round"/>
<path d="M1026.85 991.704C1026.85 991.704 1055.8 1043.14 1064.37 1051.71C1072.94 1060.28 1082.58 1060.28 1094.39 1061.35C1106.19 1062.42 1267.97 1061.35 1267.97 1061.35C1267.97 1061.35 1280.84 1059.21 1287.28 1049.57C1293.71 1039.93 1315.13 991.704 1315.13 991.704H1026.85Z" fill="#263238" stroke="#263238" stroke-width="0.153417" stroke-miterlimit="10" stroke-linecap="round"/>
<path d="M1055.57 998.686C1055.57 998.686 1078.73 1039.86 1085.61 1046.74C1092.5 1053.62 1100.2 1053.6 1109.64 1054.47C1119.08 1055.34 1248.66 1054.47 1248.66 1054.47C1248.66 1054.47 1258.97 1052.75 1264.12 1045.03C1269.26 1037.3 1286.48 998.686 1286.48 998.686H1055.57Z" fill="#787878" stroke="#263238" stroke-width="0.153417" stroke-miterlimit="10" stroke-linecap="round"/>
<path d="M1291.9 1177.21L1285.49 1159.5C1283.5 1154.04 1279.86 1149.34 1275.07 1146.05C1270.28 1142.76 1264.58 1141.05 1258.78 1141.16L1084.72 1142.92C1078.74 1143.05 1072.96 1145.09 1068.23 1148.76C1063.51 1152.42 1060.09 1157.51 1058.48 1163.27L1054.16 1177.21H1291.9Z" fill="#263238" stroke="#263238" stroke-width="0.153417" stroke-miterlimit="10" stroke-linecap="round"/>
<path d="M1051.47 1185.66L1046.16 1202.81H1301.19L1295 1185.66H1051.47Z" fill="#263238" stroke="#263238" stroke-width="0.153417" stroke-miterlimit="10" stroke-linecap="round"/>
<path d="M1494.11 889.879C1494.11 889.879 1499.45 848.086 1509.01 848.086C1518.58 848.086 1561.52 859.888 1562.58 868.461C1563.65 877.033 1554.01 886.674 1545.44 888.811C1536.87 890.948 1518.65 893.109 1518.65 893.109L1514.53 909.186L1494.11 889.879Z" fill="#92E3A9" stroke="#263238" stroke-width="0.153417" stroke-miterlimit="10" stroke-linecap="round"/>
<path d="M848.968 889.879C848.968 889.879 843.601 848.086 834.06 848.086C824.518 848.086 781.557 859.888 780.489 868.461C779.42 877.033 789.061 886.674 797.633 888.811C806.206 890.948 824.419 893.109 824.419 893.109L828.693 909.186L848.968 889.879Z" fill="#92E3A9" stroke="#263238" stroke-width="0.153417" stroke-miterlimit="10" stroke-linecap="round"/>
<path d="M877.89 865.231C877.89 865.231 1295.85 849.154 1461.95 865.231L1389.07 732.446C1389.07 732.446 1200.46 708.866 955.066 733.515C955.066 733.415 904.7 812.728 877.89 865.231Z" fill="white" stroke="#263238" stroke-width="0.153417" stroke-miterlimit="10" stroke-linecap="round"/>
<path d="M973.279 986.337C973.279 986.337 992.561 1006.69 998.996 1044.21C998.996 1044.21 907.906 1039.91 872.548 1025.99C837.19 1012.08 832.792 1011.08 831.823 1004.55C830.854 998.015 833.96 952.047 847.899 944.543C861.839 937.04 876.822 939.177 890.761 949.886C904.7 960.595 921.845 976.696 931.486 979.901C941.127 983.107 973.279 986.337 973.279 986.337Z" fill="white" stroke="#263238" stroke-width="0.153417" stroke-miterlimit="10" stroke-linecap="round"/>
<path d="M903.503 1007.21C913.313 997.4 913.313 981.494 903.503 971.684C893.693 961.874 877.787 961.874 867.977 971.684C858.167 981.494 858.167 997.4 867.977 1007.21C877.787 1017.02 893.693 1017.02 903.503 1007.21Z" fill="white" stroke="#263238" stroke-width="0.153417" stroke-miterlimit="10" stroke-linecap="round"/>
<path d="M955.713 1020.85C955.713 1023.16 955.027 1025.42 953.743 1027.34C952.459 1029.26 950.633 1030.76 948.498 1031.64C946.363 1032.52 944.013 1032.75 941.747 1032.3C939.481 1031.85 937.4 1030.73 935.768 1029.1C934.136 1027.46 933.026 1025.38 932.578 1023.11C932.13 1020.85 932.365 1018.5 933.253 1016.36C934.14 1014.23 935.641 1012.41 937.565 1011.13C939.488 1009.85 941.749 1009.17 944.06 1009.17C945.592 1009.17 947.109 1009.47 948.525 1010.06C949.94 1010.65 951.226 1011.51 952.309 1012.59C953.391 1013.68 954.249 1014.97 954.833 1016.38C955.417 1017.8 955.716 1019.32 955.713 1020.85V1020.85Z" fill="white" stroke="#263238" stroke-width="0.153417" stroke-miterlimit="10" stroke-linecap="round"/>
<path d="M1372.9 986.337C1372.9 986.337 1353.59 1006.69 1347.16 1044.21C1347.16 1044.21 1438.25 1039.91 1473.63 1025.99C1509.01 1012.08 1513.39 1011.08 1514.36 1004.55C1515.33 998.015 1512.19 952.047 1498.28 944.543C1484.37 937.04 1469.33 939.177 1455.39 949.886C1441.45 960.595 1424.33 976.696 1414.69 979.901C1405.05 983.107 1372.9 986.337 1372.9 986.337Z" fill="white" stroke="#263238" stroke-width="0.153417" stroke-miterlimit="10" stroke-linecap="round"/>
<path d="M1471.9 1013.93C1485.4 1010.73 1493.75 997.19 1490.55 983.691C1487.35 970.191 1473.81 961.843 1460.31 965.044C1446.81 968.245 1438.46 981.784 1441.66 995.283C1444.86 1008.78 1458.4 1017.13 1471.9 1013.93Z" fill="white" stroke="#263238" stroke-width="0.153417" stroke-miterlimit="10" stroke-linecap="round"/>
<path d="M1396.16 1020.85C1396.16 1023.16 1396.84 1025.42 1398.13 1027.34C1399.41 1029.26 1401.24 1030.76 1403.37 1031.64C1405.51 1032.52 1407.86 1032.75 1410.12 1032.3C1412.39 1031.85 1414.47 1030.73 1416.1 1029.1C1417.73 1027.46 1418.84 1025.38 1419.29 1023.11C1419.74 1020.85 1419.5 1018.5 1418.62 1016.36C1417.73 1014.23 1416.23 1012.41 1414.3 1011.13C1412.38 1009.85 1410.12 1009.17 1407.81 1009.17C1406.28 1009.17 1404.76 1009.47 1403.34 1010.06C1401.93 1010.65 1400.64 1011.51 1399.56 1012.59C1398.48 1013.68 1397.62 1014.97 1397.04 1016.38C1396.45 1017.8 1396.15 1019.32 1396.16 1020.85Z" fill="white" stroke="#263238" stroke-width="0.153417" stroke-miterlimit="10" stroke-linecap="round"/>
<path d="M1487.67 1081.7C1487.67 1081.7 1388.01 1101.01 1383.71 1104.21C1379.41 1107.42 1370.86 1125.66 1370.86 1125.66L1391.21 1120.29C1391.21 1120.29 1438.42 1122.43 1454.45 1114.92C1470.48 1107.42 1487.67 1081.7 1487.67 1081.7Z" fill="#263238" stroke="#263238" stroke-width="0.153417" stroke-miterlimit="10" stroke-linecap="round"/>
<path d="M862.907 1081.7C862.907 1081.7 962.57 1101.01 966.844 1104.21C971.118 1107.42 979.715 1125.66 979.715 1125.66L959.34 1120.29C959.34 1120.29 912.13 1122.43 896.128 1114.92C880.126 1107.42 862.907 1081.7 862.907 1081.7Z" fill="#263238" stroke="#263238" stroke-width="0.153417" stroke-miterlimit="10" stroke-linecap="round"/>
<path d="M1362.76 1002.84L1336.15 993.965H1315.13" stroke="#263238" stroke-width="0.153417" stroke-miterlimit="10" stroke-linecap="round"/>
<path d="M985.082 1001.57L1002.82 991.431L1026.85 991.679" stroke="#263238" stroke-width="0.153417" stroke-miterlimit="10" stroke-linecap="round"/>
<path d="M1438.2 882.972C1440.91 881.431 1443.64 879.965 1446.4 878.623" stroke="#263238" stroke-width="0.153417" stroke-miterlimit="10" stroke-linecap="round"/>
<path d="M1320.22 1035.11C1337 998.239 1375.34 924.939 1428.91 888.761" stroke="#263238" stroke-width="0.153417" stroke-miterlimit="10" stroke-linecap="round"/>
<path d="M1310.78 1057.33C1310.78 1057.33 1312.1 1053.82 1314.66 1047.73" stroke="#263238" stroke-width="0.153417" stroke-miterlimit="10" stroke-linecap="round"/>
<path d="M913.994 888.761C909.538 886.044 904.933 883.51 900.179 881.158" stroke="#263238" stroke-width="0.153417" stroke-miterlimit="10" stroke-linecap="round"/>
<path d="M1021.33 1035.91C1010.35 1003.11 981.752 935.251 923.436 894.874" stroke="#263238" stroke-width="0.153417" stroke-miterlimit="10" stroke-linecap="round"/>
<path d="M1026.9 1054.79C1026.9 1054.79 1026.13 1051.39 1024.42 1045.47" stroke="#263238" stroke-width="0.153417" stroke-miterlimit="10" stroke-linecap="round"/>
<path d="M869.765 940.717C869.765 940.717 858.36 912.838 858.36 896.364Z" fill="white"/>
<path d="M869.765 940.717C869.765 940.717 858.36 912.838 858.36 896.364" stroke="#263238" stroke-width="0.153417" stroke-miterlimit="10" stroke-linecap="round"/>
<path d="M1479.35 939.45C1482.42 927.79 1484.54 915.898 1485.68 903.893Z" fill="white"/>
<path d="M1479.35 939.45C1482.42 927.79 1484.54 915.898 1485.68 903.893" stroke="#263238" stroke-width="0.153417" stroke-miterlimit="10" stroke-linecap="round"/>
<path d="M1518.65 1058.59L1511.05 1157.34L1370.41 1163.77C1370.41 1163.77 1346.34 1134.63 1345.07 1121.95C1343.8 1109.28 1361.54 1090.27 1366.61 1089.01C1371.68 1087.74 1460.39 1070 1460.39 1070" stroke="#263238" stroke-width="0.153417" stroke-miterlimit="10" stroke-linecap="round"/>
<path d="M830.406 1058.59L838.01 1157.34L978.695 1163.67C978.695 1163.67 1002.77 1134.53 1004.04 1121.85C1005.31 1109.18 987.566 1090.17 982.497 1088.91C977.428 1087.64 888.698 1069.9 888.698 1069.9" stroke="#263238" stroke-width="0.153417" stroke-miterlimit="10" stroke-linecap="round"/>
<path d="M1065.59 1015.71L1169 1023.98C1173.39 1024.33 1177.81 1024.33 1182.2 1023.98L1277.51 1016.53" stroke="#263238" stroke-width="0.153417" stroke-miterlimit="10" stroke-linecap="round"/>
<path d="M1072.4 1026.39L1169 1034.12C1173.39 1034.48 1177.81 1034.48 1182.2 1034.12L1274.13 1026.99" stroke="#263238" stroke-width="0.153417" stroke-miterlimit="10" stroke-linecap="round"/>
<path d="M1079.33 1037.22L1169 1044.41C1173.39 1044.74 1177.8 1044.74 1182.2 1044.41L1269.53 1037.62" stroke="#263238" stroke-width="0.153417" stroke-miterlimit="10" stroke-linecap="round"/>
<path d="M1138.59 799.882C1090.66 828.059 959.688 853.155 891.979 864.734C966.173 862.1 1313.99 850.919 1461.95 865.231L1396.7 746.237C1301.84 739.901 1187.76 770.96 1138.59 799.882Z" fill="#787878"/>
<path d="M877.89 865.231C877.89 865.231 1295.85 849.154 1461.95 865.231L1389.07 732.446C1389.07 732.446 1200.46 708.866 955.066 733.515C955.066 733.415 904.7 812.728 877.89 865.231Z" stroke="#263238" stroke-width="0.153417" stroke-miterlimit="10" stroke-linecap="round"/>
<path d="M1008.29 881.729C1008.29 881.729 1010.77 889.059 1030.3 907.422C1049.83 925.784 1065.79 900.092 1086.61 889.059C1107.43 878.027 1082.93 868.262 1157.57 922.106C1232.21 975.951 1265.24 986.958 1294.61 955.128C1323.98 923.299 1365.57 875.617 1385.15 886.624C1404.73 897.632 1416.98 918.429 1434.1 918.429C1451.22 918.429 1473.26 884.164 1473.26 884.164" stroke="white" stroke-width="0.153417" stroke-miterlimit="10" stroke-linecap="round"/>
<path d="M1008.29 887.842C1008.29 887.842 1010.77 895.296 1030.3 913.534C1049.83 931.772 1065.79 906.204 1086.61 895.197C1107.43 884.189 1082.93 874.375 1157.57 928.219C1232.21 982.063 1265.24 993.07 1294.61 961.266C1323.98 929.461 1365.57 881.754 1385.15 892.737C1404.73 903.719 1416.98 924.541 1434.1 924.541C1451.22 924.541 1473.26 890.302 1473.26 890.302" stroke="#263238" stroke-width="0.153417" stroke-miterlimit="10" stroke-linecap="round"/>
<path d="M845.489 915.348C845.489 915.348 806.752 952.246 807.671 981.765C808.591 1011.28 835.351 1015.91 839.973 1037.12C844.595 1058.34 890.711 1072.18 935.909 1060.18C981.106 1048.18 1000.51 1060.18 1014.33 1085.03C1028.14 1109.88 1051.2 1111.84 1069.76 1102.67" stroke="#263238" stroke-width="0.153417" stroke-miterlimit="10" stroke-linecap="round"/>
<path d="M850.111 910.726C850.111 910.726 811.349 947.649 812.293 977.168C813.238 1006.69 839.948 1011.28 844.595 1032.5C849.241 1053.72 895.308 1067.56 940.556 1055.46C985.803 1043.36 1005.16 1055.46 1018.97 1080.31C1032.79 1105.16 1055.87 1107.05 1074.31 1097.83" stroke="white" stroke-width="0.153417" stroke-miterlimit="10" stroke-linecap="round"/>
<path d="M1525.36 960.545C1525.36 960.545 1517.06 1025.15 1492.17 1037.12C1467.27 1049.1 1364.85 1058.34 1340.87 1074.94C1316.89 1091.54 1316.02 1127.52 1316.02 1127.52" stroke="white" stroke-width="0.153417" stroke-miterlimit="10" stroke-linecap="round"/>
<path d="M1525.36 966.012C1525.36 966.012 1517.01 1030.61 1492.17 1042.67C1467.32 1054.72 1364.85 1063.86 1340.87 1080.48C1316.89 1097.11 1316.02 1133.06 1316.02 1133.06" stroke="#263238" stroke-width="0.153417" stroke-miterlimit="10" stroke-linecap="round"/>
<path d="M1193.3 726.085C1193.3 726.085 1207.96 723.601 1216.58 746.758C1225.21 769.916 1240.71 826.071 1266.58 826.916C1292.44 827.761 1296.74 776.923 1311.3 756.25C1325.86 735.577 1353.54 739.876 1369.89 753.765" stroke="white" stroke-width="0.153417" stroke-miterlimit="10" stroke-linecap="round"/>
<path d="M1192.43 731.254C1192.43 731.254 1207.09 728.769 1215.72 751.927C1224.34 775.084 1239.84 831.239 1265.71 832.084C1291.57 832.929 1295.87 782.141 1310.53 761.418C1325.19 740.696 1352.77 745.044 1369.15 758.934" stroke="#263238" stroke-width="0.153417" stroke-miterlimit="10" stroke-linecap="round"/>
<path d="M875.231 908.589C875.231 908.589 886.512 916.491 901.197 934.555C915.882 952.619 921.497 943.574 928.281 930.033C935.064 916.491 950.842 945.836 964.384 966.161C977.926 986.486 981.33 989.865 983.591 978.584" stroke="white" stroke-width="0.153417" stroke-miterlimit="10" stroke-linecap="round"/>
<path d="M874.784 913.037C874.784 913.037 886.065 920.938 900.75 938.978C915.435 957.017 921.05 948.022 927.833 934.48C934.617 920.938 950.395 950.283 963.961 970.584C977.528 990.884 980.883 994.288 983.144 983.007" stroke="#263238" stroke-width="0.153417" stroke-miterlimit="10" stroke-linecap="round"/>
</svg>
