<svg width="2116" height="1665" viewBox="0 0 2116 1665" fill="none" xmlns="http://www.w3.org/2000/svg">
<path d="M2052.95 634.926C2023.85 599.953 1982.59 667.838 1937.01 749.991C1912.03 795.008 1856.71 833.38 1832.55 889.935C1809.07 944.995 1817.56 1016.13 1798.76 1066.34C1771 1140.41 1748.18 1139.79 1726.14 1178.17C1716.41 1156.02 1707.85 1129.54 1709.4 1102.3C1711.41 1067.68 1767.86 1034.51 1769.15 990.578C1770.13 953.185 1716.15 906.829 1716.41 865.623C1716.41 826.427 1771.21 790.784 1770.49 750.609C1769.77 710.434 1713.83 666.86 1711.77 627.869C1709.66 585.891 1761.42 546.128 1757.66 508.683C1753.13 463.615 1693.28 426.787 1685.86 392.999C1672.16 330.728 1676.18 260.988 1650.27 262.172C1625.86 263.306 1639.97 338.969 1628.79 404.176C1622.66 440.231 1563.89 472.577 1560.8 520.632C1558.23 560.911 1611.38 611.593 1610.51 656.764C1609.68 698.948 1554.73 737.321 1555.03 781.05C1555.34 824.779 1610.92 872.268 1612 914.967C1613.19 960.086 1559.88 1000.78 1561.52 1041.72C1562.4 1062.64 1573.63 1083.24 1586.2 1102.97C1570.49 1081.85 1550.14 1060.11 1542.31 1035.13C1530.88 999.386 1548.65 953.751 1534.23 918.933C1518.77 881.178 1472.68 858.825 1453.98 829.26C1429 789.857 1418.75 737.321 1388.93 727.74C1342.98 712.906 1349.94 770.594 1367.76 842.497C1377.18 880.612 1362.04 934.076 1381.82 982.801C1398.76 1024.62 1448.36 1057.33 1469.38 1100.39C1490.39 1143.45 1484.47 1200.31 1506.46 1239.15C1524.8 1271.44 1554.88 1293.59 1579.45 1313.63L1580.89 1317.59C1581.69 1318.44 1582.67 1319.1 1583.76 1319.52C1584.85 1319.94 1586.01 1320.11 1587.18 1320.01C1595.46 1326.71 1603 1334.28 1609.68 1342.57C1622.15 1359.06 1608.24 1391.25 1616.22 1399.23C1638.17 1421.33 1639.3 1403.25 1637.96 1384.14C1637.19 1373.07 1662.79 1355.24 1661.24 1338.71C1662.38 1336.83 1664.04 1335.32 1666.03 1334.38C1674.68 1332.43 1714.24 1365.91 1719.6 1354.99C1723.56 1347.06 1675.61 1313.78 1678.39 1303.48C1680.35 1296.22 1713.98 1298.69 1729.9 1295.5C1730.37 1295.82 1730.79 1296.22 1731.14 1296.68C1735.82 1302.76 1738.19 1329.75 1751.74 1324.75C1769.77 1318.06 1794.08 1234.36 1844.76 1154.21C1875.3 1105.9 1936.65 1068.04 1966.21 1010.56C1995.78 953.082 1992.79 877.779 2011.85 823.852C2041.26 740.462 2079.58 667.066 2052.95 634.926ZM1622.3 1173.68C1624.47 1214.53 1610.61 1230.34 1597.37 1244.61C1589.24 1198.25 1621.01 1198.25 1605.25 1137.48C1603.76 1132.08 1601.61 1126.9 1598.87 1122.02C1610.92 1140.46 1621.48 1157.87 1622.3 1173.68ZM1642.54 1311.62C1643.33 1312.85 1643.87 1314.23 1644.1 1315.67C1644.34 1317.12 1644.29 1318.59 1643.94 1320.01C1638.78 1317.08 1633.63 1314.25 1628.9 1311.31C1635.59 1309.97 1640.79 1309.56 1642.54 1311.62V1311.62Z" fill="#92E3A9"/>
<path opacity="0.5" d="M2052.95 634.926C2023.85 599.953 1982.59 667.838 1937.01 749.991C1912.03 795.008 1856.71 833.38 1832.55 889.935C1809.07 944.995 1817.56 1016.13 1798.76 1066.34C1771 1140.41 1748.18 1139.79 1726.14 1178.17C1716.41 1156.02 1707.85 1129.54 1709.4 1102.3C1711.41 1067.68 1767.86 1034.51 1769.15 990.578C1770.13 953.185 1716.15 906.829 1716.41 865.623C1716.41 826.427 1771.21 790.784 1770.49 750.609C1769.77 710.434 1713.83 666.86 1711.77 627.869C1709.66 585.891 1761.42 546.128 1757.66 508.683C1753.13 463.615 1693.28 426.787 1685.86 392.999C1672.16 330.728 1676.18 260.988 1650.27 262.172C1625.86 263.306 1639.97 338.969 1628.79 404.176C1622.66 440.231 1563.89 472.577 1560.8 520.632C1558.23 560.911 1611.38 611.593 1610.51 656.764C1609.68 698.948 1554.73 737.321 1555.03 781.05C1555.34 824.779 1610.92 872.268 1612 914.967C1613.19 960.086 1559.88 1000.78 1561.52 1041.72C1562.4 1062.64 1573.63 1083.24 1586.2 1102.97C1570.49 1081.85 1550.14 1060.11 1542.31 1035.13C1530.88 999.386 1548.65 953.751 1534.23 918.933C1518.77 881.178 1472.68 858.825 1453.98 829.26C1429 789.857 1418.75 737.321 1388.93 727.74C1342.98 712.906 1349.94 770.594 1367.76 842.497C1377.18 880.612 1362.04 934.076 1381.82 982.801C1398.76 1024.62 1448.36 1057.33 1469.38 1100.39C1490.39 1143.45 1484.47 1200.31 1506.46 1239.15C1524.8 1271.44 1554.88 1293.59 1579.45 1313.63L1580.89 1317.59C1581.69 1318.44 1582.67 1319.1 1583.76 1319.52C1584.85 1319.94 1586.01 1320.11 1587.18 1320.01C1595.46 1326.71 1603 1334.28 1609.68 1342.57C1622.15 1359.06 1608.24 1391.25 1616.22 1399.23C1638.17 1421.33 1639.3 1403.25 1637.96 1384.14C1637.19 1373.07 1662.79 1355.24 1661.24 1338.71C1662.38 1336.83 1664.04 1335.32 1666.03 1334.38C1674.68 1332.43 1714.24 1365.91 1719.6 1354.99C1723.56 1347.06 1675.61 1313.78 1678.39 1303.48C1680.35 1296.22 1713.98 1298.69 1729.9 1295.5C1730.37 1295.82 1730.79 1296.22 1731.14 1296.68C1735.82 1302.76 1738.19 1329.75 1751.74 1324.75C1769.77 1318.06 1794.08 1234.36 1844.76 1154.21C1875.3 1105.9 1936.65 1068.04 1966.21 1010.56C1995.78 953.082 1992.79 877.779 2011.85 823.852C2041.26 740.462 2079.58 667.066 2052.95 634.926ZM1622.3 1173.68C1624.47 1214.53 1610.61 1230.34 1597.37 1244.61C1589.24 1198.25 1621.01 1198.25 1605.25 1137.48C1603.76 1132.08 1601.61 1126.9 1598.87 1122.02C1610.92 1140.46 1621.48 1157.87 1622.3 1173.68ZM1642.54 1311.62C1643.33 1312.85 1643.87 1314.23 1644.1 1315.67C1644.34 1317.12 1644.29 1318.59 1643.94 1320.01C1638.78 1317.08 1633.63 1314.25 1628.9 1311.31C1635.59 1309.97 1640.79 1309.56 1642.54 1311.62V1311.62Z" fill="white"/>
<g opacity="0.2">
<path opacity="0.2" d="M1701.06 1130.68L1695.91 1128.26L1680.45 1179.92L1681.07 1057.28L1709.14 977.444L1703.94 975.229L1681.17 1040.08L1681.74 925.937L1726.81 850.841L1722.02 847.699L1681.79 914.812L1682.41 789.857L1724.13 726.968L1719.5 723.671L1682.46 779.453L1682.98 673.452L1709.55 617.928L1704.61 615.147L1683.08 660.421L1683.65 542.523L1718.47 471.237L1713.52 468.508L1683.7 529.491L1684.26 417.98L1678.81 417.465L1678.24 527.792L1619.21 438.994L1614.73 441.776L1678.19 537.217L1677.52 666.859L1618.7 605.154L1614.94 608.76L1677.52 674.379L1676.95 783.213L1620.04 733.406L1616.64 737.423L1676.9 790.115L1676.28 916.46L1617.62 848.781L1613.65 852.18L1676.23 924.444L1675.61 1055.89L1675.15 1057.12L1618.13 972.293L1613.7 975.075L1675.51 1067.07L1674.89 1193.57L1627.81 1098.85L1622.92 1100.96L1674.84 1205.31L1674.07 1359.98L1679.53 1360.5L1680.35 1195.63L1701.06 1130.68Z" fill="black"/>
<path opacity="0.2" d="M1993.97 853.777L1991.5 848.678L1934.69 872.165L1963.28 813.396L2027.2 777.341L2024.21 772.499L1967.65 804.382L2015.09 706.88L2010.15 704.15L1967.96 790.733L1978.68 694.261L1973.22 693.128L1960.75 805.567L1930.21 868.353L1933.76 768.894L1928.3 768.224L1924.29 880.56L1889.57 951.897L1879.73 881.436L1874.32 881.693L1885.35 960.601L1845.64 1042.24L1842.24 956.532L1836.78 956.275L1840.59 1052.64L1796.29 1143.66L1791.6 1108.73L1786.14 1108.84L1791.81 1152.82L1720.68 1299.05L1725.68 1301.83L1793 1163.43L1793.25 1165.96L1856.76 1140.41L1854.34 1135.26L1797.84 1157.97L1797.48 1154.27L1844.91 1056.71L1905.59 1037.96L1903.58 1032.71L1848.26 1049.76L1891.12 961.683L1960.55 932.324L1958.02 927.225L1894.93 953.957L1930.93 879.839L1993.97 853.777Z" fill="black"/>
<path opacity="0.2" d="M1581.77 1160.24L1576.31 1159.42L1572.55 1213.81L1544.22 1152.82L1558.28 1083.03L1552.87 1081.49L1540.25 1144.33L1501.88 1061.76L1512.13 976.156L1506.72 975.075L1497.45 1052.23L1465.57 983.625L1468.76 984.964L1473.35 900.699L1467.89 899.927L1463.66 977.083L1462.27 976.517L1426.37 899.257L1433.27 820.297L1427.81 819.319L1421.68 889.213L1383.88 807.833L1378.93 809.79L1419.16 896.321L1375.12 869.229L1372.6 873.864L1423.18 904.974L1455.01 973.529L1413.13 956.275L1411.49 961.322L1458.36 980.637L1491.37 1051.72L1441.93 1023.54L1439.56 1028.28L1495.18 1059.96L1534.59 1144.74L1490.45 1128.46L1489 1133.61L1537.78 1151.59L1571.77 1224.78L1571.52 1228.74L1529.13 1206.18L1526.91 1210.97L1576.46 1237.4L1576.62 1235.13L1641.57 1374.92L1646.51 1372.96L1577.34 1224.16L1581.77 1160.24Z" fill="black"/>
</g>
<path d="M1625.91 1367.76C1625.91 1367.76 1630.75 1351.85 1596.86 1332.89C1583.24 1324.8 1569.21 1317.43 1554.83 1310.79C1554.83 1310.79 1562.81 1334.64 1580.32 1347.31C1597.84 1359.98 1605.31 1365.75 1605.31 1365.75C1591.16 1358.85 1575.75 1354.94 1560.03 1354.27C1545.85 1353.88 1531.89 1357.84 1520.01 1365.6C1534.78 1373.37 1550 1380.25 1565.59 1386.2C1584.19 1392.75 1603.72 1396.23 1623.44 1396.5C1623.44 1396.5 1579.24 1391.35 1570.59 1399.95C1562.52 1409.36 1555.36 1419.52 1549.21 1430.29C1567.44 1428.74 1585.76 1428.83 1603.97 1430.55C1627.4 1433.64 1658.41 1421.84 1658.41 1421.84L1684.88 1434.98L1696.01 1418.44C1696.01 1418.44 1702.24 1417.88 1723.31 1428.74C1742.74 1437.84 1762.79 1445.55 1783.31 1451.82L1743.91 1401.29L1783.72 1410.67C1803.66 1415.35 1835.75 1409.89 1835.75 1409.89C1835.75 1409.89 1832.71 1399.85 1810.87 1391.45C1789.03 1383.06 1747.31 1369.98 1747.31 1369.98C1747.31 1369.98 1781.66 1377.24 1804.48 1362.3C1818.43 1353.07 1831.04 1341.94 1841.93 1329.23C1841.93 1329.23 1809.37 1310.07 1778.68 1316.77C1757.81 1322.21 1738.29 1331.87 1721.3 1345.15C1721.3 1345.15 1741.39 1329.13 1747.82 1307.86C1751.5 1296.26 1754.08 1284.35 1755.55 1272.27C1755.55 1272.27 1718.31 1284.68 1708.83 1295.86C1699.36 1307.03 1683.39 1339.48 1683.39 1339.48C1683.39 1339.48 1699.36 1307.03 1680.71 1287.98C1662.07 1268.92 1646.36 1254.09 1646.36 1254.09C1646.36 1254.09 1630.65 1276.9 1627.4 1295.29C1624.16 1313.68 1647.75 1346.49 1647.75 1346.49L1626.73 1335.47L1625.91 1367.76Z" fill="#92E3A9"/>
<path opacity="0.3" d="M1625.91 1367.76C1625.91 1367.76 1630.75 1351.85 1596.86 1332.89C1583.24 1324.8 1569.21 1317.43 1554.83 1310.79C1554.83 1310.79 1562.81 1334.64 1580.32 1347.31C1597.84 1359.98 1605.31 1365.75 1605.31 1365.75C1591.16 1358.85 1575.75 1354.94 1560.03 1354.27C1545.85 1353.88 1531.89 1357.84 1520.01 1365.6C1534.78 1373.37 1550 1380.25 1565.59 1386.2C1584.19 1392.75 1603.72 1396.23 1623.44 1396.5C1623.44 1396.5 1579.24 1391.35 1570.59 1399.95C1562.52 1409.36 1555.36 1419.52 1549.21 1430.29C1567.44 1428.74 1585.76 1428.83 1603.97 1430.55C1627.4 1433.64 1658.41 1421.84 1658.41 1421.84L1684.88 1434.98L1696.01 1418.44C1696.01 1418.44 1702.24 1417.88 1723.31 1428.74C1742.74 1437.84 1762.79 1445.55 1783.31 1451.82L1743.91 1401.29L1783.72 1410.67C1803.66 1415.35 1835.75 1409.89 1835.75 1409.89C1835.75 1409.89 1832.71 1399.85 1810.87 1391.45C1789.03 1383.06 1747.31 1369.98 1747.31 1369.98C1747.31 1369.98 1781.66 1377.24 1804.48 1362.3C1818.43 1353.07 1831.04 1341.94 1841.93 1329.23C1841.93 1329.23 1809.37 1310.07 1778.68 1316.77C1757.81 1322.21 1738.29 1331.87 1721.3 1345.15C1721.3 1345.15 1741.39 1329.13 1747.82 1307.86C1751.5 1296.26 1754.08 1284.35 1755.55 1272.27C1755.55 1272.27 1718.31 1284.68 1708.83 1295.86C1699.36 1307.03 1683.39 1339.48 1683.39 1339.48C1683.39 1339.48 1699.36 1307.03 1680.71 1287.98C1662.07 1268.92 1646.36 1254.09 1646.36 1254.09C1646.36 1254.09 1630.65 1276.9 1627.4 1295.29C1624.16 1313.68 1647.75 1346.49 1647.75 1346.49L1626.73 1335.47L1625.91 1367.76Z" fill="white"/>
<path d="M757.507 705.283C757.507 705.283 724.285 678.654 715.735 661.503C708.524 646.926 703.271 626.324 710.585 610.82C712.17 607.126 714.525 603.812 717.492 601.1C720.46 598.388 723.971 596.34 727.792 595.092C731.614 593.844 735.657 593.426 739.653 593.864C743.649 594.303 747.506 595.588 750.966 597.635C771.569 610.563 773.629 654.652 768.427 675.873C768.118 677.727 757.868 705.592 757.507 705.283Z" fill="#92E3A9"/>
<path d="M1064.8 927.431C1063.4 928.719 1039.71 946.18 1039.56 945.768C1039.4 945.356 1026.32 904.872 1028.53 885.814C1030.39 869.59 1037.19 849.45 1051.87 840.694C1055.25 838.521 1059.06 837.094 1063.04 836.508C1067.01 835.922 1071.07 836.192 1074.94 837.298C1078.8 838.405 1082.39 840.323 1085.45 842.925C1088.52 845.527 1090.99 848.752 1092.71 852.386C1102.76 874.74 1080.66 912.752 1064.8 927.431Z" fill="#92E3A9"/>
<path d="M368.375 745.716C368.375 745.716 490.034 873.349 489.416 1030.14C488.797 1186.92 365.8 1313.42 365.8 1313.42C365.8 1313.42 244.141 1185.79 244.811 1029C245.48 872.216 368.375 745.716 368.375 745.716Z" fill="#92E3A9"/>
<path d="M541.849 1124.03C540.241 1122.28 538.777 1120.4 537.471 1118.42C528.612 1104.77 521.041 1084.94 526.758 1068.61C527.913 1064.76 529.874 1061.19 532.511 1058.16C535.148 1055.12 538.401 1052.67 542.054 1050.99C545.707 1049.3 549.677 1048.42 553.699 1048.38C557.722 1048.35 561.706 1049.17 565.388 1050.79C581.921 1058.72 590.008 1085.66 591.759 1107.7C598.352 1106.16 604.275 1104.97 609.374 1104.1C611.589 1098.95 613.752 1094.11 615.967 1089.01C618.182 1083.91 620.088 1078.71 622.199 1073.3C625.084 1065.47 627.711 1057.23 630.338 1049.04C620.706 1044.66 592.686 1031.32 582.23 1019.58C571.774 1007.83 561.061 988.982 564.255 972.036C564.819 968.046 566.223 964.221 568.373 960.812C570.522 957.404 573.37 954.489 576.727 952.261C580.085 950.032 583.876 948.54 587.852 947.882C591.828 947.225 595.898 947.417 599.794 948.446C622.869 955.451 636.467 997.429 636.93 1019.27C636.93 1019.99 636.57 1024.42 636.106 1030.08C638.424 1022 640.793 1013.96 642.854 1005.67C648.828 982.183 654.134 958.078 659.593 933.973C660.726 928.822 661.911 923.929 663.096 918.933C654.958 915.276 624.466 901.112 613.546 888.853C602.627 876.594 592.326 858.258 595.519 841.261C596.09 837.275 597.498 833.456 599.651 830.053C601.804 826.651 604.652 823.742 608.009 821.519C611.365 819.296 615.155 817.808 619.127 817.154C623.1 816.499 627.166 816.693 631.059 817.722C654.185 824.676 667.731 866.654 668.246 888.492C668.246 889.316 667.783 894.828 667.216 901.008C670.358 887.926 673.654 874.946 677.517 862.173C683.674 840.221 691.262 818.697 700.232 797.738C697.348 796.502 661.293 780.586 649.137 766.834C638.373 754.73 627.968 736.239 631.11 719.293C631.681 715.301 633.091 711.475 635.246 708.066C637.401 704.658 640.253 701.744 643.615 699.516C646.976 697.288 650.771 695.796 654.75 695.139C658.729 694.482 662.802 694.674 666.701 695.703C689.776 702.708 703.374 744.686 703.837 766.525C703.837 768.07 702.086 788.055 701.211 795.162L701.52 794.441C710.805 774.11 721.889 754.649 734.638 736.29C745.879 719.847 758.072 704.077 771.156 689.059C783.157 675.049 795.004 662.945 805.511 652.283C811.28 646.617 816.637 641.467 821.684 636.831H821.169C820.757 636.831 832.449 609.533 833.376 607.885C844.193 588.93 875.972 558.85 899.511 564.052C903.428 565.071 907.09 566.897 910.26 569.413C913.431 571.929 916.041 575.08 917.922 578.664C919.804 582.248 920.916 586.185 921.187 590.224C921.458 594.262 920.882 598.313 919.495 602.116C914.345 618.546 896.317 629.62 881.174 634.926C866.032 640.231 831.574 637.758 823.127 636.986C817.976 642.136 812.516 647.287 806.644 653.519C796.343 664.336 784.806 676.697 773.165 690.913C770.075 694.725 766.881 698.948 763.739 702.966C770.435 697.3 779.758 689.677 780.737 689.059C798.918 677.315 840.793 665.469 859.336 681.127C862.352 683.835 864.772 687.141 866.444 690.834C868.115 694.527 869 698.527 869.044 702.58C869.087 706.634 868.288 710.652 866.697 714.38C865.105 718.109 862.756 721.465 859.799 724.238C847.695 736.393 826.784 737.836 810.868 735.466C794.952 733.097 764.512 714.143 758.177 709.971C751.326 718.933 744.476 728.358 737.883 738.608C725.693 757.022 715.162 776.483 706.413 796.759C705.898 797.944 705.537 799.18 705.074 800.365C707.906 797.017 724.801 779.762 726.14 778.577C742.931 764.877 783.26 748.446 803.4 761.941C806.692 764.305 809.457 767.327 811.52 770.816C813.583 774.306 814.898 778.185 815.382 782.21C815.867 786.234 815.509 790.315 814.333 794.194C813.157 798.073 811.188 801.665 808.55 804.743C797.837 818.134 777.183 821.894 761.113 821.328C742.622 820.658 706.155 801.961 704.816 801.24C696.612 821.706 689.73 842.678 684.213 864.027C680.041 879.839 676.487 896.012 673.036 912.288C676.848 907.962 692.557 891.686 693.639 890.81C710.43 877.109 750.76 860.679 770.899 874.174C774.191 876.538 776.957 879.56 779.019 883.049C781.082 886.538 782.397 890.418 782.882 894.442C783.366 898.467 783.009 902.548 781.833 906.427C780.657 910.306 778.687 913.898 776.05 916.975C765.336 930.367 744.682 934.179 728.664 933.561C710.585 932.891 675.56 915.121 672.624 913.628C671.028 920.993 669.482 928.41 667.937 935.827C662.787 960.035 658.203 984.295 652.485 1007.94C650.58 1016.18 648.416 1024.21 646.253 1032.35C652.176 1026.07 663.096 1014.84 664.177 1014.01C680.917 1000.31 721.298 983.883 741.437 997.326C744.731 999.695 747.497 1002.72 749.56 1006.22C751.624 1009.71 752.939 1013.59 753.423 1017.62C753.908 1021.65 753.55 1025.73 752.373 1029.62C751.197 1033.5 749.227 1037.1 746.588 1040.18C735.823 1053.57 715.22 1057.33 699.15 1056.76C683.08 1056.2 653.258 1041.88 644.914 1037.71C641.257 1051.15 637.342 1064.39 632.861 1077.26C630.853 1082.72 629.101 1088.49 626.835 1093.64L623.436 1101.88C626.423 1101.52 628.123 1101.42 628.123 1101.42C628.123 1101.42 628.432 1109.04 627.711 1121.51C645.429 1108.68 670.925 1097.66 687.561 1105.39C691.168 1107.24 694.35 1109.82 696.907 1112.96C699.464 1116.11 701.339 1119.75 702.414 1123.66C703.489 1127.56 703.74 1131.65 703.152 1135.66C702.564 1139.67 701.148 1143.52 698.996 1146.95C697.911 1148.77 696.67 1150.5 695.287 1152.1C692.165 1171.01 684.297 1188.82 672.418 1203.87C671.491 1204.95 659.49 1216.23 653.206 1221.84C659.284 1218.5 665.31 1215.2 671.543 1211.54C680.608 1206.39 689.982 1200.78 699.099 1195.32L713.16 1186.2C717.95 1183.21 722.225 1179.76 726.861 1176.52C733.557 1171.62 740.201 1166.22 746.845 1161.07C741.18 1152.05 725.058 1125.01 722.689 1109.56C720.319 1094.11 721.607 1072.11 733.505 1059.75C736.176 1056.75 739.457 1054.35 743.129 1052.72C746.8 1051.09 750.778 1050.26 754.796 1050.29C758.814 1050.32 762.779 1051.21 766.426 1052.89C770.074 1054.58 773.319 1057.02 775.947 1060.06C791.398 1078.81 779.964 1121.41 768.478 1139.95C768.118 1140.51 765.285 1144.17 761.885 1148.5C768.221 1143.04 774.556 1137.63 780.788 1131.91C798.506 1115.64 816.019 1098.54 833.685 1081.49L844.759 1070.88C839.969 1063.31 822.199 1034.41 819.779 1018.03C817.358 1001.65 818.697 980.586 830.544 968.225C833.215 965.223 836.496 962.827 840.167 961.195C843.839 959.564 847.817 958.735 851.834 958.764C855.852 958.793 859.817 959.68 863.465 961.365C867.112 963.05 870.358 965.494 872.985 968.534C888.437 987.282 877.002 1029.88 865.568 1048.42C865.156 1049.09 861.756 1053.57 857.945 1058.26C867.68 1049.14 877.466 1040.13 887.458 1031.53C904.486 1016.59 922.503 1002.83 941.386 990.321C939.634 987.642 918.156 954.266 915.632 935.981C913.212 919.86 914.551 898.588 926.397 886.226C929.065 883.221 932.343 880.821 936.012 879.185C939.682 877.549 943.659 876.716 947.676 876.74C951.694 876.764 955.66 877.646 959.31 879.326C962.959 881.007 966.208 883.447 968.839 886.484C984.291 905.283 972.856 947.879 961.422 966.37C960.598 967.709 948.236 983.368 943.652 988.827L944.322 988.364C963.116 976.628 982.922 966.596 1003.5 958.387C1021.74 951.171 1040.39 945.014 1059.34 939.947C1077 934.797 1093.38 931.5 1107.96 928.564C1115.84 927.019 1123.1 925.732 1129.9 924.65L1129.49 924.341C1129.13 924.032 1153.7 907.859 1155.24 907.035C1174.56 897.3 1217.41 889.986 1234.2 907.55C1236.93 910.55 1239 914.084 1240.28 917.927C1241.57 921.771 1242.04 925.84 1241.66 929.876C1241.29 933.911 1240.08 937.825 1238.11 941.368C1236.15 944.911 1233.46 948.005 1230.23 950.455C1216.89 961.22 1195.98 960.447 1180.43 956.378C1164.87 952.309 1137.52 930.934 1130.88 925.474C1123.87 926.762 1116.41 928.204 1108.16 930.007C1093.69 933.252 1077.26 937.063 1059.95 942.42C1055.32 943.862 1050.37 945.562 1045.53 947.158C1054.24 946.231 1066.13 945.098 1067.32 945.098C1088.8 945.51 1130.16 959.108 1137.16 982.543C1138.19 986.43 1138.41 990.489 1137.79 994.462C1137.17 998.435 1135.73 1002.24 1133.57 1005.63C1131.4 1009.02 1128.56 1011.92 1125.21 1014.15C1121.87 1016.38 1118.1 1017.9 1114.14 1018.6C1097.45 1021.89 1079.22 1011.39 1067.22 1000.47C1055.22 989.548 1040.23 956.79 1037.14 949.682C1026.53 953.339 1015.71 957.357 1004.64 962.198C984.477 970.731 965.135 981.074 946.845 993.102C945.764 993.823 944.785 994.647 943.703 995.369C947.927 994.184 971.466 989.136 973.165 988.982C994.592 986.973 1037.14 995.884 1046.61 1018.44C1048.1 1022.21 1048.78 1026.24 1048.62 1030.28C1048.46 1034.33 1047.45 1038.29 1045.67 1041.92C1043.88 1045.56 1041.36 1048.78 1038.26 1051.38C1035.16 1053.98 1031.55 1055.9 1027.66 1057.02C1011.43 1062.17 992.171 1053.78 979.088 1044.25C964.049 1033.33 943.755 997.274 943.034 995.884C925.095 1008.41 907.977 1022.07 891.785 1036.78C879.732 1047.6 867.989 1059.08 856.297 1070.72C861.808 1069.28 883.698 1064.64 885.295 1064.49C906.722 1062.48 949.318 1071.39 958.743 1093.9C960.23 1097.66 960.914 1101.7 960.751 1105.74C960.588 1109.78 959.582 1113.75 957.797 1117.38C956.013 1121.01 953.489 1124.23 950.388 1126.83C947.287 1129.43 943.677 1131.36 939.789 1132.48C923.564 1137.63 904.301 1129.23 891.27 1119.76C876.539 1109.04 856.966 1074.59 855.215 1071.7L839.3 1087.57C822.096 1105.03 804.842 1122.59 787.33 1139.38C781.303 1145.2 775.122 1150.71 768.942 1156.22C777.234 1154.32 792.48 1151.07 793.819 1151.07C815.246 1149.06 857.791 1157.97 867.268 1180.53C868.754 1184.3 869.438 1188.33 869.275 1192.37C869.112 1196.42 868.106 1200.38 866.321 1204.02C864.537 1207.65 862.013 1210.87 858.912 1213.47C855.811 1216.07 852.201 1217.99 848.313 1219.11C832.089 1224.26 812.825 1215.87 799.743 1206.34C786.66 1196.81 769.56 1168.22 764.821 1159.98C754.52 1169.15 744.219 1177.96 733.351 1186.2C728.664 1189.6 724.079 1193.41 719.392 1196.5L705.589 1205.93C695.905 1212.01 686.943 1217.67 677.775 1223.13C673.191 1225.91 668.761 1228.28 664.28 1231.06C672.418 1227.82 685.398 1222.92 686.634 1222.62C707.546 1217.46 750.914 1219.58 763.636 1240.39C765.691 1243.9 766.988 1247.8 767.443 1251.85C767.898 1255.89 767.502 1259.98 766.279 1263.86C765.056 1267.75 763.035 1271.33 760.344 1274.38C757.654 1277.43 754.354 1279.89 750.657 1281.59C735.205 1289.16 715.117 1283.81 700.747 1276.44C684.934 1268.3 661.19 1238.38 658.254 1234.72C647.232 1241.11 636.415 1247.24 626.165 1252.8C598.867 1267.63 575.019 1279.48 556.529 1288.34C496.42 1341.13 411.847 1346.95 411.847 1346.95C411.847 1346.95 407.417 1243.94 467.062 1176.26C487.83 1153.54 513.371 1135.71 541.849 1124.03V1124.03ZM649.137 1224.42C647.283 1220.19 632.861 1187.49 631.883 1169.05C628.535 1168.43 625.187 1167.71 621.942 1166.94C615.846 1199.4 603.135 1230.25 584.6 1257.59C595.519 1252.44 607.366 1246.46 619.933 1239.97C629.256 1235.18 639.094 1229.93 649.137 1224.42Z" fill="#92E3A9"/>
<path d="M98.6866 1104.36C98.6866 1104.36 200 1107.5 262.065 1173.01C324.131 1238.53 323.307 1341.54 323.307 1341.54C323.307 1341.54 221.993 1338.4 159.928 1272.89C97.8625 1207.37 98.6866 1104.36 98.6866 1104.36Z" fill="#92E3A9"/>
<g opacity="0.5">
<path opacity="0.5" d="M757.507 705.283C757.507 705.283 724.285 678.655 715.735 661.503C708.524 646.927 703.271 626.324 710.585 610.82C712.17 607.126 714.525 603.813 717.492 601.101C720.46 598.389 723.971 596.34 727.792 595.093C731.614 593.845 735.657 593.426 739.653 593.864C743.649 594.303 747.506 595.588 750.966 597.635C771.568 610.563 773.629 654.653 768.427 675.873C768.117 677.728 757.868 705.593 757.507 705.283Z" fill="white"/>
<path opacity="0.5" d="M1064.8 927.431C1063.4 928.719 1039.71 946.18 1039.56 945.767C1039.4 945.355 1026.32 904.871 1028.53 885.814C1030.39 869.589 1037.19 849.45 1051.87 840.694C1055.25 838.521 1059.06 837.093 1063.04 836.508C1067.01 835.922 1071.07 836.192 1074.94 837.298C1078.8 838.405 1082.39 840.323 1085.45 842.925C1088.52 845.526 1090.99 848.752 1092.71 852.386C1102.76 874.74 1080.66 912.752 1064.8 927.431Z" fill="white"/>
<path opacity="0.5" d="M368.375 745.716C368.375 745.716 490.034 873.349 489.415 1030.14C488.797 1186.92 365.8 1313.42 365.8 1313.42C365.8 1313.42 244.141 1185.79 244.811 1029C245.48 872.216 368.375 745.716 368.375 745.716Z" fill="white"/>
<path opacity="0.5" d="M541.849 1124.03C540.241 1122.28 538.777 1120.4 537.471 1118.42C528.612 1104.77 521.041 1084.94 526.758 1068.61C527.913 1064.76 529.874 1061.19 532.511 1058.16C535.148 1055.12 538.401 1052.67 542.054 1050.99C545.707 1049.3 549.677 1048.42 553.699 1048.38C557.722 1048.35 561.706 1049.17 565.388 1050.79C581.921 1058.72 590.008 1085.66 591.759 1107.7C598.352 1106.16 604.275 1104.97 609.374 1104.1C611.589 1098.95 613.752 1094.11 615.967 1089.01C618.182 1083.91 620.088 1078.71 622.199 1073.3C625.084 1065.47 627.711 1057.23 630.337 1049.04C620.706 1044.66 592.686 1031.32 582.23 1019.58C571.774 1007.83 561.061 988.982 564.255 972.036C564.819 968.046 566.223 964.221 568.372 960.812C570.522 957.404 573.37 954.489 576.727 952.261C580.085 950.032 583.876 948.54 587.852 947.882C591.828 947.225 595.898 947.417 599.794 948.446C622.869 955.451 636.467 997.429 636.93 1019.27C636.93 1019.99 636.57 1024.42 636.106 1030.08C638.424 1022 640.793 1013.96 642.854 1005.67C648.828 982.183 654.133 958.078 659.593 933.973C660.726 928.822 661.911 923.929 663.096 918.933C654.958 915.276 624.466 901.112 613.546 888.853C602.627 876.594 592.326 858.258 595.519 841.261C596.09 837.275 597.498 833.456 599.651 830.053C601.804 826.651 604.652 823.742 608.009 821.519C611.365 819.296 615.154 817.808 619.127 817.154C623.1 816.499 627.166 816.693 631.059 817.722C654.185 824.676 667.731 866.654 668.246 888.492C668.246 889.316 667.783 894.828 667.216 901.008C670.358 887.926 673.654 874.946 677.517 862.173C683.674 840.221 691.262 818.697 700.232 797.738C697.348 796.502 661.293 780.586 649.137 766.834C638.372 754.73 627.968 736.239 631.11 719.293C631.681 715.301 633.091 711.475 635.246 708.066C637.401 704.658 640.253 701.744 643.615 699.516C646.976 697.288 650.771 695.796 654.75 695.139C658.729 694.482 662.802 694.674 666.701 695.703C689.776 702.708 703.374 744.686 703.837 766.525C703.837 768.07 702.086 788.055 701.211 795.162L701.52 794.441C710.805 774.11 721.889 754.649 734.638 736.29C745.879 719.847 758.072 704.077 771.156 689.059C783.157 675.049 795.004 662.945 805.511 652.283C811.28 646.617 816.637 641.467 821.684 636.831H821.169C820.757 636.831 832.449 609.533 833.376 607.885C844.193 588.93 875.972 558.85 899.511 564.052C903.428 565.071 907.09 566.897 910.26 569.413C913.431 571.929 916.041 575.08 917.922 578.664C919.804 582.248 920.916 586.185 921.187 590.224C921.458 594.262 920.881 598.313 919.495 602.116C914.345 618.546 896.317 629.62 881.174 634.926C866.032 640.231 831.574 637.758 823.127 636.986C817.976 642.136 812.516 647.287 806.644 653.519C796.343 664.336 784.806 676.697 773.165 690.913C770.075 694.725 766.881 698.948 763.739 702.966C770.435 697.3 779.758 689.677 780.737 689.059C798.918 677.315 840.793 665.469 859.336 681.127C862.352 683.835 864.772 687.141 866.444 690.834C868.115 694.527 869 698.527 869.044 702.58C869.087 706.634 868.288 710.652 866.697 714.38C865.105 718.109 862.756 721.465 859.799 724.238C847.695 736.393 826.783 737.836 810.868 735.466C794.952 733.097 764.512 714.143 758.177 709.971C751.326 718.933 744.476 728.358 737.883 738.608C725.693 757.022 715.161 776.483 706.413 796.759C705.898 797.944 705.537 799.18 705.073 800.365C707.906 797.017 724.8 779.762 726.14 778.577C742.931 764.877 783.26 748.446 803.4 761.941C806.692 764.305 809.457 767.327 811.52 770.816C813.583 774.306 814.898 778.185 815.382 782.21C815.867 786.234 815.509 790.315 814.333 794.194C813.157 798.073 811.188 801.665 808.55 804.743C797.837 818.134 777.183 821.894 761.113 821.328C742.622 820.658 706.155 801.961 704.816 801.24C696.612 821.706 689.73 842.678 684.213 864.027C680.041 879.839 676.487 896.012 673.036 912.288C676.848 907.962 692.557 891.686 693.639 890.81C710.43 877.109 750.76 860.679 770.899 874.174C774.191 876.538 776.957 879.56 779.019 883.049C781.082 886.538 782.397 890.418 782.882 894.442C783.366 898.467 783.009 902.548 781.833 906.427C780.657 910.306 778.687 913.898 776.05 916.975C765.336 930.367 744.682 934.179 728.664 933.561C710.585 932.891 675.56 915.121 672.624 913.628C671.028 920.993 669.482 928.41 667.937 935.827C662.787 960.035 658.202 984.295 652.485 1007.94C650.58 1016.18 648.416 1024.21 646.253 1032.35C652.176 1026.07 663.096 1014.84 664.177 1014.01C680.917 1000.31 721.298 983.883 741.437 997.326C744.731 999.695 747.497 1002.72 749.56 1006.22C751.624 1009.71 752.939 1013.59 753.423 1017.62C753.907 1021.65 753.55 1025.73 752.373 1029.62C751.197 1033.5 749.227 1037.1 746.588 1040.18C735.823 1053.57 715.22 1057.33 699.15 1056.76C683.08 1056.2 653.258 1041.88 644.914 1037.71C641.257 1051.15 637.342 1064.39 632.861 1077.26C630.853 1082.72 629.101 1088.49 626.835 1093.64L623.436 1101.88C626.423 1101.52 628.123 1101.42 628.123 1101.42C628.123 1101.42 628.432 1109.04 627.711 1121.51C645.429 1108.68 670.925 1097.66 687.561 1105.39C691.168 1107.24 694.35 1109.82 696.907 1112.96C699.463 1116.11 701.339 1119.75 702.414 1123.66C703.489 1127.56 703.74 1131.65 703.152 1135.66C702.563 1139.67 701.148 1143.52 698.996 1146.95C697.91 1148.77 696.67 1150.5 695.287 1152.1C692.165 1171.01 684.297 1188.82 672.418 1203.87C671.491 1204.95 659.49 1216.23 653.206 1221.84C659.284 1218.5 665.31 1215.2 671.543 1211.54C680.608 1206.39 689.982 1200.78 699.099 1195.32L713.16 1186.2C717.95 1183.21 722.225 1179.76 726.861 1176.52C733.557 1171.62 740.201 1166.22 746.845 1161.07C741.18 1152.05 725.058 1125.01 722.689 1109.56C720.319 1094.11 721.607 1072.11 733.505 1059.75C736.176 1056.75 739.457 1054.35 743.129 1052.72C746.8 1051.09 750.778 1050.26 754.796 1050.29C758.814 1050.32 762.779 1051.21 766.426 1052.89C770.074 1054.58 773.319 1057.02 775.946 1060.06C791.398 1078.81 779.964 1121.41 768.478 1139.95C768.118 1140.51 765.285 1144.17 761.885 1148.5C768.221 1143.04 774.556 1137.63 780.788 1131.91C798.506 1115.64 816.019 1098.54 833.685 1081.49L844.759 1070.88C839.969 1063.31 822.199 1034.41 819.779 1018.03C817.358 1001.65 818.697 980.586 830.543 968.225C833.215 965.223 836.496 962.827 840.167 961.195C843.839 959.564 847.816 958.735 851.834 958.764C855.852 958.793 859.817 959.68 863.465 961.365C867.112 963.05 870.358 965.494 872.985 968.534C888.437 987.282 877.002 1029.88 865.568 1048.42C865.156 1049.09 861.756 1053.57 857.945 1058.26C867.68 1049.14 877.466 1040.13 887.458 1031.53C904.486 1016.59 922.503 1002.83 941.386 990.321C939.634 987.642 918.156 954.266 915.632 935.981C913.212 919.86 914.551 898.588 926.397 886.226C929.065 883.221 932.343 880.821 936.012 879.185C939.682 877.549 943.659 876.716 947.676 876.74C951.694 876.764 955.66 877.646 959.31 879.326C962.959 881.007 966.208 883.447 968.839 886.484C984.291 905.283 972.856 947.879 961.422 966.37C960.598 967.709 948.236 983.368 943.652 988.827L944.321 988.364C963.116 976.628 982.922 966.596 1003.5 958.387C1021.74 951.171 1040.39 945.014 1059.34 939.947C1077 934.797 1093.38 931.5 1107.96 928.564C1115.84 927.019 1123.1 925.732 1129.9 924.65L1129.49 924.341C1129.13 924.032 1153.7 907.859 1155.24 907.035C1174.56 897.3 1217.41 889.986 1234.2 907.55C1236.93 910.55 1239 914.084 1240.28 917.927C1241.57 921.771 1242.04 925.84 1241.66 929.876C1241.29 933.911 1240.08 937.825 1238.11 941.368C1236.15 944.911 1233.46 948.005 1230.23 950.455C1216.89 961.22 1195.98 960.447 1180.43 956.378C1164.87 952.309 1137.52 930.934 1130.88 925.474C1123.87 926.762 1116.41 928.204 1108.16 930.007C1093.69 933.252 1077.26 937.063 1059.95 942.42C1055.32 943.862 1050.37 945.562 1045.53 947.158C1054.24 946.231 1066.13 945.098 1067.32 945.098C1088.8 945.51 1130.16 959.108 1137.16 982.543C1138.19 986.43 1138.41 990.489 1137.79 994.462C1137.17 998.435 1135.73 1002.24 1133.57 1005.63C1131.4 1009.02 1128.56 1011.92 1125.21 1014.15C1121.87 1016.38 1118.1 1017.9 1114.14 1018.6C1097.45 1021.89 1079.22 1011.39 1067.22 1000.47C1055.22 989.548 1040.23 956.79 1037.14 949.682C1026.53 953.339 1015.71 957.357 1004.64 962.198C984.477 970.731 965.134 981.074 946.845 993.102C945.764 993.823 944.785 994.647 943.703 995.369C947.927 994.184 971.465 989.136 973.165 988.982C994.592 986.973 1037.14 995.884 1046.61 1018.44C1048.1 1022.21 1048.78 1026.24 1048.62 1030.28C1048.46 1034.33 1047.45 1038.29 1045.67 1041.92C1043.88 1045.56 1041.36 1048.78 1038.26 1051.38C1035.16 1053.98 1031.55 1055.9 1027.66 1057.02C1011.43 1062.17 992.171 1053.78 979.088 1044.25C964.049 1033.33 943.755 997.274 943.034 995.884C925.095 1008.41 907.977 1022.07 891.785 1036.78C879.732 1047.6 867.989 1059.08 856.297 1070.72C861.808 1069.28 883.698 1064.64 885.295 1064.49C906.722 1062.48 949.318 1071.39 958.743 1093.9C960.23 1097.66 960.913 1101.7 960.751 1105.74C960.588 1109.78 959.582 1113.75 957.797 1117.38C956.013 1121.01 953.489 1124.23 950.388 1126.83C947.287 1129.43 943.677 1131.36 939.789 1132.48C923.564 1137.63 904.301 1129.23 891.27 1119.76C876.539 1109.04 856.966 1074.59 855.215 1071.7L839.3 1087.57C822.096 1105.03 804.842 1122.59 787.329 1139.38C781.303 1145.2 775.122 1150.71 768.942 1156.22C777.234 1154.32 792.48 1151.07 793.819 1151.07C815.246 1149.06 857.79 1157.97 867.268 1180.53C868.754 1184.3 869.438 1188.33 869.275 1192.37C869.112 1196.42 868.106 1200.38 866.321 1204.02C864.537 1207.65 862.013 1210.87 858.912 1213.47C855.811 1216.07 852.201 1217.99 848.313 1219.11C832.089 1224.26 812.825 1215.87 799.743 1206.34C786.66 1196.81 769.56 1168.22 764.821 1159.98C754.52 1169.15 744.219 1177.96 733.351 1186.2C728.664 1189.6 724.079 1193.41 719.392 1196.5L705.589 1205.93C695.905 1212.01 686.943 1217.67 677.775 1223.13C673.191 1225.91 668.761 1228.28 664.28 1231.06C672.418 1227.82 685.398 1222.92 686.634 1222.62C707.546 1217.46 750.914 1219.58 763.636 1240.39C765.691 1243.9 766.988 1247.8 767.443 1251.85C767.898 1255.89 767.502 1259.98 766.279 1263.86C765.056 1267.75 763.035 1271.33 760.344 1274.38C757.654 1277.43 754.354 1279.89 750.657 1281.59C735.205 1289.16 715.117 1283.81 700.747 1276.44C684.934 1268.3 661.19 1238.38 658.254 1234.72C647.232 1241.11 636.415 1247.24 626.165 1252.8C598.867 1267.63 575.019 1279.48 556.529 1288.34C496.42 1341.13 411.847 1346.95 411.847 1346.95C411.847 1346.95 407.417 1243.94 467.062 1176.26C487.83 1153.54 513.371 1135.71 541.849 1124.03V1124.03ZM649.137 1224.42C647.283 1220.19 632.861 1187.49 631.883 1169.05C628.535 1168.43 625.187 1167.71 621.942 1166.94C615.846 1199.4 603.135 1230.25 584.6 1257.59C595.519 1252.44 607.366 1246.46 619.933 1239.97C629.256 1235.18 639.094 1229.93 649.137 1224.42Z" fill="white"/>
<path opacity="0.5" d="M98.6866 1104.36C98.6866 1104.36 200 1107.5 262.065 1173.01C324.131 1238.53 323.307 1341.54 323.307 1341.54C323.307 1341.54 221.993 1338.4 159.928 1272.89C97.8625 1207.37 98.6866 1104.36 98.6866 1104.36Z" fill="white"/>
</g>
<g opacity="0.2">
<path opacity="0.2" d="M363.379 1170.7L263.817 1079.74L268.092 1074.89L363.43 1162.04L363.945 1042.81L363.43 1043.17L279.217 918.057L284.471 914.4L363.997 1032.5L365.182 745.716H371.568L370.744 940.411L434.097 884.681L438.321 889.574L370.693 949.013L370.126 1088.24L466.186 1001.86L470.41 1006.7L370.075 1096.89L369.56 1223.65L441.72 1166.06L445.686 1171.16L369.508 1231.94L369.148 1313.52L362.761 1313.47L363.379 1170.7Z" fill="black"/>
<path opacity="0.2" d="M455.061 1205.82L461.396 1205.05L469.431 1277.11L512.181 1228.54H512.13L522.946 1141.34L529.282 1142.16L519.598 1220.14L625.805 1099.46L630.595 1103.79L558.486 1185.69L604.121 1186.25L604.069 1192.74L552.872 1192.07L502.292 1249.5L573.68 1249.61V1256.1L496.626 1255.99L450.631 1308.22L501.005 1311.31L500.592 1317.75L445.223 1314.4L414.628 1349.17L409.838 1344.84L463.765 1283.6L455.061 1205.82Z" fill="black"/>
<path opacity="0.2" d="M214.525 1231.47L129.797 1214.01L131.084 1207.63L206.902 1223.29L96.3688 1106.62L100.953 1102.09L175.946 1181.26L179.913 1135.05L186.248 1135.62L181.818 1187.49L234.406 1242.96L239.815 1170.65L246.201 1171.16L240.33 1249.24L288.128 1299.72L294.927 1248.94L301.21 1249.81L293.794 1305.7L325.625 1339.28L321.041 1343.81L264.95 1284.58L187.999 1287.62L187.741 1281.13L259.027 1278.35L214.576 1231.37L214.525 1231.47Z" fill="black"/>
</g>
<path d="M631.162 1361.94L0 1462.64L1162.81 1664.08L2115.22 1499.26L631.162 1361.94Z" fill="#92E3A9"/>
<path d="M1639.96 1449.49L1693.64 1485.24L1679.34 1518.34L1754.2 1537.53L1824.93 1489.36L1714.77 1440.56L1639.96 1449.49Z" fill="#263238"/>
<path d="M1754.2 1539.78H1753.66L1678.8 1520.58C1678.48 1520.5 1678.19 1520.36 1677.93 1520.16C1677.68 1519.95 1677.47 1519.7 1677.32 1519.41C1677.18 1519.12 1677.12 1518.8 1677.12 1518.47C1677.12 1518.15 1677.18 1517.83 1677.32 1517.53L1690.77 1486.13L1638.61 1451.37C1638.23 1451.12 1637.94 1450.75 1637.78 1450.33C1637.62 1449.9 1637.6 1449.43 1637.71 1448.99C1637.82 1448.55 1638.05 1448.15 1638.39 1447.85C1638.73 1447.55 1639.15 1447.35 1639.6 1447.29L1714.41 1438.32C1714.79 1438.19 1715.2 1438.19 1715.58 1438.32L1825.74 1487.12C1826.1 1487.28 1826.42 1487.53 1826.66 1487.86C1826.9 1488.18 1827.04 1488.56 1827.08 1488.96C1827.11 1489.36 1827.03 1489.76 1826.86 1490.12C1826.69 1490.48 1826.42 1490.79 1826.09 1491.02L1755.36 1539.15C1755.05 1539.48 1754.64 1539.7 1754.2 1539.78V1539.78ZM1682.43 1516.81L1753.79 1535.11L1820.31 1489.81L1714.37 1443.12L1646.24 1451.19L1694.9 1483.49C1695.33 1483.78 1695.65 1484.21 1695.8 1484.71C1695.94 1485.21 1695.91 1485.74 1695.71 1486.22L1682.43 1516.81Z" fill="#263238"/>
<path d="M317.565 1372.43L1077.46 1424.64C1083.56 1425.04 1089.69 1424.73 1095.71 1423.7L1221.84 1401.27C1232.9 1399.32 1243.38 1394.93 1252.53 1388.42C1261.68 1381.9 1269.25 1373.43 1274.71 1363.61C1280.16 1353.8 1283.36 1342.89 1284.06 1331.68C1284.76 1320.47 1282.95 1309.25 1278.76 1298.83L1274.59 1288.51C1269.3 1275.36 1260.42 1263.97 1248.95 1255.64C1237.49 1247.31 1223.91 1242.38 1209.77 1241.42L351.384 1182.66C323.037 1180.69 322.006 1196.61 307.429 1221.01L283.926 1260.25C275.36 1274.61 271.801 1291.41 273.806 1308.01C275.811 1324.61 283.266 1340.07 295.005 1351.98V1351.98C307.922 1365.08 299.221 1371.35 317.565 1372.43Z" fill="#263238"/>
<path d="M1082.44 1427.06C1080.69 1427.06 1078.94 1427.06 1077.14 1427.06L317.386 1374.67C305.41 1373.87 303.572 1370.82 301.105 1365.12C299.389 1360.73 296.777 1356.74 293.435 1353.41C281.39 1341.18 273.739 1325.3 271.677 1308.26C269.616 1291.22 273.261 1273.97 282.042 1259.22L305.5 1219.93C308.371 1215.13 310.748 1210.6 312.856 1206.48C321.557 1189.79 327.343 1178.76 351.519 1180.42L1209.82 1239.35C1224.37 1240.4 1238.33 1245.51 1250.12 1254.08C1261.92 1262.66 1271.08 1274.37 1276.56 1287.88L1280.69 1298.16C1284.99 1308.88 1286.85 1320.44 1286.13 1331.97C1285.41 1343.51 1282.12 1354.74 1276.51 1364.84C1270.9 1374.95 1263.1 1383.68 1253.69 1390.39C1244.28 1397.1 1233.49 1401.63 1222.11 1403.65L1095.94 1426.07C1091.47 1426.79 1086.96 1427.12 1082.44 1427.06V1427.06ZM346.854 1184.86C329.182 1184.86 324.428 1193.83 316.713 1208.72C314.605 1212.76 312.228 1217.38 309.268 1222.17L285.765 1261.47C277.451 1275.4 273.997 1291.69 275.945 1307.8C277.894 1323.9 285.134 1338.91 296.53 1350.45C300.267 1354.1 303.187 1358.51 305.097 1363.37C307.07 1367.86 307.788 1369.56 317.61 1370.23L1077.46 1422.4C1083.38 1422.8 1089.33 1422.49 1095.18 1421.46L1221.3 1399.25C1232.03 1397.37 1242.21 1393.11 1251.09 1386.79C1259.97 1380.47 1267.32 1372.25 1272.61 1362.72C1277.9 1353.2 1281 1342.61 1281.67 1331.73C1282.35 1320.86 1280.59 1309.97 1276.51 1299.86L1272.39 1289.54C1267.22 1276.83 1258.6 1265.82 1247.51 1257.74C1236.41 1249.67 1223.28 1244.85 1209.59 1243.84L351.205 1184.86H346.854Z" fill="#263238"/>
<path d="M1208.16 1274.34L1162.41 1271.2L1161.83 1280.17C1138.95 1287.75 1118.84 1301.97 1104.07 1321.02C1089.3 1340.07 1080.52 1363.08 1078.87 1387.12C1077.22 1411.17 1082.75 1435.17 1094.78 1456.06C1106.8 1476.95 1124.77 1493.79 1146.4 1504.43L1145.77 1513.4L1191.52 1516.54C1207.74 1518.22 1224.13 1516.62 1239.72 1511.84C1255.3 1507.05 1269.77 1499.17 1282.24 1488.67C1294.72 1478.18 1304.96 1465.27 1312.34 1450.74C1319.73 1436.2 1324.11 1420.32 1325.23 1404.05C1326.34 1387.79 1324.17 1371.46 1318.85 1356.05C1313.52 1340.64 1305.14 1326.46 1294.22 1314.35C1283.3 1302.25 1270.05 1292.47 1255.26 1285.59C1240.47 1278.72 1224.46 1274.89 1208.16 1274.34V1274.34Z" fill="#263238"/>
<path d="M1200 1519.37C1197.13 1519.37 1194.26 1519.37 1191.34 1519.1L1145.64 1515.96C1145.34 1515.94 1145.06 1515.86 1144.8 1515.73C1144.53 1515.6 1144.3 1515.42 1144.11 1515.2C1143.72 1514.73 1143.52 1514.14 1143.53 1513.54L1144.07 1506.09C1122.35 1495.12 1104.36 1477.99 1092.33 1456.85C1080.3 1435.7 1074.78 1411.48 1076.44 1387.21C1078.11 1362.94 1086.89 1339.71 1101.7 1320.4C1116.5 1301.1 1136.67 1286.59 1159.67 1278.69L1160.21 1271.24C1160.22 1270.95 1160.29 1270.66 1160.42 1270.39C1160.55 1270.12 1160.73 1269.88 1160.95 1269.68C1161.17 1269.48 1161.43 1269.33 1161.71 1269.24C1162 1269.15 1162.29 1269.11 1162.59 1269.14L1208.29 1272.28C1240.22 1274.55 1270.02 1289.11 1291.43 1312.89C1312.84 1336.67 1324.21 1367.83 1323.13 1399.82C1322.06 1431.8 1308.63 1462.13 1285.67 1484.42C1262.71 1506.71 1232 1519.24 1200 1519.37V1519.37ZM1148.19 1511.61L1191.65 1514.61C1207.59 1516.29 1223.69 1514.74 1239.01 1510.06C1254.33 1505.37 1268.55 1497.64 1280.82 1487.34C1293.09 1477.03 1303.15 1464.36 1310.41 1450.08C1317.67 1435.8 1321.98 1420.2 1323.08 1404.22C1324.18 1388.24 1322.04 1372.2 1316.8 1357.06C1311.56 1341.92 1303.32 1327.99 1292.58 1316.1C1281.84 1304.22 1268.81 1294.62 1254.27 1287.89C1239.74 1281.15 1223.99 1277.41 1207.98 1276.89L1164.52 1273.89L1164.07 1280.62C1164.04 1281.07 1163.87 1281.49 1163.59 1281.85C1163.31 1282.2 1162.93 1282.46 1162.5 1282.59C1140 1290.01 1120.22 1303.97 1105.69 1322.68C1091.16 1341.39 1082.53 1364.01 1080.91 1387.65C1079.29 1411.28 1084.74 1434.87 1096.58 1455.39C1108.42 1475.91 1126.11 1492.44 1147.38 1502.86C1147.79 1503.06 1148.12 1503.38 1148.34 1503.77C1148.57 1504.16 1148.67 1504.61 1148.64 1505.06L1148.19 1511.61Z" fill="#263238"/>
<path d="M1154.11 1513.81C1221.19 1513.81 1275.57 1459.43 1275.57 1392.35C1275.57 1325.26 1221.19 1270.88 1154.11 1270.88C1087.03 1270.88 1032.65 1325.26 1032.65 1392.35C1032.65 1459.43 1087.03 1513.81 1154.11 1513.81Z" fill="#878787"/>
<path d="M1154.2 1516.05C1151.33 1516.05 1148.51 1516.05 1145.63 1515.78C1113.19 1513.64 1082.88 1498.83 1061.24 1474.56C1039.6 1450.28 1028.36 1418.48 1029.94 1386C1031.52 1353.52 1045.8 1322.95 1069.7 1300.9C1093.59 1278.84 1125.2 1267.06 1157.7 1268.08C1190.21 1269.1 1221.01 1282.84 1243.48 1306.36C1265.94 1329.87 1278.27 1361.27 1277.82 1393.78C1277.36 1426.3 1264.14 1457.34 1241.02 1480.21C1217.9 1503.07 1186.72 1515.95 1154.2 1516.05V1516.05ZM1154.2 1273.17C1122.99 1273.24 1093.05 1285.56 1070.83 1307.49C1048.62 1329.41 1035.9 1359.19 1035.43 1390.4C1034.95 1421.61 1046.75 1451.75 1068.29 1474.35C1089.83 1496.94 1119.37 1510.17 1150.57 1511.19C1181.77 1512.2 1212.12 1500.93 1235.08 1479.79C1258.04 1458.64 1271.78 1429.33 1273.34 1398.15C1274.9 1366.98 1264.15 1336.44 1243.41 1313.11C1222.67 1289.79 1193.6 1275.54 1162.45 1273.44C1159.49 1273.26 1156.76 1273.17 1154.02 1273.17H1154.2Z" fill="#263238"/>
<path d="M1177.46 1477.59C1224.59 1464.74 1252.38 1416.11 1239.53 1368.99C1226.68 1321.86 1178.06 1294.07 1130.93 1306.92C1083.8 1319.76 1056.01 1368.39 1068.86 1415.52C1081.71 1462.64 1130.33 1490.43 1177.46 1477.59Z" fill="white"/>
<path d="M1154.25 1483.04C1152.14 1483.04 1150.03 1483.04 1147.88 1483.04C1124.2 1482.2 1101.79 1472.1 1085.49 1454.91C1069.18 1437.72 1060.28 1414.81 1060.7 1391.12C1061.12 1367.43 1070.82 1344.85 1087.72 1328.25C1104.62 1311.64 1127.37 1302.34 1151.06 1302.34C1174.76 1302.34 1197.5 1311.64 1214.4 1328.25C1231.3 1344.85 1241.01 1367.43 1241.43 1391.12C1241.84 1414.81 1232.94 1437.72 1216.64 1454.91C1200.33 1472.1 1177.93 1482.2 1154.25 1483.04V1483.04ZM1153.98 1306.14C1137.18 1306.16 1120.76 1311.09 1106.73 1320.31C1092.7 1329.54 1081.67 1342.66 1074.99 1358.07C1068.31 1373.48 1066.28 1390.5 1069.15 1407.05C1072.01 1423.6 1079.65 1438.95 1091.11 1451.21C1102.58 1463.48 1117.38 1472.13 1133.7 1476.11C1150.02 1480.08 1167.14 1479.2 1182.96 1473.57C1198.78 1467.95 1212.62 1457.83 1222.77 1444.45C1232.92 1431.07 1238.94 1415.02 1240.09 1398.27V1398.27C1241.66 1375.46 1234.1 1352.97 1219.09 1335.74C1204.08 1318.5 1182.83 1307.94 1160.03 1306.36C1158.19 1306.23 1156 1306.14 1153.98 1306.14Z" fill="#263238"/>
<path d="M1560.93 1298.56L1515.22 1295.42C1483.75 1294.34 1453.09 1305.52 1429.7 1326.61C1406.32 1347.7 1392.03 1377.04 1389.87 1408.46C1387.71 1439.88 1397.83 1470.91 1418.1 1495C1438.37 1519.1 1467.21 1534.38 1498.54 1537.62L1544.29 1540.76C1560.5 1542.45 1576.9 1540.84 1592.48 1536.06C1608.07 1531.27 1622.53 1523.39 1635.01 1512.89C1647.49 1502.4 1657.72 1489.49 1665.11 1474.96C1672.49 1460.42 1676.87 1444.54 1677.99 1428.28C1679.11 1412.01 1676.94 1395.68 1671.61 1380.27C1666.29 1364.86 1657.91 1350.68 1646.99 1338.57C1636.06 1326.47 1622.81 1316.69 1608.03 1309.81C1593.24 1302.94 1577.22 1299.11 1560.93 1298.56V1298.56Z" fill="#263238"/>
<path d="M1552.9 1543.45C1550.07 1543.45 1547.2 1543.45 1544.33 1543.14L1498.63 1540C1482.21 1539.19 1466.11 1535.11 1451.29 1528.01C1436.46 1520.91 1423.2 1510.92 1412.28 1498.63C1401.36 1486.34 1393 1471.99 1387.69 1456.43C1382.38 1440.88 1380.23 1424.41 1381.35 1408.01C1382.48 1391.61 1386.87 1375.6 1394.26 1360.91C1401.65 1346.23 1411.89 1333.16 1424.39 1322.48C1436.88 1311.8 1451.39 1303.72 1467.05 1298.71C1482.7 1293.7 1499.2 1291.87 1515.58 1293.31L1561.28 1296.45C1593.01 1298.99 1622.53 1313.66 1643.72 1337.41C1664.9 1361.15 1676.12 1392.15 1675.04 1423.96C1673.96 1455.76 1660.67 1485.93 1637.92 1508.18C1615.17 1530.44 1584.72 1543.07 1552.9 1543.45V1543.45ZM1507.01 1297.39C1476.19 1297.54 1446.62 1309.61 1424.51 1331.09C1402.4 1352.56 1389.46 1381.76 1388.42 1412.57C1387.37 1443.38 1398.3 1473.39 1418.91 1496.31C1439.51 1519.23 1468.2 1533.28 1498.94 1535.52L1544.64 1538.65C1575.5 1539.67 1605.55 1528.67 1628.46 1507.97C1651.37 1487.27 1665.36 1458.49 1667.48 1427.69C1669.61 1396.89 1659.69 1366.46 1639.84 1342.82C1619.98 1319.18 1591.72 1304.16 1561.02 1300.94L1515.27 1297.8C1512.26 1297.48 1509.52 1297.39 1506.79 1297.39H1507.01Z" fill="#263238"/>
<path d="M441.134 1221.64L379.955 1217.47L376.412 1269.05C355.214 1312.52 351.772 1362.53 366.814 1408.49L363.27 1460.12L424.449 1464.33C465.759 1467.16 502.941 1415 507.561 1348.12C512.181 1281.25 482.399 1224.51 441.134 1221.64Z" fill="#263238"/>
<path d="M427.634 1466.67H424.315L363.091 1462.45C362.504 1462.4 361.958 1462.13 361.572 1461.68C361.186 1461.24 360.991 1460.66 361.028 1460.07L364.526 1408.9C349.533 1362.61 352.987 1312.31 374.17 1268.51L377.713 1217.38C377.761 1216.79 378.034 1216.24 378.475 1215.85C378.687 1215.65 378.942 1215.49 379.222 1215.4C379.501 1215.31 379.798 1215.28 380.09 1215.31L441.269 1219.48C483.745 1222.44 514.469 1280.21 509.804 1348.35C505.229 1414.64 468.764 1466.67 427.634 1466.67ZM365.647 1458.05L424.584 1462.09C464.503 1464.74 500.833 1413.65 505.319 1347.99C509.804 1282.32 480.919 1226.62 440.955 1223.88L382.243 1219.84L378.834 1269.18C378.895 1269.46 378.895 1269.75 378.834 1270.03C357.74 1312.9 354.137 1362.3 368.787 1407.77C368.834 1408.07 368.834 1408.37 368.787 1408.67L365.647 1458.05Z" fill="#263238"/>
<path d="M450.841 1345.89C455.544 1278.71 425.8 1221.9 384.407 1219C343.014 1216.1 305.646 1268.21 300.943 1335.39C296.241 1402.57 325.984 1459.38 367.377 1462.28C408.77 1465.18 446.138 1413.07 450.841 1345.89Z" fill="#878787"/>
<path d="M366.544 1462.5C365.378 1462.5 364.257 1462.5 363.091 1462.5C320.66 1459.58 289.891 1401.76 294.601 1333.63C296.843 1300.8 306.846 1270.48 322.813 1248.19C338.781 1225.9 359.278 1213.92 380.09 1215.36C400.902 1216.79 419.426 1231.1 432.343 1255.72C445.261 1280.35 450.867 1311.39 448.625 1344.22C446.382 1377.05 436.335 1407.24 420.412 1429.66C405.118 1450.88 386.1 1462.5 366.544 1462.5ZM376.681 1219.57C358.74 1219.57 340.799 1230.52 326.446 1250.66C310.972 1272.28 301.284 1301.79 299.086 1333.81C294.601 1399.48 323.441 1455.14 363.405 1457.88C382.557 1459.18 401.53 1448.19 416.779 1426.93C432.029 1405.67 441.942 1375.75 444.14 1343.77C446.337 1311.79 440.731 1280.98 428.396 1257.65C416.062 1234.33 398.973 1221.01 379.776 1219.71L376.681 1219.57Z" fill="#263238"/>
<path d="M424.587 1342.43C427.849 1294.95 406.772 1254.84 377.512 1252.83C348.251 1250.82 321.887 1287.67 318.626 1335.15C315.364 1382.62 336.441 1422.74 365.701 1424.75C394.962 1426.76 421.326 1389.9 424.587 1342.43Z" fill="white"/>
<path d="M367.935 1427.06H365.558C335.103 1424.95 313.08 1383.69 316.22 1335.07C317.279 1313.33 324.224 1292.3 336.314 1274.2C347.931 1258.01 362.553 1249.62 377.489 1250.7C407.943 1252.76 429.966 1294.03 426.826 1342.65H424.584H426.826C423.552 1389.92 397.403 1427.06 367.935 1427.06ZM375.201 1255.01C362.597 1255.01 350.218 1262.63 340.171 1276.76C328.567 1294.08 321.9 1314.24 320.884 1335.07C317.7 1381.22 337.884 1420.29 365.737 1422.26C393.591 1424.24 419.022 1388.22 422.207 1342.02C425.346 1295.87 405.207 1256.8 377.354 1254.87C376.634 1254.87 375.915 1254.92 375.201 1255.01Z" fill="#263238"/>
<path d="M1455.61 1176.07L1318.18 1046.58C1280.84 1011.44 1232.49 990.319 1181.34 986.788L795.605 960.28L1034.49 1147.09L1455.61 1176.07Z" fill="white"/>
<path d="M1455.61 1178.49L1034.49 1149.56C1034.03 1149.53 1033.59 1149.36 1033.23 1149.06L794.215 962.209C793.843 961.912 793.575 961.505 793.45 961.046C793.325 960.587 793.349 960.1 793.519 959.656C793.688 959.211 793.995 958.832 794.394 958.574C794.794 958.315 795.265 958.19 795.74 958.217L1181.47 984.725C1233.11 988.256 1281.93 1009.54 1319.66 1044.96L1457.14 1174.45C1457.47 1174.77 1457.7 1175.18 1457.79 1175.63C1457.88 1176.08 1457.82 1176.55 1457.63 1176.96C1457.48 1177.39 1457.21 1177.76 1456.85 1178.03C1456.49 1178.3 1456.06 1178.46 1455.61 1178.49ZM1035.34 1145.12L1449.74 1173.42L1316.61 1048.42C1279.65 1013.63 1231.79 992.712 1181.16 989.21L802.602 963.196L1035.34 1145.12Z" fill="#263238"/>
<path d="M1328.63 1062.45C1291.31 1027.29 1242.95 1006.15 1191.79 1002.62L874.411 980.823C906.017 995.679 933.677 1017.78 955.146 1045.32L1034.49 1147.09L1448.97 1175.57L1328.63 1062.45Z" fill="#263238"/>
<path d="M1448.97 1177.86L1034.49 1149.38C1034.18 1149.35 1033.87 1149.26 1033.6 1149.12C1033.32 1148.97 1033.07 1148.77 1032.88 1148.53L953.621 1046.71C932.371 1019.45 905.007 997.572 873.738 982.841C873.267 982.616 872.89 982.234 872.67 981.76C872.451 981.287 872.403 980.751 872.536 980.246C872.669 979.742 872.974 979.299 873.398 978.995C873.822 978.691 874.339 978.544 874.86 978.58L1192.28 1000.38C1243.94 1004 1292.77 1025.34 1330.52 1060.79L1450.54 1174C1450.88 1174.32 1451.1 1174.73 1451.19 1175.18C1451.28 1175.63 1451.23 1176.1 1451.04 1176.51C1450.86 1176.91 1450.57 1177.25 1450.2 1177.49C1449.84 1177.73 1449.41 1177.86 1448.97 1177.86ZM1035.66 1144.98L1442.87 1172.93L1327.29 1064.07C1290.31 1029.31 1242.46 1008.4 1191.83 1004.86L885.58 983.828C913.334 998.65 937.674 1019.12 957.03 1043.93L1035.66 1144.98Z" fill="#263238"/>
<path d="M1034.49 1147.14L1024.13 1146.51L1045.17 1162.97L1098.36 1166.65L1034.49 1147.14Z" fill="white"/>
<path d="M1098.36 1168.89L1045.03 1165.03C1044.58 1165.02 1044.14 1164.86 1043.77 1164.58L1022.74 1148.12C1022.36 1147.83 1022.09 1147.42 1021.96 1146.96C1021.83 1146.5 1021.85 1146.01 1022.02 1145.57C1022.17 1145.11 1022.48 1144.71 1022.89 1144.45C1023.3 1144.19 1023.78 1144.08 1024.26 1144.13L1034.62 1144.71H1035.16L1099.03 1164.23C1099.63 1164.31 1100.16 1164.64 1100.52 1165.12C1100.88 1165.6 1101.03 1166.21 1100.94 1166.8C1100.85 1167.4 1100.53 1167.93 1100.04 1168.29C1099.56 1168.65 1098.96 1168.8 1098.36 1168.71V1168.89ZM1046.06 1160.82L1079.03 1163.06L1034.18 1149.38H1031.26L1046.06 1160.82Z" fill="#263238"/>
<path d="M1100.24 1124.58L1024.13 1146.51L1117.83 1202.89L1424.98 1311.52L1830 1391.45L1800.35 1317.67L1100.24 1124.58Z" fill="#263238"/>
<path d="M1830 1393.78H1829.55L1424.57 1313.9L1117.06 1205.18H1116.66L1022.96 1148.44C1022.59 1148.21 1022.29 1147.89 1022.1 1147.5C1021.91 1147.11 1021.83 1146.67 1021.89 1146.24C1021.95 1145.81 1022.14 1145.4 1022.42 1145.06C1022.71 1144.73 1023.08 1144.49 1023.5 1144.36L1099.75 1122.42C1100.14 1122.29 1100.57 1122.29 1100.96 1122.42L1800.93 1315.51C1801.27 1315.6 1801.59 1315.77 1801.85 1316.01C1802.12 1316.24 1802.32 1316.53 1802.46 1316.86L1832.06 1390.6C1832.2 1390.93 1832.26 1391.3 1832.22 1391.66C1832.19 1392.03 1832.06 1392.38 1831.85 1392.68C1831.65 1392.98 1831.37 1393.23 1831.05 1393.4C1830.72 1393.57 1830.36 1393.65 1830 1393.65V1393.78ZM1118.77 1200.91L1425.74 1309.46L1826.5 1388.44L1798.82 1319.55L1100.29 1126.91L1029.69 1147.09L1118.77 1200.91Z" fill="#263238"/>
<path d="M1830.36 1477.66L1371.6 1446.12L1367.16 1385.12L1330.11 1245.95L1473.37 1245.05L1685.44 1327.22L1814.43 1346.82L1844.75 1417.73L1830.36 1477.66Z" fill="#E5E5E5"/>
<path d="M1830.36 1479.9L1371.65 1448.5C1371.11 1448.47 1370.59 1448.24 1370.21 1447.86C1369.82 1447.49 1369.58 1446.98 1369.54 1446.44L1365.05 1385.44L1328.1 1246.66C1328.01 1246.33 1327.99 1245.98 1328.06 1245.64C1328.12 1245.3 1328.25 1244.97 1328.45 1244.69C1328.67 1244.42 1328.94 1244.21 1329.25 1244.06C1329.56 1243.91 1329.9 1243.84 1330.25 1243.84L1473.46 1242.94C1473.74 1242.88 1474.03 1242.88 1474.32 1242.94L1686.15 1324.98L1814.79 1344.44C1815.16 1344.51 1815.52 1344.67 1815.81 1344.9C1816.11 1345.14 1816.35 1345.44 1816.5 1345.79L1846.82 1416.75C1846.95 1417.2 1846.95 1417.68 1846.82 1418.14L1832.37 1478.06C1832.29 1478.55 1832.05 1479 1831.68 1479.33C1831.32 1479.66 1830.85 1479.86 1830.36 1479.9V1479.9ZM1373.71 1444.02L1828.61 1475.41L1842.42 1418.09L1813.04 1348.93L1685.3 1329.51C1685.14 1329.55 1684.97 1329.55 1684.81 1329.51L1473.1 1247.52L1333.21 1248.37L1369.49 1384.77L1373.71 1444.02Z" fill="#263238"/>
<path d="M1400.8 1371.35L1413 1417.24C1414.26 1421.98 1416.98 1426.21 1420.77 1429.33C1424.56 1432.45 1429.23 1434.31 1434.13 1434.64L1656.15 1449.89L1810.76 1502.01C1812.52 1502.11 1814.29 1501.85 1815.96 1501.27C1817.63 1500.68 1819.17 1499.77 1820.49 1498.58C1821.8 1497.4 1822.87 1495.97 1823.63 1494.37C1824.4 1492.77 1824.84 1491.04 1824.93 1489.27L1823.18 1465.9C1823.49 1458.73 1815.37 1436.21 1808.2 1435.72L1674 1374.99L1644.71 1372.97L1412.51 1357C1410.71 1356.92 1408.92 1357.26 1407.27 1357.99C1405.63 1358.73 1404.18 1359.84 1403.04 1361.23C1401.9 1362.63 1401.11 1364.27 1400.72 1366.03C1400.33 1367.78 1400.36 1369.61 1400.8 1371.35V1371.35Z" fill="#263238"/>
<path d="M1811.7 1504.39H1810.62C1810.43 1504.43 1810.23 1504.43 1810.04 1504.39L1655.7 1452.09L1433.95 1436.84C1428.59 1436.47 1423.48 1434.43 1419.34 1431.01C1415.2 1427.59 1412.23 1422.97 1410.85 1417.78L1398.65 1371.89C1398.09 1369.78 1398.04 1367.56 1398.51 1365.43C1398.97 1363.29 1399.94 1361.3 1401.33 1359.61C1402.72 1357.92 1404.49 1356.59 1406.5 1355.72C1408.5 1354.86 1410.69 1354.48 1412.87 1354.62L1674.31 1372.57C1674.58 1372.52 1674.85 1372.52 1675.12 1372.57L1808.83 1433.3C1818.02 1434.69 1825.69 1458.82 1825.42 1465.72L1827.17 1488.87C1827.07 1492.91 1825.39 1496.75 1822.5 1499.58C1819.62 1502.41 1815.74 1504.01 1811.7 1504.03V1504.39ZM1811.2 1499.9C1814.08 1499.97 1816.88 1498.97 1819.05 1497.08C1820.14 1496.08 1821.02 1494.88 1821.65 1493.54C1822.27 1492.2 1822.62 1490.75 1822.69 1489.27L1820.98 1466.17C1821.21 1458.86 1813.18 1438.41 1808.06 1438.05C1807.81 1438.1 1807.55 1438.1 1807.3 1438.05L1673.64 1377.36L1412.55 1359.42C1411.09 1359.34 1409.62 1359.6 1408.27 1360.18C1406.93 1360.77 1405.74 1361.66 1404.8 1362.79C1403.87 1363.93 1403.21 1365.26 1402.89 1366.7C1402.57 1368.13 1402.59 1369.62 1402.95 1371.04L1415.15 1416.92C1416.31 1421.21 1418.77 1425.03 1422.19 1427.85C1425.62 1430.67 1429.84 1432.35 1434.26 1432.67L1656.33 1447.92H1656.87L1811.2 1499.9Z" fill="#263238"/>
<path d="M1818.29 1357.27L1803.94 1353.14L1734.77 1345.12L1748.14 1352.43L1818.29 1357.27Z" fill="white"/>
<path d="M1818.29 1359.51L1748.14 1354.67C1747.81 1354.68 1747.48 1354.58 1747.2 1354.4L1733.74 1347.09C1733.27 1346.85 1732.9 1346.45 1732.69 1345.95C1732.49 1345.46 1732.46 1344.92 1732.63 1344.41C1732.79 1343.9 1733.12 1343.47 1733.58 1343.19C1734.03 1342.91 1734.56 1342.8 1735.09 1342.87L1804.07 1350.9L1818.78 1355.12C1819.32 1355.27 1819.78 1355.61 1820.07 1356.09C1820.36 1356.56 1820.46 1357.13 1820.35 1357.67C1820.27 1358.17 1820.02 1358.62 1819.65 1358.96C1819.27 1359.29 1818.79 1359.49 1818.29 1359.51ZM1748.81 1350.23L1775.72 1352.07L1745.94 1348.66L1748.81 1350.23Z" fill="#263238"/>
<path d="M1498.45 1335.29L1478.4 1259.9L1368.1 1265.14L1383.98 1327.44L1498.45 1335.29Z" fill="white"/>
<path d="M1498.45 1337.54L1384.03 1329.69C1383.55 1329.65 1383.1 1329.47 1382.74 1329.16C1382.38 1328.86 1382.12 1328.44 1382.01 1327.98L1366.09 1265.73C1366.01 1265.4 1366.01 1265.07 1366.08 1264.74C1366.15 1264.42 1366.29 1264.11 1366.49 1263.84C1366.68 1263.57 1366.92 1263.35 1367.21 1263.18C1367.5 1263.02 1367.82 1262.92 1368.15 1262.9L1478.44 1257.65C1478.96 1257.62 1479.47 1257.76 1479.89 1258.07C1480.31 1258.37 1480.6 1258.81 1480.73 1259.31L1500.78 1334.71C1500.86 1335.06 1500.87 1335.42 1500.79 1335.77C1500.71 1336.12 1500.55 1336.45 1500.33 1336.73C1500.1 1337.01 1499.82 1337.22 1499.49 1337.37C1499.16 1337.51 1498.8 1337.56 1498.45 1337.54V1337.54ZM1385.78 1325.29L1495.44 1332.83L1476.65 1262.23L1370.89 1267.25L1385.78 1325.29Z" fill="#263238"/>
<path d="M1719.39 1350.45L1706.02 1343.14L1523.88 1297.48L1527.15 1337.27L1719.39 1350.45Z" fill="#263238"/>
<path d="M1719.39 1352.7L1527.15 1339.51C1526.62 1339.48 1526.11 1339.25 1525.73 1338.87C1525.35 1338.49 1525.12 1337.98 1525.09 1337.45L1521.77 1297.66C1521.75 1297.31 1521.81 1296.95 1521.95 1296.62C1522.09 1296.3 1522.3 1296.01 1522.58 1295.78C1522.84 1295.54 1523.16 1295.37 1523.5 1295.28C1523.85 1295.2 1524.21 1295.2 1524.55 1295.28L1706.7 1340.94H1707.24L1720.69 1348.3C1721.14 1348.53 1721.5 1348.91 1721.7 1349.38C1721.89 1349.85 1721.92 1350.37 1721.77 1350.86C1721.68 1351.41 1721.38 1351.9 1720.94 1352.25C1720.5 1352.59 1719.95 1352.75 1719.39 1352.7ZM1529.26 1335.16L1709.39 1347.54L1705.17 1345.25L1526.39 1300.4L1529.26 1335.16Z" fill="#263238"/>
<path d="M346.361 1106.72L485.404 996.835C528.607 962.697 582.968 945.861 637.903 949.605L794.887 960.415C826.022 962.574 856.35 971.281 883.889 985.966C911.428 1000.65 935.557 1020.98 954.697 1045.63L1034.49 1147.09L346.361 1106.72Z" fill="white"/>
<path d="M1034.49 1149.38L346.361 1108.83C345.903 1108.81 345.462 1108.65 345.1 1108.37C344.738 1108.09 344.473 1107.7 344.343 1107.26C344.211 1106.83 344.209 1106.37 344.337 1105.94C344.464 1105.51 344.716 1105.13 345.06 1104.84L484.103 994.951C527.767 960.393 582.756 943.375 638.307 947.228L795.291 958.038C826.729 960.206 857.358 968.976 885.18 983.776C913.001 998.575 937.392 1019.07 956.761 1043.93L1036.02 1145.75C1036.28 1146.08 1036.44 1146.48 1036.49 1146.9C1036.53 1147.32 1036.45 1147.75 1036.27 1148.13C1036.08 1148.51 1035.79 1148.83 1035.42 1149.05C1035.06 1149.27 1034.65 1149.39 1034.22 1149.38H1034.49ZM352.73 1104.53L1030 1144.45L953.755 1046.53C934.78 1022.17 910.885 1002.09 883.628 987.582C856.371 973.076 826.363 964.476 795.56 962.343L638.576 951.534C584.138 947.767 530.254 964.449 487.467 998.315L352.73 1104.53Z" fill="#263238"/>
<path d="M419.336 1111.61L538.599 1010.6C574.757 979.465 621.678 963.733 669.3 966.784L803.454 976.023C830.391 978.056 856.549 985.998 880.069 999.285C903.589 1012.57 923.893 1030.88 939.537 1052.9L1006.82 1145.66L419.336 1111.61Z" fill="#263238"/>
<path d="M1006.82 1148.03L419.246 1113.86C418.797 1113.83 418.366 1113.67 418.007 1113.4C417.648 1113.13 417.377 1112.76 417.228 1112.33C417.091 1111.91 417.082 1111.45 417.202 1111.02C417.321 1110.59 417.564 1110.2 417.901 1109.91L537.209 1008.9C573.742 977.406 621.162 961.481 669.3 964.541L803.499 973.781C830.789 975.874 857.283 983.947 881.103 997.427C904.924 1010.91 925.486 1029.46 941.331 1051.78L1008.61 1144.49C1008.86 1144.82 1009.02 1145.21 1009.06 1145.63C1009.1 1146.04 1009.02 1146.46 1008.83 1146.83C1008.65 1147.2 1008.36 1147.51 1008 1147.72C1007.64 1147.94 1007.23 1148.04 1006.82 1148.03V1148.03ZM425.077 1109.68L1002.2 1143.28L937.743 1054.38C922.283 1032.58 902.213 1014.44 878.959 1001.27C855.704 988.088 829.834 980.19 803.185 978.131L668.986 968.892C621.945 965.986 575.642 981.657 540.035 1012.53L425.077 1109.68Z" fill="#263238"/>
<path d="M728.505 970.865C696.933 1017.22 677.036 1070.53 670.511 1126.23L713.928 1128.75C718.413 1087.53 732.676 1014.1 776.722 974.185L728.505 970.865Z" fill="#878787"/>
<path d="M714.153 1130.99L670.736 1128.48C670.425 1128.46 670.121 1128.38 669.843 1128.24C669.565 1128.1 669.319 1127.91 669.121 1127.67C668.743 1127.19 668.566 1126.58 668.627 1125.97C675.16 1069.89 695.166 1016.23 726.936 969.565C727.161 969.246 727.466 968.991 727.82 968.825C728.174 968.66 728.565 968.59 728.954 968.623L776.947 972.166C777.384 972.193 777.804 972.347 778.155 972.61C778.506 972.873 778.772 973.234 778.92 973.646C779.056 974.068 779.07 974.52 778.958 974.949C778.847 975.378 778.616 975.766 778.292 976.068C734.74 1015.63 720.791 1089.01 716.351 1129.24C716.238 1129.74 715.959 1130.18 715.56 1130.5C715.16 1130.82 714.664 1130.99 714.153 1130.99ZM673.247 1124.13L712.179 1126.41C716.665 1086.32 730.614 1016.57 771.564 976.068L729.851 973.198C699.263 1018.32 679.789 1070.04 673.023 1124.13H673.247Z" fill="#263238"/>
<path d="M571.969 987.954C549.814 1028.21 535.692 1072.39 530.391 1118.03L540.214 1118.61C544.699 1081.02 555.867 1022.13 585.56 981.316C580.985 983.335 576.455 985.622 571.969 987.954Z" fill="#878787"/>
<path d="M540.214 1120.9L530.257 1120.18C529.949 1120.16 529.649 1120.08 529.374 1119.95C529.099 1119.81 528.854 1119.62 528.657 1119.38C528.459 1119.15 528.312 1118.87 528.224 1118.58C528.137 1118.28 528.111 1117.97 528.148 1117.67C533.522 1071.72 547.748 1027.24 570.041 986.698C570.243 986.316 570.556 986.004 570.938 985.801C575.423 983.379 580.133 981.316 584.663 979.163C585.114 978.959 585.62 978.911 586.101 979.024C586.583 979.138 587.013 979.408 587.326 979.792C587.638 980.176 587.815 980.652 587.828 981.147C587.841 981.642 587.69 982.127 587.399 982.527C558.648 1022.09 547.031 1078.42 542.546 1118.74C542.511 1119.34 542.249 1119.89 541.814 1120.29C541.379 1120.69 540.806 1120.91 540.214 1120.9ZM532.903 1115.96L538.24 1116.28C542.726 1077.84 553.625 1025.85 579.101 986.833C577.262 987.73 575.468 988.627 573.629 989.614C552.215 1028.79 538.397 1071.66 532.903 1115.96V1115.96Z" fill="#263238"/>
<path d="M938.954 1141.84L1006.82 1145.79L953.621 1072.46L938.954 1141.84Z" fill="#878787"/>
<path d="M1006.82 1148.03L938.954 1144.09C938.635 1144.06 938.324 1143.97 938.039 1143.83C937.754 1143.68 937.501 1143.48 937.294 1143.23C937.101 1142.97 936.964 1142.68 936.895 1142.36C936.825 1142.04 936.824 1141.71 936.891 1141.4L951.558 1072.01C951.637 1071.58 951.841 1071.19 952.144 1070.87C952.448 1070.56 952.837 1070.35 953.262 1070.26C953.689 1070.18 954.131 1070.22 954.536 1070.37C954.942 1070.53 955.293 1070.8 955.549 1071.16L1008.74 1144.49C1009 1144.82 1009.16 1145.21 1009.2 1145.63C1009.23 1146.04 1009.16 1146.46 1008.97 1146.83C1008.78 1147.2 1008.49 1147.51 1008.13 1147.72C1007.78 1147.94 1007.37 1148.04 1006.95 1148.03H1006.82ZM941.69 1139.78L1002.2 1143.28L954.742 1077.88L941.69 1139.78Z" fill="#263238"/>
<path d="M942.004 1097.39L975.868 1131.48L975.016 1144L925.409 1140.59L942.004 1097.39Z" fill="#263238"/>
<path d="M975.016 1146.24L925.409 1142.83C925.056 1142.81 924.712 1142.71 924.408 1142.53C924.103 1142.35 923.847 1142.1 923.659 1141.8C923.505 1141.48 923.425 1141.14 923.425 1140.79C923.425 1140.44 923.505 1140.09 923.659 1139.78L940.21 1096.59C940.352 1096.24 940.578 1095.93 940.867 1095.69C941.156 1095.45 941.5 1095.29 941.868 1095.21C942.236 1095.14 942.617 1095.15 942.977 1095.26C943.337 1095.37 943.665 1095.56 943.933 1095.82L977.797 1129.87C978.016 1130.1 978.184 1130.38 978.292 1130.68C978.4 1130.98 978.445 1131.3 978.424 1131.62L977.572 1144.18C977.524 1144.76 977.251 1145.31 976.81 1145.7C976.567 1145.91 976.281 1146.07 975.972 1146.17C975.662 1146.26 975.336 1146.28 975.016 1146.24ZM928.593 1138.57L972.952 1141.62L973.58 1132.33L942.901 1101.43L928.593 1138.57Z" fill="#263238"/>
<path d="M927.766 1082.83L865.433 1078.55C857.055 1077.97 849.797 1084.3 849.221 1092.68L847.322 1120.33C846.746 1128.71 853.071 1135.97 861.449 1136.54L923.781 1140.82C932.159 1141.4 939.417 1135.07 939.993 1126.7L941.893 1099.04C942.468 1090.67 936.143 1083.41 927.766 1082.83Z" fill="white"/>
<path d="M924.96 1143.1H923.749L861.359 1138.61C856.752 1138.27 852.464 1136.13 849.428 1132.65C847.918 1130.93 846.765 1128.92 846.033 1126.75C845.302 1124.58 845.008 1122.29 845.167 1120L847.096 1092.28C847.429 1087.68 849.568 1083.39 853.046 1080.36C856.524 1077.33 861.06 1075.79 865.665 1076.09L928.055 1080.58C932.657 1080.91 936.942 1083.05 939.974 1086.53C943.007 1090 944.543 1094.54 944.247 1099.14L942.318 1126.86C942.012 1131.26 940.052 1135.38 936.831 1138.39C933.611 1141.41 929.37 1143.09 924.96 1143.1ZM924.063 1138.61C925.758 1138.74 927.46 1138.52 929.071 1137.98C930.683 1137.44 932.172 1136.59 933.452 1135.47C934.732 1134.35 935.778 1132.99 936.53 1131.47C937.282 1129.95 937.725 1128.29 937.833 1126.59L939.761 1098.87C939.983 1095.46 938.844 1092.09 936.591 1089.51C934.339 1086.93 931.157 1085.35 927.741 1085.11L865.351 1080.62C863.656 1080.5 861.954 1080.71 860.342 1081.25C858.731 1081.79 857.242 1082.64 855.962 1083.76C854.682 1084.88 853.636 1086.24 852.884 1087.76C852.132 1089.29 851.689 1090.94 851.581 1092.64L849.652 1120.36C849.53 1122.06 849.745 1123.76 850.284 1125.38C850.822 1126.99 851.675 1128.48 852.792 1129.76C853.909 1131.05 855.268 1132.1 856.792 1132.86C858.317 1133.61 859.975 1134.06 861.673 1134.17L924.063 1138.61Z" fill="#263238"/>
<path d="M1016.01 1354.53C1018.34 1320.58 1031.08 1242.81 1135.32 1249.94C1214.21 1255.37 1230.9 1369.29 1230.9 1369.29C1230.9 1369.29 1233.64 1418.63 1246.01 1439.26C1249.15 1444.6 1251.53 1448.5 1253.28 1451.46L1271.22 1452.67L1371.69 1446.12L1367.21 1385.12L1330.16 1246.08L1034.53 1147.41L346.361 1106.72L291.64 1122.02C282.166 1123.61 272.889 1126.21 263.966 1129.78C246.967 1136.6 225.931 1147.45 224.137 1157.54L198.437 1301.07C194.579 1322.78 247.461 1347.18 267.644 1356.06L289.084 1370.41C282.782 1352.53 279.935 1333.61 280.696 1314.66C283.746 1270.48 305.904 1192.89 379.372 1198.04C417.183 1200.65 439.968 1209.93 453.738 1224.19L454.814 1225.49C459.453 1230.63 463.212 1236.49 465.938 1242.85C477.094 1263.88 483.941 1286.92 486.077 1310.62C491.459 1366.11 509.49 1393.38 527.341 1400.73L530.167 1401.94L1039.33 1436.93C1023.64 1411.18 1014.13 1382.12 1016.01 1354.53Z" fill="white"/>
<path d="M1271.27 1454.92L1253.33 1453.7C1252.97 1453.68 1252.62 1453.57 1252.32 1453.38C1252.01 1453.2 1251.76 1452.94 1251.58 1452.63L1244.31 1440.38C1231.8 1419.39 1229.02 1371.49 1228.88 1369.43C1228.88 1368.53 1211.57 1257.29 1135.36 1252.18C1091.23 1249.13 1059.11 1261.15 1039.47 1288.06C1027.45 1304.7 1020.36 1327.08 1018.48 1354.62C1016.28 1386.56 1029.83 1416.25 1041.53 1435.36C1041.75 1435.71 1041.87 1436.11 1041.87 1436.52C1041.88 1436.93 1041.76 1437.33 1041.55 1437.68C1041.33 1438.03 1041.03 1438.32 1040.66 1438.5C1040.29 1438.68 1039.88 1438.76 1039.47 1438.72L530.257 1404.05H529.539L526.758 1402.84C516.218 1398.36 490.876 1380.86 484.103 1310.89C481.979 1287.49 475.225 1264.74 464.234 1243.97C461.6 1237.76 457.947 1232.03 453.424 1227.02L452.796 1226.3L452.303 1225.94C438.04 1211.19 414.178 1202.84 379.417 1200.47C293.838 1194.55 283.971 1302.73 283.119 1315.11C282.353 1333.75 285.154 1352.37 291.372 1369.96C291.524 1370.41 291.533 1370.89 291.396 1371.34C291.259 1371.79 290.984 1372.19 290.609 1372.48C290.227 1372.74 289.773 1372.88 289.308 1372.88C288.844 1372.88 288.39 1372.74 288.008 1372.48L266.433 1357.9C217.096 1336.23 193.324 1316.9 196.239 1300.62L221.895 1157.09C224.093 1144.98 248.806 1133.46 263.114 1127.67C272.197 1124.05 281.639 1121.4 291.282 1119.78L345.957 1104.39H346.675L1034.62 1144.76C1034.82 1144.71 1035.02 1144.71 1035.21 1144.76L1330.83 1243.43C1331.18 1243.56 1331.49 1243.77 1331.74 1244.04C1331.99 1244.32 1332.17 1244.65 1332.27 1245L1369.32 1384.05L1373.8 1445.5C1373.83 1445.79 1373.79 1446.08 1373.7 1446.36C1373.6 1446.64 1373.46 1446.89 1373.26 1447.11C1372.86 1447.56 1372.3 1447.84 1371.69 1447.87L1271.27 1454.92ZM1254.58 1449.31L1271.27 1450.47L1369.23 1444.06L1364.74 1385.3L1328.1 1247.7L1033.91 1149.38L346.63 1109.01L292.089 1124.31C282.68 1125.89 273.464 1128.46 264.594 1131.98C241.809 1140.95 227.456 1150.9 226.156 1158.08L200.5 1301.61C199.065 1309.5 206.017 1326.77 268.362 1354.22L284.868 1365.21C279.736 1348.89 277.505 1331.8 278.275 1314.71C282.266 1256.94 311.107 1191.23 379.372 1195.89C414.896 1198.31 439.52 1206.92 454.635 1222.17C454.915 1222.27 455.163 1222.44 455.353 1222.67L456.474 1224.06C461.256 1229.35 465.108 1235.42 467.867 1242C479.116 1263.24 486.038 1286.51 488.23 1310.44C492.715 1357.32 507.696 1390.28 528.149 1398.71L530.616 1399.75L1035.3 1434.15C1023.82 1414.32 1011.62 1385.44 1013.77 1354.31C1015.74 1325.92 1023.1 1302.77 1035.61 1285.42C1056.06 1257.2 1089.66 1244.51 1135.45 1247.65C1215.25 1253.12 1232.96 1367.72 1233.14 1368.75C1233.32 1369.78 1236.01 1417.82 1247.94 1437.87L1254.58 1449.31Z" fill="#263238"/>
<path d="M659.118 1343.64C664.276 1355.61 668.089 1363.37 668.089 1363.37Z" fill="white"/>
<path d="M668.313 1365.61C667.899 1365.61 667.492 1365.5 667.136 1365.29C666.781 1365.07 666.49 1364.77 666.295 1364.4C666.295 1364.4 662.168 1356.42 657.055 1344.53C656.829 1343.99 656.825 1343.38 657.043 1342.84C657.261 1342.29 657.684 1341.85 658.221 1341.62C658.491 1341.49 658.784 1341.42 659.081 1341.41C659.378 1341.41 659.674 1341.46 659.951 1341.57C660.228 1341.68 660.48 1341.84 660.691 1342.05C660.903 1342.26 661.07 1342.51 661.182 1342.78C666.205 1354.49 670.152 1362.25 670.152 1362.29C670.424 1362.83 670.477 1363.44 670.301 1364.01C670.125 1364.58 669.734 1365.06 669.21 1365.34C668.936 1365.5 668.629 1365.59 668.313 1365.61V1365.61Z" fill="#263238"/>
<path d="M668.313 1147.09C668.313 1147.09 637.903 1218.27 637.903 1261.51C637.903 1281.02 644.093 1303.58 650.91 1322.51" fill="white"/>
<path d="M650.776 1324.75C650.307 1324.76 649.848 1324.62 649.461 1324.36C649.075 1324.09 648.782 1323.71 648.623 1323.27C639.921 1299.05 635.526 1278.42 635.526 1261.51C635.526 1218.32 664.994 1149.02 666.25 1146.1C666.497 1145.58 666.937 1145.17 667.479 1144.96C668.02 1144.76 668.621 1144.77 669.154 1144.99C669.688 1145.22 670.114 1145.64 670.341 1146.18C670.569 1146.71 670.582 1147.31 670.376 1147.85C670.062 1148.57 640.011 1219.21 640.011 1261.51C640.011 1277.75 644.496 1298.02 652.884 1321.79C653.07 1322.35 653.028 1322.96 652.768 1323.49C652.508 1324.02 652.05 1324.42 651.493 1324.62C651.264 1324.71 651.021 1324.75 650.776 1324.75V1324.75Z" fill="#263238"/>
<path d="M1383.98 1327.44L1425.2 1330.27L1409.19 1263.21L1368.1 1265.14L1383.98 1327.44Z" fill="#949494"/>
<path d="M1425.2 1332.51L1384.03 1329.69C1383.55 1329.65 1383.1 1329.47 1382.74 1329.16C1382.38 1328.86 1382.12 1328.44 1382.01 1327.98L1366.09 1265.73C1366.01 1265.4 1366.01 1265.07 1366.08 1264.74C1366.15 1264.42 1366.29 1264.11 1366.49 1263.84C1366.68 1263.57 1366.92 1263.35 1367.21 1263.18C1367.5 1263.02 1367.82 1262.92 1368.15 1262.9L1409.28 1260.97C1409.8 1260.93 1410.32 1261.08 1410.75 1261.39C1411.17 1261.71 1411.46 1262.16 1411.57 1262.68L1427.53 1329.96C1427.62 1330.3 1427.63 1330.65 1427.55 1331C1427.47 1331.34 1427.31 1331.66 1427.09 1331.93C1426.83 1332.16 1426.53 1332.32 1426.21 1332.43C1425.88 1332.53 1425.54 1332.56 1425.2 1332.51V1332.51ZM1385.78 1325.29L1422.29 1327.8L1407.44 1265.55L1370.93 1267.25L1385.78 1325.29Z" fill="#263238"/>
<path d="M1796.49 1355.75L1818.29 1357.27L1803.94 1353.14L1781.65 1350.54L1796.49 1355.75Z" fill="white"/>
<path d="M1818.29 1359.51L1796.45 1357.99H1795.86L1781.02 1352.74C1780.5 1352.56 1780.07 1352.19 1779.81 1351.71C1779.54 1351.23 1779.46 1350.67 1779.58 1350.14C1779.71 1349.6 1780.03 1349.12 1780.49 1348.8C1780.94 1348.48 1781.5 1348.33 1782.05 1348.39L1804.48 1350.99L1819.19 1355.21C1819.72 1355.36 1820.18 1355.7 1820.48 1356.18C1820.77 1356.65 1820.87 1357.22 1820.76 1357.76C1820.65 1358.32 1820.33 1358.81 1819.87 1359.13C1819.41 1359.46 1818.85 1359.59 1818.29 1359.51Z" fill="#263238"/>
<path d="M510.521 1175.08L481.457 1173.06C480.144 1172.98 478.861 1172.63 477.683 1172.05C476.504 1171.46 475.452 1170.65 474.589 1169.66C473.726 1168.67 473.068 1167.51 472.653 1166.26C472.238 1165.02 472.075 1163.7 472.172 1162.39V1162.39C472.357 1159.74 473.583 1157.27 475.584 1155.52C477.584 1153.77 480.196 1152.88 482.847 1153.06L511.912 1155.08C513.232 1155.15 514.525 1155.49 515.714 1156.06C516.903 1156.64 517.965 1157.45 518.838 1158.45C519.71 1159.44 520.376 1160.6 520.797 1161.85C521.217 1163.11 521.383 1164.43 521.286 1165.75C521.195 1167.07 520.844 1168.36 520.253 1169.54C519.662 1170.73 518.843 1171.79 517.843 1172.65C516.843 1173.52 515.681 1174.18 514.424 1174.6C513.168 1175.01 511.841 1175.18 510.521 1175.08Z" fill="white"/>
<path d="M511.239 1177.32H510.387L481.323 1175.35C478.081 1175.13 475.06 1173.63 472.923 1171.18C470.787 1168.73 469.71 1165.54 469.93 1162.3C470.15 1159.05 471.649 1156.03 474.097 1153.9C476.544 1151.76 479.741 1150.68 482.982 1150.9L512.047 1152.88C513.655 1152.93 515.236 1153.3 516.702 1153.96C518.167 1154.63 519.487 1155.57 520.587 1156.75C521.686 1157.92 522.544 1159.3 523.11 1160.81C523.677 1162.32 523.941 1163.92 523.888 1165.53C523.835 1167.13 523.466 1168.72 522.801 1170.18C522.137 1171.65 521.19 1172.97 520.016 1174.07C518.841 1175.17 517.462 1176.02 515.956 1176.59C514.45 1177.16 512.847 1177.42 511.239 1177.37V1177.32ZM482.13 1155.3C480.165 1155.31 478.275 1156.05 476.836 1157.39C475.398 1158.73 474.517 1160.56 474.37 1162.52C474.316 1163.55 474.47 1164.59 474.825 1165.56C475.179 1166.53 475.727 1167.42 476.434 1168.17C477.093 1168.95 477.902 1169.58 478.811 1170.03C479.72 1170.49 480.712 1170.75 481.726 1170.82L510.791 1172.84C511.814 1172.91 512.84 1172.77 513.811 1172.44C514.781 1172.11 515.676 1171.59 516.442 1170.91C517.216 1170.25 517.849 1169.44 518.303 1168.53C518.758 1167.62 519.025 1166.63 519.089 1165.62C519.223 1163.56 518.547 1161.53 517.205 1159.96C516.536 1159.19 515.72 1158.56 514.803 1158.1C513.887 1157.65 512.888 1157.38 511.867 1157.32L482.803 1155.3H482.13Z" fill="#263238"/>
<path d="M742.141 1190.96L713.076 1188.98C711.765 1188.89 710.485 1188.54 709.31 1187.96C708.134 1187.37 707.085 1186.56 706.222 1185.57C705.36 1184.58 704.702 1183.43 704.285 1182.18C703.868 1180.94 703.7 1179.62 703.791 1178.31V1178.31C703.976 1175.66 705.202 1173.19 707.203 1171.44C709.203 1169.69 711.815 1168.81 714.466 1168.98L743.531 1171C744.844 1171.08 746.126 1171.43 747.305 1172.01C748.484 1172.6 749.535 1173.41 750.399 1174.4C751.262 1175.39 751.92 1176.55 752.335 1177.79C752.75 1179.04 752.913 1180.36 752.815 1181.67V1181.67C752.73 1182.99 752.386 1184.27 751.802 1185.45C751.218 1186.63 750.406 1187.68 749.414 1188.54C748.421 1189.4 747.267 1190.06 746.019 1190.48C744.77 1190.89 743.452 1191.05 742.141 1190.96Z" fill="white"/>
<path d="M742.858 1193.24H742.006L712.942 1191.27C709.816 1190.89 706.954 1189.33 704.946 1186.91C702.938 1184.48 701.937 1181.38 702.15 1178.24C702.363 1175.1 703.773 1172.16 706.09 1170.03C708.407 1167.89 711.453 1166.73 714.601 1166.78L743.666 1168.8C746.903 1169.03 749.919 1170.53 752.053 1172.98C754.187 1175.42 755.268 1178.61 755.058 1181.85C754.854 1184.95 753.48 1187.85 751.215 1189.98C748.95 1192.1 745.963 1193.28 742.858 1193.29V1193.24ZM713.749 1171.22C711.786 1171.22 709.895 1171.96 708.461 1173.3C707.028 1174.65 706.16 1176.48 706.034 1178.44C705.945 1179.46 706.066 1180.49 706.39 1181.46C706.714 1182.44 707.234 1183.33 707.918 1184.09C708.583 1184.87 709.399 1185.51 710.316 1185.96C711.233 1186.42 712.233 1186.68 713.256 1186.74L742.32 1188.71C743.334 1188.8 744.354 1188.68 745.319 1188.35C746.283 1188.03 747.17 1187.51 747.927 1186.83C749.479 1185.48 750.431 1183.57 750.574 1181.52C750.717 1179.46 750.039 1177.44 748.689 1175.89C748.021 1175.11 747.205 1174.48 746.288 1174.02C745.371 1173.57 744.373 1173.3 743.352 1173.24L714.287 1171.22H713.749Z" fill="#263238"/>
<path d="M993.405 1414.91C992.962 1414.9 992.53 1414.77 992.163 1414.52C991.796 1414.28 991.51 1413.93 991.342 1413.52C988.336 1405.95 986.155 1398.09 984.838 1390.06C984.733 1389.48 984.863 1388.88 985.199 1388.39C985.535 1387.9 986.051 1387.57 986.632 1387.46C986.921 1387.4 987.219 1387.4 987.508 1387.46C987.797 1387.52 988.071 1387.63 988.314 1387.8C988.556 1387.97 988.763 1388.18 988.921 1388.43C989.079 1388.68 989.185 1388.96 989.234 1389.25C990.519 1396.92 992.609 1404.44 995.468 1411.68C995.585 1411.95 995.646 1412.24 995.648 1412.53C995.65 1412.83 995.593 1413.12 995.48 1413.39C995.367 1413.66 995.201 1413.91 994.991 1414.12C994.781 1414.32 994.531 1414.48 994.257 1414.59C994.002 1414.76 993.71 1414.87 993.405 1414.91V1414.91Z" fill="#263238"/>
<path d="M985.063 1377.95C984.508 1377.94 983.974 1377.73 983.562 1377.36C983.149 1376.99 982.885 1376.48 982.82 1375.93C976.227 1314.03 990.939 1222.98 996.276 1202.53C1000.38 1186.44 1009.26 1171.98 1021.75 1161.04C1022.23 1160.69 1022.82 1160.54 1023.4 1160.61C1023.99 1160.69 1024.52 1160.99 1024.89 1161.44C1025.26 1161.92 1025.42 1162.52 1025.34 1163.12C1025.27 1163.71 1024.96 1164.26 1024.49 1164.63C1012.83 1174.99 1004.52 1188.59 1000.63 1203.7C995.11 1223.97 980.533 1314.12 987.171 1375.48C987.202 1375.77 987.175 1376.06 987.093 1376.34C987.01 1376.62 986.873 1376.88 986.69 1377.1C986.506 1377.33 986.28 1377.52 986.024 1377.65C985.767 1377.79 985.487 1377.87 985.197 1377.9L985.063 1377.95Z" fill="#263238"/>
<path d="M1233.99 1340.18C1233.4 1340.18 1232.83 1339.95 1232.41 1339.53C1231.99 1339.1 1231.75 1338.53 1231.75 1337.94C1231.35 1310.09 1224.49 1243.48 1169.94 1226.21C1130.34 1213.65 1097.19 1227.47 1076.38 1241.28C1076.14 1241.48 1075.86 1241.62 1075.56 1241.7C1075.26 1241.78 1074.94 1241.8 1074.63 1241.75C1074.32 1241.7 1074.03 1241.59 1073.77 1241.42C1073.5 1241.26 1073.28 1241.03 1073.11 1240.77C1072.93 1240.51 1072.82 1240.22 1072.76 1239.91C1072.71 1239.61 1072.72 1239.29 1072.8 1238.99C1072.88 1238.69 1073.02 1238.4 1073.21 1238.16C1073.4 1237.91 1073.64 1237.71 1073.92 1237.56C1095.53 1223.21 1129.98 1208.85 1171.29 1221.91C1228.66 1240.07 1235.83 1309.05 1236.24 1337.89C1236.24 1338.49 1236.01 1339.05 1235.6 1339.48C1235.19 1339.91 1234.63 1340.16 1234.04 1340.18H1233.99Z" fill="#263238"/>
<path d="M1049.43 1263.71C1049 1263.7 1048.59 1263.58 1048.23 1263.35C1047.87 1263.12 1047.59 1262.79 1047.41 1262.41C1047.23 1262.02 1047.17 1261.6 1047.22 1261.17C1047.28 1260.75 1047.45 1260.36 1047.72 1260.03C1052.16 1255.01 1057.02 1250.39 1062.25 1246.22C1062.71 1245.84 1063.3 1245.67 1063.89 1245.73C1064.48 1245.79 1065.02 1246.07 1065.39 1246.53C1065.58 1246.76 1065.73 1247.02 1065.82 1247.31C1065.9 1247.59 1065.93 1247.89 1065.9 1248.19C1065.88 1248.48 1065.79 1248.77 1065.65 1249.03C1065.5 1249.3 1065.31 1249.53 1065.08 1249.71C1060.07 1253.72 1055.41 1258.13 1051.13 1262.9C1050.92 1263.15 1050.66 1263.36 1050.37 1263.5C1050.07 1263.64 1049.75 1263.71 1049.43 1263.71Z" fill="#263238"/>
<path d="M224.137 1157.54L214.449 1211.63L237.19 1213.2L241.002 1157.99L224.317 1156.82C224.272 1157.09 224.182 1157.32 224.137 1157.54Z" fill="#92E3A9"/>
<path d="M237.19 1215.45L214.449 1213.88C214.134 1213.86 213.826 1213.78 213.547 1213.63C213.268 1213.48 213.025 1213.28 212.835 1213.02C212.632 1212.79 212.487 1212.5 212.409 1212.2C212.331 1211.9 212.323 1211.58 212.386 1211.28L222.029 1157.18C222.072 1156.91 222.147 1156.64 222.254 1156.38C222.424 1155.87 222.742 1155.43 223.166 1155.11C223.59 1154.79 224.1 1154.61 224.631 1154.58L241.271 1155.75C241.862 1155.79 242.412 1156.07 242.805 1156.51C243.199 1156.95 243.404 1157.53 243.379 1158.13L239.567 1213.38C239.521 1213.97 239.246 1214.52 238.801 1214.9C238.356 1215.29 237.777 1215.48 237.19 1215.45ZM217.096 1209.57L235.037 1210.83L238.715 1160.05L226.246 1159.2L217.096 1209.57Z" fill="#263238"/>
<path d="M1318.45 1133.32L1379 1127.85L1441.48 1077.17L1513.25 1077.88C1513.25 1077.88 1534.24 1137.76 1590.89 1173.46C1628.88 1197.37 1710.06 1201.27 1710.51 1202.89C1711.59 1207.01 1717.51 1257.03 1717.51 1257.03C1717.51 1257.03 1793.98 1313.05 1800.35 1317.53C1806.72 1322.02 1814.43 1346.69 1814.43 1346.69L1575.32 1280.12L1473.6 1245.05L1344.47 1243.43L1165.55 1174.9L1067.46 1147.32C1067.46 1147.32 1272.79 1113.32 1318.45 1133.32Z" fill="white"/>
<path d="M1814.43 1348.93H1813.85L1574.47 1282.28L1472.97 1247.25L1344.2 1245.77C1343.95 1245.81 1343.69 1245.81 1343.43 1245.77L1164.79 1177.23L1066.83 1149.74C1066.35 1149.58 1065.93 1149.28 1065.64 1148.86C1065.35 1148.45 1065.2 1147.95 1065.21 1147.45C1065.23 1146.93 1065.43 1146.44 1065.77 1146.05C1066.12 1145.67 1066.59 1145.42 1067.1 1145.34C1075.44 1143.95 1272.07 1111.7 1318.81 1131.26L1377.97 1125.7L1440.09 1075.33C1440.28 1075.15 1440.51 1075.01 1440.76 1074.93C1441.01 1074.84 1441.27 1074.81 1441.53 1074.83L1513.29 1075.55C1513.76 1075.56 1514.21 1075.71 1514.58 1075.98C1514.96 1076.26 1515.25 1076.64 1515.4 1077.08C1515.4 1077.66 1536.79 1136.64 1592.1 1171.27C1621.21 1189.61 1676.33 1196.03 1699.74 1198.76C1712.08 1200.2 1712.08 1200.2 1712.53 1202.08C1713.56 1205.98 1718.49 1247.25 1719.48 1255.5C1727.6 1261.47 1795.73 1311.43 1801.65 1315.56C1808.47 1320.31 1815.78 1343.28 1816.59 1345.88C1816.7 1346.26 1816.72 1346.66 1816.62 1347.05C1816.53 1347.44 1816.33 1347.79 1816.05 1348.08C1815.86 1348.33 1815.61 1348.53 1815.33 1348.68C1815.06 1348.83 1814.75 1348.91 1814.43 1348.93V1348.93ZM1344.65 1241.28L1473.37 1242.9C1473.61 1242.85 1473.85 1242.85 1474.09 1242.9L1575.82 1277.97L1811.02 1343.46C1807.84 1334.22 1802.73 1322.02 1799.09 1319.46C1792.72 1314.97 1719.17 1261.15 1716.07 1258.77C1715.82 1258.6 1715.6 1258.37 1715.44 1258.11C1715.28 1257.85 1715.17 1257.55 1715.13 1257.25C1712.98 1238.77 1709.57 1211.14 1708.45 1204.64C1706.7 1204.32 1703.02 1203.92 1699.21 1203.47C1675.34 1200.69 1619.55 1194.14 1589.59 1175.3C1537.87 1142.74 1515.31 1089.64 1511.59 1080.08L1442.29 1079.36L1380.44 1129.6C1380.09 1129.87 1379.67 1130.04 1379.23 1130.09L1318.68 1135.56C1318.31 1135.65 1317.92 1135.65 1317.55 1135.56C1278.76 1118.57 1119.71 1141.66 1077.91 1148.12L1166.18 1172.93L1344.65 1241.28Z" fill="#263238"/>
<path d="M1575.32 1282.37C1574.95 1282.37 1574.58 1282.28 1574.25 1282.1L1467.05 1223.79L1344.65 1245.77C1344.36 1245.83 1344.06 1245.82 1343.77 1245.77C1343.48 1245.71 1343.21 1245.59 1342.96 1245.42C1342.72 1245.25 1342.52 1245.04 1342.36 1244.79C1342.2 1244.54 1342.09 1244.26 1342.04 1243.97C1341.94 1243.39 1342.07 1242.79 1342.41 1242.3C1342.74 1241.82 1343.26 1241.48 1343.84 1241.37L1466.82 1219.21C1467.33 1219.11 1467.85 1219.19 1468.3 1219.44L1576.18 1278.33C1576.43 1278.47 1576.66 1278.65 1576.85 1278.88C1577.03 1279.1 1577.17 1279.36 1577.25 1279.64C1577.34 1279.92 1577.36 1280.22 1577.33 1280.51C1577.3 1280.8 1577.21 1281.08 1577.07 1281.34C1576.89 1281.64 1576.63 1281.89 1576.32 1282.07C1576.02 1282.24 1575.68 1282.35 1575.32 1282.37V1282.37Z" fill="#263238"/>
<path d="M1690.73 1267.43H1690.15L1577.66 1236.8C1577.15 1236.67 1576.7 1236.37 1576.39 1235.94C1576.09 1235.51 1575.95 1234.99 1576 1234.46C1576.04 1233.94 1576.27 1233.45 1576.64 1233.07C1577.01 1232.7 1577.49 1232.46 1578.01 1232.4L1642.6 1226.35L1695.98 1203.11C1696.25 1202.99 1696.54 1202.93 1696.83 1202.93C1697.13 1202.92 1697.42 1202.97 1697.7 1203.08C1697.97 1203.19 1698.22 1203.35 1698.44 1203.56C1698.65 1203.76 1698.82 1204.01 1698.94 1204.28C1699.06 1204.55 1699.12 1204.84 1699.12 1205.14C1699.13 1205.43 1699.08 1205.73 1698.97 1206C1698.86 1206.28 1698.7 1206.53 1698.49 1206.74C1698.29 1206.95 1698.04 1207.12 1697.77 1207.24L1643.95 1230.61C1643.73 1230.65 1643.5 1230.65 1643.28 1230.61L1590.62 1235.45L1691.13 1262.81C1691.71 1262.98 1692.19 1263.36 1692.48 1263.88C1692.78 1264.4 1692.86 1265.02 1692.7 1265.59C1692.62 1266.07 1692.38 1266.51 1692.02 1266.84C1691.67 1267.17 1691.21 1267.38 1690.73 1267.43Z" fill="#263238"/>
<path d="M1551.55 1230.74C1551.17 1230.76 1550.8 1230.67 1550.48 1230.47L1389.72 1144.45C1389.46 1144.31 1389.23 1144.12 1389.04 1143.89C1388.85 1143.66 1388.7 1143.4 1388.61 1143.12C1388.53 1142.83 1388.5 1142.54 1388.53 1142.24C1388.55 1141.94 1388.64 1141.66 1388.78 1141.4C1388.92 1141.14 1389.11 1140.91 1389.34 1140.72C1389.57 1140.53 1389.84 1140.4 1390.12 1140.31C1390.4 1140.23 1390.7 1140.2 1390.99 1140.23C1391.29 1140.27 1391.57 1140.36 1391.83 1140.5L1552.63 1226.53C1553.14 1226.82 1553.53 1227.3 1553.69 1227.87C1553.86 1228.44 1553.8 1229.05 1553.53 1229.58C1553.34 1229.93 1553.05 1230.23 1552.7 1230.44C1552.35 1230.64 1551.96 1230.75 1551.55 1230.74V1230.74Z" fill="#263238"/>
<path d="M1748.14 1352.43L1844.75 1417.73L1818.29 1357.27L1748.14 1352.43Z" fill="white"/>
<path d="M1844.75 1419.97C1844.31 1419.99 1843.87 1419.86 1843.5 1419.62L1746.88 1354.31C1746.48 1354.03 1746.18 1353.63 1746.03 1353.16C1745.87 1352.69 1745.88 1352.19 1746.04 1351.72C1746.21 1351.26 1746.52 1350.86 1746.93 1350.59C1747.34 1350.32 1747.83 1350.19 1748.32 1350.23L1818.47 1355.03C1818.87 1355.06 1819.26 1355.21 1819.59 1355.44C1819.93 1355.68 1820.19 1356 1820.35 1356.37L1846.82 1416.84C1847.01 1417.29 1847.05 1417.79 1846.94 1418.26C1846.83 1418.74 1846.56 1419.17 1846.19 1419.48C1845.77 1419.8 1845.27 1419.97 1844.75 1419.97V1419.97ZM1756.3 1355.25L1839.59 1411.72L1816.81 1359.6L1756.3 1355.25Z" fill="#263238"/>
<path d="M1145.72 954.225H1145.41L827.809 908.879C827.518 908.835 827.237 908.734 826.985 908.582C826.732 908.43 826.512 908.229 826.337 907.992C826.162 907.754 826.036 907.484 825.965 907.198C825.894 906.911 825.881 906.614 825.926 906.322C826.025 905.739 826.347 905.216 826.824 904.865C827.301 904.513 827.895 904.36 828.482 904.439L1146.04 949.74C1146.63 949.781 1147.19 950.058 1147.58 950.508C1147.97 950.958 1148.17 951.545 1148.12 952.139C1148.08 952.734 1147.81 953.288 1147.36 953.679C1146.91 954.07 1146.32 954.267 1145.72 954.225V954.225Z" fill="#263238"/>
<path d="M942.901 905.739L770.488 878.514C769.893 878.419 769.36 878.091 769.007 877.603C768.654 877.115 768.509 876.507 768.604 875.912C768.699 875.318 769.027 874.785 769.515 874.432C770.002 874.078 770.611 873.933 771.205 874.029L943.619 901.209C944.204 901.319 944.722 901.652 945.066 902.137C945.409 902.623 945.55 903.223 945.458 903.811C945.42 904.106 945.322 904.392 945.173 904.649C945.023 904.907 944.823 905.132 944.585 905.312C944.347 905.492 944.075 905.622 943.786 905.695C943.497 905.769 943.196 905.784 942.901 905.739Z" fill="#263238"/>
<path d="M798.924 1454.96L624.447 1448.32C623.853 1448.32 623.282 1448.09 622.862 1447.66C622.441 1447.24 622.205 1446.67 622.205 1446.08C622.205 1445.48 622.441 1444.91 622.862 1444.49C623.282 1444.07 623.853 1443.84 624.447 1443.84L798.834 1450.47C799.133 1450.48 799.427 1450.55 799.7 1450.67C799.973 1450.79 800.219 1450.96 800.424 1451.18C800.628 1451.4 800.788 1451.65 800.892 1451.93C800.997 1452.21 801.044 1452.51 801.032 1452.81C801.001 1453.36 800.77 1453.88 800.383 1454.28C799.995 1454.68 799.477 1454.92 798.924 1454.96V1454.96Z" fill="#263238"/>
<path d="M853.196 1488.24L678.809 1481.6C678.514 1481.59 678.225 1481.52 677.957 1481.4C677.69 1481.27 677.449 1481.1 677.249 1480.88C677.049 1480.67 676.894 1480.41 676.792 1480.14C676.69 1479.86 676.644 1479.56 676.656 1479.27C676.668 1478.98 676.737 1478.69 676.861 1478.42C676.984 1478.15 677.159 1477.91 677.376 1477.71C677.592 1477.51 677.846 1477.35 678.123 1477.25C678.4 1477.15 678.694 1477.11 678.988 1477.12L853.375 1483.76C853.97 1483.76 854.541 1483.99 854.961 1484.41C855.382 1484.83 855.618 1485.4 855.618 1486C855.618 1486.59 855.382 1487.16 854.961 1487.58C854.541 1488 853.97 1488.24 853.375 1488.24H853.196Z" fill="#263238"/>
</svg>
