<svg width="492" height="120" viewBox="0 0 492 120" fill="none" xmlns="http://www.w3.org/2000/svg">
<path d="M57.6471 21.1765L66.3635 48.0028H94.5704L71.7505 64.5825L80.467 91.4089L57.6471 74.8293L34.8272 91.4089L43.5436 64.5825L20.7237 48.0028H48.9306L57.6471 21.1765Z" fill="#FAAD2E"/>
<path d="M151.765 21.1765L160.481 48.0028H188.688L165.868 64.5825L174.585 91.4089L151.765 74.8293L128.945 91.4089L137.661 64.5825L114.841 48.0028H143.048L151.765 21.1765Z" fill="#FAAD2E"/>
<path d="M243.529 21.1765L252.246 48.0028H280.453L257.633 64.5825L266.349 91.4089L243.529 74.8293L220.71 91.4089L229.426 64.5825L206.606 48.0028H234.813L243.529 21.1765Z" fill="#FAAD2E"/>
<path d="M337.647 21.1765L346.363 48.0028H374.57L351.751 64.5825L360.467 91.4089L337.647 74.8293L314.827 91.4089L323.544 64.5825L300.724 48.0028H328.931L337.647 21.1765Z" fill="#FAAD2E"/>
<path d="M431.765 21.1765L440.481 48.0028H468.688L445.868 64.5825L454.585 91.4089L431.765 74.8293L408.945 91.4089L417.661 64.5825L394.841 48.0028H423.048L431.765 21.1765Z" fill="#FAAD2E"/>
</svg>
