<svg width="495" height="461" viewBox="0 0 495 461" fill="none" xmlns="http://www.w3.org/2000/svg">
<g opacity="0.5">
<path opacity="0.5" d="M99.9658 460.428C143.706 460.428 179.164 451.564 179.164 440.629C179.164 429.694 143.706 420.829 99.9658 420.829C56.2261 420.829 20.7681 429.694 20.7681 440.629C20.7681 451.564 56.2261 460.428 99.9658 460.428Z" fill="#1DCF9F"/>
<path opacity="0.5" d="M265.147 429.156C371.907 429.156 458.453 416.326 458.453 400.499C458.453 384.673 371.907 371.843 265.147 371.843C158.386 371.843 71.8398 384.673 71.8398 400.499C71.8398 416.326 158.386 429.156 265.147 429.156Z" fill="#1DCF9F"/>
</g>
<path d="M151.075 73.7769L249.554 56.7319L343.864 74.7498L433.89 59.9666V390.821L344.003 407.246L249.554 389.987L149.635 405.705L75.6047 389.519V61.2554L151.075 73.7769Z" fill="#82DEC1" stroke="#263238" stroke-width="0.786832" stroke-miterlimit="10"/>
<path d="M143.898 271.746L130.088 264.304L106.713 319.747L150.393 341.152V273.01C148.15 273.26 145.884 272.82 143.898 271.746V271.746Z" fill="#263238"/>
<path d="M105.512 251.037L86.2437 297.875V354.077L125.198 261.663L105.512 251.037Z" fill="#263238"/>
<path d="M86.2437 368.304V380.156L150.393 395.938V344.234L105.639 322.287L86.2437 368.304Z" fill="#263238"/>
<path d="M86.2437 234.371L146.514 266.894C147.705 267.519 149.081 267.699 150.393 267.4V195.631L86.2437 165.13V234.371Z" fill="#263238"/>
<path d="M350.661 123.825C348.733 125.12 346.69 126.237 344.559 127.161V209.391L386.899 99.3127L350.661 123.825Z" fill="#263238"/>
<path d="M383.071 194.368L410.022 129.524L396.363 90.1143L364.56 172.812L383.071 194.368Z" fill="#263238"/>
<path d="M388.63 94.764L396.212 75.1162L344.559 84.6558V124.179C346.138 123.42 347.663 122.55 349.12 121.576L388.63 94.764Z" fill="#263238"/>
<path d="M86.2437 240.651V283.358L100.623 248.396L86.2437 240.651Z" fill="#263238"/>
<path d="M168.613 249.622L158.934 267.311C158.187 268.671 157.164 269.859 155.93 270.799C154.696 271.739 153.279 272.41 151.77 272.769V340.141L209.526 291.002L168.613 249.622Z" fill="#263238"/>
<path d="M289.481 278.203C290.437 278.344 291.414 278.232 292.313 277.88C293.213 277.528 294.005 276.946 294.611 276.194L336.661 224.389C329.927 209.972 319.996 200.319 307.133 195.707C285.274 187.861 260.762 196.604 253.281 199.687L285.11 274.816C285.479 275.714 286.076 276.499 286.844 277.093C287.611 277.687 288.52 278.07 289.481 278.203V278.203Z" fill="#263238"/>
<path d="M266.523 356.389C276.379 351.133 328.436 323.424 329.03 323.133C331.721 321.706 333.2 320.126 333.553 318.332C334.413 314.011 329.182 307.693 324.557 302.121C320.539 297.269 316.749 292.683 315.814 288.412C313.286 276.787 320.501 272.062 326.301 268.259C328.828 266.591 331.266 265.011 332.618 263.066C335.221 259.275 330.66 250.241 327.16 244.947L298.958 279.681C297.92 280.963 296.609 281.998 295.121 282.708C293.632 283.419 292.003 283.787 290.353 283.787C289.821 283.787 289.289 283.749 288.761 283.674C286.858 283.417 285.055 282.666 283.532 281.495C282.009 280.325 280.819 278.776 280.081 277.002L250.237 206.586V324.309L252.132 326.229L266.523 356.389Z" fill="#263238"/>
<path d="M206.518 156.045C205.736 160.401 204.642 164.695 203.246 168.895C199.152 180.128 157.165 194.077 151.757 195.846V266.932C152.739 266.424 153.545 265.631 154.07 264.657L207.138 167.732C207.996 166.172 209.216 164.84 210.695 163.848C212.175 162.857 213.87 162.234 215.639 162.032C217.409 161.83 219.201 162.056 220.865 162.689C222.53 163.323 224.018 164.346 225.206 165.673L248.834 192.207V107.399C239.737 110.305 230.614 113.527 223.197 118.67C212.47 126.099 209.033 143.41 206.518 156.045Z" fill="#263238"/>
<path d="M409.504 225.16L423.251 241.169V194.481L409.731 225.261L409.504 225.16Z" fill="#263238"/>
<path d="M371.535 310.827C371.078 312.325 371.088 313.927 371.565 315.419C372.041 316.911 372.961 318.222 374.201 319.179L404.652 342.756C409.549 346.585 412.839 352.106 413.875 358.235C414.91 364.365 413.617 370.66 410.249 375.886L404.45 384.73L396.957 386.107L405.625 372.828C408.242 368.769 409.247 363.878 408.442 359.116C407.638 354.354 405.083 350.065 401.278 347.09L370.815 323.588C368.676 321.925 367.097 319.648 366.289 317.063C365.48 314.477 365.481 311.706 366.291 309.121L397.652 219.853L362.273 178.675L345.494 222.38L344.559 223.53V396.304L423.238 381.382V249.647L401.758 224.68L371.535 310.827Z" fill="#263238"/>
<path d="M311.631 125.986L265.74 101.789C261.697 103.318 257.338 104.683 252.852 106.098L250.237 106.919V193.723L251.071 194.658C259.031 191.285 284.958 181.897 309.016 190.514C322.599 195.379 333.2 205.184 340.604 219.676L340.705 219.562L343.232 213.005V127.78C338.148 129.774 332.694 130.646 327.242 130.336C321.79 130.027 316.469 128.543 311.644 125.986H311.631Z" fill="#263238"/>
<path d="M250.237 101.082L251.197 100.778C259.865 98.0492 268.052 95.4843 273.801 91.719C278.919 88.358 284.352 81.4971 288.964 74.573L294.852 75.6975C289.646 83.7714 283.164 92.237 276.846 96.394C274.391 97.9603 271.804 99.309 269.114 100.425L312.945 123.547C317.575 125.997 322.693 127.382 327.927 127.601C333.16 127.82 338.376 126.866 343.194 124.811V84.6559L250.262 67.2192L250.237 101.082Z" fill="#263238"/>
<path d="M387.102 199.068L405.688 220.712L423.251 180.747V167.695L412.738 137.37L387.102 199.068Z" fill="#263238"/>
<path d="M402.567 73.9914L399.206 82.7098L415.708 129.081L423.251 150.826V70.1882L402.567 73.9914Z" fill="#263238"/>
<path d="M151.757 189.895C169.447 183.173 195.766 172.029 198.192 166.621C199.241 164.296 200.1 159.975 201.085 154.971C203.777 141.413 207.403 122.84 220.038 114.096C228.58 108.17 238.789 104.733 248.834 101.562V67.3076L151.757 83.3923V189.895Z" fill="#263238"/>
<path d="M337.167 266.186C335.209 269.029 332.214 270.988 329.333 272.883C323.231 276.876 319.566 279.706 321.209 287.224C321.866 290.193 325.404 294.464 328.79 298.596C334.463 305.444 340.313 312.495 338.898 319.406C338.216 322.881 335.739 325.724 331.557 328.011L268.899 361.368L280.587 385.88L342.878 396.607H343.169V225.223L330.786 240.474C333.339 244.075 342.638 258.226 337.167 266.186Z" fill="#263238"/>
<path d="M211.472 292.96L168.562 329.464L200.112 388.42L197.219 388.875L166.414 331.296L151.77 343.754V396.064L248.859 380.75V332.193L247.545 329.451L211.472 292.96Z" fill="#263238"/>
<path d="M86.2437 159.039L150.393 189.528V83.1269L86.2437 71.4014V159.039ZM113.409 82.5204C123.985 82.1161 133.108 96.2928 133.79 114.184C134.472 132.076 126.487 146.897 115.873 147.301C105.26 147.706 96.175 133.529 95.4927 115.637C94.8104 97.7459 102.834 82.9247 113.409 82.5204Z" fill="#263238"/>
<path d="M221.1 169.312C220.503 168.644 219.755 168.128 218.918 167.809C218.081 167.49 217.179 167.376 216.289 167.477C215.399 167.579 214.546 167.893 213.802 168.392C213.058 168.892 212.446 169.563 212.015 170.348L171.38 244.542L248.859 322.881V203.326L246.522 197.906L221.1 169.312Z" fill="#263238"/>
<path d="M250.237 335.099V380.662L273.928 384.743L250.237 335.099Z" fill="#263238"/>
<path d="M295.142 154.718C291.392 154.718 287.796 156.208 285.145 158.859C282.493 161.511 281.003 165.107 281.003 168.857C281.003 176.666 295.142 191.424 295.142 191.424C295.142 191.424 309.281 176.666 309.281 168.857C309.281 165.107 307.791 161.511 305.14 158.859C302.488 156.208 298.892 154.718 295.142 154.718V154.718ZM295.142 173.911C293.963 173.911 292.81 173.561 291.829 172.906C290.848 172.251 290.084 171.319 289.632 170.23C289.181 169.14 289.063 167.941 289.293 166.784C289.523 165.627 290.091 164.564 290.925 163.73C291.759 162.896 292.822 162.328 293.979 162.098C295.136 161.868 296.335 161.986 297.425 162.438C298.514 162.889 299.446 163.653 300.101 164.634C300.756 165.615 301.106 166.768 301.106 167.947C301.106 168.731 300.952 169.506 300.652 170.23C300.352 170.953 299.913 171.611 299.359 172.164C298.806 172.718 298.148 173.158 297.425 173.457C296.701 173.757 295.925 173.911 295.142 173.911V173.911Z" fill="white"/>
<path d="M125.123 217.036C125.123 217.036 127.498 222.734 129.558 223.846C131.617 224.958 133.348 225.893 135.572 222.582C137.796 219.272 133.512 213.877 130.341 212.929C127.169 211.981 123.96 212.449 125.123 217.036Z" fill="white" stroke="#263238" stroke-width="0.590124" stroke-linecap="round" stroke-linejoin="round"/>
<path d="M121.597 210.136C121.597 210.136 119.98 211.766 121.37 215.709C122.76 219.651 126.702 219.891 127.41 218.728C128.117 217.566 131.579 220.358 131.579 220.358L133.437 231.035L143.886 230.1L144.177 219.853L121.597 210.136Z" fill="white" stroke="#263238" stroke-width="0.590124" stroke-linecap="round" stroke-linejoin="round"/>
<path d="M104.881 283.497C104.881 283.497 104.654 295.804 104.654 305.785C104.654 315.767 109.986 328.769 109.986 328.769C109.986 328.769 109.758 333.646 111.148 336.666C112.538 339.686 117.655 345.511 119.045 345.258C120.435 345.005 120.902 341.076 121.13 336.198C121.357 331.321 115.103 327.354 115.103 322.502C115.103 317.65 117.188 306.72 118.35 300.453C119.513 294.186 119.273 283.269 119.273 283.269L105.121 282.574L104.881 283.497Z" fill="white"/>
<g style="mix-blend-mode:multiply" opacity="0.5">
<path d="M119.273 283.269L105.121 282.574L104.881 283.497C104.881 283.497 104.881 285.771 104.793 289.145C106.488 290.453 108.412 291.434 110.466 292.038C110.072 299.731 110.495 307.444 111.729 315.047C113.776 327.063 115.305 328.592 114.029 331.662C112.753 334.733 115.116 339.888 117.365 341.151C118.818 341.96 120.17 338.372 121.155 335.301C120.637 330.841 115.154 327.088 115.154 322.527C115.154 317.65 117.238 306.746 118.401 300.479C119.563 294.212 119.273 283.269 119.273 283.269Z" fill="#B5F9E6"/>
</g>
<path d="M104.881 283.497C104.881 283.497 104.654 295.804 104.654 305.785C104.654 315.767 109.986 328.769 109.986 328.769C109.986 328.769 109.758 333.646 111.148 336.666C112.538 339.686 117.655 345.511 119.045 345.258C120.435 345.005 120.902 341.076 121.13 336.198C121.357 331.321 115.103 327.354 115.103 322.502C115.103 317.65 117.188 306.72 118.35 300.453C119.513 294.186 119.273 283.269 119.273 283.269L105.121 282.574L104.881 283.497Z" stroke="#263238" stroke-width="0.590124" stroke-linecap="round" stroke-linejoin="round"/>
<path d="M173.099 226.739L186.024 218.842L205.9 196.099C207.121 193.383 208.647 190.814 210.448 188.442C212.609 186.041 219.066 180.292 219.786 181.492C220.506 182.693 220.986 182.933 219.786 184.133L215.717 188.202C215.717 188.202 220.266 191.992 220.506 193.256C220.732 194.104 220.784 194.988 220.66 195.856C220.536 196.725 220.239 197.559 219.786 198.31C218.598 199.978 217.878 197.83 217.878 197.83C217.007 199.587 215.873 201.202 214.517 202.619C213.593 203.459 212.414 203.966 211.169 204.059L209.008 204.527C209.008 204.527 202.311 218.185 199.19 222.216C196.07 226.247 194.136 228.445 191.533 229.873C188.931 231.301 173.099 240.171 173.099 240.171V226.739Z" fill="white"/>
<g style="mix-blend-mode:multiply" opacity="0.5">
<path d="M218.56 194.747C215.667 194.747 216.981 197.375 213.835 199.472C211.734 200.812 209.423 201.79 206.999 202.366C206.999 202.366 201.225 215.001 192.291 220.75C183.358 226.499 183.371 225.476 183.371 225.476L180.364 236.077L191.533 229.848C194.161 228.42 196.082 226.259 199.19 222.191C202.299 218.122 209.008 204.501 209.008 204.501L211.169 204.034C212.414 203.941 213.593 203.434 214.517 202.593C215.873 201.176 217.006 199.562 217.878 197.805C217.878 197.805 218.598 199.953 219.786 198.285C220.145 197.771 220.398 197.191 220.531 196.579C220.19 195.518 219.596 194.747 218.56 194.747Z" fill="#B5F9E6"/>
</g>
<path d="M173.099 226.739L186.024 218.842L205.9 196.099C207.121 193.383 208.647 190.814 210.448 188.442C212.609 186.041 219.066 180.292 219.786 181.492C220.506 182.693 220.986 182.933 219.786 184.133L215.717 188.202C215.717 188.202 220.266 191.992 220.506 193.256C220.732 194.104 220.784 194.988 220.66 195.856C220.536 196.725 220.239 197.559 219.786 198.31C218.598 199.978 217.878 197.83 217.878 197.83C217.007 199.587 215.873 201.202 214.517 202.619C213.593 203.459 212.414 203.966 211.169 204.059L209.008 204.527C209.008 204.527 202.311 218.185 199.19 222.216C196.07 226.247 194.136 228.445 191.533 229.873C188.931 231.301 173.099 240.171 173.099 240.171V226.739Z" stroke="#263238" stroke-width="0.590124" stroke-linecap="round" stroke-linejoin="round"/>
<path d="M132.35 432.972C132.35 432.972 135.471 433.755 134.687 436.08C133.904 438.405 131.415 442.764 129.393 442.613C127.372 442.461 132.35 432.972 132.35 432.972Z" fill="#B5F9E6" stroke="#263238" stroke-width="0.590124" stroke-linecap="round" stroke-linejoin="round"/>
<path d="M120.902 337.828C120.902 337.828 121.597 356.87 121.597 359.649C121.597 362.429 117.415 373.346 117.415 378.918C117.415 384.49 121.597 425.782 121.597 432.744C121.597 439.706 120.902 442.031 124.617 442.739C128.332 443.446 130.657 443.661 132.047 438.784C133.437 433.907 132.047 402.837 133.437 389.835C134.826 376.833 137.391 362.897 137.619 355.012C137.826 349.849 138.524 344.717 139.704 339.686C136.727 339.765 133.753 339.451 130.859 338.751C127.589 338.045 124.246 337.735 120.902 337.828V337.828Z" fill="white"/>
<g style="mix-blend-mode:multiply" opacity="0.5">
<path d="M137.695 353.345C136.239 352.878 134.741 352.556 133.222 352.384C131.693 352.384 126.828 352.637 125.034 352.89L121.446 353.458C121.534 356.377 121.597 358.79 121.597 359.65C121.557 360.328 121.451 361.001 121.281 361.659C122.97 362.505 124.745 363.166 126.576 363.63C131.946 365.159 132.704 364.893 132.704 364.893C132.704 364.893 125.034 383.555 125.552 390.972C125.944 396.696 126.942 428.739 127.384 443.093C129.545 443.156 131.036 442.297 132.047 438.771C133.437 433.894 132.047 402.824 133.437 389.822C134.826 376.821 137.391 362.884 137.619 355C137.627 354.435 137.653 353.884 137.695 353.345Z" fill="#B5F9E6"/>
</g>
<path d="M120.902 337.828C120.902 337.828 121.597 356.87 121.597 359.649C121.597 362.429 117.415 373.346 117.415 378.918C117.415 384.49 121.597 425.782 121.597 432.744C121.597 439.706 120.902 442.031 124.617 442.739C128.332 443.446 130.657 443.661 132.047 438.784C133.437 433.907 132.047 402.837 133.437 389.835C134.826 376.833 137.391 362.897 137.619 355.012C137.826 349.849 138.524 344.717 139.704 339.686C136.727 339.765 133.753 339.451 130.859 338.751C127.589 338.045 124.246 337.735 120.902 337.828V337.828Z" stroke="#263238" stroke-width="0.590124" stroke-linecap="round" stroke-linejoin="round"/>
<path d="M142.496 342.238C142.496 342.238 143.418 358.032 142.496 363.137C141.574 368.241 139.249 371.489 139.009 377.301C138.769 383.113 142.724 429.497 142.724 435.309C142.724 441.122 139.944 442.271 145.251 444.154C150.557 446.037 169.864 439.504 169.864 436.952C169.864 434.4 157.33 434.172 155.965 430.912C154.601 427.652 154.525 386.828 156.837 374.761C159.149 362.695 162.018 339.837 162.018 339.837L142.496 342.238Z" fill="white"/>
<g style="mix-blend-mode:multiply" opacity="0.5">
<path d="M147.967 444.445C155.283 444.344 169.839 439.15 169.839 436.927C169.839 434.4 157.305 434.147 155.94 430.887C154.576 427.627 154.5 386.803 156.812 374.736C158 368.583 159.339 359.649 160.325 352.359C154.399 352.359 147.108 352.624 142.863 352.763C142.999 356.226 142.868 359.694 142.471 363.137C142.266 364.222 141.996 365.293 141.662 366.346C143.606 367.473 145.753 368.203 147.98 368.494C147.98 368.494 146.957 378.463 146.186 393.55C145.567 407.221 146.337 437.091 147.967 444.445Z" fill="#B5F9E6"/>
</g>
<path d="M142.496 342.238C142.496 342.238 143.418 358.032 142.496 363.137C141.574 368.241 139.249 371.489 139.009 377.301C138.769 383.113 142.724 429.497 142.724 435.309C142.724 441.122 139.944 442.271 145.251 444.154C150.557 446.037 169.864 439.504 169.864 436.952C169.864 434.4 157.33 434.172 155.965 430.912C154.601 427.652 154.525 386.828 156.837 374.761C159.149 362.695 162.018 339.837 162.018 339.837L142.496 342.238Z" stroke="#263238" stroke-width="0.590124" stroke-linecap="round" stroke-linejoin="round"/>
<path d="M169.889 436.927C169.889 434.4 157.355 434.147 155.991 430.887L156.686 436.232C156.686 436.232 155.056 437.862 149.711 438.316C147.319 438.545 144.905 438.395 142.559 437.874C142.041 441.513 140.866 442.587 145.301 444.129C150.621 446.024 169.889 439.479 169.889 436.927Z" fill="#B5F9E6" stroke="#263238" stroke-width="0.590124" stroke-linecap="round" stroke-linejoin="round"/>
<path d="M132.047 438.784C132.338 437.583 132.512 436.355 132.565 435.12C128.433 437.104 124.074 435.954 121.585 434.93C121.496 440.212 121.319 442.12 124.617 442.739C128.332 443.497 130.657 443.661 132.047 438.784Z" fill="#B5F9E6" stroke="#263238" stroke-width="0.590124" stroke-linecap="round" stroke-linejoin="round"/>
<path d="M116.025 302.766L116.467 354.292C116.467 354.292 118.792 356.377 124.832 357.312C128.863 357.814 132.952 357.579 136.899 356.617L136.671 359.864C136.671 359.864 140.386 362.189 148.965 362.391C157.545 362.593 164.987 357.337 164.987 357.337L161.07 302.563C161.07 302.563 142.269 307.213 129.722 304.193C117.175 301.174 117.883 298.356 116.025 302.766Z" fill="white"/>
<g style="mix-blend-mode:multiply">
<path d="M151.821 357.274L151.619 362.328C156.404 361.735 160.983 360.025 164.987 357.337L161.07 302.563C161.07 302.563 142.269 307.213 129.722 304.193C117.175 301.174 117.883 298.381 116.025 302.791L116.101 310.675C119.774 312.816 123.748 314.392 127.89 315.35C137.341 317.713 148.877 316.235 148.877 316.235L151.821 332.193C152.354 333.627 152.752 335.107 153.009 336.615C153.127 338.119 152.925 339.631 152.415 341.05C152.415 341.05 154.777 348.442 154.777 351.98C154.749 353.036 154.466 354.069 153.951 354.991C153.436 355.913 152.705 356.696 151.821 357.274V357.274Z" fill="#B5F9E6"/>
</g>
<g style="mix-blend-mode:multiply" opacity="0.1">
<path d="M151.821 357.274L151.619 362.328C156.404 361.735 160.983 360.025 164.987 357.337L161.07 302.563C161.07 302.563 142.269 307.213 129.722 304.193C117.175 301.174 117.883 298.381 116.025 302.791L116.101 310.675C119.774 312.816 123.748 314.392 127.89 315.35C137.341 317.713 148.877 316.235 148.877 316.235L151.821 332.193C152.354 333.627 152.752 335.107 153.009 336.615C153.127 338.119 152.925 339.631 152.415 341.05C152.415 341.05 154.777 348.442 154.777 351.98C154.749 353.036 154.466 354.069 153.951 354.991C153.436 355.913 152.705 356.696 151.821 357.274V357.274Z" fill="black"/>
</g>
<path d="M116.025 302.766L116.467 354.292C116.467 354.292 118.792 356.377 124.832 357.312C128.863 357.814 132.952 357.579 136.899 356.617L136.671 359.864C136.671 359.864 140.386 362.189 148.965 362.391C157.545 362.593 164.987 357.337 164.987 357.337L161.07 302.563C161.07 302.563 142.269 307.213 129.722 304.193C117.175 301.174 117.883 298.356 116.025 302.766Z" stroke="#263238" stroke-width="0.590124" stroke-linecap="round" stroke-linejoin="round"/>
<path d="M126.702 316.93L135.761 318.56L136.229 341.316" stroke="#263238" stroke-width="0.590124" stroke-linecap="round" stroke-linejoin="round"/>
<path d="M161.398 330.652C161.398 330.652 160.552 332.067 155.435 332.635C150.317 333.204 147.487 332.357 147.209 333.495C146.931 334.632 147.765 340.305 147.765 340.305C150.071 341.016 152.501 341.232 154.897 340.938C157.292 340.644 159.598 339.847 161.664 338.599" stroke="#263238" stroke-width="0.590124" stroke-linecap="round" stroke-linejoin="round"/>
<path d="M148.334 343.678C148.334 343.678 147.487 355.884 148.902 356.453" stroke="#263238" stroke-width="0.590124" stroke-linecap="round" stroke-linejoin="round"/>
<path d="M117.643 349.39C117.643 349.39 123.328 355.354 136.671 352.523C136.671 352.523 150.014 362.177 162.51 351.664" stroke="#263238" stroke-width="0.590124" stroke-linecap="round" stroke-linejoin="round"/>
<path d="M136.128 344.563V351.095" stroke="#263238" stroke-width="0.590124" stroke-linecap="round" stroke-linejoin="round"/>
<path d="M106.271 272.82C105.684 272.955 105.133 273.211 104.652 273.572C104.171 273.934 103.771 274.392 103.478 274.917C102.783 276.535 101.394 281.412 102.316 282.802C104.263 284.937 106.887 286.334 109.746 286.757C112.015 286.972 114.305 286.732 116.48 286.049L117.643 276.307C117.643 276.307 108.368 277.002 106.271 272.82Z" fill="white" stroke="#263238" stroke-width="0.590124" stroke-linecap="round" stroke-linejoin="round"/>
<path d="M172.328 225.236C172.328 225.236 170.761 223.151 172.328 222.102C173.894 221.053 179.403 217.92 180.97 218.438C182.537 218.956 186.201 222.886 186.732 226.815C187.263 230.745 188.299 233.878 186.985 234.927C185.671 235.976 180.97 240.941 179.403 241.245C177.837 241.548 177.306 239.413 177.306 239.413L172.328 225.236Z" fill="white" stroke="#263238" stroke-width="0.590124" stroke-linecap="round" stroke-linejoin="round"/>
<path d="M129.494 231.225C129.494 231.225 116.025 237.959 114.863 240.752C113.7 243.544 104.426 273.945 105.348 275.334C105.931 276.339 106.736 277.196 107.702 277.84C108.668 278.484 109.769 278.898 110.92 279.049C112.582 279.425 114.273 279.657 115.975 279.744L114.357 302.273C114.357 302.273 120.157 314.112 139.628 311.56C159.099 309.007 166.326 300.87 166.326 300.87L159.832 251.656C159.832 251.656 180.958 238.894 181.185 236.102C181.413 233.31 180.49 226.588 178.658 224.73C178.042 224.03 177.209 223.558 176.293 223.388C175.376 223.218 174.429 223.362 173.604 223.795C168.767 225.885 163.804 227.67 158.745 229.14C157.823 229.14 152.945 228.205 151.783 228.205C150.62 228.205 141.106 229.607 139.704 229.607C138.301 229.607 129.494 231.225 129.494 231.225Z" fill="#B5F9E6" stroke="#263238" stroke-width="0.590124" stroke-linecap="round" stroke-linejoin="round"/>
<path opacity="0.3" d="M129.494 231.225C129.494 231.225 116.025 237.959 114.863 240.752C113.7 243.544 104.426 273.945 105.348 275.334C105.931 276.339 106.736 277.196 107.702 277.84C108.668 278.484 109.769 278.898 110.92 279.049C112.582 279.425 114.273 279.657 115.975 279.744L114.357 302.273C114.357 302.273 120.157 314.112 139.628 311.56C159.099 309.007 166.326 300.87 166.326 300.87L159.832 251.656C159.832 251.656 180.958 238.894 181.185 236.102C181.413 233.31 180.49 226.588 178.658 224.73C178.042 224.03 177.209 223.558 176.293 223.388C175.376 223.218 174.429 223.362 173.604 223.795C168.767 225.885 163.804 227.67 158.745 229.14C157.823 229.14 152.945 228.205 151.783 228.205C150.62 228.205 141.106 229.607 139.704 229.607C138.301 229.607 129.494 231.225 129.494 231.225Z" fill="white" stroke="#263238" stroke-width="0.590124" stroke-linecap="round" stroke-linejoin="round"/>
<path d="M128.332 232.893L130.417 229.178C130.417 229.178 136.456 227.081 140.866 225.931C145.276 224.781 147.841 224.301 147.841 224.301L150.115 228.963L128.332 232.893Z" fill="white" stroke="#263238" stroke-width="0.590124" stroke-linecap="round" stroke-linejoin="round"/>
<path d="M161.992 267.021L156.42 300.453C156.42 300.453 163.155 299.758 166.402 300.908L161.992 267.021Z" fill="white" stroke="#263238" stroke-width="0.590124" stroke-linecap="round" stroke-linejoin="round"/>
<path d="M159.907 251.694C159.907 251.694 152.326 267.033 148.624 271.291" stroke="#263238" stroke-width="0.590124" stroke-linecap="round" stroke-linejoin="round"/>
<path d="M155.434 260.501C155.434 260.501 152.604 276.118 149.761 282.372" stroke="#263238" stroke-width="0.590124" stroke-linecap="round" stroke-linejoin="round"/>
<path d="M115.962 278.114L116.253 251.984" stroke="#263238" stroke-width="0.590124" stroke-linecap="round" stroke-linejoin="round"/>
<path d="M129.494 189.238C128.492 188.624 127.356 188.262 126.183 188.182C125.01 188.103 123.836 188.309 122.76 188.783C119.045 190.4 118.35 200.382 119.272 206.889C120.195 213.396 129.494 219.196 132.514 221.748C135.534 224.301 139.944 223.833 143.886 221.748C147.828 219.663 153.64 209.214 151.783 199.687C149.926 190.16 148.068 184.828 140.639 184.601C133.209 184.373 129.962 185.991 129.494 189.238Z" fill="white" stroke="#263238" stroke-width="0.590124" stroke-linecap="round" stroke-linejoin="round"/>
<g style="mix-blend-mode:multiply">
<path d="M125.855 215.911C124.773 214.849 123.78 213.699 122.886 212.474C122.103 211.211 123.354 211.691 125.539 212.626C127.725 213.561 122.57 208.722 122.103 204.337C121.635 199.953 129.444 199.018 132.893 201.204C134.986 202.549 136.878 204.183 138.516 206.056C138.516 206.056 138.364 198.234 141.485 198.702C144.606 199.169 145.086 205.272 145.086 205.272C145.086 205.272 148.99 197.451 149.458 199.953C149.925 202.454 147.436 211.842 147.436 211.842C147.436 211.842 150.241 204.186 150.873 207.306C151.505 210.427 146.754 219.765 143.886 221.748C141.018 223.732 135.395 224.351 133.045 222.633C130.525 220.528 128.124 218.284 125.855 215.911V215.911Z" fill="#B5F9E6"/>
</g>
<path d="M149.332 194.406C149.97 198.996 149.255 203.673 147.272 207.862C143.949 215.14 142.534 215.443 142.534 215.443" stroke="#263238" stroke-width="0.393416" stroke-miterlimit="10" stroke-linecap="round"/>
<path d="M149.812 210.225C149.812 210.225 146.64 216.871 142.534 219.07" stroke="#263238" stroke-width="0.393416" stroke-miterlimit="10" stroke-linecap="round"/>
<path d="M130.657 191.083C130.657 191.083 135.408 194.557 135.888 198.841" stroke="#263238" stroke-width="0.393416" stroke-miterlimit="10" stroke-linecap="round"/>
<path d="M120.688 206.75C122.344 210.473 125.255 213.496 128.913 215.292C134.927 218.147 137.303 214.824 137.303 214.824" stroke="#263238" stroke-width="0.393416" stroke-miterlimit="10" stroke-linecap="round"/>
<path d="M131.137 219.247C134.214 220.542 137.671 220.601 140.79 219.411" stroke="#263238" stroke-width="0.393416" stroke-miterlimit="10" stroke-linecap="round"/>
<path d="M55.8938 420.842C55.8938 420.842 60.7836 421.903 59.7728 423.685C58.762 425.467 57.6627 425.176 57.6627 425.176C57.2996 423.649 56.703 422.187 55.8938 420.842V420.842Z" fill="white" stroke="#263238" stroke-width="0.590124" stroke-linecap="round" stroke-linejoin="round"/>
<path d="M41.2625 428.41C41.2625 428.41 38.4701 430.432 40.5044 432.719C42.5387 435.006 46.8221 435.246 49.8798 433.224C52.9375 431.203 58.2443 427.905 59.988 425.871C61.7316 423.836 59.2299 421.057 55.9321 420.551C52.6343 420.046 41.2625 428.41 41.2625 428.41Z" fill="white" stroke="#263238" stroke-width="0.590124" stroke-linecap="round" stroke-linejoin="round"/>
<path d="M36.6 345.283C37.5089 349.656 37.3354 354.184 36.0946 358.474C34.0603 366.334 33.8076 369.846 34.5657 377.238C35.3238 384.629 42.4249 417.797 41.6667 422.358C40.9086 426.92 40.4032 428.196 41.414 430.723C42.4248 433.25 45.9754 433.515 48.515 431.228C51.0547 428.941 53.3291 428.196 54.0872 425.403C54.8453 422.611 51.8128 420.349 51.0547 417.822C50.2966 415.295 48.7677 379.537 48.7677 369.657C48.9745 361.764 49.6495 353.891 50.7894 346.079L36.6 345.283Z" fill="white"/>
<g style="mix-blend-mode:multiply" opacity="0.5">
<path d="M48.7676 369.631C48.9743 361.739 49.6494 353.866 50.7892 346.054L36.5999 345.283C37.0477 347.225 37.2263 349.219 37.1305 351.209C38.0529 351.474 39.0637 351.752 40.0366 351.967C41.513 352.348 43.0245 352.577 44.5474 352.649C44.5474 352.649 42.7406 361.001 41.616 368.001C40.4915 375.001 41.1612 393.739 44.1431 404.568C47.125 415.396 46.1774 421.726 46.8597 424.43C47.542 427.134 47.7062 430.394 45.7857 432.668C46.8202 432.434 47.7772 431.938 48.5654 431.228C51.0925 428.954 53.3795 428.195 54.1376 425.403C54.8957 422.611 51.8632 420.349 51.1051 417.822C50.347 415.295 48.7676 379.512 48.7676 369.631Z" fill="#B5F9E6"/>
</g>
<path d="M36.6 345.283C37.5089 349.656 37.3354 354.184 36.0946 358.474C34.0603 366.334 33.8076 369.846 34.5657 377.238C35.3238 384.629 42.4249 417.797 41.6667 422.358C40.9086 426.92 40.4032 428.196 41.414 430.723C42.4248 433.25 45.9754 433.515 48.515 431.228C51.0547 428.941 53.3291 428.196 54.0872 425.403C54.8453 422.611 51.8128 420.349 51.0547 417.822C50.2966 415.295 48.7677 379.537 48.7677 369.657C48.9745 361.764 49.6495 353.891 50.7894 346.079L36.6 345.283Z" stroke="#263238" stroke-width="0.590124" stroke-linecap="round" stroke-linejoin="round"/>
<path d="M51.5603 418.934C52.6006 419.049 53.6047 419.383 54.5064 419.915C55.408 420.446 56.1868 421.163 56.7913 422.017C58.5602 424.809 58.1433 425.189 58.1433 425.189L53.0892 428.234C53.0892 428.234 52.3184 426.288 51.5603 418.934Z" fill="#B5F9E6" stroke="#263238" stroke-width="0.590124" stroke-linecap="round" stroke-linejoin="round"/>
<path d="M72.5725 436.08C72.5725 436.08 70.8036 436.851 72.8253 438.607C74.8469 440.364 80.179 439.113 86.724 437.849C93.2691 436.586 98.6391 433.793 98.8918 432.012C99.1445 430.23 93.3196 430.243 93.3196 430.243L72.5725 436.08Z" fill="white" stroke="#263238" stroke-width="0.590124" stroke-linecap="round" stroke-linejoin="round"/>
<path d="M61.6935 348.834C61.6935 348.834 62.7043 352.89 60.9354 360.749C59.1665 368.608 58.4083 369.884 59.6719 378.754C60.9354 387.624 71.8143 426.705 72.3071 428.992C72.7999 431.279 72.3071 434.311 72.5598 436.08C72.8125 437.849 77.3739 437.344 79.9135 436.851C82.4532 436.358 91.8286 434.564 93.6101 433.553C95.3917 432.542 97.9188 431.771 95.1264 430.508C92.334 429.244 83.7546 429.244 82.2005 427.21C80.6464 425.176 77.8919 419.098 77.8919 415.838C77.8919 412.578 72.8378 375.747 73.5959 368.393C74.354 361.039 75.6302 345.839 75.6302 345.839L61.6935 348.834Z" fill="white"/>
<g style="mix-blend-mode:multiply" opacity="0.5">
<path d="M95.1394 430.508C92.347 429.245 83.7676 429.245 82.2135 427.21C80.6594 425.176 77.9049 419.099 77.9049 415.839C77.9049 412.579 72.8508 375.747 73.6089 368.393C74.367 361.04 75.6432 345.839 75.6432 345.839L61.7444 348.872C62.1451 351.186 62.1707 353.549 61.8202 355.872C62.3933 355.996 62.9774 356.064 63.5639 356.074C66.2678 356.074 71.2335 355.846 71.2335 355.846C71.2335 355.846 66.7227 369.164 66.9501 378.426C67.1775 387.687 75.9843 425.176 76.8814 428.31C77.6672 430.715 78.0473 433.234 78.0059 435.764C78.0011 436.25 77.9674 436.736 77.9049 437.218C78.663 437.129 79.3706 437.003 79.9771 436.889C82.5041 436.371 91.8921 434.602 93.6737 433.591C95.4552 432.58 97.9317 431.772 95.1394 430.508Z" fill="#B5F9E6"/>
</g>
<path d="M61.6935 348.834C61.6935 348.834 62.7043 352.89 60.9354 360.749C59.1665 368.608 58.4083 369.884 59.6719 378.754C60.9354 387.624 71.8143 426.705 72.3071 428.992C72.7999 431.279 72.3071 434.311 72.5598 436.08C72.8125 437.849 77.3739 437.344 79.9135 436.851C82.4532 436.358 91.8286 434.564 93.6101 433.553C95.3917 432.542 97.9188 431.771 95.1264 430.508C92.334 429.244 83.7546 429.244 82.2005 427.21C80.6464 425.176 77.8919 419.098 77.8919 415.838C77.8919 412.578 72.8378 375.747 73.5959 368.393C74.354 361.039 75.6302 345.839 75.6302 345.839L61.6935 348.834Z" stroke="#263238" stroke-width="0.590124" stroke-linecap="round" stroke-linejoin="round"/>
<path d="M92.3721 429.497C92.3721 429.497 89.4281 426.465 83.8054 428.158C83.8054 428.158 85.5364 428.474 85.5364 431.266C85.5364 434.058 85.5364 436.901 85.5364 436.901L91.5887 435.322C92.2684 434.531 92.7041 433.559 92.8432 432.526C92.9822 431.492 92.8186 430.44 92.3721 429.497Z" fill="#B5F9E6" stroke="#263238" stroke-width="0.590124" stroke-linecap="round" stroke-linejoin="round"/>
<path d="M28.6903 255.573C28.6903 255.573 25.1145 267.488 25.7084 272.264C26.3023 277.04 26.6687 283.029 29.2842 283.029C31.8997 283.029 37.3328 258.593 37.6361 256.798C37.9393 255.004 28.6903 255.573 28.6903 255.573Z" fill="white" stroke="#263238" stroke-width="0.590124" stroke-linecap="round" stroke-linejoin="round"/>
<path d="M34.313 241.345L27.6416 257.354L41.692 262.674L40.9592 246.69L34.313 241.345Z" fill="white" stroke="#263238" stroke-width="0.590124" stroke-linecap="round" stroke-linejoin="round"/>
<path d="M51.5601 220.561C51.8377 223.022 51.6665 225.514 51.0547 227.914C50.0312 230.694 34.313 238.301 34.313 241.346C34.313 244.391 39.8978 282.158 39.8978 282.158C39.8978 282.158 43.6883 285.708 53.0763 285.455C62.4643 285.203 64.7387 280.136 64.7387 280.136C64.7387 280.136 69.7928 243.115 67.0257 239.577C64.2585 236.039 58.181 230.732 57.385 229.469C56.5889 228.205 58.6485 219.575 58.6485 219.575C58.6485 219.575 57.6377 217.048 52.8236 216.795C48.0096 216.543 51.5601 220.561 51.5601 220.561Z" fill="white" stroke="#263238" stroke-width="0.590124" stroke-linecap="round" stroke-linejoin="round"/>
<path d="M59.5204 231.755C58.7468 231.04 58.0327 230.262 57.385 229.431C56.6269 228.167 58.6485 219.537 58.6485 219.537C58.6485 219.537 57.6377 217.01 52.8237 216.757C48.0096 216.505 51.5601 220.548 51.5601 220.548C51.8378 223.01 51.6665 225.501 51.0547 227.902C50.7515 228.71 49.1974 229.936 47.1631 231.326C49.054 232.856 51.4024 233.71 53.8345 233.752C55.8606 233.544 57.8088 232.86 59.5204 231.755V231.755Z" fill="white" stroke="#263238" stroke-width="0.590124" stroke-linecap="round" stroke-linejoin="round"/>
<path d="M62.9697 263.912C63.6453 267.906 64.7467 271.815 66.2549 275.574C68.7819 281.892 75.0996 292.304 77.1591 288.5C79.2187 284.697 79.1934 275.865 78.1699 270.242C77.1465 264.62 75.1375 258.58 75.1375 255.8C75.1375 253.021 75.8956 250.216 75.1375 247.941C74.3794 245.667 68.8198 243.115 68.8198 243.115L62.9697 263.912Z" fill="white"/>
<g style="mix-blend-mode:multiply" opacity="0.5">
<path d="M77.2098 288.5C79.244 284.71 79.244 275.865 78.2206 270.242C77.1971 264.62 75.1881 258.58 75.1881 255.8C75.1881 253.021 75.9462 250.216 75.1881 247.941C74.43 245.667 68.8705 243.115 68.8705 243.115L63.0457 263.912C63.3529 265.802 63.7749 267.671 64.3092 269.51L71.5744 266.01C71.5744 266.01 76.2748 276.939 76.7675 282.726C76.9295 284.94 76.7202 287.164 76.1484 289.309C76.3832 289.287 76.607 289.199 76.7945 289.056C76.9821 288.913 77.1259 288.721 77.2098 288.5V288.5Z" fill="#B5F9E6"/>
</g>
<path d="M62.9697 263.912C63.6453 267.906 64.7467 271.815 66.2549 275.574C68.7819 281.892 75.0996 292.304 77.1591 288.5C79.2187 284.697 79.1934 275.865 78.1699 270.242C77.1465 264.62 75.1375 258.58 75.1375 255.8C75.1375 253.021 75.8956 250.216 75.1375 247.941C74.3794 245.667 68.8198 243.115 68.8198 243.115L62.9697 263.912Z" stroke="#263238" stroke-width="0.590124" stroke-linecap="round" stroke-linejoin="round"/>
<path d="M72.3452 257.822C72.3452 257.822 75.8957 268.726 77.1592 272.529Z" fill="white"/>
<path d="M72.3452 257.822C72.3452 257.822 75.8957 268.726 77.1592 272.529" stroke="#263238" stroke-width="0.590124" stroke-linecap="round" stroke-linejoin="round"/>
<path d="M67.0257 239.577C67.0257 239.577 67.7838 239.829 68.7946 243.115C69.8054 246.4 73.6592 258.037 73.6592 258.037L70.6646 261.057C68.8226 262.926 66.6889 264.484 64.347 265.668L62.7676 266.439L59.7351 257.064" fill="white"/>
<path d="M67.0257 239.577C67.0257 239.577 67.7838 239.829 68.7946 243.115C69.8054 246.4 73.6592 258.037 73.6592 258.037L70.6646 261.057C68.8226 262.926 66.6889 264.484 64.347 265.668L62.7676 266.439L59.7351 257.064" stroke="#263238" stroke-width="0.590124" stroke-linecap="round" stroke-linejoin="round"/>
<path d="M69.8054 201.671C69.8054 201.671 72.0797 212.348 72.0797 216.669C72.0797 220.99 64.8144 228.483 62.5401 228.255C60.2657 228.028 55.0347 221.938 53.2153 217.124C51.3958 212.31 57.9914 204.4 60.0383 203.035C62.0852 201.671 68.6682 200.534 69.8054 201.671Z" fill="white"/>
<g style="mix-blend-mode:multiply" opacity="0.5">
<path d="M71.3974 210.288C70.7277 206.018 69.8053 201.671 69.8053 201.671C68.6681 200.534 62.0852 201.671 60.0383 203.036C58.2946 204.198 53.2405 210.175 52.9373 214.875C57.0943 214.799 63.2097 213.776 71.3974 210.288Z" fill="#B5F9E6"/>
</g>
<path d="M69.8054 201.671C69.8054 201.671 72.0797 212.348 72.0797 216.669C72.0797 220.99 64.8144 228.483 62.5401 228.255C60.2657 228.028 55.0347 221.938 53.2153 217.124C51.3958 212.31 57.9914 204.4 60.0383 203.035C62.0852 201.671 68.6682 200.534 69.8054 201.671Z" stroke="#263238" stroke-width="0.590124" stroke-linecap="round" stroke-linejoin="round"/>
<path d="M66.2422 210.389C66.2422 211.286 65.8505 212.019 65.3704 212.019C64.8902 212.019 64.4985 211.286 64.4985 210.389C64.4985 209.492 64.8902 208.772 65.3704 208.772C65.8505 208.772 66.2422 209.492 66.2422 210.389Z" fill="#263238"/>
<path d="M70.6269 209.012C70.6269 209.909 70.2352 210.642 69.7424 210.642C69.2497 210.642 68.8706 209.909 68.8706 209.012C68.8706 208.115 69.2623 207.395 69.7424 207.395C70.2226 207.395 70.6269 208.115 70.6269 209.012Z" fill="#263238"/>
<path d="M68.605 208.153C68.4825 209.866 68.7104 211.585 69.2747 213.207C70.2223 215.633 70.892 216.315 70.2223 216.998C69.5527 217.68 68.2007 217.263 68.2007 217.263" stroke="#263238" stroke-width="0.590124" stroke-linecap="round" stroke-linejoin="round"/>
<path d="M67.6575 220.952C67.6575 220.952 64.7261 221.407 64.1196 218.817" stroke="#263238" stroke-width="0.590124" stroke-linecap="round" stroke-linejoin="round"/>
<path d="M63.4878 207.887C63.5263 207.57 63.6356 207.265 63.8077 206.996C63.9797 206.726 64.21 206.499 64.4817 206.33C64.7533 206.162 65.0594 206.056 65.3772 206.022C65.6951 205.987 66.0166 206.025 66.3181 206.131" stroke="#263238" stroke-width="0.590124" stroke-linecap="round" stroke-linejoin="round"/>
<path d="M68.7441 205.954C68.7441 205.954 69.5528 204.337 70.3615 205.285" stroke="#263238" stroke-width="0.590124" stroke-linecap="round" stroke-linejoin="round"/>
<path d="M62.995 203.036C57.764 193.496 45.3057 198.942 38.8996 205.992C32.4935 213.043 31.2174 220.877 34.6289 225.425C38.0404 229.974 44.9645 233.613 53.2027 227.434C58.1557 223.72 60.7839 215.545 61.9716 209.669C62.0853 212.879 61.8831 217.718 60.051 220.611C60.0277 220.648 60.0118 220.689 60.0042 220.731C59.9966 220.774 59.9976 220.818 60.007 220.86C60.0164 220.902 60.034 220.942 60.0589 220.977C60.0838 221.013 60.1155 221.043 60.1521 221.066C60.2104 221.079 60.2707 221.079 60.329 221.066C60.3837 221.063 60.4371 221.048 60.4852 221.022C60.5333 220.996 60.5749 220.959 60.607 220.915C63.134 216.821 62.7044 209.391 62.477 207.016C62.8434 204.691 62.995 203.036 62.995 203.036Z" fill="#263238"/>
<path d="M39.8979 282.157C39.8979 282.157 30.0045 299.657 28.741 307.769C27.4775 315.881 28.2356 344.272 28.2356 344.272C28.2356 344.272 31.0153 347.065 39.6073 347.57C48.1993 348.075 52.5332 346.812 52.5332 346.812L53.544 349.604C53.544 349.604 62.3887 352.384 70.5258 350.362C78.6629 348.341 81.6827 345.548 81.6827 345.548C81.6827 345.548 81.6827 323.993 74.329 305.229C66.9752 286.466 64.7009 280.136 64.7009 280.136C64.7009 280.136 54.5927 287.995 39.8979 282.157Z" fill="#B5F9E6" stroke="#263238" stroke-width="0.590124" stroke-linecap="round" stroke-linejoin="round"/>
<path opacity="0.2" d="M39.8979 282.157C39.8979 282.157 30.0045 299.657 28.741 307.769C27.4775 315.881 28.2356 344.272 28.2356 344.272C28.2356 344.272 31.0153 347.065 39.6073 347.57C48.1993 348.075 52.5332 346.812 52.5332 346.812L53.544 349.604C53.544 349.604 62.3887 352.384 70.5258 350.362C78.6629 348.341 81.6827 345.548 81.6827 345.548C81.6827 345.548 81.6827 323.993 74.329 305.229C66.9752 286.466 64.7009 280.136 64.7009 280.136C64.7009 280.136 54.5927 287.995 39.8979 282.157Z" fill="black" stroke="#263238" stroke-width="0.590124" stroke-linecap="round" stroke-linejoin="round"/>
<path d="M27.9321 338.7C27.9321 338.7 40.0999 345.801 53.2784 341.227" stroke="#263238" stroke-width="0.590124" stroke-linecap="round" stroke-linejoin="round"/>
<path d="M43.9536 313.847L50.7893 317.144L53.5817 344.02" stroke="#263238" stroke-width="0.590124" stroke-linecap="round" stroke-linejoin="round"/>
<path d="M53.8345 340.217C57.846 342.247 62.317 343.198 66.8076 342.977C71.2983 342.755 75.6539 341.368 79.4461 338.953" stroke="#263238" stroke-width="0.590124" stroke-linecap="round" stroke-linejoin="round"/>
<path d="M65.4714 293.517C71.4179 306.414 74.7176 320.373 75.1753 334.569" stroke="#263238" stroke-width="0.393416" stroke-miterlimit="10" stroke-linecap="round"/>
<path d="M42.4248 234.75C42.4248 234.75 36.6 248.194 34.8437 253.513C33.0874 258.833 32.822 259.831 32.822 259.831L37.3833 259.326L47.1883 231.313C47.1883 231.313 44.7118 232.981 42.4248 234.75Z" fill="#B5F9E6" stroke="#263238" stroke-width="0.590124" stroke-linecap="round" stroke-linejoin="round"/>
<path d="M60.4301 232.981C60.4301 232.981 54.3399 242.596 52.8237 246.387C51.3075 250.178 49.5259 255.522 49.5259 255.522L55.3634 255.27C55.3634 255.27 58.1431 243.607 63.7279 235.748L60.4301 232.981Z" fill="#B5F9E6" stroke="#263238" stroke-width="0.590124" stroke-linecap="round" stroke-linejoin="round"/>
<path d="M52.0655 252.25C52.0655 252.25 39.645 252.503 36.0945 254.524C32.544 256.546 30.7624 260.362 30.0043 266.439C29.2462 272.517 26.9592 284.697 26.9592 291.04C26.9592 297.383 35.8039 301.932 42.6775 302.412C49.5511 302.892 58.3957 301.148 61.6304 296.827C64.865 292.506 64.6754 288.21 63.6646 283.648C62.6538 279.087 58.0799 256.773 56.5636 253.728C56.3679 253.333 56.0956 252.982 55.7626 252.693C55.4296 252.404 55.0426 252.185 54.624 252.047C54.2054 251.91 53.7636 251.857 53.3244 251.892C52.8852 251.926 52.4572 252.048 52.0655 252.25V252.25Z" fill="#B5F9E6" stroke="#263238" stroke-width="0.590124" stroke-linecap="round" stroke-linejoin="round"/>
<path d="M36.0947 254.524C36.0947 254.524 32.7969 268.979 32.7969 275.322C32.7969 281.665 35.3239 284.167 42.9051 284.445C50.4862 284.722 55.5403 282.158 55.5403 273.073C55.5403 263.988 55.5403 254.815 53.7588 253.551C51.9772 252.288 38.1163 253.261 36.0947 254.524Z" fill="#B5F9E6" stroke="#263238" stroke-width="0.590124" stroke-linecap="round" stroke-linejoin="round"/>
<path d="M39.8978 277.344C39.8978 277.344 39.3924 282.158 38.6343 289.006C37.8762 295.854 39.7588 306.531 39.7588 306.531L43.3978 308.957L46.4934 305.988C46.4934 305.988 46.2407 301.426 46.2407 292.809C46.2459 287.553 46.5878 282.303 47.2642 277.091L39.8978 277.344Z" fill="#B5F9E6" stroke="#263238" stroke-width="0.590124" stroke-linecap="round" stroke-linejoin="round"/>
<path opacity="0.1" d="M39.8978 277.344C39.8978 277.344 39.3924 282.158 38.6343 289.006C37.8762 295.854 39.7588 306.531 39.7588 306.531L43.3978 308.957L46.4934 305.988C46.4934 305.988 46.2407 301.426 46.2407 292.809C46.2459 287.553 46.5878 282.303 47.2642 277.091L39.8978 277.344Z" fill="black" stroke="#263238" stroke-width="0.590124" stroke-linecap="round" stroke-linejoin="round"/>
<path d="M38.6217 289.006C38.6217 289.006 37.6109 287.995 37.3582 289.764C37.1055 291.533 37.1055 292.051 36.8528 293.82C36.6001 295.589 37.3582 295.854 39.6452 295.854C41.9322 295.854 47.757 296.612 48.2624 294.843C48.7679 293.074 46.4809 287.262 46.4809 287.262L46.2282 292.834L38.2932 292.531L38.6217 289.006Z" fill="white" stroke="#263238" stroke-width="0.590124" stroke-linecap="round" stroke-linejoin="round"/>
<path d="M41.6794 295.058C41.6054 295.06 41.5317 295.047 41.4628 295.019C41.3939 294.992 41.3311 294.952 41.2781 294.9C41.2251 294.848 41.1831 294.786 41.1543 294.718C41.1256 294.65 41.1108 294.576 41.1108 294.502C41.1108 293.239 41.3383 290.863 41.3509 290.712C41.3555 290.638 41.3752 290.566 41.4086 290.5C41.442 290.434 41.4886 290.376 41.5453 290.328C41.6021 290.281 41.6679 290.246 41.7388 290.225C41.8096 290.204 41.884 290.197 41.9574 290.206C42.1038 290.222 42.2383 290.294 42.3325 290.407C42.4268 290.521 42.4735 290.666 42.4628 290.813C42.4628 290.813 42.2354 293.264 42.2354 294.452C42.2424 294.529 42.2333 294.607 42.2085 294.68C42.1837 294.753 42.1439 294.821 42.0915 294.878C42.0392 294.935 41.9755 294.981 41.9045 295.012C41.8336 295.043 41.7569 295.058 41.6794 295.058V295.058Z" fill="white" stroke="#263238" stroke-width="0.393416" stroke-linecap="round" stroke-linejoin="round"/>
<path d="M44.1306 194.848C38.7184 198.213 33.4846 201.857 28.4502 205.765C22.3095 210.819 20.0225 213.447 20.2499 215.266C20.4774 217.086 34.3635 214.622 43.6757 211.476C52.9879 208.33 62.5401 205.575 72.3072 202.391C82.0742 199.207 90.4893 195.113 92.5236 191.714C94.5578 188.315 88.6572 188.985 74.3414 189.187C60.0257 189.389 50.9536 191.676 44.1306 194.848Z" fill="#B5F9E6" stroke="#263238" stroke-width="0.590124" stroke-linecap="round" stroke-linejoin="round"/>
<path opacity="0.4" d="M44.1306 194.848C38.7184 198.213 33.4846 201.857 28.4502 205.765C22.3095 210.819 20.0225 213.447 20.2499 215.266C20.4774 217.086 34.3635 214.622 43.6757 211.476C52.9879 208.33 62.5401 205.575 72.3072 202.391C82.0742 199.207 90.4893 195.113 92.5236 191.714C94.5578 188.315 88.6572 188.985 74.3414 189.187C60.0257 189.389 50.9536 191.676 44.1306 194.848Z" fill="white" stroke="#263238" stroke-width="0.590124" stroke-linecap="round" stroke-linejoin="round"/>
<path d="M39.1271 205.083C39.1271 205.083 36.8528 194.848 38.8997 190.084C40.9466 185.321 51.1685 181.442 56.5891 180.76C62.0096 180.077 65.4337 182.807 66.5835 185.081C67.7333 187.355 71.6376 193.496 71.3597 195.758C71.0817 198.019 70.2225 198.942 58.1811 203.49C46.1397 208.039 41.6289 207.584 39.1271 205.083Z" fill="#B5F9E6" stroke="#263238" stroke-width="0.590124" stroke-linecap="round" stroke-linejoin="round"/>
<path opacity="0.4" d="M39.1271 205.083C39.1271 205.083 36.8528 194.848 38.8997 190.084C40.9466 185.321 51.1685 181.442 56.5891 180.76C62.0096 180.077 65.4337 182.807 66.5835 185.081C67.7333 187.355 71.6376 193.496 71.3597 195.758C71.0817 198.019 70.2225 198.942 58.1811 203.49C46.1397 208.039 41.6289 207.584 39.1271 205.083Z" fill="white" stroke="#263238" stroke-width="0.590124" stroke-linecap="round" stroke-linejoin="round"/>
<path d="M47.4285 195.846C47.9339 195.631 48.4519 195.391 49.0079 195.101" stroke="#263238" stroke-width="0.393416" stroke-miterlimit="10" stroke-linecap="round"/>
<path d="M39.4429 196.541C39.4429 196.541 42.0963 197.805 46.6323 196.213" stroke="#263238" stroke-width="0.393416" stroke-miterlimit="10" stroke-linecap="round"/>
<path d="M47.896 199.106C49.0488 198.705 50.1546 198.179 51.1938 197.539" stroke="#263238" stroke-width="0.393416" stroke-miterlimit="10" stroke-linecap="round"/>
<path d="M41.5276 199.877C43.2828 200.057 45.0562 199.911 46.7586 199.447" stroke="#263238" stroke-width="0.393416" stroke-miterlimit="10" stroke-linecap="round"/>
<path d="M39.645 199.523C39.9421 199.619 40.2463 199.69 40.5548 199.738" stroke="#263238" stroke-width="0.393416" stroke-miterlimit="10" stroke-linecap="round"/>
<path d="M40.4409 203.313C40.4409 203.313 42.6268 204.703 47.4156 203.111" stroke="#263238" stroke-width="0.393416" stroke-miterlimit="10" stroke-linecap="round"/>
</svg>
