<svg width="300" height="120" viewBox="0 0 300 120" fill="none" xmlns="http://www.w3.org/2000/svg">
<path d="M130.826 87V64.4495C130.826 61.591 130.138 59.4339 128.761 57.9781C127.385 56.5224 125.585 55.7946 123.362 55.7946C121.483 55.7946 119.815 56.3107 118.359 57.3429C116.93 58.3752 115.805 59.9368 114.985 62.0277C114.164 64.0922 113.754 66.6728 113.754 69.7695H110.657C110.657 64.7671 111.279 60.6117 112.523 57.3032C113.767 53.9683 115.527 51.4803 117.804 49.8393C120.08 48.1983 122.753 47.3778 125.823 47.3778C128.999 47.3778 131.646 48.0925 133.764 49.5217C135.907 50.9245 137.509 52.9096 138.567 55.4769C139.653 58.0443 140.195 61.0352 140.195 64.4495V87H130.826ZM104.384 87V32.5294H113.754V87H104.384ZM173.151 48.3307H182.521V87H173.151V48.3307ZM146.71 48.3307H156.08V71.9928C156.08 74.5072 156.702 76.3997 157.946 77.6701C159.19 78.9141 160.897 79.5361 163.067 79.5361C164.92 79.5361 166.601 79.0597 168.109 78.1068C169.644 77.1275 170.862 75.6983 171.762 73.8191C172.688 71.9134 173.151 69.5578 173.151 66.7522H175.692C175.692 71.4634 175.083 75.3674 173.866 78.4642C172.648 81.5609 170.968 83.8768 168.824 85.4119C166.68 86.9471 164.205 87.7146 161.4 87.7146C158.647 87.7146 156.159 87.225 153.936 86.2457C151.712 85.2664 149.952 83.6915 148.655 81.5212C147.358 79.3508 146.71 76.4923 146.71 72.9456V48.3307ZM210.626 88.1116C208.217 88.1116 206.007 87.4367 203.996 86.0869C202.011 84.737 200.423 82.7255 199.232 80.0522C198.04 77.3525 197.445 73.9779 197.445 69.9283H200.303C200.303 71.8605 200.74 73.5544 201.614 75.0101C202.487 76.4658 203.612 77.604 204.988 78.4245C206.365 79.2185 207.794 79.6155 209.276 79.6155C211.102 79.6155 212.73 79.1126 214.159 78.1068C215.589 77.1011 216.713 75.6983 217.534 73.8985C218.381 72.0987 218.804 69.9813 218.804 67.5462C218.804 65.1906 218.394 63.1394 217.574 61.3925C216.753 59.6191 215.615 58.2428 214.159 57.2635C212.73 56.2842 211.076 55.7946 209.197 55.7946C207.635 55.7946 206.179 56.1783 204.829 56.9459C203.48 57.687 202.381 58.7722 201.534 60.2014C200.714 61.6042 200.303 63.3114 200.303 65.3229H197.445C197.445 61.4322 198.001 58.1502 199.112 55.4769C200.251 52.8037 201.852 50.7922 203.916 49.4423C206.007 48.066 208.482 47.3778 211.34 47.3778C214.464 47.3778 217.296 48.2116 219.837 49.879C222.404 51.52 224.442 53.8624 225.951 56.9062C227.486 59.9235 228.253 63.4702 228.253 67.5462C228.253 71.6752 227.459 75.288 225.871 78.3848C224.31 81.455 222.192 83.8503 219.519 85.5707C216.846 87.2647 213.881 88.1116 210.626 88.1116ZM190.934 87V32.5294H200.303V77.4716L197.048 87H190.934Z" fill="#262626"/>
<path d="M238.834 41.4226C237.008 41.4226 235.579 40.9462 234.547 39.9933C233.541 39.014 233.038 37.6642 233.038 35.9438C233.038 34.2763 233.541 32.9529 234.547 31.9736C235.579 30.9678 237.008 30.465 238.834 30.465C240.634 30.465 242.05 30.9678 243.083 31.9736C244.115 32.9529 244.631 34.2763 244.631 35.9438C244.631 37.6642 244.115 39.014 243.083 39.9933C242.05 40.9462 240.634 41.4226 238.834 41.4226ZM234.15 87V48.3307H243.519V87H234.15ZM266.08 88.1116C263.803 88.1116 261.712 87.6882 259.807 86.8412C257.928 85.9942 256.419 84.6973 255.281 82.9504C254.169 81.2036 253.613 78.9803 253.613 76.2806V38.2465H262.983V75.963C262.983 79.1391 264.492 80.7272 267.509 80.7272C268.435 80.7272 269.362 80.6213 270.288 80.4095C271.214 80.1978 272.273 79.8802 273.464 79.4567L274.814 86.0472C273.332 86.6295 271.889 87.1191 270.487 87.5161C269.084 87.9131 267.615 88.1116 266.08 88.1116ZM248.214 54.6829V48.4895H273.464V54.6829H248.214Z" fill="url(#paint0_linear_59_5045)"/>
<g style="mix-blend-mode:multiply" opacity="0.9">
<path d="M54.8689 56.5873C54.8689 55.6634 55.3879 54.8179 56.2117 54.3997L83.4362 40.5797C85.0682 39.7512 87 40.937 87 42.7673V77.1832C87 78.1071 86.481 78.9526 85.6572 79.3708L58.4328 93.1909C56.8007 94.0194 54.8689 92.8336 54.8689 91.0032V56.5873Z" fill="url(#paint1_linear_59_5045)"/>
</g>
<g style="mix-blend-mode:multiply" opacity="0.9">
<path d="M87 42.7502C87 41.8263 86.481 40.9808 85.6572 40.5626L58.5639 26.8091C56.9318 25.9807 55 27.1665 55 28.9968V63.2498C55 64.1736 55.519 65.0192 56.3428 65.4374L83.4361 79.1909C85.0682 80.0193 87 78.8335 87 77.0032V42.7502Z" fill="url(#paint2_linear_59_5045)"/>
</g>
<g style="mix-blend-mode:multiply" opacity="0.9">
<path d="M49.1311 56.5873C49.1311 55.6634 48.6121 54.8179 47.7883 54.3997L20.5638 40.5797C18.9318 39.7512 17 40.937 17 42.7673V77.1832C17 78.1071 17.519 78.9526 18.3428 79.3708L45.5672 93.1909C47.1993 94.0194 49.1311 92.8336 49.1311 91.0032V56.5873Z" fill="url(#paint3_linear_59_5045)"/>
</g>
<g style="mix-blend-mode:multiply" opacity="0.9">
<path d="M17 42.7502C17 41.8263 17.519 40.9808 18.3428 40.5626L45.4361 26.8091C47.0682 25.9807 49 27.1665 49 28.9968V63.2498C49 64.1736 48.481 65.0192 47.6572 65.4374L20.5639 79.1909C18.9318 80.0193 17 78.8335 17 77.0032V42.7502Z" fill="url(#paint4_linear_59_5045)"/>
</g>
<defs>
<linearGradient id="paint0_linear_59_5045" x1="187" y1="14" x2="254.75" y2="85.8205" gradientUnits="userSpaceOnUse">
<stop stop-color="#2CD59F"/>
<stop offset="0.15625" stop-color="#1DCF96"/>
<stop offset="0.428976" stop-color="#53A9DA"/>
<stop offset="0.838542" stop-color="#5D5FEF"/>
<stop offset="0.958333" stop-color="#7879F1"/>
</linearGradient>
<linearGradient id="paint1_linear_59_5045" x1="54.8689" y1="95" x2="86.9263" y2="44.4282" gradientUnits="userSpaceOnUse">
<stop stop-color="#2CD59F"/>
<stop offset="0.15625" stop-color="#1DCF96"/>
<stop offset="0.432292" stop-color="#53A9DA"/>
<stop offset="0.838542" stop-color="#5D5FEF"/>
<stop offset="0.958333" stop-color="#7879F1"/>
</linearGradient>
<linearGradient id="paint2_linear_59_5045" x1="87" y1="78.971" x2="63.8161" y2="26.766" gradientUnits="userSpaceOnUse">
<stop stop-color="#2CD59F"/>
<stop offset="0.15625" stop-color="#1DCF96"/>
<stop offset="0.432292" stop-color="#53A9DA"/>
<stop offset="0.838542" stop-color="#5D5FEF"/>
<stop offset="0.958333" stop-color="#7879F1"/>
</linearGradient>
<linearGradient id="paint3_linear_59_5045" x1="49.1311" y1="95" x2="17.0737" y2="44.4282" gradientUnits="userSpaceOnUse">
<stop stop-color="#2CD59F"/>
<stop offset="0.15625" stop-color="#1DCF96"/>
<stop offset="0.432292" stop-color="#53A9DA"/>
<stop offset="0.838542" stop-color="#5D5FEF"/>
<stop offset="0.958333" stop-color="#7879F1"/>
</linearGradient>
<linearGradient id="paint4_linear_59_5045" x1="17" y1="78.971" x2="40.1839" y2="26.766" gradientUnits="userSpaceOnUse">
<stop stop-color="#2CD59F"/>
<stop offset="0.15625" stop-color="#1DCF96"/>
<stop offset="0.432292" stop-color="#53A9DA"/>
<stop offset="0.838542" stop-color="#5D5FEF"/>
<stop offset="0.958333" stop-color="#7879F1"/>
</linearGradient>
</defs>
</svg>
