<svg width="1700" height="1700" viewBox="0 0 1700 1700" fill="none" xmlns="http://www.w3.org/2000/svg">
<g clip-path="url(#clip0_706_670)">
<path d="M1139.37 1274.39H1358.81C1354.55 1247.56 1337.52 1252.29 1335.09 1210.51C1333.94 1189.56 1353.32 1163.67 1351.61 1136.12C1350.25 1113.47 1327.89 1090.22 1326.06 1064.28C1324.53 1040.9 1343.56 1014.93 1341.73 989.718C1339.99 965.871 1317.33 942.876 1315.33 918.22C1313.33 893.564 1332.07 867.8 1329.85 843.357C1327.64 818.914 1304.6 796.515 1302.13 772.37C1299.62 747.586 1317.72 720.929 1314.91 697.252C1311.97 672.085 1288.21 650.41 1285.1 627.16C1281.48 601.354 1298.3 573.76 1294.38 551.488C1289.57 524.192 1264.15 504.433 1258.78 484.291C1248.82 446.775 1250.26 410.579 1238.3 408.236C1225.73 405.724 1222.88 441.154 1213.39 480.629C1208.57 500.558 1183.58 520.743 1179.66 548.039C1176.34 570.182 1193.92 597.053 1191.03 622.773C1188.47 645.811 1165.48 667.912 1163.05 692.951C1160.96 716.5 1179.74 742.434 1177.87 767.047C1176.08 790.979 1153.64 813.889 1152.06 838.077C1150.49 862.265 1169.91 887.815 1168.59 911.832C1167.27 935.849 1145.17 959.611 1144.06 983.288C1142.87 1008.28 1162.58 1033.54 1161.65 1056.74C1160.58 1082.29 1138.82 1106.06 1138.01 1128.54C1137.03 1155.84 1157.09 1181 1156.49 1201.78C1155.13 1246.88 1134.48 1237.56 1133.75 1273.84L1139.37 1274.39Z" fill="#92E3A9"/>
<path d="M1233.57 480.544V1264.26" stroke="#263238" stroke-width="0.0665371" stroke-miterlimit="10"/>
<path d="M1267.85 562.688L1232.12 593.561L1202.87 554.554" stroke="#263238" stroke-width="0.0665371" stroke-miterlimit="10"/>
<path d="M1267.85 699.126L1232.12 729.957L1202.87 690.993" stroke="#263238" stroke-width="0.0665371" stroke-miterlimit="10"/>
<path d="M1267.85 827.388L1232.12 858.262L1202.87 819.297" stroke="#263238" stroke-width="0.0665371" stroke-miterlimit="10"/>
<path d="M1267.85 980.051L1232.12 1010.92L1202.87 971.96" stroke="#263238" stroke-width="0.0665371" stroke-miterlimit="10"/>
<path d="M1267.85 1134.33L1232.12 1165.21L1202.87 1126.24" stroke="#263238" stroke-width="0.0665371" stroke-miterlimit="10"/>
<path d="M908.571 1274.39H1098.88C1095.22 1251.14 1080.27 1255.23 1078.27 1219.03C1077.29 1200.85 1094.11 1178.36 1092.66 1154.52C1091.43 1134.89 1072.05 1114.7 1070.56 1092.22C1069.2 1071.95 1085.76 1049.42 1084.14 1027.53C1082.61 1006.88 1062.85 987.035 1061.23 965.573C1059.62 944.11 1075.76 921.839 1074.01 900.632C1072.26 879.426 1052.08 859.965 1049.99 839.099C1047.78 817.594 1063.45 794.471 1061.06 773.946C1058.51 752.1 1037.94 733.278 1035.13 713.179C1032.02 690.78 1046.63 666.848 1043.22 647.557C1038.96 623.881 1016.99 606.719 1012.35 589.26C1003.83 556.726 1004.81 525.384 994.591 523.34C983.689 521.126 981.219 551.871 972.958 586.279C968.7 603.313 947.408 621.027 943.746 644.704C940.85 663.909 956.095 687.288 953.583 709.517C951.368 729.488 931.311 748.651 929.352 770.369C927.521 790.766 943.788 813.293 942.127 834.628C940.467 855.962 921.134 875.167 919.771 896.204C918.408 917.24 935.229 939.341 934.079 960.079C932.929 980.818 913.767 1001.51 912.787 1022.04C911.765 1043.76 928.884 1065.64 928.032 1085.91C927.138 1108.23 908.273 1128.5 907.592 1148.17C906.74 1171.85 924.115 1193.69 923.604 1211.71C922.411 1250.8 904.526 1242.71 903.887 1274.18L908.571 1274.39Z" fill="#92E3A9"/>
<path d="M990.162 585.981V1265.62" stroke="#263238" stroke-width="0.0665371" stroke-miterlimit="10"/>
<path d="M1019.89 657.224L988.927 684.009L963.547 650.197" stroke="#263238" stroke-width="0.0665371" stroke-miterlimit="10"/>
<path d="M1019.89 775.521L988.927 802.307L963.547 768.495" stroke="#263238" stroke-width="0.0665371" stroke-miterlimit="10"/>
<path d="M1019.89 886.793L988.927 913.535L963.547 879.766" stroke="#263238" stroke-width="0.0665371" stroke-miterlimit="10"/>
<path d="M1019.89 1019.19L988.927 1045.93L963.547 1012.12" stroke="#263238" stroke-width="0.0665371" stroke-miterlimit="10"/>
<path d="M1019.89 1152.94L988.927 1179.73L963.547 1145.92" stroke="#263238" stroke-width="0.0665371" stroke-miterlimit="10"/>
<path d="M238.643 1274.39H503.344C498.276 1242.03 477.453 1247.73 474.685 1197.74C473.322 1172.44 496.701 1141.19 494.657 1108.02C492.996 1080.68 466.04 1052.66 463.954 1021.36C462.08 993.124 485.246 961.74 482.861 931.378C480.732 902.634 453.393 875.04 451.008 845.146C448.624 816.019 471.15 784.379 468.51 754.868C465.87 725.358 438.02 698.317 435.082 669.275C432.059 639.466 453.861 607.23 450.54 578.614C446.963 548.294 418.347 522.063 414.471 494.085C410.213 462.957 430.44 429.699 425.671 402.828C419.88 369.911 389.219 346.064 382.747 321.919C370.738 276.653 372.228 233.004 358.048 230.151C342.888 227.128 339.439 269.924 327.984 317.703C322.192 341.721 292.213 366.078 287.316 398.996C283.313 425.696 304.35 458.145 301.028 489.146C297.92 516.91 270.027 543.61 267.302 573.802C264.747 602.163 287.402 633.419 285.187 663.228C283.015 692.057 255.932 719.566 254.058 748.864C252.185 778.162 275.35 808.907 273.945 837.821C272.284 867.63 245.712 895.48 244.349 924.011C242.901 954.203 266.706 984.65 265.641 1012.63C264.364 1043.67 238.132 1072.25 237.153 1099.2C236.003 1132.12 260.19 1162.52 259.424 1187.56C257.806 1241.98 232.894 1230.7 232 1274.48L238.643 1274.39Z" fill="#92E3A9"/>
<path d="M352.257 316.852V1262.17" stroke="#263238" stroke-width="0.0665371" stroke-miterlimit="10"/>
<path d="M393.605 415.987L350.51 453.205L315.251 406.192" stroke="#263238" stroke-width="0.0665371" stroke-miterlimit="10"/>
<path d="M393.605 580.488L350.51 617.706L315.251 570.736" stroke="#263238" stroke-width="0.0665371" stroke-miterlimit="10"/>
<path d="M393.605 735.237L350.51 772.455L315.251 725.443" stroke="#263238" stroke-width="0.0665371" stroke-miterlimit="10"/>
<path d="M393.605 919.369L350.51 956.588L315.251 909.575" stroke="#263238" stroke-width="0.0665371" stroke-miterlimit="10"/>
<path d="M393.605 1105.46L350.51 1142.68L315.251 1095.67" stroke="#263238" stroke-width="0.0665371" stroke-miterlimit="10"/>
<path d="M15.062 1398.07C15.062 1398.07 -2.00817 1410.49 1.81833 1416.01C5.64482 1421.53 28.6783 1435.19 35.8095 1443.34C42.9407 1451.49 58.1722 1459.77 73.0806 1462.5C87.989 1465.23 105.954 1467.47 104.86 1457.03C103.767 1446.6 85.6782 1443.34 80.7585 1437.3C75.8387 1431.27 68.5336 1415.39 68.5336 1415.39L23.2119 1388.53L15.062 1398.07Z" fill="white" stroke="#263238" stroke-width="2" stroke-miterlimit="10" stroke-linecap="round"/>
<path d="M204.647 1096.05C204.647 1096.05 195.479 1244.46 191.478 1264.52C187.478 1284.57 68.6327 1415.46 68.6327 1415.46C68.6327 1415.46 44.5804 1416.78 36.5547 1412.78C29.055 1408.44 21.9024 1403.52 15.1611 1398.07C15.1611 1398.07 32.5543 1374.02 37.8965 1370.02C43.2387 1366.02 56.6066 1359.33 60.607 1356.65C64.6074 1353.97 91.3432 1300.52 91.3432 1300.52L105.481 1104.99L204.647 1096.05Z" fill="#263238" stroke="#263238" stroke-width="2" stroke-miterlimit="10" stroke-linecap="round"/>
<path d="M160.295 1418.44L172.346 1438.72C173.986 1441.45 205.766 1456.78 205.766 1460.09C205.766 1463.39 201.392 1468.31 198.659 1469.41C195.926 1470.5 156.419 1471.05 144.393 1469.41C132.366 1467.77 123.57 1463.37 114.799 1461.18C106.028 1459 99.8908 1461.73 99.4436 1451.86C98.9963 1442 103.618 1422.79 103.618 1422.79C103.618 1422.79 108.215 1423.36 123.496 1418.44C138.777 1413.52 160.295 1418.44 160.295 1418.44Z" fill="white" stroke="#263238" stroke-width="2" stroke-miterlimit="10" stroke-linecap="round"/>
<path d="M73.1055 1106.68C73.1055 1106.68 86.2249 1266.43 92.9834 1278.48C99.7419 1290.53 107.693 1402.72 107.693 1402.72C107.693 1402.72 94.9711 1415.14 101.655 1421.77C108.339 1428.41 102.177 1430.3 102.177 1430.3C102.177 1430.3 122.403 1425.45 129.087 1422.84C135.771 1420.23 162.382 1420.85 162.382 1420.85C162.382 1420.85 170.507 1405.47 171.849 1394.79C173.191 1384.11 165.165 1349.34 165.165 1345.34C165.165 1341.34 170.507 1156.85 170.507 1156.85L203.206 1117.1L73.1055 1106.68Z" fill="#263238" stroke="#263238" stroke-width="2" stroke-miterlimit="10" stroke-linecap="round"/>
<path d="M147.647 815.747L146.057 830.009C131.218 833.059 116.077 834.385 100.934 833.96C76.3601 833.165 73.1299 843.899 73.1299 843.899C73.1299 843.899 1.8428 945.35 5.02326 953.227C8.20373 961.104 34.3432 968.682 34.3432 968.682L77.9503 930.641L73.1796 1106.63C73.1796 1106.63 86.6718 1123.28 126.303 1124.87C165.935 1126.46 198.361 1120.13 203.206 1116.95C208.051 1113.77 215.903 963.141 215.903 963.141L243.881 962.843C243.881 962.843 238.912 894.96 235.706 876.722C232.501 858.484 221.444 849.787 203.206 843.426C184.968 837.066 178.632 829.959 178.632 829.959L163.574 810.081C157.749 809.946 152.078 811.963 147.647 815.747V815.747Z" fill="white" stroke="#263238" stroke-width="2" stroke-miterlimit="10" stroke-linecap="round"/>
<path d="M126.229 1124.92C165.985 1126.51 198.287 1120.18 203.132 1117C207.977 1113.82 215.829 963.191 215.829 963.191L251.51 965.079C251.51 965.079 238.813 895.01 235.632 876.772C232.452 858.534 221.37 849.837 203.132 843.476C184.894 837.115 178.558 830.009 178.558 830.009L163.5 810.131C157.713 809.986 152.074 811.966 147.648 815.697L146.057 829.959C131.221 833.026 116.079 834.369 100.934 833.96C76.3604 833.165 73.1302 843.899 73.1302 843.899C73.1302 843.899 37.2755 879.381 21.4229 909.396L62.3465 944.332L77.9755 930.691L73.2048 1106.68C73.2048 1106.68 86.5975 1123.38 126.229 1124.92Z" fill="#A3A3A3" stroke="#263238" stroke-width="2" stroke-miterlimit="10" stroke-linecap="round"/>
<path d="M223.655 1067.72C244.105 1047.3 247.235 1015.32 247.235 1015.32L243.757 964.93L215.828 963.191L214.039 1008.51C210.28 1017.38 208.532 1026.97 208.921 1036.59C209.416 1043.24 208.998 1049.93 207.678 1056.47H207.48C207.48 1056.47 199.802 1071.62 199.081 1074.26C198.361 1076.89 212.524 1082.91 216.474 1083.87C220.425 1084.84 225.867 1084.84 226.09 1081.39C226.314 1077.94 230.041 1077.22 226.811 1073.94C225.894 1073.17 225.142 1072.22 224.6 1071.15C224.057 1070.08 223.736 1068.92 223.655 1067.72V1067.72Z" fill="white" stroke="#263238" stroke-width="2" stroke-miterlimit="10" stroke-linecap="round"/>
<path d="M217.369 1006.3C217.369 1006.3 231.93 999.99 241.769 1008.26" stroke="#263238" stroke-width="2" stroke-miterlimit="10" stroke-linecap="round"/>
<path d="M223.656 1067.72C222.47 1066.64 221.021 1065.88 219.451 1065.53C217.882 1065.17 216.248 1065.24 214.711 1065.71" stroke="#263238" stroke-width="2" stroke-miterlimit="10" stroke-linecap="round"/>
<path d="M207.331 1051.65C213.891 1047.92 225.147 1049.78 229.892 1054.46C233.145 1058.02 234.949 1062.67 234.949 1067.5C234.949 1072.33 233.145 1076.98 229.892 1080.55C224.923 1085.81 217.767 1087.7 211.232 1083.65C204.697 1079.6 200.374 1078.68 200.051 1072.15C199.795 1066.51 200.903 1060.89 203.281 1055.77C204.171 1054.01 205.586 1052.57 207.331 1051.65V1051.65Z" fill="#92E3A9" stroke="#263238" stroke-width="2" stroke-miterlimit="10" stroke-linecap="round"/>
<path d="M104.488 901.545L77.876 930.691L104.488 917.919" stroke="#263238" stroke-width="2" stroke-miterlimit="10" stroke-linecap="round"/>
<path d="M214.884 954.867L215.828 906.763" stroke="#263238" stroke-width="2" stroke-miterlimit="10" stroke-linecap="round"/>
<path d="M214.959 914.043C214.959 919.733 208.747 924.33 201.069 924.33C193.392 924.33 187.205 919.733 187.205 914.043C187.205 908.353 193.416 903.756 201.069 903.756C208.722 903.756 214.959 908.378 214.959 914.043Z" fill="#92E3A9" stroke="#263238" stroke-width="2" stroke-miterlimit="10" stroke-linecap="round"/>
<path d="M208.201 914.043C208.201 916.95 204.996 919.31 201.07 919.31C197.144 919.31 193.963 916.826 193.963 914.043C193.963 911.26 197.144 908.775 201.07 908.775C204.996 908.775 208.201 911.136 208.201 914.043Z" fill="white" stroke="#263238" stroke-width="2" stroke-miterlimit="10" stroke-linecap="round"/>
<path d="M386.927 1268.49L392.369 1275.6" stroke="#263238" stroke-width="2" stroke-miterlimit="10" stroke-linecap="round"/>
<path d="M329.68 1194L380.443 1260.07" stroke="#263238" stroke-width="2" stroke-miterlimit="10" stroke-linecap="round"/>
<path d="M342.55 1190.57L375.2 1196.58" stroke="#263238" stroke-width="2" stroke-miterlimit="10" stroke-linecap="round"/>
<path d="M406.283 1238.4L414.706 1243.82" stroke="#263238" stroke-width="2" stroke-miterlimit="10" stroke-linecap="round"/>
<path d="M354.576 1205.18L401.886 1235.59" stroke="#263238" stroke-width="2" stroke-miterlimit="10" stroke-linecap="round"/>
<path d="M306.298 1168.73L319.865 1181.97" stroke="#263238" stroke-width="2" stroke-miterlimit="10" stroke-linecap="round"/>
<path d="M29.5236 939.511L92.9341 988.659C92.9341 988.659 104.836 991.84 108.787 995.791C112.738 999.741 128.665 1012.44 123.844 1017.21C119.024 1021.98 124.639 1020.36 119.098 1021.95C113.557 1023.55 109.582 1024.44 109.582 1024.44C109.582 1024.44 96.1146 1029.98 88.1883 1029.19C80.262 1028.39 67.565 1010.18 67.565 1006.2C67.565 1002.23 2.5642 965.775 0.17885 961.004C-2.2065 956.234 20.0568 925.348 20.0568 925.348" fill="white"/>
<path d="M29.5236 939.511L92.9341 988.659C92.9341 988.659 104.836 991.84 108.787 995.791C112.738 999.741 128.665 1012.44 123.844 1017.21C119.024 1021.98 124.639 1020.36 119.098 1021.95C113.557 1023.55 109.582 1024.44 109.582 1024.44C109.582 1024.44 96.1146 1029.98 88.1883 1029.19C80.262 1028.39 67.565 1010.18 67.565 1006.2C67.565 1002.23 2.5642 965.775 0.17885 961.004C-2.2065 956.234 20.0568 925.348 20.0568 925.348" stroke="#263238" stroke-width="2" stroke-miterlimit="10" stroke-linecap="round"/>
<path d="M71.1173 963.613L43.5864 994.673L67.5642 1006C67.5642 1006 72.5336 1018.68 78.1988 1025.04C83.8641 1031.4 83.8392 1033.51 89.4795 1033.51C95.1199 1033.51 114.327 1027.15 114.327 1027.15C114.327 1027.15 115.768 1028.51 124.266 1022.92C132.764 1017.33 128.515 1013.73 124.986 1008.02C121.458 1002.3 103.792 989.653 98.8718 986.125C93.9521 982.597 91.7904 980.485 89.6783 979.068C87.5663 977.652 71.1173 963.613 71.1173 963.613Z" fill="#92E3A9" stroke="#263238" stroke-width="2" stroke-miterlimit="10" stroke-linecap="round"/>
<path d="M203.132 843.476C184.894 837.14 178.558 830.009 178.558 830.009L163.5 810.131C157.713 809.986 152.074 811.966 147.647 815.697L146.057 829.959C146.057 829.959 144.368 830.332 141.485 830.854C145.188 838.78 159.202 870.61 180.148 871.181C195.056 871.653 204.399 857.267 209.468 845.862C207.455 845.091 205.293 844.247 203.132 843.476Z" fill="white" stroke="#263238" stroke-width="2" stroke-miterlimit="10" stroke-linecap="round"/>
<path d="M221.369 810.976L214.238 832.394L205.517 829.91C205.517 829.91 203.032 848.943 198.386 851.303C193.739 853.664 188.869 854.484 179.352 847.352C169.836 840.221 160.319 831.5 160.319 823.573C160.319 815.647 165.09 786.302 169.836 779.966C174.582 773.63 221.369 810.976 221.369 810.976Z" fill="white" stroke="#263238" stroke-width="2" stroke-miterlimit="10" stroke-linecap="round"/>
<path d="M205.095 813.784C204.697 816.119 203.331 817.859 202.014 817.635C200.697 817.411 199.952 815.324 200.349 812.988C200.747 810.653 202.113 808.889 203.43 809.112C204.747 809.336 205.493 811.423 205.095 813.784Z" fill="#263238"/>
<path d="M188.074 788.787C188.074 788.787 184.894 798.304 176.172 799.099C167.451 799.894 161.91 787.992 161.91 787.992L160.32 823.673L147.647 815.747C147.647 815.747 150.008 785.607 153.188 776.885C156.369 768.164 169.041 764.213 169.041 764.213C169.041 764.213 182.533 779.271 188.074 788.787Z" fill="#263238" stroke="#263238" stroke-width="2" stroke-miterlimit="10" stroke-linecap="round"/>
<path d="M163.5 810.305C150.008 807.82 153.188 790.427 161.91 788.116C170.631 785.805 167.451 799.993 167.451 799.993" fill="white"/>
<path d="M163.5 810.305C150.008 807.82 153.188 790.427 161.91 788.116C170.631 785.805 167.451 799.993 167.451 799.993" stroke="#263238" stroke-width="2" stroke-miterlimit="10" stroke-linecap="round"/>
<path d="M153.114 776.885L193.541 798.304C200.315 801.229 207.584 802.84 214.96 803.05C220.854 803.173 226.729 802.334 232.353 800.565L237.869 776.711C238.362 774.555 238.396 772.318 237.968 770.148C237.54 767.977 236.66 765.921 235.384 764.114C229.752 755.895 222.859 748.617 214.96 742.546C199.902 731.464 177.018 739.241 164.345 746.373C151.673 753.504 153.114 776.885 153.114 776.885Z" fill="#92E3A9" stroke="#263238" stroke-width="2" stroke-miterlimit="10" stroke-linecap="round"/>
<path d="M232.228 780.041C231.21 785.632 224.277 789.036 216.748 787.669C209.22 786.302 203.927 780.637 204.946 775.047C205.965 769.456 212.897 766.052 220.426 767.418C227.955 768.785 233.247 774.45 232.228 780.041Z" fill="#92E3A9" stroke="#263238" stroke-width="2" stroke-miterlimit="10" stroke-linecap="round"/>
<path d="M225.569 778.823C225.047 781.681 221.494 783.445 217.642 782.724C213.791 782.004 211.058 779.146 211.58 776.264C212.101 773.382 215.654 771.642 219.531 772.363C223.407 773.084 226.115 775.966 225.569 778.823Z" fill="white" stroke="#263238" stroke-width="2" stroke-miterlimit="10" stroke-linecap="round"/>
<path d="M187.279 795.918C196.662 793.948 206.247 793.114 215.829 793.434C230.091 794.229 242.739 806.901 242.739 806.901C242.739 806.901 255.162 819.474 254.318 821.809C253.473 824.145 235.632 820.368 223.755 819.573C211.878 818.778 187.279 795.918 187.279 795.918Z" fill="#92E3A9" stroke="#263238" stroke-width="2" stroke-miterlimit="10" stroke-linecap="round"/>
<path d="M190.062 826.431C190.825 828.92 192.269 831.145 194.233 832.853C196.196 834.562 198.599 835.685 201.169 836.097" stroke="#263238" stroke-width="2" stroke-miterlimit="10" stroke-linecap="round"/>
<path d="M186.484 852.521L184.745 866.361L198.386 851.403L186.484 852.521Z" fill="#263238"/>
<path d="M201.616 1070.11C201.616 1070.11 194.162 1081.51 198.46 1085.46C201.392 1088.15 210.884 1092.92 216.698 1095.55C218.047 1096.19 219.568 1096.36 221.024 1096.04C222.48 1095.72 223.789 1094.93 224.749 1093.79C226.746 1091.69 228.375 1089.27 229.569 1086.63C230.364 1083.48 222.861 1076.4 222.861 1076.4L219.73 1077.59C219.73 1077.59 207.902 1065.36 205.542 1065.76C203.181 1066.16 201.616 1070.11 201.616 1070.11Z" fill="#92E3A9" stroke="#263238" stroke-width="2" stroke-miterlimit="10" stroke-linecap="round"/>
<path d="M223.481 1070.61C223.481 1070.61 218.214 1076.87 220.326 1078.53C222.438 1080.2 229.196 1087.1 230.464 1085.84C231.731 1084.57 236.178 1082.36 233.644 1079.18C231.11 1076 226.985 1070.31 223.481 1070.61Z" fill="#92E3A9" stroke="#263238" stroke-width="2" stroke-miterlimit="10" stroke-linecap="round"/>
<path d="M1333.01 1274.38H1295L1294.5 1275.16C1291.24 1274.67 1287.95 1274.41 1284.66 1274.38C1238.38 1274.38 1200.83 1322.68 1200.83 1382.23C1200.83 1441.78 1238.38 1489.89 1284.66 1489.89C1288 1489.89 1315.49 1489.57 1318.69 1489.12L1295 1489.89H1333.01C1379.29 1489.89 1416.8 1441.6 1416.8 1382.05C1416.8 1322.5 1379.29 1274.38 1333.01 1274.38Z" fill="#263238" stroke="#263238" stroke-width="5" stroke-linecap="round" stroke-linejoin="round"/>
<path d="M555.248 1274.38H517.287L516.738 1275.16C513.482 1274.67 510.196 1274.41 506.904 1274.38C460.618 1274.38 423.068 1322.68 423.068 1382.23C423.068 1441.78 460.618 1489.89 506.904 1489.89C510.196 1489.87 513.482 1489.61 516.738 1489.12L517.287 1489.89H555.248C601.534 1489.89 639.085 1441.6 639.085 1382.05C639.085 1322.5 601.534 1274.38 555.248 1274.38Z" fill="#263238" stroke="#263238" stroke-width="5" stroke-linecap="round" stroke-linejoin="round"/>
<path d="M1694.33 1277.54H1676.03L1659.75 1163.19C1658.78 1156.45 1655.42 1150.28 1650.27 1145.82C1645.12 1141.36 1638.53 1138.91 1631.72 1138.91H1529.68L1363.83 962.958C1354.96 953.521 1344.24 946.003 1332.35 940.866C1320.45 935.729 1307.63 933.083 1294.68 933.092H855.1C845.621 933.104 836.243 935.03 827.527 938.756C818.811 942.481 810.937 947.928 804.378 954.771L49.3501 1273.38V1407.98H1181.16L1465.28 1405.92L1675.9 1392.2V1391.24H1693.41C1694.32 1391.25 1695.22 1391.07 1696.06 1390.73C1696.91 1390.38 1697.67 1389.87 1698.31 1389.23C1698.95 1388.59 1699.46 1387.82 1699.81 1386.98C1700.15 1386.14 1700.33 1385.24 1700.32 1384.33V1283.71C1700.34 1282.91 1700.2 1282.12 1699.91 1281.37C1699.61 1280.62 1699.18 1279.94 1698.62 1279.37C1698.06 1278.8 1697.39 1278.34 1696.66 1278.02C1695.92 1277.71 1695.13 1277.54 1694.33 1277.54V1277.54Z" fill="#92E3A9" stroke="#263238" stroke-width="5" stroke-linecap="round" stroke-linejoin="round"/>
<path d="M1372.75 1387.26V1406.61L1465.46 1405.92L1676.08 1392.2V1391.24H1693.41C1694.7 1391.24 1695.96 1390.88 1697.04 1390.19C1698.13 1389.5 1699 1388.52 1699.54 1387.35L1372.75 1387.26Z" fill="#263238" stroke="#263238" stroke-width="5" stroke-linecap="round" stroke-linejoin="round"/>
<path d="M1465.46 1405.92C1467.14 1405.68 1468.68 1404.82 1469.77 1403.52C1470.86 1402.22 1471.43 1400.56 1471.38 1398.86C1471.32 1397.16 1470.64 1395.54 1469.46 1394.31C1468.29 1393.08 1466.7 1392.33 1465 1392.2H1358.48L964.503 933H855.1C845.615 933.024 836.232 934.965 827.516 938.706C818.8 942.447 810.929 947.912 804.378 954.771L49.3501 1273.38V1407.98H1181.16L1465.46 1405.92Z" fill="#263238" stroke="#263238" stroke-width="5" stroke-linecap="round" stroke-linejoin="round"/>
<path d="M225.758 1274.38H187.75L162.869 1310.97C149.191 1332.24 141.918 1356.99 141.918 1382.28C141.918 1407.56 149.191 1432.31 162.869 1453.58L187.75 1490.17H225.758C272.043 1490.17 309.548 1441.87 309.548 1382.32C309.548 1322.77 272.043 1274.38 225.758 1274.38Z" fill="#263238" stroke="#263238" stroke-width="5" stroke-linecap="round" stroke-linejoin="round"/>
<path d="M177.414 1490.08C223.716 1490.08 261.25 1441.79 261.25 1382.23C261.25 1322.67 223.716 1274.38 177.414 1274.38C131.113 1274.38 93.5781 1322.67 93.5781 1382.23C93.5781 1441.79 131.113 1490.08 177.414 1490.08Z" fill="#636363" stroke="#263238" stroke-width="5" stroke-linecap="round" stroke-linejoin="round"/>
<path d="M177.414 1468.26C214.344 1468.26 244.282 1429.74 244.282 1382.23C244.282 1334.72 214.344 1296.2 177.414 1296.2C140.484 1296.2 110.546 1334.72 110.546 1382.23C110.546 1429.74 140.484 1468.26 177.414 1468.26Z" fill="white" stroke="#263238" stroke-width="5" stroke-linecap="round" stroke-linejoin="round"/>
<path d="M191.547 1382.23C191.547 1392.29 185.189 1400.52 177.414 1400.52C169.639 1400.52 163.281 1392.43 163.281 1382.23C163.281 1372.03 169.593 1363.93 177.414 1363.93C185.235 1363.93 191.547 1372.21 191.547 1382.23Z" fill="white" stroke="#263238" stroke-width="5" stroke-linecap="round" stroke-linejoin="round"/>
<path d="M1071.76 1274.38H1033.79L1008.91 1310.97C995.209 1332.23 987.92 1356.98 987.92 1382.28C987.92 1407.57 995.209 1432.32 1008.91 1453.58L1033.79 1490.17H1071.76C1118.04 1490.17 1155.59 1441.87 1155.59 1382.32C1155.59 1322.77 1118.04 1274.38 1071.76 1274.38Z" fill="#263238" stroke="#263238" stroke-width="5" stroke-linecap="round" stroke-linejoin="round"/>
<path d="M1023.46 1490.08C1069.76 1490.08 1107.29 1441.79 1107.29 1382.23C1107.29 1322.67 1069.76 1274.38 1023.46 1274.38C977.157 1274.38 939.623 1322.67 939.623 1382.23C939.623 1441.79 977.157 1490.08 1023.46 1490.08Z" fill="#636363" stroke="#263238" stroke-width="5" stroke-linecap="round" stroke-linejoin="round"/>
<path d="M1023.46 1468.26C1060.39 1468.26 1090.33 1429.74 1090.33 1382.23C1090.33 1334.72 1060.39 1296.2 1023.46 1296.2C986.528 1296.2 956.591 1334.72 956.591 1382.23C956.591 1429.74 986.528 1468.26 1023.46 1468.26Z" fill="white" stroke="#263238" stroke-width="5" stroke-linecap="round" stroke-linejoin="round"/>
<path d="M1037.55 1382.23C1037.55 1392.29 1031.23 1400.52 1023.46 1400.52C1015.68 1400.52 1009.33 1392.43 1009.33 1382.23C1009.33 1372.03 1015.64 1363.93 1023.46 1363.93C1031.28 1363.93 1037.55 1372.21 1037.55 1382.23Z" fill="white" stroke="#263238" stroke-width="5" stroke-linecap="round" stroke-linejoin="round"/>
<path d="M1363.83 962.866C1362.46 961.403 1361 960.076 1359.53 958.704H1017.1V1127.93H1519.61L1363.83 962.866Z" fill="#263238" stroke="#263238" stroke-width="5" stroke-linecap="round" stroke-linejoin="round"/>
<path d="M1403.17 1277.54H1383.23L1363.42 1138.82H1236.78L1070.93 962.866C1062.06 953.435 1051.35 945.92 1039.47 940.783C1027.58 935.647 1014.77 932.998 1001.82 933H598.287C588.801 933.019 579.416 934.957 570.699 938.699C561.982 942.44 554.113 947.907 547.564 954.771L289.79 1127.06L51.4542 1229.83L14.1785 1280.14C4.97061 1292.47 -0.00332639 1307.44 1.66902e-06 1322.82V1408.16H75.2375V1379.71C75.2375 1310.15 125.777 1253.8 188.162 1253.8C243.779 1253.8 278.31 1298.85 286.954 1360.05L293.861 1407.98H922.105V1379.53C922.105 1309.97 950.645 1253.62 1027.3 1253.62C1095.63 1253.62 1120.06 1298.67 1130.71 1359.86L1138.76 1405.92L1383.18 1392.2V1391.24H1403.12L1403.17 1277.54Z" fill="#92E3A9" stroke="#263238" stroke-width="5" stroke-linecap="round" stroke-linejoin="round"/>
<path d="M549.714 980.018L328.392 1126.93H742.084V960.717H595.725C587.155 960.691 578.666 962.386 570.762 965.701C562.859 969.017 555.701 973.885 549.714 980.018V980.018Z" fill="#263238" stroke="#263238" stroke-width="5" stroke-linecap="round" stroke-linejoin="round"/>
<path d="M501.644 1126.93L632.818 960.717H595.725C587.201 960.727 578.764 962.44 570.91 965.754C563.056 969.069 555.943 973.918 549.988 980.018L472.235 1031.43L396.86 1126.93H501.644Z" fill="white" stroke="#263238" stroke-width="5" stroke-linecap="round" stroke-linejoin="round"/>
<path d="M741.992 1126.93V1007.55L647.82 1126.93H741.992Z" fill="white" stroke="#263238" stroke-width="5" stroke-linecap="round" stroke-linejoin="round"/>
<path d="M1057.17 987.793L1151.25 1083.84C1154.36 1087.07 1156.59 1091.06 1157.7 1095.41V1095.41C1158.63 1099.14 1158.7 1103.02 1157.9 1106.78C1157.11 1110.54 1155.46 1114.06 1153.1 1117.09C1150.74 1120.11 1147.71 1122.56 1144.26 1124.24C1140.81 1125.92 1137.02 1126.79 1133.18 1126.79H769.526V960.717H992.632C1004.65 960.69 1016.56 963.072 1027.64 967.722C1038.72 972.373 1048.76 979.197 1057.17 987.793Z" fill="#263238" stroke="#263238" stroke-width="5" stroke-linecap="round" stroke-linejoin="round"/>
<path d="M969.031 960.717H932.487L801.313 1126.93H837.857L969.031 960.717Z" fill="white" stroke="#263238" stroke-width="5" stroke-linecap="round" stroke-linejoin="round"/>
<path d="M769.709 972.471V1105.2L883.732 960.717H778.994L769.709 972.471Z" fill="white" stroke="#263238" stroke-width="5" stroke-linecap="round" stroke-linejoin="round"/>
<path d="M1363.42 1138.82H1631.76C1638.58 1138.81 1645.16 1141.27 1650.31 1145.73C1655.46 1150.19 1658.83 1156.36 1659.8 1163.1L1676.08 1277.45H1383.36L1363.42 1138.82Z" fill="#92E3A9" stroke="#263238" stroke-width="5" stroke-linecap="round" stroke-linejoin="round"/>
<path d="M1618.18 1201.39H1490.89V1253.66H1618.18V1201.39Z" fill="white" stroke="#263238" stroke-width="5" stroke-linecap="round" stroke-linejoin="round"/>
<path d="M1690.08 1298.94H1144.75" stroke="#263238" stroke-width="5" stroke-linecap="round" stroke-linejoin="round"/>
<path d="M901.067 1298.94H296.697" stroke="#263238" stroke-width="5" stroke-linecap="round" stroke-linejoin="round"/>
<path d="M96.048 1298.94H26.8936" stroke="#263238" stroke-width="5" stroke-linecap="round" stroke-linejoin="round"/>
<path d="M1468.89 1202.21H1348.65C1343.09 1202.21 1337.64 1203.76 1332.92 1206.68C1328.19 1209.61 1324.37 1213.79 1321.89 1218.77L1301.77 1259.01C1300.85 1260.86 1300.41 1262.91 1300.51 1264.97C1300.6 1267.02 1301.22 1269.03 1302.31 1270.78C1303.4 1272.53 1304.91 1273.97 1306.72 1274.97C1308.52 1275.97 1310.55 1276.49 1312.61 1276.49H1468.89V1202.21Z" fill="white" stroke="#263238" stroke-width="5" stroke-linecap="round" stroke-linejoin="round"/>
<path d="M1468.89 1202.21H1372.02L1382.59 1276.53H1468.89V1202.21Z" fill="#263238" stroke="#263238" stroke-width="5" stroke-linecap="round" stroke-linejoin="round"/>
<path d="M1664.92 1202.21H1635.56L1635.19 1276.53H1675.49L1664.92 1202.21Z" fill="#263238" stroke="#263238" stroke-width="5" stroke-linecap="round" stroke-linejoin="round"/>
<path d="M354.828 1092.3H295.965C290.913 1092.3 286.817 1096.4 286.817 1101.45V1148.47C286.817 1153.52 290.913 1157.61 295.965 1157.61H354.828C359.88 1157.61 363.976 1153.52 363.976 1148.47V1101.45C363.976 1096.4 359.88 1092.3 354.828 1092.3Z" fill="#263238" stroke="#263238" stroke-width="5" stroke-linecap="round" stroke-linejoin="round"/>
<path d="M732.114 1157.61H657.882V1187.3H732.114V1157.61Z" fill="#263238" stroke="#263238" stroke-width="5" stroke-linecap="round" stroke-linejoin="round"/>
<path d="M749.905 1145.72V1371.34" stroke="#263238" stroke-width="5" stroke-linecap="round" stroke-linejoin="round"/>
<path d="M248.123 1246.66C248.123 1246.66 302.459 1277.35 309.411 1382.23H886.475" stroke="#263238" stroke-width="5" stroke-linecap="round" stroke-linejoin="round"/>
<path d="M1159.57 1291.21C1159.57 1291.21 1131.17 1216.98 1036.08 1216.98C969.809 1216.98 938.068 1251.83 922.197 1279.32" stroke="#263238" stroke-width="5" stroke-linecap="round" stroke-linejoin="round"/>
</g>
<defs>
<clipPath id="clip0_706_670">
<rect width="1700" height="1700" fill="white"/>
</clipPath>
</defs>
</svg>
