<svg width="422" height="367" viewBox="0 0 422 367" fill="none" xmlns="http://www.w3.org/2000/svg">
<path d="M345.658 105.223C342.352 103.411 340.846 104.917 339.645 103.411C338.444 101.905 342.952 97.9983 333.927 94.0911C333.927 94.0911 333.326 85.6662 320.994 85.3711C308.662 85.076 311.969 93.7858 308.662 95.8921C305.355 97.9983 304.45 94.6914 301.143 96.7976C297.836 98.9039 299.342 103.116 296.635 103.717C293.929 104.317 290.317 101.01 287.01 103.116C283.703 105.223 283.703 107.024 282.197 107.024C280.691 107.024 277.679 105.823 275.878 107.024C274.077 108.224 271.971 109.73 271.971 109.73H348.07C348.07 109.73 348.965 106.973 345.658 105.223Z" fill="white"/>
<path opacity="0.5" d="M345.658 105.223C342.352 103.411 340.846 104.917 339.645 103.411C338.444 101.905 342.952 97.9983 333.927 94.0911C333.927 94.0911 333.326 85.6662 320.994 85.3711C308.662 85.076 311.969 93.7858 308.662 95.8921C305.355 97.9983 304.45 94.6914 301.143 96.7976C297.836 98.9039 299.342 103.116 296.635 103.717C293.929 104.317 290.317 101.01 287.01 103.116C283.703 105.223 283.703 107.024 282.197 107.024C280.691 107.024 277.679 105.823 275.878 107.024C274.077 108.224 271.971 109.73 271.971 109.73H348.07C348.07 109.73 348.965 106.973 345.658 105.223Z" fill="white"/>
<path d="M216.781 304.653C213.464 302.842 211.969 304.348 210.758 302.842C209.547 301.336 214.065 297.429 205.05 293.522C205.05 293.522 204.449 285.097 192.117 284.802C179.785 284.506 183.092 293.216 179.785 295.322C176.478 297.429 175.573 294.122 172.266 296.228C168.959 298.334 170.455 302.547 167.748 303.147C165.041 303.747 161.429 300.441 158.122 302.547C154.816 304.653 154.816 306.454 153.31 306.454C151.804 306.454 148.802 305.253 146.991 306.454C145.18 307.655 143.084 309.161 143.084 309.161H219.183C219.183 309.161 220.088 306.403 216.781 304.653Z" fill="white"/>
<path opacity="0.5" d="M216.781 304.653C213.464 302.842 211.969 304.348 210.758 302.842C209.547 301.336 214.065 297.429 205.05 293.522C205.05 293.522 204.449 285.097 192.117 284.802C179.785 284.506 183.092 293.216 179.785 295.322C176.478 297.429 175.573 294.122 172.266 296.228C168.959 298.334 170.455 302.547 167.748 303.147C165.041 303.747 161.429 300.441 158.122 302.547C154.816 304.653 154.816 306.454 153.31 306.454C151.804 306.454 148.802 305.253 146.991 306.454C145.18 307.655 143.084 309.161 143.084 309.161H219.183C219.183 309.161 220.088 306.403 216.781 304.653Z" fill="white"/>
<path d="M155.294 271.075C150.115 268.257 147.764 270.607 145.882 268.257C144 265.907 151.051 259.781 136.938 253.666C136.938 253.666 136.002 240.489 116.7 240.021C97.398 239.553 102.587 253.198 97.3675 256.495C92.1477 259.791 90.7843 254.612 85.6052 257.899C80.4261 261.185 82.7765 267.789 78.5437 268.725C74.3109 269.661 68.6638 264.492 63.4847 267.789C58.3056 271.086 58.3056 273.894 55.9552 273.894C53.6047 273.894 48.8937 272.012 46.0752 273.894C43.2567 275.776 39.9702 278.127 39.9702 278.127H159.018C159.018 278.127 160.463 273.935 155.294 271.075Z" fill="white"/>
<path opacity="0.5" d="M155.294 271.075C150.115 268.257 147.764 270.607 145.882 268.257C144 265.907 151.051 259.781 136.938 253.666C136.938 253.666 136.002 240.489 116.7 240.021C97.398 239.553 102.587 253.198 97.3675 256.495C92.1477 259.791 90.7843 254.612 85.6052 257.899C80.4261 261.185 82.7765 267.789 78.5437 268.725C74.3109 269.661 68.6638 264.492 63.4847 267.789C58.3056 271.086 58.3056 273.894 55.9552 273.894C53.6047 273.894 48.8937 272.012 46.0752 273.894C43.2567 275.776 39.9702 278.127 39.9702 278.127H159.018C159.018 278.127 160.463 273.935 155.294 271.075Z" fill="white"/>
<path d="M209.629 1C174.108 1 145.221 26.9158 144.213 59.2215L116.222 74.5552L101.509 60.5747L80.2635 92.8296L65.469 92.1987L73.0596 121.635L73.7209 97.4083L84.191 99.3721L101.489 81.169L119.142 95.1495L146.808 77.8519C154.785 102.72 179.867 120.892 209.608 120.892C245.76 120.892 275.074 94.0506 275.074 60.941C275.074 27.8315 245.781 1 209.629 1Z" fill="#263238" stroke="#263238" stroke-width="0.297598" stroke-linecap="round" stroke-linejoin="round"/>
<path d="M267.616 21.9707H149.525C146.249 21.9707 143.593 24.6266 143.593 27.9027V95.0986C143.593 98.3748 146.249 101.031 149.525 101.031H267.616C270.892 101.031 273.548 98.3748 273.548 95.0986V27.9027C273.548 24.6266 270.892 21.9707 267.616 21.9707Z" fill="#1DCF9F" stroke="#263238" stroke-width="0.595196" stroke-linecap="round" stroke-linejoin="round"/>
<path d="M213.76 59.5266L273.548 29.2763V27.8925C273.548 26.3192 272.923 24.8104 271.811 23.6979C270.698 22.5854 269.189 21.9604 267.616 21.9604H149.525C147.952 21.9604 146.443 22.5854 145.33 23.6979C144.218 24.8104 143.593 26.3192 143.593 27.8925V29.5307L202.292 59.6589C204.083 60.5293 206.051 60.9706 208.042 60.9476C210.032 60.9247 211.99 60.4381 213.76 59.5266V59.5266Z" fill="white" stroke="#263238" stroke-width="0.595196" stroke-linecap="round" stroke-linejoin="round"/>
<path d="M271.254 51.421C278.525 50.2356 283.458 43.3801 282.273 36.1089C281.087 28.8377 274.232 23.9043 266.961 25.0898C259.689 26.2753 254.756 33.1308 255.941 40.4019C257.127 47.6731 263.982 52.6065 271.254 51.421Z" fill="#263238"/>
<path d="M268.308 45.9328C267.967 45.5156 267.796 44.985 267.83 44.4472V32.573L265.489 33.9975C265.306 34.12 265.089 34.1839 264.869 34.1806C264.713 34.1842 264.559 34.1522 264.418 34.0869C264.277 34.0216 264.153 33.9249 264.055 33.8041C263.943 33.69 263.855 33.5548 263.795 33.4063C263.736 33.2579 263.707 33.0991 263.709 32.9393C263.713 32.7286 263.773 32.5228 263.884 32.3437C263.995 32.1646 264.153 32.0188 264.34 31.9218L268.603 29.4085C268.908 29.2149 269.259 29.106 269.621 29.0931C269.842 29.0869 270.062 29.1303 270.264 29.2201C270.467 29.3099 270.647 29.4438 270.791 29.612C271.111 30.0309 271.27 30.5509 271.238 31.0772V44.5286C271.264 45.0436 271.093 45.5491 270.76 45.9429C270.607 46.1148 270.419 46.2512 270.208 46.3426C269.997 46.434 269.769 46.4782 269.539 46.472C269.306 46.4837 269.074 46.441 268.86 46.3474C268.646 46.2538 268.457 46.1119 268.308 45.9328V45.9328Z" fill="#1DCF9F"/>
<path d="M144.488 214.868C144.488 214.868 184.68 275.41 194.346 276.427C204.012 277.445 234.537 245.902 234.537 245.902L225.888 243.867L197.083 263.342C197.083 263.342 172.47 233.122 150.837 210.025L144.488 214.868Z" fill="white" stroke="#263238" stroke-width="0.595196" stroke-linecap="round" stroke-linejoin="round"/>
<path d="M151.642 196.798C151.642 196.798 159.7 197.144 159.354 200.654C159.008 204.164 159.354 213.627 157.248 215.387C155.142 217.148 151.988 217.84 151.285 214.37C150.583 210.9 151.642 196.798 151.642 196.798Z" fill="white" stroke="#263238" stroke-width="0.595196" stroke-linecap="round" stroke-linejoin="round"/>
<path d="M149.535 213.312C149.535 213.312 149.179 223.833 148.518 224.881C147.856 225.929 142.901 229.795 139.747 229.093C136.593 228.391 137.641 225.237 137.641 223.487V195.78H149.566L149.535 213.312Z" fill="#263238" stroke="#263238" stroke-width="0.297598" stroke-linecap="round" stroke-linejoin="round"/>
<path d="M133.052 217.148C133.052 217.148 130.6 221.706 132.696 225.217C134.792 228.727 140.764 228.727 143.227 226.967C145.689 225.206 143.919 222.764 141.823 222.062C139.727 221.36 136.908 219.6 136.908 217.504C136.908 215.408 134.1 215.764 133.052 217.148Z" fill="white" stroke="#263238" stroke-width="0.595196" stroke-linecap="round" stroke-linejoin="round"/>
<path d="M131.149 210.493C131.149 212.894 131.556 216.924 133.448 218.633C135.585 220.516 145.414 220.668 149.729 217.789C154.043 214.909 151.173 209.954 147.907 210.269C145.201 210.534 142.301 209.873 139.553 209.527C138.007 209.333 132.553 208.122 131.485 209.252C131.242 209.606 131.137 210.037 131.19 210.463L131.149 210.493Z" fill="white" stroke="#263238" stroke-width="0.595196" stroke-linecap="round" stroke-linejoin="round"/>
<path d="M129.938 201.804C129.602 204.226 129.45 208.316 131.434 210.086C133.683 212.121 145.333 212.691 150.838 210.005C156.342 207.319 153.727 202.16 149.82 202.333C146.574 202.465 143.227 201.651 140.032 201.173C138.231 200.908 131.892 199.433 130.498 200.522C130.17 200.842 129.977 201.275 129.959 201.733L129.938 201.804Z" fill="white" stroke="#263238" stroke-width="0.595196" stroke-linecap="round" stroke-linejoin="round"/>
<path d="M130.62 189.818C129.755 192.107 128.697 196.065 130.244 198.232C132.004 200.685 143.227 203.839 149.179 202.435C155.132 201.031 153.748 195.424 149.881 194.722C146.686 194.142 143.603 192.606 140.592 191.435C138.892 190.774 133.082 187.945 131.434 188.688C131.055 188.917 130.775 189.28 130.651 189.706L130.62 189.818Z" fill="white" stroke="#263238" stroke-width="0.595196" stroke-linecap="round" stroke-linejoin="round"/>
<path d="M223.925 365.662L255.976 245.841H266.823L232.797 366.649" fill="#263238"/>
<path d="M223.925 365.662L255.976 245.841H266.823L232.797 366.649" stroke="#263238" stroke-width="0.297598" stroke-linecap="round" stroke-linejoin="round"/>
<path d="M245.15 354.205L276.194 245.353L266.823 245.841L232.797 366.649" fill="white"/>
<path d="M245.15 354.205L276.194 245.353L266.823 245.841L232.797 366.649" stroke="#263238" stroke-width="0.595196" stroke-linecap="round" stroke-linejoin="round"/>
<path d="M242.168 364.675L243.603 359.649" stroke="#263238" stroke-width="0.595196" stroke-linecap="round" stroke-linejoin="round"/>
<path d="M202.486 273.985C202.486 273.985 205.996 279.246 210.209 279.948C214.421 280.65 258.957 245.577 258.957 245.577L240.714 247.673L202.486 273.985Z" fill="white" stroke="#263238" stroke-width="0.595196" stroke-linecap="round" stroke-linejoin="round"/>
<path d="M174.21 217.738C174.21 217.738 182.594 148.212 201.336 124.046C221.819 97.5912 262.977 119.122 254.592 161.521C248.162 194.081 229.44 252.252 229.44 252.252L174.21 217.738Z" fill="#1DCF9F" stroke="#263238" stroke-width="0.595196" stroke-linecap="round" stroke-linejoin="round"/>
<path d="M234.375 115.174L343.939 149.769C347.526 150.883 350.807 152.812 353.524 155.406C360.433 162.06 370.74 176.376 362.081 197.489C355.07 214.101 345.596 229.561 333.978 243.348L229.45 252.251L250.655 170.393C250.655 170.393 260.504 134.404 234.375 115.174Z" fill="white"/>
<path d="M285.748 211.48C259.395 223.833 245.303 221.655 238.292 218.094L229.45 252.252L333.988 243.379C345.606 229.591 355.081 214.131 362.092 197.52C363.23 194.769 364.096 191.913 364.676 188.994C339.269 183.011 319.122 195.841 285.748 211.48Z" fill="#1DCF9F"/>
<path opacity="0.5" d="M285.748 211.48C259.395 223.833 245.303 221.655 238.292 218.094L229.45 252.252L333.988 243.379C345.606 229.591 355.081 214.131 362.092 197.52C363.23 194.769 364.096 191.913 364.676 188.994C339.269 183.011 319.122 195.841 285.748 211.48Z" fill="white"/>
<path d="M234.375 115.174L343.939 149.769C347.526 150.883 350.807 152.812 353.524 155.406C360.433 162.06 370.74 176.376 362.081 197.489C355.07 214.101 345.596 229.561 333.978 243.348L229.45 252.251L250.655 170.393C250.655 170.393 260.504 134.404 234.375 115.174Z" stroke="#263238" stroke-width="0.595196" stroke-linecap="round" stroke-linejoin="round"/>
<path d="M295.954 125.491L278.799 179.032C275.878 179.51 273.029 181.922 271.615 185.473C269.661 190.377 271.178 195.597 275.003 197.123C278.829 198.65 283.52 195.902 285.473 191.018C287.081 186.948 286.338 182.736 283.886 180.508L295.954 139.278L312.783 145.017L317.382 133.163L295.954 125.491Z" fill="#263238" stroke="#263238" stroke-width="0.297598" stroke-linecap="round" stroke-linejoin="round"/>
<path d="M191.121 172.927C191.121 172.927 198.772 181.352 199.159 185.554C199.546 189.757 192.657 200.817 192.657 200.817C192.657 200.817 206.81 209.618 220.201 203.493C233.591 197.367 240.093 171.36 240.093 171.36C240.093 171.36 224.027 179.012 217.901 179.012C211.776 179.012 191.121 172.927 191.121 172.927Z" fill="#263238" stroke="#263238" stroke-width="0.297598" stroke-linecap="round" stroke-linejoin="round"/>
<path d="M220.201 203.533C223.894 201.844 227.059 198.639 229.714 194.895C229.525 194.087 229.103 193.352 228.501 192.78C227.899 192.209 227.143 191.826 226.326 191.68C218.288 190.143 209.873 198.945 209.873 198.945C209.119 201.112 208.66 203.37 208.51 205.66C212.521 205.906 216.533 205.176 220.201 203.533Z" fill="#1DCF9F" stroke="#263238" stroke-width="0.297598" stroke-linecap="round" stroke-linejoin="round"/>
<path d="M209.1 196.655C204.788 196.489 200.574 195.326 196.788 193.257C194.926 197.184 192.647 200.858 192.647 200.858C192.647 200.858 206.8 209.659 220.19 203.534C223.804 201.685 226.897 198.96 229.185 195.607C226.051 195.953 215.836 196.971 209.1 196.655Z" fill="white" stroke="#263238" stroke-width="0.297598" stroke-linecap="round" stroke-linejoin="round"/>
<path d="M217.901 179.052C211.796 179.052 191.121 172.947 191.121 172.947C193.624 175.725 195.859 178.733 197.795 181.932C202.883 183.967 211.827 187.111 219.051 187.111C225.266 187.053 231.339 185.244 236.572 181.891C237.962 178.457 239.138 174.94 240.093 171.36C240.093 171.36 224.027 179.052 217.901 179.052Z" fill="white" stroke="#263238" stroke-width="0.297598" stroke-linecap="round" stroke-linejoin="round"/>
<path d="M216.375 161.45C216.375 161.45 218.675 153.422 225.176 152.648C231.678 151.875 233.591 156.474 233.591 156.474C233.591 156.474 221.31 156.474 216.375 161.45Z" fill="#263238"/>
<path d="M235.117 169.102L244.682 172.551" stroke="#263238" stroke-width="0.297598" stroke-linecap="round" stroke-linejoin="round"/>
<path d="M205.63 153.757C205.152 156.454 203.921 158.499 202.873 158.316C201.825 158.133 201.387 155.792 201.855 153.086C202.323 150.379 203.575 148.334 204.613 148.517C205.651 148.7 206.119 151.01 205.63 153.757Z" fill="#263238"/>
<path d="M217.901 151.885C217.901 151.885 217.524 147.296 227.465 147.296C237.406 147.296 239.33 146.146 235.504 141.191C231.678 136.236 215.612 138.881 217.901 151.885Z" fill="#263238"/>
<path d="M214.075 138.118C214.075 138.118 213.312 131.606 207.197 131.606C201.082 131.606 197.622 138.881 197.246 136.582C196.87 134.282 199.159 126.254 207.574 125.491C215.988 124.728 214.075 138.118 214.075 138.118Z" fill="#263238"/>
<path d="M257.248 132.807C258.889 136.927 259.884 141.275 260.199 145.699C262.641 173.609 237.814 249.688 237.814 249.688" stroke="#263238" stroke-width="0.297598" stroke-linecap="round" stroke-linejoin="round"/>
<path d="M247.633 121.615C249.845 122.626 251.777 124.163 253.259 126.092" stroke="#263238" stroke-width="0.297598" stroke-linecap="round" stroke-linejoin="round"/>
<path d="M334.07 236.277C331.648 239.92 330 242.382 330 242.382" stroke="#263238" stroke-width="0.297598" stroke-linecap="round" stroke-linejoin="round"/>
<path d="M338.017 149.189C338.017 149.189 356.515 159.659 358.957 175.013C361.399 190.367 355.467 198.415 351.977 206.769C349.942 211.562 343.054 222.54 337.509 231.047" stroke="#263238" stroke-width="0.297598" stroke-linecap="round" stroke-linejoin="round"/>
<path d="M193.593 208.662C193.593 208.662 199.128 214.187 211.562 212.803C211.562 212.803 199.128 218.328 193.593 208.662Z" fill="#263238"/>
<path d="M81.8511 204.195C81.8511 204.195 114.238 187.213 173.355 197.622C176.073 198.099 178.87 197.478 181.131 195.897C183.393 194.316 184.936 191.903 185.423 189.187L186.277 184.415C186.688 182.125 186.321 179.763 185.235 177.705C184.149 175.648 182.407 174.012 180.284 173.059C164.584 166.008 128.056 146.452 108.856 110.208L81.8511 204.195Z" fill="#1DCF9F" stroke="#263238" stroke-width="0.595196" stroke-linecap="round" stroke-linejoin="round"/>
<path d="M110.779 129.887C110.779 129.887 126.591 154.693 152.842 163.678" stroke="white" stroke-width="0.595196" stroke-linecap="round" stroke-linejoin="round"/>
<path d="M180.284 173.059C171.099 168.904 162.28 163.982 153.921 158.346C156.678 167.158 157.472 180.477 146.065 194.508C155.218 194.976 164.332 196.016 173.355 197.622C176.073 198.098 178.869 197.478 181.131 195.897C183.393 194.316 184.936 191.903 185.422 189.187L186.277 184.415C186.688 182.125 186.321 179.763 185.235 177.705C184.149 175.648 182.406 174.012 180.284 173.059V173.059Z" fill="#263238" stroke="#263238" stroke-width="0.297598" stroke-linecap="round" stroke-linejoin="round"/>
<path d="M107.795 161.151C117.017 131.651 115.275 104.856 103.905 101.301C92.5341 97.7463 75.8404 118.779 66.6185 148.278C57.3965 177.778 59.1384 204.573 70.5091 208.128C81.8798 211.683 98.5734 190.65 107.795 161.151Z" fill="#263238" stroke="#263238" stroke-width="0.297598" stroke-linecap="round" stroke-linejoin="round"/>
<path d="M103.2 159.72C111.497 133.181 110.496 109.252 100.965 106.272C91.4339 103.293 76.9819 122.391 68.6855 148.93C60.3891 175.469 61.39 199.398 70.921 202.378C80.452 205.357 94.9039 186.259 103.2 159.72Z" fill="white" stroke="#263238" stroke-width="0.297598" stroke-linecap="round" stroke-linejoin="round"/>
<path d="M107.034 144.529L97.5712 144.03L90.4487 168.267L97.9681 173.69C99.9581 169.139 101.697 164.482 103.178 159.74C104.753 154.748 106.041 149.669 107.034 144.529V144.529Z" fill="#263238" stroke="#263238" stroke-width="0.297598" stroke-linecap="round" stroke-linejoin="round"/>
<path d="M98.1107 157.339C96.157 164.034 92.7484 168.928 90.4896 168.267C88.2307 167.606 87.9967 161.653 89.9503 154.958C91.9039 148.263 95.3227 143.369 97.5714 144.03C99.8201 144.691 100.064 150.654 98.1107 157.339Z" fill="white" stroke="#263238" stroke-width="0.297598" stroke-linecap="round" stroke-linejoin="round"/>
<path d="M206.353 278.544C201.092 276.092 157.95 199.281 155.477 195.109C153.005 190.937 153.727 184.934 156.18 179.327C158.632 173.721 158.632 163.19 157.197 161.084C155.762 158.977 151.469 156.83 151.469 156.83C151.469 156.83 152.293 155.813 154.043 153.727C155.793 151.641 160.005 153.025 160.005 153.025C163.16 150.563 165.978 154.572 165.978 154.572C169.488 152.465 171.228 156.525 171.228 156.525C172.461 156.594 173.661 156.942 174.739 157.543C177.659 159.435 177.191 167.718 177.191 167.718C177.191 167.718 180.345 168.42 181.047 170.526C181.834 173.912 181.589 177.455 180.345 180.701C178.941 184.211 170.17 194.732 170.17 194.732L213.658 269.437" fill="white"/>
<path d="M206.353 278.544C201.092 276.092 157.95 199.281 155.477 195.109C153.005 190.937 153.727 184.934 156.18 179.327C158.632 173.721 158.632 163.19 157.197 161.084C155.762 158.977 151.469 156.83 151.469 156.83C151.469 156.83 152.293 155.813 154.043 153.727C155.793 151.641 160.005 153.025 160.005 153.025C163.16 150.563 165.978 154.572 165.978 154.572C169.488 152.465 171.228 156.525 171.228 156.525C172.461 156.594 173.661 156.942 174.739 157.543C177.659 159.435 177.191 167.718 177.191 167.718C177.191 167.718 180.345 168.42 181.047 170.526C181.834 173.912 181.589 177.455 180.345 180.701C178.941 184.211 170.17 194.732 170.17 194.732L213.658 269.437" stroke="#263238" stroke-width="0.595196" stroke-linecap="round" stroke-linejoin="round"/>
<path d="M160.056 153.045C160.056 153.045 165.093 156.291 165.093 159.15C165.147 161.357 165.334 163.559 165.652 165.744" stroke="#263238" stroke-width="0.297598" stroke-linecap="round" stroke-linejoin="round"/>
<path d="M166.029 154.541C166.029 154.541 169.081 157.746 169.234 159.628C169.387 161.511 169.804 167.351 169.804 167.351" stroke="#263238" stroke-width="0.297598" stroke-linecap="round" stroke-linejoin="round"/>
<path d="M171.279 156.494C172.327 158.037 172.922 159.841 172.999 161.704C173.02 163.656 173.145 165.606 173.375 167.544" stroke="#263238" stroke-width="0.297598" stroke-linecap="round" stroke-linejoin="round"/>
<path d="M177.242 167.718C177.242 167.718 178.656 176.773 178.086 178.666" stroke="#263238" stroke-width="0.297598" stroke-linecap="round" stroke-linejoin="round"/>
</svg>
