<svg width="2610" height="1706" viewBox="0 0 2610 1706" fill="none" xmlns="http://www.w3.org/2000/svg">
<path d="M2539.19 847.3L2607.48 1030.27H2560.95L2514.43 887.602L2539.19 847.3Z" fill="white" stroke="#2E353A" stroke-width="5" stroke-linecap="round" stroke-linejoin="round"/>
<path d="M2576.42 1299.08H1961.33V984.787L2532.41 897.537L2576.42 1018.86V1299.08Z" fill="#2E353A"/>
<path d="M2046.06 347.941H1243.81V1299.08H2046.06V347.941Z" fill="#2E353A"/>
<path d="M1194.41 424.835L1160.27 380.616L1649.41 3L2129.6 373.759L2095.53 417.978L1649.41 73.5274L1194.41 424.835Z" fill="#2E353A"/>
<path d="M1899.27 347.941H1097.02V1299.08H1899.27V347.941Z" fill="white" stroke="#2E353A" stroke-width="5" stroke-linecap="round" stroke-linejoin="round"/>
<path d="M1498.14 38.2637L1097.02 347.941H1899.27L1498.14 38.2637Z" fill="white" stroke="#2E353A" stroke-width="5" stroke-linejoin="round"/>
<g style="mix-blend-mode:multiply">
<path d="M1498.14 38.2637L1097.02 347.941V418.468L1188.4 347.941L1498.14 108.791L1807.96 347.941L1899.27 418.468V347.941L1498.14 38.2637Z" fill="#92E3A9"/>
</g>
<path d="M2514.42 984.787H1899.27V1299.08H2514.42V984.787Z" fill="white" stroke="#2E353A" stroke-width="5" stroke-linecap="round" stroke-linejoin="round"/>
<path d="M2452.43 984.787H1961.33V1299.08H2452.43V984.787Z" fill="#92E3A9" stroke="#2E353A" stroke-width="5" stroke-linecap="round" stroke-linejoin="round"/>
<g style="mix-blend-mode:multiply">
<path d="M2514.42 984.787H1899.27V1052.17H2514.42V984.787Z" fill="#92E3A9"/>
</g>
<path d="M1961.33 1076.79H2452.36" stroke="#2E353A" stroke-width="5" stroke-linecap="round" stroke-linejoin="round"/>
<path d="M1961.33 1123.32H2452.36" stroke="#2E353A" stroke-width="5" stroke-linecap="round" stroke-linejoin="round"/>
<path d="M1961.33 1169.85H2452.36" stroke="#2E353A" stroke-width="5" stroke-linecap="round" stroke-linejoin="round"/>
<path d="M1961.33 1216.38H2452.36" stroke="#2E353A" stroke-width="5" stroke-linecap="round" stroke-linejoin="round"/>
<path d="M1961.33 1262.91H2452.36" stroke="#2E353A" stroke-width="5" stroke-linecap="round" stroke-linejoin="round"/>
<path d="M1324.48 947.564H1163.21V1299.08H1324.48V947.564Z" fill="#2E353A"/>
<path d="M1570.49 947.564H1409.22V1191.54H1570.49V947.564Z" fill="white" stroke="#2E353A" stroke-width="5" stroke-linecap="round" stroke-linejoin="round"/>
<path d="M1570.49 1059.23H1409.22V1079.94H1570.49V1059.23Z" fill="#2E353A"/>
<path d="M1500.24 947.564H1479.53V1191.54H1500.24V947.564Z" fill="#2E353A"/>
<path d="M1866.17 947.564H1704.9V1191.54H1866.17V947.564Z" fill="white" stroke="#2E353A" stroke-width="5" stroke-linecap="round" stroke-linejoin="round"/>
<path d="M1866.17 1059.23H1704.9V1079.94H1866.17V1059.23Z" fill="#2E353A"/>
<path d="M1795.93 947.564H1775.22V1191.54H1795.93V947.564Z" fill="#2E353A"/>
<path d="M1658.37 947.564H1627.44V1299.08H1658.37V947.564Z" fill="white" stroke="#2E353A" stroke-width="5" stroke-linecap="round" stroke-linejoin="round"/>
<path d="M1388.02 947.564H1357.09V1299.08H1388.02V947.564Z" fill="white" stroke="#2E353A" stroke-width="5" stroke-linecap="round" stroke-linejoin="round"/>
<path d="M1866.17 962.047H1134.24V1007.53H1866.17V962.047Z" fill="#2E353A"/>
<path d="M1866.17 939.308H1134.24V984.787H1866.17V939.308Z" fill="#92E3A9" stroke="#2E353A" stroke-width="5" stroke-linecap="round" stroke-linejoin="round"/>
<path d="M1043.14 424.835L1009 380.616L1498.14 3L1978.33 373.759L1944.26 417.978L1498.14 73.5274L1043.14 424.835Z" fill="white" stroke="#2E353A" stroke-width="5" stroke-linejoin="round"/>
<path d="M2514.43 1030.27H1838.12L1900.18 847.3H2539.19L2514.43 1030.27Z" fill="#2E353A"/>
<path d="M1978.33 373.759H2116.87L1649.41 3H1498.14L1978.33 373.759Z" fill="#2E353A"/>
<path d="M1944.26 417.978H2095.53L2129.6 373.759H1978.33L1944.26 417.978Z" fill="#2E353A"/>
<path d="M1250.04 488.576H1163.21V629.211H1250.04V488.576Z" fill="white" stroke="#2E353A" stroke-width="5" stroke-linecap="round" stroke-linejoin="round"/>
<path d="M1250.04 558.894H1163.21V629.211H1250.04V558.894Z" fill="#2E353A"/>
<path d="M1250.04 551.057H1163.21V566.73H1250.04V551.057Z" fill="white" stroke="#2E353A" stroke-width="5" stroke-linecap="round" stroke-linejoin="round"/>
<path d="M1250.04 691.202H1163.21V831.837H1250.04V691.202Z" fill="white" stroke="#2E353A" stroke-width="5" stroke-linecap="round" stroke-linejoin="round"/>
<path d="M1250.04 760.82H1163.21V831.768H1250.04V760.82Z" fill="#2E353A"/>
<path d="M1837.21 488.576H1750.38V629.211H1837.21V488.576Z" fill="white" stroke="#2E353A" stroke-width="5" stroke-linecap="round" stroke-linejoin="round"/>
<path d="M1837.21 558.894H1750.38V629.211H1837.21V558.894Z" fill="#2E353A"/>
<path d="M1837.21 691.203H1750.38V831.838H1837.21V691.203Z" fill="white" stroke="#2E353A" stroke-width="5" stroke-linecap="round" stroke-linejoin="round"/>
<path d="M1837.21 752.984H1750.38V831.768H1837.21V752.984Z" fill="#2E353A"/>
<path d="M1533.27 488.576H1446.44V629.211H1533.27V488.576Z" fill="white" stroke="#2E353A" stroke-width="5" stroke-linecap="round" stroke-linejoin="round"/>
<path d="M1533.27 558.894H1446.44V629.211H1533.27V558.894Z" fill="#2E353A"/>
<path d="M1533.27 691.202H1446.44V831.837H1533.27V691.202Z" fill="white" stroke="#2E353A" stroke-width="5" stroke-linecap="round" stroke-linejoin="round"/>
<path d="M1533.27 752.984H1446.44V831.768H1533.27V752.984Z" fill="#2E353A"/>
<path d="M1533.27 551.057H1446.44V566.73H1533.27V551.057Z" fill="white" stroke="#2E353A" stroke-width="5" stroke-linecap="round" stroke-linejoin="round"/>
<path d="M1837.21 551.057H1750.38V566.73H1837.21V551.057Z" fill="white" stroke="#2E353A" stroke-width="5" stroke-linecap="round" stroke-linejoin="round"/>
<path d="M1250.04 745.147H1163.21V760.82H1250.04V745.147Z" fill="white" stroke="#2E353A" stroke-width="5" stroke-linecap="round" stroke-linejoin="round"/>
<path d="M1533.27 745.147H1446.44V760.82H1533.27V745.147Z" fill="white" stroke="#2E353A" stroke-width="5" stroke-linecap="round" stroke-linejoin="round"/>
<path d="M1837.21 745.147H1750.38V760.82H1837.21V745.147Z" fill="white" stroke="#2E353A" stroke-width="5" stroke-linecap="round" stroke-linejoin="round"/>
<path d="M1167.76 390.341V424.835" stroke="#2E353A" stroke-width="5" stroke-linecap="round" stroke-linejoin="round"/>
<path d="M1229.82 390.341V424.835" stroke="#2E353A" stroke-width="5" stroke-linecap="round" stroke-linejoin="round"/>
<path d="M1194.41 424.835V459.329" stroke="#2E353A" stroke-width="5" stroke-linecap="round" stroke-linejoin="round"/>
<path d="M1265.29 424.835V459.329" stroke="#2E353A" stroke-width="5" stroke-linecap="round" stroke-linejoin="round"/>
<path d="M1140.26 424.835H1282.01" stroke="#2E353A" stroke-width="5" stroke-linecap="round" stroke-linejoin="round"/>
<path d="M1167.76 851.078V885.572" stroke="#2E353A" stroke-width="5" stroke-linecap="round" stroke-linejoin="round"/>
<path d="M1229.82 851.078V885.572" stroke="#2E353A" stroke-width="5" stroke-linecap="round" stroke-linejoin="round"/>
<path d="M1194.41 885.573V920.067" stroke="#2E353A" stroke-width="5" stroke-linecap="round" stroke-linejoin="round"/>
<path d="M1265.29 885.573V920.067" stroke="#2E353A" stroke-width="5" stroke-linecap="round" stroke-linejoin="round"/>
<path d="M1140.26 885.573H1282.01" stroke="#2E353A" stroke-width="5" stroke-linecap="round" stroke-linejoin="round"/>
<path d="M1293.49 524.329V558.893" stroke="#2E353A" stroke-width="5" stroke-linecap="round" stroke-linejoin="round"/>
<path d="M1355.55 524.329V558.893" stroke="#2E353A" stroke-width="5" stroke-linecap="round" stroke-linejoin="round"/>
<path d="M1320.15 558.894V593.388" stroke="#2E353A" stroke-width="5" stroke-linecap="round" stroke-linejoin="round"/>
<path d="M1391.02 558.894V593.388" stroke="#2E353A" stroke-width="5" stroke-linecap="round" stroke-linejoin="round"/>
<path d="M1265.99 558.894H1407.75" stroke="#2E353A" stroke-width="5" stroke-linecap="round" stroke-linejoin="round"/>
<path d="M1293.49 593.388H1407.75" stroke="#2E353A" stroke-width="5" stroke-linecap="round" stroke-linejoin="round"/>
<path d="M1293.49 594.647V629.141" stroke="#2E353A" stroke-width="5" stroke-linecap="round" stroke-linejoin="round"/>
<path d="M1355.55 594.647V629.141" stroke="#2E353A" stroke-width="5" stroke-linecap="round" stroke-linejoin="round"/>
<path d="M1320.15 629.141V663.635" stroke="#2E353A" stroke-width="5" stroke-linecap="round" stroke-linejoin="round"/>
<path d="M1391.02 629.141V663.635" stroke="#2E353A" stroke-width="5" stroke-linecap="round" stroke-linejoin="round"/>
<path d="M1265.99 629.141H1407.75" stroke="#2E353A" stroke-width="5" stroke-linecap="round" stroke-linejoin="round"/>
<path d="M1602.61 754.523V789.017" stroke="#2E353A" stroke-width="5" stroke-linecap="round" stroke-linejoin="round"/>
<path d="M1664.67 754.523V789.017" stroke="#2E353A" stroke-width="5" stroke-linecap="round" stroke-linejoin="round"/>
<path d="M1629.26 789.017V823.511" stroke="#2E353A" stroke-width="5" stroke-linecap="round" stroke-linejoin="round"/>
<path d="M1700.14 789.017V823.511" stroke="#2E353A" stroke-width="5" stroke-linecap="round" stroke-linejoin="round"/>
<path d="M1575.11 789.017H1716.86" stroke="#2E353A" stroke-width="5" stroke-linecap="round" stroke-linejoin="round"/>
<path d="M1602.61 823.511H1716.86" stroke="#2E353A" stroke-width="5" stroke-linecap="round" stroke-linejoin="round"/>
<path d="M1602.61 824.84V859.335" stroke="#2E353A" stroke-width="5" stroke-linecap="round" stroke-linejoin="round"/>
<path d="M1664.67 824.84V859.335" stroke="#2E353A" stroke-width="5" stroke-linecap="round" stroke-linejoin="round"/>
<path d="M1629.26 859.335V893.829" stroke="#2E353A" stroke-width="5" stroke-linecap="round" stroke-linejoin="round"/>
<path d="M1700.14 859.335V893.829" stroke="#2E353A" stroke-width="5" stroke-linecap="round" stroke-linejoin="round"/>
<path d="M1575.11 859.335H1716.86" stroke="#2E353A" stroke-width="5" stroke-linecap="round" stroke-linejoin="round"/>
<path d="M51.8132 1376.55C189.37 1433.43 542.847 1371.86 506.603 1438.19C470.36 1504.52 193.498 1479.61 114.784 1551.33C36.0705 1623.04 394.165 1617.31 381.501 1639.07C368.837 1660.83 53.7723 1675.73 74.4827 1705.04H2197.44C2200.87 1682.1 2176.45 1654.25 2136.57 1635.08C1820.46 1622.13 749.251 1574.7 861.479 1528.87C993.019 1475.27 1422.48 1421.68 1500.98 1379.7C1579.49 1337.71 1231.75 1333.03 1173.54 1314.42C1154.78 1308.4 1152.55 1302.52 1158.63 1297.41L1168.64 1298.04V1291.68C1184.54 1285.92 1200.93 1281.63 1217.62 1278.87H1168.64V1266.77L1161.64 1271.18L1149.68 1278.87H1145.83C1150.73 1263.72 1154.06 1248.11 1155.76 1232.27C1158.49 1204.92 1120.08 1266.77 1120.08 1266.77C1120.08 1266.77 1125.54 1245.78 1120.08 1232.27C1114.62 1218.77 1098.11 1250.53 1098.11 1250.53C1098.11 1250.53 1117.35 1174.62 1098.11 1125.29C1078.87 1075.97 1057.18 1250.53 1057.18 1250.53C1057.18 1250.53 1054.24 1182.81 1029.54 1181.48C1009.53 1180.36 1021.92 1226.4 1027.37 1243.89C1023.14 1234.07 1016.89 1225.25 1009.04 1218C991.34 1201.07 1009.04 1257.11 1009.04 1257.11C1009.04 1257.11 1002.04 1240.46 955.796 1232.27C909.547 1224.09 974.687 1268.52 974.687 1268.52C954.639 1262.76 934.296 1258.09 913.745 1254.52C903.53 1252.84 902.69 1255.36 906.049 1259.56L899.402 1263.83L877.992 1277.82C885.005 1257.28 889.699 1236.02 891.985 1214.43C895.484 1179.45 846.576 1258.37 846.576 1258.37C846.576 1258.37 853.573 1231.85 846.576 1214.43C839.58 1197.01 818.589 1237.66 818.589 1237.66C818.589 1237.66 843.078 1141.04 818.589 1078.2C794.101 1015.37 766.463 1237.66 766.463 1237.66C766.463 1237.66 762.685 1151.53 731.479 1149.78C706.081 1148.38 721.684 1206.53 728.681 1228.98C723.296 1216.6 715.384 1205.47 705.451 1196.31C682.852 1174.76 705.451 1246.06 705.451 1246.06C705.451 1246.06 696.566 1225.07 637.653 1214.43C578.74 1203.8 661.652 1260.61 661.652 1260.61C636.127 1253.29 610.224 1247.36 584.058 1242.84C544.876 1236.4 613.864 1279.01 613.864 1279.01H93.7938C93.7938 1279.01 -85.6034 1319.73 51.8132 1376.55ZM908.358 1262.36C915.378 1268.58 922.889 1274.21 930.818 1279.22H908.358V1262.36Z" fill="#92E3A9"/>
<path d="M1749.02 1385.01C1669.54 1421.82 1472.16 1460.44 1472.16 1460.44C1440.74 1464.71 1483.28 1504.94 1701.44 1485L2074.79 1279.08H1359.37C1383.3 1291.4 1553.74 1319.8 1650.71 1319.8C1747.69 1319.8 1828.5 1348.14 1749.02 1385.01Z" fill="#92E3A9"/>
<path d="M2320.59 1279.08H2461.64C2390.83 1276.35 2320.59 1279.08 2320.59 1279.08Z" fill="#92E3A9"/>
<path d="M2553.3 1287.27L2218.22 1503.19C2260.69 1501.58 2305.12 1500.53 2348.15 1499.48C2533.78 1495 2466.4 1414.47 2478.99 1386.06C2491.59 1357.66 2596.96 1362.34 2605.35 1314.97C2607.73 1301.54 2585.83 1292.86 2553.3 1287.27Z" fill="#92E3A9"/>
<g opacity="0.3">
<path opacity="0.3" d="M51.8132 1376.55C189.37 1433.43 542.847 1371.86 506.603 1438.19C470.36 1504.52 193.498 1479.61 114.784 1551.33C36.0705 1623.04 394.165 1617.31 381.501 1639.07C368.837 1660.83 53.7723 1675.73 74.4827 1705.04H2197.44C2200.87 1682.1 2176.45 1654.25 2136.57 1635.08C1820.46 1622.13 749.251 1574.7 861.479 1528.87C993.019 1475.27 1422.48 1421.68 1500.98 1379.7C1579.49 1337.71 1231.75 1333.03 1173.54 1314.42C1154.78 1308.4 1152.55 1302.52 1158.63 1297.41L1168.64 1298.04V1291.68C1184.54 1285.92 1200.93 1281.63 1217.62 1278.87H1168.64V1266.77L1161.64 1271.18L1149.68 1278.87H1145.83C1150.73 1263.72 1154.06 1248.11 1155.76 1232.27C1158.49 1204.92 1120.08 1266.77 1120.08 1266.77C1120.08 1266.77 1125.54 1245.78 1120.08 1232.27C1114.62 1218.77 1098.11 1250.53 1098.11 1250.53C1098.11 1250.53 1117.35 1174.62 1098.11 1125.29C1078.87 1075.97 1057.18 1250.53 1057.18 1250.53C1057.18 1250.53 1054.24 1182.81 1029.54 1181.48C1009.53 1180.36 1021.92 1226.4 1027.37 1243.89C1023.14 1234.07 1016.89 1225.25 1009.04 1218C991.34 1201.07 1009.04 1257.11 1009.04 1257.11C1009.04 1257.11 1002.04 1240.46 955.796 1232.27C909.547 1224.09 974.687 1268.52 974.687 1268.52C954.639 1262.76 934.296 1258.09 913.745 1254.52C903.53 1252.84 902.69 1255.36 906.049 1259.56L899.402 1263.83L877.992 1277.82C885.005 1257.28 889.699 1236.02 891.985 1214.43C895.484 1179.45 846.576 1258.37 846.576 1258.37C846.576 1258.37 853.573 1231.85 846.576 1214.43C839.58 1197.01 818.589 1237.66 818.589 1237.66C818.589 1237.66 843.078 1141.04 818.589 1078.2C794.101 1015.37 766.463 1237.66 766.463 1237.66C766.463 1237.66 762.685 1151.53 731.479 1149.78C706.081 1148.38 721.684 1206.53 728.681 1228.98C723.296 1216.6 715.384 1205.47 705.451 1196.31C682.852 1174.76 705.451 1246.06 705.451 1246.06C705.451 1246.06 696.566 1225.07 637.653 1214.43C578.74 1203.8 661.652 1260.61 661.652 1260.61C636.127 1253.29 610.224 1247.36 584.058 1242.84C544.876 1236.4 613.864 1279.01 613.864 1279.01H93.7938C93.7938 1279.01 -85.6034 1319.73 51.8132 1376.55ZM908.358 1262.36C915.378 1268.58 922.889 1274.21 930.818 1279.22H908.358V1262.36Z" fill="white"/>
<path opacity="0.3" d="M1749.02 1385.01C1669.54 1421.82 1472.16 1460.44 1472.16 1460.44C1440.74 1464.71 1483.28 1504.94 1701.44 1485L2074.79 1279.08H1359.37C1383.3 1291.4 1553.74 1319.8 1650.71 1319.8C1747.69 1319.8 1828.5 1348.14 1749.02 1385.01Z" fill="white"/>
<path opacity="0.3" d="M2320.59 1279.08H2461.64C2390.83 1276.35 2320.59 1279.08 2320.59 1279.08Z" fill="white"/>
<path opacity="0.3" d="M2553.3 1287.27L2218.22 1503.19C2260.69 1501.58 2305.12 1500.53 2348.15 1499.48C2533.78 1495 2466.4 1414.47 2478.99 1386.06C2491.59 1357.66 2596.96 1362.34 2605.35 1314.97C2607.73 1301.54 2585.83 1292.86 2553.3 1287.27Z" fill="white"/>
</g>
<path d="M676.865 1498.66H879.594C879.594 1498.66 871.05 1398.43 814.246 1355.82C757.442 1313.22 687.664 1326 670.773 1354.4C653.882 1382.8 650.995 1443.88 654.95 1451C658.906 1458.12 676.865 1498.66 676.865 1498.66Z" fill="#263238"/>
<path d="M879.593 1500.64H676.864C676.48 1500.64 676.104 1500.52 675.781 1500.31C675.459 1500.1 675.203 1499.8 675.045 1499.45C675.045 1499.06 657.6 1458.91 653.447 1451.99C648.304 1443.4 651.983 1381.85 669.27 1353.37C676.429 1341.5 692.054 1332.33 712.11 1328.41C746.405 1321.68 785.092 1331.34 815.63 1354.24C872.473 1396.88 881.65 1497.48 881.73 1498.5C881.766 1498.78 881.739 1499.06 881.649 1499.32C881.56 1499.58 881.412 1499.81 881.215 1500.01C881.015 1500.23 880.763 1500.41 880.481 1500.52C880.199 1500.63 879.895 1500.67 879.593 1500.64ZM678.17 1496.68H877.378C875.717 1481.97 863.929 1395.54 813.059 1357.4C783.431 1335.17 745.812 1325.76 712.703 1332.29C693.716 1336 679.08 1344.43 672.474 1355.43C655.306 1383.99 653.447 1444.31 656.849 1449.97C660.765 1456.49 675.203 1489.8 678.17 1496.68Z" fill="#263238"/>
<path d="M1292.92 1533.35H1452.02L1548.58 1480.86C1548.58 1480.86 1523.03 1370.1 1459.1 1337.39C1395.18 1304.68 1342.17 1315.79 1313.3 1371.29C1284.42 1426.79 1292.92 1533.35 1292.92 1533.35Z" fill="#263238"/>
<path d="M1452.02 1535.33H1292.92C1292.43 1535.33 1291.94 1535.15 1291.58 1534.81C1291.21 1534.47 1290.99 1534.01 1290.95 1533.51C1290.95 1532.44 1282.72 1425.8 1311.55 1370.38C1340.39 1314.96 1394.62 1302.14 1460.01 1335.57C1524.01 1368.28 1549.45 1475.8 1550.52 1480.39C1550.61 1480.81 1550.57 1481.25 1550.39 1481.64C1550.21 1482.03 1549.91 1482.36 1549.53 1482.56L1452.93 1535.09C1452.65 1535.24 1452.34 1535.32 1452.02 1535.33ZM1294.74 1531.38H1451.51L1546.44 1479.95C1543.12 1466.86 1516.74 1369.19 1458.31 1339.29C1394.19 1306.49 1343.36 1318.24 1315.15 1372.36C1288.81 1422.67 1293.83 1517.1 1294.7 1531.38H1294.74Z" fill="#263238"/>
<path d="M1152.77 1430.03H1116.26C1078.09 1432.01 1047.59 1471.88 1047.59 1520.81C1047.59 1569.75 1078.09 1609.62 1116.26 1611.6H1132.09H1152.97C1188.57 1611.6 1217.17 1570.93 1217.17 1520.62C1217.17 1470.3 1188.22 1430.03 1152.77 1430.03Z" fill="#263238"/>
<path d="M1152.77 1613.73H1116.22C1076.67 1611.68 1045.57 1570.93 1045.57 1520.97C1045.57 1471.01 1076.31 1430.58 1115.63 1428.25C1115.84 1428.21 1116.05 1428.21 1116.26 1428.25H1152.77C1189.28 1428.25 1218.95 1469.9 1218.95 1521.09C1218.95 1572.28 1189.28 1613.73 1152.77 1613.73ZM1116.7 1432.01H1116.26C1078.88 1434.03 1049.45 1472.95 1049.45 1520.89C1049.45 1568.84 1078.8 1607.92 1116.26 1609.7H1152.69C1186.99 1609.7 1214.92 1569.83 1214.92 1520.81C1214.92 1471.8 1186.99 1431.93 1152.69 1431.93L1116.7 1432.01Z" fill="#263238"/>
<path d="M1782.68 1385.53H1737.23C1689.76 1387.98 1651.78 1437.63 1651.78 1498.54C1651.78 1559.46 1689.72 1609.11 1737.23 1611.56H1782.68C1826.78 1611.56 1862.54 1560.93 1862.54 1498.46C1862.54 1436 1826.78 1385.53 1782.68 1385.53Z" fill="#263238"/>
<path d="M1782.68 1613.73H1737.23C1736.98 1613.77 1736.72 1613.77 1736.48 1613.73C1687.78 1610.81 1649.73 1560.49 1649.73 1498.78C1649.73 1437.07 1687.82 1386.72 1736.51 1383.83C1736.75 1383.79 1736.99 1383.79 1737.23 1383.83H1782.68C1827.81 1383.83 1864.52 1435.49 1864.52 1498.94C1864.52 1562.39 1827.81 1613.73 1782.68 1613.73ZM1737.82 1609.78H1782.68C1825.64 1609.78 1860.56 1559.94 1860.56 1498.66C1860.56 1437.39 1825.64 1387.51 1782.68 1387.51H1737.74C1737.57 1387.55 1737.4 1387.55 1737.23 1387.51C1690.35 1389.92 1653.64 1438.69 1653.64 1498.54C1653.64 1558.39 1690.27 1607.44 1737.27 1609.7L1737.82 1609.78Z" fill="#263238"/>
<path d="M1464.4 1385.53H1406.77V1407.4C1386.99 1428.01 1374.06 1461.2 1374.06 1498.66C1374.06 1536.12 1386.95 1569.31 1406.77 1589.92V1611.76H1464.4C1508.55 1611.76 1544.31 1561.12 1544.31 1498.66C1544.31 1436.2 1508.55 1385.53 1464.4 1385.53Z" fill="#263238"/>
<path d="M1464.4 1613.73H1406.77C1406.24 1613.73 1405.74 1613.52 1405.37 1613.15C1405 1612.78 1404.79 1612.28 1404.79 1611.76V1590.71C1384.3 1569.03 1372.08 1534.7 1372.08 1498.66C1372.08 1462.63 1384.3 1428.29 1404.79 1406.61V1385.53C1404.79 1385.01 1405 1384.5 1405.37 1384.13C1405.74 1383.76 1406.24 1383.55 1406.77 1383.55H1464.4C1509.58 1383.55 1546.29 1435.21 1546.29 1498.66C1546.29 1562.11 1509.58 1613.73 1464.4 1613.73ZM1408.75 1609.78H1464.4C1507.36 1609.78 1542.33 1559.94 1542.33 1498.66C1542.33 1437.39 1507.36 1387.51 1464.4 1387.51H1408.75V1407.29C1408.75 1407.8 1408.55 1408.3 1408.19 1408.67C1388.06 1429.56 1376.03 1463.18 1376.03 1498.54C1376.03 1533.91 1387.9 1567.53 1408.19 1588.42C1408.55 1588.79 1408.75 1589.29 1408.75 1589.8V1609.78Z" fill="#263238"/>
<path d="M797.118 1385.53H752.458V1407.4C733.708 1428.01 721.525 1461.2 721.525 1498.66C721.525 1536.12 733.708 1569.31 752.458 1589.92V1611.76H797.118C838.89 1611.76 872.711 1561.12 872.711 1498.66C872.711 1436.2 838.89 1385.53 797.118 1385.53Z" fill="#263238"/>
<path d="M797.118 1613.73H752.458C751.933 1613.73 751.43 1613.52 751.059 1613.15C750.688 1612.78 750.48 1612.28 750.48 1611.76V1590.67C731.097 1569.03 719.546 1534.7 719.546 1498.66C719.546 1462.63 731.097 1428.29 750.48 1406.65V1385.53C750.48 1385.01 750.688 1384.5 751.059 1384.13C751.43 1383.76 751.933 1383.55 752.458 1383.55H797.118C839.879 1383.55 874.689 1435.21 874.689 1498.66C874.689 1562.11 839.799 1613.73 797.118 1613.73ZM754.436 1609.78H797.118C837.703 1609.78 870.733 1559.94 870.733 1498.66C870.733 1437.39 837.703 1387.51 797.118 1387.51H754.436V1407.29C754.435 1407.78 754.252 1408.26 753.921 1408.63C734.855 1429.52 723.502 1463.14 723.502 1498.54C723.502 1533.95 734.855 1567.57 753.921 1588.46C754.252 1588.83 754.435 1589.31 754.436 1589.8V1609.78Z" fill="#263238"/>
<path d="M1913.1 1478.41L1909.81 1441.3L1914.2 1422.67L1915.27 1398.54L1893.36 1362.19C1893.36 1362.19 1892.25 1315.04 1890.07 1309.54C1887.9 1304.04 1857.16 1279.95 1826.47 1269.98C1795.77 1260.02 1608.23 1237.11 1608.23 1237.11C1608.23 1237.11 1502.97 1152.54 1466.78 1135.13C1430.58 1117.73 1418.52 1115.36 1380.15 1104.44C1341.78 1093.52 1262.78 1093.48 1262.78 1093.48L1149.85 1086.88C1149.85 1086.88 1011.67 1081.42 936.002 1089.09C860.329 1096.76 821.959 1108.87 817.568 1111L804.396 1117.61C804.396 1117.61 756.137 1128.57 749.57 1135.13C743.004 1141.7 736.398 1151.59 751.785 1168.05L666.224 1261.24C666.224 1261.24 650.876 1262.35 651.983 1272.24C653.091 1282.13 653.051 1356.65 653.051 1356.65L644.309 1368.52C644.309 1368.52 637.703 1426.67 640.986 1436.52C646.711 1451.16 653.316 1465.44 660.765 1479.28C664.549 1484.91 669.384 1489.76 675.005 1493.56L676.667 1494.43C671.801 1478.61 662.308 1446.61 662.308 1436.36C662.308 1422.63 669.19 1379.68 700.084 1365.95C730.978 1352.22 767.094 1353.05 796.287 1376.27C825.48 1399.49 835.844 1446.68 845.219 1475.88C854.594 1505.07 865.828 1524.85 878.723 1533.43L886.635 1538.65C893.518 1538.65 897.632 1538.65 897.632 1538.65L1324.21 1548.54V1529.91C1324.21 1529.91 1306.65 1523.31 1303.37 1520.02C1300.08 1516.74 1288.02 1472.87 1298.98 1432.29C1309.93 1391.7 1343.95 1351.15 1387.82 1347.87C1431.69 1344.59 1482.12 1370.89 1499.65 1413.65C1517.17 1456.42 1523.78 1521.13 1525.99 1525.52C1528.21 1529.91 1533.67 1533.2 1545.77 1536.48L1557.84 1539.76L1579.75 1549.65L1868.28 1534.3C1868.28 1534.3 1912.15 1515.67 1917.65 1505.82C1923.14 1495.97 1913.1 1478.41 1913.1 1478.41Z" fill="white"/>
<path d="M1579.71 1551.67C1579.45 1551.73 1579.18 1551.73 1578.92 1551.67L1556.97 1541.82L1545.1 1538.61C1532.76 1535.25 1526.67 1531.77 1524.09 1526.75C1522.65 1521.56 1521.62 1516.27 1521.01 1510.93C1517.29 1488.14 1510.41 1445.77 1497.71 1414.84C1481.45 1375.28 1433.19 1346.84 1387.82 1350.24C1344.55 1353.53 1311.24 1394.47 1300.8 1433.31C1290.35 1472.16 1301.59 1515.59 1304.75 1519.15C1311.08 1523.03 1317.82 1526.18 1324.85 1528.57C1325.23 1528.71 1325.56 1528.96 1325.79 1529.29C1326.03 1529.62 1326.15 1530.02 1326.15 1530.43V1549.06C1326.13 1549.59 1325.92 1550.1 1325.56 1550.48C1325.17 1550.84 1324.66 1551.03 1324.13 1551.04L897.513 1541.15C897.513 1541.15 893.557 1541.15 886.635 1541.15C886.243 1541.15 885.857 1541.04 885.527 1540.83L877.616 1535.57C864.681 1526.95 853.13 1507.25 843.36 1477.02C841.936 1472.63 840.512 1467.89 839.009 1462.9C830.306 1433.83 819.23 1397.67 795.061 1378.33C768.439 1357.17 734.104 1353.49 700.915 1368.28C671.01 1381.57 664.286 1423.31 664.286 1436.87C664.286 1444.03 669.507 1464.96 678.566 1494.39C678.684 1494.76 678.687 1495.16 678.574 1495.54C678.461 1495.91 678.237 1496.24 677.933 1496.49C677.634 1496.74 677.268 1496.89 676.881 1496.93C676.494 1496.98 676.103 1496.9 675.757 1496.72L674.056 1495.81C668.122 1491.82 663.018 1486.72 659.025 1480.78C651.567 1466.82 644.962 1452.42 639.246 1437.67C635.923 1427.66 641.778 1374.81 642.45 1368.84C642.485 1368.49 642.607 1368.17 642.806 1367.89L651.192 1356.34C651.192 1349.02 651.192 1281.93 650.124 1272.75C649.947 1271.46 650.046 1270.15 650.414 1268.9C650.782 1267.66 651.412 1266.5 652.26 1265.51C655.838 1262.12 660.477 1260.07 665.393 1259.7L749.214 1168.36C734.46 1151.63 741.58 1140.67 748.305 1134.07C755.029 1127.46 797.869 1117.41 803.684 1116.03L816.619 1109.58C820.575 1107.48 858.194 1095.3 935.765 1087.43C1010.69 1079.83 1148.5 1085.17 1149.89 1085.25L1263.06 1091.5C1263.61 1091.5 1342.65 1091.5 1380.82 1102.54L1395.46 1106.69C1420.48 1112.88 1444.75 1121.82 1467.8 1133.35C1502.97 1150.4 1600.76 1228.49 1609.18 1235.25C1622.55 1236.87 1797.23 1258.51 1827.22 1268.16C1858.27 1278.13 1889.52 1302.38 1892.05 1308.79C1894.27 1314.25 1895.34 1354.75 1895.49 1361.56L1917.13 1397.16C1917.34 1397.49 1917.44 1397.88 1917.41 1398.27L1916.34 1422.4L1911.79 1441.3L1915.04 1477.86C1916.54 1480.62 1924.77 1496.84 1919.23 1506.81C1913.69 1516.78 1873.46 1534.22 1868.91 1536.16C1868.69 1536.22 1868.46 1536.22 1868.24 1536.16L1579.83 1551.51L1579.71 1551.67ZM1395.34 1345.62C1439.96 1345.62 1485.57 1374.06 1501.51 1412.86C1514.36 1444.19 1521.29 1486.87 1525.24 1509.82C1525.9 1514.78 1526.81 1519.7 1527.97 1524.57C1529.95 1528.53 1535.49 1531.53 1546.44 1534.54L1558.51 1537.82L1580.3 1547.59L1867.88 1532.29C1880.15 1527.06 1911.75 1512.51 1915.94 1504.6C1920.85 1495.81 1911.67 1479.28 1911.55 1479.12C1911.43 1478.87 1911.35 1478.6 1911.32 1478.33L1907.84 1441.3C1907.82 1441.09 1907.82 1440.88 1907.84 1440.67L1912.23 1422.04L1913.26 1398.9L1891.62 1363.3C1891.45 1363 1891.35 1362.66 1891.34 1362.31C1890.91 1344.23 1889.68 1314.13 1888.18 1310.37C1886.44 1305.98 1856.85 1282.01 1825.83 1272.04C1795.65 1262.35 1609.81 1239.45 1607.95 1239.21C1607.59 1239.16 1607.25 1239.01 1606.97 1238.77C1605.9 1237.94 1501.43 1154.28 1465.87 1137.03C1443.04 1125.57 1419 1116.71 1394.19 1110.61L1379.55 1106.46C1341.9 1095.7 1263.53 1095.58 1262.74 1095.58L1149.69 1088.97C1148.34 1088.97 1010.8 1083.59 936.081 1091.19C860.092 1099.1 822.157 1110.97 818.32 1112.9L805.187 1119.47C805.031 1119.5 804.869 1119.5 804.713 1119.47C785.567 1123.86 755.385 1131.97 750.836 1136.52C743.914 1143.48 739.365 1151.95 753.091 1166.66C753.43 1167.03 753.619 1167.51 753.619 1168.01C753.619 1168.51 753.43 1168.99 753.091 1169.35L667.569 1262.55C667.232 1262.92 666.764 1263.15 666.264 1263.18C662.123 1263.4 658.173 1264.99 655.029 1267.69C654.545 1268.28 654.187 1268.96 653.976 1269.7C653.765 1270.43 653.706 1271.2 653.803 1271.96C654.911 1281.85 654.911 1353.57 654.911 1356.61C654.914 1357.04 654.79 1357.45 654.555 1357.8L646.09 1369.43C644.23 1385.89 640.196 1428.37 642.767 1436.04C648.407 1450.57 654.946 1464.73 662.347 1478.45C665.199 1482.88 668.832 1486.75 673.067 1489.88C667.648 1472.04 660.211 1445.85 660.211 1436.52C660.211 1422.28 667.371 1378.45 699.175 1364.29C733.787 1348.94 769.586 1352.78 797.395 1374.85C822.751 1394.98 833.787 1431.81 842.687 1461.4C844.19 1466.38 845.615 1471.09 846.999 1475.44C856.493 1504.79 867.49 1523.82 879.713 1531.93C882.323 1533.71 884.815 1535.33 887.11 1536.83C893.597 1536.83 897.434 1536.83 897.434 1536.83L1322.39 1546.57V1531.3C1318.04 1529.64 1305.19 1524.53 1302.14 1521.45C1297.71 1517.02 1286.32 1471.92 1297.24 1431.81C1308.15 1391.7 1342.69 1349.3 1387.82 1345.93C1390.19 1345.74 1392.77 1345.62 1395.34 1345.62Z" fill="#263238"/>
<path d="M1608.23 1237.15C1608.23 1237.15 1502.97 1152.54 1466.78 1135.13C1430.58 1117.73 1418.52 1115.36 1380.15 1104.44C1341.78 1093.52 1262.78 1093.48 1262.78 1093.48L1149.85 1086.88C1149.85 1086.88 1011.67 1081.42 936.002 1089.09C860.33 1096.76 821.959 1108.87 817.569 1111L804.396 1117.61C804.396 1117.61 756.137 1128.57 749.57 1135.13C743.004 1141.7 736.398 1151.59 751.785 1168.05H806.611L881.176 1232.76L1279.24 1247L1280.34 1234.94L1596.17 1233.83C1600.43 1233.7 1604.64 1234.85 1608.23 1237.15Z" fill="#263238"/>
<path d="M1279.24 1248.98L881.176 1234.74C880.722 1234.7 880.292 1234.52 879.95 1234.22L805.939 1170.02H751.785C751.511 1170.02 751.24 1169.97 750.988 1169.86C750.737 1169.75 750.51 1169.59 750.322 1169.39C733.985 1151.87 741.263 1140.67 748.186 1133.79C755.108 1126.91 797.75 1117.14 803.565 1115.75L816.5 1109.3C820.456 1107.21 858.075 1095.02 935.646 1087.15C1010.57 1079.56 1148.38 1084.9 1149.77 1084.98L1263.06 1091.5C1265.19 1091.5 1342.96 1091.74 1380.78 1102.54L1395.42 1106.69C1420.44 1112.88 1444.71 1121.82 1467.77 1133.35C1503.72 1150.8 1605.3 1232.25 1609.58 1235.61C1609.78 1235.76 1609.95 1235.96 1610.08 1236.18C1610.21 1236.4 1610.29 1236.65 1610.32 1236.9C1610.36 1237.15 1610.34 1237.41 1610.27 1237.66C1610.2 1237.91 1610.09 1238.14 1609.93 1238.34C1609.61 1238.75 1609.14 1239.02 1608.63 1239.09C1608.11 1239.17 1607.59 1239.04 1607.16 1238.73C1603.91 1236.71 1600.12 1235.69 1596.29 1235.81L1282.28 1236.91L1281.33 1247.16C1281.29 1247.68 1281.05 1248.16 1280.66 1248.5C1280.27 1248.84 1279.76 1249.01 1279.24 1248.98ZM881.927 1230.78L1277.5 1244.94L1278.41 1234.78C1278.45 1234.28 1278.67 1233.82 1279.04 1233.48C1279.41 1233.14 1279.89 1232.96 1280.38 1232.96L1596.21 1231.85C1597 1231.81 1597.79 1231.81 1598.58 1231.85C1572.87 1211.52 1495.53 1151.16 1465.95 1136.91C1443.12 1125.45 1419.07 1116.59 1394.27 1110.49L1379.63 1106.34C1341.97 1095.58 1263.61 1095.46 1262.82 1095.46L1149.77 1088.85C1148.42 1088.85 1010.88 1083.47 936.16 1091.07C860.171 1098.98 822.236 1110.85 818.399 1112.78L805.266 1119.35C805.11 1119.39 804.948 1119.39 804.792 1119.35C785.646 1123.74 755.464 1131.85 750.915 1136.4C744.072 1143.24 739.562 1151.59 752.576 1165.91H806.572C807.038 1165.9 807.49 1166.07 807.837 1166.38L881.927 1230.78Z" fill="#263238"/>
<path d="M1608.23 1237.15C1608.23 1237.15 1502.97 1152.54 1466.78 1135.13C1454.63 1129.24 1445.22 1125.13 1436.59 1121.76C1418.83 1118.44 1400.99 1116.5 1400.99 1116.5L1170.73 1098.94C1195.22 1116.51 1218.32 1135.95 1239.8 1157.09C1268.16 1185.41 1299.96 1225.72 1308.86 1234.86L1596.21 1233.83C1600.46 1233.7 1604.65 1234.86 1608.23 1237.15Z" fill="#8C8C8C"/>
<path d="M1608.23 1239.09C1607.81 1239.09 1607.4 1238.97 1607.04 1238.73C1603.79 1236.71 1600 1235.69 1596.17 1235.81L1308.83 1236.8C1308.56 1236.8 1308.3 1236.75 1308.05 1236.65C1307.8 1236.55 1307.58 1236.4 1307.4 1236.2C1304.32 1233.04 1298.5 1226.19 1291.14 1217.49C1276.71 1200.44 1256.93 1177.07 1238.37 1158.47C1216.95 1137.44 1193.94 1118.08 1169.55 1100.56C1169.19 1100.32 1168.92 1099.97 1168.8 1099.56C1168.67 1099.15 1168.68 1098.71 1168.83 1098.31C1168.97 1097.9 1169.23 1097.55 1169.59 1097.31C1169.95 1097.07 1170.38 1096.96 1170.81 1097L1401.11 1114.53C1401.35 1114.53 1419.35 1116.5 1436.95 1119.83C1446.17 1123.35 1455.78 1127.74 1467.65 1133.35C1503.6 1150.8 1605.19 1232.25 1609.46 1235.61C1609.78 1235.86 1610.02 1236.2 1610.14 1236.6C1610.26 1236.99 1610.25 1237.41 1610.11 1237.8C1609.98 1238.18 1609.72 1238.52 1609.38 1238.75C1609.04 1238.98 1608.64 1239.1 1608.23 1239.09ZM1177.54 1101.47C1200.01 1118.01 1221.27 1136.12 1241.18 1155.66C1259.85 1174.38 1279.71 1197.83 1294.19 1215C1301.03 1223.11 1306.53 1229.6 1309.66 1232.88L1596.17 1231.89C1596.96 1231.85 1597.75 1231.85 1598.54 1231.89C1572.83 1211.56 1495.49 1151.19 1465.91 1136.95C1454.04 1131.3 1444.62 1127.03 1435.84 1123.66C1418.75 1120.46 1400.95 1118.52 1400.76 1118.52L1177.54 1101.47Z" fill="#263238"/>
<path d="M889.8 1233.04L995.654 1236.99C998.067 1218.8 1002.93 1184.98 1008.39 1167.1C1014.19 1149.13 1021.14 1131.56 1029.2 1114.49L914.048 1120.89C914.048 1120.89 895.694 1187.71 889.8 1233.04Z" fill="#8C8C8C"/>
<path d="M995.654 1238.81L889.839 1234.86C889.56 1234.86 889.284 1234.8 889.031 1234.69C888.777 1234.57 888.553 1234.4 888.375 1234.18C888.199 1233.97 888.069 1233.73 887.994 1233.46C887.92 1233.19 887.901 1232.92 887.94 1232.64C893.755 1187.67 912.07 1120.89 912.228 1120.22C912.337 1119.82 912.572 1119.46 912.899 1119.19C913.226 1118.93 913.628 1118.78 914.048 1118.76L1029.2 1112.19C1029.54 1112.16 1029.89 1112.22 1030.19 1112.37C1030.5 1112.53 1030.76 1112.77 1030.94 1113.06C1031.11 1113.35 1031.2 1113.69 1031.2 1114.03C1031.2 1114.37 1031.11 1114.71 1030.94 1115C1022.93 1132 1016.02 1149.49 1010.25 1167.37C1004.87 1185.02 1000 1218.56 997.592 1236.95C997.562 1237.45 997.346 1237.92 996.987 1238.26C996.627 1238.61 996.151 1238.8 995.654 1238.81ZM892.054 1231.14L993.953 1234.82C996.445 1215.99 1001.19 1183.75 1006.49 1166.38C1011.95 1149.35 1018.48 1132.68 1026.03 1116.46L915.591 1122.79C913.019 1132.37 897.632 1190.12 892.054 1231.14Z" fill="#263238"/>
<path d="M881.176 1232.76C881.176 1232.76 898.344 1140.28 907.046 1123.66C907.046 1123.66 860.092 1127.1 848.067 1134.54C839.088 1140.08 819.27 1160.65 809.776 1170.7L881.176 1232.76Z" fill="#8C8C8C"/>
<path d="M881.176 1234.74C880.694 1234.73 880.231 1234.55 879.871 1234.22L808.392 1172.32C808.185 1172.15 808.016 1171.94 807.894 1171.7C807.771 1171.46 807.698 1171.2 807.68 1170.93C807.676 1170.39 807.874 1169.87 808.233 1169.47C818.795 1158.24 837.901 1138.54 846.92 1132.96C859.183 1125.36 904.831 1121.96 906.77 1121.8C907.117 1121.78 907.466 1121.84 907.779 1121.99C908.093 1122.15 908.359 1122.38 908.55 1122.67C908.723 1122.98 908.814 1123.33 908.814 1123.68C908.814 1124.04 908.723 1124.38 908.55 1124.69C900.322 1140.67 883.312 1232.17 883.312 1233.12C883.243 1233.46 883.087 1233.78 882.858 1234.04C882.629 1234.3 882.336 1234.5 882.007 1234.62C881.744 1234.73 881.459 1234.77 881.176 1234.74ZM812.545 1170.58L879.792 1229C882.838 1212.9 895.615 1146.13 903.526 1125.92C892.687 1126.83 858.431 1130.23 848.74 1136.2C840.512 1141.46 821.643 1160.93 812.545 1170.58Z" fill="#263238"/>
<path d="M1267.01 1239.33C1267.01 1239.33 1206.85 1161.48 1172.87 1140.67C1138.89 1119.87 1076.35 1116.54 1069.78 1115.44L1063.22 1114.37C1063.22 1114.37 1033.11 1160.53 1040.12 1238.5L1270.97 1246.72L1267.01 1239.33Z" fill="#8C8C8C"/>
<path d="M1270.97 1248.7L1040.12 1240.4C1039.64 1240.38 1039.18 1240.19 1038.83 1239.86C1038.48 1239.53 1038.27 1239.09 1038.22 1238.62C1031.26 1160.89 1061.32 1113.69 1061.64 1113.22C1061.85 1112.91 1062.15 1112.66 1062.5 1112.5C1062.85 1112.35 1063.24 1112.3 1063.61 1112.35L1070.18 1113.46C1071.09 1113.46 1073.03 1113.77 1075.76 1114.05C1092.73 1115.71 1144.31 1120.74 1173.98 1138.93C1207.92 1159.74 1266.34 1234.94 1268.91 1238.1L1269.11 1238.42L1272.87 1245.81C1273.04 1246.11 1273.12 1246.44 1273.12 1246.78C1273.12 1247.12 1273.04 1247.46 1272.87 1247.75C1272.68 1248.08 1272.4 1248.34 1272.06 1248.51C1271.72 1248.68 1271.34 1248.75 1270.97 1248.7ZM1041.94 1236.52L1267.65 1244.43L1265.51 1240.2C1262.54 1236.24 1204.44 1162.11 1171.84 1142.14C1142.92 1124.41 1092.01 1119.43 1075.32 1117.81C1072.43 1117.53 1070.38 1117.33 1069.47 1117.18L1064.21 1116.27C1059.89 1123.82 1036.24 1167.73 1041.94 1236.52Z" fill="#263238"/>
<path d="M1204.59 1264.72C1203.01 1264.73 1201.44 1264.59 1199.89 1264.29C1194.31 1263.18 1183.51 1245.97 1179.47 1239.17C1172.51 1239.56 1144.23 1240.87 1137.78 1236.6C1136.24 1235.21 1135.07 1233.46 1134.38 1231.5C1133.69 1229.55 1133.5 1227.45 1133.83 1225.4C1134.1 1215.47 1139.32 1202.54 1148.78 1197.04C1162.78 1188.89 1197.55 1192.45 1203.84 1193.52H1204.63C1211.4 1194.63 1221.6 1196.29 1226.19 1210.06C1230.15 1222.32 1220.77 1235.81 1217.84 1239.52C1219.27 1242.89 1222.79 1252.26 1220.69 1257.48C1218.6 1262.71 1210.84 1264.72 1204.59 1264.72ZM1180.54 1235.13C1180.89 1235.14 1181.23 1235.23 1181.52 1235.4C1181.82 1235.58 1182.07 1235.82 1182.24 1236.12C1188.89 1247.36 1197.83 1259.86 1200.68 1260.41C1206.02 1261.48 1215.51 1260.13 1217.09 1256.14C1218.68 1252.14 1215.83 1244.51 1213.85 1240.32C1213.7 1239.97 1213.64 1239.59 1213.69 1239.21C1213.74 1238.83 1213.89 1238.48 1214.13 1238.18C1214.13 1238.18 1226.51 1223.54 1222.55 1211.6C1218.6 1199.65 1210.68 1198.78 1204.08 1197.71H1203.25C1195.14 1196.37 1162.78 1193.76 1150.84 1200.76C1142.92 1205.51 1138.1 1217.21 1137.86 1225.84C1137.61 1227.23 1137.67 1228.66 1138.04 1230.03C1138.4 1231.39 1139.05 1232.66 1139.96 1233.75C1144.35 1236.64 1167.09 1236.44 1180.42 1235.61L1180.54 1235.13Z" fill="#263238"/>
<path d="M1215.59 1239.33C1215.59 1239.33 1228.76 1223.98 1224.37 1210.81C1219.98 1197.63 1210.13 1196.57 1203.53 1195.46C1196.92 1194.35 1162.98 1191.07 1149.81 1198.74C1136.63 1206.42 1132.24 1230.39 1138.85 1234.94C1145.46 1239.49 1180.5 1237.15 1180.5 1237.15C1180.5 1237.15 1194.78 1261.24 1200.28 1262.35C1205.78 1263.46 1216.74 1262.35 1218.91 1256.89C1221.09 1251.43 1215.59 1239.33 1215.59 1239.33Z" fill="#263238"/>
<path d="M1204.59 1264.72C1203.01 1264.73 1201.44 1264.59 1199.89 1264.29C1194.31 1263.18 1183.51 1245.97 1179.47 1239.17C1172.51 1239.56 1144.23 1240.87 1137.78 1236.6C1136.24 1235.21 1135.07 1233.46 1134.38 1231.5C1133.69 1229.55 1133.5 1227.45 1133.83 1225.4C1134.1 1215.47 1139.32 1202.54 1148.78 1197.04C1162.78 1188.89 1197.55 1192.45 1203.84 1193.52H1204.63C1211.4 1194.63 1221.6 1196.29 1226.19 1210.06C1230.15 1222.32 1220.77 1235.81 1217.84 1239.52C1219.27 1242.89 1222.79 1252.26 1220.69 1257.48C1218.6 1262.71 1210.84 1264.72 1204.59 1264.72ZM1180.54 1235.13C1180.89 1235.14 1181.23 1235.23 1181.52 1235.4C1181.82 1235.58 1182.07 1235.82 1182.24 1236.12C1188.89 1247.36 1197.83 1259.86 1200.68 1260.41C1206.02 1261.48 1215.51 1260.13 1217.09 1256.14C1218.68 1252.14 1215.83 1244.51 1213.85 1240.32C1213.7 1239.97 1213.64 1239.59 1213.69 1239.21C1213.74 1238.83 1213.89 1238.48 1214.13 1238.18C1214.13 1238.18 1226.51 1223.54 1222.55 1211.6C1218.6 1199.65 1210.68 1198.78 1204.08 1197.71H1203.25C1195.14 1196.37 1162.78 1193.76 1150.84 1200.76C1142.92 1205.51 1138.1 1217.21 1137.86 1225.84C1137.61 1227.23 1137.67 1228.66 1138.04 1230.03C1138.4 1231.39 1139.05 1232.66 1139.96 1233.75C1144.35 1236.64 1167.09 1236.44 1180.42 1235.61L1180.54 1235.13Z" fill="#263238"/>
<path d="M1728.96 1411.08C1728.75 1411.12 1728.54 1411.12 1728.33 1411.08C1728.33 1411.08 1713.65 1405.9 1699.33 1402.54C1685.01 1399.18 1540.51 1391.5 1539.05 1391.42C1538.53 1391.39 1538.04 1391.16 1537.7 1390.78C1537.35 1390.39 1537.17 1389.88 1537.19 1389.37C1537.22 1388.84 1537.46 1388.34 1537.85 1387.99C1538.24 1387.63 1538.76 1387.45 1539.28 1387.47C1545.26 1387.78 1685.64 1395.38 1700.2 1398.7C1713.49 1401.83 1726.94 1406.42 1729.28 1407.21L1906.69 1401.23C1907.2 1401.23 1907.7 1401.43 1908.07 1401.78C1908.45 1402.14 1908.68 1402.62 1908.71 1403.13C1908.72 1403.39 1908.68 1403.65 1908.59 1403.9C1908.5 1404.14 1908.36 1404.36 1908.18 1404.55C1908.01 1404.75 1907.79 1404.9 1907.56 1405.01C1907.32 1405.12 1907.07 1405.18 1906.81 1405.19L1729.04 1411.2L1728.96 1411.08Z" fill="#263238"/>
<path d="M1266.06 1448.86C1265.55 1448.86 1265.06 1448.66 1264.69 1448.31C1264.32 1447.96 1264.11 1447.47 1264.09 1446.96C1262.02 1384.45 1266.06 1321.9 1276.15 1260.17C1276.25 1259.66 1276.54 1259.2 1276.97 1258.9C1277.4 1258.6 1277.93 1258.47 1278.45 1258.55C1278.96 1258.65 1279.41 1258.94 1279.71 1259.37C1280.01 1259.8 1280.12 1260.33 1280.03 1260.85C1270.08 1322.29 1266.1 1384.55 1268.16 1446.76C1268.17 1447.02 1268.13 1447.28 1268.04 1447.53C1267.95 1447.77 1267.81 1447.99 1267.64 1448.19C1267.46 1448.38 1267.25 1448.53 1267.01 1448.64C1266.78 1448.75 1266.52 1448.81 1266.26 1448.82L1266.06 1448.86Z" fill="#263238"/>
<path d="M1689.05 1322.63C1674.37 1322.63 1482.8 1297.91 1474.49 1296.84L1273.66 1283.95C1273.4 1283.93 1273.15 1283.87 1272.91 1283.75C1272.68 1283.64 1272.47 1283.48 1272.3 1283.29C1272.12 1283.09 1271.99 1282.86 1271.9 1282.62C1271.82 1282.37 1271.78 1282.11 1271.8 1281.85C1271.86 1281.33 1272.11 1280.86 1272.51 1280.52C1272.91 1280.18 1273.42 1280.01 1273.94 1280.03L1474.89 1292.89C1532.28 1300.28 1682.44 1319.31 1689.28 1318.68C1697.87 1317.81 1707.4 1317.81 1707.48 1317.81C1708 1317.81 1708.51 1318.02 1708.88 1318.39C1709.25 1318.76 1709.46 1319.26 1709.46 1319.79C1709.46 1320.31 1709.25 1320.81 1708.88 1321.18C1708.51 1321.56 1708 1321.76 1707.48 1321.76C1707.48 1321.76 1698.03 1321.76 1689.64 1322.59L1689.05 1322.63Z" fill="#263238"/>
<path d="M1762.46 1395.66H1746.13C1732.32 1395.66 1708.55 1375.32 1705.74 1369.67C1703.84 1365.91 1702.93 1352.7 1702.93 1329.28C1702.93 1320.42 1707.68 1311 1716.74 1310.13C1720.69 1309.7 1771.44 1305.9 1814.84 1305.82H1816.18C1852.97 1305.82 1884.3 1309.22 1884.62 1309.26C1884.88 1309.29 1885.13 1309.37 1885.36 1309.5C1885.59 1309.62 1885.79 1309.79 1885.95 1310C1886.11 1310.2 1886.24 1310.43 1886.31 1310.69C1886.38 1310.94 1886.41 1311.2 1886.38 1311.46C1886.35 1311.72 1886.27 1311.97 1886.14 1312.2C1886.02 1312.43 1885.85 1312.63 1885.64 1312.79C1885.44 1312.96 1885.21 1313.08 1884.95 1313.15C1884.7 1313.23 1884.44 1313.25 1884.18 1313.22C1883.86 1313.22 1851.98 1309.86 1814.84 1309.82C1771.6 1309.82 1721.17 1313.77 1717.13 1314.09C1709.62 1314.84 1706.89 1323.58 1706.89 1329.32C1706.89 1359.9 1708.55 1366.5 1709.26 1367.93C1711.71 1372.83 1734.18 1391.66 1746.13 1391.66H1750.08C1851.19 1391.94 1872.04 1388.22 1875.44 1385.96C1885.05 1379.56 1891.26 1361.68 1891.26 1361.52C1891.47 1361.08 1891.83 1360.74 1892.28 1360.55C1892.73 1360.36 1893.22 1360.34 1893.68 1360.5C1894.14 1360.66 1894.53 1360.98 1894.77 1361.4C1895 1361.82 1895.08 1362.31 1894.98 1362.78C1894.74 1363.58 1888.3 1382.13 1877.54 1389.25C1871.36 1393.56 1833.59 1395.66 1762.46 1395.66Z" fill="#263238"/>
<path d="M1493.64 1299.18C1493.64 1299.18 1520.26 1332.64 1533.19 1341.23C1546.13 1349.81 1548.66 1350.68 1555.54 1351.55C1562.43 1352.42 1637.11 1357.56 1647.43 1357.56C1657.76 1357.56 1664.6 1356.69 1668.87 1352.42C1673.14 1348.15 1683.47 1320.77 1683.47 1320.77L1493.64 1299.18Z" fill="#92E3A9"/>
<path d="M1647.39 1359.54C1636.55 1359.54 1561.91 1354.36 1555.23 1353.53C1547.91 1352.58 1545.1 1351.59 1532.05 1342.89C1518.99 1334.18 1493.2 1301.79 1492.09 1300.4C1491.88 1300.07 1491.77 1299.69 1491.77 1299.3C1491.77 1298.9 1491.88 1298.52 1492.09 1298.19C1492.28 1297.85 1492.56 1297.57 1492.91 1297.4C1493.26 1297.22 1493.65 1297.15 1494.03 1297.2L1683.9 1318.68C1684.2 1318.7 1684.49 1318.8 1684.75 1318.96C1685 1319.12 1685.21 1319.33 1685.37 1319.59C1685.5 1319.86 1685.57 1320.16 1685.57 1320.46C1685.57 1320.76 1685.5 1321.06 1685.37 1321.33C1684.3 1324.18 1674.81 1349.33 1670.34 1353.8C1665.87 1358.27 1658.23 1359.54 1647.39 1359.54ZM1498.22 1301.67C1505.54 1310.61 1524.29 1332.96 1534.26 1339.6C1547.2 1348.23 1549.37 1348.78 1555.74 1349.57C1562.11 1350.36 1637.15 1355.58 1647.39 1355.58C1657.64 1355.58 1663.61 1354.83 1667.45 1351C1670.18 1348.31 1676.55 1333.16 1680.7 1322.32L1498.22 1301.67Z" fill="#263238"/>
<path d="M1573.5 1438.3C1573.5 1438.3 1564.09 1464.92 1564.09 1469.19C1564.09 1473.46 1573.5 1479.52 1576.94 1479.52C1580.38 1479.52 1644.78 1480.39 1649.09 1478.65C1653.41 1476.91 1676.78 1452.02 1675.72 1448.58C1674.65 1445.14 1661.99 1439.17 1661.99 1439.17L1573.5 1438.3Z" fill="#263238"/>
<path d="M1613.18 1481.69C1604.51 1481.69 1593.83 1481.69 1580.62 1481.69H1576.94C1572.63 1481.69 1562.11 1475.13 1562.11 1469.39C1562.11 1465 1570.02 1442.33 1571.64 1437.74C1571.76 1437.34 1572.01 1436.99 1572.36 1436.75C1572.71 1436.52 1573.12 1436.4 1573.54 1436.44L1661.99 1437.31C1662.26 1437.25 1662.55 1437.25 1662.82 1437.31C1666.78 1439.25 1676.67 1444.15 1677.66 1448.07C1679 1453.57 1653.37 1479.04 1649.97 1480.47C1648.34 1481.1 1642.29 1481.69 1613.18 1481.69ZM1574.93 1440.28C1571.34 1449.71 1568.38 1459.37 1566.07 1469.19C1566.07 1472.12 1574.29 1477.54 1576.94 1477.54H1580.66C1636.04 1478.09 1646.84 1477.3 1648.38 1476.79C1651.94 1475.36 1673.11 1452.74 1673.78 1448.7C1670.13 1445.52 1665.99 1442.96 1661.52 1441.11L1574.93 1440.28Z" fill="#263238"/>
<path d="M1917.49 1505.82C1922.99 1495.93 1913.1 1478.41 1913.1 1478.41L1899.92 1452.02L1720.42 1456.34C1720.42 1456.34 1692.92 1492.41 1688.77 1494.11C1685.14 1495.24 1681.37 1495.81 1677.57 1495.81C1677.57 1495.81 1571.09 1491.54 1563.37 1488.1C1555.66 1484.66 1549.65 1474.37 1546.21 1471.8C1541 1469.19 1535.52 1467.18 1529.87 1465.79C1529.87 1465.79 1518.71 1414.37 1498.98 1387.63C1479.24 1360.89 1435.25 1337.82 1404.32 1334.5C1373.38 1331.18 1330.46 1350.8 1313.34 1371.41C1296.21 1392.02 1285.01 1422.08 1282.4 1454.71L1256.65 1451.31C1256.65 1451.31 1238.61 1470.18 1228.33 1474.49C1218.04 1478.8 913.969 1463.3 905.385 1460.73C896.801 1458.16 874.491 1436.68 869.309 1434.98C864.127 1433.27 844.428 1430.66 844.428 1430.66C844.428 1430.66 831.532 1375.72 799.768 1355.11C768.004 1334.5 725.085 1334.5 700.085 1348.98C675.085 1363.46 664.009 1390.2 660.528 1398.78C657.047 1407.36 655.346 1412.55 655.346 1412.55L640.71 1408C639.879 1420.77 639.602 1432.72 640.908 1436.72C646.632 1451.36 653.237 1465.64 660.686 1479.48C664.47 1485.11 669.305 1489.96 674.927 1493.76L676.588 1494.63C671.722 1478.8 662.229 1446.8 662.229 1436.56C662.229 1422.83 669.112 1379.87 700.006 1366.15C730.9 1352.42 767.015 1353.25 796.208 1376.47C825.401 1399.69 835.765 1446.88 845.14 1476.08C854.515 1505.27 865.749 1525.05 878.645 1533.63L886.556 1538.85C893.439 1538.85 897.553 1538.85 897.553 1538.85L1324.13 1548.74V1530.11C1324.13 1530.11 1306.57 1523.5 1303.29 1520.22C1300 1516.94 1287.94 1473.07 1298.9 1432.48C1309.85 1391.9 1343.87 1351.35 1387.74 1348.07C1431.61 1344.79 1482.05 1371.09 1499.57 1413.85C1517.09 1456.61 1523.7 1521.33 1525.91 1525.72C1528.13 1530.11 1533.59 1533.39 1545.69 1536.68L1557.76 1539.96L1579.67 1549.85L1868.28 1534.3C1868.28 1534.3 1911.99 1515.67 1917.49 1505.82Z" fill="#545454"/>
<path d="M1579.71 1551.67C1579.45 1551.73 1579.18 1551.73 1578.92 1551.67L1556.97 1541.82L1545.1 1538.61C1532.76 1535.25 1526.67 1531.77 1524.09 1526.75C1522.65 1521.56 1521.62 1516.27 1521.01 1510.93C1517.29 1488.14 1510.41 1445.77 1497.71 1414.84C1481.45 1375.28 1433.23 1346.88 1387.82 1350.25C1344.55 1353.53 1311.24 1394.47 1300.8 1433.31C1290.35 1472.16 1301.59 1515.59 1304.75 1519.15C1311.08 1523.03 1317.82 1526.18 1324.85 1528.57C1325.23 1528.71 1325.56 1528.96 1325.79 1529.29C1326.03 1529.62 1326.15 1530.02 1326.15 1530.43V1549.06C1326.13 1549.59 1325.92 1550.1 1325.56 1550.48C1325.17 1550.84 1324.66 1551.04 1324.13 1551.04L897.513 1541.15C897.513 1541.15 893.557 1541.15 886.635 1541.15C886.243 1541.15 885.857 1541.04 885.527 1540.83L877.616 1535.57C864.681 1526.95 853.13 1507.25 843.36 1477.02C841.936 1472.63 840.512 1467.89 839.009 1462.9C830.306 1433.83 819.23 1397.67 795.061 1378.33C768.439 1357.17 734.104 1353.49 700.915 1368.28C671.01 1381.57 664.286 1423.31 664.286 1436.87C664.286 1444.03 669.507 1464.96 678.566 1494.39C678.684 1494.76 678.687 1495.16 678.574 1495.54C678.461 1495.91 678.237 1496.24 677.933 1496.49C677.634 1496.74 677.268 1496.89 676.881 1496.93C676.494 1496.98 676.103 1496.9 675.757 1496.72L674.056 1495.81C668.122 1491.82 663.018 1486.72 659.025 1480.78C651.567 1466.82 644.962 1452.42 639.246 1437.67C638.02 1433.91 637.901 1424.3 638.93 1408.16C638.944 1407.86 639.028 1407.56 639.176 1407.3C639.323 1407.04 639.53 1406.81 639.779 1406.64C640.029 1406.47 640.315 1406.36 640.613 1406.33C640.912 1406.29 641.216 1406.32 641.501 1406.42L654.317 1410.37C655.109 1408.16 656.612 1404.04 658.866 1398.5C670.733 1369.19 687.268 1354.71 699.215 1347.71C722.751 1333.91 766.461 1331.34 800.915 1353.77C830.583 1373.03 843.874 1420.46 846.089 1429.2C854.139 1430.16 862.129 1431.58 870.021 1433.43C875.174 1436.31 879.967 1439.79 884.301 1443.8C891.975 1450.05 901.508 1457.8 906.057 1459.15C919.151 1463.1 1219.74 1475.84 1227.65 1472.95C1237.43 1468.99 1255.11 1450.44 1255.34 1450.24C1255.56 1450.02 1255.83 1449.85 1256.13 1449.75C1256.42 1449.64 1256.74 1449.61 1257.05 1449.65L1280.78 1452.82C1283.67 1420.77 1294.98 1390.83 1311.99 1370.46C1329 1350.09 1372.55 1329.32 1404.75 1332.84C1437.66 1336.52 1481.57 1361.24 1500.6 1386.87C1518.95 1411.64 1529.75 1456.57 1531.61 1464.6C1537.12 1465.95 1542.43 1467.98 1547.43 1470.66C1549.18 1472.17 1550.76 1473.87 1552.14 1475.72C1555.33 1480.21 1559.44 1483.96 1564.21 1486.72C1569.62 1489.13 1635.05 1492.57 1677.73 1494.31C1681.23 1494.29 1684.71 1493.76 1688.06 1492.73C1690.67 1491.46 1705.86 1472.95 1718.99 1455.58C1719.16 1455.34 1719.4 1455.14 1719.66 1455C1719.93 1454.86 1720.23 1454.79 1720.53 1454.79L1899.92 1450.05C1900.3 1450.05 1900.67 1450.15 1900.99 1450.35C1901.31 1450.54 1901.57 1450.82 1901.74 1451.15L1915 1477.5C1915.35 1478.17 1925.28 1496.05 1919.35 1506.77C1913.41 1517.49 1873.58 1534.18 1869.03 1536.12C1868.81 1536.18 1868.58 1536.18 1868.36 1536.12L1579.95 1551.47L1579.71 1551.67ZM1395.34 1345.62C1439.96 1345.62 1485.57 1374.06 1501.51 1412.86C1514.36 1444.19 1521.29 1486.87 1525.24 1509.82C1525.9 1514.78 1526.81 1519.7 1527.97 1524.57C1529.95 1528.53 1535.49 1531.53 1546.44 1534.54L1558.51 1537.82L1580.3 1547.59L1867.88 1532.29C1880.15 1527.06 1911.75 1512.51 1915.94 1504.6C1919.9 1497.32 1914.16 1483.75 1911.55 1479.12L1898.86 1453.81L1721.56 1458.04C1714.44 1467.37 1693.87 1493.99 1689.52 1495.7C1685.69 1496.94 1681.68 1497.59 1677.65 1497.59C1666.62 1497.12 1570.46 1493.16 1562.62 1489.68C1557.28 1486.67 1552.66 1482.53 1549.09 1477.54C1547.91 1475.96 1546.58 1474.49 1545.14 1473.15C1540.1 1470.64 1534.79 1468.73 1529.32 1467.45C1528.96 1467.35 1528.65 1467.16 1528.4 1466.9C1528.15 1466.63 1527.97 1466.3 1527.89 1465.95C1527.89 1465.43 1516.58 1414.53 1497.31 1388.58C1478.88 1363.69 1436.24 1339.64 1404.24 1336.08C1373.78 1332.68 1331.21 1352.78 1314.92 1372.32C1298.11 1392.53 1286.99 1422.48 1284.46 1454.52C1284.44 1454.78 1284.37 1455.04 1284.24 1455.28C1284.12 1455.52 1283.95 1455.73 1283.75 1455.9C1283.54 1456.08 1283.3 1456.21 1283.04 1456.28C1282.78 1456.36 1282.51 1456.38 1282.24 1456.34L1257.44 1453.01C1253.96 1456.61 1238.65 1472 1229.16 1475.96C1222.67 1478.65 1124.29 1474.49 1066.18 1471.8C992.133 1468.36 909.657 1463.89 904.91 1462.27C900.163 1460.65 890.156 1452.97 881.809 1446.17C877.756 1442.57 873.402 1439.33 868.795 1436.48C863.85 1434.86 844.428 1432.52 844.23 1432.29C843.836 1432.23 843.467 1432.05 843.172 1431.79C842.876 1431.52 842.666 1431.17 842.569 1430.78C842.569 1430.23 829.475 1376.35 798.779 1356.42C765.551 1334.86 723.621 1337.27 701.232 1350.44C689.8 1357.13 673.859 1371.01 662.545 1399.3C659.183 1407.72 657.442 1412.86 657.442 1412.9C657.279 1413.4 656.926 1413.81 656.458 1414.05C655.991 1414.29 655.449 1414.33 654.95 1414.17L642.727 1410.21C641.699 1427.46 642.292 1433.59 643.004 1435.69C648.644 1450.22 655.184 1464.38 662.585 1478.09C665.437 1482.52 669.069 1486.39 673.305 1489.52C667.885 1471.68 660.449 1445.5 660.449 1436.16C660.449 1421.92 667.609 1378.09 699.412 1363.93C734.025 1348.58 769.824 1352.42 797.632 1374.49C822.988 1394.63 834.024 1431.46 842.925 1461.04C844.428 1466.03 845.852 1470.74 847.236 1475.09C856.73 1504.44 867.727 1523.46 879.95 1531.57C882.561 1533.35 885.053 1534.98 887.347 1536.48C893.834 1536.48 897.671 1536.48 897.671 1536.48L1322.39 1546.57V1531.3C1318.04 1529.64 1305.19 1524.53 1302.14 1521.45C1297.71 1517.02 1286.32 1471.92 1297.24 1431.81C1308.15 1391.7 1342.69 1349.3 1387.82 1345.93C1390.19 1345.74 1392.77 1345.62 1395.34 1345.62Z" fill="#263238"/>
<path d="M752.458 1611.8C794.207 1611.8 828.051 1561.14 828.051 1498.66C828.051 1436.18 794.207 1385.53 752.458 1385.53C710.709 1385.53 676.865 1436.18 676.865 1498.66C676.865 1561.14 710.709 1611.8 752.458 1611.8Z" fill="#787878"/>
<path d="M752.458 1613.73C709.697 1613.73 674.887 1562.31 674.887 1498.66C674.887 1435.02 709.697 1383.55 752.458 1383.55C795.219 1383.55 830.029 1435.21 830.029 1498.66C830.029 1562.11 795.219 1613.73 752.458 1613.73ZM752.458 1387.51C711.873 1387.51 678.842 1437.39 678.842 1498.66C678.842 1559.94 711.873 1609.78 752.458 1609.78C793.043 1609.78 826.073 1559.94 826.073 1498.66C826.073 1437.39 793.043 1387.51 752.458 1387.51Z" fill="#263238"/>
<path d="M752.458 1587.03C785.075 1587.03 811.517 1547.47 811.517 1498.66C811.517 1449.86 785.075 1410.29 752.458 1410.29C719.841 1410.29 693.4 1449.86 693.4 1498.66C693.4 1547.47 719.841 1587.03 752.458 1587.03Z" fill="white"/>
<path d="M752.458 1589.01C718.795 1589.01 691.422 1548.46 691.422 1498.66C691.422 1448.86 718.795 1408.31 752.458 1408.31C786.121 1408.31 813.494 1448.82 813.494 1498.66C813.494 1548.5 786.121 1589.01 752.458 1589.01ZM752.458 1412.27C720.812 1412.27 695.377 1451.04 695.377 1498.66C695.377 1546.29 720.971 1585.05 752.458 1585.05C783.945 1585.05 809.538 1546.29 809.538 1498.66C809.538 1451.04 783.945 1412.27 752.458 1412.27Z" fill="#263238"/>
<path d="M759.855 1498.66C759.855 1504.79 756.532 1509.74 752.458 1509.74C748.383 1509.74 745.061 1504.79 745.061 1498.66C745.061 1492.53 748.383 1487.59 752.458 1487.59C756.532 1487.59 759.855 1492.73 759.855 1498.66Z" fill="white"/>
<path d="M752.458 1511.72C747.197 1511.72 743.083 1505.98 743.083 1498.66C743.083 1491.34 747.039 1485.61 752.458 1485.61C757.877 1485.61 761.833 1491.34 761.833 1498.66C761.833 1505.98 757.719 1511.72 752.458 1511.72ZM752.458 1489.56C749.531 1489.56 747.039 1493.72 747.039 1498.66C747.039 1503.61 749.531 1507.76 752.458 1507.76C755.385 1507.76 757.877 1503.61 757.877 1498.66C757.877 1493.72 755.385 1489.56 752.458 1489.56Z" fill="#263238"/>
<path d="M651.983 1272.24C652.418 1276.19 652.656 1290.04 652.814 1305.47C658.55 1304.87 667.727 1303.84 672.355 1303.09C679.357 1301.91 696.88 1272.12 700.401 1268.6C701.37 1267.73 701.97 1266.52 702.08 1265.22C702.19 1263.92 701.802 1262.62 700.994 1261.6H670.021L667.766 1259.58L666.224 1261.24C666.224 1261.24 650.876 1262.35 651.983 1272.24Z" fill="#92E3A9"/>
<path d="M652.814 1307.44C652.336 1307.45 651.872 1307.28 651.509 1306.97C651.306 1306.78 651.142 1306.56 651.026 1306.3C650.911 1306.05 650.846 1305.78 650.836 1305.51C650.836 1286.87 650.362 1275.72 650.006 1272.44C649.828 1271.15 649.927 1269.84 650.295 1268.59C650.663 1267.34 651.293 1266.18 652.142 1265.2C655.719 1261.8 660.358 1259.75 665.274 1259.38L666.303 1258.24C666.487 1258.05 666.706 1257.9 666.947 1257.8C667.188 1257.7 667.446 1257.65 667.707 1257.65C667.968 1257.65 668.227 1257.7 668.468 1257.8C668.709 1257.9 668.928 1258.05 669.112 1258.24L670.773 1259.74H700.994C701.281 1259.74 701.564 1259.81 701.823 1259.93C702.082 1260.06 702.312 1260.23 702.497 1260.45C703.656 1261.84 704.229 1263.63 704.097 1265.44C703.964 1267.25 703.135 1268.93 701.785 1270.14C700.876 1271.05 698.423 1274.69 695.773 1278.57C686.279 1292.57 678.012 1304.28 672.672 1305.15C668.162 1305.9 659.499 1306.89 652.893 1307.56L652.814 1307.44ZM653.922 1271.84C654.317 1275.13 654.594 1285.65 654.792 1303.13C660.172 1302.54 667.964 1301.63 672.039 1300.96C676.113 1300.28 687.189 1283.91 692.529 1276.08C694.485 1273 696.638 1270.05 698.977 1267.25C699.502 1266.83 699.875 1266.24 700.039 1265.59C700.203 1264.93 700.149 1264.24 699.887 1263.62H670.021C669.525 1263.61 669.046 1263.43 668.676 1263.1L667.925 1262.39L667.687 1262.63C667.351 1263 666.883 1263.23 666.382 1263.26C662.242 1263.48 658.291 1265.06 655.148 1267.77C654.664 1268.36 654.305 1269.04 654.094 1269.78C653.883 1270.51 653.825 1271.28 653.922 1272.04V1271.84Z" fill="#263238"/>
<path d="M794.23 1348.86C793.772 1348.87 793.326 1348.71 792.971 1348.42C792.617 1348.13 792.376 1347.73 792.292 1347.28C790.472 1338.89 774.728 1265 775.045 1257.56C775.361 1250.13 797.236 1182.84 799.728 1175.21C799.9 1174.71 800.255 1174.31 800.72 1174.07C801.184 1173.84 801.722 1173.79 802.22 1173.94C802.47 1174.02 802.702 1174.14 802.902 1174.31C803.102 1174.48 803.266 1174.68 803.384 1174.92C803.502 1175.15 803.572 1175.4 803.59 1175.66C803.607 1175.92 803.572 1176.19 803.486 1176.43C793.795 1206.26 779.238 1252.5 779.001 1257.72C778.763 1263.62 791.303 1323.78 796.129 1346.49C796.235 1347 796.137 1347.53 795.855 1347.96C795.574 1348.4 795.132 1348.71 794.626 1348.82L794.23 1348.86Z" fill="#263238"/>
<path d="M822.078 1291.34C816.811 1290.9 811.733 1289.17 807.284 1286.32C805.557 1284.13 804.536 1281.47 804.356 1278.69V1278.29C804.594 1276.39 805.424 1271.8 807.679 1270.38C809.103 1269.55 815.986 1268.99 828.17 1268.76C828.623 1268.74 829.07 1268.88 829.431 1269.15C829.792 1269.43 830.046 1269.82 830.147 1270.26C831.56 1270.52 832.986 1270.71 834.42 1270.81C839.624 1271.13 844.848 1270.69 849.926 1269.51C850.264 1269.43 850.616 1269.43 850.954 1269.51C865.234 1273.27 865.234 1276.43 865.234 1277.42C865.077 1279.84 864.585 1282.22 863.771 1284.5C863.666 1284.78 863.501 1285.03 863.289 1285.23C863.078 1285.44 862.823 1285.59 862.545 1285.69L850.084 1290.08C849.749 1290.19 849.389 1290.22 849.042 1290.15C848.695 1290.08 848.372 1289.92 848.106 1289.68C847.849 1289.45 847.658 1289.15 847.554 1288.81C847.449 1288.48 847.435 1288.12 847.513 1287.78L847.711 1287.03C839.978 1285.75 832.168 1284.98 824.333 1284.74C824.955 1286.25 825.225 1287.89 825.124 1289.52C825.022 1289.96 824.802 1290.36 824.488 1290.68C824.174 1291 823.779 1291.23 823.344 1291.34C822.924 1291.41 822.497 1291.41 822.078 1291.34ZM808.154 1278.57C808.28 1280.35 808.896 1282.06 809.934 1283.51C813.317 1285.48 817.029 1286.82 820.891 1287.47C820.527 1286.24 820.077 1285.04 819.546 1283.87C819.42 1283.6 819.354 1283.31 819.354 1283.02C819.354 1282.72 819.42 1282.43 819.546 1282.17C819.673 1281.9 819.861 1281.66 820.094 1281.48C820.327 1281.29 820.6 1281.16 820.891 1281.1C826.825 1279.71 847.869 1283.04 850.282 1283.43C850.809 1283.53 851.277 1283.83 851.587 1284.26C851.817 1284.59 851.941 1284.97 851.943 1285.37L860.171 1282.48C860.652 1281.01 860.957 1279.48 861.081 1277.93C857.74 1275.92 854.092 1274.46 850.282 1273.62C844.946 1274.87 839.45 1275.3 833.985 1274.89C829.435 1274.53 827.22 1274.02 826.271 1272.91C820.635 1272.91 815.006 1273.28 809.42 1274.02C808.773 1275.46 808.346 1277 808.154 1278.57Z" fill="#263238"/>
<path d="M838.218 1296.96C833.268 1296.95 828.344 1296.25 823.581 1294.91C823.082 1294.74 822.666 1294.39 822.423 1293.92C822.179 1293.46 822.126 1292.92 822.276 1292.41C822.44 1291.91 822.792 1291.5 823.257 1291.25C823.722 1291.01 824.265 1290.96 824.768 1291.11C831.346 1293 838.255 1293.44 845.021 1292.41C845.54 1292.32 846.074 1292.43 846.511 1292.73C846.947 1293.02 847.25 1293.48 847.355 1294C847.448 1294.51 847.333 1295.04 847.037 1295.47C846.74 1295.9 846.286 1296.19 845.773 1296.29C843.283 1296.76 840.752 1296.99 838.218 1296.96Z" fill="#263238"/>
<path d="M1038.26 1298.15C1033 1297.73 1027.92 1296 1023.5 1293.12C1021.76 1290.95 1020.73 1288.28 1020.57 1285.49C1020.53 1285.36 1020.53 1285.22 1020.57 1285.09C1020.81 1283.2 1021.6 1278.61 1023.86 1277.18C1025.28 1276.31 1032.2 1275.76 1044.39 1275.56C1044.83 1275.56 1045.25 1275.7 1045.6 1275.97C1045.95 1276.23 1046.21 1276.6 1046.33 1277.03C1047.75 1277.29 1049.19 1277.48 1050.64 1277.58C1055.83 1277.93 1061.04 1277.49 1066.1 1276.27C1066.44 1276.19 1066.79 1276.19 1067.13 1276.27C1081.41 1280.03 1081.41 1283.2 1081.41 1284.18C1081.27 1286.6 1080.78 1288.99 1079.95 1291.27C1079.85 1291.54 1079.69 1291.79 1079.49 1291.99C1079.28 1292.2 1079.04 1292.35 1078.76 1292.45L1066.3 1296.8C1065.97 1296.93 1065.61 1296.96 1065.26 1296.9C1064.92 1296.83 1064.59 1296.68 1064.32 1296.45C1064.06 1296.21 1063.86 1295.9 1063.74 1295.56C1063.63 1295.22 1063.62 1294.86 1063.69 1294.51L1063.93 1293.56C1056.19 1292.26 1048.36 1291.49 1040.51 1291.27C1041.15 1292.76 1041.42 1294.39 1041.3 1296.01C1041.21 1296.45 1040.99 1296.85 1040.69 1297.18C1040.38 1297.51 1039.99 1297.75 1039.56 1297.87C1039.14 1298.01 1038.7 1298.1 1038.26 1298.15ZM1024.53 1285.37C1024.64 1287.16 1025.25 1288.88 1026.27 1290.36C1029.67 1292.29 1033.38 1293.62 1037.23 1294.31C1036.87 1293.07 1036.42 1291.85 1035.88 1290.67C1035.76 1290.4 1035.71 1290.11 1035.71 1289.82C1035.72 1289.53 1035.79 1289.24 1035.91 1288.98C1036.04 1288.71 1036.23 1288.48 1036.45 1288.29C1036.68 1288.11 1036.94 1287.98 1037.23 1287.9C1043.16 1286.52 1064.25 1289.84 1066.62 1290.24C1066.89 1290.28 1067.15 1290.38 1067.39 1290.53C1067.62 1290.68 1067.81 1290.87 1067.96 1291.11C1068.17 1291.44 1068.28 1291.82 1068.28 1292.21L1076.51 1289.29C1077 1287.83 1077.32 1286.31 1077.46 1284.78C1074.11 1282.74 1070.45 1281.27 1066.62 1280.43C1061.28 1281.68 1055.79 1282.11 1050.32 1281.69C1045.77 1281.38 1043.56 1280.82 1042.41 1279.71C1036.77 1279.71 1031.15 1280.08 1025.56 1280.82C1025 1282.28 1024.66 1283.81 1024.53 1285.37Z" fill="#263238"/>
<path d="M1054.4 1303.81C1049.46 1303.79 1044.54 1303.08 1039.8 1301.71C1039.55 1301.63 1039.32 1301.51 1039.12 1301.34C1038.91 1301.17 1038.75 1300.97 1038.63 1300.74C1038.5 1300.5 1038.43 1300.25 1038.41 1299.99C1038.39 1299.73 1038.41 1299.47 1038.49 1299.22C1038.57 1298.97 1038.7 1298.73 1038.86 1298.54C1039.03 1298.34 1039.24 1298.17 1039.47 1298.05C1039.7 1297.93 1039.96 1297.86 1040.22 1297.85C1040.48 1297.83 1040.74 1297.86 1040.99 1297.95C1047.56 1299.81 1054.45 1300.25 1061.2 1299.22C1061.72 1299.12 1062.25 1299.24 1062.69 1299.53C1063.12 1299.83 1063.43 1300.28 1063.53 1300.8C1063.58 1301.05 1063.58 1301.32 1063.53 1301.57C1063.48 1301.83 1063.38 1302.07 1063.23 1302.28C1063.08 1302.5 1062.89 1302.68 1062.67 1302.82C1062.45 1302.96 1062.21 1303.05 1061.95 1303.09C1059.46 1303.58 1056.93 1303.82 1054.4 1303.81Z" fill="#263238"/>
<path d="M1007.09 1464.6C1006.73 1464.6 1006.38 1464.51 1006.07 1464.34C1005.76 1464.17 1005.49 1463.92 1005.31 1463.61C1003.96 1461.32 1005.31 1456.81 1009.26 1445.38C1012.09 1438.16 1014.12 1430.65 1015.31 1422.99C1015.63 1418.01 1012.74 1404.32 1009.42 1388.46C1004.55 1367.16 1000.84 1345.6 998.304 1323.9C994.902 1286.44 1009.18 1249.85 1009.34 1249.45C1009.53 1248.97 1009.91 1248.58 1010.4 1248.37C1010.88 1248.16 1011.42 1248.15 1011.91 1248.35C1012.4 1248.54 1012.79 1248.92 1013 1249.4C1013.21 1249.88 1013.21 1250.43 1013.02 1250.92C1013.02 1251.27 998.937 1287.03 1002.26 1323.54C1004.76 1345.1 1008.44 1366.51 1013.3 1387.67C1016.82 1404.44 1019.59 1417.69 1019.27 1423.27C1018.07 1431.28 1015.97 1439.14 1013.02 1446.68C1011.04 1451.53 1009.63 1456.59 1008.83 1461.76C1008.96 1461.97 1009.05 1462.21 1009.09 1462.47C1009.13 1462.72 1009.12 1462.98 1009.05 1463.22C1008.99 1463.47 1008.88 1463.7 1008.72 1463.91C1008.57 1464.11 1008.38 1464.28 1008.15 1464.41C1007.82 1464.56 1007.45 1464.63 1007.09 1464.6Z" fill="#263238"/>
<path d="M1402.62 1611.8C1451.86 1611.8 1491.78 1561.14 1491.78 1498.66C1491.78 1436.18 1451.86 1385.53 1402.62 1385.53C1353.37 1385.53 1313.45 1436.18 1313.45 1498.66C1313.45 1561.14 1353.37 1611.8 1402.62 1611.8Z" fill="#787878"/>
<path d="M1402.62 1613.73C1352.34 1613.73 1311.63 1562.31 1311.63 1498.66C1311.63 1435.02 1352.5 1383.55 1402.62 1383.55C1452.73 1383.55 1493.6 1435.21 1493.6 1498.66C1493.6 1562.11 1452.93 1613.73 1402.62 1613.73ZM1402.62 1387.51C1354.55 1387.51 1315.59 1437.39 1315.59 1498.66C1315.59 1559.94 1354.71 1609.78 1402.62 1609.78C1450.52 1609.78 1489.64 1559.94 1489.64 1498.66C1489.64 1437.39 1450.68 1387.51 1402.62 1387.51Z" fill="#263238"/>
<path d="M1402.62 1587.03C1441.09 1587.03 1472.27 1547.47 1472.27 1498.66C1472.27 1449.86 1441.09 1410.29 1402.62 1410.29C1364.14 1410.29 1332.96 1449.86 1332.96 1498.66C1332.96 1547.47 1364.14 1587.03 1402.62 1587.03Z" fill="white"/>
<path d="M1402.62 1589.01C1363.06 1589.01 1330.98 1548.46 1330.98 1498.66C1330.98 1448.86 1363.1 1408.31 1402.62 1408.31C1442.13 1408.31 1474.21 1448.82 1474.21 1498.66C1474.21 1548.5 1442.09 1589.01 1402.62 1589.01ZM1402.62 1412.27C1365.27 1412.27 1334.93 1451.04 1334.93 1498.66C1334.93 1546.29 1365.27 1585.05 1402.62 1585.05C1439.96 1585.05 1470.26 1546.29 1470.26 1498.66C1470.26 1451.04 1439.92 1412.27 1402.62 1412.27Z" fill="#263238"/>
<path d="M1404 1509.74C1408.33 1509.74 1411.83 1504.78 1411.83 1498.66C1411.83 1492.55 1408.33 1487.59 1404 1487.59C1399.67 1487.59 1396.17 1492.55 1396.17 1498.66C1396.17 1504.78 1399.67 1509.74 1404 1509.74Z" fill="white"/>
<path d="M1404 1511.72C1398.5 1511.72 1394.19 1505.98 1394.19 1498.66C1394.19 1491.34 1398.5 1485.61 1404 1485.61C1409.5 1485.61 1413.77 1491.34 1413.77 1498.66C1413.77 1505.98 1409.42 1511.72 1404 1511.72ZM1404 1489.56C1400.8 1489.56 1398.15 1493.72 1398.15 1498.66C1398.15 1503.61 1400.8 1507.76 1404 1507.76C1407.2 1507.76 1409.82 1503.61 1409.82 1498.66C1409.82 1493.72 1407.17 1489.56 1404 1489.56Z" fill="#263238"/>
<path d="M1830.3 1347.08C1830.3 1358.08 1823.03 1366.86 1814.01 1366.86C1804.99 1366.86 1797.75 1357.96 1797.75 1347.08C1797.75 1336.2 1805.03 1327.3 1814.01 1327.3C1822.99 1327.3 1830.3 1336.08 1830.3 1347.08Z" fill="white"/>
<path d="M1814.01 1368.95C1803.96 1368.95 1795.77 1359.14 1795.77 1347.08C1795.77 1335.02 1803.96 1325.21 1814.01 1325.21C1824.05 1325.21 1832.28 1335.02 1832.28 1347.08C1832.28 1359.14 1824.09 1368.95 1814.01 1368.95ZM1814.01 1329.16C1806.1 1329.16 1799.73 1337.07 1799.73 1347.08C1799.73 1357.09 1806.14 1365 1814.01 1365C1821.88 1365 1828.33 1357.09 1828.33 1347.08C1828.33 1337.07 1821.92 1329.16 1814.01 1329.16Z" fill="#263238"/>
<path d="M1443.56 1124.57L1436.59 1121.76C1431.77 1120.85 1426.94 1120.06 1422.43 1119.35L1483.03 1234.07H1508.75L1443.56 1124.57Z" fill="white"/>
<path d="M1483.03 1236.2C1482.67 1236.2 1482.32 1236.1 1482.01 1235.92C1481.7 1235.73 1481.46 1235.46 1481.29 1235.13L1420.69 1120.42C1420.51 1120.1 1420.41 1119.74 1420.41 1119.37C1420.41 1119 1420.51 1118.64 1420.69 1118.32C1420.92 1118.03 1421.21 1117.8 1421.55 1117.66C1421.89 1117.52 1422.27 1117.48 1422.63 1117.53C1427.14 1118.2 1431.97 1119.03 1436.83 1119.94C1439.44 1120.93 1441.78 1121.88 1444.23 1122.87C1444.61 1123.05 1444.93 1123.34 1445.14 1123.7L1510.33 1233.24C1510.5 1233.54 1510.59 1233.88 1510.59 1234.23C1510.59 1234.58 1510.5 1234.92 1510.33 1235.22C1510.16 1235.52 1509.91 1235.77 1509.61 1235.95C1509.31 1236.13 1508.97 1236.23 1508.63 1236.24H1482.92L1483.03 1236.2ZM1426.03 1121.92L1484.22 1232.25H1505.27L1442.21 1126.23C1440.04 1125.32 1437.94 1124.49 1435.84 1123.7C1432.68 1123.03 1429.2 1122.48 1426.03 1121.92Z" fill="#263238"/>
<path d="M1397.04 1234.54L1445.1 1234.34L1399.13 1116.34L1346.68 1112.39L1397.04 1234.54Z" fill="white"/>
<path d="M1397.04 1236.52C1396.65 1236.52 1396.27 1236.4 1395.94 1236.18C1395.62 1235.96 1395.37 1235.65 1395.22 1235.29L1344.86 1112.98C1344.72 1112.67 1344.67 1112.32 1344.71 1111.98C1344.75 1111.64 1344.89 1111.32 1345.1 1111.04C1345.29 1110.77 1345.55 1110.55 1345.86 1110.41C1346.17 1110.27 1346.51 1110.22 1346.84 1110.25L1399.25 1114.21C1399.63 1114.22 1399.99 1114.35 1400.29 1114.57C1400.59 1114.78 1400.82 1115.09 1400.95 1115.44L1446.92 1233.43C1447.04 1233.73 1447.08 1234.05 1447.04 1234.37C1447.01 1234.68 1446.9 1234.99 1446.72 1235.25C1446.54 1235.52 1446.3 1235.74 1446.02 1235.89C1445.74 1236.04 1445.42 1236.12 1445.1 1236.12L1397.04 1236.32V1236.52ZM1349.57 1114.6L1398.19 1232.56H1442.05L1397.59 1118.4L1349.57 1114.6Z" fill="#263238"/>
</svg>
