<svg width="2722" height="1724" viewBox="0 0 2722 1724" fill="none" xmlns="http://www.w3.org/2000/svg">
<path d="M2652.79 845.3L2721.08 1028.27H2674.55L2628.02 885.602L2652.79 845.3Z" fill="white" stroke="#2E353A" stroke-width="0.659372" stroke-linecap="round" stroke-linejoin="round"/>
<path d="M2690.01 1297.08H2074.93V982.787L2646.01 895.537L2690.01 1016.86V1297.08Z" fill="#2E353A"/>
<path d="M2159.66 345.941H1357.41V1297.08H2159.66V345.941Z" fill="#2E353A"/>
<path d="M1308.01 422.835L1273.87 378.616L1763.01 1L2243.2 371.759L2209.13 415.978L1763.01 71.5274L1308.01 422.835Z" fill="#2E353A"/>
<path d="M2012.87 345.941H1210.62V1297.08H2012.87V345.941Z" fill="white" stroke="#2E353A" stroke-width="0.659372" stroke-linecap="round" stroke-linejoin="round"/>
<path d="M1611.74 36.2637L1210.62 345.941H2012.87L1611.74 36.2637Z" fill="white" stroke="#2E353A" stroke-width="0.659372" stroke-linejoin="round"/>
<g style="mix-blend-mode:multiply">
<path d="M1611.74 36.2637L1210.62 345.941V416.468L1302 345.941L1611.74 106.791L1921.56 345.941L2012.87 416.468V345.941L1611.74 36.2637Z" fill="#92E3A9"/>
</g>
<path d="M2628.02 982.787H2012.87V1297.08H2628.02V982.787Z" fill="white" stroke="#2E353A" stroke-width="0.659372" stroke-linecap="round" stroke-linejoin="round"/>
<path d="M2566.03 982.787H2074.93V1297.08H2566.03V982.787Z" fill="#92E3A9" stroke="#2E353A" stroke-width="0.659372" stroke-linecap="round" stroke-linejoin="round"/>
<g style="mix-blend-mode:multiply">
<path d="M2628.02 982.787H2012.87V1050.17H2628.02V982.787Z" fill="#92E3A9"/>
</g>
<path d="M2074.93 1074.79H2565.96" stroke="#2E353A" stroke-width="0.659372" stroke-linecap="round" stroke-linejoin="round"/>
<path d="M2074.93 1121.32H2565.96" stroke="#2E353A" stroke-width="0.659372" stroke-linecap="round" stroke-linejoin="round"/>
<path d="M2074.93 1167.85H2565.96" stroke="#2E353A" stroke-width="0.659372" stroke-linecap="round" stroke-linejoin="round"/>
<path d="M2074.93 1214.38H2565.96" stroke="#2E353A" stroke-width="0.659372" stroke-linecap="round" stroke-linejoin="round"/>
<path d="M2074.93 1260.91H2565.96" stroke="#2E353A" stroke-width="0.659372" stroke-linecap="round" stroke-linejoin="round"/>
<path d="M1438.08 945.564H1276.81V1297.08H1438.08V945.564Z" fill="#2E353A"/>
<path d="M1684.09 945.564H1522.81V1189.54H1684.09V945.564Z" fill="white" stroke="#2E353A" stroke-width="0.659372" stroke-linecap="round" stroke-linejoin="round"/>
<path d="M1684.09 1057.23H1522.81V1077.94H1684.09V1057.23Z" fill="#2E353A"/>
<path d="M1613.84 945.564H1593.13V1189.54H1613.84V945.564Z" fill="#2E353A"/>
<path d="M1979.77 945.564H1818.5V1189.54H1979.77V945.564Z" fill="white" stroke="#2E353A" stroke-width="0.659372" stroke-linecap="round" stroke-linejoin="round"/>
<path d="M1979.77 1057.23H1818.5V1077.94H1979.77V1057.23Z" fill="#2E353A"/>
<path d="M1909.53 945.564H1888.81V1189.54H1909.53V945.564Z" fill="#2E353A"/>
<path d="M1771.97 945.564H1741.04V1297.08H1771.97V945.564Z" fill="white" stroke="#2E353A" stroke-width="0.659372" stroke-linecap="round" stroke-linejoin="round"/>
<path d="M1501.61 945.564H1470.69V1297.08H1501.61V945.564Z" fill="white" stroke="#2E353A" stroke-width="0.659372" stroke-linecap="round" stroke-linejoin="round"/>
<path d="M1979.77 960.047H1247.84V1005.53H1979.77V960.047Z" fill="#2E353A"/>
<path d="M1979.77 937.308H1247.84V982.787H1979.77V937.308Z" fill="#92E3A9" stroke="#2E353A" stroke-width="0.659372" stroke-linecap="round" stroke-linejoin="round"/>
<path d="M1156.74 422.835L1122.6 378.616L1611.74 1L2091.93 371.759L2057.86 415.978L1611.74 71.5274L1156.74 422.835Z" fill="white" stroke="#2E353A" stroke-width="0.659372" stroke-linejoin="round"/>
<path d="M2628.02 1028.27H1951.72L2013.78 845.3H2652.79L2628.02 1028.27Z" fill="#2E353A"/>
<path d="M2091.93 371.759H2230.47L1763.01 1H1611.74L2091.93 371.759Z" fill="#2E353A"/>
<path d="M2057.86 415.979H2209.13L2243.2 371.759H2091.93L2057.86 415.979Z" fill="#2E353A"/>
<path d="M1363.64 486.576H1276.81V627.211H1363.64V486.576Z" fill="white" stroke="#2E353A" stroke-width="0.659372" stroke-linecap="round" stroke-linejoin="round"/>
<path d="M1363.64 556.893H1276.81V627.211H1363.64V556.893Z" fill="#2E353A"/>
<path d="M1363.64 549.057H1276.81V564.73H1363.64V549.057Z" fill="white" stroke="#2E353A" stroke-width="0.659372" stroke-linecap="round" stroke-linejoin="round"/>
<path d="M1363.64 689.202H1276.81V829.837H1363.64V689.202Z" fill="white" stroke="#2E353A" stroke-width="0.659372" stroke-linecap="round" stroke-linejoin="round"/>
<path d="M1363.64 758.82H1276.81V829.767H1363.64V758.82Z" fill="#2E353A"/>
<path d="M1950.81 486.576H1863.98V627.211H1950.81V486.576Z" fill="white" stroke="#2E353A" stroke-width="0.659372" stroke-linecap="round" stroke-linejoin="round"/>
<path d="M1950.81 556.894H1863.98V627.211H1950.81V556.894Z" fill="#2E353A"/>
<path d="M1950.81 689.202H1863.98V829.837H1950.81V689.202Z" fill="white" stroke="#2E353A" stroke-width="0.659372" stroke-linecap="round" stroke-linejoin="round"/>
<path d="M1950.81 750.984H1863.98V829.768H1950.81V750.984Z" fill="#2E353A"/>
<path d="M1646.87 486.576H1560.04V627.211H1646.87V486.576Z" fill="white" stroke="#2E353A" stroke-width="0.659372" stroke-linecap="round" stroke-linejoin="round"/>
<path d="M1646.87 556.893H1560.04V627.211H1646.87V556.893Z" fill="#2E353A"/>
<path d="M1646.87 689.202H1560.04V829.837H1646.87V689.202Z" fill="white" stroke="#2E353A" stroke-width="0.659372" stroke-linecap="round" stroke-linejoin="round"/>
<path d="M1646.87 750.984H1560.04V829.767H1646.87V750.984Z" fill="#2E353A"/>
<path d="M1646.87 549.057H1560.04V564.73H1646.87V549.057Z" fill="white" stroke="#2E353A" stroke-width="0.659372" stroke-linecap="round" stroke-linejoin="round"/>
<path d="M1950.81 549.057H1863.98V564.73H1950.81V549.057Z" fill="white" stroke="#2E353A" stroke-width="0.659372" stroke-linecap="round" stroke-linejoin="round"/>
<path d="M1363.64 743.147H1276.81V758.82H1363.64V743.147Z" fill="white" stroke="#2E353A" stroke-width="0.659372" stroke-linecap="round" stroke-linejoin="round"/>
<path d="M1646.87 743.147H1560.04V758.82H1646.87V743.147Z" fill="white" stroke="#2E353A" stroke-width="0.659372" stroke-linecap="round" stroke-linejoin="round"/>
<path d="M1950.81 743.147H1863.98V758.82H1950.81V743.147Z" fill="white" stroke="#2E353A" stroke-width="0.659372" stroke-linecap="round" stroke-linejoin="round"/>
<path d="M1281.36 388.341V422.835" stroke="#2E353A" stroke-width="0.659372" stroke-linecap="round" stroke-linejoin="round"/>
<path d="M1343.42 388.341V422.835" stroke="#2E353A" stroke-width="0.659372" stroke-linecap="round" stroke-linejoin="round"/>
<path d="M1308.01 422.835V457.329" stroke="#2E353A" stroke-width="0.659372" stroke-linecap="round" stroke-linejoin="round"/>
<path d="M1378.89 422.835V457.329" stroke="#2E353A" stroke-width="0.659372" stroke-linecap="round" stroke-linejoin="round"/>
<path d="M1253.86 422.835H1395.61" stroke="#2E353A" stroke-width="0.659372" stroke-linecap="round" stroke-linejoin="round"/>
<path d="M1281.36 849.078V883.573" stroke="#2E353A" stroke-width="0.659372" stroke-linecap="round" stroke-linejoin="round"/>
<path d="M1343.42 849.078V883.573" stroke="#2E353A" stroke-width="0.659372" stroke-linecap="round" stroke-linejoin="round"/>
<path d="M1308.01 883.573V918.067" stroke="#2E353A" stroke-width="0.659372" stroke-linecap="round" stroke-linejoin="round"/>
<path d="M1378.89 883.573V918.067" stroke="#2E353A" stroke-width="0.659372" stroke-linecap="round" stroke-linejoin="round"/>
<path d="M1253.86 883.573H1395.61" stroke="#2E353A" stroke-width="0.659372" stroke-linecap="round" stroke-linejoin="round"/>
<path d="M1407.09 522.329V556.893" stroke="#2E353A" stroke-width="0.659372" stroke-linecap="round" stroke-linejoin="round"/>
<path d="M1469.15 522.329V556.893" stroke="#2E353A" stroke-width="0.659372" stroke-linecap="round" stroke-linejoin="round"/>
<path d="M1433.75 556.893V591.387" stroke="#2E353A" stroke-width="0.659372" stroke-linecap="round" stroke-linejoin="round"/>
<path d="M1504.62 556.893V591.387" stroke="#2E353A" stroke-width="0.659372" stroke-linecap="round" stroke-linejoin="round"/>
<path d="M1379.59 556.893H1521.34" stroke="#2E353A" stroke-width="0.659372" stroke-linecap="round" stroke-linejoin="round"/>
<path d="M1407.09 591.387H1521.35" stroke="#2E353A" stroke-width="0.659372" stroke-linecap="round" stroke-linejoin="round"/>
<path d="M1407.09 592.647V627.141" stroke="#2E353A" stroke-width="0.659372" stroke-linecap="round" stroke-linejoin="round"/>
<path d="M1469.15 592.647V627.141" stroke="#2E353A" stroke-width="0.659372" stroke-linecap="round" stroke-linejoin="round"/>
<path d="M1433.75 627.141V661.635" stroke="#2E353A" stroke-width="0.659372" stroke-linecap="round" stroke-linejoin="round"/>
<path d="M1504.62 627.141V661.635" stroke="#2E353A" stroke-width="0.659372" stroke-linecap="round" stroke-linejoin="round"/>
<path d="M1379.59 627.141H1521.34" stroke="#2E353A" stroke-width="0.659372" stroke-linecap="round" stroke-linejoin="round"/>
<path d="M1716.2 752.523V787.017" stroke="#2E353A" stroke-width="0.659372" stroke-linecap="round" stroke-linejoin="round"/>
<path d="M1778.27 752.523V787.017" stroke="#2E353A" stroke-width="0.659372" stroke-linecap="round" stroke-linejoin="round"/>
<path d="M1742.86 787.017V821.511" stroke="#2E353A" stroke-width="0.659372" stroke-linecap="round" stroke-linejoin="round"/>
<path d="M1813.74 787.017V821.511" stroke="#2E353A" stroke-width="0.659372" stroke-linecap="round" stroke-linejoin="round"/>
<path d="M1688.71 787.017H1830.46" stroke="#2E353A" stroke-width="0.659372" stroke-linecap="round" stroke-linejoin="round"/>
<path d="M1716.2 821.511H1830.46" stroke="#2E353A" stroke-width="0.659372" stroke-linecap="round" stroke-linejoin="round"/>
<path d="M1716.2 822.841V857.335" stroke="#2E353A" stroke-width="0.659372" stroke-linecap="round" stroke-linejoin="round"/>
<path d="M1778.27 822.841V857.335" stroke="#2E353A" stroke-width="0.659372" stroke-linecap="round" stroke-linejoin="round"/>
<path d="M1742.86 857.335V891.829" stroke="#2E353A" stroke-width="0.659372" stroke-linecap="round" stroke-linejoin="round"/>
<path d="M1813.74 857.335V891.829" stroke="#2E353A" stroke-width="0.659372" stroke-linecap="round" stroke-linejoin="round"/>
<path d="M1688.71 857.335H1830.46" stroke="#2E353A" stroke-width="0.659372" stroke-linecap="round" stroke-linejoin="round"/>
<path d="M51.8132 1394.55C189.37 1451.43 542.847 1389.86 506.603 1456.19C470.36 1522.52 193.498 1497.61 114.784 1569.33C36.0705 1641.04 394.165 1635.31 381.501 1657.07C368.837 1678.83 53.7723 1693.73 74.4827 1723.04H2197.44C2200.87 1700.1 2176.45 1672.25 2136.57 1653.08C1820.46 1640.13 749.251 1592.7 861.479 1546.87C993.019 1493.27 1422.48 1439.68 1500.98 1397.7C1579.49 1355.71 1231.75 1351.03 1173.54 1332.42C1154.78 1326.4 1152.55 1320.52 1158.63 1315.41L1168.64 1316.04V1309.68C1184.54 1303.92 1200.93 1299.63 1217.62 1296.87H1168.64V1284.77L1161.64 1289.18L1149.68 1296.87H1145.83C1150.73 1281.72 1154.06 1266.11 1155.76 1250.27C1158.49 1222.92 1120.08 1284.77 1120.08 1284.77C1120.08 1284.77 1125.54 1263.78 1120.08 1250.27C1114.62 1236.77 1098.11 1268.53 1098.11 1268.53C1098.11 1268.53 1117.35 1192.62 1098.11 1143.29C1078.87 1093.97 1057.18 1268.53 1057.18 1268.53C1057.18 1268.53 1054.24 1200.81 1029.54 1199.48C1009.53 1198.36 1021.92 1244.4 1027.37 1261.89C1023.14 1252.07 1016.89 1243.25 1009.04 1236C991.34 1219.07 1009.04 1275.11 1009.04 1275.11C1009.04 1275.11 1002.04 1258.46 955.796 1250.27C909.547 1242.09 974.687 1286.52 974.687 1286.52C954.639 1280.76 934.296 1276.09 913.745 1272.52C903.53 1270.84 902.69 1273.36 906.049 1277.56L899.402 1281.83L877.992 1295.82C885.005 1275.28 889.699 1254.02 891.985 1232.43C895.484 1197.45 846.576 1276.37 846.576 1276.37C846.576 1276.37 853.573 1249.85 846.576 1232.43C839.58 1215.01 818.589 1255.66 818.589 1255.66C818.589 1255.66 843.078 1159.04 818.589 1096.2C794.101 1033.37 766.463 1255.66 766.463 1255.66C766.463 1255.66 762.685 1169.53 731.479 1167.78C706.081 1166.38 721.684 1224.53 728.681 1246.98C723.296 1234.6 715.384 1223.47 705.451 1214.31C682.852 1192.76 705.451 1264.06 705.451 1264.06C705.451 1264.06 696.566 1243.07 637.653 1232.43C578.74 1221.8 661.652 1278.61 661.652 1278.61C636.127 1271.29 610.224 1265.36 584.058 1260.84C544.876 1254.4 613.864 1297.01 613.864 1297.01H93.7938C93.7938 1297.01 -85.6034 1337.73 51.8132 1394.55ZM908.358 1280.36C915.378 1286.58 922.889 1292.21 930.818 1297.22H908.358V1280.36Z" fill="#92E3A9"/>
<path d="M1749.02 1403.01C1669.54 1439.82 1472.16 1478.44 1472.16 1478.44C1440.74 1482.71 1483.28 1522.94 1701.44 1503L2074.79 1297.08H1359.37C1383.3 1309.4 1553.74 1337.8 1650.71 1337.8C1747.69 1337.8 1828.5 1366.14 1749.02 1403.01Z" fill="#92E3A9"/>
<path d="M2320.59 1297.08H2461.64C2390.83 1294.35 2320.59 1297.08 2320.59 1297.08Z" fill="#92E3A9"/>
<path d="M2553.3 1305.27L2218.22 1521.19C2260.69 1519.58 2305.12 1518.53 2348.15 1517.48C2533.78 1513 2466.4 1432.47 2478.99 1404.06C2491.59 1375.66 2596.96 1380.34 2605.35 1332.98C2607.73 1319.54 2585.83 1310.87 2553.3 1305.27Z" fill="#92E3A9"/>
<g opacity="0.3">
<path opacity="0.3" d="M51.8132 1394.55C189.37 1451.43 542.847 1389.86 506.603 1456.19C470.36 1522.52 193.498 1497.61 114.784 1569.33C36.0705 1641.04 394.165 1635.31 381.501 1657.07C368.837 1678.83 53.7723 1693.73 74.4827 1723.05H2197.44C2200.87 1700.1 2176.45 1672.25 2136.57 1653.08C1820.46 1640.13 749.251 1592.7 861.479 1546.87C993.019 1493.27 1422.48 1439.68 1500.98 1397.7C1579.49 1355.71 1231.75 1351.03 1173.54 1332.42C1154.78 1326.4 1152.55 1320.52 1158.63 1315.41L1168.64 1316.04V1309.68C1184.54 1303.92 1200.93 1299.63 1217.62 1296.87H1168.64V1284.77L1161.64 1289.18L1149.68 1296.87H1145.83C1150.73 1281.72 1154.06 1266.11 1155.76 1250.27C1158.49 1222.92 1120.08 1284.77 1120.08 1284.77C1120.08 1284.77 1125.54 1263.78 1120.08 1250.27C1114.62 1236.77 1098.11 1268.53 1098.11 1268.53C1098.11 1268.53 1117.35 1192.62 1098.11 1143.29C1078.87 1093.97 1057.18 1268.53 1057.18 1268.53C1057.18 1268.53 1054.24 1200.81 1029.54 1199.48C1009.53 1198.36 1021.92 1244.4 1027.37 1261.89C1023.14 1252.07 1016.89 1243.25 1009.04 1236C991.34 1219.07 1009.04 1275.11 1009.04 1275.11C1009.04 1275.11 1002.04 1258.46 955.796 1250.27C909.547 1242.09 974.687 1286.52 974.687 1286.52C954.639 1280.76 934.296 1276.09 913.745 1272.52C903.53 1270.84 902.69 1273.36 906.049 1277.56L899.402 1281.83L877.992 1295.82C885.005 1275.28 889.699 1254.02 891.985 1232.43C895.484 1197.45 846.576 1276.37 846.576 1276.37C846.576 1276.37 853.573 1249.85 846.576 1232.43C839.58 1215.01 818.589 1255.66 818.589 1255.66C818.589 1255.66 843.078 1159.04 818.589 1096.2C794.101 1033.37 766.463 1255.66 766.463 1255.66C766.463 1255.66 762.685 1169.53 731.479 1167.78C706.081 1166.38 721.684 1224.53 728.681 1246.99C723.296 1234.6 715.384 1223.47 705.451 1214.31C682.852 1192.76 705.451 1264.06 705.451 1264.06C705.451 1264.06 696.566 1243.07 637.653 1232.43C578.74 1221.8 661.652 1278.61 661.652 1278.61C636.127 1271.29 610.224 1265.36 584.058 1260.84C544.876 1254.4 613.864 1297.01 613.864 1297.01H93.7938C93.7938 1297.01 -85.6034 1337.73 51.8132 1394.55ZM908.358 1280.36C915.378 1286.58 922.889 1292.21 930.818 1297.22H908.358V1280.36Z" fill="white"/>
<path opacity="0.3" d="M1749.02 1403.01C1669.54 1439.82 1472.16 1478.44 1472.16 1478.44C1440.74 1482.71 1483.28 1522.94 1701.44 1503L2074.79 1297.08H1359.37C1383.3 1309.4 1553.74 1337.8 1650.71 1337.8C1747.69 1337.8 1828.5 1366.14 1749.02 1403.01Z" fill="white"/>
<path opacity="0.3" d="M2320.59 1297.08H2461.64C2390.83 1294.35 2320.59 1297.08 2320.59 1297.08Z" fill="white"/>
<path opacity="0.3" d="M2553.3 1305.27L2218.22 1521.19C2260.69 1519.58 2305.12 1518.53 2348.15 1517.48C2533.78 1513 2466.4 1432.47 2478.99 1404.06C2491.59 1375.66 2596.96 1380.34 2605.35 1332.98C2607.73 1319.54 2585.83 1310.87 2553.3 1305.27Z" fill="white"/>
</g>
<path d="M676.865 1516.66H879.594C879.594 1516.66 871.05 1416.43 814.246 1373.82C757.442 1331.22 687.664 1344 670.773 1372.4C653.882 1400.8 650.995 1461.88 654.95 1469C658.906 1476.12 676.865 1516.66 676.865 1516.66Z" fill="#263238"/>
<path d="M879.593 1518.64H676.864C676.479 1518.64 676.104 1518.52 675.781 1518.31C675.459 1518.1 675.203 1517.8 675.045 1517.45C675.045 1517.06 657.6 1476.91 653.447 1469.99C648.304 1461.4 651.983 1399.85 669.269 1371.37C676.429 1359.5 692.054 1350.33 712.11 1346.41C746.405 1339.68 785.092 1349.34 815.63 1372.24C872.473 1414.88 881.65 1515.48 881.73 1516.5C881.766 1516.78 881.739 1517.06 881.649 1517.32C881.56 1517.58 881.412 1517.81 881.215 1518.01C881.015 1518.23 880.763 1518.41 880.481 1518.52C880.199 1518.63 879.895 1518.67 879.593 1518.64V1518.64ZM678.17 1514.68H877.378C875.717 1499.97 863.929 1413.54 813.059 1375.4C783.431 1353.17 745.812 1343.76 712.703 1350.29C693.716 1354 679.08 1362.43 672.474 1373.43C655.306 1401.99 653.447 1462.31 656.849 1467.97C660.765 1474.49 675.203 1507.8 678.17 1514.68Z" fill="#263238"/>
<path d="M1292.92 1551.35H1452.02L1548.58 1498.86C1548.58 1498.86 1523.03 1388.1 1459.1 1355.39C1395.18 1322.68 1342.17 1333.79 1313.3 1389.29C1284.42 1444.79 1292.92 1551.35 1292.92 1551.35Z" fill="#263238"/>
<path d="M1452.02 1553.33H1292.92C1292.43 1553.33 1291.94 1553.15 1291.58 1552.81C1291.21 1552.47 1290.99 1552.01 1290.95 1551.51C1290.95 1550.44 1282.72 1443.8 1311.55 1388.38C1340.39 1332.96 1394.62 1320.14 1460.01 1353.57C1524.01 1386.28 1549.45 1493.8 1550.52 1498.39C1550.61 1498.81 1550.57 1499.25 1550.39 1499.64C1550.21 1500.03 1549.91 1500.36 1549.53 1500.56L1452.93 1553.09C1452.65 1553.24 1452.34 1553.32 1452.02 1553.33V1553.33ZM1294.74 1549.38H1451.51L1546.44 1497.95C1543.12 1484.86 1516.74 1387.19 1458.31 1357.29C1394.19 1324.49 1343.36 1336.24 1315.15 1390.36C1288.81 1440.67 1293.83 1535.1 1294.7 1549.38H1294.74Z" fill="#263238"/>
<path d="M1152.77 1448.03H1116.26C1078.09 1450.01 1047.59 1489.88 1047.59 1538.81C1047.59 1587.75 1078.09 1627.62 1116.26 1629.6H1132.08H1152.97C1188.57 1629.6 1217.17 1588.93 1217.17 1538.62C1217.17 1488.3 1188.22 1448.03 1152.77 1448.03Z" fill="#263238"/>
<path d="M1152.77 1631.73H1116.22C1076.67 1629.68 1045.57 1588.93 1045.57 1538.97C1045.57 1489.01 1076.31 1448.59 1115.63 1446.25C1115.84 1446.21 1116.05 1446.21 1116.26 1446.25H1152.77C1189.28 1446.25 1218.95 1487.9 1218.95 1539.09C1218.95 1590.28 1189.28 1631.73 1152.77 1631.73ZM1116.7 1450.01H1116.26C1078.88 1452.03 1049.45 1490.95 1049.45 1538.89C1049.45 1586.84 1078.8 1625.92 1116.26 1627.7H1152.69C1186.99 1627.7 1214.92 1587.83 1214.92 1538.81C1214.92 1489.8 1186.99 1449.93 1152.69 1449.93L1116.7 1450.01Z" fill="#263238"/>
<path d="M1782.68 1403.53H1737.23C1689.76 1405.98 1651.78 1455.63 1651.78 1516.54C1651.78 1577.46 1689.72 1627.11 1737.23 1629.56H1782.68C1826.78 1629.56 1862.54 1578.92 1862.54 1516.46C1862.54 1454 1826.78 1403.53 1782.68 1403.53Z" fill="#263238"/>
<path d="M1782.68 1631.73H1737.23C1736.98 1631.77 1736.72 1631.77 1736.47 1631.73C1687.78 1628.81 1649.73 1578.49 1649.73 1516.78C1649.73 1455.07 1687.82 1404.72 1736.51 1401.83C1736.75 1401.79 1736.99 1401.79 1737.23 1401.83H1782.68C1827.81 1401.83 1864.52 1453.49 1864.52 1516.94C1864.52 1580.39 1827.81 1631.73 1782.68 1631.73ZM1737.82 1627.78H1782.68C1825.64 1627.78 1860.56 1577.94 1860.56 1516.66C1860.56 1455.39 1825.64 1405.51 1782.68 1405.51H1737.74C1737.57 1405.55 1737.4 1405.55 1737.23 1405.51C1690.35 1407.92 1653.64 1456.69 1653.64 1516.54C1653.64 1576.39 1690.27 1625.44 1737.27 1627.7L1737.82 1627.78Z" fill="#263238"/>
<path d="M1464.4 1403.53H1406.77V1425.4C1386.99 1446.01 1374.05 1479.2 1374.05 1516.66C1374.05 1554.12 1386.95 1587.31 1406.77 1607.92V1629.76H1464.4C1508.55 1629.76 1544.31 1579.12 1544.31 1516.66C1544.31 1454.2 1508.55 1403.53 1464.4 1403.53Z" fill="#263238"/>
<path d="M1464.4 1631.73H1406.77C1406.24 1631.73 1405.74 1631.52 1405.37 1631.15C1405 1630.78 1404.79 1630.28 1404.79 1629.76V1608.71C1384.3 1587.03 1372.08 1552.7 1372.08 1516.66C1372.08 1480.63 1384.3 1446.29 1404.79 1424.61V1403.53C1404.79 1403 1405 1402.5 1405.37 1402.13C1405.74 1401.76 1406.24 1401.55 1406.77 1401.55H1464.4C1509.58 1401.55 1546.29 1453.21 1546.29 1516.66C1546.29 1580.11 1509.58 1631.73 1464.4 1631.73ZM1408.75 1627.78H1464.4C1507.36 1627.78 1542.33 1577.94 1542.33 1516.66C1542.33 1455.39 1507.36 1405.51 1464.4 1405.51H1408.75V1425.29C1408.75 1425.8 1408.55 1426.3 1408.19 1426.67C1388.06 1447.56 1376.03 1481.18 1376.03 1516.54C1376.03 1551.91 1387.9 1585.53 1408.19 1606.42C1408.55 1606.79 1408.75 1607.29 1408.75 1607.8V1627.78Z" fill="#263238"/>
<path d="M797.118 1403.53H752.458V1425.4C733.708 1446.01 721.524 1479.2 721.524 1516.66C721.524 1554.12 733.708 1587.31 752.458 1607.92V1629.76H797.118C838.89 1629.76 872.711 1579.12 872.711 1516.66C872.711 1454.2 838.89 1403.53 797.118 1403.53Z" fill="#263238"/>
<path d="M797.117 1631.73H752.458C751.933 1631.73 751.43 1631.52 751.059 1631.15C750.688 1630.78 750.48 1630.28 750.48 1629.76V1608.67C731.097 1587.03 719.546 1552.7 719.546 1516.66C719.546 1480.63 731.097 1446.29 750.48 1424.65V1403.53C750.48 1403 750.688 1402.5 751.059 1402.13C751.43 1401.76 751.933 1401.55 752.458 1401.55H797.117C839.878 1401.55 874.689 1453.21 874.689 1516.66C874.689 1580.11 839.799 1631.73 797.117 1631.73ZM754.436 1627.78H797.117C837.703 1627.78 870.733 1577.94 870.733 1516.66C870.733 1455.39 837.703 1405.51 797.117 1405.51H754.436V1425.29C754.435 1425.78 754.252 1426.26 753.921 1426.63C734.855 1447.52 723.502 1481.14 723.502 1516.54C723.502 1551.95 734.855 1585.57 753.921 1606.46C754.252 1606.83 754.435 1607.31 754.436 1607.8V1627.78Z" fill="#263238"/>
<path d="M1913.1 1496.41L1909.81 1459.3L1914.2 1440.67L1915.27 1416.54L1893.36 1380.19C1893.36 1380.19 1892.25 1333.04 1890.07 1327.54C1887.9 1322.04 1857.16 1297.95 1826.47 1287.98C1795.77 1278.02 1608.23 1255.11 1608.23 1255.11C1608.23 1255.11 1502.97 1170.54 1466.78 1153.13C1430.58 1135.73 1418.52 1133.36 1380.15 1122.44C1341.78 1111.52 1262.78 1111.48 1262.78 1111.48L1149.85 1104.88C1149.85 1104.88 1011.67 1099.42 936.002 1107.09C860.329 1114.76 821.959 1126.87 817.568 1129L804.396 1135.61C804.396 1135.61 756.137 1146.57 749.57 1153.13C743.004 1159.7 736.398 1169.59 751.785 1186.05L666.224 1279.24C666.224 1279.24 650.876 1280.35 651.983 1290.24C653.091 1300.13 653.051 1374.65 653.051 1374.65L644.309 1386.52C644.309 1386.52 637.703 1444.67 640.986 1454.52C646.711 1469.16 653.316 1483.44 660.765 1497.28C664.549 1502.91 669.384 1507.76 675.005 1511.56L676.667 1512.43C671.801 1496.61 662.308 1464.61 662.308 1454.36C662.308 1440.63 669.191 1397.68 700.084 1383.95C730.978 1370.22 767.094 1371.05 796.287 1394.27C825.48 1417.49 835.844 1464.68 845.219 1493.88C854.594 1523.07 865.828 1542.85 878.723 1551.43L886.635 1556.65C893.518 1556.65 897.632 1556.65 897.632 1556.65L1324.21 1566.54V1547.91C1324.21 1547.91 1306.65 1541.31 1303.37 1538.02C1300.08 1534.74 1288.02 1490.87 1298.98 1450.29C1309.93 1409.7 1343.95 1369.15 1387.82 1365.87C1431.69 1362.59 1482.12 1388.89 1499.65 1431.65C1517.17 1474.42 1523.78 1539.13 1525.99 1543.52C1528.21 1547.91 1533.67 1551.2 1545.77 1554.48L1557.84 1557.76L1579.75 1567.65L1868.28 1552.3C1868.28 1552.3 1912.15 1533.67 1917.65 1523.82C1923.14 1513.97 1913.1 1496.41 1913.1 1496.41Z" fill="white"/>
<path d="M1579.71 1569.67C1579.45 1569.73 1579.18 1569.73 1578.92 1569.67L1556.97 1559.82L1545.1 1556.61C1532.76 1553.25 1526.67 1549.77 1524.09 1544.75C1522.65 1539.56 1521.62 1534.27 1521.01 1528.92C1517.29 1506.14 1510.41 1463.77 1497.71 1432.84C1481.45 1393.28 1433.19 1364.84 1387.82 1368.24C1344.55 1371.53 1311.24 1412.47 1300.8 1451.31C1290.35 1490.16 1301.59 1533.59 1304.75 1537.15C1311.08 1541.02 1317.82 1544.18 1324.85 1546.57C1325.23 1546.71 1325.56 1546.96 1325.79 1547.29C1326.03 1547.62 1326.15 1548.02 1326.15 1548.43V1567.06C1326.13 1567.59 1325.92 1568.1 1325.56 1568.48C1325.17 1568.84 1324.66 1569.03 1324.13 1569.04L897.513 1559.15C897.513 1559.15 893.558 1559.15 886.635 1559.15C886.243 1559.15 885.857 1559.04 885.528 1558.83L877.616 1553.57C864.681 1544.95 853.13 1525.25 843.36 1495.02C841.936 1490.63 840.512 1485.89 839.009 1480.9C830.306 1451.83 819.23 1415.67 795.061 1396.33C768.439 1375.17 734.104 1371.49 700.916 1386.28C671.011 1399.57 664.286 1441.31 664.286 1454.87C664.286 1462.03 669.507 1482.96 678.566 1512.39C678.684 1512.76 678.687 1513.16 678.574 1513.54C678.461 1513.91 678.238 1514.24 677.933 1514.49C677.634 1514.74 677.268 1514.89 676.881 1514.93C676.494 1514.98 676.103 1514.9 675.757 1514.72L674.056 1513.81C668.122 1509.82 663.018 1504.72 659.025 1498.78C651.567 1484.82 644.962 1470.42 639.246 1455.67C635.924 1445.66 641.778 1392.81 642.45 1386.84C642.485 1386.49 642.607 1386.17 642.806 1385.89L651.193 1374.34C651.193 1367.02 651.193 1299.93 650.125 1290.75C649.947 1289.46 650.046 1288.15 650.414 1286.9C650.782 1285.66 651.412 1284.5 652.261 1283.51C655.838 1280.12 660.477 1278.07 665.393 1277.7L749.215 1186.36C734.46 1169.63 741.58 1158.67 748.305 1152.07C755.029 1145.46 797.869 1135.41 803.684 1134.03L816.619 1127.58C820.575 1125.48 858.194 1113.3 935.765 1105.43C1010.69 1097.83 1148.5 1103.17 1149.89 1103.25L1263.06 1109.5C1263.61 1109.5 1342.65 1109.5 1380.82 1120.54L1395.46 1124.69C1420.48 1130.88 1444.75 1139.82 1467.8 1151.35C1502.97 1168.4 1600.76 1246.49 1609.18 1253.25C1622.55 1254.87 1797.23 1276.51 1827.22 1286.16C1858.27 1296.13 1889.52 1320.38 1892.05 1326.79C1894.27 1332.25 1895.34 1372.75 1895.49 1379.56L1917.13 1415.16C1917.34 1415.49 1917.44 1415.88 1917.41 1416.27L1916.34 1440.4L1911.79 1459.3L1915.04 1495.86C1916.54 1498.62 1924.77 1514.84 1919.23 1524.81C1913.69 1534.78 1873.46 1552.22 1868.91 1554.16C1868.69 1554.22 1868.46 1554.22 1868.24 1554.16L1579.83 1569.51L1579.71 1569.67ZM1395.34 1363.62C1439.96 1363.62 1485.57 1392.06 1501.51 1430.86C1514.36 1462.19 1521.29 1504.87 1525.24 1527.82C1525.9 1532.78 1526.81 1537.7 1527.97 1542.57C1529.95 1546.53 1535.49 1549.53 1546.44 1552.54L1558.51 1555.82L1580.3 1565.59L1867.88 1550.29C1880.15 1545.06 1911.75 1530.51 1915.94 1522.6C1920.85 1513.81 1911.67 1497.28 1911.55 1497.12C1911.43 1496.87 1911.35 1496.6 1911.32 1496.33L1907.84 1459.3C1907.82 1459.09 1907.82 1458.88 1907.84 1458.67L1912.23 1440.04L1913.26 1416.9L1891.62 1381.3C1891.45 1381 1891.35 1380.66 1891.34 1380.31C1890.91 1362.23 1889.68 1332.13 1888.18 1328.37C1886.44 1323.98 1856.85 1300.01 1825.83 1290.04C1795.65 1280.35 1609.81 1257.45 1607.96 1257.21C1607.59 1257.16 1607.25 1257.01 1606.97 1256.77C1605.9 1255.94 1501.43 1172.28 1465.87 1155.03C1443.04 1143.57 1419 1134.71 1394.19 1128.61L1379.55 1124.46C1341.9 1113.7 1263.53 1113.58 1262.74 1113.58L1149.69 1106.97C1148.34 1106.97 1010.8 1101.59 936.081 1109.19C860.092 1117.1 822.157 1128.97 818.32 1130.9L805.188 1137.47C805.031 1137.5 804.869 1137.5 804.713 1137.47C785.567 1141.86 755.385 1149.97 750.836 1154.52C743.914 1161.48 739.365 1169.95 753.091 1184.66C753.43 1185.03 753.619 1185.51 753.619 1186.01C753.619 1186.51 753.43 1186.99 753.091 1187.35L667.569 1280.55C667.232 1280.92 666.764 1281.15 666.264 1281.18C662.123 1281.4 658.173 1282.99 655.03 1285.69C654.545 1286.28 654.187 1286.96 653.976 1287.7C653.765 1288.43 653.706 1289.2 653.803 1289.96C654.911 1299.85 654.911 1371.57 654.911 1374.61C654.914 1375.04 654.79 1375.45 654.555 1375.8L646.09 1387.43C644.231 1403.89 640.196 1446.37 642.767 1454.04C648.407 1468.57 654.946 1482.73 662.348 1496.45C665.2 1500.88 668.832 1504.75 673.068 1507.88C667.648 1490.04 660.212 1463.85 660.212 1454.52C660.212 1440.28 667.371 1396.45 699.175 1382.29C733.787 1366.94 769.586 1370.78 797.395 1392.85C822.751 1412.98 833.787 1449.81 842.687 1479.4C844.191 1484.38 845.615 1489.09 846.999 1493.44C856.493 1522.79 867.49 1541.82 879.713 1549.93C882.323 1551.71 884.816 1553.33 887.11 1554.83C893.597 1554.83 897.434 1554.83 897.434 1554.83L1322.39 1564.57V1549.3C1318.04 1547.64 1305.19 1542.53 1302.14 1539.45C1297.71 1535.02 1286.32 1489.92 1297.24 1449.81C1308.15 1409.7 1342.69 1367.3 1387.82 1363.93C1390.19 1363.74 1392.77 1363.62 1395.34 1363.62V1363.62Z" fill="#263238"/>
<path d="M1608.23 1255.15C1608.23 1255.15 1502.97 1170.54 1466.78 1153.13C1430.58 1135.73 1418.52 1133.36 1380.15 1122.44C1341.78 1111.52 1262.78 1111.48 1262.78 1111.48L1149.85 1104.88C1149.85 1104.88 1011.67 1099.42 936.002 1107.09C860.33 1114.76 821.959 1126.87 817.568 1129L804.396 1135.61C804.396 1135.61 756.137 1146.57 749.57 1153.13C743.004 1159.7 736.398 1169.59 751.785 1186.05H806.611L881.176 1250.76L1279.24 1265L1280.34 1252.94L1596.17 1251.83C1600.43 1251.7 1604.64 1252.85 1608.23 1255.15V1255.15Z" fill="#263238"/>
<path d="M1279.24 1266.98L881.176 1252.74C880.722 1252.71 880.292 1252.52 879.95 1252.22L805.939 1188.02H751.785C751.511 1188.02 751.24 1187.97 750.989 1187.86C750.737 1187.75 750.51 1187.59 750.322 1187.39C733.985 1169.87 741.263 1158.67 748.186 1151.79C755.108 1144.91 797.751 1135.14 803.565 1133.75L816.501 1127.3C820.456 1125.21 858.075 1113.02 935.646 1105.15C1010.57 1097.56 1148.38 1102.9 1149.77 1102.98L1263.06 1109.5C1265.19 1109.5 1342.96 1109.74 1380.78 1120.54L1395.42 1124.69C1420.44 1130.88 1444.71 1139.82 1467.77 1151.35C1503.72 1168.8 1605.3 1250.25 1609.58 1253.61C1609.78 1253.76 1609.95 1253.96 1610.08 1254.18C1610.21 1254.4 1610.29 1254.65 1610.32 1254.9C1610.36 1255.15 1610.34 1255.41 1610.27 1255.66C1610.2 1255.91 1610.09 1256.14 1609.93 1256.34C1609.61 1256.75 1609.14 1257.02 1608.63 1257.09C1608.11 1257.17 1607.59 1257.04 1607.16 1256.73V1256.73C1603.91 1254.71 1600.12 1253.69 1596.29 1253.81L1282.28 1254.91L1281.33 1265.16C1281.29 1265.68 1281.05 1266.16 1280.66 1266.5C1280.27 1266.84 1279.76 1267.01 1279.24 1266.98ZM881.928 1248.78L1277.5 1262.94L1278.41 1252.78C1278.45 1252.28 1278.67 1251.82 1279.04 1251.48C1279.41 1251.14 1279.89 1250.96 1280.38 1250.96L1596.21 1249.85C1597 1249.81 1597.79 1249.81 1598.58 1249.85C1572.87 1229.52 1495.53 1169.16 1465.95 1154.91C1443.12 1143.45 1419.07 1134.59 1394.27 1128.49L1379.63 1124.34C1341.97 1113.58 1263.61 1113.46 1262.82 1113.46L1149.77 1106.85C1148.42 1106.85 1010.88 1101.47 936.16 1109.07C860.171 1116.98 822.236 1128.85 818.399 1130.79L805.266 1137.35C805.11 1137.39 804.948 1137.39 804.792 1137.35C785.646 1141.74 755.464 1149.85 750.915 1154.4C744.072 1161.24 739.562 1169.59 752.577 1183.91H806.572C807.038 1183.9 807.49 1184.07 807.838 1184.38L881.928 1248.78Z" fill="#263238"/>
<path d="M1608.23 1255.15C1608.23 1255.15 1502.97 1170.54 1466.78 1153.13C1454.63 1147.24 1445.22 1143.13 1436.59 1139.76C1418.83 1136.44 1400.99 1134.5 1400.99 1134.5L1170.73 1116.94C1195.22 1134.51 1218.32 1153.95 1239.8 1175.09C1268.16 1203.41 1299.96 1243.72 1308.87 1252.86L1596.21 1251.83C1600.46 1251.7 1604.65 1252.86 1608.23 1255.15V1255.15Z" fill="#8C8C8C"/>
<path d="M1608.23 1257.09C1607.81 1257.09 1607.4 1256.97 1607.04 1256.73V1256.73C1603.79 1254.71 1600 1253.69 1596.17 1253.81L1308.82 1254.8C1308.56 1254.8 1308.3 1254.75 1308.05 1254.65C1307.8 1254.55 1307.58 1254.4 1307.4 1254.2C1304.32 1251.04 1298.5 1244.19 1291.14 1235.49C1276.7 1218.44 1256.93 1195.06 1238.37 1176.47C1216.95 1155.44 1193.94 1136.08 1169.54 1118.56C1169.19 1118.32 1168.92 1117.97 1168.8 1117.56C1168.67 1117.15 1168.68 1116.71 1168.83 1116.31C1168.97 1115.9 1169.23 1115.55 1169.59 1115.31C1169.95 1115.07 1170.38 1114.96 1170.81 1115L1401.11 1132.53C1401.35 1132.53 1419.35 1134.5 1436.95 1137.83C1446.17 1141.35 1455.78 1145.74 1467.65 1151.35C1503.6 1168.8 1605.19 1250.25 1609.46 1253.61C1609.78 1253.86 1610.02 1254.2 1610.14 1254.6C1610.26 1254.99 1610.25 1255.41 1610.11 1255.8C1609.98 1256.18 1609.72 1256.52 1609.38 1256.75C1609.04 1256.98 1608.64 1257.1 1608.23 1257.09V1257.09ZM1177.54 1119.47C1200 1136.01 1221.27 1154.12 1241.18 1173.66C1259.85 1192.38 1279.71 1215.83 1294.19 1233C1301.03 1241.11 1306.53 1247.6 1309.66 1250.88L1596.17 1249.89C1596.96 1249.85 1597.75 1249.85 1598.54 1249.89C1572.83 1229.56 1495.49 1169.19 1465.91 1154.95C1454.04 1149.3 1444.62 1145.03 1435.84 1141.66C1418.75 1138.46 1400.95 1136.52 1400.76 1136.52L1177.54 1119.47Z" fill="#263238"/>
<path d="M889.8 1251.04L995.654 1254.99C998.067 1236.8 1002.93 1202.98 1008.39 1185.1C1014.19 1167.13 1021.14 1149.56 1029.2 1132.49L914.048 1138.89C914.048 1138.89 895.694 1205.71 889.8 1251.04Z" fill="#8C8C8C"/>
<path d="M995.654 1256.81L889.839 1252.86C889.56 1252.86 889.284 1252.8 889.031 1252.69C888.777 1252.57 888.553 1252.4 888.376 1252.19C888.199 1251.97 888.07 1251.73 887.995 1251.46C887.92 1251.19 887.901 1250.92 887.94 1250.64C893.755 1205.67 912.07 1138.89 912.228 1138.22C912.337 1137.82 912.572 1137.46 912.899 1137.19C913.226 1136.93 913.629 1136.78 914.048 1136.76L1029.2 1130.19C1029.54 1130.16 1029.89 1130.22 1030.19 1130.37C1030.5 1130.53 1030.76 1130.77 1030.94 1131.06C1031.11 1131.36 1031.2 1131.69 1031.2 1132.03C1031.2 1132.37 1031.11 1132.71 1030.94 1133C1022.93 1150 1016.02 1167.49 1010.25 1185.37C1004.87 1203.02 1000.01 1236.56 997.592 1254.95C997.562 1255.45 997.346 1255.92 996.987 1256.26C996.628 1256.61 996.152 1256.8 995.654 1256.81ZM892.054 1249.14L993.953 1252.82C996.445 1233.99 1001.19 1201.75 1006.49 1184.38C1011.95 1167.35 1018.48 1150.68 1026.03 1134.46L915.591 1140.79C913.019 1150.37 897.632 1208.12 892.054 1249.14Z" fill="#263238"/>
<path d="M881.176 1250.76C881.176 1250.76 898.344 1158.28 907.046 1141.66C907.046 1141.66 860.092 1145.1 848.067 1152.54C839.088 1158.08 819.27 1178.65 809.776 1188.7L881.176 1250.76Z" fill="#8C8C8C"/>
<path d="M881.176 1252.74C880.694 1252.73 880.231 1252.55 879.871 1252.22L808.392 1190.32C808.186 1190.15 808.016 1189.94 807.894 1189.7C807.771 1189.46 807.699 1189.2 807.68 1188.93C807.676 1188.39 807.874 1187.87 808.234 1187.47C818.795 1176.24 837.901 1156.54 846.92 1150.96C859.183 1143.36 904.831 1139.96 906.77 1139.8C907.117 1139.78 907.466 1139.84 907.779 1139.99C908.093 1140.15 908.359 1140.38 908.55 1140.67C908.723 1140.98 908.814 1141.33 908.814 1141.68C908.814 1142.04 908.723 1142.38 908.55 1142.69C900.322 1158.67 883.312 1250.17 883.312 1251.12C883.243 1251.46 883.087 1251.78 882.858 1252.04C882.629 1252.3 882.336 1252.5 882.007 1252.62C881.744 1252.73 881.459 1252.77 881.176 1252.74V1252.74ZM812.545 1188.58L879.792 1247C882.838 1230.9 895.615 1164.13 903.526 1143.92C892.687 1144.83 858.431 1148.23 848.74 1154.2C840.512 1159.46 821.643 1178.93 812.545 1188.58V1188.58Z" fill="#263238"/>
<path d="M1267.01 1257.33C1267.01 1257.33 1206.85 1179.48 1172.87 1158.67C1138.89 1137.87 1076.35 1134.54 1069.78 1133.44L1063.22 1132.37C1063.22 1132.37 1033.11 1178.53 1040.12 1256.5L1270.97 1264.72L1267.01 1257.33Z" fill="#8C8C8C"/>
<path d="M1270.97 1266.7L1040.12 1258.4C1039.64 1258.38 1039.18 1258.19 1038.83 1257.86C1038.48 1257.53 1038.27 1257.09 1038.22 1256.62C1031.26 1178.89 1061.32 1131.69 1061.64 1131.22C1061.85 1130.91 1062.15 1130.66 1062.5 1130.5C1062.85 1130.35 1063.24 1130.3 1063.61 1130.35L1070.18 1131.46C1071.09 1131.46 1073.03 1131.77 1075.76 1132.05C1092.73 1133.71 1144.31 1138.74 1173.98 1156.93C1207.92 1177.74 1266.34 1252.94 1268.91 1256.1L1269.11 1256.42L1272.87 1263.81C1273.04 1264.11 1273.12 1264.44 1273.12 1264.78C1273.12 1265.12 1273.04 1265.46 1272.87 1265.75C1272.68 1266.08 1272.4 1266.34 1272.06 1266.51C1271.72 1266.68 1271.34 1266.75 1270.97 1266.7V1266.7ZM1041.94 1254.52L1267.65 1262.43L1265.51 1258.2C1262.54 1254.24 1204.44 1180.11 1171.84 1160.14C1142.92 1142.41 1092.02 1137.43 1075.32 1135.81C1072.43 1135.53 1070.38 1135.33 1069.47 1135.18L1064.21 1134.27C1059.89 1141.82 1036.24 1185.73 1041.94 1254.52Z" fill="#263238"/>
<path d="M1204.59 1282.72C1203.01 1282.73 1201.44 1282.59 1199.89 1282.29C1194.31 1281.18 1183.51 1263.97 1179.47 1257.17C1172.51 1257.56 1144.23 1258.87 1137.78 1254.6C1136.24 1253.21 1135.07 1251.46 1134.38 1249.5C1133.69 1247.55 1133.5 1245.45 1133.83 1243.4C1134.1 1233.47 1139.32 1220.54 1148.78 1215.04C1162.78 1206.89 1197.55 1210.45 1203.84 1211.52H1204.63C1211.4 1212.63 1221.6 1214.29 1226.19 1228.06C1230.15 1240.32 1220.77 1253.81 1217.84 1257.53C1219.27 1260.89 1222.79 1270.26 1220.69 1275.48C1218.6 1280.71 1210.84 1282.72 1204.59 1282.72ZM1180.54 1253.13C1180.89 1253.14 1181.23 1253.23 1181.52 1253.4C1181.82 1253.58 1182.07 1253.82 1182.24 1254.12C1188.89 1265.36 1197.83 1277.86 1200.68 1278.41C1206.02 1279.48 1215.51 1278.13 1217.09 1274.14C1218.68 1270.14 1215.83 1262.51 1213.85 1258.32C1213.7 1257.97 1213.64 1257.59 1213.69 1257.21C1213.74 1256.83 1213.89 1256.48 1214.13 1256.18C1214.13 1256.18 1226.51 1241.54 1222.55 1229.6C1218.6 1217.65 1210.68 1216.78 1204.08 1215.71H1203.25C1195.14 1214.37 1162.78 1211.76 1150.84 1218.76C1142.92 1223.51 1138.1 1235.22 1137.86 1243.84C1137.61 1245.23 1137.67 1246.66 1138.04 1248.03C1138.4 1249.39 1139.05 1250.66 1139.96 1251.75C1144.35 1254.64 1167.09 1254.44 1180.42 1253.61L1180.54 1253.13Z" fill="#263238"/>
<path d="M1215.59 1257.33C1215.59 1257.33 1228.76 1241.98 1224.37 1228.81C1219.98 1215.63 1210.13 1214.57 1203.53 1213.46C1196.92 1212.35 1162.98 1209.07 1149.81 1216.74C1136.63 1224.42 1132.24 1248.39 1138.85 1252.94C1145.46 1257.49 1180.5 1255.15 1180.5 1255.15C1180.5 1255.15 1194.78 1279.24 1200.28 1280.35C1205.78 1281.46 1216.74 1280.35 1218.91 1274.89C1221.09 1269.43 1215.59 1257.33 1215.59 1257.33Z" fill="#263238"/>
<path d="M1204.59 1282.72C1203.01 1282.73 1201.44 1282.59 1199.89 1282.29C1194.31 1281.18 1183.51 1263.97 1179.47 1257.17C1172.51 1257.56 1144.23 1258.87 1137.78 1254.6C1136.24 1253.21 1135.07 1251.46 1134.38 1249.5C1133.69 1247.55 1133.5 1245.45 1133.83 1243.4C1134.1 1233.47 1139.32 1220.54 1148.78 1215.04C1162.78 1206.89 1197.55 1210.45 1203.84 1211.52H1204.63C1211.4 1212.63 1221.6 1214.29 1226.19 1228.06C1230.15 1240.32 1220.77 1253.81 1217.84 1257.53C1219.27 1260.89 1222.79 1270.26 1220.69 1275.48C1218.6 1280.71 1210.84 1282.72 1204.59 1282.72ZM1180.54 1253.13C1180.89 1253.14 1181.23 1253.23 1181.52 1253.4C1181.82 1253.58 1182.07 1253.82 1182.24 1254.12C1188.89 1265.36 1197.83 1277.86 1200.68 1278.41C1206.02 1279.48 1215.51 1278.13 1217.09 1274.14C1218.68 1270.14 1215.83 1262.51 1213.85 1258.32C1213.7 1257.97 1213.64 1257.59 1213.69 1257.21C1213.74 1256.83 1213.89 1256.48 1214.13 1256.18C1214.13 1256.18 1226.51 1241.54 1222.55 1229.6C1218.6 1217.65 1210.68 1216.78 1204.08 1215.71H1203.25C1195.14 1214.37 1162.78 1211.76 1150.84 1218.76C1142.92 1223.51 1138.1 1235.22 1137.86 1243.84C1137.61 1245.23 1137.67 1246.66 1138.04 1248.03C1138.4 1249.39 1139.05 1250.66 1139.96 1251.75C1144.35 1254.64 1167.09 1254.44 1180.42 1253.61L1180.54 1253.13Z" fill="#263238"/>
<path d="M1728.96 1429.08C1728.75 1429.12 1728.54 1429.12 1728.33 1429.08C1728.33 1429.08 1713.65 1423.9 1699.33 1420.54C1685.01 1417.18 1540.51 1409.5 1539.05 1409.42C1538.53 1409.39 1538.04 1409.16 1537.7 1408.78C1537.35 1408.39 1537.17 1407.88 1537.19 1407.37C1537.22 1406.84 1537.45 1406.34 1537.85 1405.99C1538.24 1405.63 1538.76 1405.45 1539.28 1405.47C1545.26 1405.78 1685.64 1413.38 1700.2 1416.7C1713.49 1419.83 1726.94 1424.42 1729.28 1425.21L1906.69 1419.23C1907.2 1419.23 1907.7 1419.43 1908.07 1419.78C1908.45 1420.13 1908.68 1420.62 1908.71 1421.13C1908.72 1421.39 1908.68 1421.65 1908.59 1421.9C1908.5 1422.14 1908.36 1422.36 1908.18 1422.55C1908.01 1422.75 1907.79 1422.9 1907.56 1423.01C1907.32 1423.12 1907.07 1423.18 1906.81 1423.19L1729.04 1429.2L1728.96 1429.08Z" fill="#263238"/>
<path d="M1266.06 1466.86C1265.55 1466.86 1265.06 1466.66 1264.69 1466.31C1264.32 1465.96 1264.11 1465.47 1264.09 1464.96C1262.02 1402.45 1266.06 1339.9 1276.15 1278.17C1276.25 1277.66 1276.54 1277.2 1276.97 1276.9C1277.4 1276.6 1277.93 1276.47 1278.45 1276.55C1278.96 1276.65 1279.41 1276.94 1279.71 1277.37C1280.01 1277.8 1280.12 1278.33 1280.03 1278.85C1270.08 1340.29 1266.1 1402.55 1268.16 1464.76C1268.17 1465.02 1268.13 1465.28 1268.04 1465.53C1267.95 1465.77 1267.81 1465.99 1267.64 1466.19C1267.46 1466.38 1267.25 1466.53 1267.01 1466.64C1266.78 1466.75 1266.52 1466.81 1266.26 1466.82L1266.06 1466.86Z" fill="#263238"/>
<path d="M1689.05 1340.63C1674.37 1340.63 1482.8 1315.91 1474.49 1314.84L1273.66 1301.95C1273.4 1301.93 1273.15 1301.87 1272.91 1301.75C1272.68 1301.64 1272.47 1301.48 1272.29 1301.29C1272.12 1301.09 1271.99 1300.86 1271.9 1300.62C1271.82 1300.37 1271.78 1300.11 1271.8 1299.85C1271.86 1299.33 1272.11 1298.86 1272.51 1298.52C1272.91 1298.18 1273.42 1298.01 1273.94 1298.03L1474.89 1310.89C1532.28 1318.28 1682.44 1337.31 1689.28 1336.68C1697.87 1335.81 1707.4 1335.81 1707.48 1335.81C1708 1335.81 1708.51 1336.02 1708.88 1336.39C1709.25 1336.76 1709.46 1337.26 1709.46 1337.79C1709.46 1338.31 1709.25 1338.81 1708.88 1339.18C1708.51 1339.56 1708 1339.76 1707.48 1339.76C1707.48 1339.76 1698.03 1339.76 1689.64 1340.59L1689.05 1340.63Z" fill="#263238"/>
<path d="M1762.46 1413.66H1746.13C1732.32 1413.66 1708.55 1393.32 1705.74 1387.67C1703.84 1383.91 1702.93 1370.7 1702.93 1347.28C1702.93 1338.42 1707.68 1329 1716.74 1328.13C1720.69 1327.7 1771.44 1323.9 1814.84 1323.82H1816.18C1852.97 1323.82 1884.3 1327.22 1884.62 1327.26C1884.88 1327.29 1885.13 1327.37 1885.36 1327.5C1885.59 1327.62 1885.79 1327.79 1885.95 1328C1886.11 1328.2 1886.24 1328.43 1886.31 1328.69C1886.38 1328.94 1886.41 1329.2 1886.38 1329.46C1886.35 1329.72 1886.27 1329.97 1886.14 1330.2C1886.02 1330.43 1885.85 1330.63 1885.64 1330.79C1885.44 1330.96 1885.21 1331.08 1884.95 1331.15C1884.7 1331.23 1884.44 1331.25 1884.18 1331.22C1883.86 1331.22 1851.98 1327.86 1814.84 1327.82C1771.6 1327.82 1721.17 1331.77 1717.13 1332.09C1709.62 1332.84 1706.89 1341.58 1706.89 1347.32C1706.89 1377.9 1708.55 1384.5 1709.26 1385.93C1711.71 1390.83 1734.18 1409.66 1746.13 1409.66H1750.08C1851.19 1409.94 1872.04 1406.22 1875.44 1403.96C1885.05 1397.56 1891.26 1379.68 1891.26 1379.52C1891.47 1379.08 1891.83 1378.74 1892.28 1378.55C1892.73 1378.36 1893.22 1378.34 1893.68 1378.5C1894.14 1378.66 1894.53 1378.98 1894.77 1379.4C1895 1379.82 1895.08 1380.31 1894.98 1380.78C1894.74 1381.58 1888.3 1400.13 1877.54 1407.25C1871.36 1411.56 1833.59 1413.66 1762.46 1413.66Z" fill="#263238"/>
<path d="M1493.64 1317.18C1493.64 1317.18 1520.26 1350.64 1533.19 1359.23C1546.13 1367.81 1548.66 1368.68 1555.54 1369.55C1562.43 1370.42 1637.11 1375.56 1647.43 1375.56C1657.76 1375.56 1664.6 1374.69 1668.87 1370.42C1673.14 1366.15 1683.47 1338.77 1683.47 1338.77L1493.64 1317.18Z" fill="#92E3A9"/>
<path d="M1647.39 1377.54C1636.55 1377.54 1561.91 1372.36 1555.23 1371.53C1547.91 1370.58 1545.1 1369.59 1532.05 1360.89C1518.99 1352.18 1493.2 1319.79 1492.09 1318.4C1491.88 1318.07 1491.77 1317.69 1491.77 1317.3C1491.77 1316.9 1491.88 1316.52 1492.09 1316.19C1492.28 1315.85 1492.56 1315.57 1492.91 1315.4C1493.26 1315.22 1493.65 1315.15 1494.03 1315.2L1683.9 1336.68C1684.2 1336.7 1684.49 1336.8 1684.75 1336.96C1685 1337.12 1685.21 1337.33 1685.37 1337.59C1685.5 1337.86 1685.57 1338.16 1685.57 1338.46C1685.57 1338.76 1685.5 1339.06 1685.37 1339.33C1684.3 1342.18 1674.81 1367.33 1670.34 1371.8C1665.87 1376.27 1658.23 1377.54 1647.39 1377.54ZM1498.22 1319.67C1505.54 1328.61 1524.29 1350.96 1534.26 1357.6C1547.2 1366.23 1549.37 1366.78 1555.74 1367.57C1562.11 1368.36 1637.15 1373.58 1647.39 1373.58C1657.64 1373.58 1663.61 1372.83 1667.45 1369C1670.18 1366.31 1676.55 1351.16 1680.7 1340.32L1498.22 1319.67Z" fill="#263238"/>
<path d="M1573.5 1456.3C1573.5 1456.3 1564.09 1482.92 1564.09 1487.19C1564.09 1491.46 1573.5 1497.52 1576.94 1497.52C1580.38 1497.52 1644.78 1498.39 1649.09 1496.65C1653.41 1494.91 1676.78 1470.02 1675.72 1466.58C1674.65 1463.14 1661.99 1457.17 1661.99 1457.17L1573.5 1456.3Z" fill="#263238"/>
<path d="M1613.18 1499.69C1604.51 1499.69 1593.83 1499.69 1580.62 1499.69H1576.94C1572.63 1499.69 1562.11 1493.13 1562.11 1487.39C1562.11 1483 1570.02 1460.33 1571.64 1455.74C1571.76 1455.34 1572.01 1454.99 1572.36 1454.75C1572.71 1454.52 1573.12 1454.4 1573.54 1454.44L1661.99 1455.31C1662.26 1455.25 1662.55 1455.25 1662.82 1455.31C1666.78 1457.25 1676.67 1462.15 1677.66 1466.07C1679 1471.57 1653.37 1497.04 1649.97 1498.47C1648.34 1499.1 1642.29 1499.69 1613.18 1499.69ZM1574.93 1458.28C1571.34 1467.71 1568.38 1477.37 1566.07 1487.19C1566.07 1490.12 1574.29 1495.54 1576.94 1495.54H1580.66C1636.04 1496.09 1646.84 1495.3 1648.38 1494.79C1651.94 1493.36 1673.11 1470.74 1673.78 1466.7C1670.13 1463.52 1665.99 1460.96 1661.52 1459.11L1574.93 1458.28Z" fill="#263238"/>
<path d="M1917.49 1523.82C1922.99 1513.93 1913.1 1496.41 1913.1 1496.41L1899.92 1470.02L1720.41 1474.34C1720.41 1474.34 1692.92 1510.41 1688.77 1512.11C1685.14 1513.24 1681.37 1513.81 1677.57 1513.81C1677.57 1513.81 1571.09 1509.54 1563.37 1506.1C1555.66 1502.66 1549.65 1492.37 1546.21 1489.8C1541 1487.19 1535.52 1485.18 1529.87 1483.79C1529.87 1483.79 1518.71 1432.37 1498.98 1405.63C1479.24 1378.89 1435.25 1355.82 1404.32 1352.5C1373.38 1349.18 1330.46 1368.8 1313.34 1389.41C1296.21 1410.02 1285.01 1440.08 1282.4 1472.71L1256.65 1469.31C1256.65 1469.31 1238.61 1488.18 1228.33 1492.49C1218.04 1496.8 913.969 1481.3 905.385 1478.73C896.801 1476.16 874.491 1454.68 869.309 1452.98C864.127 1451.27 844.428 1448.66 844.428 1448.66C844.428 1448.66 831.532 1393.72 799.768 1373.11C768.004 1352.5 725.085 1352.5 700.085 1366.98C675.085 1381.46 664.009 1408.2 660.528 1416.78C657.047 1425.36 655.346 1430.55 655.346 1430.55L640.71 1426C639.879 1438.77 639.602 1450.72 640.908 1454.72C646.632 1469.36 653.237 1483.64 660.686 1497.48C664.47 1503.11 669.305 1507.96 674.926 1511.76L676.588 1512.63C671.722 1496.8 662.229 1464.8 662.229 1454.56C662.229 1440.83 669.112 1397.87 700.006 1384.15C730.899 1370.42 767.015 1371.25 796.208 1394.47C825.401 1417.69 835.765 1464.88 845.14 1494.08C854.515 1523.27 865.749 1543.05 878.644 1551.63L886.556 1556.85C893.439 1556.85 897.553 1556.85 897.553 1556.85L1324.13 1566.74V1548.11C1324.13 1548.11 1306.57 1541.5 1303.29 1538.22C1300 1534.94 1287.94 1491.07 1298.9 1450.48C1309.85 1409.9 1343.87 1369.35 1387.74 1366.07C1431.61 1362.79 1482.05 1389.09 1499.57 1431.85C1517.09 1474.61 1523.7 1539.33 1525.91 1543.72C1528.13 1548.11 1533.59 1551.39 1545.69 1554.68L1557.76 1557.96L1579.67 1567.85L1868.28 1552.3C1868.28 1552.3 1911.99 1533.67 1917.49 1523.82Z" fill="#545454"/>
<path d="M1579.71 1569.67C1579.45 1569.73 1579.18 1569.73 1578.92 1569.67L1556.97 1559.82L1545.1 1556.61C1532.76 1553.25 1526.67 1549.77 1524.09 1544.75C1522.65 1539.56 1521.62 1534.27 1521.01 1528.93C1517.29 1506.14 1510.41 1463.77 1497.71 1432.84C1481.45 1393.28 1433.23 1364.88 1387.82 1368.25C1344.55 1371.53 1311.24 1412.47 1300.8 1451.31C1290.35 1490.16 1301.59 1533.59 1304.75 1537.15C1311.08 1541.03 1317.82 1544.18 1324.85 1546.57C1325.23 1546.71 1325.56 1546.96 1325.79 1547.29C1326.03 1547.62 1326.15 1548.02 1326.15 1548.43V1567.06C1326.13 1567.59 1325.92 1568.1 1325.56 1568.48C1325.17 1568.84 1324.66 1569.04 1324.13 1569.04L897.513 1559.15C897.513 1559.15 893.558 1559.15 886.635 1559.15C886.243 1559.15 885.857 1559.04 885.528 1558.83L877.616 1553.57C864.681 1544.95 853.131 1525.25 843.36 1495.02C841.936 1490.63 840.512 1485.89 839.009 1480.9C830.306 1451.83 819.23 1415.67 795.061 1396.33C768.439 1375.17 734.104 1371.49 700.916 1386.28C671.011 1399.57 664.286 1441.31 664.286 1454.87C664.286 1462.03 669.508 1482.96 678.566 1512.39C678.684 1512.76 678.687 1513.16 678.574 1513.54C678.461 1513.91 678.238 1514.24 677.933 1514.49C677.634 1514.74 677.268 1514.89 676.881 1514.93C676.494 1514.98 676.103 1514.9 675.757 1514.72L674.057 1513.81C668.122 1509.82 663.018 1504.72 659.025 1498.78C651.567 1484.82 644.962 1470.42 639.246 1455.67C638.02 1451.91 637.902 1442.3 638.93 1426.16C638.944 1425.86 639.028 1425.56 639.176 1425.3C639.323 1425.04 639.53 1424.81 639.78 1424.64C640.029 1424.47 640.315 1424.36 640.614 1424.33C640.913 1424.29 641.216 1424.32 641.501 1424.42L654.318 1428.37C655.109 1426.16 656.612 1422.04 658.867 1416.5C670.734 1387.19 687.269 1372.71 699.215 1365.71C722.751 1351.91 766.461 1349.34 800.915 1371.77C830.583 1391.03 843.874 1438.46 846.089 1447.2C854.14 1448.16 862.13 1449.58 870.021 1451.43C875.174 1454.31 879.967 1457.79 884.301 1461.8C891.975 1468.05 901.509 1475.8 906.058 1477.15C919.151 1481.1 1219.74 1493.84 1227.66 1490.95C1237.43 1486.99 1255.11 1468.44 1255.34 1468.24C1255.56 1468.02 1255.83 1467.85 1256.13 1467.75C1256.42 1467.64 1256.74 1467.61 1257.05 1467.65L1280.78 1470.82C1283.67 1438.77 1294.98 1408.83 1311.99 1388.46C1329 1368.09 1372.55 1347.32 1404.75 1350.84C1437.66 1354.52 1481.57 1379.24 1500.6 1404.87C1518.95 1429.64 1529.75 1474.57 1531.61 1482.6C1537.12 1483.95 1542.44 1485.98 1547.43 1488.66C1549.18 1490.17 1550.76 1491.87 1552.14 1493.72C1555.33 1498.21 1559.44 1501.96 1564.21 1504.72C1569.62 1507.13 1635.05 1510.57 1677.73 1512.31C1681.23 1512.29 1684.71 1511.76 1688.06 1510.73C1690.67 1509.46 1705.86 1490.95 1718.99 1473.58C1719.16 1473.34 1719.4 1473.14 1719.66 1473C1719.93 1472.86 1720.23 1472.79 1720.53 1472.79L1899.92 1468.05C1900.3 1468.05 1900.67 1468.15 1900.99 1468.35C1901.31 1468.54 1901.57 1468.82 1901.74 1469.15L1915 1495.5C1915.35 1496.17 1925.28 1514.05 1919.35 1524.77C1913.41 1535.49 1873.58 1552.18 1869.03 1554.12C1868.81 1554.18 1868.58 1554.18 1868.36 1554.12L1579.95 1569.47L1579.71 1569.67ZM1395.34 1363.62C1439.96 1363.62 1485.57 1392.06 1501.51 1430.86C1514.36 1462.19 1521.29 1504.87 1525.24 1527.82C1525.9 1532.78 1526.81 1537.7 1527.97 1542.57C1529.95 1546.53 1535.49 1549.53 1546.44 1552.54L1558.51 1555.82L1580.3 1565.59L1867.88 1550.29C1880.15 1545.06 1911.75 1530.51 1915.95 1522.6C1919.9 1515.32 1914.17 1501.75 1911.55 1497.12L1898.86 1471.8L1721.56 1476.04C1714.44 1485.37 1693.87 1511.99 1689.52 1513.7C1685.69 1514.94 1681.69 1515.59 1677.65 1515.59C1666.62 1515.12 1570.46 1511.16 1562.62 1507.68C1557.28 1504.67 1552.66 1500.53 1549.09 1495.54C1547.91 1493.96 1546.58 1492.49 1545.14 1491.15C1540.1 1488.64 1534.79 1486.73 1529.32 1485.45C1528.96 1485.35 1528.65 1485.16 1528.4 1484.9C1528.15 1484.63 1527.97 1484.3 1527.89 1483.95C1527.89 1483.43 1516.58 1432.52 1497.31 1406.58C1478.88 1381.69 1436.24 1357.64 1404.24 1354.08C1373.78 1350.68 1331.22 1370.78 1314.92 1390.32C1298.11 1410.53 1286.99 1440.48 1284.46 1472.52C1284.44 1472.78 1284.37 1473.04 1284.24 1473.28C1284.12 1473.52 1283.95 1473.73 1283.75 1473.9C1283.54 1474.08 1283.3 1474.21 1283.04 1474.28C1282.78 1474.36 1282.51 1474.37 1282.24 1474.34L1257.44 1471.01C1253.96 1474.61 1238.65 1490 1229.16 1493.96C1222.67 1496.65 1124.29 1492.49 1066.18 1489.8C992.134 1486.36 909.657 1481.89 904.911 1480.27C900.164 1478.65 890.156 1470.97 881.809 1464.17C877.756 1460.57 873.402 1457.33 868.795 1454.48C863.851 1452.86 844.428 1450.52 844.23 1450.29C843.836 1450.23 843.467 1450.05 843.172 1449.79C842.876 1449.52 842.666 1449.17 842.569 1448.78C842.569 1448.23 829.476 1394.35 798.779 1374.42C765.552 1352.86 723.621 1355.27 701.232 1368.44C689.8 1375.13 673.859 1389.01 662.545 1417.3C659.183 1425.72 657.443 1430.86 657.443 1430.9C657.28 1431.4 656.926 1431.81 656.459 1432.05C655.991 1432.29 655.449 1432.33 654.951 1432.17L642.727 1428.21C641.699 1445.46 642.292 1451.59 643.004 1453.69C648.644 1468.22 655.184 1482.38 662.585 1496.09C665.437 1500.52 669.069 1504.39 673.305 1507.52C667.886 1489.68 660.449 1463.5 660.449 1454.16C660.449 1439.92 667.609 1396.09 699.412 1381.93C734.025 1366.58 769.824 1370.42 797.632 1392.49C822.988 1412.63 834.025 1449.46 842.925 1479.04C844.428 1484.03 845.852 1488.74 847.237 1493.09C856.73 1522.44 867.727 1541.46 879.95 1549.57C882.561 1551.35 885.053 1552.98 887.347 1554.48C893.835 1554.48 897.672 1554.48 897.672 1554.48L1322.39 1564.57V1549.3C1318.04 1547.64 1305.19 1542.53 1302.14 1539.45C1297.71 1535.02 1286.32 1489.92 1297.24 1449.81C1308.15 1409.7 1342.69 1367.3 1387.82 1363.93C1390.19 1363.74 1392.77 1363.62 1395.34 1363.62V1363.62Z" fill="#263238"/>
<path d="M752.458 1629.8C794.207 1629.8 828.051 1579.14 828.051 1516.66C828.051 1454.18 794.207 1403.53 752.458 1403.53C710.709 1403.53 676.865 1454.18 676.865 1516.66C676.865 1579.14 710.709 1629.8 752.458 1629.8Z" fill="#787878"/>
<path d="M752.458 1631.73C709.697 1631.73 674.887 1580.31 674.887 1516.66C674.887 1453.02 709.697 1401.55 752.458 1401.55C795.219 1401.55 830.029 1453.21 830.029 1516.66C830.029 1580.11 795.219 1631.73 752.458 1631.73ZM752.458 1405.51C711.872 1405.51 678.842 1455.39 678.842 1516.66C678.842 1577.94 711.872 1627.78 752.458 1627.78C793.043 1627.78 826.073 1577.94 826.073 1516.66C826.073 1455.39 793.043 1405.51 752.458 1405.51Z" fill="#263238"/>
<path d="M752.458 1605.03C785.075 1605.03 811.517 1565.47 811.517 1516.66C811.517 1467.86 785.075 1428.29 752.458 1428.29C719.841 1428.29 693.4 1467.86 693.4 1516.66C693.4 1565.47 719.841 1605.03 752.458 1605.03Z" fill="white"/>
<path d="M752.458 1607.01C718.795 1607.01 691.422 1566.46 691.422 1516.66C691.422 1466.86 718.795 1426.31 752.458 1426.31C786.121 1426.31 813.494 1466.82 813.494 1516.66C813.494 1566.5 786.121 1607.01 752.458 1607.01ZM752.458 1430.27C720.813 1430.27 695.378 1469.04 695.378 1516.66C695.378 1564.29 720.971 1603.05 752.458 1603.05C783.945 1603.05 809.539 1564.29 809.539 1516.66C809.539 1469.04 783.945 1430.27 752.458 1430.27V1430.27Z" fill="#263238"/>
<path d="M759.855 1516.66C759.855 1522.79 756.532 1527.74 752.458 1527.74C748.383 1527.74 745.061 1522.79 745.061 1516.66C745.061 1510.53 748.383 1505.59 752.458 1505.59C756.532 1505.59 759.855 1510.73 759.855 1516.66Z" fill="white"/>
<path d="M752.458 1529.72C747.197 1529.72 743.083 1523.98 743.083 1516.66C743.083 1509.34 747.039 1503.61 752.458 1503.61C757.878 1503.61 761.833 1509.34 761.833 1516.66C761.833 1523.98 757.72 1529.72 752.458 1529.72ZM752.458 1507.56C749.531 1507.56 747.039 1511.72 747.039 1516.66C747.039 1521.61 749.531 1525.76 752.458 1525.76C755.386 1525.76 757.878 1521.61 757.878 1516.66C757.878 1511.72 755.386 1507.56 752.458 1507.56Z" fill="#263238"/>
<path d="M651.983 1290.24C652.419 1294.19 652.656 1308.04 652.814 1323.47C658.55 1322.87 667.727 1321.84 672.355 1321.09C679.357 1319.91 696.88 1290.12 700.401 1286.6C701.37 1285.73 701.97 1284.52 702.08 1283.22C702.19 1281.92 701.802 1280.62 700.994 1279.6H670.021L667.767 1277.58L666.224 1279.24C666.224 1279.24 650.876 1280.35 651.983 1290.24Z" fill="#92E3A9"/>
<path d="M652.814 1325.44C652.336 1325.45 651.872 1325.28 651.509 1324.97C651.306 1324.78 651.142 1324.56 651.026 1324.31C650.911 1324.05 650.846 1323.78 650.836 1323.51C650.836 1304.87 650.362 1293.72 650.006 1290.44C649.828 1289.15 649.927 1287.84 650.295 1286.59C650.663 1285.34 651.293 1284.18 652.142 1283.2C655.719 1279.8 660.358 1277.75 665.275 1277.38L666.303 1276.24C666.487 1276.05 666.706 1275.9 666.947 1275.8C667.188 1275.7 667.446 1275.65 667.707 1275.65C667.968 1275.65 668.227 1275.7 668.468 1275.8C668.709 1275.9 668.928 1276.05 669.112 1276.24L670.773 1277.74H700.995C701.281 1277.74 701.564 1277.81 701.823 1277.93C702.082 1278.06 702.312 1278.23 702.498 1278.45C703.656 1279.84 704.229 1281.63 704.097 1283.44C703.964 1285.25 703.136 1286.93 701.786 1288.14C700.876 1289.05 698.423 1292.69 695.773 1296.57C686.279 1310.57 678.012 1322.28 672.672 1323.15C668.162 1323.9 659.499 1324.89 652.893 1325.56L652.814 1325.44ZM653.922 1289.84C654.317 1293.13 654.594 1303.65 654.792 1321.13C660.172 1320.54 667.965 1319.63 672.039 1318.96C676.113 1318.28 687.189 1301.91 692.529 1294.08C694.485 1291 696.639 1288.05 698.977 1285.25C699.502 1284.83 699.875 1284.24 700.039 1283.59C700.203 1282.93 700.15 1282.24 699.887 1281.62H670.021C669.525 1281.62 669.046 1281.43 668.677 1281.1L667.925 1280.39L667.688 1280.63C667.351 1281 666.883 1281.23 666.382 1281.26C662.242 1281.48 658.291 1283.06 655.148 1285.77C654.664 1286.36 654.305 1287.04 654.094 1287.78C653.884 1288.51 653.825 1289.28 653.922 1290.04V1289.84Z" fill="#263238"/>
<path d="M794.23 1366.86C793.772 1366.87 793.326 1366.71 792.971 1366.42C792.616 1366.13 792.376 1365.73 792.292 1365.28C790.472 1356.89 774.728 1283 775.045 1275.56C775.361 1268.13 797.236 1200.84 799.728 1193.21C799.9 1192.71 800.255 1192.31 800.72 1192.07C801.184 1191.84 801.722 1191.79 802.22 1191.94C802.47 1192.02 802.702 1192.14 802.902 1192.31C803.102 1192.48 803.266 1192.68 803.384 1192.92C803.502 1193.15 803.572 1193.4 803.59 1193.66C803.607 1193.92 803.572 1194.19 803.486 1194.43C793.795 1224.26 779.238 1270.5 779 1275.72C778.763 1281.62 791.303 1341.78 796.129 1364.49C796.235 1365 796.136 1365.53 795.855 1365.96C795.574 1366.4 795.132 1366.71 794.625 1366.82L794.23 1366.86Z" fill="#263238"/>
<path d="M822.078 1309.34C816.811 1308.9 811.733 1307.17 807.284 1304.32C805.557 1302.13 804.536 1299.47 804.356 1296.69V1296.29C804.594 1294.39 805.425 1289.8 807.679 1288.38C809.103 1287.55 815.986 1286.99 828.17 1286.76C828.623 1286.74 829.07 1286.88 829.431 1287.15C829.793 1287.43 830.046 1287.82 830.148 1288.26C831.56 1288.52 832.987 1288.71 834.42 1288.81C839.624 1289.13 844.848 1288.69 849.926 1287.51C850.264 1287.43 850.616 1287.43 850.955 1287.51C865.235 1291.27 865.234 1294.43 865.234 1295.42C865.077 1297.84 864.585 1300.22 863.771 1302.5C863.666 1302.78 863.501 1303.03 863.289 1303.23C863.078 1303.44 862.823 1303.59 862.545 1303.69L850.084 1308.08C849.749 1308.19 849.39 1308.22 849.042 1308.15C848.695 1308.08 848.372 1307.92 848.106 1307.68C847.849 1307.45 847.658 1307.15 847.554 1306.81C847.449 1306.48 847.435 1306.13 847.513 1305.78L847.711 1305.03C839.978 1303.75 832.168 1302.98 824.333 1302.74C824.955 1304.25 825.225 1305.89 825.124 1307.53C825.022 1307.96 824.802 1308.36 824.488 1308.68C824.174 1309 823.779 1309.23 823.344 1309.34C822.925 1309.41 822.497 1309.41 822.078 1309.34ZM808.154 1296.57C808.281 1298.35 808.897 1300.06 809.934 1301.51C813.317 1303.48 817.029 1304.82 820.891 1305.47C820.527 1304.24 820.077 1303.04 819.546 1301.87C819.42 1301.6 819.354 1301.31 819.354 1301.02C819.354 1300.72 819.42 1300.43 819.546 1300.17C819.673 1299.9 819.861 1299.66 820.094 1299.48C820.327 1299.29 820.6 1299.16 820.891 1299.1C826.825 1297.71 847.869 1301.04 850.282 1301.43C850.809 1301.53 851.277 1301.83 851.587 1302.26C851.817 1302.59 851.941 1302.97 851.943 1303.37L860.171 1300.48C860.652 1299.01 860.957 1297.48 861.081 1295.93C857.74 1293.92 854.092 1292.46 850.282 1291.62C844.946 1292.87 839.45 1293.3 833.985 1292.89C829.436 1292.53 827.22 1292.02 826.271 1290.91C820.636 1290.91 815.006 1291.28 809.42 1292.02C808.773 1293.46 808.346 1295 808.154 1296.57Z" fill="#263238"/>
<path d="M838.218 1314.96C833.268 1314.95 828.344 1314.25 823.581 1312.9C823.082 1312.74 822.666 1312.39 822.423 1311.92C822.179 1311.46 822.126 1310.92 822.276 1310.41C822.44 1309.91 822.792 1309.5 823.257 1309.25C823.722 1309.01 824.265 1308.96 824.768 1309.11C831.346 1311 838.255 1311.44 845.021 1310.41C845.54 1310.32 846.074 1310.43 846.511 1310.73C846.947 1311.02 847.25 1311.48 847.355 1312C847.448 1312.51 847.333 1313.04 847.037 1313.47C846.74 1313.9 846.286 1314.19 845.773 1314.29C843.283 1314.76 840.752 1314.99 838.218 1314.96V1314.96Z" fill="#263238"/>
<path d="M1038.26 1316.15C1033 1315.73 1027.92 1314 1023.5 1311.12C1021.76 1308.95 1020.73 1306.28 1020.57 1303.49C1020.54 1303.36 1020.54 1303.22 1020.57 1303.09C1020.81 1301.2 1021.6 1296.61 1023.86 1295.18C1025.28 1294.31 1032.2 1293.76 1044.39 1293.56C1044.83 1293.56 1045.25 1293.7 1045.6 1293.97C1045.95 1294.23 1046.21 1294.6 1046.33 1295.03C1047.75 1295.29 1049.19 1295.48 1050.64 1295.58C1055.83 1295.93 1061.04 1295.49 1066.1 1294.27C1066.44 1294.19 1066.79 1294.19 1067.13 1294.27C1081.41 1298.03 1081.41 1301.2 1081.41 1302.18C1081.27 1304.6 1080.78 1306.99 1079.95 1309.27C1079.85 1309.54 1079.69 1309.79 1079.49 1309.99C1079.28 1310.2 1079.04 1310.35 1078.76 1310.45L1066.3 1314.8C1065.97 1314.93 1065.61 1314.96 1065.26 1314.9C1064.92 1314.83 1064.59 1314.68 1064.32 1314.45C1064.06 1314.21 1063.86 1313.9 1063.75 1313.56C1063.63 1313.22 1063.62 1312.86 1063.69 1312.51L1063.93 1311.56C1056.19 1310.26 1048.36 1309.49 1040.51 1309.27C1041.15 1310.76 1041.42 1312.39 1041.3 1314.01C1041.21 1314.45 1040.99 1314.85 1040.69 1315.18C1040.38 1315.51 1039.99 1315.75 1039.56 1315.87C1039.14 1316.01 1038.7 1316.1 1038.26 1316.15V1316.15ZM1024.53 1303.37C1024.64 1305.16 1025.25 1306.88 1026.27 1308.36C1029.67 1310.29 1033.38 1311.62 1037.23 1312.31C1036.87 1311.07 1036.42 1309.85 1035.88 1308.67C1035.76 1308.4 1035.71 1308.11 1035.71 1307.82C1035.72 1307.53 1035.79 1307.24 1035.91 1306.98C1036.04 1306.71 1036.23 1306.48 1036.45 1306.29C1036.68 1306.11 1036.94 1305.98 1037.23 1305.9C1043.16 1304.52 1064.25 1307.84 1066.62 1308.24C1066.89 1308.28 1067.15 1308.38 1067.39 1308.53C1067.62 1308.68 1067.81 1308.87 1067.96 1309.11C1068.17 1309.44 1068.28 1309.82 1068.28 1310.21L1076.51 1307.29C1077 1305.83 1077.32 1304.31 1077.46 1302.78C1074.11 1300.74 1070.45 1299.27 1066.62 1298.43C1061.28 1299.68 1055.79 1300.11 1050.32 1299.69C1045.77 1299.38 1043.56 1298.82 1042.41 1297.71C1036.77 1297.71 1031.15 1298.08 1025.56 1298.82C1025 1300.28 1024.66 1301.81 1024.53 1303.37V1303.37Z" fill="#263238"/>
<path d="M1054.4 1321.81C1049.46 1321.79 1044.54 1321.08 1039.8 1319.71C1039.55 1319.63 1039.32 1319.51 1039.12 1319.34C1038.91 1319.17 1038.75 1318.97 1038.63 1318.74C1038.5 1318.5 1038.43 1318.25 1038.41 1317.99C1038.39 1317.73 1038.41 1317.47 1038.49 1317.22C1038.57 1316.97 1038.7 1316.73 1038.86 1316.54C1039.03 1316.34 1039.24 1316.17 1039.47 1316.05C1039.7 1315.93 1039.96 1315.86 1040.22 1315.85C1040.48 1315.83 1040.74 1315.86 1040.99 1315.95C1047.56 1317.81 1054.45 1318.25 1061.2 1317.22C1061.72 1317.12 1062.25 1317.24 1062.69 1317.53C1063.12 1317.83 1063.43 1318.28 1063.53 1318.8C1063.58 1319.05 1063.58 1319.32 1063.53 1319.57C1063.48 1319.83 1063.38 1320.07 1063.23 1320.28C1063.08 1320.5 1062.89 1320.68 1062.67 1320.82C1062.45 1320.96 1062.21 1321.05 1061.95 1321.09C1059.46 1321.58 1056.93 1321.82 1054.4 1321.81V1321.81Z" fill="#263238"/>
<path d="M1007.09 1482.6C1006.73 1482.6 1006.38 1482.51 1006.07 1482.34C1005.76 1482.17 1005.49 1481.92 1005.31 1481.62C1003.96 1479.32 1005.31 1474.81 1009.26 1463.38C1012.09 1456.16 1014.12 1448.65 1015.31 1440.99C1015.63 1436.01 1012.74 1422.32 1009.42 1406.46C1004.55 1385.16 1000.84 1363.6 998.304 1341.9C994.903 1304.44 1009.18 1267.85 1009.34 1267.45C1009.53 1266.97 1009.91 1266.58 1010.4 1266.37C1010.88 1266.16 1011.42 1266.15 1011.91 1266.35C1012.4 1266.54 1012.79 1266.92 1013 1267.4C1013.21 1267.88 1013.21 1268.43 1013.02 1268.92C1013.02 1269.27 998.937 1305.03 1002.26 1341.54C1004.76 1363.1 1008.44 1384.51 1013.3 1405.67C1016.82 1422.44 1019.59 1435.69 1019.27 1441.27C1018.07 1449.28 1015.97 1457.14 1013.02 1464.68C1011.04 1469.53 1009.63 1474.59 1008.83 1479.76C1008.96 1479.97 1009.05 1480.21 1009.09 1480.47C1009.13 1480.72 1009.12 1480.98 1009.05 1481.22C1008.99 1481.47 1008.88 1481.7 1008.72 1481.91C1008.57 1482.11 1008.38 1482.28 1008.15 1482.41C1007.82 1482.56 1007.45 1482.63 1007.09 1482.6V1482.6Z" fill="#263238"/>
<path d="M1402.62 1629.8C1451.86 1629.8 1491.78 1579.14 1491.78 1516.66C1491.78 1454.18 1451.86 1403.53 1402.62 1403.53C1353.37 1403.53 1313.46 1454.18 1313.46 1516.66C1313.46 1579.14 1353.37 1629.8 1402.62 1629.8Z" fill="#787878"/>
<path d="M1402.62 1631.73C1352.34 1631.73 1311.63 1580.31 1311.63 1516.66C1311.63 1453.02 1352.5 1401.55 1402.62 1401.55C1452.73 1401.55 1493.6 1453.21 1493.6 1516.66C1493.6 1580.11 1452.93 1631.73 1402.62 1631.73ZM1402.62 1405.51C1354.55 1405.51 1315.59 1455.39 1315.59 1516.66C1315.59 1577.94 1354.71 1627.78 1402.62 1627.78C1450.52 1627.78 1489.64 1577.94 1489.64 1516.66C1489.64 1455.39 1450.68 1405.51 1402.62 1405.51Z" fill="#263238"/>
<path d="M1402.62 1605.03C1441.09 1605.03 1472.28 1565.47 1472.28 1516.66C1472.28 1467.86 1441.09 1428.29 1402.62 1428.29C1364.14 1428.29 1332.96 1467.86 1332.96 1516.66C1332.96 1565.47 1364.14 1605.03 1402.62 1605.03Z" fill="white"/>
<path d="M1402.62 1607.01C1363.06 1607.01 1330.98 1566.46 1330.98 1516.66C1330.98 1466.86 1363.1 1426.31 1402.62 1426.31C1442.13 1426.31 1474.21 1466.82 1474.21 1516.66C1474.21 1566.5 1442.09 1607.01 1402.62 1607.01ZM1402.62 1430.27C1365.27 1430.27 1334.93 1469.04 1334.93 1516.66C1334.93 1564.29 1365.27 1603.05 1402.62 1603.05C1439.96 1603.05 1470.26 1564.29 1470.26 1516.66C1470.26 1469.04 1439.92 1430.27 1402.62 1430.27V1430.27Z" fill="#263238"/>
<path d="M1404 1527.74C1408.32 1527.74 1411.83 1522.78 1411.83 1516.66C1411.83 1510.55 1408.32 1505.59 1404 1505.59C1399.67 1505.59 1396.17 1510.55 1396.17 1516.66C1396.17 1522.78 1399.67 1527.74 1404 1527.74Z" fill="white"/>
<path d="M1404 1529.72C1398.5 1529.72 1394.19 1523.98 1394.19 1516.66C1394.19 1509.34 1398.5 1503.61 1404 1503.61C1409.5 1503.61 1413.77 1509.34 1413.77 1516.66C1413.77 1523.98 1409.42 1529.72 1404 1529.72ZM1404 1507.56C1400.8 1507.56 1398.15 1511.72 1398.15 1516.66C1398.15 1521.61 1400.8 1525.76 1404 1525.76C1407.2 1525.76 1409.82 1521.61 1409.82 1516.66C1409.82 1511.72 1407.17 1507.56 1404 1507.56Z" fill="#263238"/>
<path d="M1830.3 1365.08C1830.3 1376.08 1823.03 1384.86 1814.01 1384.86C1804.99 1384.86 1797.75 1375.96 1797.75 1365.08C1797.75 1354.2 1805.03 1345.3 1814.01 1345.3C1822.99 1345.3 1830.3 1354.08 1830.3 1365.08Z" fill="white"/>
<path d="M1814.01 1386.96C1803.96 1386.96 1795.77 1377.15 1795.77 1365.08C1795.77 1353.02 1803.96 1343.21 1814.01 1343.21C1824.05 1343.21 1832.28 1353.02 1832.28 1365.08C1832.28 1377.15 1824.09 1386.96 1814.01 1386.96ZM1814.01 1347.16C1806.1 1347.16 1799.73 1355.07 1799.73 1365.08C1799.73 1375.09 1806.14 1383 1814.01 1383C1821.88 1383 1828.33 1375.09 1828.33 1365.08C1828.33 1355.07 1821.92 1347.16 1814.01 1347.16Z" fill="#263238"/>
<path d="M1443.56 1142.57L1436.59 1139.76C1431.77 1138.85 1426.94 1138.06 1422.43 1137.35L1483.03 1252.07H1508.75L1443.56 1142.57Z" fill="white"/>
<path d="M1483.03 1254.2C1482.67 1254.2 1482.32 1254.1 1482.01 1253.92C1481.7 1253.73 1481.46 1253.46 1481.29 1253.13L1420.69 1138.42C1420.51 1138.1 1420.41 1137.74 1420.41 1137.37C1420.41 1137 1420.51 1136.64 1420.69 1136.32C1420.92 1136.03 1421.21 1135.8 1421.55 1135.66C1421.89 1135.52 1422.27 1135.48 1422.63 1135.53C1427.14 1136.2 1431.97 1137.03 1436.83 1137.94C1439.44 1138.93 1441.78 1139.88 1444.23 1140.87C1444.61 1141.05 1444.93 1141.34 1445.14 1141.7L1510.33 1251.24C1510.5 1251.54 1510.59 1251.88 1510.59 1252.23C1510.59 1252.57 1510.5 1252.92 1510.33 1253.22C1510.16 1253.52 1509.91 1253.77 1509.61 1253.95C1509.31 1254.13 1508.98 1254.23 1508.63 1254.24H1482.92L1483.03 1254.2ZM1426.03 1139.92L1484.22 1250.25H1505.27L1442.21 1144.23C1440.04 1143.32 1437.94 1142.49 1435.84 1141.7C1432.68 1141.03 1429.2 1140.48 1426.03 1139.92Z" fill="#263238"/>
<path d="M1397.04 1252.54L1445.1 1252.34L1399.13 1134.34L1346.68 1130.39L1397.04 1252.54Z" fill="white"/>
<path d="M1397.04 1254.52C1396.65 1254.52 1396.27 1254.4 1395.94 1254.18C1395.62 1253.96 1395.37 1253.65 1395.22 1253.29L1344.86 1130.98C1344.72 1130.67 1344.67 1130.32 1344.71 1129.98C1344.76 1129.64 1344.89 1129.32 1345.1 1129.04C1345.29 1128.77 1345.55 1128.55 1345.86 1128.41C1346.17 1128.27 1346.51 1128.22 1346.84 1128.25L1399.25 1132.21C1399.63 1132.22 1399.99 1132.35 1400.29 1132.57C1400.59 1132.78 1400.82 1133.09 1400.95 1133.44L1446.92 1251.43C1447.04 1251.73 1447.08 1252.05 1447.04 1252.37C1447.01 1252.68 1446.9 1252.99 1446.72 1253.25C1446.54 1253.52 1446.3 1253.74 1446.02 1253.89C1445.74 1254.04 1445.42 1254.12 1445.1 1254.12L1397.04 1254.32V1254.52ZM1349.57 1132.6L1398.19 1250.56H1442.05L1397.59 1136.4L1349.57 1132.6Z" fill="#263238"/>
</svg>
