<svg width="499" height="271" viewBox="0 0 499 271" fill="none" xmlns="http://www.w3.org/2000/svg">
<path d="M452.804 113.541L444.573 140.493L426.322 126.466C426.046 124.716 425.682 122.982 425.23 121.27C424.87 120.418 422.698 117.886 422.206 116.903C421.715 115.921 421.006 116.783 421.006 117.515C421.006 118.246 422.698 120.658 422.698 120.658L421.846 121.499L415.078 118.279C414.999 118.242 414.914 118.222 414.828 118.219C414.741 118.215 414.654 118.229 414.573 118.26C414.492 118.29 414.417 118.337 414.354 118.396C414.291 118.456 414.24 118.527 414.205 118.606V118.606C414.141 118.74 414.125 118.891 414.161 119.035C414.197 119.178 414.282 119.305 414.401 119.392L418.102 122.23L417.622 123.191L411.454 120.658C411.376 120.627 411.293 120.612 411.209 120.614C411.125 120.616 411.042 120.635 410.965 120.669C410.889 120.704 410.82 120.754 410.764 120.816C410.707 120.878 410.663 120.95 410.635 121.03V121.03C410.593 121.163 410.597 121.306 410.647 121.437C410.696 121.568 410.788 121.678 410.908 121.75L416.53 125.025L412.862 125.745C412.777 125.763 412.696 125.798 412.625 125.848C412.554 125.899 412.494 125.964 412.45 126.039C412.406 126.114 412.378 126.198 412.368 126.285C412.358 126.371 412.367 126.459 412.393 126.542V126.542C412.435 126.665 412.515 126.772 412.62 126.848C412.726 126.924 412.852 126.966 412.982 126.968H416.77L413.495 128.169C413.495 128.169 413.921 129.118 414.587 129.086L418.462 128.9L424.149 129.26C424.149 129.26 442.63 148.636 443.242 149.226C443.853 149.815 447.477 151.136 448.197 150.416C448.918 149.695 457.029 139.892 457.029 139.892L455.817 114.513C455.817 114.513 454.616 112.111 452.804 113.541Z" fill="white" stroke="#263238" stroke-width="0.960994" stroke-linecap="round" stroke-linejoin="round"/>
<path d="M457.17 82.4523C457.17 82.4523 453.645 82.6924 451.985 76.9943C450.326 71.2961 454.583 69.6805 456.941 69.2112C459.299 68.7418 459.769 63.5566 463.775 62.8471C467.781 62.1375 472.016 65.4451 472.966 68.3051C473.916 71.1651 480.04 66.886 483.565 70.663C487.091 74.4399 486.84 81.7318 486.84 84.3298C486.84 86.9279 494.853 87.3973 494.853 93.5212C494.853 99.6451 493.903 102.712 494.372 103.651C494.842 104.59 498.379 123.89 498.379 123.89H454.398C454.398 123.89 452.99 109.786 454.638 106.249C456.286 102.712 457.705 102.472 458.404 99.1757C459.103 95.879 458.404 90.6939 457.935 88.336C457.58 86.3891 457.325 84.4253 457.17 82.4523V82.4523Z" fill="#263238" stroke="#263238" stroke-width="0.960994" stroke-linecap="round" stroke-linejoin="round"/>
<path d="M465.663 107.199L452.466 107.439L455.053 139.718L480.04 141.606L491.818 108.138L477.682 106.97L465.663 107.199Z" fill="#263238" stroke="#263238" stroke-width="0.960994" stroke-linecap="round" stroke-linejoin="round"/>
<path d="M461.417 74.9094C461.417 74.9094 457.88 79.8653 457.17 82.4524C456.242 85.4438 456.04 88.6132 456.581 91.6983C457.291 95.2351 459.299 101.075 460.707 101.523C462.115 101.97 465.892 101.523 465.892 101.523L465.663 107.177H463.775L464.004 115.659L472.966 116.128L477.682 106.937L475.324 106.468L473.675 92.5716C473.675 92.5716 476.022 89.9735 476.263 88.0851C476.396 87.1479 476.476 86.204 476.503 85.2578C476.503 85.2578 473.675 87.3864 471.318 85.2578C468.96 83.1292 468.25 80.7823 467.541 78.4244C466.831 76.0665 465.423 74.189 464.266 74.189C463.284 74.2748 462.322 74.518 461.417 74.9094V74.9094Z" fill="white" stroke="#263238" stroke-width="0.960994" stroke-linecap="round" stroke-linejoin="round"/>
<path d="M465.893 101.544L469.899 100.125L466.133 104.372L465.893 101.544Z" fill="#263238" stroke="#263238" stroke-width="0.960994" stroke-linecap="round" stroke-linejoin="round"/>
<path d="M455.053 139.718L452.466 147.97C452.466 147.97 443.034 158.1 441.146 176.952C439.257 195.804 442.325 214.427 443.274 221.97C444.224 229.513 453.306 262.85 453.306 262.85H459.441C459.441 262.85 457.171 231.871 457.171 228.803V211.6L474.494 259.237L480.16 259.477C480.16 259.477 477.889 236.979 476.481 227.821C475.507 221.802 474.177 215.846 472.497 209.984C472.497 209.984 484.963 185.248 484.963 168.241C484.963 151.234 480.716 147.501 480.716 147.501L480.018 141.606L455.053 139.718Z" fill="#BABABA" stroke="#263238" stroke-width="0.960994" stroke-linecap="round" stroke-linejoin="round"/>
<path d="M462.618 165.6C463.436 161.921 464.004 159.498 464.004 159.498" stroke="#263238" stroke-width="0.960994" stroke-linecap="round" stroke-linejoin="round"/>
<path d="M457.17 211.6C457.17 211.6 456.232 206.884 456.941 196.754C457.356 190.772 459.736 178.895 461.624 170.163" stroke="#263238" stroke-width="0.960994" stroke-linecap="round" stroke-linejoin="round"/>
<path d="M453.306 262.851C453.306 262.851 442.237 268.036 442.237 269.215C442.237 270.394 459.911 269.215 459.911 269.215C460.319 268.083 460.479 266.877 460.38 265.678C460.236 264.688 459.918 263.731 459.441 262.851H453.306Z" fill="white" stroke="#263238" stroke-width="0.960994" stroke-linecap="round" stroke-linejoin="round"/>
<path d="M474.494 259.237C474.494 259.237 469.32 265.842 467.661 267.49C466.002 269.138 466.482 270.317 467.901 270.317C469.32 270.317 477.333 269.848 478.741 268.909C479.54 268.393 480.255 267.756 480.858 267.02L480.16 259.477L474.494 259.237Z" fill="white" stroke="#263238" stroke-width="0.960994" stroke-linecap="round" stroke-linejoin="round"/>
<path d="M490.421 112.384C490.421 112.384 492.549 143.724 490.661 147.032C488.772 150.339 483.358 148.44 482.889 147.032C482.419 145.623 483.358 133.354 483.358 133.354L490.421 112.384Z" fill="white" stroke="#263238" stroke-width="0.960994" stroke-linecap="round" stroke-linejoin="round"/>
<path d="M433.024 37.4303L333.127 51.9858L358.327 224.936L458.224 210.381L433.024 37.4303Z" fill="#1DCF9F" stroke="#263238" stroke-width="0.960994" stroke-linecap="round" stroke-linejoin="round"/>
<path d="M426.911 63.6003C425.329 63.8321 423.716 63.7496 422.165 63.3576C420.614 62.9656 419.156 62.2718 417.873 61.3157C416.591 60.3597 415.509 59.1602 414.691 57.786C413.872 56.4117 413.332 54.8895 413.103 53.3065C413.039 52.8067 413.003 52.3038 412.993 51.8L355.63 60.1508C355.772 60.634 355.882 61.1264 355.957 61.6245C356.419 64.8217 355.593 68.0716 353.661 70.6606C351.729 73.2497 348.849 74.9662 345.652 75.4333C345.401 75.4333 345.161 75.4879 344.91 75.5097L362.9 199.079C363.151 199.025 363.391 198.97 363.642 198.937C365.227 198.706 366.842 198.79 368.395 199.184C369.948 199.578 371.407 200.274 372.69 201.234C373.973 202.193 375.054 203.396 375.871 204.774C376.688 206.152 377.225 207.678 377.451 209.264C377.523 209.763 377.563 210.266 377.571 210.77L434.924 202.42C434.784 201.933 434.678 201.437 434.607 200.935C434.375 199.353 434.458 197.741 434.85 196.191C435.242 194.64 435.936 193.183 436.892 191.901C437.849 190.62 439.048 189.539 440.422 188.722C441.796 187.904 443.318 187.366 444.901 187.137C445.4 187.065 445.903 187.025 446.407 187.017L428.385 63.2837C427.9 63.4174 427.408 63.5231 426.911 63.6003V63.6003ZM398.53 150.929C394.622 151.498 390.634 150.896 387.068 149.199C383.503 147.502 380.521 144.786 378.499 141.394C376.478 138.002 375.507 134.087 375.711 130.144C375.914 126.2 377.282 122.406 379.642 119.24C382.002 116.074 385.248 113.679 388.969 112.358C392.69 111.036 396.719 110.848 400.547 111.817C404.375 112.785 407.83 114.867 410.475 117.799C413.12 120.731 414.836 124.382 415.406 128.289C415.791 130.887 415.659 133.535 415.019 136.082C414.379 138.629 413.242 141.025 411.674 143.132C410.107 145.239 408.139 147.017 405.883 148.362C403.627 149.707 401.129 150.594 398.53 150.972V150.929Z" fill="white" stroke="#263238" stroke-width="0.960994" stroke-linecap="round" stroke-linejoin="round"/>
<path d="M416.429 41.1234L318.506 67.3708L363.948 236.904L461.871 210.657L416.429 41.1234Z" fill="#1DCF9F" stroke="#263238" stroke-width="0.965069" stroke-linecap="round" stroke-linejoin="round"/>
<path d="M410.231 67.7592C407.112 68.5928 403.789 68.1539 400.993 66.5389C398.197 64.924 396.157 62.2651 395.32 59.1465C395.197 58.6569 395.098 58.1614 395.025 57.6619L339.037 72.6387C339.228 73.1054 339.392 73.5829 339.528 74.0687C339.942 75.614 340.048 77.2258 339.838 78.8119C339.629 80.398 339.109 81.9273 338.308 83.3122C337.507 84.6971 336.441 85.9106 335.17 86.8831C333.9 87.8556 332.451 88.5682 330.905 88.98C330.664 89.0455 330.413 89.0892 330.173 89.1437L362.441 209.777L363.161 209.548C364.706 209.133 366.317 209.028 367.903 209.236C369.488 209.445 371.017 209.964 372.402 210.764C373.787 211.564 375 212.629 375.973 213.898C376.946 215.167 377.66 216.615 378.073 218.16C378.202 218.649 378.301 219.144 378.368 219.645L434.356 204.668C434.165 204.202 434.001 203.724 433.865 203.238C433.031 200.117 433.472 196.793 435.089 193.997C436.706 191.201 439.368 189.161 442.488 188.327C442.975 188.191 443.471 188.092 443.973 188.032L411.661 67.268C411.195 67.461 410.718 67.6251 410.231 67.7592V67.7592ZM392.176 157.838C388.36 158.847 384.331 158.702 380.597 157.421C376.863 156.141 373.593 153.782 371.199 150.644C368.806 147.505 367.396 143.728 367.148 139.788C366.901 135.849 367.826 131.924 369.808 128.511C371.79 125.097 374.739 122.348 378.283 120.61C381.827 118.872 385.807 118.223 389.719 118.746C393.632 119.269 397.301 120.94 400.264 123.548C403.228 126.156 405.351 129.583 406.367 133.397C407.044 135.934 407.214 138.579 406.867 141.182C406.52 143.784 405.663 146.293 404.344 148.563C403.026 150.834 401.273 152.822 399.185 154.413C397.097 156.005 394.715 157.169 392.176 157.838V157.838Z" fill="white" stroke="#263238" stroke-width="0.960994" stroke-linecap="round" stroke-linejoin="round"/>
<path d="M484.963 141.846L449.846 141.137C449.846 141.137 442.773 138.779 441.594 138.779C439.938 139.046 438.308 139.459 436.725 140.013C436.573 140.061 436.445 140.163 436.364 140.3C436.284 140.437 436.257 140.599 436.288 140.755V140.755C436.323 140.919 436.419 141.062 436.558 141.156C436.696 141.25 436.866 141.286 437.031 141.257L440.426 140.668L441.364 141.366L434.564 145.733C434.425 145.822 434.326 145.961 434.286 146.121C434.245 146.281 434.267 146.45 434.345 146.595V146.595C434.424 146.742 434.557 146.853 434.715 146.906C434.873 146.958 435.045 146.949 435.197 146.879L440.306 144.477L440.48 145.765L435.022 148.614C434.849 148.706 434.716 148.857 434.647 149.04C434.579 149.224 434.58 149.426 434.651 149.608C434.723 149.783 434.855 149.926 435.022 150.014C435.19 150.102 435.383 150.128 435.568 150.088L437.566 149.63C437.796 149.912 438.103 150.121 438.45 150.231C438.797 150.342 439.169 150.349 439.52 150.252L443.242 149.16L440.884 150.667C440.792 150.721 440.715 150.797 440.658 150.888C440.601 150.978 440.566 151.081 440.556 151.187C440.547 151.294 440.563 151.401 440.602 151.5C440.642 151.6 440.705 151.688 440.786 151.758V151.758C440.905 151.85 441.05 151.9 441.201 151.9C441.351 151.9 441.497 151.85 441.615 151.758L446.331 148.538L450.37 145.962L485.956 152.228C485.956 152.228 488.958 152.49 489.482 151.889C490.006 151.289 491.021 145.613 491.109 144.15" fill="white"/>
<path d="M484.963 141.846L449.846 141.137C449.846 141.137 442.773 138.779 441.594 138.779C439.938 139.046 438.308 139.459 436.725 140.013C436.573 140.061 436.445 140.163 436.364 140.3C436.284 140.437 436.257 140.599 436.288 140.755V140.755C436.323 140.919 436.419 141.062 436.558 141.156C436.696 141.25 436.866 141.286 437.031 141.257L440.426 140.668L441.364 141.366L434.564 145.733C434.425 145.822 434.326 145.961 434.286 146.121C434.245 146.281 434.267 146.45 434.345 146.595V146.595C434.424 146.742 434.557 146.853 434.715 146.906C434.873 146.958 435.045 146.949 435.197 146.879L440.306 144.477L440.48 145.765L435.022 148.614C434.849 148.706 434.716 148.857 434.647 149.04C434.579 149.224 434.58 149.426 434.651 149.608C434.723 149.783 434.855 149.926 435.022 150.014C435.19 150.102 435.383 150.128 435.568 150.088L437.566 149.63C437.796 149.912 438.103 150.121 438.45 150.231C438.797 150.342 439.169 150.349 439.52 150.252L443.242 149.16L440.884 150.667C440.792 150.721 440.715 150.797 440.658 150.888C440.601 150.978 440.566 151.081 440.556 151.187C440.547 151.294 440.563 151.401 440.602 151.5C440.642 151.6 440.705 151.688 440.786 151.758V151.758C440.905 151.85 441.05 151.9 441.201 151.9C441.351 151.9 441.497 151.85 441.615 151.758L446.331 148.538L450.37 145.962L485.956 152.228C485.956 152.228 488.958 152.49 489.482 151.889C490.006 151.289 491.021 145.613 491.109 144.15" stroke="#263238" stroke-width="0.960994" stroke-linecap="round" stroke-linejoin="round"/>
<path d="M437.576 149.652L442.39 147.85" stroke="#263238" stroke-width="0.960994" stroke-linecap="round" stroke-linejoin="round"/>
<path d="M460.326 85.5418C460.326 86.3496 459.911 87.0155 459.387 87.0155C458.863 87.0155 458.448 86.3496 458.448 85.5418C458.448 84.7341 458.874 84.0791 459.387 84.0791C459.9 84.0791 460.326 84.7341 460.326 85.5418Z" fill="#263238"/>
<path d="M465.598 86.6549C465.598 87.4627 465.172 88.1176 464.659 88.1176C464.146 88.1176 463.72 87.4627 463.72 86.6549C463.72 85.8471 464.146 85.1921 464.659 85.1921C465.172 85.1921 465.598 85.8471 465.598 86.6549Z" fill="#263238"/>
<path d="M458.218 82.2121C458.218 82.2121 459.157 81.0331 461.024 82.3212" stroke="#263238" stroke-width="0.960994" stroke-linecap="round" stroke-linejoin="round"/>
<path d="M463.6 82.9106C464.24 82.6582 464.952 82.6639 465.588 82.9266C466.223 83.1893 466.731 83.6884 467.006 84.3188" stroke="#263238" stroke-width="0.960994" stroke-linecap="round" stroke-linejoin="round"/>
<path d="M461.264 85.6072C461.39 86.3091 461.349 87.0309 461.144 87.714C460.795 88.5327 459.157 90.05 459.277 90.4102C459.397 90.7705 460.205 90.9888 460.205 90.9888" stroke="#263238" stroke-width="0.960994" stroke-linecap="round" stroke-linejoin="round"/>
<path d="M459.157 93.8051C459.157 93.8051 462.432 95.3224 465.008 93.2156" stroke="#263238" stroke-width="0.960994" stroke-linecap="round" stroke-linejoin="round"/>
<path d="M245.028 41.9861C245.028 41.9861 276.27 24.3676 280.822 26.0705C285.374 27.7734 276.837 62.4319 275.702 64.7024C274.567 66.973 245.028 41.9861 245.028 41.9861Z" fill="#1DCF9F" stroke="#263238" stroke-width="0.960994" stroke-linecap="round" stroke-linejoin="round"/>
<path d="M279.108 30.6228C279.108 30.6228 277.754 32.7296 276.03 35.7642C273.017 41.0694 268.891 49.2128 268.891 53.9176C268.891 61.2969 273.432 60.7292 274.567 55.0092L278.54 38.526" stroke="#263238" stroke-width="0.960994" stroke-linecap="round" stroke-linejoin="round"/>
<path d="M16.5117 134.423C25.0786 134.423 32.0234 125.382 32.0234 114.228C32.0234 103.075 25.0786 94.0337 16.5117 94.0337C7.94483 94.0337 1 103.075 1 114.228C1 125.382 7.94483 134.423 16.5117 134.423Z" fill="#1DCF9F" stroke="#263238" stroke-width="0.960994" stroke-linecap="round" stroke-linejoin="round"/>
<path d="M157.11 259.139C238.74 259.139 304.913 203.116 304.913 134.008C304.913 64.9006 238.74 8.87769 157.11 8.87769C75.4806 8.87769 9.30688 64.9006 9.30688 134.008C9.30688 203.116 75.4806 259.139 157.11 259.139Z" fill="#1DCF9F" stroke="#263238" stroke-width="0.960994" stroke-linecap="round" stroke-linejoin="round"/>
<path d="M253.106 220.267C227.999 240.265 194.268 252.524 157.11 252.524C90.7952 252.524 35.2435 213.477 20.7906 161.058" fill="#1DCF9F"/>
<path d="M253.106 220.267C227.999 240.265 194.268 252.524 157.11 252.524C90.7952 252.524 35.2435 213.477 20.7906 161.058" stroke="#263238" stroke-width="1.92199" stroke-linecap="round" stroke-linejoin="round"/>
<path d="M17.2103 137.938C17.1558 136.639 17.1339 135.329 17.1339 134.008C17.1375 119.719 20.1347 105.588 25.9322 92.5273" fill="#1DCF9F"/>
<path d="M17.2103 137.938C17.1558 136.639 17.1339 135.329 17.1339 134.008C17.1375 119.719 20.1347 105.588 25.9322 92.5273" stroke="#263238" stroke-width="1.92199" stroke-linecap="round" stroke-linejoin="round"/>
<path d="M112.726 22.6538C141.811 14.4305 172.606 14.4305 201.691 22.6538" stroke="#263238" stroke-width="4.80497" stroke-linecap="round" stroke-linejoin="round"/>
<path d="M296.726 95.3874C296.726 95.3874 315.48 89.1325 318.318 92.5492C321.156 95.9659 321.156 135.722 318.886 143.112C316.615 150.502 301.267 148.789 290.504 140.842C287.419 138.675 284.921 135.774 283.236 132.401C281.552 129.028 280.733 125.289 280.854 121.52" fill="#1DCF9F"/>
<path d="M296.726 95.3874C296.726 95.3874 315.48 89.1325 318.318 92.5492C321.156 95.9659 321.156 135.722 318.886 143.112C316.615 150.502 301.267 148.789 290.504 140.842C287.419 138.675 284.921 135.774 283.236 132.401C281.552 129.028 280.733 125.289 280.854 121.52" stroke="#263238" stroke-width="0.960994" stroke-linecap="round" stroke-linejoin="round"/>
<path d="M285.363 119.817L273.999 121.52" stroke="#263238" stroke-width="0.960994" stroke-linecap="round" stroke-linejoin="round"/>
<path d="M282.525 132.316C282.525 132.316 279.687 152.205 283.092 152.773C286.498 153.341 292.185 143.112 292.185 143.112C292.185 143.112 284.228 134.019 282.525 132.316Z" fill="#263238" stroke="#263238" stroke-width="0.960994" stroke-linecap="round" stroke-linejoin="round"/>
<path d="M272.187 85.7374C273.279 89.8309 272.613 93.5424 270.79 94.0118C268.967 94.4812 266.642 91.5338 265.583 87.4622C264.524 83.3905 265.157 79.6572 266.98 79.1878C268.803 78.7184 271.139 81.633 272.187 85.7374Z" fill="#263238"/>
<path d="M212.487 30.6771C212.487 30.6771 248.237 -5.07289 255.213 1.90246C262.188 8.87781 259.579 39.3991 259.579 43.7655V55.9696" fill="#1DCF9F"/>
<path d="M212.487 30.6771C212.487 30.6771 248.237 -5.07289 255.213 1.90246C262.188 8.87781 259.579 39.3991 259.579 43.7655V55.9696" stroke="#263238" stroke-width="0.960994" stroke-linecap="round" stroke-linejoin="round"/>
<path d="M256.392 9.59823C256.392 9.59823 256.959 0.505173 252.975 6.19243C248.991 11.8797 237.638 51.0683 241.044 55.6203C244.449 60.1723 254.143 57.8908 256.392 49.3654C258.64 40.84 256.959 16.4098 256.959 16.4098" stroke="#263238" stroke-width="0.960994" stroke-linecap="round" stroke-linejoin="round"/>
<path d="M60.7 216.948L80.2615 269.815H101.853L111.503 242.535" fill="#1DCF9F"/>
<path d="M60.7 216.948L80.2615 269.815H101.853L111.503 242.535" stroke="#263238" stroke-width="0.960994" stroke-linecap="round" stroke-linejoin="round"/>
<path d="M241.044 223.793L222.301 269.815H200.709L191.048 242.536" fill="#1DCF9F"/>
<path d="M241.044 223.793L222.301 269.815H200.709L191.048 242.536" stroke="#263238" stroke-width="0.960994" stroke-linecap="round" stroke-linejoin="round"/>
<path d="M149.895 195.99V184.954C141.751 184.633 135.664 182.024 131.632 177.127C127.6 172.229 125.417 164.915 125.082 155.186L141.817 152.336C141.889 155.671 142.306 158.989 143.061 162.237C143.502 164.455 144.548 166.506 146.085 168.165C146.779 168.825 147.598 169.339 148.494 169.677C149.391 170.014 150.346 170.168 151.303 170.13C153.748 170.13 155.429 169.344 156.346 167.75C157.278 166.084 157.749 164.2 157.71 162.292C157.834 158.706 156.859 155.168 154.916 152.151C152.743 149.079 150.174 146.308 147.275 143.909L137.188 135.242C134.988 133.2 132.927 131.011 131.021 128.692C129.15 126.406 127.674 123.824 126.654 121.051C125.52 117.812 124.977 114.396 125.05 110.965C125.05 103.542 127.167 97.7526 131.403 93.5972C135.638 89.4419 141.311 87.0876 148.421 86.5346V76.0879H154.206V86.6437C157.891 86.7179 161.498 87.7163 164.697 89.5474C167.29 91.1134 169.436 93.3201 170.93 95.9551C172.374 98.5932 173.412 101.434 174.008 104.382C174.611 107.29 174.998 110.238 175.165 113.202L158.202 115.691C158.153 113.087 157.916 110.489 157.492 107.919C157.224 106.005 156.472 104.19 155.309 102.647C154.722 101.99 153.984 101.485 153.159 101.175C152.334 100.865 151.446 100.759 150.571 100.867C149.581 100.853 148.602 101.084 147.723 101.539C146.843 101.994 146.089 102.66 145.528 103.476C144.387 105.111 143.784 107.061 143.803 109.054C143.66 112.178 144.584 115.258 146.423 117.787C148.228 120.075 150.21 122.217 152.351 124.195L162.175 132.731C164.818 135.117 167.264 137.713 169.489 140.493C171.713 143.279 173.512 146.381 174.827 149.695C176.226 153.377 176.904 157.294 176.824 161.233C176.876 165.193 176.001 169.111 174.27 172.673C172.616 176.072 170.079 178.964 166.924 181.046C163.526 183.243 159.628 184.546 155.593 184.834V195.99H149.895Z" fill="#263238"/>
<path opacity="0.35" d="M191.856 132.579C211.486 132.579 227.399 117.169 227.399 98.1602C227.399 79.1515 211.486 63.7419 191.856 63.7419C172.226 63.7419 156.313 79.1515 156.313 98.1602C156.313 117.169 172.226 132.579 191.856 132.579Z" fill="white"/>
</svg>
