<svg width="379" height="336" viewBox="0 0 379 336" fill="none" xmlns="http://www.w3.org/2000/svg">
<path d="M346.938 274.383C349.865 257.553 377.669 225.358 369.622 205.601C361.576 185.844 341.81 248.754 334.491 249.507C327.172 250.26 333.763 220.967 344.01 193.163C354.257 165.359 362.303 136.083 344.01 125.108C325.717 114.134 326.444 201.209 322.053 198.282C317.661 195.354 324.98 158.767 319.861 136.083C314.742 113.398 303.032 131.691 303.032 158.082C303.032 184.473 311.079 199.06 305.223 201.235C299.368 203.409 281.405 195.227 281.811 223.92C282.217 252.612 304.496 286.855 296.44 282.464C288.385 278.072 273.756 261.243 276.683 288.319C278.756 307.458 293.606 325.853 302.152 335H341.277C347.242 328.866 358.834 315.937 366.661 300.757C377.669 279.511 344.01 291.221 346.938 274.383Z" fill="#92E3A9"/>
<path d="M299.368 333.291C292.125 322.909 288.74 310.217 285.356 298.371C283.664 290.756 283.664 282.294 289.587 277.218C295.51 272.987 298.894 280.602 302.279 283.987C304.817 282.294 303.125 279.756 303.125 278.064C301.437 264.591 300.589 251.027 300.586 237.449C300.586 228.988 303.971 222.219 307.355 214.604C309.048 212.065 310.74 209.527 313.278 208.681C315.817 207.835 318.355 208.681 319.201 211.219C320.894 217.142 320.894 223.065 321.74 228.988C323.432 227.296 322.586 224.757 322.586 223.065C325.97 198.527 323.432 174.836 331.047 151.144C331.893 149.452 334.432 147.759 336.124 148.605C342.047 149.452 342.047 157.067 342.047 162.144C345.431 186.681 337.816 210.373 335.278 234.911C335.278 236.603 334.432 238.295 336.124 239.988C336.97 234.065 340.355 228.142 342.047 222.219C342.893 219.681 344.585 216.296 347.124 214.604C348.816 213.758 350.508 214.604 352.2 216.296C355.585 221.373 356.431 226.45 355.585 232.373C353.047 246.757 347.97 258.603 342.047 271.295L339.508 278.91C338.662 283.987 335.278 289.91 338.662 294.14C344.585 293.294 346.277 286.525 351.354 283.141C356.431 279.756 358.123 283.987 358.969 287.371C362.354 304.294 356.431 319.524 347.902 333.257" stroke="#263238" stroke-width="1.04867" stroke-linecap="round" stroke-linejoin="round"/>
<path d="M323.069 330.059C323.069 330.059 321.097 290.519 326.038 254.448" stroke="#263238" stroke-width="1.04867" stroke-linecap="round" stroke-linejoin="round"/>
<path d="M306.763 304.852L323.068 322.646L337.402 310.284" stroke="#263238" stroke-width="1.04867" stroke-linecap="round" stroke-linejoin="round"/>
<path d="M318.618 260.38L323.068 283.107L335.921 260.38" stroke="#263238" stroke-width="1.04867" stroke-linecap="round" stroke-linejoin="round"/>
<path d="M326.529 248.517L329.49 227.27" stroke="#263238" stroke-width="1.04867" stroke-linecap="round" stroke-linejoin="round"/>
<path d="M92.3109 75.2542H39.0215V141.87H92.3109V75.2542Z" stroke="#263238" stroke-width="1.04867" stroke-linecap="round" stroke-linejoin="round"/>
<path d="M158.927 75.2542H105.638V141.87H158.927V75.2542Z" stroke="#263238" stroke-width="1.04867" stroke-linecap="round" stroke-linejoin="round"/>
<path d="M92.3109 152.769H39.0215V219.385H92.3109V152.769Z" stroke="#263238" stroke-width="1.04867" stroke-linecap="round" stroke-linejoin="round"/>
<path d="M158.927 152.769H105.638V219.385H158.927V152.769Z" stroke="#263238" stroke-width="1.04867" stroke-linecap="round" stroke-linejoin="round"/>
<path d="M92.3109 230.283H39.0215V296.899H92.3109V230.283Z" stroke="#263238" stroke-width="1.04867" stroke-linecap="round" stroke-linejoin="round"/>
<path d="M158.927 230.283H105.638V296.899H158.927V230.283Z" stroke="#263238" stroke-width="1.04867" stroke-linecap="round" stroke-linejoin="round"/>
<path d="M99.5792 6.21826C83.8392 6.21826 68.7439 12.4709 57.614 23.6008C46.4841 34.7307 40.2314 49.826 40.2314 65.566H158.927C158.927 49.826 152.674 34.7307 141.544 23.6008C130.415 12.4709 115.319 6.21826 99.5792 6.21826V6.21826Z" stroke="#263238" stroke-width="1.04867" stroke-linecap="round" stroke-linejoin="round"/>
<path d="M176.332 38.0329C176.332 38.0329 176.332 25.341 154.544 27.8794C132.756 30.4178 123.626 49.6673 117.043 53.7202C110.46 57.7732 98.2928 61.3354 97.7851 67.4022C97.2774 73.469 102.862 76.0158 97.2774 80.5765C91.6929 85.1371 83.1301 89.2155 85.1185 95.2992C87.1069 101.383 92.7337 107.458 90.1953 111.52C87.6569 115.581 80.5663 119.626 87.1492 124.212C93.7321 128.798 96.7782 129.788 96.7782 135.863C96.7782 141.938 94.2398 146.016 100.332 148.03C106.424 150.044 109.952 145.999 113.506 153.598C117.06 161.196 120.597 163.227 126.681 161.704C132.764 160.181 141.369 157.651 144.449 159.681C147.529 161.712 157.141 167.297 161.169 164.242C165.196 161.188 168.784 156.627 174.851 159.165C180.918 161.704 186.003 165.249 188.533 160.688C191.063 156.128 188.533 155.112 198.162 153.073C207.791 151.034 211.336 151.559 211.336 143.453C211.336 135.347 210.828 133.299 215.389 129.771C219.95 126.242 224.003 127.74 222.488 119.126C220.974 110.513 217.927 108.482 219.442 99.8683C220.957 91.2547 216.904 88.2171 213.866 85.6787C210.828 83.1403 207.283 78.5881 208.298 74.0274C209.314 69.4668 216.912 68.9506 209.305 60.8531C201.699 52.7556 198.162 55.2771 196.613 49.1934C195.065 43.1097 190.014 29.927 176.332 38.0329Z" fill="#263238" stroke="#263238" stroke-width="1.04867" stroke-linecap="round" stroke-linejoin="round"/>
<path d="M156.879 53.2888C153.756 58.2302 151.345 63.8063 146.319 68.5192C139.059 75.2883 120.461 81.2112 119.556 87.5741C118.65 93.937 121.823 97.55 115.477 102.991C109.131 108.431 99.147 109.76 99.147 115.243C99.147 120.726 101.863 122.502 100.509 126.581" stroke="#616161" stroke-width="1.04867" stroke-miterlimit="10"/>
<path d="M170.366 47.1964C170.366 47.1964 168.099 41.2734 161.744 47.1964C161.254 47.6533 160.788 48.1271 160.348 48.6094" stroke="#616161" stroke-width="1.04867" stroke-miterlimit="10"/>
<path d="M119.125 73.1221C113.54 74.4759 109.132 75.4489 108.675 79.4088C107.761 87.1171 109.123 92.1008 103.683 94.3769C98.2422 96.653 90.9908 100.3 93.25 104.81C95.5092 109.32 95.9661 110.733 95.5176 112.518" stroke="#616161" stroke-width="1.04867" stroke-miterlimit="10"/>
<path d="M169.435 39.9367C169.435 39.9367 156.743 31.78 149.974 39.0313C143.205 46.2827 146.344 55.3617 135.912 65.3461C133.262 67.8133 130.135 69.7111 126.723 70.9221" stroke="#616161" stroke-width="1.04867" stroke-miterlimit="10"/>
<path d="M213.578 104.268C214.339 105.45 215.391 106.417 216.633 107.077" stroke="#616161" stroke-width="1.04867" stroke-miterlimit="10"/>
<path d="M178.531 51.3003C178.531 51.3003 189.869 47.6704 192.586 54.0164C195.302 60.3624 196.672 71.709 201.665 73.5282C206.657 75.3474 208.916 78.0635 208.916 88.0394C208.91 91.2546 209.389 94.4523 210.337 97.5245" stroke="#616161" stroke-width="1.04867" stroke-miterlimit="10"/>
<path d="M105.045 132.021C108.675 126.098 113.659 128.4 114.115 122.045C114.572 115.691 110.942 113.88 114.564 109.802C118.185 105.723 124.091 103.879 124.091 103.879" stroke="#616161" stroke-width="1.04867" stroke-miterlimit="10"/>
<path d="M110.029 144.73C108.353 143.342 106.898 141.707 105.713 139.882" stroke="#616161" stroke-width="1.04867" stroke-miterlimit="10"/>
<path d="M235.62 334.975C235.62 334.975 237.135 314.202 228.005 293.421C218.875 272.64 216.819 271.142 216.819 265.059C216.819 258.975 222.928 251.876 223.943 238.194C224.959 224.512 224.451 217.887 224.451 217.887C224.451 217.887 246.239 252.341 261.444 254.372C276.649 256.403 285.77 242.213 280.194 222.955C274.618 203.697 250.292 187.993 240.671 175.318C231.051 162.643 209.246 162.626 198.103 162.626C186.959 162.626 181.383 158.573 179.352 150.975C177.322 143.376 177.33 128.129 177.33 128.129C177.33 128.129 164.147 136.235 141.852 127.114C141.852 127.114 143.882 154.985 141.344 159.038C138.806 163.091 135.286 167.22 120.081 167.22C104.876 167.22 92.209 170.267 85.1185 177.374C78.0279 184.482 48.6332 212.844 41.0349 223.996C33.4367 235.148 37.4812 247.307 46.6025 251.868C55.7238 256.428 64.8451 252.367 71.4365 246.292C78.0279 240.216 98.8004 220.95 98.8004 220.95C98.8004 220.95 98.8004 232.61 104.376 249.329C109.952 266.049 114.53 264.026 110.452 276.185C106.373 288.344 98.2927 291.898 95.7628 307.602C94.2474 316.642 93.5676 325.802 93.7321 334.966" fill="#92E3A9"/>
<g opacity="0.2">
<path opacity="0.2" d="M202.367 178.516C202.02 178.516 200.751 179.362 202.367 181.825C203.983 179.379 202.714 178.516 202.367 178.516Z" fill="black"/>
<path opacity="0.2" d="M242.982 178.516C242.635 178.516 241.366 179.362 242.982 181.825C244.598 179.379 243.329 178.516 242.982 178.516Z" fill="black"/>
<path opacity="0.2" d="M242.982 198.823C242.635 198.823 241.366 199.67 242.982 202.132C244.598 199.687 243.329 198.823 242.982 198.823Z" fill="black"/>
<path opacity="0.2" d="M202.367 198.823C202.02 198.823 200.751 199.67 202.367 202.132C203.983 199.687 202.714 198.823 202.367 198.823Z" fill="black"/>
<path opacity="0.2" d="M222.674 188.67C222.327 188.67 221.058 189.516 222.674 191.978C224.29 189.533 223.021 188.67 222.674 188.67Z" fill="black"/>
<path opacity="0.2" d="M222.674 168.363C222.327 168.363 221.058 169.209 222.674 171.671C224.29 169.226 223.021 168.363 222.674 168.363Z" fill="black"/>
<path opacity="0.2" d="M203.281 182.332C206.209 182.493 206.31 180.962 206.141 180.64C205.972 180.318 204.542 179.701 203.281 182.332Z" fill="black"/>
<path opacity="0.2" d="M246.375 181.749L245.249 180.589C244.632 181.028 244.151 181.632 243.862 182.332C244.744 182.477 245.647 182.267 246.375 181.749Z" fill="black"/>
<path opacity="0.2" d="M223.588 192.486C226.516 192.647 226.618 191.115 226.448 190.794C226.279 190.472 224.849 189.854 223.588 192.486Z" fill="black"/>
<path opacity="0.2" d="M223.588 172.179C226.516 172.339 226.618 170.808 226.448 170.486C226.279 170.165 224.849 169.547 223.588 172.179Z" fill="black"/>
<path opacity="0.2" d="M239.242 180.666C239.073 180.962 239.183 182.493 242.102 182.358C240.807 179.701 239.42 180.361 239.242 180.666Z" fill="black"/>
<path opacity="0.2" d="M239.241 200.973C239.182 201.188 239.193 201.416 239.272 201.624C239.351 201.833 239.494 202.01 239.681 202.132C240.401 202.585 241.26 202.765 242.101 202.64C242.022 202.465 241.931 202.295 241.831 202.132C240.621 200.101 239.411 200.685 239.241 200.973Z" fill="black"/>
<path opacity="0.2" d="M218.934 190.819C218.765 191.115 218.875 192.647 221.794 192.511C220.5 189.855 219.112 190.515 218.934 190.819Z" fill="black"/>
<path opacity="0.2" d="M218.934 170.512C218.765 170.808 218.875 172.339 221.794 172.204C220.5 169.547 219.112 170.207 218.934 170.512Z" fill="black"/>
<path opacity="0.2" d="M202.367 239.438C202.02 239.438 200.751 240.284 202.367 242.746C203.983 240.301 202.714 239.438 202.367 239.438Z" fill="black"/>
<path opacity="0.2" d="M242.982 239.438C242.728 239.438 242 239.895 242.229 241.071C242.584 241.452 242.94 241.832 243.303 242.205C244.403 240.174 243.303 239.438 242.982 239.438Z" fill="black"/>
<path opacity="0.2" d="M202.367 259.745C202.02 259.745 200.751 260.591 202.367 263.053C203.983 260.608 202.714 259.745 202.367 259.745Z" fill="black"/>
<path opacity="0.2" d="M263.289 249.592C262.942 249.592 261.673 250.438 263.289 252.9C264.905 250.455 263.636 249.592 263.289 249.592Z" fill="black"/>
<path opacity="0.2" d="M202.367 219.131C202.02 219.131 200.751 219.977 202.367 222.439C203.983 219.994 202.714 219.131 202.367 219.131Z" fill="black"/>
<path opacity="0.2" d="M242.982 219.131C242.635 219.131 241.366 219.977 242.982 222.439C244.598 219.994 243.329 219.131 242.982 219.131Z" fill="black"/>
<path opacity="0.2" d="M222.674 229.284C222.327 229.284 221.058 230.13 222.674 232.593C224.29 230.147 223.021 229.284 222.674 229.284Z" fill="black"/>
<path opacity="0.2" d="M263.289 229.284C262.942 229.284 261.673 230.13 263.289 232.593C264.905 230.147 263.636 229.284 263.289 229.284Z" fill="black"/>
<path opacity="0.2" d="M222.674 208.977C222.327 208.977 221.058 209.823 222.674 212.285C224.29 209.84 223.021 208.977 222.674 208.977Z" fill="black"/>
<path opacity="0.2" d="M263.289 208.977C262.942 208.977 261.673 209.823 263.289 212.285C264.905 209.84 263.636 208.977 263.289 208.977Z" fill="black"/>
<path opacity="0.2" d="M203.281 243.254C206.209 243.415 206.31 241.883 206.141 241.562C205.972 241.24 204.542 240.622 203.281 243.254Z" fill="black"/>
<path opacity="0.2" d="M244.022 242.949L244.327 243.262C246.789 243.262 246.865 241.866 246.722 241.57C246.578 241.274 245.266 240.682 244.022 242.949Z" fill="black"/>
<path opacity="0.2" d="M205.464 261.589C205.094 261.582 204.734 261.708 204.449 261.945C204.277 262.081 204.118 262.234 203.975 262.402C203.805 262.606 203.652 262.824 203.518 263.053C203.521 263.07 203.521 263.087 203.518 263.104C203.442 263.239 203.357 263.392 203.281 263.561C204.123 263.688 204.982 263.508 205.701 263.053V263.053C205.761 263.007 205.818 262.956 205.87 262.901C205.955 262.81 206.026 262.707 206.082 262.596C206.164 262.499 206.215 262.379 206.226 262.252C206.238 262.125 206.209 261.997 206.145 261.887C206.081 261.777 205.985 261.689 205.869 261.636C205.753 261.582 205.623 261.566 205.498 261.589H205.464Z" fill="black"/>
<path opacity="0.2" d="M264.203 253.407C267.122 253.568 267.232 252.037 267.063 251.715C266.893 251.394 265.463 250.776 264.203 253.407Z" fill="black"/>
<path opacity="0.2" d="M203.281 222.947C206.209 223.108 206.31 221.576 206.141 221.255C205.972 220.933 204.542 220.315 203.281 222.947Z" fill="black"/>
<path opacity="0.2" d="M246.722 221.28C246.544 220.975 245.156 220.315 243.862 222.972C246.781 223.107 246.891 221.576 246.722 221.28Z" fill="black"/>
<path opacity="0.2" d="M223.588 233.1C223.834 233.113 224.079 233.113 224.325 233.1C224.325 232.677 224.367 232.254 224.384 231.865C224.063 232.238 223.796 232.654 223.588 233.1Z" fill="black"/>
<path opacity="0.2" d="M264.203 233.1C267.122 233.261 267.232 231.73 267.063 231.408C266.893 231.087 265.463 230.469 264.203 233.1Z" fill="black"/>
<path opacity="0.2" d="M223.588 212.793C226.516 212.954 226.618 211.422 226.448 211.101C226.279 210.779 224.849 210.161 223.588 212.793Z" fill="black"/>
<path opacity="0.2" d="M264.203 212.793C267.122 212.954 267.232 211.422 267.063 211.101C266.893 210.779 265.463 210.161 264.203 212.793Z" fill="black"/>
<path opacity="0.2" d="M220.449 253.34L220.915 252.079C219.933 251.064 219.07 251.504 218.935 251.741C218.799 251.978 218.842 253.044 220.449 253.34Z" fill="black"/>
<path opacity="0.2" d="M279.856 241.587C279.793 241.829 279.815 242.086 279.918 242.313C280.021 242.541 280.2 242.727 280.423 242.839C280.601 242.348 280.753 241.841 280.897 241.325C280.717 241.264 280.523 241.256 280.338 241.302C280.154 241.349 279.986 241.448 279.856 241.587V241.587Z" fill="black"/>
<path opacity="0.2" d="M259.549 251.741C259.371 252.037 259.49 253.568 262.409 253.433C261.114 250.776 259.726 251.436 259.549 251.741Z" fill="black"/>
<path opacity="0.2" d="M239.242 221.28C239.073 221.576 239.183 223.107 242.102 222.972C240.807 220.315 239.42 220.975 239.242 221.28Z" fill="black"/>
<path opacity="0.2" d="M218.934 231.433C218.765 231.73 218.875 233.261 221.794 233.126C220.5 230.469 219.112 231.129 218.934 231.433Z" fill="black"/>
<path opacity="0.2" d="M259.549 231.433C259.371 231.73 259.49 233.261 262.409 233.126C261.114 230.469 259.726 231.129 259.549 231.433Z" fill="black"/>
<path opacity="0.2" d="M218.934 211.126C218.765 211.422 218.875 212.954 221.794 212.819C220.5 210.162 219.112 210.822 218.934 211.126Z" fill="black"/>
<path opacity="0.2" d="M259.549 211.126C259.371 211.422 259.49 212.954 262.409 212.819C261.114 210.162 259.726 210.822 259.549 211.126Z" fill="black"/>
<path opacity="0.2" d="M246.282 202.132C246.469 202.01 246.612 201.833 246.691 201.624C246.77 201.416 246.781 201.188 246.722 200.973C246.553 200.685 245.343 200.127 244.133 202.132C244.032 202.295 243.942 202.465 243.862 202.64C244.703 202.767 245.562 202.587 246.282 202.132Z" fill="black"/>
<path opacity="0.2" d="M205.668 202.132C205.854 202.01 205.998 201.833 206.077 201.624C206.156 201.416 206.167 201.188 206.107 200.973C205.938 200.685 204.728 200.127 203.518 202.132C203.418 202.295 203.327 202.465 203.248 202.64C204.089 202.767 204.948 202.587 205.668 202.132Z" fill="black"/>
<path opacity="0.2" d="M202.367 300.359C202.02 300.359 200.751 301.206 202.367 303.668C203.983 301.222 202.714 300.359 202.367 300.359Z" fill="black"/>
<path opacity="0.2" d="M202.367 320.667C202.02 320.667 200.751 321.513 202.367 323.975C203.983 321.53 202.714 320.667 202.367 320.667Z" fill="black"/>
<path opacity="0.2" d="M222.674 310.513C222.327 310.513 221.058 311.359 222.674 313.821C224.29 311.376 223.021 310.513 222.674 310.513Z" fill="black"/>
<path opacity="0.2" d="M202.367 280.052C202.02 280.052 200.751 280.898 202.367 283.361C203.983 280.915 202.714 280.052 202.367 280.052Z" fill="black"/>
<path opacity="0.2" d="M222.674 290.206C222.327 290.206 221.058 291.052 222.674 293.514C224.29 291.069 223.021 290.206 222.674 290.206Z" fill="black"/>
<path opacity="0.2" d="M203.281 304.175C206.209 304.336 206.31 302.805 206.141 302.483C205.972 302.162 204.542 301.544 203.281 304.175Z" fill="black"/>
<path opacity="0.2" d="M205.464 322.511H205.287C205.069 322.527 204.857 322.594 204.669 322.706L204.449 322.858C204.073 323.166 203.757 323.542 203.518 323.966V323.966C203.418 324.13 203.327 324.3 203.248 324.474C204.089 324.602 204.948 324.421 205.668 323.966C205.854 323.845 205.998 323.667 206.077 323.459C206.156 323.25 206.167 323.022 206.107 322.807C206.028 322.714 205.929 322.64 205.818 322.589C205.707 322.538 205.587 322.511 205.464 322.511Z" fill="black"/>
<path opacity="0.2" d="M223.588 314.329C226.516 314.49 226.618 312.958 226.448 312.637C226.279 312.315 224.849 311.698 223.588 314.329Z" fill="black"/>
<path opacity="0.2" d="M203.281 283.868C206.209 284.029 206.31 282.498 206.141 282.176C205.972 281.854 204.542 281.237 203.281 283.868Z" fill="black"/>
<path opacity="0.2" d="M223.588 294.022C226.516 294.183 226.618 292.651 226.448 292.33C226.279 292.008 224.849 291.39 223.588 294.022Z" fill="black"/>
<path opacity="0.2" d="M218.934 312.662C218.765 312.958 218.875 314.49 221.794 314.354C220.5 311.698 219.112 312.358 218.934 312.662Z" fill="black"/>
<path opacity="0.2" d="M218.934 292.355C218.765 292.651 218.875 294.183 221.794 294.047C220.5 291.39 219.112 292.05 218.934 292.355Z" fill="black"/>
<path opacity="0.2" d="M222.674 330.82C222.327 330.82 221.058 331.666 222.674 334.129C224.29 331.683 223.021 330.82 222.674 330.82Z" fill="black"/>
<path opacity="0.2" d="M223.588 334.636C226.516 334.797 226.618 333.265 226.448 332.944C226.279 332.622 224.849 332.005 223.588 334.636Z" fill="black"/>
<path opacity="0.2" d="M218.934 332.969C218.765 333.265 218.875 334.797 221.794 334.662C220.5 332.005 219.112 332.665 218.934 332.969Z" fill="black"/>
<path opacity="0.2" d="M161.753 137.902C161.406 137.902 160.137 138.748 161.753 141.21C163.369 138.765 162.1 137.902 161.753 137.902Z" fill="black"/>
<path opacity="0.2" d="M141.928 128.028C141.928 128.484 141.995 129.119 142.046 129.914C142.207 129.621 142.281 129.288 142.26 128.954C142.239 128.62 142.124 128.299 141.928 128.028Z" fill="black"/>
<path opacity="0.2" d="M164.85 139.747C164.479 139.739 164.119 139.865 163.834 140.102C163.662 140.238 163.503 140.391 163.36 140.559C163.19 140.763 163.038 140.981 162.903 141.21V141.261C162.827 141.396 162.743 141.549 162.667 141.718C163.508 141.845 164.367 141.665 165.086 141.21V141.21C165.147 141.164 165.203 141.113 165.256 141.058C165.34 140.967 165.411 140.864 165.467 140.753C165.527 140.647 165.563 140.53 165.573 140.409C165.584 140.288 165.568 140.166 165.526 140.051C165.444 139.952 165.34 139.873 165.223 139.821C165.106 139.768 164.978 139.742 164.85 139.747Z" fill="black"/>
<path opacity="0.2" d="M142.36 131.564C145.287 131.725 145.389 130.194 145.22 129.872C145.051 129.551 143.621 128.933 142.36 131.564Z" fill="black"/>
<path opacity="0.2" d="M121.917 179.456C121.902 179.326 121.865 179.2 121.807 179.083V179.083C121.783 179.03 121.754 178.98 121.723 178.931C121.669 178.848 121.603 178.774 121.528 178.711V178.711C121.467 178.658 121.399 178.616 121.325 178.584V178.584C121.273 178.557 121.215 178.542 121.156 178.542C121.097 178.542 121.039 178.557 120.986 178.584C120.597 178.753 119.963 179.43 120.673 181.004C120.814 181.297 120.975 181.58 121.156 181.85C121.336 181.58 121.497 181.297 121.638 181.004C121.838 180.607 121.947 180.171 121.959 179.726C121.964 179.647 121.964 179.568 121.959 179.489L121.917 179.456Z" fill="black"/>
<path opacity="0.2" d="M161.753 178.516C161.406 178.516 160.137 179.362 161.753 181.825C163.369 179.379 162.1 178.516 161.753 178.516Z" fill="black"/>
<path opacity="0.2" d="M161.753 198.823C161.406 198.823 160.137 199.67 161.753 202.132C163.369 199.687 162.1 198.823 161.753 198.823Z" fill="black"/>
<path opacity="0.2" d="M121.917 199.763C121.902 199.633 121.865 199.507 121.807 199.39V199.39C121.783 199.338 121.754 199.287 121.723 199.238V199.238C121.669 199.156 121.603 199.081 121.528 199.018V199.018C121.467 198.966 121.399 198.923 121.325 198.891C121.273 198.864 121.215 198.849 121.156 198.849C121.097 198.849 121.039 198.864 120.986 198.891C120.597 199.06 119.963 199.737 120.673 201.311C120.814 201.604 120.975 201.887 121.156 202.157C121.336 201.887 121.497 201.604 121.638 201.311C121.838 200.914 121.947 200.478 121.959 200.033C121.964 199.954 121.964 199.875 121.959 199.796L121.917 199.763Z" fill="black"/>
<path opacity="0.2" d="M141.446 188.67C141.099 188.67 139.83 189.516 141.446 191.978C143.062 189.533 141.793 188.67 141.446 188.67Z" fill="black"/>
<path opacity="0.2" d="M182.06 188.67C181.713 188.67 180.444 189.516 182.06 191.978C183.676 189.533 182.407 188.67 182.06 188.67Z" fill="black"/>
<path opacity="0.2" d="M161.753 158.209C161.406 158.209 160.137 159.055 161.753 161.518C163.369 159.072 162.1 158.209 161.753 158.209Z" fill="black"/>
<path opacity="0.2" d="M141.446 168.363C141.099 168.363 139.83 169.209 141.446 171.671C143.062 169.226 141.793 168.363 141.446 168.363Z" fill="black"/>
<path opacity="0.2" d="M182.06 168.363C181.713 168.363 180.444 169.209 182.06 171.671C183.676 169.226 182.407 168.363 182.06 168.363Z" fill="black"/>
<path opacity="0.2" d="M122.053 182.332C124.98 182.493 125.082 180.962 124.913 180.64C124.743 180.318 123.313 179.701 122.053 182.332Z" fill="black"/>
<path opacity="0.2" d="M162.667 182.332C165.586 182.493 165.696 180.962 165.526 180.64C165.357 180.318 163.927 179.701 162.667 182.332Z" fill="black"/>
<path opacity="0.2" d="M142.36 192.486C145.287 192.647 145.389 191.115 145.22 190.794C145.051 190.472 143.621 189.854 142.36 192.486Z" fill="black"/>
<path opacity="0.2" d="M182.974 192.486C185.893 192.647 186.003 191.115 185.834 190.794C185.665 190.472 184.235 189.854 182.974 192.486Z" fill="black"/>
<path opacity="0.2" d="M162.667 162.025C165.586 162.186 165.696 160.654 165.526 160.333C165.357 160.011 163.927 159.394 162.667 162.025Z" fill="black"/>
<path opacity="0.2" d="M142.36 172.179C145.287 172.339 145.389 170.808 145.22 170.486C145.051 170.165 143.621 169.547 142.36 172.179Z" fill="black"/>
<path opacity="0.2" d="M182.974 172.179C185.893 172.339 186.003 170.808 185.834 170.486C185.665 170.165 184.235 169.547 182.974 172.179Z" fill="black"/>
<path opacity="0.2" d="M145.186 150.205C145.016 149.917 143.781 149.358 142.554 151.431C142.554 151.584 142.554 151.728 142.554 151.871C145.245 151.99 145.355 150.492 145.186 150.205Z" fill="black"/>
<path opacity="0.2" d="M158.013 180.666C157.844 180.962 157.954 182.493 160.873 182.358C159.578 179.701 158.191 180.361 158.013 180.666Z" fill="black"/>
<path opacity="0.2" d="M158.013 200.973C157.954 201.188 157.964 201.416 158.043 201.624C158.122 201.833 158.266 202.01 158.453 202.132C159.173 202.585 160.031 202.765 160.873 202.64C160.793 202.465 160.703 202.295 160.602 202.132C159.392 200.101 158.182 200.685 158.013 200.973Z" fill="black"/>
<path opacity="0.2" d="M137.706 190.819C137.537 191.115 137.647 192.647 140.566 192.511C139.271 189.855 137.884 190.515 137.706 190.819Z" fill="black"/>
<path opacity="0.2" d="M198.627 180.666C198.45 180.962 198.568 182.493 201.487 182.358C200.193 179.701 198.805 180.361 198.627 180.666Z" fill="black"/>
<path opacity="0.2" d="M201.217 202.132C200.007 200.101 198.797 200.685 198.628 200.973C198.568 201.188 198.579 201.416 198.658 201.624C198.737 201.833 198.881 202.01 199.068 202.132V202.132C199.787 202.587 200.646 202.767 201.488 202.64C201.408 202.465 201.317 202.295 201.217 202.132V202.132Z" fill="black"/>
<path opacity="0.2" d="M178.32 190.819C178.143 191.115 178.261 192.647 181.18 192.511C179.886 189.855 178.498 190.515 178.32 190.819Z" fill="black"/>
<path opacity="0.2" d="M158.013 160.358C157.844 160.654 157.954 162.186 160.873 162.05C159.578 159.394 158.191 160.054 158.013 160.358Z" fill="black"/>
<path opacity="0.2" d="M137.706 170.512C137.537 170.808 137.647 172.34 140.566 172.204C139.271 169.547 137.884 170.207 137.706 170.512Z" fill="black"/>
<path opacity="0.2" d="M178.32 170.512C178.143 170.808 178.261 172.34 181.18 172.204C179.886 169.547 178.498 170.207 178.32 170.512Z" fill="black"/>
<path opacity="0.2" d="M179.59 151.745C179.513 151.508 179.437 151.279 179.37 151.034C179.302 150.789 179.183 150.298 179.099 149.9C178.954 149.884 178.808 149.903 178.672 149.956C178.536 150.009 178.416 150.095 178.32 150.205C178.185 150.433 178.227 151.398 179.59 151.745Z" fill="black"/>
<path opacity="0.2" d="M160.602 141.21C160.468 140.981 160.315 140.763 160.145 140.559C160.005 140.389 159.846 140.236 159.671 140.102C159.387 139.865 159.026 139.739 158.656 139.746C158.533 139.747 158.412 139.775 158.301 139.828C158.19 139.88 158.092 139.957 158.013 140.051C157.972 140.165 157.956 140.287 157.966 140.409C157.976 140.53 158.012 140.647 158.072 140.753C158.128 140.864 158.199 140.967 158.284 141.058L158.453 141.21C159.173 141.664 160.031 141.844 160.873 141.718C160.797 141.549 160.712 141.396 160.636 141.261L160.602 141.21Z" fill="black"/>
<path opacity="0.2" d="M121.917 240.377C121.902 240.248 121.865 240.122 121.807 240.005V240.005C121.783 239.952 121.754 239.901 121.723 239.853V239.853C121.669 239.77 121.603 239.696 121.528 239.633V239.633C121.467 239.58 121.399 239.537 121.325 239.506C121.273 239.478 121.215 239.464 121.156 239.464C121.097 239.464 121.039 239.478 120.986 239.506C120.597 239.675 119.963 240.352 120.673 241.926C120.814 242.219 120.975 242.501 121.156 242.772C121.336 242.501 121.497 242.219 121.638 241.926C121.838 241.528 121.947 241.092 121.959 240.648C121.964 240.569 121.964 240.49 121.959 240.411L121.917 240.377Z" fill="black"/>
<path opacity="0.2" d="M161.753 239.438C161.406 239.438 160.137 240.284 161.753 242.746C163.369 240.301 162.1 239.438 161.753 239.438Z" fill="black"/>
<path opacity="0.2" d="M161.753 259.745C161.406 259.745 160.137 260.591 161.753 263.053C163.369 260.608 162.1 259.745 161.753 259.745Z" fill="black"/>
<path opacity="0.2" d="M121.917 260.684C121.902 260.555 121.865 260.429 121.807 260.312V260.312C121.783 260.259 121.754 260.208 121.723 260.16C121.669 260.077 121.603 260.003 121.528 259.94V259.94C121.467 259.887 121.399 259.844 121.325 259.813C121.273 259.784 121.215 259.77 121.156 259.77C121.097 259.77 121.038 259.784 120.986 259.813C120.597 259.982 119.963 260.659 120.673 262.233C120.814 262.526 120.975 262.808 121.156 263.079C121.336 262.808 121.497 262.526 121.638 262.233C121.838 261.835 121.947 261.399 121.959 260.955C121.964 260.876 121.964 260.797 121.959 260.718L121.917 260.684Z" fill="black"/>
<path opacity="0.2" d="M141.446 249.592C141.099 249.592 139.83 250.438 141.446 252.9C143.062 250.455 141.793 249.592 141.446 249.592Z" fill="black"/>
<path opacity="0.2" d="M182.06 249.592C181.713 249.592 180.444 250.438 182.06 252.9C183.676 250.455 182.407 249.592 182.06 249.592Z" fill="black"/>
<path opacity="0.2" d="M121.917 220.07C121.902 219.941 121.865 219.815 121.807 219.698V219.698C121.783 219.645 121.754 219.594 121.723 219.545V219.545C121.669 219.463 121.603 219.389 121.528 219.325V219.325C121.467 219.273 121.399 219.23 121.325 219.198C121.273 219.171 121.215 219.157 121.156 219.157C121.097 219.157 121.039 219.171 120.986 219.198C120.597 219.368 119.963 220.045 120.673 221.618C120.814 221.911 120.975 222.194 121.156 222.465C121.336 222.194 121.497 221.911 121.638 221.618C121.838 221.221 121.947 220.785 121.959 220.341C121.964 220.262 121.964 220.183 121.959 220.104L121.917 220.07Z" fill="black"/>
<path opacity="0.2" d="M161.753 219.131C161.406 219.131 160.137 219.977 161.753 222.439C163.369 219.994 162.1 219.131 161.753 219.131Z" fill="black"/>
<path opacity="0.2" d="M141.446 229.284C141.099 229.284 139.83 230.13 141.446 232.593C143.062 230.147 141.793 229.284 141.446 229.284Z" fill="black"/>
<path opacity="0.2" d="M182.06 229.284C181.713 229.284 180.444 230.13 182.06 232.593C183.676 230.147 182.407 229.284 182.06 229.284Z" fill="black"/>
<path opacity="0.2" d="M141.446 208.977C141.099 208.977 139.83 209.823 141.446 212.285C143.062 209.84 141.793 208.977 141.446 208.977Z" fill="black"/>
<path opacity="0.2" d="M182.06 208.977C181.713 208.977 180.444 209.823 182.06 212.285C183.676 209.84 182.407 208.977 182.06 208.977Z" fill="black"/>
<path opacity="0.2" d="M122.053 243.254C124.98 243.415 125.082 241.883 124.913 241.562C124.743 241.24 123.313 240.622 122.053 243.254Z" fill="black"/>
<path opacity="0.2" d="M162.667 243.254C165.586 243.415 165.696 241.883 165.526 241.562C165.357 241.24 163.927 240.622 162.667 243.254Z" fill="black"/>
<path opacity="0.2" d="M164.85 261.59C164.479 261.582 164.119 261.708 163.834 261.945C163.662 262.081 163.503 262.234 163.36 262.402C163.19 262.606 163.038 262.824 162.903 263.053V263.104C162.827 263.239 162.743 263.392 162.667 263.561C163.508 263.688 164.367 263.508 165.086 263.053V263.053C165.147 263.007 165.203 262.956 165.256 262.901C165.34 262.81 165.411 262.707 165.467 262.596C165.527 262.49 165.563 262.373 165.573 262.252C165.584 262.131 165.568 262.009 165.526 261.894C165.444 261.795 165.34 261.716 165.223 261.664C165.106 261.611 164.978 261.586 164.85 261.59Z" fill="black"/>
<path opacity="0.2" d="M124.236 261.589C123.866 261.582 123.505 261.708 123.22 261.945C123.048 262.081 122.889 262.234 122.747 262.402C122.577 262.606 122.424 262.824 122.29 263.053V263.104C122.213 263.239 122.129 263.392 122.053 263.561C122.894 263.688 123.753 263.508 124.473 263.053V263.053C124.533 263.007 124.589 262.956 124.642 262.901C124.726 262.81 124.798 262.707 124.853 262.596C124.936 262.499 124.986 262.379 124.998 262.252C125.009 262.125 124.981 261.997 124.917 261.887C124.853 261.777 124.756 261.689 124.64 261.636C124.525 261.582 124.395 261.566 124.27 261.589H124.236Z" fill="black"/>
<path opacity="0.2" d="M142.36 253.407C145.287 253.568 145.389 252.037 145.22 251.715C145.051 251.394 143.621 250.776 142.36 253.407Z" fill="black"/>
<path opacity="0.2" d="M182.974 253.407C185.893 253.568 186.003 252.037 185.834 251.715C185.665 251.394 184.235 250.776 182.974 253.407Z" fill="black"/>
<path opacity="0.2" d="M122.053 222.947C124.98 223.108 125.082 221.576 124.913 221.255C124.743 220.933 123.313 220.315 122.053 222.947Z" fill="black"/>
<path opacity="0.2" d="M162.667 222.947C165.586 223.108 165.696 221.576 165.526 221.255C165.357 220.933 163.927 220.315 162.667 222.947Z" fill="black"/>
<path opacity="0.2" d="M142.36 233.1C145.287 233.261 145.389 231.73 145.22 231.408C145.051 231.087 143.621 230.469 142.36 233.1Z" fill="black"/>
<path opacity="0.2" d="M182.974 233.1C185.893 233.261 186.003 231.73 185.834 231.408C185.665 231.087 184.235 230.469 182.974 233.1Z" fill="black"/>
<path opacity="0.2" d="M142.36 212.793C145.287 212.954 145.389 211.422 145.22 211.101C145.051 210.779 143.621 210.161 142.36 212.793Z" fill="black"/>
<path opacity="0.2" d="M182.974 212.793C185.893 212.954 186.003 211.422 185.834 211.101C185.665 210.779 184.235 210.161 182.974 212.793Z" fill="black"/>
<path opacity="0.2" d="M158.013 241.587C157.844 241.883 157.954 243.415 160.873 243.279C159.578 240.622 158.191 241.282 158.013 241.587Z" fill="black"/>
<path opacity="0.2" d="M137.706 251.741C137.537 252.037 137.647 253.568 140.566 253.433C139.271 250.776 137.884 251.436 137.706 251.741Z" fill="black"/>
<path opacity="0.2" d="M198.627 241.587C198.45 241.883 198.568 243.415 201.487 243.279C200.193 240.622 198.805 241.282 198.627 241.587Z" fill="black"/>
<path opacity="0.2" d="M178.32 251.741C178.143 252.037 178.261 253.568 181.18 253.433C179.886 250.776 178.498 251.436 178.32 251.741Z" fill="black"/>
<path opacity="0.2" d="M125.936 265.592C125.936 265.592 147.935 271.236 175.57 249.803C203.205 228.371 213.934 236.823 212.8 252.054C211.666 267.284 187.983 281.389 177.829 283.081C161.135 285.865 146.243 290.417 125.936 265.592Z" fill="black"/>
<path opacity="0.2" d="M158.013 221.28C157.844 221.576 157.954 223.107 160.873 222.972C159.578 220.315 158.191 220.975 158.013 221.28Z" fill="black"/>
<path opacity="0.2" d="M137.706 231.433C137.537 231.73 137.647 233.261 140.566 233.126C139.271 230.469 137.884 231.129 137.706 231.433Z" fill="black"/>
<path opacity="0.2" d="M198.627 221.28C198.45 221.576 198.568 223.107 201.487 222.972C200.193 220.315 198.805 220.975 198.627 221.28Z" fill="black"/>
<path opacity="0.2" d="M178.32 231.433C178.143 231.73 178.261 233.261 181.18 233.126C179.886 230.469 178.498 231.129 178.32 231.433Z" fill="black"/>
<path opacity="0.2" d="M137.706 211.126C137.537 211.422 137.647 212.954 140.566 212.819C139.271 210.162 137.884 210.822 137.706 211.126Z" fill="black"/>
<path opacity="0.2" d="M178.32 211.126C178.143 211.422 178.261 212.954 181.18 212.819C179.886 210.162 178.498 210.822 178.32 211.126Z" fill="black"/>
<path opacity="0.2" d="M165.053 202.132C165.24 202.01 165.383 201.833 165.462 201.624C165.541 201.416 165.552 201.188 165.493 200.973C165.324 200.685 164.114 200.127 162.904 202.132C162.803 202.295 162.713 202.465 162.633 202.64C163.474 202.767 164.333 202.587 165.053 202.132Z" fill="black"/>
<path opacity="0.2" d="M124.438 202.132C124.625 202.01 124.769 201.833 124.848 201.624C124.927 201.416 124.938 201.188 124.878 200.973C124.709 200.685 123.499 200.127 122.289 202.132C122.189 202.295 122.098 202.465 122.019 202.64C122.86 202.767 123.719 202.587 124.438 202.132Z" fill="black"/>
<path opacity="0.2" d="M121.917 301.299C121.902 301.169 121.865 301.043 121.807 300.926V300.926C121.783 300.874 121.754 300.823 121.723 300.774V300.774C121.669 300.691 121.603 300.617 121.528 300.554V300.554C121.467 300.502 121.399 300.459 121.325 300.427C121.273 300.399 121.215 300.384 121.156 300.384C121.097 300.384 121.038 300.399 120.986 300.427C120.597 300.596 119.963 301.273 120.673 302.847C120.814 303.14 120.975 303.423 121.156 303.693C121.336 303.423 121.497 303.14 121.638 302.847C121.838 302.45 121.947 302.014 121.959 301.569C121.964 301.49 121.964 301.411 121.959 301.332L121.917 301.299Z" fill="black"/>
<path opacity="0.2" d="M161.753 300.359C161.406 300.359 160.137 301.206 161.753 303.668C163.369 301.222 162.1 300.359 161.753 300.359Z" fill="black"/>
<path opacity="0.2" d="M161.753 320.667C161.406 320.667 160.137 321.513 161.753 323.975C163.369 321.53 162.1 320.667 161.753 320.667Z" fill="black"/>
<path opacity="0.2" d="M121.917 321.606C121.902 321.476 121.865 321.35 121.807 321.233V321.233C121.783 321.181 121.754 321.13 121.723 321.081V321.081C121.669 320.999 121.603 320.925 121.528 320.861V320.861C121.467 320.809 121.399 320.766 121.325 320.734C121.273 320.706 121.215 320.691 121.156 320.691C121.097 320.691 121.038 320.706 120.986 320.734C120.597 320.903 119.963 321.58 120.673 323.154C120.814 323.447 120.975 323.73 121.156 324C121.336 323.73 121.497 323.447 121.638 323.154C121.838 322.757 121.947 322.321 121.959 321.877C121.964 321.798 121.964 321.719 121.959 321.64L121.917 321.606Z" fill="black"/>
<path opacity="0.2" d="M141.446 310.513C141.099 310.513 139.83 311.359 141.446 313.821C143.062 311.376 141.793 310.513 141.446 310.513Z" fill="black"/>
<path opacity="0.2" d="M182.06 310.513C181.713 310.513 180.444 311.359 182.06 313.821C183.676 311.376 182.407 310.513 182.06 310.513Z" fill="black"/>
<path opacity="0.2" d="M121.917 280.991C121.902 280.862 121.865 280.736 121.807 280.619V280.619C121.783 280.566 121.754 280.516 121.723 280.467V280.467C121.669 280.384 121.603 280.31 121.528 280.247V280.247C121.467 280.194 121.399 280.152 121.325 280.12C121.273 280.092 121.215 280.077 121.156 280.077C121.097 280.077 121.038 280.092 120.986 280.12C120.597 280.289 119.963 280.966 120.673 282.54C120.814 282.833 120.975 283.116 121.156 283.386C121.336 283.116 121.497 282.833 121.638 282.54C121.838 282.143 121.947 281.706 121.959 281.262C121.964 281.183 121.964 281.104 121.959 281.025L121.917 280.991Z" fill="black"/>
<path opacity="0.2" d="M161.753 280.052C161.406 280.052 160.137 280.898 161.753 283.361C163.369 280.915 162.1 280.052 161.753 280.052Z" fill="black"/>
<path opacity="0.2" d="M141.446 290.206C141.099 290.206 139.83 291.052 141.446 293.514C143.062 291.069 141.793 290.206 141.446 290.206Z" fill="black"/>
<path opacity="0.2" d="M182.06 290.206C181.713 290.206 180.444 291.052 182.06 293.514C183.676 291.069 182.407 290.206 182.06 290.206Z" fill="black"/>
<path opacity="0.2" d="M141.446 269.899C141.099 269.899 139.83 270.745 141.446 273.207C143.062 270.762 141.793 269.899 141.446 269.899Z" fill="black"/>
<path opacity="0.2" d="M182.06 269.899C181.713 269.899 180.444 270.745 182.06 273.207C183.676 270.762 182.407 269.899 182.06 269.899Z" fill="black"/>
<path opacity="0.2" d="M122.053 304.175C124.98 304.336 125.082 302.805 124.913 302.483C124.743 302.162 123.313 301.544 122.053 304.175Z" fill="black"/>
<path opacity="0.2" d="M162.667 304.175C165.586 304.336 165.696 302.805 165.526 302.483C165.357 302.162 163.927 301.544 162.667 304.175Z" fill="black"/>
<path opacity="0.2" d="M164.85 322.511H164.672C164.454 322.527 164.242 322.594 164.054 322.706L163.834 322.858C163.458 323.166 163.142 323.542 162.904 323.966V323.966C162.803 324.13 162.713 324.3 162.633 324.474C163.474 324.602 164.333 324.421 165.053 323.966C165.24 323.845 165.383 323.667 165.462 323.459C165.541 323.25 165.552 323.022 165.493 322.807C165.413 322.714 165.315 322.64 165.204 322.589C165.093 322.538 164.972 322.511 164.85 322.511Z" fill="black"/>
<path opacity="0.2" d="M124.235 322.511H124.058C123.839 322.527 123.628 322.594 123.44 322.706L123.22 322.858C122.844 323.166 122.528 323.542 122.289 323.966V323.966C122.189 324.13 122.098 324.3 122.019 324.474C122.86 324.602 123.719 324.421 124.438 323.966V323.966C124.625 323.845 124.769 323.667 124.848 323.459C124.927 323.25 124.938 323.022 124.878 322.807C124.799 322.714 124.7 322.64 124.589 322.589C124.478 322.538 124.358 322.511 124.235 322.511Z" fill="black"/>
<path opacity="0.2" d="M142.36 314.329C145.287 314.49 145.389 312.958 145.22 312.637C145.051 312.315 143.621 311.698 142.36 314.329Z" fill="black"/>
<path opacity="0.2" d="M182.974 314.329C185.893 314.49 186.003 312.958 185.834 312.637C185.665 312.315 184.235 311.698 182.974 314.329Z" fill="black"/>
<path opacity="0.2" d="M122.053 283.868C124.98 284.029 125.082 282.498 124.913 282.176C124.743 281.854 123.313 281.237 122.053 283.868Z" fill="black"/>
<path opacity="0.2" d="M162.667 283.868C165.586 284.029 165.696 282.498 165.526 282.176C165.357 281.854 163.927 281.237 162.667 283.868Z" fill="black"/>
<path opacity="0.2" d="M142.36 294.022C145.287 294.183 145.389 292.651 145.22 292.33C145.051 292.008 143.621 291.39 142.36 294.022Z" fill="black"/>
<path opacity="0.2" d="M182.974 294.022C185.893 294.183 186.003 292.651 185.834 292.33C185.665 292.008 184.235 291.39 182.974 294.022Z" fill="black"/>
<path opacity="0.2" d="M142.36 273.715C145.287 273.875 145.389 272.344 145.22 272.022C145.051 271.701 143.621 271.083 142.36 273.715Z" fill="black"/>
<path opacity="0.2" d="M182.974 273.715C185.893 273.875 186.003 272.344 185.834 272.022C185.665 271.701 184.235 271.083 182.974 273.715Z" fill="black"/>
<path opacity="0.2" d="M158.013 302.509C157.844 302.805 157.954 304.336 160.873 304.201C159.578 301.544 158.191 302.204 158.013 302.509Z" fill="black"/>
<path opacity="0.2" d="M159.671 322.909L159.451 322.757C159.264 322.643 159.052 322.576 158.834 322.562H158.656C158.533 322.563 158.412 322.591 158.301 322.643C158.19 322.696 158.092 322.772 158.013 322.867C157.954 323.081 157.964 323.31 158.043 323.518C158.122 323.726 158.266 323.904 158.453 324.026C159.173 324.479 160.031 324.659 160.873 324.533C160.793 324.359 160.703 324.189 160.602 324.026C160.367 323.597 160.051 323.217 159.671 322.909Z" fill="black"/>
<path opacity="0.2" d="M137.706 312.662C137.537 312.958 137.647 314.49 140.566 314.354C139.271 311.698 137.884 312.358 137.706 312.662Z" fill="black"/>
<path opacity="0.2" d="M198.627 302.509C198.45 302.805 198.568 304.336 201.487 304.201C200.193 301.544 198.805 302.204 198.627 302.509Z" fill="black"/>
<path opacity="0.2" d="M201.217 323.975C200.978 323.551 200.663 323.175 200.286 322.866L200.066 322.714C199.878 322.602 199.667 322.535 199.448 322.52H199.271C199.148 322.521 199.027 322.548 198.916 322.601C198.805 322.654 198.706 322.73 198.628 322.824C198.568 323.039 198.579 323.267 198.658 323.476C198.737 323.684 198.881 323.862 199.068 323.983V323.983C199.787 324.438 200.646 324.618 201.488 324.491C201.408 324.316 201.317 324.147 201.217 323.983V323.975Z" fill="black"/>
<path opacity="0.2" d="M178.32 312.662C178.143 312.958 178.261 314.49 181.18 314.354C179.886 311.698 178.498 312.358 178.32 312.662Z" fill="black"/>
<path opacity="0.2" d="M158.013 282.201C157.844 282.498 157.954 284.029 160.873 283.894C159.578 281.237 158.191 281.897 158.013 282.201Z" fill="black"/>
<path opacity="0.2" d="M137.706 292.355C137.537 292.651 137.647 294.183 140.566 294.047C139.271 291.39 137.884 292.05 137.706 292.355Z" fill="black"/>
<path opacity="0.2" d="M198.627 282.201C198.45 282.498 198.568 284.029 201.487 283.894C200.193 281.237 198.805 281.897 198.627 282.201Z" fill="black"/>
<path opacity="0.2" d="M178.32 292.355C178.143 292.651 178.261 294.183 181.18 294.047C179.886 291.39 178.498 292.05 178.32 292.355Z" fill="black"/>
<path opacity="0.2" d="M137.706 272.048C137.537 272.344 137.647 273.875 140.566 273.74C139.271 271.083 137.884 271.743 137.706 272.048Z" fill="black"/>
<path opacity="0.2" d="M178.32 272.048C178.143 272.344 178.261 273.875 181.18 273.74C179.886 271.083 178.498 271.743 178.32 272.048Z" fill="black"/>
<path opacity="0.2" d="M160.602 263.053C160.468 262.824 160.315 262.606 160.145 262.402C160.005 262.233 159.846 262.079 159.671 261.945C159.387 261.708 159.026 261.582 158.656 261.59C158.533 261.591 158.412 261.618 158.301 261.671C158.19 261.724 158.092 261.8 158.013 261.894C157.972 262.009 157.956 262.131 157.966 262.252C157.976 262.373 158.012 262.491 158.072 262.597C158.128 262.708 158.199 262.81 158.284 262.901L158.453 263.053C159.173 263.507 160.031 263.687 160.873 263.561C160.797 263.392 160.712 263.24 160.636 263.104L160.602 263.053Z" fill="black"/>
<path opacity="0.2" d="M201.217 263.053C201.083 262.824 200.93 262.606 200.76 262.402C200.617 262.235 200.458 262.082 200.286 261.945C200.001 261.708 199.641 261.582 199.271 261.59C199.148 261.591 199.027 261.618 198.916 261.671C198.805 261.724 198.706 261.8 198.628 261.894C198.586 262.009 198.57 262.131 198.581 262.252C198.591 262.373 198.627 262.491 198.687 262.597C198.743 262.708 198.814 262.81 198.898 262.901C198.951 262.956 199.007 263.007 199.068 263.053V263.053C199.787 263.508 200.646 263.689 201.488 263.561C201.411 263.392 201.327 263.24 201.251 263.104C201.237 263.089 201.225 263.072 201.217 263.053V263.053Z" fill="black"/>
<path opacity="0.2" d="M141.446 330.82C141.099 330.82 139.83 331.666 141.446 334.129C143.062 331.683 141.793 330.82 141.446 330.82Z" fill="black"/>
<path opacity="0.2" d="M182.06 330.82C181.713 330.82 180.444 331.666 182.06 334.129C183.676 331.683 182.407 330.82 182.06 330.82Z" fill="black"/>
<path opacity="0.2" d="M142.36 334.636C145.287 334.797 145.389 333.265 145.22 332.944C145.051 332.622 143.621 332.005 142.36 334.636Z" fill="black"/>
<path opacity="0.2" d="M182.974 334.636C185.893 334.797 186.003 333.265 185.834 332.944C185.665 332.622 184.235 332.005 182.974 334.636Z" fill="black"/>
<path opacity="0.2" d="M137.706 332.969C137.537 333.265 137.647 334.797 140.566 334.662C139.271 332.005 137.884 332.665 137.706 332.969Z" fill="black"/>
<path opacity="0.2" d="M178.32 332.969C178.143 333.265 178.261 334.797 181.18 334.662C179.886 332.005 178.498 332.665 178.32 332.969Z" fill="black"/>
<path opacity="0.2" d="M80.5244 198.823C80.1775 198.823 78.9083 199.67 80.5244 202.132C82.1405 199.687 80.8713 198.823 80.5244 198.823Z" fill="black"/>
<path opacity="0.2" d="M100.832 188.67C100.485 188.67 99.2154 189.516 100.832 191.978C102.448 189.533 101.178 188.67 100.832 188.67Z" fill="black"/>
<path opacity="0.2" d="M101.576 169.141L100.028 169.539C100.08 170.313 100.359 171.055 100.832 171.671C101.619 170.486 101.745 169.666 101.576 169.141Z" fill="black"/>
<path opacity="0.2" d="M81.438 182.332C84.3571 182.493 84.4671 180.962 84.2979 180.64C84.1287 180.318 82.6987 179.701 81.438 182.332Z" fill="black"/>
<path opacity="0.2" d="M101.745 192.486C104.664 192.647 104.774 191.115 104.605 190.794C104.436 190.472 103.006 189.854 101.745 192.486Z" fill="black"/>
<path opacity="0.2" d="M101.745 172.179C104.664 172.339 104.774 170.808 104.605 170.486C104.436 170.165 103.006 169.547 101.745 172.179Z" fill="black"/>
<path opacity="0.2" d="M76.7844 200.973C76.7251 201.188 76.7358 201.416 76.8149 201.624C76.894 201.833 77.0374 202.01 77.2244 202.132V202.132C77.9443 202.585 78.8029 202.765 79.6443 202.64C79.5645 202.465 79.4741 202.295 79.3736 202.132C78.1636 200.101 76.9536 200.685 76.7844 200.973Z" fill="black"/>
<path opacity="0.2" d="M117.399 180.666C117.221 180.962 117.34 182.493 120.259 182.358C118.964 179.701 117.577 180.361 117.399 180.666Z" fill="black"/>
<path opacity="0.2" d="M119.988 202.132C118.778 200.101 117.568 200.685 117.399 200.973C117.339 201.188 117.35 201.416 117.429 201.624C117.508 201.833 117.652 202.01 117.839 202.132C118.558 202.587 119.417 202.767 120.259 202.64C120.179 202.465 120.088 202.295 119.988 202.132V202.132Z" fill="black"/>
<path opacity="0.2" d="M97.0912 190.819C96.9135 191.115 97.032 192.647 99.9512 192.511C98.6566 189.855 97.2689 190.515 97.0912 190.819Z" fill="black"/>
<path opacity="0.2" d="M97.7089 170.216L97.2689 170.351C97.1988 170.391 97.1381 170.446 97.0912 170.512C96.9135 170.808 97.032 172.339 99.9512 172.204C99.1304 170.503 98.2758 170.165 97.7089 170.216Z" fill="black"/>
<path opacity="0.2" d="M39.9102 239.438C39.5632 239.438 38.294 240.284 39.9102 242.746C41.5263 240.301 40.2571 239.438 39.9102 239.438Z" fill="black"/>
<path opacity="0.2" d="M60.2168 249.592C59.8699 249.592 58.6007 250.438 60.2168 252.9C61.8329 250.455 60.5637 249.592 60.2168 249.592Z" fill="black"/>
<path opacity="0.2" d="M80.5244 219.131C80.1775 219.131 78.9083 219.977 80.5244 222.439C82.1405 219.994 80.8713 219.131 80.5244 219.131Z" fill="black"/>
<path opacity="0.2" d="M60.2168 229.284C59.8699 229.284 58.6007 230.13 60.2168 232.593C61.8329 230.147 60.5637 229.284 60.2168 229.284Z" fill="black"/>
<path opacity="0.2" d="M100.832 229.284C100.485 229.284 99.2154 230.13 100.832 232.593C102.448 230.147 101.178 229.284 100.832 229.284Z" fill="black"/>
<path opacity="0.2" d="M60.2168 208.977C59.8699 208.977 58.6007 209.823 60.2168 212.285C61.8329 209.84 60.5637 208.977 60.2168 208.977Z" fill="black"/>
<path opacity="0.2" d="M100.832 208.977C100.485 208.977 99.2154 209.823 100.832 212.285C102.448 209.84 101.178 208.977 100.832 208.977Z" fill="black"/>
<path opacity="0.2" d="M40.8237 243.254C43.7513 243.415 43.8613 241.883 43.6837 241.562C43.506 241.24 42.0845 240.622 40.8237 243.254Z" fill="black"/>
<path opacity="0.2" d="M61.5962 252.544C62.3492 252.265 63.0854 251.952 63.8131 251.597C63.4577 251.36 62.5439 251.199 61.5962 252.544Z" fill="black"/>
<path opacity="0.2" d="M43.6499 221.28C43.5501 221.152 43.4098 221.063 43.2522 221.026C42.7276 221.694 42.2284 222.329 41.7969 222.93C43.7345 222.727 43.8022 221.542 43.6499 221.28Z" fill="black"/>
<path opacity="0.2" d="M81.438 222.947C84.3571 223.108 84.4671 221.576 84.2979 221.255C84.1287 220.933 82.6987 220.315 81.438 222.947Z" fill="black"/>
<path opacity="0.2" d="M61.1309 233.1C64.0585 233.261 64.16 231.73 63.9908 231.408C63.8216 231.087 62.3916 230.469 61.1309 233.1Z" fill="black"/>
<path opacity="0.2" d="M101.745 233.1C104.664 233.261 104.774 231.73 104.605 231.408C104.436 231.087 103.006 230.469 101.745 233.1Z" fill="black"/>
<path opacity="0.2" d="M61.1309 212.793C64.0585 212.954 64.16 211.422 63.9908 211.101C63.8216 210.779 62.3916 210.161 61.1309 212.793Z" fill="black"/>
<path opacity="0.2" d="M101.745 212.793C104.664 212.954 104.774 211.422 104.605 211.101C104.436 210.779 103.006 210.161 101.745 212.793Z" fill="black"/>
<path opacity="0.2" d="M56.4774 251.741C56.3166 252.011 56.4012 253.298 58.6265 253.433L59.2611 253.289C57.9919 250.81 56.655 251.445 56.4774 251.741Z" fill="black"/>
<path opacity="0.2" d="M117.399 241.587C117.221 241.883 117.34 243.415 120.259 243.279C118.964 240.622 117.577 241.282 117.399 241.587Z" fill="black"/>
<path opacity="0.2" d="M76.7845 221.28C76.6153 221.576 76.7253 223.107 79.6445 222.972C78.3499 220.315 76.9622 220.975 76.7845 221.28Z" fill="black"/>
<path opacity="0.2" d="M56.4769 231.433C56.3077 231.73 56.4177 233.261 59.3368 233.126C58.0423 230.469 56.6546 231.129 56.4769 231.433Z" fill="black"/>
<path opacity="0.2" d="M117.399 221.28C117.221 221.576 117.34 223.107 120.259 222.972C118.964 220.315 117.577 220.975 117.399 221.28Z" fill="black"/>
<path opacity="0.2" d="M56.4769 211.126C56.3077 211.422 56.4177 212.954 59.3368 212.819C58.0423 210.162 56.6546 210.822 56.4769 211.126Z" fill="black"/>
<path opacity="0.2" d="M97.0912 211.126C96.9135 211.422 97.032 212.954 99.9512 212.819C98.6566 210.162 97.2689 210.822 97.0912 211.126Z" fill="black"/>
<path opacity="0.2" d="M83.8242 202.132C84.0112 202.01 84.1547 201.833 84.2338 201.624C84.3129 201.416 84.3236 201.188 84.2642 200.973C84.095 200.685 82.885 200.127 81.6751 202.132C81.5745 202.295 81.4841 202.465 81.4043 202.64C82.2458 202.767 83.1049 202.587 83.8242 202.132V202.132Z" fill="black"/>
<path opacity="0.2" d="M100.832 310.513C100.485 310.513 99.2154 311.359 100.832 313.821C102.448 311.376 101.178 310.513 100.832 310.513Z" fill="black"/>
<path opacity="0.2" d="M101.483 292.228L100.772 293.421L100.832 293.514C101.105 293.117 101.325 292.684 101.483 292.228V292.228Z" fill="black"/>
<path opacity="0.2" d="M101.745 314.329C104.664 314.49 104.774 312.958 104.605 312.637C104.436 312.315 103.006 311.698 101.745 314.329Z" fill="black"/>
<path opacity="0.2" d="M101.745 294.022C104.664 294.183 104.774 292.651 104.605 292.33C104.436 292.008 103.006 291.39 101.745 294.022Z" fill="black"/>
<path opacity="0.2" d="M117.399 302.509C117.221 302.805 117.34 304.336 120.259 304.201C118.964 301.544 117.577 302.204 117.399 302.509Z" fill="black"/>
<path opacity="0.2" d="M119.988 323.975C119.749 323.551 119.434 323.175 119.057 322.866L118.837 322.714C118.649 322.602 118.438 322.535 118.219 322.52H118.042C117.919 322.521 117.798 322.548 117.687 322.601C117.576 322.654 117.477 322.73 117.399 322.824C117.339 323.039 117.35 323.267 117.429 323.476C117.508 323.684 117.652 323.862 117.839 323.983C118.558 324.438 119.417 324.618 120.259 324.491C120.179 324.316 120.088 324.147 119.988 323.983V323.975Z" fill="black"/>
<path opacity="0.2" d="M97.0912 312.662C96.9135 312.958 97.032 314.49 99.9512 314.354C98.6566 311.698 97.2689 312.358 97.0912 312.662Z" fill="black"/>
<path opacity="0.2" d="M117.399 282.201C117.221 282.498 117.34 284.029 120.259 283.894C118.964 281.237 117.577 281.897 117.399 282.201Z" fill="black"/>
<path opacity="0.2" d="M119.988 263.053C119.854 262.824 119.701 262.606 119.531 262.402C119.389 262.235 119.23 262.082 119.058 261.945C118.773 261.708 118.412 261.582 118.042 261.59C117.919 261.591 117.798 261.618 117.687 261.671C117.576 261.724 117.478 261.8 117.399 261.894C117.358 262.009 117.342 262.131 117.352 262.252C117.362 262.373 117.399 262.491 117.458 262.597C117.514 262.708 117.585 262.81 117.67 262.901C117.722 262.956 117.779 263.007 117.839 263.053V263.053C118.558 263.508 119.418 263.689 120.259 263.561C120.183 263.392 120.098 263.24 120.022 263.104L119.988 263.053Z" fill="black"/>
<path opacity="0.2" d="M100.832 330.82C100.485 330.82 99.2154 331.666 100.832 334.129C102.448 331.683 101.178 330.82 100.832 330.82Z" fill="black"/>
<path opacity="0.2" d="M101.745 334.636C104.664 334.797 104.774 333.265 104.605 332.944C104.436 332.622 103.006 332.005 101.745 334.636Z" fill="black"/>
<path opacity="0.2" d="M97.0912 332.969C96.9135 333.265 97.032 334.797 99.9512 334.662C98.6566 332.005 97.2689 332.665 97.0912 332.969Z" fill="black"/>
<path opacity="0.2" d="M37.9214 241.722C38.0895 242.245 38.2843 242.759 38.5052 243.262H39.0298C38.7728 242.677 38.3951 242.152 37.9214 241.722V241.722Z" fill="black"/>
</g>
<path d="M235.62 334.975C235.62 334.975 237.135 314.202 228.005 293.421C218.875 272.64 216.819 271.142 216.819 265.059C216.819 258.975 222.928 251.876 223.943 238.194C224.959 224.512 224.451 217.887 224.451 217.887C224.451 217.887 246.239 252.341 261.444 254.372C276.649 256.403 285.77 242.213 280.194 222.955C274.618 203.697 250.292 187.993 240.671 175.318C231.051 162.643 209.246 162.626 198.103 162.626C186.959 162.626 181.383 158.573 179.352 150.975C177.322 143.376 177.33 128.129 177.33 128.129C177.33 128.129 164.147 136.235 141.852 127.114C141.852 127.114 143.882 154.985 141.344 159.038C138.806 163.091 135.286 167.22 120.081 167.22C104.876 167.22 92.209 170.267 85.1185 177.374C78.0279 184.482 48.6332 212.844 41.0349 223.996C33.4367 235.148 37.4812 247.307 46.6025 251.868C55.7238 256.428 64.8451 252.367 71.4365 246.292C78.0279 240.216 98.8004 220.95 98.8004 220.95C98.8004 220.95 98.8004 232.61 104.376 249.329C109.952 266.049 114.53 264.026 110.452 276.185C106.373 288.344 98.2927 291.898 95.7628 307.602C94.2474 316.642 93.5676 325.802 93.7321 334.966" stroke="#263238" stroke-width="1.04867" stroke-linecap="round" stroke-linejoin="round"/>
<path d="M98.8003 220.958C99.2159 215.478 100.339 210.074 102.143 204.882Z" fill="white"/>
<path d="M98.8003 220.958C99.2159 215.478 100.339 210.074 102.143 204.882" stroke="#263238" stroke-width="1.04867" stroke-linecap="round" stroke-linejoin="round"/>
<path d="M224.434 217.921C223.318 213.715 221.767 209.637 219.806 205.753" stroke="#263238" stroke-width="1.04867" stroke-linecap="round" stroke-linejoin="round"/>
<path d="M150 274.087L181.916 263.857" stroke="#263238" stroke-width="1.04867" stroke-linecap="round" stroke-linejoin="round"/>
<path d="M164.452 265.659C171.908 262.659 179.688 260.538 187.636 259.339" stroke="#263238" stroke-width="1.04867" stroke-linecap="round" stroke-linejoin="round"/>
<path d="M155.551 201.201C180.833 206.075 190.589 181.841 193.982 162.474C185.563 161.543 181.129 157.625 179.369 151.034C177.347 143.419 177.347 128.188 177.347 128.188C177.347 128.188 164.164 136.294 141.869 127.173C141.869 127.173 143.899 155.044 141.361 159.097C139.601 161.924 137.333 164.75 130.987 166.196C130.759 174.895 132.51 196.75 155.551 201.201Z" fill="#B2B2B2"/>
<path opacity="0.2" d="M178.819 148.529C177.347 140.525 177.347 128.222 177.347 128.222C177.347 128.222 164.164 136.328 141.869 127.207C141.869 127.207 142.715 138.858 142.63 148.191C161.82 154.858 172.922 152.032 178.819 148.529Z" fill="black"/>
<path d="M155.551 201.201C180.833 206.075 190.589 181.841 193.982 162.474C185.563 161.543 181.129 157.625 179.369 151.034C177.347 143.419 177.347 128.188 177.347 128.188C177.347 128.188 164.164 136.294 141.869 127.173C141.869 127.173 143.899 155.044 141.361 159.097C139.601 161.924 137.333 164.75 130.987 166.196C130.759 174.895 132.51 196.75 155.551 201.201Z" stroke="#263238" stroke-width="1.04867" stroke-linecap="round" stroke-linejoin="round"/>
<path d="M193.779 118.509C197.246 118.509 200.057 115.698 200.057 112.23C200.057 108.763 197.246 105.952 193.779 105.952C190.311 105.952 187.5 108.763 187.5 112.23C187.5 115.698 190.311 118.509 193.779 118.509Z" fill="#92E3A9" stroke="#263238" stroke-width="1.04867" stroke-linecap="round" stroke-linejoin="round"/>
<path d="M126.714 118.509C130.182 118.509 132.993 115.698 132.993 112.23C132.993 108.763 130.182 105.952 126.714 105.952C123.247 105.952 120.436 108.763 120.436 112.23C120.436 115.698 123.247 118.509 126.714 118.509Z" fill="#92E3A9" stroke="#263238" stroke-width="1.04867" stroke-linecap="round" stroke-linejoin="round"/>
<path d="M193.203 90.8316C193.203 90.8316 196.342 81.1265 200.057 84.5533C203.771 87.9801 198.914 101.104 196.342 104.243C193.77 107.382 191.206 107.382 191.494 103.101C191.782 98.8191 193.203 90.8316 193.203 90.8316Z" fill="#B2B2B2" stroke="#263238" stroke-width="1.04867" stroke-linecap="round" stroke-linejoin="round"/>
<path d="M128.305 100.596C128.305 100.596 129.151 123.264 145.837 134.382C162.523 145.5 174.919 139.087 181.764 129.678C188.609 120.269 192.89 110.86 192.89 97.1776C192.89 83.4956 194.583 77.4965 189.895 68.9421C185.208 60.3877 168.936 56.1147 168.936 56.1147C162.177 64.5507 154.891 72.5513 147.123 80.0688C134.287 92.4646 128.305 100.596 128.305 100.596Z" fill="#B2B2B2"/>
<path opacity="0.2" d="M168.936 56.1147C162.176 64.5507 154.891 72.5513 147.123 80.0688C134.287 92.4646 128.305 100.596 128.305 100.596C128.615 105.013 129.488 109.372 130.902 113.567C153.443 96.323 165.755 65.3376 169.029 56.1401L168.936 56.1147Z" fill="black"/>
<path d="M128.305 100.596C128.305 100.596 129.151 123.264 145.837 134.382C162.523 145.5 174.919 139.087 181.764 129.678C188.609 120.269 192.89 110.86 192.89 97.1776C192.89 83.4956 194.583 77.4965 189.895 68.9421C185.208 60.3877 168.936 56.1147 168.936 56.1147C162.177 64.5507 154.891 72.5513 147.123 80.0688C134.287 92.4646 128.305 100.596 128.305 100.596Z" stroke="#263238" stroke-width="1.04867" stroke-linecap="round" stroke-linejoin="round"/>
<path d="M144.085 97.9307L153.689 98.8276" stroke="#263238" stroke-width="1.04867" stroke-linecap="round" stroke-linejoin="round"/>
<path d="M173.192 97.626C173.192 97.626 179.496 96.4245 182.5 97.626" stroke="#263238" stroke-width="1.04867" stroke-linecap="round" stroke-linejoin="round"/>
<path d="M152.394 93.5392C152.394 95.8238 151.37 97.6768 150.11 97.6768C148.849 97.6768 147.833 95.8238 147.833 93.5392C147.833 91.2546 148.849 89.4016 150.11 89.4016C151.37 89.4016 152.394 91.2546 152.394 93.5392Z" fill="#263238"/>
<path d="M157.53 107.991C159.063 108.952 160.866 109.39 162.668 109.237C164.47 109.085 166.174 108.35 167.523 107.145" stroke="#263238" stroke-width="1.04867" stroke-linecap="round" stroke-linejoin="round"/>
<path d="M160.128 117.654C160.128 117.654 168.97 121.368 174.106 109.379" stroke="#263238" stroke-width="1.04867" stroke-linecap="round" stroke-linejoin="round"/>
<path d="M171.517 93.683C171.517 93.683 176.94 89.9685 182.364 92.253" stroke="#263238" stroke-width="1.04867" stroke-linecap="round" stroke-linejoin="round"/>
<path d="M169.808 84.2994C169.808 84.2994 175.798 78.3088 184.073 83.1571" stroke="#263238" stroke-width="1.04867" stroke-linecap="round" stroke-linejoin="round"/>
<path d="M156.963 80.5511C156.963 80.5511 151.827 75.415 144.686 80.2718" stroke="#263238" stroke-width="1.04867" stroke-linecap="round" stroke-linejoin="round"/>
<path d="M41.0349 224.004C41.0349 224.004 31.9136 234.158 31.9136 244.777C31.9136 255.396 37.9888 265.084 54.7592 280.247C71.5295 295.41 87.183 306.595 93.7743 310.149C100.366 313.703 106.949 309.134 106.949 309.134C106.949 309.134 117.847 320.024 119.108 317.494C120.368 314.964 115.308 311.156 114.293 309.641C113.402 308.438 112.383 307.335 111.255 306.35C111.255 306.35 116.578 307.103 118.608 308.888C120.639 310.674 123.922 313.703 125.445 313.449C126.968 313.195 126.968 311.926 124.684 308.888C122.842 306.51 120.617 304.454 118.101 302.805C116.578 301.798 111.509 299.006 111.509 299.006C111.509 299.006 118.854 298.498 121.392 300.021C123.93 301.544 130.767 306.105 131.275 304.074C131.783 302.043 131.783 300.782 129.244 298.498C126.706 296.213 121.629 293.421 118.608 292.922C116.526 292.539 114.488 291.946 112.525 291.153C112.525 291.153 118.354 289.123 120.377 289.123C122.399 289.123 130.53 293.176 132.79 292.677C135.049 292.177 133.805 290.138 132.036 288.869C130.268 287.6 122.407 284.562 119.108 284.308C115.808 284.054 97.3196 290.392 95.0435 290.392C92.7674 290.392 86.9376 282.286 80.8539 271.388C74.7702 260.49 72.4941 243.516 59.5737 237.695" fill="#92E3A9"/>
<g opacity="0.2">
<path opacity="0.2" d="M39.9097 242.746C41.5258 240.301 40.2566 239.438 39.9097 239.438C40.2566 239.438 41.5258 240.301 39.9097 242.746Z" fill="black"/>
<path opacity="0.2" d="M39.9097 259.745C40.2566 259.745 41.5258 260.591 39.9097 263.053C41.5258 260.608 40.2566 259.745 39.9097 259.745Z" fill="black"/>
<path opacity="0.2" d="M60.2173 249.591C59.8704 249.591 58.6012 250.437 60.2173 252.9C61.8334 250.454 60.5642 249.591 60.2173 249.591Z" fill="black"/>
<path opacity="0.2" d="M43.6495 241.587C43.4718 241.282 42.0841 240.622 40.7896 243.279C43.7172 243.415 43.8272 241.883 43.6495 241.587Z" fill="black"/>
<path opacity="0.2" d="M43.3619 262.901C43.4464 262.81 43.5176 262.707 43.5734 262.596C43.6559 262.499 43.7063 262.379 43.7176 262.252C43.729 262.125 43.7007 261.997 43.6368 261.887C43.5728 261.777 43.4762 261.689 43.3603 261.636C43.2445 261.582 43.1149 261.566 42.9896 261.589C42.6194 261.582 42.2589 261.708 41.9742 261.945C41.8018 262.081 41.6431 262.234 41.5004 262.402C41.3304 262.606 41.1776 262.824 41.0435 263.053H43.1926C43.2528 263.007 43.3093 262.956 43.3619 262.901V262.901Z" fill="black"/>
<path opacity="0.2" d="M63.9566 251.741C63.7789 251.436 62.3913 250.776 61.0967 253.433C64.0243 253.568 64.1258 252.037 63.9566 251.741Z" fill="black"/>
<path opacity="0.2" d="M59.3369 253.407C58.0423 250.776 56.6547 251.436 56.477 251.715C56.2993 251.994 56.4177 253.568 59.3369 253.407Z" fill="black"/>
<path opacity="0.2" d="M39.9097 239.438V242.746C41.5258 240.301 40.2566 239.438 39.9097 239.438Z" fill="black"/>
<path opacity="0.2" d="M39.9097 259.745V263.053C41.5258 260.608 40.2566 259.745 39.9097 259.745Z" fill="black"/>
<path opacity="0.2" d="M80.5239 300.359C80.3739 300.39 80.2341 300.458 80.1173 300.557C80.0005 300.656 79.9105 300.783 79.8555 300.926L81.2854 301.975C81.497 300.808 80.7778 300.359 80.5239 300.359Z" fill="black"/>
<path opacity="0.2" d="M100.831 310.513C100.618 310.565 100.427 310.685 100.287 310.854C100.147 311.023 100.065 311.233 100.053 311.452C100.561 311.412 101.067 311.344 101.567 311.249C101.527 311.069 101.436 310.904 101.306 310.774C101.176 310.644 101.011 310.553 100.831 310.513V310.513Z" fill="black"/>
<path opacity="0.2" d="M80.5239 280.052C80.177 280.052 78.9078 280.898 80.5239 283.36C82.14 280.915 80.8708 280.052 80.5239 280.052Z" fill="black"/>
<path opacity="0.2" d="M100.831 293.514C102.447 291.069 101.178 290.206 100.831 290.206C100.484 290.206 99.2068 291.069 100.831 293.514Z" fill="black"/>
<path opacity="0.2" d="M60.2171 273.207C61.8332 270.761 60.564 269.898 60.2171 269.898C59.8702 269.898 58.5925 270.761 60.2171 273.207Z" fill="black"/>
<path opacity="0.2" d="M84.2638 302.508C84.1284 302.28 83.3162 301.848 82.377 302.754C82.8339 303.092 83.2908 303.414 83.7392 303.727C83.9515 303.613 84.1188 303.43 84.2141 303.209C84.3094 302.988 84.3269 302.741 84.2638 302.508V302.508Z" fill="black"/>
<path opacity="0.2" d="M81.438 283.868C84.3571 284.029 84.4671 282.497 84.2979 282.176C84.1287 281.854 82.6987 281.237 81.438 283.868Z" fill="black"/>
<path opacity="0.2" d="M101.745 294.022C104.664 294.182 104.774 292.651 104.605 292.329C104.436 292.008 103.006 291.39 101.745 294.022Z" fill="black"/>
<path opacity="0.2" d="M61.1309 273.715C64.0585 273.875 64.16 272.344 63.9908 272.022C63.8216 271.701 62.3916 271.083 61.1309 273.715Z" fill="black"/>
<path opacity="0.2" d="M119.962 304.184C119.235 303.608 118.566 303.143 118.058 302.796L117.466 302.424L117.398 302.508C117.229 302.796 117.339 304.226 119.962 304.184Z" fill="black"/>
<path opacity="0.2" d="M79.644 283.868C78.3495 281.237 76.9618 281.897 76.7841 282.176C76.6064 282.455 76.7249 284.029 79.644 283.868Z" fill="black"/>
<path opacity="0.2" d="M97.0917 292.355C96.914 292.651 97.0325 294.182 99.9517 294.047C98.6571 291.39 97.2694 292.05 97.0917 292.355Z" fill="black"/>
<path opacity="0.2" d="M56.4769 272.048C56.3077 272.344 56.4177 273.875 59.3368 273.74C58.0423 271.083 56.6546 271.743 56.4769 272.048Z" fill="black"/>
<path opacity="0.2" d="M43.2093 263.053H41.0602C41.0626 263.07 41.0626 263.087 41.0602 263.104C40.984 263.24 40.8994 263.392 40.8232 263.561C41.6536 263.68 42.4993 263.5 43.2093 263.053Z" fill="black"/>
<path opacity="0.2" d="M39.9097 239.438C39.5628 239.438 38.2936 240.284 39.9097 242.746V239.438Z" fill="black"/>
<path opacity="0.2" d="M39.9095 263.053V259.745C39.5626 259.745 38.2849 260.608 39.9095 263.053Z" fill="black"/>
<path opacity="0.2" d="M39.0298 243.254C37.7352 240.622 36.3475 241.282 36.1698 241.562C35.9922 241.841 36.1106 243.415 39.0298 243.254Z" fill="black"/>
<path opacity="0.2" d="M38.285 262.402C38.1423 262.234 37.9836 262.081 37.8112 261.945L37.752 261.903C38.0143 262.283 38.2766 262.673 38.5981 263.053H38.7842C38.6366 262.822 38.4696 262.604 38.285 262.402V262.402Z" fill="black"/>
<path opacity="0.2" d="M38.7931 263.104C38.7907 263.087 38.7907 263.07 38.7931 263.053H38.6069L38.9792 263.561H39.0638C38.9538 263.392 38.8692 263.24 38.7931 263.104Z" fill="black"/>
</g>
<path d="M41.0349 224.004C41.0349 224.004 31.9136 234.158 31.9136 244.777C31.9136 255.396 37.9888 265.084 54.7592 280.247C71.5295 295.41 87.183 306.595 93.7743 310.149C100.366 313.703 106.949 309.134 106.949 309.134C106.949 309.134 117.847 320.024 119.108 317.494C120.368 314.964 115.308 311.156 114.293 309.641C113.402 308.438 112.383 307.335 111.255 306.35C111.255 306.35 116.578 307.103 118.608 308.888C120.639 310.674 123.922 313.703 125.445 313.449C126.968 313.195 126.968 311.926 124.684 308.888C122.842 306.51 120.617 304.454 118.101 302.805C116.578 301.798 111.509 299.006 111.509 299.006C111.509 299.006 118.854 298.498 121.392 300.021C123.93 301.544 130.767 306.105 131.275 304.074C131.783 302.043 131.783 300.782 129.244 298.498C126.706 296.213 121.629 293.421 118.608 292.922C116.526 292.539 114.488 291.946 112.525 291.153C112.525 291.153 118.354 289.123 120.377 289.123C122.399 289.123 130.53 293.176 132.79 292.677C135.049 292.177 133.805 290.138 132.036 288.869C130.268 287.6 122.407 284.562 119.108 284.308C115.808 284.054 97.3196 290.392 95.0435 290.392C92.7674 290.392 86.9376 282.286 80.8539 271.388C74.7702 260.49 72.4941 243.516 59.5737 237.695" stroke="#263238" stroke-width="1.04867" stroke-linecap="round" stroke-linejoin="round"/>
<path d="M131.994 288.861C130.217 287.6 122.365 284.554 119.065 284.3C115.765 284.046 97.2774 290.384 95.0013 290.384C92.7252 290.384 86.8953 282.278 80.8116 271.379C77.4271 265.33 75.2272 257.401 71.7157 250.556C53.1008 248.018 45.1218 258.899 41.4326 266.726C45.5401 271.542 49.979 276.066 54.7169 280.264C71.4365 295.494 87.1407 306.612 93.7321 310.166C100.323 313.72 106.906 309.151 106.906 309.151C106.906 309.151 117.805 320.041 119.065 317.511C120.326 314.981 115.266 311.173 114.251 309.658C113.36 308.455 112.341 307.352 111.213 306.367C111.213 306.367 116.535 307.12 118.566 308.905C120.597 310.691 123.88 313.72 125.403 313.466C126.926 313.212 126.926 311.943 124.641 308.905C122.8 306.527 120.575 304.471 118.058 302.822C116.535 301.815 111.467 299.023 111.467 299.023C111.467 299.023 118.811 298.515 121.35 300.038C123.888 301.561 130.725 306.122 131.233 304.091C131.74 302.06 131.74 300.799 129.202 298.515C126.664 296.23 121.587 293.438 118.566 292.939C116.484 292.556 114.445 291.963 112.482 291.17C112.482 291.17 118.312 289.14 120.334 289.14C122.357 289.14 130.488 293.193 132.747 292.694C135.006 292.194 133.763 290.13 131.994 288.861Z" fill="#B2B2B2" stroke="#263238" stroke-width="1.04867" stroke-linecap="round" stroke-linejoin="round"/>
<path d="M242 233.515C239.885 228.683 241.695 218.107 243.811 203.003C245.926 187.9 248.041 172.492 248.041 164.335C248.041 156.178 249.387 144.874 246.73 141.227C244.073 137.58 234.402 127.689 233.682 123.103C232.963 118.517 239.478 111.502 239.478 111.502C239.478 111.502 241.416 107.873 243.108 109.81C244.801 111.748 244.073 114.159 243.108 117.544C242.144 120.928 241.171 123.585 241.171 123.585C241.171 123.585 249.632 126.242 251.807 124.795C253.981 123.348 253.787 115.073 253.634 111.02C253.321 103.117 250.157 106.493 247.965 110.233C246.907 112.027 240.714 110.961 244.335 106.366C247.957 101.772 251.324 97.719 254.709 101.349C258.093 104.979 260.505 111.985 260.505 111.985C260.505 111.985 262.925 100.469 265.125 93.6999C267.325 86.9308 271.268 84.2486 272.689 84.7224C274.111 85.1962 273.95 87.5569 272.528 90.8653C271.107 94.1737 267.959 103.303 267.172 106.299C266.385 109.294 266.233 112.755 267.807 112.442C269.381 112.129 274.889 102.517 276.471 98.4213C278.054 94.326 280.406 90.5523 283.08 88.8177C285.753 87.0831 287.962 89.2915 286.862 92.1261C284.677 97.2521 282.196 102.247 279.433 107.086C277.696 110.213 276.221 113.479 275.024 116.85C277.618 114.086 280.352 111.457 283.215 108.973C286.997 105.825 291.093 105.199 292.345 106.299C293.597 107.399 292.506 107.56 289.358 110.081C286.21 112.602 281.506 115.606 277.741 121.732C274.824 126.224 272.546 131.099 270.971 136.218C269.801 139.578 268.269 142.801 266.402 145.83C266.402 145.83 269.355 169.809 274.474 183.001C279.594 196.192 288.647 215.484 285.889 229.267C283.13 243.051 277.817 250.133 270.337 252.299C268.168 252.932 265.881 253.049 263.66 252.639C261.438 252.229 259.343 251.304 257.543 249.938" fill="#92E3A9"/>
<g opacity="0.2">
<path opacity="0.2" d="M283.596 97.2876C283.748 97.321 283.89 97.3919 284.008 97.4938C284.126 97.5957 284.217 97.7255 284.273 97.8714C284.219 97.7243 284.129 97.5933 284.01 97.4911C283.892 97.3889 283.749 97.3188 283.596 97.2876Z" fill="black"/>
<path opacity="0.2" d="M283.596 97.2876V99.2675L284.273 97.8714C284.217 97.7255 284.126 97.5957 284.008 97.4938C283.89 97.3919 283.748 97.321 283.596 97.2876V97.2876Z" fill="black"/>
<path opacity="0.2" d="M283.596 222.439C285.212 219.994 283.943 219.131 283.596 219.131C283.943 219.131 285.212 219.994 283.596 222.439Z" fill="black"/>
<path opacity="0.2" d="M286.362 222.727C286.362 222.163 286.337 221.599 286.286 221.034C285.762 221.17 285.102 221.669 284.476 222.955C285.114 223.011 285.756 222.933 286.362 222.727V222.727Z" fill="black"/>
<path opacity="0.2" d="M283.596 219.131V222.439C285.212 219.994 283.943 219.131 283.596 219.131Z" fill="black"/>
<path opacity="0.2" d="M242.982 117.595C242.685 117.595 241.755 118.212 242.415 119.845C242.626 119.16 242.855 118.407 243.083 117.612L242.982 117.595Z" fill="black"/>
<path opacity="0.2" d="M263.289 131.057C264.905 128.611 263.636 127.748 263.289 127.748C262.942 127.748 261.664 128.611 263.289 131.057Z" fill="black"/>
<path opacity="0.2" d="M283.24 99.9867L283.596 99.2675V97.2876C283.274 97.2876 282.2 98.0153 283.24 99.9867Z" fill="black"/>
<path opacity="0.2" d="M263.289 107.441C262.942 107.441 261.672 108.287 263.289 110.75C264.905 108.304 263.635 107.441 263.289 107.441Z" fill="black"/>
<path opacity="0.2" d="M246.662 140.753C246.722 140.647 246.758 140.53 246.768 140.409C246.778 140.287 246.762 140.165 246.721 140.051C246.643 139.957 246.544 139.88 246.433 139.828C246.322 139.775 246.201 139.747 246.078 139.746C245.92 139.742 245.763 139.765 245.613 139.814C245.96 140.237 246.273 140.618 246.527 140.956C246.58 140.895 246.626 140.827 246.662 140.753Z" fill="black"/>
<path opacity="0.2" d="M267.028 129.898C266.851 129.593 265.463 128.933 264.168 131.59C267.088 131.725 267.198 130.194 267.028 129.898Z" fill="black"/>
<path opacity="0.2" d="M266.614 110.733C266.581 110.268 266.581 109.801 266.614 109.336C266.072 109.167 265.082 109.336 264.143 111.257C265.003 111.396 265.884 111.209 266.614 110.733V110.733Z" fill="black"/>
<path opacity="0.2" d="M267.054 89.3762C266.826 89.757 266.614 90.1716 266.394 90.6031C266.622 90.4978 266.81 90.3211 266.929 90.0999C267.048 89.8786 267.092 89.6246 267.054 89.3762V89.3762Z" fill="black"/>
<path opacity="0.2" d="M239.242 119.744C239.072 120.032 239.182 121.504 241.915 121.436L241.991 121.216C240.731 118.83 239.419 119.448 239.242 119.744Z" fill="black"/>
<path opacity="0.2" d="M259.549 129.898C259.371 130.194 259.49 131.725 262.409 131.59C261.114 128.933 259.726 129.593 259.549 129.898Z" fill="black"/>
<path opacity="0.2" d="M279.856 99.4368C279.687 99.733 279.797 101.256 282.682 101.129C281.413 98.4807 280.034 99.1322 279.856 99.4368Z" fill="black"/>
<path opacity="0.2" d="M262.409 111.257C262.118 110.577 261.643 109.991 261.038 109.565C260.903 110.2 260.784 110.733 260.7 111.139C261.258 111.278 261.837 111.318 262.409 111.257V111.257Z" fill="black"/>
<path opacity="0.2" d="M260.065 110.809C259.93 110.453 259.76 110.039 259.566 109.573C259.498 109.806 259.51 110.054 259.601 110.278C259.691 110.502 259.855 110.689 260.065 110.809V110.809Z" fill="black"/>
<path opacity="0.2" d="M263.289 191.978C264.905 189.533 263.636 188.67 263.289 188.67C262.942 188.67 261.664 189.533 263.289 191.978Z" fill="black"/>
<path opacity="0.2" d="M263.289 168.363C262.942 168.363 261.672 169.209 263.289 171.671C264.905 169.226 263.635 168.363 263.289 168.363Z" fill="black"/>
<path opacity="0.2" d="M263.289 148.055C262.942 148.055 261.672 148.902 263.289 151.364C264.905 148.918 263.635 148.055 263.289 148.055Z" fill="black"/>
<path opacity="0.2" d="M246.755 180.759C246.755 180.936 246.713 181.122 246.688 181.3C246.764 181.13 246.787 180.942 246.755 180.759Z" fill="black"/>
<path opacity="0.2" d="M246.721 200.973C246.552 200.685 245.342 200.127 244.132 202.132H246.282C246.468 202.01 246.612 201.833 246.691 201.624C246.77 201.416 246.781 201.188 246.721 200.973V200.973Z" fill="black"/>
<path opacity="0.2" d="M264.203 192.486C267.122 192.647 267.232 191.115 267.063 190.794C266.893 190.472 265.463 189.854 264.203 192.486Z" fill="black"/>
<path opacity="0.2" d="M267.028 170.512C266.851 170.207 265.463 169.547 264.168 172.204C267.088 172.339 267.198 170.808 267.028 170.512Z" fill="black"/>
<path opacity="0.2" d="M264.203 151.872C266.352 151.99 266.978 151.195 267.088 150.645L267.012 150.146C266.69 149.832 265.387 149.392 264.203 151.872Z" fill="black"/>
<path opacity="0.2" d="M281.472 200.99C280.626 200.406 279.974 200.761 279.856 200.99C279.796 201.205 279.807 201.433 279.886 201.641C279.965 201.85 280.109 202.027 280.296 202.149H281.87L281.472 200.99Z" fill="black"/>
<path opacity="0.2" d="M259.549 190.819C259.371 191.115 259.49 192.647 262.409 192.511C261.114 189.855 259.726 190.515 259.549 190.819Z" fill="black"/>
<path opacity="0.2" d="M259.549 170.512C259.371 170.808 259.49 172.339 262.409 172.204C261.114 169.547 259.726 170.207 259.549 170.512Z" fill="black"/>
<path opacity="0.2" d="M259.549 150.205C259.371 150.501 259.49 152.032 262.409 151.897C261.114 149.24 259.726 149.9 259.549 150.205Z" fill="black"/>
<path opacity="0.2" d="M263.288 249.592C262.958 249.592 261.808 250.37 263.052 252.519L263.475 252.604C264.795 250.387 263.618 249.592 263.288 249.592Z" fill="black"/>
<path opacity="0.2" d="M242.982 222.439C244.598 219.994 243.329 219.131 242.982 219.131C242.635 219.131 241.357 219.994 242.982 222.439Z" fill="black"/>
<path opacity="0.2" d="M283.596 219.131C283.249 219.131 281.98 219.977 283.596 222.439V219.131Z" fill="black"/>
<path opacity="0.2" d="M263.289 232.593C264.905 230.147 263.636 229.284 263.289 229.284C262.942 229.284 261.664 230.147 263.289 232.593Z" fill="black"/>
<path opacity="0.2" d="M263.289 208.977C262.942 208.977 261.672 209.823 263.289 212.285C264.905 209.84 263.635 208.977 263.289 208.977Z" fill="black"/>
<path opacity="0.2" d="M267.029 251.741C266.868 251.461 265.709 250.894 264.49 252.764C265.186 252.853 265.887 252.89 266.589 252.874C266.772 252.755 266.913 252.582 266.992 252.378C267.07 252.175 267.083 251.952 267.029 251.741V251.741Z" fill="black"/>
<path opacity="0.2" d="M243.896 222.947C246.815 223.108 246.925 221.576 246.755 221.255C246.586 220.933 245.156 220.315 243.896 222.947Z" fill="black"/>
<path opacity="0.2" d="M264.203 233.1C267.122 233.261 267.232 231.73 267.063 231.408C266.893 231.087 265.463 230.469 264.203 233.1Z" fill="black"/>
<path opacity="0.2" d="M267.028 211.126C266.851 210.822 265.463 210.162 264.168 212.819C267.088 212.954 267.198 211.422 267.028 211.126Z" fill="black"/>
<path opacity="0.2" d="M279.856 241.587C279.72 241.816 279.763 242.772 281.116 243.127C281.345 242.721 281.573 242.281 281.785 241.883C280.829 240.919 279.991 241.35 279.856 241.587Z" fill="black"/>
<path opacity="0.2" d="M260.031 251.462C260.514 251.69 261.008 251.893 261.512 252.071C261.34 251.849 261.113 251.676 260.853 251.569C260.593 251.462 260.31 251.425 260.031 251.462Z" fill="black"/>
<path opacity="0.2" d="M242.102 222.947C241.907 222.519 241.653 222.12 241.348 221.762C241.348 222.16 241.281 222.549 241.255 222.938C241.537 222.958 241.82 222.961 242.102 222.947Z" fill="black"/>
<path opacity="0.2" d="M282.716 222.947C281.421 220.315 280.034 220.975 279.856 221.255C279.678 221.534 279.797 223.108 282.716 222.947Z" fill="black"/>
<path opacity="0.2" d="M259.549 231.433C259.371 231.73 259.49 233.261 262.409 233.126C261.114 230.469 259.726 231.129 259.549 231.433Z" fill="black"/>
<path opacity="0.2" d="M259.549 211.126C259.371 211.422 259.49 212.954 262.409 212.819C261.114 210.162 259.726 210.822 259.549 211.126Z" fill="black"/>
<path opacity="0.2" d="M244.132 202.132C244.039 202.284 243.954 202.454 243.861 202.631C244.703 202.759 245.562 202.578 246.281 202.124H244.132V202.132Z" fill="black"/>
<path opacity="0.2" d="M281.87 202.132H280.279C280.796 202.478 281.408 202.656 282.03 202.639L281.87 202.132Z" fill="black"/>
</g>
<path d="M242 233.515C239.885 228.683 241.695 218.107 243.811 203.003C245.926 187.9 248.041 172.492 248.041 164.335C248.041 156.178 249.387 144.874 246.73 141.227C244.073 137.58 234.402 127.689 233.682 123.103C232.963 118.517 239.478 111.502 239.478 111.502C239.478 111.502 241.416 107.873 243.108 109.81C244.801 111.748 244.073 114.159 243.108 117.544C242.144 120.928 241.171 123.585 241.171 123.585C241.171 123.585 249.632 126.242 251.807 124.795C253.981 123.348 253.787 115.073 253.634 111.02C253.321 103.117 250.157 106.493 247.965 110.233C246.907 112.027 240.714 110.961 244.335 106.366C247.957 101.772 251.324 97.719 254.709 101.349C258.093 104.979 260.505 111.985 260.505 111.985C260.505 111.985 262.925 100.469 265.125 93.6999C267.325 86.9308 271.268 84.2486 272.689 84.7224C274.111 85.1962 273.95 87.5569 272.528 90.8653C271.107 94.1737 267.959 103.303 267.172 106.299C266.385 109.294 266.233 112.755 267.807 112.442C269.381 112.129 274.889 102.517 276.471 98.4213C278.054 94.326 280.406 90.5523 283.08 88.8177C285.753 87.0831 287.962 89.2915 286.862 92.1261C284.677 97.2521 282.196 102.247 279.433 107.086C277.696 110.213 276.221 113.479 275.024 116.85C277.618 114.086 280.352 111.457 283.215 108.973C286.997 105.825 291.093 105.199 292.345 106.299C293.597 107.399 292.506 107.56 289.358 110.081C286.21 112.602 281.506 115.606 277.741 121.732C274.824 126.224 272.546 131.099 270.971 136.218C269.801 139.578 268.269 142.801 266.402 145.83C266.402 145.83 269.355 169.809 274.474 183.001C279.594 196.192 288.647 215.484 285.889 229.267C283.13 243.051 277.817 250.133 270.337 252.299C268.168 252.932 265.881 253.049 263.66 252.639C261.438 252.229 259.343 251.304 257.543 249.938" stroke="#263238" stroke-width="1.04867" stroke-linecap="round" stroke-linejoin="round"/>
<path d="M277.74 121.732C281.522 115.589 286.252 112.594 289.4 110.081C292.548 107.568 293.631 107.399 292.387 106.299C291.143 105.199 287.039 105.825 283.257 108.973C280.394 111.457 277.66 114.086 275.066 116.85C276.25 113.48 277.71 110.214 279.433 107.086C282.187 102.247 284.659 97.2516 286.836 92.1262C287.936 89.2916 285.736 87.0494 283.054 88.8178C280.372 90.5862 278.019 94.3261 276.446 98.4214C274.872 102.517 269.355 112.129 267.781 112.442C266.207 112.755 266.36 109.286 267.147 106.299C267.934 103.312 271.09 94.1738 272.503 90.8654C273.916 87.5571 274.076 85.1964 272.663 84.7225C271.25 84.2487 267.307 86.9225 265.099 93.7C262.891 100.478 260.479 111.985 260.479 111.985C260.479 111.985 258.068 104.97 254.683 101.349C251.299 97.7276 247.914 101.772 244.31 106.367C240.705 110.961 246.848 112.027 247.939 110.233C250.131 106.494 253.295 103.117 253.609 111.02C253.761 115.073 253.955 123.34 251.781 124.795C249.606 126.251 241.145 123.585 241.145 123.585C241.145 123.585 242.11 120.929 243.083 117.544C244.056 114.159 244.775 111.74 243.083 109.81C241.39 107.881 239.453 111.503 239.453 111.503C239.453 111.503 232.929 118.509 233.657 123.103C234.384 127.698 244.047 137.597 246.704 141.227C249.361 144.857 248.016 156.178 248.016 164.335C248.016 172.492 245.9 187.9 243.785 203.003C243.785 203.206 243.726 203.393 243.7 203.587C247.043 207.099 253.854 212.133 265.37 211.744C273.087 211.482 278.553 207.598 282.25 203.325C279.796 196.023 276.716 188.941 274.432 183.018C269.313 169.827 266.36 145.847 266.36 145.847C268.226 142.818 269.758 139.595 270.929 136.235C272.516 131.108 274.808 126.227 277.74 121.732V121.732Z" fill="#B2B2B2" stroke="#263238" stroke-width="1.04867" stroke-linecap="round" stroke-linejoin="round"/>
<path d="M254.573 144.882C254.573 144.882 253.16 138.9 255.208 135.118C256.285 132.967 258.06 131.246 260.242 130.236" stroke="#263238" stroke-width="1.04867" stroke-linecap="round" stroke-linejoin="round"/>
</svg>
