<svg width="305" height="271" viewBox="0 0 305 271" fill="none" xmlns="http://www.w3.org/2000/svg">
<path d="M279.621 221.145C281.981 207.58 304.39 181.632 297.904 165.708C291.419 149.785 275.489 200.488 269.59 201.095C263.691 201.702 269.003 178.093 277.262 155.683C285.52 133.274 292.006 109.679 277.262 100.834C262.518 91.9886 263.104 162.169 259.565 159.809C256.025 157.45 261.924 127.962 257.799 109.679C253.673 91.3953 244.234 106.139 244.234 127.409C244.234 148.68 250.72 160.437 246.001 162.189C241.282 163.942 226.804 157.347 227.131 180.473C227.458 203.598 245.414 231.197 238.922 227.657C232.43 224.118 220.639 210.554 222.998 232.376C224.669 247.802 236.637 262.628 243.525 270H275.059C279.867 265.056 289.21 254.636 295.518 242.401C304.39 225.277 277.262 234.716 279.621 221.145Z" fill="#92E3A9"/>
<path d="M241.282 268.622C235.444 260.255 232.716 250.025 229.988 240.478C228.624 234.34 228.624 227.521 233.398 223.429C238.172 220.019 240.9 226.157 243.627 228.885C245.673 227.521 244.309 225.475 244.309 224.111C242.949 213.253 242.266 202.32 242.264 191.377C242.264 184.558 244.991 179.102 247.719 172.964C249.083 170.918 250.447 168.872 252.493 168.191C254.539 167.509 256.585 168.191 257.267 170.236C258.631 175.01 258.631 179.784 259.312 184.558C260.676 183.194 259.994 181.148 259.994 179.784C262.722 160.007 260.676 140.912 266.814 121.817C267.496 120.453 269.542 119.09 270.906 119.772C275.679 120.453 275.679 126.591 275.679 130.683C278.407 150.46 272.27 169.554 270.224 189.331C270.224 190.695 269.542 192.059 270.906 193.423C271.588 188.649 274.316 183.876 275.679 179.102C276.361 177.056 277.725 174.328 279.771 172.964C281.135 172.282 282.499 172.964 283.863 174.328C286.591 178.42 287.273 182.512 286.591 187.285C284.545 198.879 280.453 208.426 275.679 218.655L273.634 224.793C272.952 228.885 270.224 233.658 272.952 237.068C277.725 236.386 279.089 230.931 283.181 228.203C287.273 225.475 288.637 228.885 289.319 231.613C292.046 245.252 287.273 257.527 280.399 268.595" stroke="#263238" stroke-width="0.0549815" stroke-linecap="round" stroke-linejoin="round"/>
<path d="M260.383 266.017C260.383 266.017 258.794 234.149 262.777 205.078" stroke="#263238" stroke-width="0.0549815" stroke-linecap="round" stroke-linejoin="round"/>
<path d="M247.242 245.702L260.383 260.043L271.935 250.08" stroke="#263238" stroke-width="0.0549815" stroke-linecap="round" stroke-linejoin="round"/>
<path d="M256.796 209.858L260.383 228.176L270.742 209.858" stroke="#263238" stroke-width="0.0549815" stroke-linecap="round" stroke-linejoin="round"/>
<path d="M263.172 200.297L265.559 183.173" stroke="#263238" stroke-width="0.0549815" stroke-linecap="round" stroke-linejoin="round"/>
<path d="M74.3995 60.6526H31.4498V114.343H74.3995V60.6526Z" stroke="#263238" stroke-width="0.0549815" stroke-linecap="round" stroke-linejoin="round"/>
<path d="M128.09 60.6526H85.1404V114.343H128.09V60.6526Z" stroke="#263238" stroke-width="0.0549815" stroke-linecap="round" stroke-linejoin="round"/>
<path d="M74.3995 123.127H31.4498V176.817H74.3995V123.127Z" stroke="#263238" stroke-width="0.0549815" stroke-linecap="round" stroke-linejoin="round"/>
<path d="M128.09 123.127H85.1404V176.817H128.09V123.127Z" stroke="#263238" stroke-width="0.0549815" stroke-linecap="round" stroke-linejoin="round"/>
<path d="M74.3995 185.601H31.4498V239.291H74.3995V185.601Z" stroke="#263238" stroke-width="0.0549815" stroke-linecap="round" stroke-linejoin="round"/>
<path d="M128.09 185.601H85.1404V239.291H128.09V185.601Z" stroke="#263238" stroke-width="0.0549815" stroke-linecap="round" stroke-linejoin="round"/>
<path d="M80.2576 5.01172C67.5716 5.01172 55.4052 10.0512 46.4349 19.0215C37.4645 27.9919 32.425 40.1583 32.425 52.8442H128.09C128.09 40.1583 123.051 27.9919 114.08 19.0215C105.11 10.0512 92.9435 5.01172 80.2576 5.01172V5.01172Z" stroke="#263238" stroke-width="0.0549815" stroke-linecap="round" stroke-linejoin="round"/>
<path d="M142.118 30.6533C142.118 30.6533 142.118 20.4239 124.557 22.4698C106.997 24.5157 99.6387 40.0302 94.3331 43.2968C89.0275 46.5634 79.2209 49.4344 78.8117 54.3241C78.4026 59.2137 82.9035 61.2664 78.4026 64.9421C73.9016 68.6179 67.0002 71.9049 68.6028 76.8082C70.2054 81.7115 74.7404 86.6079 72.6946 89.8813C70.6487 93.1547 64.9339 96.4145 70.2395 100.111C75.5452 103.807 78.0002 104.605 78.0002 109.501C78.0002 114.398 75.9543 117.685 80.8644 119.308C85.7745 120.931 88.6183 117.671 91.4825 123.795C94.3467 129.919 97.1973 131.556 102.101 130.328C107.004 129.101 113.939 127.062 116.422 128.698C118.904 130.335 126.651 134.836 129.897 132.374C133.143 129.912 136.035 126.236 140.924 128.282C145.814 130.328 149.913 133.186 151.952 129.51C153.991 125.834 151.952 125.016 159.712 123.372C167.473 121.729 170.33 122.152 170.33 115.618C170.33 109.085 169.921 107.435 173.597 104.591C177.273 101.747 180.539 102.954 179.319 96.0121C178.098 89.0698 175.643 87.4331 176.864 80.4908C178.084 73.5484 174.818 71.1002 172.37 69.0543C169.921 67.0085 167.064 63.3395 167.882 59.6638C168.701 55.988 174.825 55.572 168.694 49.0457C162.563 42.5194 159.712 44.5516 158.464 39.6483C157.216 34.745 153.145 24.1201 142.118 30.6533Z" fill="#263238" stroke="#263238" stroke-width="0.0549815" stroke-linecap="round" stroke-linejoin="round"/>
<path d="M126.44 42.949C123.923 46.9317 121.98 51.4258 117.929 55.2243C112.078 60.6799 97.0883 65.4536 96.3586 70.582C95.6289 75.7103 98.1863 78.6222 93.0716 83.0072C87.9569 87.3922 79.9098 88.4629 79.9098 92.882C79.9098 97.3011 82.0989 98.7332 81.0077 102.02" stroke="#616161" stroke-width="0.0549815" stroke-miterlimit="10"/>
<path d="M137.31 38.0389C137.31 38.0389 135.482 33.2652 130.361 38.0389C129.965 38.4072 129.59 38.7891 129.236 39.1778" stroke="#616161" stroke-width="0.0549815" stroke-miterlimit="10"/>
<path d="M96.0108 58.9341C91.5099 60.0253 87.9569 60.8095 87.5886 64.0011C86.8521 70.2137 87.95 74.2305 83.5651 76.0649C79.1801 77.8994 73.3357 80.8386 75.1565 84.4735C76.9773 88.1083 77.3456 89.2472 76.9842 90.6861" stroke="#616161" stroke-width="0.0549815" stroke-miterlimit="10"/>
<path d="M136.56 32.1877C136.56 32.1877 126.33 25.6137 120.875 31.458C115.419 37.3024 117.949 44.6198 109.541 52.6669C107.405 54.6554 104.885 56.185 102.135 57.161" stroke="#616161" stroke-width="0.0549815" stroke-miterlimit="10"/>
<path d="M172.138 84.037C172.751 84.9897 173.599 85.7692 174.6 86.3011" stroke="#616161" stroke-width="0.0549815" stroke-miterlimit="10"/>
<path d="M143.891 41.3464C143.891 41.3464 153.029 38.4208 155.218 43.5355C157.407 48.6502 158.512 57.7953 162.536 59.2615C166.559 60.7277 168.38 62.9168 168.38 70.957C168.375 73.5484 168.762 76.1257 169.526 78.6018" stroke="#616161" stroke-width="0.0549815" stroke-miterlimit="10"/>
<path d="M84.663 106.405C87.5886 101.632 91.6053 103.486 91.9736 98.365C92.3418 93.2435 89.4162 91.7841 92.335 88.497C95.2538 85.21 100.014 83.7233 100.014 83.7233" stroke="#616161" stroke-width="0.0549815" stroke-miterlimit="10"/>
<path d="M88.6798 116.648C87.3289 115.53 86.1562 114.212 85.2018 112.741" stroke="#616161" stroke-width="0.0549815" stroke-miterlimit="10"/>
<path d="M189.903 269.98C189.903 269.98 191.123 253.237 183.765 236.489C176.407 219.74 174.75 218.533 174.75 213.629C174.75 208.726 179.673 203.004 180.492 191.977C181.31 180.95 180.901 175.61 180.901 175.61C180.901 175.61 198.461 203.38 210.716 205.016C222.971 206.653 230.322 195.217 225.828 179.695C221.334 164.174 201.728 151.517 193.974 141.301C186.22 131.085 168.646 131.072 159.665 131.072C150.683 131.072 146.189 127.805 144.553 121.681C142.916 115.557 142.923 103.268 142.923 103.268C142.923 103.268 132.298 109.801 114.328 102.45C114.328 102.45 115.965 124.914 113.919 128.18C111.873 131.447 109.036 134.775 96.7814 134.775C84.5266 134.775 74.3177 137.23 68.6029 142.958C62.8881 148.687 39.1969 171.546 33.0729 180.534C26.9489 189.522 30.2087 199.322 37.5602 202.998C44.9117 206.673 52.2632 203.4 57.5757 198.504C62.8881 193.607 79.6302 178.079 79.6302 178.079C79.6302 178.079 79.6302 187.476 84.1243 200.952C88.6184 214.427 92.3078 212.797 89.0207 222.597C85.7337 232.397 79.221 235.261 77.1819 247.918C75.9606 255.204 75.4127 262.587 75.5452 269.973" fill="#92E3A9"/>
<g opacity="0.2">
<path opacity="0.2" d="M163.102 143.879C162.822 143.879 161.799 144.561 163.102 146.545C164.405 144.574 163.382 143.879 163.102 143.879Z" fill="black"/>
<path opacity="0.2" d="M195.836 143.879C195.556 143.879 194.533 144.561 195.836 146.545C197.138 144.574 196.115 143.879 195.836 143.879Z" fill="black"/>
<path opacity="0.2" d="M195.836 160.246C195.556 160.246 194.533 160.928 195.836 162.912C197.138 160.941 196.115 160.246 195.836 160.246Z" fill="black"/>
<path opacity="0.2" d="M163.102 160.246C162.822 160.246 161.799 160.928 163.102 162.912C164.405 160.941 163.382 160.246 163.102 160.246Z" fill="black"/>
<path opacity="0.2" d="M179.469 152.062C179.189 152.062 178.166 152.744 179.469 154.729C180.771 152.758 179.749 152.062 179.469 152.062Z" fill="black"/>
<path opacity="0.2" d="M179.469 135.695C179.189 135.695 178.166 136.377 179.469 138.362C180.771 136.391 179.749 135.695 179.469 135.695Z" fill="black"/>
<path opacity="0.2" d="M163.839 146.954C166.198 147.084 166.28 145.85 166.144 145.59C166.007 145.331 164.855 144.834 163.839 146.954Z" fill="black"/>
<path opacity="0.2" d="M198.571 146.484L197.664 145.55C197.166 145.903 196.778 146.39 196.545 146.954C197.256 147.071 197.984 146.902 198.571 146.484Z" fill="black"/>
<path opacity="0.2" d="M180.205 155.138C182.565 155.267 182.647 154.033 182.51 153.774C182.374 153.515 181.222 153.017 180.205 155.138Z" fill="black"/>
<path opacity="0.2" d="M180.205 138.771C182.565 138.901 182.647 137.666 182.51 137.407C182.374 137.148 181.222 136.65 180.205 138.771Z" fill="black"/>
<path opacity="0.2" d="M192.822 145.611C192.685 145.85 192.774 147.084 195.127 146.975C194.083 144.834 192.965 145.365 192.822 145.611Z" fill="black"/>
<path opacity="0.2" d="M192.822 161.978C192.774 162.151 192.783 162.335 192.846 162.503C192.91 162.671 193.026 162.814 193.176 162.912C193.757 163.278 194.449 163.423 195.127 163.321C195.062 163.181 194.99 163.044 194.909 162.912C193.933 161.275 192.958 161.746 192.822 161.978Z" fill="black"/>
<path opacity="0.2" d="M176.455 153.794C176.318 154.033 176.407 155.267 178.76 155.158C177.716 153.017 176.598 153.549 176.455 153.794Z" fill="black"/>
<path opacity="0.2" d="M176.455 137.427C176.318 137.666 176.407 138.9 178.76 138.791C177.716 136.65 176.598 137.182 176.455 137.427Z" fill="black"/>
<path opacity="0.2" d="M163.102 192.98C162.822 192.98 161.799 193.662 163.102 195.646C164.405 193.675 163.382 192.98 163.102 192.98Z" fill="black"/>
<path opacity="0.2" d="M195.836 192.98C195.631 192.98 195.045 193.348 195.229 194.296C195.515 194.603 195.802 194.91 196.095 195.21C196.982 193.573 196.095 192.98 195.836 192.98Z" fill="black"/>
<path opacity="0.2" d="M163.102 209.347C162.822 209.347 161.799 210.029 163.102 212.013C164.405 210.042 163.382 209.347 163.102 209.347Z" fill="black"/>
<path opacity="0.2" d="M212.203 201.163C211.923 201.163 210.9 201.845 212.203 203.83C213.505 201.859 212.483 201.163 212.203 201.163Z" fill="black"/>
<path opacity="0.2" d="M163.102 176.613C162.822 176.613 161.799 177.295 163.102 179.279C164.405 177.308 163.382 176.613 163.102 176.613Z" fill="black"/>
<path opacity="0.2" d="M195.836 176.613C195.556 176.613 194.533 177.295 195.836 179.279C197.138 177.308 196.115 176.613 195.836 176.613Z" fill="black"/>
<path opacity="0.2" d="M179.469 184.796C179.189 184.796 178.166 185.478 179.469 187.463C180.771 185.492 179.749 184.796 179.469 184.796Z" fill="black"/>
<path opacity="0.2" d="M212.203 184.796C211.923 184.796 210.9 185.478 212.203 187.463C213.505 185.492 212.483 184.796 212.203 184.796Z" fill="black"/>
<path opacity="0.2" d="M179.469 168.429C179.189 168.429 178.166 169.111 179.469 171.096C180.771 169.125 179.749 168.429 179.469 168.429Z" fill="black"/>
<path opacity="0.2" d="M212.203 168.429C211.923 168.429 210.9 169.111 212.203 171.096C213.505 169.125 212.483 168.429 212.203 168.429Z" fill="black"/>
<path opacity="0.2" d="M163.839 196.055C166.198 196.185 166.28 194.951 166.144 194.691C166.007 194.432 164.855 193.934 163.839 196.055Z" fill="black"/>
<path opacity="0.2" d="M196.675 195.81L196.92 196.062C198.905 196.062 198.966 194.937 198.85 194.698C198.734 194.46 197.677 193.982 196.675 195.81Z" fill="black"/>
<path opacity="0.2" d="M165.598 210.833C165.3 210.827 165.009 210.929 164.78 211.12C164.641 211.23 164.513 211.353 164.398 211.488C164.261 211.653 164.138 211.828 164.029 212.013C164.031 212.027 164.031 212.04 164.029 212.054C163.968 212.163 163.9 212.286 163.839 212.422C164.517 212.525 165.209 212.38 165.789 212.013V212.013C165.837 211.976 165.883 211.935 165.925 211.89C165.993 211.817 166.051 211.734 166.096 211.645C166.162 211.566 166.203 211.469 166.212 211.367C166.221 211.265 166.198 211.162 166.147 211.073C166.095 210.984 166.017 210.913 165.924 210.87C165.831 210.828 165.726 210.815 165.625 210.833H165.598Z" fill="black"/>
<path opacity="0.2" d="M212.939 204.239C215.292 204.368 215.381 203.134 215.244 202.875C215.108 202.616 213.955 202.118 212.939 204.239Z" fill="black"/>
<path opacity="0.2" d="M163.839 179.688C166.198 179.818 166.28 178.584 166.144 178.324C166.007 178.065 164.855 177.567 163.839 179.688Z" fill="black"/>
<path opacity="0.2" d="M198.85 178.345C198.707 178.099 197.589 177.568 196.545 179.709C198.898 179.818 198.987 178.584 198.85 178.345Z" fill="black"/>
<path opacity="0.2" d="M180.205 187.872C180.403 187.882 180.601 187.882 180.799 187.872C180.799 187.531 180.833 187.19 180.846 186.876C180.588 187.177 180.373 187.512 180.205 187.872Z" fill="black"/>
<path opacity="0.2" d="M212.939 187.872C215.292 188.001 215.381 186.767 215.244 186.508C215.108 186.249 213.955 185.751 212.939 187.872Z" fill="black"/>
<path opacity="0.2" d="M180.205 171.505C182.565 171.634 182.647 170.4 182.51 170.141C182.374 169.882 181.222 169.384 180.205 171.505Z" fill="black"/>
<path opacity="0.2" d="M212.939 171.505C215.292 171.634 215.381 170.4 215.244 170.141C215.108 169.882 213.955 169.384 212.939 171.505Z" fill="black"/>
<path opacity="0.2" d="M177.675 204.184L178.05 203.168C177.259 202.35 176.564 202.704 176.455 202.895C176.345 203.086 176.38 203.946 177.675 204.184Z" fill="black"/>
<path opacity="0.2" d="M225.556 194.712C225.504 194.907 225.522 195.114 225.605 195.297C225.688 195.481 225.832 195.631 226.012 195.721C226.156 195.326 226.278 194.916 226.394 194.5C226.249 194.451 226.093 194.445 225.944 194.483C225.795 194.52 225.66 194.6 225.556 194.712V194.712Z" fill="black"/>
<path opacity="0.2" d="M209.189 202.895C209.045 203.134 209.141 204.368 211.494 204.259C210.45 202.118 209.332 202.65 209.189 202.895Z" fill="black"/>
<path opacity="0.2" d="M192.822 178.345C192.685 178.584 192.774 179.818 195.127 179.709C194.083 177.568 192.965 178.099 192.822 178.345Z" fill="black"/>
<path opacity="0.2" d="M176.455 186.528C176.318 186.767 176.407 188.001 178.76 187.892C177.716 185.751 176.598 186.283 176.455 186.528Z" fill="black"/>
<path opacity="0.2" d="M209.189 186.528C209.045 186.767 209.141 188.001 211.494 187.892C210.45 185.751 209.332 186.283 209.189 186.528Z" fill="black"/>
<path opacity="0.2" d="M176.455 170.161C176.318 170.4 176.407 171.634 178.76 171.525C177.716 169.384 176.598 169.916 176.455 170.161Z" fill="black"/>
<path opacity="0.2" d="M209.189 170.161C209.045 170.4 209.141 171.634 211.494 171.525C210.45 169.384 209.332 169.916 209.189 170.161Z" fill="black"/>
<path opacity="0.2" d="M198.496 162.912C198.646 162.814 198.762 162.671 198.826 162.503C198.889 162.335 198.898 162.151 198.85 161.978C198.714 161.746 197.739 161.296 196.763 162.912C196.682 163.044 196.61 163.181 196.545 163.321C197.223 163.424 197.916 163.279 198.496 162.912Z" fill="black"/>
<path opacity="0.2" d="M165.762 162.912C165.912 162.814 166.028 162.671 166.092 162.503C166.156 162.335 166.164 162.151 166.116 161.978C165.98 161.746 165.005 161.296 164.03 162.912C163.949 163.044 163.876 163.181 163.811 163.321C164.489 163.424 165.182 163.279 165.762 162.912Z" fill="black"/>
<path opacity="0.2" d="M163.102 242.081C162.822 242.081 161.799 242.763 163.102 244.747C164.405 242.776 163.382 242.081 163.102 242.081Z" fill="black"/>
<path opacity="0.2" d="M163.102 258.448C162.822 258.448 161.799 259.13 163.102 261.114C164.405 259.143 163.382 258.448 163.102 258.448Z" fill="black"/>
<path opacity="0.2" d="M179.469 250.264C179.189 250.264 178.166 250.946 179.469 252.931C180.771 250.96 179.749 250.264 179.469 250.264Z" fill="black"/>
<path opacity="0.2" d="M163.102 225.714C162.822 225.714 161.799 226.396 163.102 228.38C164.405 226.409 163.382 225.714 163.102 225.714Z" fill="black"/>
<path opacity="0.2" d="M179.469 233.897C179.189 233.897 178.166 234.579 179.469 236.564C180.771 234.593 179.749 233.897 179.469 233.897Z" fill="black"/>
<path opacity="0.2" d="M163.839 245.156C166.198 245.286 166.28 244.052 166.144 243.792C166.007 243.533 164.855 243.035 163.839 245.156Z" fill="black"/>
<path opacity="0.2" d="M165.598 259.934H165.455C165.279 259.947 165.108 260.001 164.957 260.091L164.78 260.214C164.476 260.462 164.222 260.765 164.03 261.107V261.107C163.949 261.239 163.876 261.376 163.811 261.516C164.489 261.619 165.182 261.474 165.762 261.107C165.912 261.009 166.028 260.866 166.092 260.698C166.156 260.53 166.164 260.346 166.116 260.173C166.052 260.098 165.973 260.038 165.883 259.997C165.794 259.956 165.697 259.934 165.598 259.934Z" fill="black"/>
<path opacity="0.2" d="M180.205 253.34C182.565 253.469 182.647 252.235 182.51 251.976C182.374 251.717 181.222 251.219 180.205 253.34Z" fill="black"/>
<path opacity="0.2" d="M163.839 228.789C166.198 228.919 166.28 227.685 166.144 227.425C166.007 227.166 164.855 226.668 163.839 228.789Z" fill="black"/>
<path opacity="0.2" d="M180.205 236.973C182.565 237.102 182.647 235.868 182.51 235.609C182.374 235.35 181.222 234.852 180.205 236.973Z" fill="black"/>
<path opacity="0.2" d="M176.455 251.996C176.318 252.235 176.407 253.469 178.76 253.36C177.716 251.219 176.598 251.751 176.455 251.996Z" fill="black"/>
<path opacity="0.2" d="M176.455 235.629C176.318 235.868 176.407 237.102 178.76 236.993C177.716 234.852 176.598 235.384 176.455 235.629Z" fill="black"/>
<path opacity="0.2" d="M179.469 266.631C179.189 266.631 178.166 267.313 179.469 269.298C180.771 267.327 179.749 266.631 179.469 266.631Z" fill="black"/>
<path opacity="0.2" d="M180.205 269.707C182.565 269.836 182.647 268.602 182.51 268.343C182.374 268.084 181.222 267.586 180.205 269.707Z" fill="black"/>
<path opacity="0.2" d="M176.455 268.363C176.318 268.602 176.407 269.836 178.76 269.727C177.716 267.586 176.598 268.118 176.455 268.363Z" fill="black"/>
<path opacity="0.2" d="M130.368 111.145C130.088 111.145 129.065 111.827 130.368 113.811C131.67 111.84 130.647 111.145 130.368 111.145Z" fill="black"/>
<path opacity="0.2" d="M114.39 103.186C114.39 103.555 114.444 104.066 114.485 104.707C114.615 104.471 114.675 104.202 114.658 103.933C114.641 103.664 114.548 103.405 114.39 103.186Z" fill="black"/>
<path opacity="0.2" d="M132.864 112.631C132.566 112.625 132.275 112.727 132.046 112.918C131.907 113.028 131.779 113.151 131.664 113.286C131.527 113.451 131.404 113.626 131.295 113.811V113.852C131.234 113.961 131.166 114.084 131.104 114.22C131.783 114.323 132.475 114.178 133.055 113.811V113.811C133.103 113.774 133.149 113.733 133.191 113.688C133.259 113.615 133.317 113.532 133.362 113.443C133.41 113.358 133.439 113.263 133.447 113.165C133.456 113.067 133.443 112.969 133.41 112.877C133.343 112.797 133.26 112.734 133.165 112.691C133.071 112.649 132.968 112.628 132.864 112.631Z" fill="black"/>
<path opacity="0.2" d="M114.737 106.037C117.097 106.166 117.179 104.932 117.042 104.673C116.906 104.414 115.754 103.916 114.737 106.037Z" fill="black"/>
<path opacity="0.2" d="M98.2614 144.636C98.2494 144.531 98.2194 144.43 98.1728 144.336V144.336C98.153 144.293 98.1302 144.252 98.1046 144.213C98.0613 144.146 98.0084 144.087 97.9477 144.036V144.036C97.8987 143.993 97.8435 143.959 97.7841 143.933V143.933C97.742 143.911 97.6952 143.9 97.6477 143.9C97.6002 143.9 97.5534 143.911 97.5113 143.933C97.1976 144.07 96.6861 144.615 97.259 145.884C97.3725 146.12 97.5024 146.348 97.6477 146.566C97.793 146.348 97.9228 146.12 98.0364 145.884C98.1973 145.564 98.2857 145.212 98.2955 144.854C98.2992 144.79 98.2992 144.727 98.2955 144.663L98.2614 144.636Z" fill="black"/>
<path opacity="0.2" d="M130.368 143.879C130.088 143.879 129.065 144.561 130.368 146.545C131.67 144.574 130.647 143.879 130.368 143.879Z" fill="black"/>
<path opacity="0.2" d="M130.368 160.246C130.088 160.246 129.065 160.928 130.368 162.912C131.67 160.941 130.647 160.246 130.368 160.246Z" fill="black"/>
<path opacity="0.2" d="M98.2614 161.003C98.2494 160.898 98.2194 160.797 98.1728 160.703V160.703C98.153 160.66 98.1302 160.619 98.1046 160.58V160.58C98.0613 160.513 98.0084 160.454 97.9477 160.403V160.403C97.8987 160.36 97.8435 160.326 97.7841 160.3C97.742 160.278 97.6952 160.267 97.6477 160.267C97.6002 160.267 97.5534 160.278 97.5113 160.3C97.1976 160.437 96.6861 160.982 97.259 162.251C97.3725 162.487 97.5024 162.715 97.6477 162.933C97.793 162.715 97.9228 162.487 98.0364 162.251C98.1973 161.931 98.2857 161.579 98.2955 161.221C98.2992 161.157 98.2992 161.094 98.2955 161.03L98.2614 161.003Z" fill="black"/>
<path opacity="0.2" d="M114.001 152.062C113.721 152.062 112.698 152.744 114.001 154.729C115.303 152.758 114.281 152.062 114.001 152.062Z" fill="black"/>
<path opacity="0.2" d="M146.735 152.062C146.455 152.062 145.432 152.744 146.735 154.729C148.037 152.758 147.015 152.062 146.735 152.062Z" fill="black"/>
<path opacity="0.2" d="M130.368 127.512C130.088 127.512 129.065 128.194 130.368 130.178C131.67 128.207 130.647 127.512 130.368 127.512Z" fill="black"/>
<path opacity="0.2" d="M114.001 135.695C113.721 135.695 112.698 136.377 114.001 138.362C115.303 136.391 114.281 135.695 114.001 135.695Z" fill="black"/>
<path opacity="0.2" d="M146.735 135.695C146.455 135.695 145.432 136.377 146.735 138.362C148.037 136.391 147.015 135.695 146.735 135.695Z" fill="black"/>
<path opacity="0.2" d="M98.3705 146.954C100.73 147.084 100.812 145.85 100.676 145.59C100.539 145.331 99.3866 144.834 98.3705 146.954Z" fill="black"/>
<path opacity="0.2" d="M131.104 146.954C133.457 147.084 133.546 145.85 133.41 145.59C133.273 145.331 132.121 144.834 131.104 146.954Z" fill="black"/>
<path opacity="0.2" d="M114.737 155.138C117.097 155.267 117.179 154.033 117.042 153.774C116.906 153.515 115.754 153.017 114.737 155.138Z" fill="black"/>
<path opacity="0.2" d="M147.471 155.138C149.824 155.267 149.913 154.033 149.776 153.774C149.64 153.515 148.488 153.017 147.471 155.138Z" fill="black"/>
<path opacity="0.2" d="M131.104 130.587C133.457 130.717 133.546 129.483 133.41 129.223C133.273 128.964 132.121 128.467 131.104 130.587Z" fill="black"/>
<path opacity="0.2" d="M114.737 138.771C117.097 138.901 117.179 137.666 117.042 137.407C116.906 137.148 115.754 136.65 114.737 138.771Z" fill="black"/>
<path opacity="0.2" d="M147.471 138.771C149.824 138.901 149.913 137.666 149.776 137.407C149.64 137.148 148.488 136.65 147.471 138.771Z" fill="black"/>
<path opacity="0.2" d="M117.015 121.06C116.879 120.829 115.883 120.378 114.894 122.049C114.894 122.172 114.894 122.288 114.894 122.404C117.063 122.499 117.152 121.292 117.015 121.06Z" fill="black"/>
<path opacity="0.2" d="M127.354 145.611C127.217 145.85 127.306 147.084 129.659 146.975C128.615 144.834 127.497 145.365 127.354 145.611Z" fill="black"/>
<path opacity="0.2" d="M127.354 161.978C127.306 162.151 127.315 162.335 127.378 162.503C127.442 162.671 127.558 162.814 127.708 162.912C128.289 163.278 128.981 163.423 129.659 163.321C129.594 163.181 129.522 163.044 129.441 162.912C128.465 161.275 127.49 161.746 127.354 161.978Z" fill="black"/>
<path opacity="0.2" d="M110.987 153.794C110.85 154.033 110.939 155.267 113.292 155.158C112.248 153.017 111.13 153.549 110.987 153.794Z" fill="black"/>
<path opacity="0.2" d="M160.088 145.611C159.945 145.85 160.04 147.084 162.393 146.975C161.349 144.834 160.231 145.365 160.088 145.611Z" fill="black"/>
<path opacity="0.2" d="M162.174 162.912C161.199 161.275 160.224 161.746 160.088 161.978C160.04 162.151 160.048 162.335 160.112 162.503C160.176 162.671 160.292 162.814 160.442 162.912V162.912C161.022 163.279 161.714 163.424 162.393 163.321C162.328 163.181 162.255 163.044 162.174 162.912V162.912Z" fill="black"/>
<path opacity="0.2" d="M143.721 153.794C143.577 154.033 143.673 155.267 146.026 155.158C144.982 153.017 143.864 153.549 143.721 153.794Z" fill="black"/>
<path opacity="0.2" d="M127.354 129.244C127.217 129.483 127.306 130.717 129.659 130.608C128.615 128.467 127.497 128.998 127.354 129.244Z" fill="black"/>
<path opacity="0.2" d="M110.987 137.427C110.85 137.666 110.939 138.9 113.292 138.791C112.248 136.65 111.13 137.182 110.987 137.427Z" fill="black"/>
<path opacity="0.2" d="M143.721 137.427C143.577 137.666 143.673 138.9 146.026 138.791C144.982 136.65 143.864 137.182 143.721 137.427Z" fill="black"/>
<path opacity="0.2" d="M144.744 122.302C144.682 122.111 144.621 121.927 144.566 121.729C144.512 121.531 144.416 121.135 144.348 120.815C144.231 120.802 144.113 120.817 144.004 120.86C143.895 120.903 143.798 120.972 143.721 121.06C143.612 121.245 143.646 122.022 144.744 122.302Z" fill="black"/>
<path opacity="0.2" d="M129.441 113.811C129.332 113.626 129.209 113.451 129.072 113.286C128.959 113.15 128.831 113.026 128.69 112.918C128.461 112.727 128.17 112.625 127.872 112.631C127.773 112.632 127.675 112.655 127.586 112.697C127.496 112.739 127.417 112.801 127.354 112.877C127.321 112.969 127.308 113.068 127.316 113.165C127.324 113.263 127.353 113.358 127.401 113.443C127.446 113.532 127.504 113.615 127.572 113.689L127.708 113.811C128.289 114.177 128.981 114.322 129.659 114.22C129.597 114.084 129.529 113.961 129.468 113.852L129.441 113.811Z" fill="black"/>
<path opacity="0.2" d="M98.2614 193.737C98.2494 193.632 98.2194 193.531 98.1728 193.437V193.437C98.153 193.394 98.1302 193.353 98.1046 193.314V193.314C98.0613 193.247 98.0084 193.188 97.9477 193.137V193.137C97.8987 193.094 97.8435 193.06 97.7841 193.034C97.742 193.012 97.6952 193.001 97.6477 193.001C97.6002 193.001 97.5534 193.012 97.5113 193.034C97.1976 193.171 96.6861 193.716 97.259 194.985C97.3725 195.221 97.5024 195.449 97.6477 195.667C97.793 195.449 97.9228 195.221 98.0364 194.985C98.1973 194.665 98.2857 194.313 98.2955 193.955C98.2992 193.891 98.2992 193.828 98.2955 193.764L98.2614 193.737Z" fill="black"/>
<path opacity="0.2" d="M130.368 192.98C130.088 192.98 129.065 193.662 130.368 195.646C131.67 193.675 130.647 192.98 130.368 192.98Z" fill="black"/>
<path opacity="0.2" d="M130.368 209.347C130.088 209.347 129.065 210.029 130.368 212.013C131.67 210.042 130.647 209.347 130.368 209.347Z" fill="black"/>
<path opacity="0.2" d="M98.2614 210.104C98.2494 209.999 98.2194 209.898 98.1728 209.804V209.804C98.153 209.761 98.1302 209.72 98.1046 209.681C98.0613 209.614 98.0084 209.555 97.9477 209.504V209.504C97.8987 209.461 97.8435 209.427 97.7841 209.401C97.7422 209.379 97.6953 209.367 97.6477 209.367C97.6 209.367 97.5532 209.379 97.5113 209.401C97.1976 209.538 96.6861 210.083 97.259 211.352C97.3725 211.588 97.5024 211.816 97.6477 212.034C97.793 211.816 97.9228 211.588 98.0364 211.352C98.1973 211.032 98.2857 210.68 98.2955 210.322C98.2992 210.258 98.2992 210.195 98.2955 210.131L98.2614 210.104Z" fill="black"/>
<path opacity="0.2" d="M114.001 201.163C113.721 201.163 112.698 201.845 114.001 203.83C115.303 201.859 114.281 201.163 114.001 201.163Z" fill="black"/>
<path opacity="0.2" d="M146.735 201.163C146.455 201.163 145.432 201.845 146.735 203.83C148.037 201.859 147.015 201.163 146.735 201.163Z" fill="black"/>
<path opacity="0.2" d="M98.2614 177.37C98.2494 177.265 98.2194 177.164 98.1728 177.07V177.07C98.153 177.027 98.1302 176.986 98.1046 176.947V176.947C98.0613 176.88 98.0084 176.821 97.9477 176.77V176.77C97.8987 176.727 97.8435 176.693 97.7841 176.667C97.742 176.645 97.6952 176.634 97.6477 176.634C97.6002 176.634 97.5534 176.645 97.5113 176.667C97.1976 176.804 96.6861 177.349 97.259 178.618C97.3725 178.854 97.5024 179.082 97.6477 179.3C97.793 179.082 97.9228 178.854 98.0364 178.618C98.1973 178.298 98.2857 177.946 98.2955 177.588C98.2992 177.524 98.2992 177.461 98.2955 177.397L98.2614 177.37Z" fill="black"/>
<path opacity="0.2" d="M130.368 176.613C130.088 176.613 129.065 177.295 130.368 179.279C131.67 177.308 130.647 176.613 130.368 176.613Z" fill="black"/>
<path opacity="0.2" d="M114.001 184.796C113.721 184.796 112.698 185.478 114.001 187.463C115.303 185.492 114.281 184.796 114.001 184.796Z" fill="black"/>
<path opacity="0.2" d="M146.735 184.796C146.455 184.796 145.432 185.478 146.735 187.463C148.037 185.492 147.015 184.796 146.735 184.796Z" fill="black"/>
<path opacity="0.2" d="M114.001 168.429C113.721 168.429 112.698 169.111 114.001 171.096C115.303 169.125 114.281 168.429 114.001 168.429Z" fill="black"/>
<path opacity="0.2" d="M146.735 168.429C146.455 168.429 145.432 169.111 146.735 171.096C148.037 169.125 147.015 168.429 146.735 168.429Z" fill="black"/>
<path opacity="0.2" d="M98.3705 196.055C100.73 196.185 100.812 194.951 100.676 194.691C100.539 194.432 99.3866 193.934 98.3705 196.055Z" fill="black"/>
<path opacity="0.2" d="M131.104 196.055C133.457 196.185 133.546 194.951 133.41 194.691C133.273 194.432 132.121 193.934 131.104 196.055Z" fill="black"/>
<path opacity="0.2" d="M132.864 210.833C132.566 210.827 132.275 210.929 132.046 211.12C131.907 211.23 131.779 211.353 131.664 211.488C131.527 211.653 131.404 211.828 131.295 212.013V212.054C131.234 212.163 131.166 212.286 131.104 212.422C131.783 212.525 132.475 212.38 133.055 212.013V212.013C133.103 211.976 133.149 211.935 133.191 211.89C133.259 211.817 133.317 211.734 133.362 211.645C133.41 211.559 133.439 211.465 133.447 211.367C133.456 211.269 133.443 211.171 133.41 211.079C133.343 210.999 133.26 210.936 133.165 210.893C133.071 210.851 132.968 210.83 132.864 210.833Z" fill="black"/>
<path opacity="0.2" d="M100.13 210.833C99.8316 210.827 99.5411 210.929 99.3116 211.12C99.1726 211.23 99.0447 211.353 98.9297 211.488C98.7927 211.653 98.6695 211.828 98.5614 212.013V212.054C98.5001 212.163 98.4319 212.286 98.3705 212.422C99.0487 212.525 99.7412 212.38 100.321 212.013V212.013C100.369 211.976 100.415 211.935 100.457 211.89C100.525 211.817 100.583 211.734 100.628 211.645C100.694 211.566 100.735 211.469 100.744 211.367C100.753 211.265 100.73 211.162 100.679 211.073C100.627 210.984 100.549 210.913 100.456 210.87C100.363 210.828 100.258 210.815 100.157 210.833H100.13Z" fill="black"/>
<path opacity="0.2" d="M114.737 204.239C117.097 204.368 117.179 203.134 117.042 202.875C116.906 202.616 115.754 202.118 114.737 204.239Z" fill="black"/>
<path opacity="0.2" d="M147.471 204.239C149.824 204.368 149.913 203.134 149.776 202.875C149.64 202.616 148.488 202.118 147.471 204.239Z" fill="black"/>
<path opacity="0.2" d="M98.3705 179.688C100.73 179.818 100.812 178.584 100.676 178.324C100.539 178.065 99.3866 177.567 98.3705 179.688Z" fill="black"/>
<path opacity="0.2" d="M131.104 179.688C133.457 179.818 133.546 178.584 133.41 178.324C133.273 178.065 132.121 177.567 131.104 179.688Z" fill="black"/>
<path opacity="0.2" d="M114.737 187.872C117.097 188.001 117.179 186.767 117.042 186.508C116.906 186.249 115.754 185.751 114.737 187.872Z" fill="black"/>
<path opacity="0.2" d="M147.471 187.872C149.824 188.001 149.913 186.767 149.776 186.508C149.64 186.249 148.488 185.751 147.471 187.872Z" fill="black"/>
<path opacity="0.2" d="M114.737 171.505C117.097 171.634 117.179 170.4 117.042 170.141C116.906 169.882 115.754 169.384 114.737 171.505Z" fill="black"/>
<path opacity="0.2" d="M147.471 171.505C149.824 171.634 149.913 170.4 149.776 170.141C149.64 169.882 148.488 169.384 147.471 171.505Z" fill="black"/>
<path opacity="0.2" d="M127.354 194.712C127.217 194.951 127.306 196.185 129.659 196.076C128.615 193.934 127.497 194.466 127.354 194.712Z" fill="black"/>
<path opacity="0.2" d="M110.987 202.895C110.85 203.134 110.939 204.368 113.292 204.259C112.248 202.118 111.13 202.65 110.987 202.895Z" fill="black"/>
<path opacity="0.2" d="M160.088 194.712C159.945 194.951 160.04 196.185 162.393 196.076C161.349 193.934 160.231 194.466 160.088 194.712Z" fill="black"/>
<path opacity="0.2" d="M143.721 202.895C143.577 203.134 143.673 204.368 146.026 204.259C144.982 202.118 143.864 202.65 143.721 202.895Z" fill="black"/>
<path opacity="0.2" d="M101.501 214.059C101.501 214.059 119.232 218.608 141.504 201.334C163.777 184.06 172.424 190.872 171.511 203.148C170.597 215.423 151.509 226.791 143.325 228.155C129.87 230.399 117.868 234.068 101.501 214.059Z" fill="black"/>
<path opacity="0.2" d="M127.354 178.345C127.217 178.584 127.306 179.818 129.659 179.709C128.615 177.568 127.497 178.099 127.354 178.345Z" fill="black"/>
<path opacity="0.2" d="M110.987 186.528C110.85 186.767 110.939 188.001 113.292 187.892C112.248 185.751 111.13 186.283 110.987 186.528Z" fill="black"/>
<path opacity="0.2" d="M160.088 178.345C159.945 178.584 160.04 179.818 162.393 179.709C161.349 177.568 160.231 178.099 160.088 178.345Z" fill="black"/>
<path opacity="0.2" d="M143.721 186.528C143.577 186.767 143.673 188.001 146.026 187.892C144.982 185.751 143.864 186.283 143.721 186.528Z" fill="black"/>
<path opacity="0.2" d="M110.987 170.161C110.85 170.4 110.939 171.634 113.292 171.525C112.248 169.384 111.13 169.916 110.987 170.161Z" fill="black"/>
<path opacity="0.2" d="M143.721 170.161C143.577 170.4 143.673 171.634 146.026 171.525C144.982 169.384 143.864 169.916 143.721 170.161Z" fill="black"/>
<path opacity="0.2" d="M133.028 162.912C133.178 162.814 133.294 162.671 133.358 162.503C133.422 162.335 133.43 162.151 133.382 161.978C133.246 161.746 132.271 161.296 131.295 162.912C131.214 163.044 131.142 163.181 131.077 163.321C131.755 163.424 132.448 163.279 133.028 162.912Z" fill="black"/>
<path opacity="0.2" d="M100.294 162.912C100.444 162.814 100.56 162.671 100.624 162.503C100.687 162.335 100.696 162.151 100.648 161.978C100.512 161.746 99.5367 161.296 98.5615 162.912C98.4805 163.044 98.4076 163.181 98.3433 163.321C99.0214 163.424 99.7139 163.279 100.294 162.912Z" fill="black"/>
<path opacity="0.2" d="M98.2614 242.838C98.2494 242.733 98.2194 242.632 98.1728 242.538V242.538C98.153 242.495 98.1302 242.454 98.1046 242.415V242.415C98.0613 242.348 98.0084 242.289 97.9477 242.238V242.238C97.8987 242.195 97.8435 242.161 97.7841 242.135C97.7422 242.113 97.6953 242.101 97.6477 242.101C97.6 242.101 97.5532 242.113 97.5113 242.135C97.1976 242.272 96.6861 242.817 97.259 244.086C97.3725 244.322 97.5024 244.55 97.6477 244.768C97.793 244.55 97.9228 244.322 98.0364 244.086C98.1973 243.766 98.2857 243.414 98.2955 243.056C98.2992 242.992 98.2992 242.929 98.2955 242.865L98.2614 242.838Z" fill="black"/>
<path opacity="0.2" d="M130.368 242.081C130.088 242.081 129.065 242.763 130.368 244.747C131.67 242.776 130.647 242.081 130.368 242.081Z" fill="black"/>
<path opacity="0.2" d="M130.368 258.448C130.088 258.448 129.065 259.13 130.368 261.114C131.67 259.143 130.647 258.448 130.368 258.448Z" fill="black"/>
<path opacity="0.2" d="M98.2614 259.205C98.2494 259.1 98.2194 258.999 98.1728 258.905V258.905C98.153 258.862 98.1302 258.821 98.1046 258.782V258.782C98.0613 258.715 98.0084 258.656 97.9477 258.604V258.604C97.8987 258.562 97.8435 258.528 97.7841 258.502C97.7422 258.48 97.6953 258.468 97.6477 258.468C97.6 258.468 97.5532 258.48 97.5113 258.502C97.1976 258.639 96.6861 259.184 97.259 260.453C97.3725 260.689 97.5024 260.917 97.6477 261.135C97.793 260.917 97.9228 260.689 98.0364 260.453C98.1973 260.133 98.2857 259.781 98.2955 259.423C98.2992 259.359 98.2992 259.295 98.2955 259.232L98.2614 259.205Z" fill="black"/>
<path opacity="0.2" d="M114.001 250.264C113.721 250.264 112.698 250.946 114.001 252.931C115.303 250.96 114.281 250.264 114.001 250.264Z" fill="black"/>
<path opacity="0.2" d="M146.735 250.264C146.455 250.264 145.432 250.946 146.735 252.931C148.037 250.96 147.015 250.264 146.735 250.264Z" fill="black"/>
<path opacity="0.2" d="M98.2614 226.471C98.2494 226.366 98.2194 226.265 98.1728 226.171V226.171C98.153 226.128 98.1302 226.087 98.1046 226.048V226.048C98.0613 225.981 98.0084 225.922 97.9477 225.871V225.871C97.8987 225.828 97.8435 225.794 97.7841 225.768C97.7422 225.746 97.6953 225.734 97.6477 225.734C97.6 225.734 97.5532 225.746 97.5113 225.768C97.1976 225.905 96.6861 226.45 97.259 227.719C97.3725 227.955 97.5024 228.183 97.6477 228.401C97.793 228.183 97.9228 227.955 98.0364 227.719C98.1973 227.399 98.2857 227.047 98.2955 226.689C98.2992 226.625 98.2992 226.562 98.2955 226.498L98.2614 226.471Z" fill="black"/>
<path opacity="0.2" d="M130.368 225.714C130.088 225.714 129.065 226.396 130.368 228.38C131.67 226.409 130.647 225.714 130.368 225.714Z" fill="black"/>
<path opacity="0.2" d="M114.001 233.897C113.721 233.897 112.698 234.579 114.001 236.564C115.303 234.593 114.281 233.897 114.001 233.897Z" fill="black"/>
<path opacity="0.2" d="M146.735 233.897C146.455 233.897 145.432 234.579 146.735 236.564C148.037 234.593 147.015 233.897 146.735 233.897Z" fill="black"/>
<path opacity="0.2" d="M114.001 217.53C113.721 217.53 112.698 218.212 114.001 220.197C115.303 218.226 114.281 217.53 114.001 217.53Z" fill="black"/>
<path opacity="0.2" d="M146.735 217.53C146.455 217.53 145.432 218.212 146.735 220.197C148.037 218.226 147.015 217.53 146.735 217.53Z" fill="black"/>
<path opacity="0.2" d="M98.3705 245.156C100.73 245.286 100.812 244.052 100.676 243.792C100.539 243.533 99.3866 243.035 98.3705 245.156Z" fill="black"/>
<path opacity="0.2" d="M131.104 245.156C133.457 245.286 133.546 244.052 133.41 243.792C133.273 243.533 132.121 243.035 131.104 245.156Z" fill="black"/>
<path opacity="0.2" d="M132.864 259.934H132.721C132.545 259.947 132.374 260.001 132.223 260.091L132.046 260.214C131.742 260.462 131.488 260.765 131.295 261.107V261.107C131.214 261.239 131.142 261.376 131.077 261.516C131.755 261.619 132.448 261.474 133.028 261.107C133.178 261.009 133.294 260.866 133.358 260.698C133.422 260.53 133.43 260.346 133.382 260.173C133.318 260.098 133.239 260.038 133.149 259.997C133.06 259.956 132.962 259.934 132.864 259.934Z" fill="black"/>
<path opacity="0.2" d="M100.13 259.934H99.9868C99.8109 259.947 99.6404 260.001 99.4889 260.091L99.3116 260.214C99.0082 260.462 98.7537 260.765 98.5615 261.107V261.107C98.4805 261.239 98.4076 261.376 98.3433 261.516C99.0214 261.619 99.7139 261.474 100.294 261.107V261.107C100.444 261.009 100.56 260.866 100.624 260.698C100.687 260.53 100.696 260.346 100.648 260.173C100.584 260.098 100.505 260.038 100.415 259.997C100.326 259.956 100.228 259.934 100.13 259.934Z" fill="black"/>
<path opacity="0.2" d="M114.737 253.34C117.097 253.469 117.179 252.235 117.042 251.976C116.906 251.717 115.754 251.219 114.737 253.34Z" fill="black"/>
<path opacity="0.2" d="M147.471 253.34C149.824 253.469 149.913 252.235 149.776 251.976C149.64 251.717 148.488 251.219 147.471 253.34Z" fill="black"/>
<path opacity="0.2" d="M98.3705 228.789C100.73 228.919 100.812 227.685 100.676 227.425C100.539 227.166 99.3866 226.668 98.3705 228.789Z" fill="black"/>
<path opacity="0.2" d="M131.104 228.789C133.457 228.919 133.546 227.685 133.41 227.425C133.273 227.166 132.121 226.668 131.104 228.789Z" fill="black"/>
<path opacity="0.2" d="M114.737 236.973C117.097 237.102 117.179 235.868 117.042 235.609C116.906 235.35 115.754 234.852 114.737 236.973Z" fill="black"/>
<path opacity="0.2" d="M147.471 236.973C149.824 237.102 149.913 235.868 149.776 235.609C149.64 235.35 148.488 234.852 147.471 236.973Z" fill="black"/>
<path opacity="0.2" d="M114.737 220.606C117.097 220.735 117.179 219.501 117.042 219.242C116.906 218.983 115.754 218.485 114.737 220.606Z" fill="black"/>
<path opacity="0.2" d="M147.471 220.606C149.824 220.735 149.913 219.501 149.776 219.242C149.64 218.983 148.488 218.485 147.471 220.606Z" fill="black"/>
<path opacity="0.2" d="M127.354 243.813C127.217 244.052 127.306 245.286 129.659 245.177C128.615 243.035 127.497 243.567 127.354 243.813Z" fill="black"/>
<path opacity="0.2" d="M128.69 260.255L128.513 260.132C128.362 260.041 128.191 259.987 128.015 259.975H127.872C127.773 259.976 127.675 259.998 127.586 260.041C127.496 260.083 127.417 260.145 127.354 260.221C127.306 260.394 127.315 260.578 127.378 260.746C127.442 260.914 127.558 261.057 127.708 261.155C128.289 261.52 128.981 261.666 129.659 261.564C129.594 261.423 129.522 261.287 129.441 261.155C129.251 260.809 128.996 260.503 128.69 260.255Z" fill="black"/>
<path opacity="0.2" d="M110.987 251.996C110.85 252.235 110.939 253.469 113.292 253.36C112.248 251.219 111.13 251.751 110.987 251.996Z" fill="black"/>
<path opacity="0.2" d="M160.088 243.813C159.945 244.052 160.04 245.286 162.393 245.177C161.349 243.035 160.231 243.567 160.088 243.813Z" fill="black"/>
<path opacity="0.2" d="M162.174 261.114C161.982 260.772 161.728 260.469 161.424 260.221L161.247 260.098C161.096 260.008 160.925 259.954 160.749 259.941H160.606C160.507 259.942 160.409 259.964 160.32 260.007C160.23 260.049 160.151 260.111 160.088 260.187C160.04 260.36 160.048 260.544 160.112 260.712C160.176 260.88 160.292 261.023 160.442 261.121V261.121C161.022 261.488 161.714 261.633 162.393 261.53C162.328 261.389 162.255 261.253 162.174 261.121V261.114Z" fill="black"/>
<path opacity="0.2" d="M143.721 251.996C143.577 252.235 143.673 253.469 146.026 253.36C144.982 251.219 143.864 251.751 143.721 251.996Z" fill="black"/>
<path opacity="0.2" d="M127.354 227.446C127.217 227.685 127.306 228.919 129.659 228.81C128.615 226.668 127.497 227.2 127.354 227.446Z" fill="black"/>
<path opacity="0.2" d="M110.987 235.629C110.85 235.868 110.939 237.102 113.292 236.993C112.248 234.852 111.13 235.384 110.987 235.629Z" fill="black"/>
<path opacity="0.2" d="M160.088 227.446C159.945 227.685 160.04 228.919 162.393 228.81C161.349 226.668 160.231 227.2 160.088 227.446Z" fill="black"/>
<path opacity="0.2" d="M143.721 235.629C143.577 235.868 143.673 237.102 146.026 236.993C144.982 234.852 143.864 235.384 143.721 235.629Z" fill="black"/>
<path opacity="0.2" d="M110.987 219.262C110.85 219.501 110.939 220.735 113.292 220.626C112.248 218.485 111.13 219.017 110.987 219.262Z" fill="black"/>
<path opacity="0.2" d="M143.721 219.262C143.577 219.501 143.673 220.735 146.026 220.626C144.982 218.485 143.864 219.017 143.721 219.262Z" fill="black"/>
<path opacity="0.2" d="M129.441 212.013C129.332 211.828 129.209 211.653 129.072 211.488C128.959 211.351 128.831 211.228 128.69 211.12C128.461 210.929 128.17 210.827 127.872 210.833C127.773 210.834 127.675 210.857 127.586 210.899C127.496 210.941 127.417 211.003 127.354 211.079C127.321 211.171 127.308 211.269 127.316 211.367C127.324 211.465 127.353 211.56 127.401 211.645C127.446 211.734 127.504 211.817 127.572 211.89L127.708 212.013C128.289 212.379 128.981 212.524 129.659 212.422C129.597 212.286 129.529 212.163 129.468 212.054L129.441 212.013Z" fill="black"/>
<path opacity="0.2" d="M162.174 212.013C162.066 211.828 161.943 211.653 161.806 211.488C161.691 211.353 161.563 211.23 161.424 211.12C161.195 210.929 160.904 210.827 160.606 210.833C160.507 210.834 160.409 210.857 160.32 210.899C160.23 210.941 160.151 211.003 160.088 211.079C160.054 211.171 160.042 211.269 160.05 211.367C160.058 211.465 160.087 211.56 160.135 211.645C160.18 211.734 160.238 211.817 160.306 211.89C160.348 211.935 160.394 211.976 160.442 212.013V212.013C161.022 212.38 161.714 212.525 162.393 212.422C162.331 212.286 162.263 212.163 162.202 212.054C162.19 212.042 162.181 212.028 162.174 212.013V212.013Z" fill="black"/>
<path opacity="0.2" d="M114.001 266.631C113.721 266.631 112.698 267.313 114.001 269.298C115.303 267.327 114.281 266.631 114.001 266.631Z" fill="black"/>
<path opacity="0.2" d="M146.735 266.631C146.455 266.631 145.432 267.313 146.735 269.298C148.037 267.327 147.015 266.631 146.735 266.631Z" fill="black"/>
<path opacity="0.2" d="M114.737 269.707C117.097 269.836 117.179 268.602 117.042 268.343C116.906 268.084 115.754 267.586 114.737 269.707Z" fill="black"/>
<path opacity="0.2" d="M147.471 269.707C149.824 269.836 149.913 268.602 149.776 268.343C149.64 268.084 148.488 267.586 147.471 269.707Z" fill="black"/>
<path opacity="0.2" d="M110.987 268.363C110.85 268.602 110.939 269.836 113.292 269.727C112.248 267.586 111.13 268.118 110.987 268.363Z" fill="black"/>
<path opacity="0.2" d="M143.721 268.363C143.577 268.602 143.673 269.836 146.026 269.727C144.982 267.586 143.864 268.118 143.721 268.363Z" fill="black"/>
<path opacity="0.2" d="M64.9 160.246C64.6204 160.246 63.5974 160.928 64.9 162.912C66.2025 160.941 65.1796 160.246 64.9 160.246Z" fill="black"/>
<path opacity="0.2" d="M81.2669 152.062C80.9873 152.062 79.9644 152.744 81.2669 154.729C82.5695 152.758 81.5465 152.062 81.2669 152.062Z" fill="black"/>
<path opacity="0.2" d="M81.867 136.323L80.619 136.643C80.6607 137.267 80.8861 137.865 81.2669 138.362C81.9011 137.407 82.0034 136.745 81.867 136.323Z" fill="black"/>
<path opacity="0.2" d="M65.6365 146.954C67.9892 147.084 68.0779 145.85 67.9415 145.59C67.8051 145.331 66.6526 144.834 65.6365 146.954Z" fill="black"/>
<path opacity="0.2" d="M82.0034 155.138C84.3562 155.267 84.4448 154.033 84.3084 153.774C84.172 153.515 83.0195 153.017 82.0034 155.138Z" fill="black"/>
<path opacity="0.2" d="M82.0034 138.771C84.3562 138.901 84.4448 137.666 84.3084 137.407C84.172 137.148 83.0195 136.65 82.0034 138.771Z" fill="black"/>
<path opacity="0.2" d="M61.8857 161.978C61.8379 162.151 61.8465 162.335 61.9103 162.503C61.974 162.671 62.0896 162.814 62.2403 162.912V162.912C62.8205 163.278 63.5126 163.423 64.1907 163.321C64.1264 163.181 64.0535 163.044 63.9725 162.912C62.9973 161.275 62.0221 161.746 61.8857 161.978Z" fill="black"/>
<path opacity="0.2" d="M94.6197 145.611C94.4765 145.85 94.572 147.084 96.9247 146.975C95.8813 144.834 94.7629 145.365 94.6197 145.611Z" fill="black"/>
<path opacity="0.2" d="M96.7065 162.912C95.7313 161.275 94.7561 161.746 94.6197 161.978C94.5719 162.151 94.5805 162.335 94.6443 162.503C94.708 162.671 94.8236 162.814 94.9744 162.912C95.5541 163.279 96.2466 163.424 96.9248 163.321C96.8604 163.181 96.7875 163.044 96.7065 162.912V162.912Z" fill="black"/>
<path opacity="0.2" d="M78.2528 153.794C78.1096 154.033 78.205 155.267 80.5578 155.158C79.5144 153.017 78.396 153.549 78.2528 153.794Z" fill="black"/>
<path opacity="0.2" d="M78.7506 137.189L78.396 137.298C78.3394 137.33 78.2906 137.374 78.2528 137.427C78.1096 137.666 78.205 138.9 80.5578 138.791C79.8963 137.421 79.2075 137.148 78.7506 137.189Z" fill="black"/>
<path opacity="0.2" d="M32.1661 192.98C31.8865 192.98 30.8636 193.662 32.1661 195.646C33.4686 193.675 32.4457 192.98 32.1661 192.98Z" fill="black"/>
<path opacity="0.2" d="M48.5329 201.163C48.2533 201.163 47.2304 201.845 48.5329 203.83C49.8354 201.859 48.8125 201.163 48.5329 201.163Z" fill="black"/>
<path opacity="0.2" d="M64.9 176.613C64.6204 176.613 63.5974 177.295 64.9 179.279C66.2025 177.308 65.1796 176.613 64.9 176.613Z" fill="black"/>
<path opacity="0.2" d="M48.5329 184.796C48.2533 184.796 47.2304 185.478 48.5329 187.463C49.8354 185.492 48.8125 184.796 48.5329 184.796Z" fill="black"/>
<path opacity="0.2" d="M81.2669 184.796C80.9873 184.796 79.9644 185.478 81.2669 187.463C82.5695 185.492 81.5465 184.796 81.2669 184.796Z" fill="black"/>
<path opacity="0.2" d="M48.5329 168.429C48.2533 168.429 47.2304 169.111 48.5329 171.096C49.8354 169.125 48.8125 168.429 48.5329 168.429Z" fill="black"/>
<path opacity="0.2" d="M81.2669 168.429C80.9873 168.429 79.9644 169.111 81.2669 171.096C82.5695 169.125 81.5465 168.429 81.2669 168.429Z" fill="black"/>
<path opacity="0.2" d="M32.9025 196.055C35.262 196.185 35.3507 194.951 35.2075 194.691C35.0643 194.432 33.9186 193.934 32.9025 196.055Z" fill="black"/>
<path opacity="0.2" d="M49.6447 203.543C50.2516 203.318 50.8449 203.066 51.4314 202.779C51.145 202.589 50.4084 202.459 49.6447 203.543Z" fill="black"/>
<path opacity="0.2" d="M35.1803 178.345C35.0998 178.242 34.9868 178.17 34.8597 178.14C34.4369 178.679 34.0346 179.191 33.6868 179.675C35.2485 179.511 35.303 178.556 35.1803 178.345Z" fill="black"/>
<path opacity="0.2" d="M65.6365 179.688C67.9892 179.818 68.0779 178.584 67.9415 178.324C67.8051 178.065 66.6526 177.567 65.6365 179.688Z" fill="black"/>
<path opacity="0.2" d="M49.2695 187.872C51.6291 188.001 51.7109 186.767 51.5745 186.508C51.4382 186.249 50.2856 185.751 49.2695 187.872Z" fill="black"/>
<path opacity="0.2" d="M82.0034 187.872C84.3562 188.001 84.4448 186.767 84.3084 186.508C84.172 186.249 83.0195 185.751 82.0034 187.872Z" fill="black"/>
<path opacity="0.2" d="M49.2695 171.505C51.6291 171.634 51.7109 170.4 51.5745 170.141C51.4382 169.882 50.2856 169.384 49.2695 171.505Z" fill="black"/>
<path opacity="0.2" d="M82.0034 171.505C84.3562 171.634 84.4448 170.4 84.3084 170.141C84.172 169.882 83.0195 169.384 82.0034 171.505Z" fill="black"/>
<path opacity="0.2" d="M45.5188 202.895C45.3892 203.114 45.4574 204.15 47.2509 204.259L47.7624 204.143C46.7395 202.145 45.662 202.657 45.5188 202.895Z" fill="black"/>
<path opacity="0.2" d="M94.6197 194.712C94.4765 194.951 94.572 196.185 96.9247 196.076C95.8813 193.934 94.7629 194.466 94.6197 194.712Z" fill="black"/>
<path opacity="0.2" d="M61.8857 178.345C61.7493 178.584 61.838 179.818 64.1907 179.709C63.1474 177.568 62.0289 178.099 61.8857 178.345Z" fill="black"/>
<path opacity="0.2" d="M45.5188 186.528C45.3824 186.767 45.4711 188.001 47.8238 187.892C46.7804 185.751 45.662 186.283 45.5188 186.528Z" fill="black"/>
<path opacity="0.2" d="M94.6197 178.345C94.4765 178.584 94.572 179.818 96.9247 179.709C95.8813 177.568 94.7629 178.099 94.6197 178.345Z" fill="black"/>
<path opacity="0.2" d="M45.5188 170.161C45.3824 170.4 45.4711 171.634 47.8238 171.525C46.7804 169.384 45.662 169.916 45.5188 170.161Z" fill="black"/>
<path opacity="0.2" d="M78.2528 170.161C78.1096 170.4 78.205 171.634 80.5578 171.525C79.5144 169.384 78.396 169.916 78.2528 170.161Z" fill="black"/>
<path opacity="0.2" d="M67.5597 162.912C67.7104 162.814 67.826 162.671 67.8897 162.503C67.9535 162.335 67.9621 162.151 67.9143 161.978C67.7779 161.746 66.8027 161.296 65.8275 162.912C65.7465 163.044 65.6736 163.181 65.6093 163.321C66.2874 163.424 66.9799 163.279 67.5597 162.912V162.912Z" fill="black"/>
<path opacity="0.2" d="M81.2669 250.264C80.9873 250.264 79.9644 250.946 81.2669 252.931C82.5695 250.96 81.5465 250.264 81.2669 250.264Z" fill="black"/>
<path opacity="0.2" d="M81.7921 235.527L81.2192 236.489L81.267 236.564C81.4876 236.243 81.6642 235.894 81.7921 235.527V235.527Z" fill="black"/>
<path opacity="0.2" d="M82.0034 253.34C84.3562 253.469 84.4448 252.235 84.3084 251.976C84.172 251.717 83.0195 251.219 82.0034 253.34Z" fill="black"/>
<path opacity="0.2" d="M82.0034 236.973C84.3562 237.102 84.4448 235.868 84.3084 235.609C84.172 235.35 83.0195 234.852 82.0034 236.973Z" fill="black"/>
<path opacity="0.2" d="M94.6197 243.813C94.4765 244.052 94.572 245.286 96.9247 245.177C95.8813 243.035 94.7629 243.567 94.6197 243.813Z" fill="black"/>
<path opacity="0.2" d="M96.7065 261.114C96.5143 260.772 96.2599 260.469 95.9564 260.221L95.7791 260.098C95.6276 260.008 95.4571 259.954 95.2812 259.941H95.138C95.039 259.942 94.9413 259.964 94.8518 260.007C94.7623 260.049 94.6831 260.111 94.6197 260.187C94.5719 260.36 94.5805 260.544 94.6443 260.712C94.708 260.88 94.8236 261.023 94.9744 261.121C95.5541 261.488 96.2466 261.633 96.9248 261.53C96.8604 261.389 96.7875 261.253 96.7065 261.121V261.114Z" fill="black"/>
<path opacity="0.2" d="M78.2528 251.996C78.1096 252.235 78.205 253.469 80.5578 253.36C79.5144 251.219 78.396 251.751 78.2528 251.996Z" fill="black"/>
<path opacity="0.2" d="M94.6197 227.446C94.4765 227.685 94.572 228.919 96.9247 228.81C95.8813 226.668 94.7629 227.2 94.6197 227.446Z" fill="black"/>
<path opacity="0.2" d="M96.7065 212.013C96.5985 211.828 96.4753 211.653 96.3383 211.488C96.2233 211.353 96.0954 211.23 95.9564 211.12C95.7269 210.929 95.4364 210.827 95.138 210.833C95.039 210.834 94.9413 210.857 94.8518 210.899C94.7623 210.941 94.6831 211.003 94.6197 211.079C94.5866 211.171 94.5736 211.269 94.5819 211.367C94.5901 211.465 94.6193 211.56 94.6675 211.645C94.7125 211.734 94.7699 211.817 94.838 211.89C94.8803 211.935 94.9259 211.976 94.9744 212.013V212.013C95.5541 212.38 96.2466 212.525 96.9248 212.422C96.8634 212.286 96.7952 212.163 96.7338 212.054L96.7065 212.013Z" fill="black"/>
<path opacity="0.2" d="M81.2669 266.631C80.9873 266.631 79.9644 267.313 81.2669 269.298C82.5695 267.327 81.5465 266.631 81.2669 266.631Z" fill="black"/>
<path opacity="0.2" d="M82.0034 269.707C84.3562 269.836 84.4448 268.602 84.3084 268.343C84.172 268.084 83.0195 267.586 82.0034 269.707Z" fill="black"/>
<path opacity="0.2" d="M78.2528 268.363C78.1096 268.602 78.205 269.836 80.5578 269.727C79.5144 267.586 78.396 268.118 78.2528 268.363Z" fill="black"/>
<path opacity="0.2" d="M30.5634 194.821C30.6988 195.243 30.8559 195.657 31.0339 196.062H31.4567C31.2496 195.59 30.9452 195.167 30.5634 194.821V194.821Z" fill="black"/>
</g>
<path d="M189.903 269.98C189.903 269.98 191.123 253.237 183.765 236.489C176.407 219.74 174.75 218.533 174.75 213.629C174.75 208.726 179.673 203.004 180.492 191.977C181.31 180.95 180.901 175.61 180.901 175.61C180.901 175.61 198.461 203.38 210.716 205.016C222.971 206.653 230.322 195.217 225.828 179.695C221.334 164.174 201.728 151.517 193.974 141.301C186.22 131.085 168.646 131.072 159.665 131.072C150.683 131.072 146.189 127.805 144.553 121.681C142.916 115.557 142.923 103.268 142.923 103.268C142.923 103.268 132.298 109.801 114.328 102.45C114.328 102.45 115.965 124.914 113.919 128.18C111.873 131.447 109.036 134.775 96.7814 134.775C84.5266 134.775 74.3177 137.23 68.6029 142.958C62.8881 148.687 39.1969 171.546 33.0729 180.534C26.9489 189.522 30.2087 199.322 37.5602 202.998C44.9117 206.673 52.2632 203.4 57.5757 198.504C62.8881 193.607 79.6302 178.079 79.6302 178.079C79.6302 178.079 79.6302 187.476 84.1243 200.952C88.6184 214.427 92.3078 212.797 89.0207 222.597C85.7337 232.397 79.221 235.261 77.1819 247.918C75.9606 255.204 75.4127 262.587 75.5452 269.973" stroke="#263238" stroke-width="0.0549815" stroke-linecap="round" stroke-linejoin="round"/>
<path d="M79.6301 178.086C79.9651 173.669 80.8705 169.313 82.3239 165.129Z" fill="white"/>
<path d="M79.6301 178.086C79.9651 173.669 80.8705 169.313 82.3239 165.129" stroke="#263238" stroke-width="0.0549815" stroke-linecap="round" stroke-linejoin="round"/>
<path d="M180.887 175.638C179.988 172.248 178.738 168.961 177.157 165.831" stroke="#263238" stroke-width="0.0549815" stroke-linecap="round" stroke-linejoin="round"/>
<path d="M120.895 220.906L146.619 212.661" stroke="#263238" stroke-width="0.0549815" stroke-linecap="round" stroke-linejoin="round"/>
<path d="M132.543 214.114C138.553 211.695 144.824 209.986 151.229 209.019" stroke="#263238" stroke-width="0.0549815" stroke-linecap="round" stroke-linejoin="round"/>
<path d="M125.369 162.162C145.746 166.09 153.609 146.559 156.344 130.949C149.558 130.199 145.985 127.041 144.566 121.729C142.936 115.591 142.936 103.316 142.936 103.316C142.936 103.316 132.311 109.849 114.342 102.498C114.342 102.498 115.979 124.961 113.933 128.228C112.514 130.506 110.687 132.783 105.572 133.949C105.388 140.96 106.799 158.575 125.369 162.162Z" fill="#B2B2B2"/>
<path opacity="0.2" d="M144.123 119.71C142.936 113.259 142.936 103.343 142.936 103.343C142.936 103.343 132.311 109.876 114.342 102.525C114.342 102.525 115.024 111.915 114.956 119.437C130.422 124.811 139.37 122.533 144.123 119.71Z" fill="black"/>
<path d="M125.369 162.162C145.746 166.09 153.609 146.559 156.344 130.949C149.558 130.199 145.985 127.041 144.566 121.729C142.936 115.591 142.936 103.316 142.936 103.316C142.936 103.316 132.311 109.849 114.342 102.498C114.342 102.498 115.979 124.961 113.933 128.228C112.514 130.506 110.687 132.783 105.572 133.949C105.388 140.96 106.799 158.575 125.369 162.162Z" stroke="#263238" stroke-width="0.0549815" stroke-linecap="round" stroke-linejoin="round"/>
<path d="M156.18 95.5144C158.975 95.5144 161.24 93.2489 161.24 90.4542C161.24 87.6596 158.975 85.3941 156.18 85.3941C153.385 85.3941 151.12 87.6596 151.12 90.4542C151.12 93.2489 153.385 95.5144 156.18 95.5144Z" fill="#92E3A9" stroke="#263238" stroke-width="0.0549815" stroke-linecap="round" stroke-linejoin="round"/>
<path d="M102.128 95.5144C104.923 95.5144 107.188 93.2489 107.188 90.4542C107.188 87.6596 104.923 85.3941 102.128 85.3941C99.3332 85.3941 97.0677 87.6596 97.0677 90.4542C97.0677 93.2489 99.3332 95.5144 102.128 95.5144Z" fill="#92E3A9" stroke="#263238" stroke-width="0.0549815" stroke-linecap="round" stroke-linejoin="round"/>
<path d="M155.716 73.2075C155.716 73.2075 158.246 65.3855 161.24 68.1474C164.234 70.9093 160.319 81.4865 158.246 84.0166C156.173 86.5466 154.107 86.5466 154.339 83.0959C154.57 79.6452 155.716 73.2075 155.716 73.2075Z" fill="#B2B2B2" stroke="#263238" stroke-width="0.0549815" stroke-linecap="round" stroke-linejoin="round"/>
<path d="M103.41 81.0773C103.41 81.0773 104.092 99.347 117.54 108.308C130.988 117.269 140.979 112.1 146.496 104.516C152.013 96.9328 155.464 89.3495 155.464 78.3222C155.464 67.295 156.828 62.4599 153.05 55.5653C149.272 48.6707 136.158 45.2268 136.158 45.2268C130.71 52.0259 124.838 58.4741 118.577 64.533C108.231 74.5237 103.41 81.0773 103.41 81.0773Z" fill="#B2B2B2"/>
<path opacity="0.2" d="M136.158 45.2267C130.71 52.0258 124.838 58.4741 118.577 64.533C108.232 74.5236 103.41 81.0773 103.41 81.0773C103.66 84.637 104.363 88.1503 105.504 91.5317C123.671 77.6334 133.594 52.6601 136.233 45.2472L136.158 45.2267Z" fill="black"/>
<path d="M103.41 81.0773C103.41 81.0773 104.092 99.347 117.54 108.308C130.988 117.269 140.979 112.1 146.496 104.516C152.013 96.9328 155.464 89.3495 155.464 78.3222C155.464 67.295 156.828 62.4599 153.05 55.5653C149.272 48.6707 136.158 45.2268 136.158 45.2268C130.71 52.0259 124.838 58.4741 118.577 64.533C108.231 74.5237 103.41 81.0773 103.41 81.0773Z" stroke="#263238" stroke-width="0.0549815" stroke-linecap="round" stroke-linejoin="round"/>
<path d="M116.128 78.9291L123.869 79.652" stroke="#263238" stroke-width="0.0549815" stroke-linecap="round" stroke-linejoin="round"/>
<path d="M139.588 78.6836C139.588 78.6836 144.668 77.7152 147.089 78.6836" stroke="#263238" stroke-width="0.0549815" stroke-linecap="round" stroke-linejoin="round"/>
<path d="M122.825 75.3898C122.825 77.2311 122 78.7245 120.984 78.7245C119.968 78.7245 119.15 77.2311 119.15 75.3898C119.15 73.5485 119.968 72.055 120.984 72.055C122 72.055 122.825 73.5485 122.825 75.3898Z" fill="#263238"/>
<path d="M126.965 87.0376C128.2 87.8124 129.653 88.1648 131.106 88.0418C132.558 87.9188 133.932 87.327 135.019 86.3557" stroke="#263238" stroke-width="0.0549815" stroke-linecap="round" stroke-linejoin="round"/>
<path d="M129.058 94.8256C129.058 94.8256 136.185 97.8193 140.324 88.156" stroke="#263238" stroke-width="0.0549815" stroke-linecap="round" stroke-linejoin="round"/>
<path d="M138.238 75.5057C138.238 75.5057 142.609 72.5119 146.98 74.3532" stroke="#263238" stroke-width="0.109963" stroke-linecap="round" stroke-linejoin="round"/>
<path d="M136.86 67.9428C136.86 67.9428 141.688 63.1145 148.358 67.0222" stroke="#263238" stroke-width="0.109963" stroke-linecap="round" stroke-linejoin="round"/>
<path d="M126.508 64.9217C126.508 64.9217 122.368 60.7823 116.613 64.6967" stroke="#263238" stroke-width="0.109963" stroke-linecap="round" stroke-linejoin="round"/>
<path d="M33.0729 180.541C33.0729 180.541 25.7214 188.724 25.7214 197.283C25.7214 205.841 30.6179 213.65 44.1343 225.871C57.6507 238.091 70.2669 247.107 75.5794 249.971C80.8918 252.835 86.1974 249.153 86.1974 249.153C86.1974 249.153 94.9811 257.929 95.9972 255.89C97.0133 253.851 92.9352 250.782 92.1168 249.562C91.3986 248.592 90.5777 247.703 89.6686 246.909C89.6686 246.909 93.9581 247.516 95.5948 248.955C97.2315 250.394 99.8775 252.835 101.105 252.631C102.333 252.426 102.333 251.403 100.491 248.955C99.0069 247.038 97.2139 245.38 95.1856 244.052C93.9581 243.24 89.8732 240.99 89.8732 240.99C89.8732 240.99 95.7926 240.58 97.8385 241.808C99.8843 243.035 105.395 246.711 105.804 245.074C106.213 243.438 106.213 242.422 104.167 240.58C102.121 238.739 98.0294 236.489 95.5948 236.086C93.9165 235.778 92.2738 235.3 90.6916 234.661C90.6916 234.661 95.3902 233.024 97.0201 233.024C98.65 233.024 105.204 236.291 107.024 235.889C108.845 235.486 107.843 233.843 106.417 232.82C104.992 231.797 98.6568 229.349 95.9972 229.144C93.3375 228.939 78.4368 234.047 76.6023 234.047C74.7678 234.047 70.0691 227.514 65.1659 218.73C60.2626 209.947 58.4281 196.267 48.0146 191.575" fill="#92E3A9"/>
<g opacity="0.2">
<path opacity="0.2" d="M32.1659 195.646C33.4684 193.675 32.4455 192.98 32.1659 192.98C32.4455 192.98 33.4684 193.675 32.1659 195.646Z" fill="black"/>
<path opacity="0.2" d="M32.1659 209.347C32.4455 209.347 33.4684 210.029 32.1659 212.013C33.4684 210.042 32.4455 209.347 32.1659 209.347Z" fill="black"/>
<path opacity="0.2" d="M48.5329 201.163C48.2533 201.163 47.2304 201.845 48.5329 203.83C49.8354 201.859 48.8125 201.163 48.5329 201.163Z" fill="black"/>
<path opacity="0.2" d="M35.1801 194.712C35.0369 194.466 33.9185 193.934 32.8751 196.076C35.2347 196.185 35.3233 194.951 35.1801 194.712Z" fill="black"/>
<path opacity="0.2" d="M34.9483 211.89C35.0164 211.817 35.0738 211.734 35.1188 211.645C35.1853 211.567 35.2259 211.47 35.235 211.367C35.2442 211.265 35.2214 211.162 35.1698 211.073C35.1183 210.984 35.0405 210.913 34.9471 210.87C34.8537 210.828 34.7493 210.815 34.6482 210.833C34.3499 210.827 34.0593 210.929 33.8299 211.12C33.6909 211.23 33.563 211.353 33.448 211.488C33.311 211.653 33.1878 211.828 33.0797 212.013H34.8119C34.8603 211.976 34.9059 211.935 34.9483 211.89V211.89Z" fill="black"/>
<path opacity="0.2" d="M51.5471 202.895C51.4039 202.65 50.2855 202.118 49.2421 204.259C51.6016 204.368 51.6835 203.134 51.5471 202.895Z" fill="black"/>
<path opacity="0.2" d="M47.8237 204.239C46.7803 202.118 45.6619 202.65 45.5186 202.875C45.3754 203.1 45.4709 204.368 47.8237 204.239Z" fill="black"/>
<path opacity="0.2" d="M32.1659 192.98V195.646C33.4684 193.675 32.4455 192.98 32.1659 192.98Z" fill="black"/>
<path opacity="0.2" d="M32.1659 209.347V212.013C33.4684 210.042 32.4455 209.347 32.1659 209.347Z" fill="black"/>
<path opacity="0.2" d="M64.8998 242.081C64.7789 242.106 64.6662 242.16 64.5721 242.24C64.478 242.32 64.4054 242.422 64.3611 242.538L65.5136 243.383C65.6841 242.442 65.1044 242.081 64.8998 242.081Z" fill="black"/>
<path opacity="0.2" d="M81.2669 250.264C81.095 250.306 80.9412 250.403 80.8282 250.539C80.7152 250.675 80.6491 250.844 80.6395 251.021C81.0491 250.989 81.4566 250.934 81.8602 250.857C81.8277 250.713 81.7546 250.58 81.6496 250.475C81.5446 250.37 81.4119 250.297 81.2669 250.264V250.264Z" fill="black"/>
<path opacity="0.2" d="M64.9 225.714C64.6204 225.714 63.5974 226.396 64.9 228.38C66.2025 226.409 65.1796 225.714 64.9 225.714Z" fill="black"/>
<path opacity="0.2" d="M81.2669 236.564C82.5694 234.593 81.5465 233.897 81.2669 233.897C80.9873 233.897 79.9575 234.593 81.2669 236.564Z" fill="black"/>
<path opacity="0.2" d="M48.5329 220.197C49.8354 218.226 48.8125 217.53 48.5329 217.53C48.2533 217.53 47.2235 218.226 48.5329 220.197Z" fill="black"/>
<path opacity="0.2" d="M67.9142 243.813C67.8051 243.629 67.1504 243.281 66.3934 244.011C66.7617 244.283 67.1299 244.543 67.4914 244.795C67.6624 244.703 67.7973 244.556 67.8741 244.378C67.9509 244.199 67.965 244 67.9142 243.813V243.813Z" fill="black"/>
<path opacity="0.2" d="M65.6365 228.789C67.9892 228.919 68.0779 227.685 67.9415 227.425C67.8051 227.166 66.6526 226.668 65.6365 228.789Z" fill="black"/>
<path opacity="0.2" d="M82.0033 236.973C84.356 237.102 84.4447 235.868 84.3083 235.609C84.1719 235.35 83.0194 234.852 82.0033 236.973Z" fill="black"/>
<path opacity="0.2" d="M49.2695 220.606C51.6291 220.735 51.7109 219.501 51.5745 219.242C51.4382 218.983 50.2856 218.485 49.2695 220.606Z" fill="black"/>
<path opacity="0.2" d="M96.686 245.163C96.0995 244.699 95.5608 244.324 95.1516 244.045L94.6742 243.745L94.6197 243.813C94.4833 244.045 94.5719 245.197 96.686 245.163Z" fill="black"/>
<path opacity="0.2" d="M64.1907 228.789C63.1473 226.668 62.0289 227.2 61.8857 227.425C61.7425 227.65 61.838 228.919 64.1907 228.789Z" fill="black"/>
<path opacity="0.2" d="M78.2526 235.629C78.1094 235.868 78.2049 237.102 80.5577 236.993C79.5143 234.852 78.3959 235.384 78.2526 235.629Z" fill="black"/>
<path opacity="0.2" d="M45.5187 219.262C45.3823 219.501 45.4709 220.735 47.8237 220.626C46.7803 218.485 45.6619 219.017 45.5187 219.262Z" fill="black"/>
<path opacity="0.2" d="M34.8256 212.013H33.0934C33.0954 212.027 33.0954 212.041 33.0934 212.054C33.032 212.163 32.9638 212.286 32.9025 212.422C33.5717 212.518 34.2534 212.373 34.8256 212.013Z" fill="black"/>
<path opacity="0.2" d="M32.1661 192.98C31.8865 192.98 30.8636 193.662 32.1661 195.646V192.98Z" fill="black"/>
<path opacity="0.2" d="M32.1659 212.013V209.347C31.8863 209.347 30.8566 210.042 32.1659 212.013Z" fill="black"/>
<path opacity="0.2" d="M31.4567 196.055C30.4133 193.934 29.2949 194.466 29.1517 194.691C29.0085 194.916 29.104 196.185 31.4567 196.055Z" fill="black"/>
<path opacity="0.2" d="M30.8566 211.488C30.7416 211.353 30.6137 211.23 30.4747 211.12L30.427 211.086C30.6384 211.393 30.8498 211.706 31.109 212.013H31.259C31.14 211.827 31.0054 211.651 30.8566 211.488V211.488Z" fill="black"/>
<path opacity="0.2" d="M31.2658 212.054C31.2638 212.041 31.2638 212.027 31.2658 212.013H31.1157L31.4158 212.422H31.484C31.3953 212.286 31.3271 212.163 31.2658 212.054Z" fill="black"/>
</g>
<path d="M33.0729 180.541C33.0729 180.541 25.7214 188.724 25.7214 197.283C25.7214 205.841 30.6179 213.65 44.1343 225.871C57.6507 238.091 70.2669 247.107 75.5794 249.971C80.8918 252.835 86.1974 249.153 86.1974 249.153C86.1974 249.153 94.9811 257.929 95.9972 255.89C97.0133 253.851 92.9352 250.782 92.1168 249.562C91.3986 248.592 90.5777 247.703 89.6686 246.909C89.6686 246.909 93.9581 247.516 95.5948 248.955C97.2315 250.394 99.8775 252.835 101.105 252.631C102.333 252.426 102.333 251.403 100.491 248.955C99.0069 247.038 97.2139 245.38 95.1856 244.052C93.9581 243.24 89.8732 240.99 89.8732 240.99C89.8732 240.99 95.7926 240.58 97.8385 241.808C99.8843 243.035 105.395 246.711 105.804 245.074C106.213 243.438 106.213 242.422 104.167 240.58C102.121 238.739 98.0294 236.489 95.5948 236.086C93.9165 235.778 92.2738 235.3 90.6916 234.661C90.6916 234.661 95.3902 233.024 97.0201 233.024C98.65 233.024 105.204 236.291 107.024 235.889C108.845 235.486 107.843 233.843 106.417 232.82C104.992 231.797 98.6568 229.349 95.9972 229.144C93.3375 228.939 78.4368 234.047 76.6023 234.047C74.7678 234.047 70.0691 227.514 65.1659 218.73C60.2626 209.947 58.4281 196.267 48.0146 191.575" stroke="#263238" stroke-width="0.0549815" stroke-linecap="round" stroke-linejoin="round"/>
<path d="M106.383 232.813C104.951 231.797 98.6227 229.342 95.963 229.137C93.3034 228.933 78.4026 234.04 76.5682 234.04C74.7337 234.04 70.035 227.507 65.1317 218.724C62.4039 213.848 60.6308 207.458 57.8007 201.941C42.7976 199.895 36.3668 208.665 33.3934 214.973C36.7039 218.855 40.2816 222.501 44.1002 225.884C57.5756 238.159 70.2328 247.12 75.5452 249.985C80.8577 252.849 86.1633 249.166 86.1633 249.166C86.1633 249.166 94.9469 257.943 95.963 255.904C96.9792 253.865 92.9011 250.796 92.0827 249.575C91.3644 248.606 90.5436 247.716 89.6345 246.923C89.6345 246.923 93.924 247.53 95.5607 248.968C97.1974 250.407 99.8434 252.849 101.071 252.644C102.298 252.44 102.298 251.417 100.457 248.968C98.9727 247.051 97.1797 245.394 95.1515 244.065C93.924 243.254 89.8391 241.003 89.8391 241.003C89.8391 241.003 95.7585 240.594 97.8043 241.822C99.8502 243.049 105.36 246.725 105.77 245.088C106.179 243.451 106.179 242.435 104.133 240.594C102.087 238.753 97.9953 236.502 95.5607 236.1C93.8824 235.791 92.2396 235.314 90.6574 234.675C90.6574 234.675 95.3561 233.038 96.986 233.038C98.6159 233.038 105.169 236.305 106.99 235.902C108.811 235.5 107.809 233.836 106.383 232.813Z" fill="#B2B2B2" stroke="#263238" stroke-width="0.0549815" stroke-linecap="round" stroke-linejoin="round"/>
<path d="M195.045 188.206C193.34 184.312 194.799 175.788 196.504 163.615C198.209 151.442 199.914 139.023 199.914 132.449C199.914 125.875 200.998 116.764 198.857 113.825C196.716 110.886 188.921 102.914 188.341 99.2174C187.761 95.5212 193.012 89.8677 193.012 89.8677C193.012 89.8677 194.574 86.9421 195.938 88.5038C197.302 90.0655 196.716 92.0091 195.938 94.7369C195.161 97.4647 194.376 99.6061 194.376 99.6061C194.376 99.6061 201.196 101.747 202.949 100.581C204.701 99.4151 204.544 92.7456 204.422 89.479C204.169 83.1095 201.619 85.8305 199.853 88.8448C199 90.2905 194.008 89.4313 196.927 85.7283C199.846 82.0252 202.56 78.7586 205.288 81.6842C208.016 84.6098 209.959 90.2565 209.959 90.2565C209.959 90.2565 211.91 80.975 213.683 75.5193C215.456 70.0637 218.634 67.9019 219.779 68.2838C220.925 68.6657 220.795 70.5683 219.65 73.2348C218.504 75.9012 215.967 83.2596 215.333 85.6737C214.699 88.0878 214.576 90.877 215.844 90.6247C217.113 90.3724 221.552 82.6253 222.828 79.3247C224.103 76.024 225.999 72.9825 228.154 71.5845C230.309 70.1864 232.089 71.9663 231.202 74.2509C229.441 78.3823 227.442 82.4081 225.215 86.3079C223.814 88.8283 222.626 91.4607 221.662 94.1777C223.752 91.9501 225.956 89.831 228.263 87.8287C231.311 85.2918 234.612 84.7872 235.621 85.6737C236.631 86.5602 235.751 86.6898 233.214 88.722C230.677 90.7543 226.885 93.1752 223.851 98.1126C221.5 101.733 219.664 105.662 218.395 109.788C217.452 112.496 216.217 115.093 214.712 117.535C214.712 117.535 217.092 136.861 221.218 147.493C225.344 158.125 232.641 173.673 230.418 184.783C228.195 195.892 223.912 201.6 217.883 203.345C216.136 203.856 214.292 203.95 212.502 203.619C210.711 203.289 209.023 202.543 207.572 201.443" fill="#92E3A9"/>
<g opacity="0.2">
<path opacity="0.2" d="M228.57 78.4108C228.693 78.4378 228.807 78.4949 228.902 78.577C228.997 78.6592 229.071 78.7638 229.115 78.8814C229.072 78.7628 228.999 78.6572 228.904 78.5748C228.808 78.4924 228.693 78.436 228.57 78.4108Z" fill="black"/>
<path opacity="0.2" d="M228.57 78.4108V80.0066L229.115 78.8814C229.071 78.7638 228.997 78.6592 228.902 78.577C228.807 78.4949 228.693 78.4378 228.57 78.4108V78.4108Z" fill="black"/>
<path opacity="0.2" d="M228.57 179.279C229.872 177.308 228.849 176.613 228.57 176.613C228.849 176.613 229.872 177.308 228.57 179.279Z" fill="black"/>
<path opacity="0.2" d="M230.8 179.511C230.8 179.056 230.779 178.602 230.738 178.147C230.315 178.256 229.783 178.659 229.279 179.695C229.793 179.74 230.311 179.678 230.8 179.511V179.511Z" fill="black"/>
<path opacity="0.2" d="M228.57 176.613V179.279C229.872 177.308 228.849 176.613 228.57 176.613Z" fill="black"/>
<path opacity="0.2" d="M195.836 94.7778C195.597 94.7778 194.847 95.2757 195.379 96.5918C195.549 96.0394 195.733 95.4325 195.917 94.7915L195.836 94.7778Z" fill="black"/>
<path opacity="0.2" d="M212.203 105.628C213.505 103.657 212.482 102.961 212.203 102.961C211.923 102.961 210.893 103.657 212.203 105.628Z" fill="black"/>
<path opacity="0.2" d="M228.283 80.5863L228.57 80.0066V78.4108C228.311 78.4108 227.444 78.9973 228.283 80.5863Z" fill="black"/>
<path opacity="0.2" d="M212.203 86.5944C211.923 86.5944 210.9 87.2763 212.203 89.2608C213.505 87.2899 212.482 86.5944 212.203 86.5944Z" fill="black"/>
<path opacity="0.2" d="M198.802 113.443C198.85 113.358 198.88 113.263 198.888 113.165C198.896 113.067 198.883 112.969 198.85 112.877C198.787 112.801 198.707 112.739 198.618 112.697C198.528 112.655 198.431 112.632 198.332 112.631C198.205 112.628 198.078 112.646 197.957 112.686C198.236 113.027 198.489 113.334 198.693 113.607C198.737 113.557 198.773 113.502 198.802 113.443Z" fill="black"/>
<path opacity="0.2" d="M215.217 104.693C215.074 104.448 213.955 103.916 212.912 106.057C215.265 106.167 215.353 104.932 215.217 104.693Z" fill="black"/>
<path opacity="0.2" d="M214.883 89.2472C214.856 88.8726 214.856 88.4965 214.883 88.1219C214.446 87.9855 213.648 88.1219 212.891 89.67C213.585 89.7822 214.295 89.6314 214.883 89.2472V89.2472Z" fill="black"/>
<path opacity="0.2" d="M215.237 72.0345C215.053 72.3414 214.883 72.6756 214.706 73.0234C214.889 72.9385 215.041 72.7961 215.137 72.6178C215.233 72.4394 215.268 72.2348 215.237 72.0345V72.0345Z" fill="black"/>
<path opacity="0.2" d="M192.821 96.51C192.685 96.7419 192.774 97.9285 194.976 97.8739L195.038 97.6966C194.022 95.7735 192.965 96.2713 192.821 96.51Z" fill="black"/>
<path opacity="0.2" d="M209.188 104.693C209.045 104.932 209.141 106.167 211.493 106.057C210.45 103.916 209.332 104.448 209.188 104.693Z" fill="black"/>
<path opacity="0.2" d="M225.555 80.143C225.419 80.3817 225.508 81.6092 227.833 81.5069C226.81 79.3724 225.699 79.8975 225.555 80.143Z" fill="black"/>
<path opacity="0.2" d="M211.494 89.6699C211.259 89.1216 210.877 88.6493 210.389 88.306C210.28 88.8175 210.184 89.2471 210.116 89.5745C210.566 89.6864 211.032 89.7187 211.494 89.6699V89.6699Z" fill="black"/>
<path opacity="0.2" d="M209.604 89.3085C209.495 89.0221 209.359 88.6879 209.202 88.3129C209.147 88.4999 209.157 88.6999 209.23 88.8806C209.303 89.0613 209.435 89.212 209.604 89.3085V89.3085Z" fill="black"/>
<path opacity="0.2" d="M212.203 154.729C213.505 152.758 212.482 152.062 212.203 152.062C211.923 152.062 210.893 152.758 212.203 154.729Z" fill="black"/>
<path opacity="0.2" d="M212.203 135.695C211.923 135.695 210.9 136.377 212.203 138.362C213.505 136.391 212.482 135.695 212.203 135.695Z" fill="black"/>
<path opacity="0.2" d="M212.203 119.328C211.923 119.328 210.9 120.01 212.203 121.995C213.505 120.024 212.482 119.328 212.203 119.328Z" fill="black"/>
<path opacity="0.2" d="M198.877 145.686C198.877 145.829 198.843 145.979 198.823 146.122C198.884 145.986 198.903 145.834 198.877 145.686Z" fill="black"/>
<path opacity="0.2" d="M198.85 161.978C198.713 161.746 197.738 161.296 196.763 162.912H198.495C198.646 162.814 198.762 162.671 198.825 162.503C198.889 162.335 198.898 162.151 198.85 161.978V161.978Z" fill="black"/>
<path opacity="0.2" d="M212.939 155.138C215.292 155.267 215.381 154.033 215.244 153.774C215.108 153.515 213.955 153.017 212.939 155.138Z" fill="black"/>
<path opacity="0.2" d="M215.217 137.427C215.074 137.182 213.955 136.65 212.912 138.791C215.265 138.901 215.353 137.666 215.217 137.427Z" fill="black"/>
<path opacity="0.2" d="M212.939 122.404C214.671 122.499 215.176 121.858 215.265 121.415L215.203 121.013C214.944 120.76 213.894 120.406 212.939 122.404Z" fill="black"/>
<path opacity="0.2" d="M226.858 161.992C226.176 161.521 225.651 161.807 225.555 161.992C225.508 162.165 225.516 162.349 225.58 162.517C225.644 162.685 225.759 162.828 225.91 162.926H227.178L226.858 161.992Z" fill="black"/>
<path opacity="0.2" d="M209.188 153.794C209.045 154.033 209.141 155.267 211.493 155.158C210.45 153.017 209.332 153.549 209.188 153.794Z" fill="black"/>
<path opacity="0.2" d="M209.188 137.427C209.045 137.666 209.141 138.901 211.493 138.791C210.45 136.65 209.332 137.182 209.188 137.427Z" fill="black"/>
<path opacity="0.2" d="M209.188 121.06C209.045 121.299 209.141 122.534 211.493 122.424C210.45 120.283 209.332 120.815 209.188 121.06Z" fill="black"/>
<path opacity="0.2" d="M212.203 201.163C211.937 201.163 211.009 201.791 212.012 203.523L212.353 203.591C213.417 201.804 212.469 201.163 212.203 201.163Z" fill="black"/>
<path opacity="0.2" d="M195.836 179.279C197.138 177.308 196.115 176.613 195.836 176.613C195.556 176.613 194.526 177.308 195.836 179.279Z" fill="black"/>
<path opacity="0.2" d="M228.57 176.613C228.29 176.613 227.267 177.295 228.57 179.279V176.613Z" fill="black"/>
<path opacity="0.2" d="M212.203 187.463C213.505 185.492 212.482 184.796 212.203 184.796C211.923 184.796 210.893 185.492 212.203 187.463Z" fill="black"/>
<path opacity="0.2" d="M212.203 168.429C211.923 168.429 210.9 169.111 212.203 171.096C213.505 169.125 212.482 168.429 212.203 168.429Z" fill="black"/>
<path opacity="0.2" d="M215.217 202.895C215.087 202.67 214.153 202.213 213.171 203.721C213.732 203.792 214.297 203.822 214.862 203.809C215.01 203.713 215.123 203.573 215.187 203.409C215.251 203.245 215.261 203.066 215.217 202.895V202.895Z" fill="black"/>
<path opacity="0.2" d="M196.572 179.688C198.925 179.818 199.014 178.584 198.877 178.324C198.741 178.065 197.588 177.567 196.572 179.688Z" fill="black"/>
<path opacity="0.2" d="M212.939 187.872C215.292 188.001 215.381 186.767 215.244 186.508C215.108 186.249 213.955 185.751 212.939 187.872Z" fill="black"/>
<path opacity="0.2" d="M215.217 170.161C215.074 169.916 213.955 169.384 212.912 171.525C215.265 171.634 215.353 170.4 215.217 170.161Z" fill="black"/>
<path opacity="0.2" d="M225.555 194.712C225.446 194.896 225.48 195.667 226.572 195.953C226.756 195.626 226.94 195.271 227.11 194.951C226.34 194.173 225.665 194.521 225.555 194.712Z" fill="black"/>
<path opacity="0.2" d="M209.577 202.67C209.966 202.854 210.365 203.018 210.771 203.161C210.632 202.982 210.449 202.843 210.239 202.757C210.03 202.671 209.802 202.641 209.577 202.67Z" fill="black"/>
<path opacity="0.2" d="M195.126 179.688C194.969 179.344 194.765 179.022 194.519 178.734C194.519 179.054 194.465 179.368 194.444 179.682C194.671 179.698 194.899 179.7 195.126 179.688Z" fill="black"/>
<path opacity="0.2" d="M227.86 179.688C226.817 177.567 225.699 178.099 225.555 178.324C225.412 178.549 225.508 179.818 227.86 179.688Z" fill="black"/>
<path opacity="0.2" d="M209.188 186.528C209.045 186.767 209.141 188.001 211.493 187.892C210.45 185.751 209.332 186.283 209.188 186.528Z" fill="black"/>
<path opacity="0.2" d="M209.188 170.161C209.045 170.4 209.141 171.634 211.493 171.525C210.45 169.384 209.332 169.916 209.188 170.161Z" fill="black"/>
<path opacity="0.2" d="M196.763 162.912C196.688 163.035 196.62 163.171 196.545 163.315C197.223 163.417 197.916 163.272 198.495 162.905H196.763V162.912Z" fill="black"/>
<path opacity="0.2" d="M227.178 162.912H225.896C226.313 163.192 226.806 163.335 227.308 163.321L227.178 162.912Z" fill="black"/>
</g>
<path d="M195.045 188.206C193.34 184.312 194.799 175.788 196.504 163.615C198.209 151.442 199.914 139.023 199.914 132.449C199.914 125.875 200.998 116.764 198.857 113.825C196.716 110.886 188.921 102.914 188.341 99.2174C187.761 95.5212 193.012 89.8677 193.012 89.8677C193.012 89.8677 194.574 86.9421 195.938 88.5038C197.302 90.0655 196.716 92.0091 195.938 94.7369C195.161 97.4647 194.376 99.6061 194.376 99.6061C194.376 99.6061 201.196 101.747 202.949 100.581C204.701 99.4151 204.544 92.7456 204.422 89.479C204.169 83.1095 201.619 85.8305 199.853 88.8448C199 90.2905 194.008 89.4313 196.927 85.7283C199.846 82.0252 202.56 78.7586 205.288 81.6842C208.016 84.6098 209.959 90.2565 209.959 90.2565C209.959 90.2565 211.91 80.975 213.683 75.5193C215.456 70.0637 218.634 67.9019 219.779 68.2838C220.925 68.6657 220.795 70.5683 219.65 73.2348C218.504 75.9012 215.967 83.2596 215.333 85.6737C214.699 88.0878 214.576 90.877 215.844 90.6247C217.113 90.3724 221.552 82.6253 222.828 79.3247C224.103 76.024 225.999 72.9825 228.154 71.5845C230.309 70.1864 232.089 71.9663 231.202 74.2509C229.441 78.3823 227.442 82.4081 225.215 86.3079C223.814 88.8283 222.626 91.4607 221.662 94.1777C223.752 91.9501 225.956 89.831 228.263 87.8287C231.311 85.2918 234.612 84.7872 235.621 85.6737C236.631 86.5602 235.751 86.6898 233.214 88.722C230.677 90.7543 226.885 93.1752 223.851 98.1126C221.5 101.733 219.664 105.662 218.395 109.788C217.452 112.496 216.217 115.093 214.712 117.535C214.712 117.535 217.092 136.861 221.218 147.493C225.344 158.125 232.641 173.673 230.418 184.783C228.195 195.892 223.912 201.6 217.883 203.345C216.136 203.856 214.292 203.95 212.502 203.619C210.711 203.289 209.023 202.543 207.572 201.443" stroke="#263238" stroke-width="0.0549815" stroke-linecap="round" stroke-linejoin="round"/>
<path d="M223.85 98.1126C226.899 93.1616 230.711 90.7474 233.248 88.722C235.785 86.6966 236.658 86.5602 235.655 85.6737C234.653 84.7871 231.345 85.2918 228.297 87.8287C225.989 89.831 223.786 91.9501 221.695 94.1777C222.649 91.4617 223.826 88.8295 225.214 86.3079C227.435 82.4076 229.427 78.3818 231.181 74.2509C232.068 71.9663 230.295 70.1591 228.133 71.5844C225.971 73.0097 224.075 76.024 222.807 79.3247C221.539 82.6253 217.092 90.3724 215.824 90.6247C214.555 90.877 214.678 88.081 215.312 85.6737C215.947 83.2664 218.49 75.9012 219.629 73.2348C220.768 70.5683 220.898 68.6657 219.759 68.2838C218.62 67.9019 215.442 70.0569 213.662 75.5193C211.882 80.9818 209.939 90.2564 209.939 90.2564C209.939 90.2564 207.995 84.603 205.267 81.6842C202.539 78.7654 199.811 82.0252 196.906 85.7282C194.001 89.4313 198.952 90.2905 199.832 88.8448C201.598 85.8305 204.149 83.1095 204.401 89.479C204.524 92.7456 204.681 99.4083 202.928 100.581C201.175 101.754 194.356 99.6061 194.356 99.6061C194.356 99.6061 195.133 97.4647 195.917 94.7369C196.702 92.0091 197.281 90.0587 195.917 88.5038C194.554 86.9489 192.992 89.8677 192.992 89.8677C192.992 89.8677 187.734 95.5143 188.32 99.2174C188.907 102.92 196.695 110.899 198.836 113.825C200.978 116.75 199.893 125.875 199.893 132.449C199.893 139.023 198.188 151.442 196.483 163.615C196.483 163.778 196.436 163.928 196.415 164.085C199.109 166.915 204.599 170.973 213.88 170.659C220.1 170.448 224.505 167.318 227.485 163.874C225.508 157.988 223.025 152.28 221.184 147.507C217.058 136.875 214.678 117.548 214.678 117.548C216.183 115.107 217.417 112.509 218.361 109.801C219.639 105.669 221.487 101.735 223.85 98.1126V98.1126Z" fill="#B2B2B2" stroke="#263238" stroke-width="0.0549815" stroke-linecap="round" stroke-linejoin="round"/>
<path d="M205.179 116.771C205.179 116.771 204.04 111.95 205.69 108.901C206.558 107.168 207.989 105.781 209.748 104.966" stroke="#263238" stroke-width="0.0549815" stroke-linecap="round" stroke-linejoin="round"/>
</svg>
