<svg width="1610" height="1275" viewBox="0 0 1610 1275" fill="none" xmlns="http://www.w3.org/2000/svg">
<path d="M1249.71 1261.27H1469.14C1464.88 1234.44 1447.85 1239.17 1445.42 1197.39C1444.27 1176.44 1463.65 1150.55 1461.94 1123C1460.58 1100.34 1438.22 1077.09 1436.39 1051.16C1434.86 1027.78 1453.89 1001.8 1452.06 976.595C1450.32 952.748 1427.66 929.753 1425.66 905.097C1423.66 880.441 1442.4 854.678 1440.18 830.235C1437.97 805.792 1414.93 783.393 1412.46 759.248C1409.95 734.464 1428.05 707.806 1425.24 684.13C1422.3 658.963 1398.54 637.288 1395.43 614.037C1391.81 588.231 1408.63 560.637 1404.71 538.365C1399.9 511.069 1374.48 491.31 1369.11 471.168C1359.15 433.652 1360.59 397.456 1348.63 395.114C1336.06 392.601 1333.21 428.031 1323.72 467.506C1318.9 487.435 1293.91 507.62 1289.99 534.916C1286.67 557.06 1304.25 583.93 1301.36 609.651C1298.8 632.689 1275.81 654.79 1273.38 679.829C1271.3 703.378 1290.07 729.311 1288.2 753.925C1286.41 777.857 1263.97 800.767 1262.39 824.954C1260.82 849.142 1280.24 874.692 1278.92 898.709C1277.6 922.727 1255.5 946.488 1254.39 970.165C1253.2 995.162 1272.91 1020.41 1271.98 1043.62C1270.91 1069.17 1249.15 1092.93 1248.34 1115.42C1247.36 1142.71 1267.42 1167.88 1266.82 1188.66C1265.46 1233.76 1244.81 1224.43 1244.08 1260.71L1249.71 1261.27Z" fill="#92E3A9"/>
<path d="M1343.9 467.421V1251.13" stroke="#263238" stroke-width="0.0665371" stroke-miterlimit="10"/>
<path d="M1378.18 549.565L1342.45 580.438L1313.2 541.432" stroke="#263238" stroke-width="0.0665371" stroke-miterlimit="10"/>
<path d="M1378.18 686.003L1342.45 716.834L1313.2 677.87" stroke="#263238" stroke-width="0.0665371" stroke-miterlimit="10"/>
<path d="M1378.18 814.266L1342.45 845.139L1313.2 806.175" stroke="#263238" stroke-width="0.0665371" stroke-miterlimit="10"/>
<path d="M1378.18 966.928L1342.45 997.802L1313.2 958.838" stroke="#263238" stroke-width="0.0665371" stroke-miterlimit="10"/>
<path d="M1378.18 1121.21L1342.45 1152.08L1313.2 1113.12" stroke="#263238" stroke-width="0.0665371" stroke-miterlimit="10"/>
<path d="M1018.9 1261.27H1209.21C1205.55 1238.02 1190.6 1242.1 1188.6 1205.91C1187.62 1187.73 1204.44 1165.24 1202.99 1141.39C1201.76 1121.76 1182.38 1101.58 1180.89 1079.09C1179.53 1058.82 1196.09 1036.3 1194.47 1014.41C1192.94 993.756 1173.18 973.912 1171.56 952.45C1169.95 930.988 1186.09 908.716 1184.34 887.51C1182.59 866.303 1162.41 846.842 1160.32 825.976C1158.11 804.471 1173.78 781.348 1171.39 760.823C1168.84 738.978 1148.27 720.156 1145.46 700.056C1142.35 677.657 1156.96 653.725 1153.55 634.434C1149.29 610.758 1127.32 593.597 1122.68 576.137C1114.16 543.603 1115.14 512.262 1104.92 510.218C1094.02 508.003 1091.55 538.749 1083.29 573.156C1079.03 590.19 1057.74 607.905 1054.08 631.581C1051.18 650.787 1066.43 674.165 1063.91 696.394C1061.7 716.366 1041.64 735.528 1039.68 757.246C1037.85 777.644 1054.12 800.17 1052.46 821.505C1050.8 842.839 1031.46 862.045 1030.1 883.081C1028.74 904.117 1045.56 926.218 1044.41 946.957C1043.26 967.695 1024.1 988.391 1023.12 1008.92C1022.1 1030.63 1039.21 1052.52 1038.36 1072.79C1037.47 1095.11 1018.6 1115.38 1017.92 1135.05C1017.07 1158.73 1034.45 1180.57 1033.93 1198.58C1032.74 1237.68 1014.86 1229.59 1014.22 1261.05L1018.9 1261.27Z" fill="#92E3A9"/>
<path d="M1100.49 572.858V1252.5" stroke="#263238" stroke-width="0.0665371" stroke-miterlimit="10"/>
<path d="M1130.22 644.101L1099.26 670.886L1073.88 637.075" stroke="#263238" stroke-width="0.0665371" stroke-miterlimit="10"/>
<path d="M1130.22 762.399L1099.26 789.184L1073.88 755.372" stroke="#263238" stroke-width="0.0665371" stroke-miterlimit="10"/>
<path d="M1130.22 873.67L1099.26 900.413L1073.88 866.644" stroke="#263238" stroke-width="0.0665371" stroke-miterlimit="10"/>
<path d="M1130.22 1006.06L1099.26 1032.81L1073.88 998.994" stroke="#263238" stroke-width="0.0665371" stroke-miterlimit="10"/>
<path d="M1130.22 1139.82L1099.26 1166.6L1073.88 1132.79" stroke="#263238" stroke-width="0.0665371" stroke-miterlimit="10"/>
<path d="M348.973 1261.27H613.674C608.606 1228.9 587.783 1234.61 585.015 1184.62C583.652 1159.32 607.031 1128.07 604.987 1094.89C603.326 1067.55 576.37 1039.53 574.284 1008.23C572.41 980.002 595.576 948.617 593.191 918.255C591.062 889.511 563.723 861.917 561.338 832.023C558.954 802.896 581.481 771.256 578.84 741.745C576.2 712.235 548.35 685.194 545.412 656.152C542.389 626.343 564.192 594.108 560.87 565.491C557.293 535.172 528.677 508.94 524.802 480.963C520.543 449.834 540.77 416.576 536.001 389.706C530.21 356.788 499.549 332.941 493.077 308.796C481.068 263.53 482.558 219.881 468.378 217.028C453.218 214.005 449.769 256.802 438.314 304.581C432.523 328.598 402.544 352.956 397.646 385.873C393.644 412.573 414.68 445.022 411.358 476.023C408.25 503.787 380.357 530.487 377.632 560.679C375.077 589.04 397.732 620.297 395.517 650.105C393.345 678.934 366.262 706.444 364.389 735.741C362.515 765.039 385.68 795.784 384.275 824.699C382.614 854.507 356.042 882.357 354.679 910.888C353.232 941.08 377.036 971.527 375.971 999.505C374.694 1030.55 348.462 1059.12 347.483 1086.08C346.333 1119 370.521 1149.4 369.754 1174.44C368.136 1228.86 343.224 1217.58 342.33 1261.35L348.973 1261.27Z" fill="#92E3A9"/>
<path d="M462.587 303.729V1249.05" stroke="#263238" stroke-width="0.0665371" stroke-miterlimit="10"/>
<path d="M503.935 402.864L460.84 440.082L425.581 393.07" stroke="#263238" stroke-width="0.0665371" stroke-miterlimit="10"/>
<path d="M503.935 567.365L460.84 604.583L425.581 557.613" stroke="#263238" stroke-width="0.0665371" stroke-miterlimit="10"/>
<path d="M503.935 722.114L460.84 759.333L425.581 712.32" stroke="#263238" stroke-width="0.0665371" stroke-miterlimit="10"/>
<path d="M503.935 906.247L460.84 943.465L425.581 896.452" stroke="#263238" stroke-width="0.0665371" stroke-miterlimit="10"/>
<path d="M503.935 1092.34L460.84 1129.56L425.581 1082.54" stroke="#263238" stroke-width="0.0665371" stroke-miterlimit="10"/>
<path d="M594.725 911.569H592.425C590.137 911.569 587.882 911.027 585.844 909.986C583.806 908.945 582.043 907.437 580.701 905.583C579.359 903.73 578.475 901.585 578.123 899.324C577.77 897.064 577.957 894.751 578.671 892.577C581.566 883.635 586.464 874.607 594.725 873.244C611.758 870.391 658.601 884.614 658.601 894.536C658.601 904.458 658.601 908.716 652.894 908.716H617.422L589.019 939.973L588.423 939.462C586.955 938.235 585.775 936.701 584.966 934.968C584.156 933.235 583.736 931.346 583.736 929.433C583.736 927.521 584.156 925.632 584.966 923.899C585.775 922.166 586.955 920.632 588.423 919.405C590.955 917.172 593.087 914.522 594.725 911.569Z" fill="#263238" stroke="#263238" stroke-width="0.0665371" stroke-linecap="round" stroke-linejoin="round"/>
<path d="M915.509 1175.59H1386.78C1386.78 1175.59 1454.92 1130.15 1440.69 1010.92C1426.47 891.683 1349.86 971.187 1321.46 1050.69H1111.39C1111.39 1050.69 1065.96 959.817 992.16 971.187C918.362 982.557 915.509 1175.59 915.509 1175.59Z" fill="#263238" stroke="#263238" stroke-width="0.0665371" stroke-linecap="round" stroke-linejoin="round"/>
<path d="M1031.29 1152C1031.29 1116.95 1021.29 1085.44 1005.23 1063.17V1029.95H948.426C902.606 1029.95 865.516 1084.59 865.516 1152C865.516 1219.41 902.606 1273.83 948.426 1273.83H1005.23V1240.61C1021.29 1218.47 1031.29 1187 1031.29 1152Z" fill="#263238" stroke="#263238" stroke-width="0.0665371" stroke-linecap="round" stroke-linejoin="round"/>
<path d="M1005.23 1274C1051.02 1274 1088.14 1219.38 1088.14 1152C1088.14 1084.62 1051.02 1029.99 1005.23 1029.99C959.444 1029.99 922.323 1084.62 922.323 1152C922.323 1219.38 959.444 1274 1005.23 1274Z" fill="#263238"/>
<path opacity="0.2" d="M1005.23 1274C1051.02 1274 1088.14 1219.38 1088.14 1152C1088.14 1084.62 1051.02 1029.99 1005.23 1029.99C959.443 1029.99 922.322 1084.62 922.322 1152C922.322 1219.38 959.443 1274 1005.23 1274Z" fill="white"/>
<path d="M1005.23 1274C1051.02 1274 1088.14 1219.38 1088.14 1152C1088.14 1084.62 1051.02 1029.99 1005.23 1029.99C959.444 1029.99 922.323 1084.62 922.323 1152C922.323 1219.38 959.444 1274 1005.23 1274Z" stroke="#263238" stroke-width="0.0665371" stroke-linecap="round" stroke-linejoin="round"/>
<path d="M519.182 1029.95H465.313C422.048 1029.95 386.959 1084.59 386.959 1152C386.959 1219.41 422.218 1273.83 465.313 1273.83H519.011C562.276 1273.83 597.365 1219.19 597.365 1151.83C597.365 1084.46 562.447 1029.95 519.182 1029.95Z" fill="#263238" stroke="#263238" stroke-width="0.0665371" stroke-linecap="round" stroke-linejoin="round"/>
<path d="M1005.23 1249.34C1041.76 1249.34 1071.37 1205.76 1071.37 1152C1071.37 1098.23 1041.76 1054.65 1005.23 1054.65C968.709 1054.65 939.101 1098.23 939.101 1152C939.101 1205.76 968.709 1249.34 1005.23 1249.34Z" fill="white" stroke="#263238" stroke-width="0.0665371" stroke-linecap="round" stroke-linejoin="round"/>
<path d="M1419.53 1152C1419.53 1116.95 1413.14 1085.44 1402.92 1063.17V1029.95H1352.76C1323.63 1029.95 1300 1084.59 1300 1152C1300 1219.41 1323.63 1273.83 1352.76 1273.83H1402.92V1240.61C1413.14 1218.47 1419.53 1187 1419.53 1152Z" fill="#263238" stroke="#263238" stroke-width="0.0665371" stroke-linecap="round" stroke-linejoin="round"/>
<path d="M1402.92 1274C1432.06 1274 1455.68 1219.38 1455.68 1152C1455.68 1084.62 1432.06 1029.99 1402.92 1029.99C1373.78 1029.99 1350.16 1084.62 1350.16 1152C1350.16 1219.38 1373.78 1274 1402.92 1274Z" fill="#263238"/>
<path opacity="0.2" d="M1402.92 1274C1432.06 1274 1455.68 1219.38 1455.68 1152C1455.68 1084.62 1432.06 1029.99 1402.92 1029.99C1373.78 1029.99 1350.16 1084.62 1350.16 1152C1350.16 1219.38 1373.78 1274 1402.92 1274Z" fill="white"/>
<path d="M1402.92 1274C1432.06 1274 1455.68 1219.38 1455.68 1152C1455.68 1084.62 1432.06 1029.99 1402.92 1029.99C1373.78 1029.99 1350.16 1084.62 1350.16 1152C1350.16 1219.38 1373.78 1274 1402.92 1274Z" stroke="#263238" stroke-width="0.0665371" stroke-linecap="round" stroke-linejoin="round"/>
<path d="M1402.92 1249.34C1426.16 1249.34 1445 1205.76 1445 1152C1445 1098.23 1426.16 1054.65 1402.92 1054.65C1379.69 1054.65 1360.85 1098.23 1360.85 1152C1360.85 1205.76 1379.69 1249.34 1402.92 1249.34Z" fill="white" stroke="#263238" stroke-width="0.0665371" stroke-linecap="round" stroke-linejoin="round"/>
<path d="M935.352 1181.76C935.352 1084.54 969.164 1005.72 1010.81 1005.72C1052.46 1005.72 1086.27 1084.54 1086.27 1181.76C1086.27 1187.13 1086.27 1192.41 1085.93 1197.6H1354.76C1354.59 1192.41 1354.5 1187.13 1354.5 1181.76C1354.5 1084.54 1379.12 1005.72 1409.48 1005.72C1429.75 1005.72 1447.46 1040.94 1456.96 1093.32V949.725C1456.96 943.179 1454.67 936.841 1450.49 931.808C1446.3 926.775 1440.49 923.367 1434.05 922.173L1432.77 921.917C1414.12 918.17 1380.61 882.783 1328.44 838.07C1276.28 793.357 1229.69 789.652 1229.69 789.652H759.141C750.232 789.687 741.589 792.683 734.57 798.169L574.072 922.045C574.072 922.045 430.607 949.98 398.925 981.662C367.242 1013.34 370.99 1197.73 370.99 1197.73H935.693C935.48 1192.41 935.352 1187.13 935.352 1181.76Z" fill="#92E3A9"/>
<path opacity="0.3" d="M1028.53 921.917L1053.44 789.652H759.142C750.233 789.687 741.59 792.683 734.571 798.169L574.073 922.045C574.073 922.045 430.608 949.98 398.926 981.662C367.243 1013.34 370.991 1197.73 370.991 1197.73H874.842C878.504 1098.17 901.329 1050.82 901.329 1050.82H762.208C870.072 934.267 1028.53 921.917 1028.53 921.917Z" fill="black"/>
<path d="M935.352 1181.76C935.352 1084.54 969.164 1005.72 1010.81 1005.72C1052.46 1005.72 1086.27 1084.54 1086.27 1181.76C1086.27 1187.13 1086.27 1192.41 1085.93 1197.6H1354.76C1354.59 1192.41 1354.5 1187.13 1354.5 1181.76C1354.5 1084.54 1379.12 1005.72 1409.48 1005.72C1429.75 1005.72 1447.46 1040.94 1456.96 1093.32V949.725C1456.96 943.179 1454.67 936.841 1450.49 931.808C1446.3 926.775 1440.49 923.367 1434.05 922.173L1432.77 921.917C1414.12 918.17 1380.61 882.783 1328.44 838.07C1276.28 793.357 1229.69 789.652 1229.69 789.652H759.141C750.232 789.687 741.589 792.683 734.57 798.169L574.072 922.045C574.072 922.045 430.607 949.98 398.925 981.662C367.242 1013.34 370.99 1197.73 370.99 1197.73H935.693C935.48 1192.41 935.352 1187.13 935.352 1181.76Z" stroke="#263238" stroke-width="0.0665371" stroke-linecap="round" stroke-linejoin="round"/>
<path d="M1114.2 789.652H759.141C750.233 789.687 741.589 792.683 734.571 798.169L574.072 922.045H1028.53L1114.2 789.652Z" fill="#92E3A9" stroke="#263238" stroke-width="0.0665371" stroke-linecap="round" stroke-linejoin="round"/>
<path d="M928.199 971.74C902.649 972.081 857.893 973.784 838.517 981.535C822.463 987.838 806.892 995.31 791.931 1003.89H883.188L928.199 971.74Z" fill="#263238" stroke="#263238" stroke-width="0.0665371" stroke-linecap="round" stroke-linejoin="round"/>
<path d="M888.809 1031.83V1015.05H791.931L809.475 1031.23C809.196 1031.4 808.939 1031.6 808.709 1031.83H888.809Z" fill="#263238" stroke="#263238" stroke-width="0.0665371" stroke-linecap="round" stroke-linejoin="round"/>
<path d="M898.092 1007.6V1031.95C901.862 1031.63 905.507 1030.43 908.742 1028.47C911.976 1026.51 914.715 1023.82 916.744 1020.63C926.069 1005.72 947.021 971.74 947.021 971.74L898.092 1007.6Z" fill="#263238" stroke="#263238" stroke-width="0.0665371" stroke-linecap="round" stroke-linejoin="round"/>
<path d="M407.868 1031.1L425.413 1014.92H384.064C382.787 1020.16 381.594 1025.78 380.572 1031.7H408.635C408.396 1031.48 408.14 1031.28 407.868 1031.1V1031.1Z" fill="#263238" stroke="#263238" stroke-width="0.0665371" stroke-linecap="round" stroke-linejoin="round"/>
<path d="M394.028 987.965C391.173 993.004 388.888 998.346 387.215 1003.89H425.54C415.335 998.011 404.815 992.695 394.028 987.965V987.965Z" fill="#263238" stroke="#263238" stroke-width="0.0665371" stroke-linecap="round" stroke-linejoin="round"/>
<path d="M1028.53 921.917H1304.21C1304.21 921.917 1343.35 908.887 1332.15 860.427C1328.36 843.989 1250.17 806.43 1239.02 806.43H1104.88L1028.53 921.917Z" fill="#263238"/>
<path opacity="0.2" d="M1028.53 921.917H1304.21C1304.21 921.917 1343.35 908.887 1332.15 860.426C1328.36 843.989 1250.18 806.43 1239.02 806.43H1104.88L1028.53 921.917Z" fill="white" stroke="#263238" stroke-width="0.0665371" stroke-linecap="round" stroke-linejoin="round"/>
<path d="M1028.53 921.917H1304.21C1304.21 921.917 1343.35 908.887 1332.15 860.427C1328.36 843.989 1250.17 806.43 1239.02 806.43H1104.88L1028.53 921.917Z" stroke="#263238" stroke-width="0.0665371" stroke-linecap="round" stroke-linejoin="round"/>
<path d="M723.627 806.43L573.945 921.917H1028.53L1103.35 806.43H723.627Z" fill="#263238" stroke="#263238" stroke-width="0.0665371" stroke-linecap="round" stroke-linejoin="round"/>
<path d="M432.396 1007.6V1046.73L460.331 1067.21H685.727L737.892 1044.86V1007.6H432.396Z" fill="#263238" stroke="#263238" stroke-width="0.0665371" stroke-linecap="round" stroke-linejoin="round"/>
<path opacity="0.3" d="M442.829 1007.6H432.396V1018.03H442.829V1007.6Z" fill="white"/>
<path opacity="0.3" d="M454.327 1019.14H443.894V1029.57H454.327V1019.14Z" fill="white"/>
<path opacity="0.3" d="M465.868 1030.63H455.435V1041.07H465.868V1030.63Z" fill="white"/>
<path opacity="0.3" d="M477.365 1042.17H466.932V1052.61H477.365V1042.17Z" fill="white"/>
<path opacity="0.3" d="M735.849 1007.6H725.416V1018.03H735.849V1007.6Z" fill="white"/>
<path opacity="0.3" d="M724.307 1019.14H713.874V1029.57H724.307V1019.14Z" fill="white"/>
<path opacity="0.3" d="M712.811 1030.63H702.378V1041.07H712.811V1030.63Z" fill="white"/>
<path opacity="0.3" d="M701.313 1042.17H690.88V1052.61H701.313V1042.17Z" fill="white"/>
<path opacity="0.3" d="M493.376 1042.17H482.943V1052.61H493.376V1042.17Z" fill="white"/>
<path opacity="0.3" d="M509.345 1042.17H498.912V1052.61H509.345V1042.17Z" fill="white"/>
<path opacity="0.3" d="M525.357 1042.17H514.924V1052.61H525.357V1042.17Z" fill="white"/>
<path opacity="0.3" d="M541.369 1042.17H530.936V1052.61H541.369V1042.17Z" fill="white"/>
<path opacity="0.3" d="M557.336 1042.17H546.903V1052.61H557.336V1042.17Z" fill="white"/>
<path opacity="0.3" d="M573.348 1042.17H562.915V1052.61H573.348V1042.17Z" fill="white"/>
<path opacity="0.3" d="M589.318 1042.17H578.885V1052.61H589.318V1042.17Z" fill="white"/>
<path opacity="0.3" d="M605.33 1042.17H594.896V1052.61H605.33V1042.17Z" fill="white"/>
<path opacity="0.3" d="M621.341 1042.17H610.908V1052.61H621.341V1042.17Z" fill="white"/>
<path opacity="0.3" d="M637.309 1042.17H626.876V1052.61H637.309V1042.17Z" fill="white"/>
<path opacity="0.3" d="M653.321 1042.17H642.888V1052.61H653.321V1042.17Z" fill="white"/>
<path opacity="0.3" d="M669.289 1042.17H658.856V1052.61H669.289V1042.17Z" fill="white"/>
<path opacity="0.3" d="M685.301 1042.17H674.868V1052.61H685.301V1042.17Z" fill="white"/>
<path d="M845.928 1115.63H382.105L375.888 1065.94C373.035 1093.27 371.63 1122.36 371.161 1146.29L372.779 1152.89L382.105 1134.28H421.878L397.18 1154.6H765.998L752.839 1134.11H846.098L872.202 1149.02H890.811V1054.18L845.928 1115.63Z" fill="#263238" stroke="#263238" stroke-width="0.0665371" stroke-linecap="round" stroke-linejoin="round"/>
<path d="M1125.57 911.569H1123.28C1120.99 911.562 1118.74 911.015 1116.71 909.971C1114.68 908.928 1112.92 907.419 1111.58 905.566C1110.24 903.714 1109.36 901.571 1109.01 899.314C1108.66 897.056 1108.85 894.748 1109.56 892.577C1112.42 883.635 1117.36 874.607 1125.57 873.244C1142.61 870.391 1189.45 884.614 1189.45 894.536C1189.45 904.458 1189.45 908.716 1183.79 908.716H1148.31L1119.91 939.973L1119.32 939.462C1117.85 938.235 1116.67 936.701 1115.86 934.968C1115.05 933.235 1114.63 931.346 1114.63 929.433C1114.63 927.521 1115.05 925.632 1115.86 923.899C1116.67 922.166 1117.85 920.632 1119.32 919.405C1121.83 917.171 1123.95 914.52 1125.57 911.569V911.569Z" fill="#92E3A9"/>
<path d="M1210.23 921.917H1225.82C1224.16 899.05 1217.64 848.716 1192.05 806.43H1176.46C1185.45 825.891 1206.74 876.097 1210.23 921.917Z" fill="#263238" stroke="#263238" stroke-width="0.0665371" stroke-linecap="round" stroke-linejoin="round"/>
<path d="M1119.31 939.462L1119.91 939.973L1148.31 908.716H1183.79C1188.47 908.716 1189.28 905.778 1189.41 899.135H1109.01C1109.49 902.578 1111.2 905.731 1113.82 908.016C1116.44 910.3 1119.8 911.562 1123.28 911.569H1125.57C1123.94 914.524 1121.81 917.174 1119.27 919.405C1117.81 920.635 1116.63 922.172 1115.83 923.906C1115.02 925.64 1114.6 927.531 1114.61 929.443C1114.61 931.356 1115.04 933.244 1115.85 934.975C1116.66 936.706 1117.85 938.238 1119.31 939.462V939.462Z" fill="#263238" stroke="#263238" stroke-width="0.0665371" stroke-linecap="round" stroke-linejoin="round"/>
<path d="M1206.91 956.197H1174.97V963.053H1206.91V956.197Z" fill="#263238"/>
<path d="M1350.72 956.197H1318.78V963.053H1350.72V956.197Z" fill="#263238"/>
<path d="M1352.97 928.901C1352.97 928.901 1376.1 944.614 1389.51 999.675C1389.51 999.675 1332.45 1006.49 1332.45 1164.01" stroke="#263238" stroke-width="0.0665371" stroke-linecap="round" stroke-linejoin="round"/>
<path d="M1325.51 1170.73H1086.1C1086.1 1174.4 1086.1 1178.06 1086.1 1181.76C1086.1 1187.13 1086.1 1192.41 1085.76 1197.6H1354.59C1354.42 1192.41 1354.33 1187.13 1354.33 1181.76V1180.7L1325.51 1170.73Z" fill="#263238" stroke="#263238" stroke-width="0.0665371" stroke-linecap="round" stroke-linejoin="round"/>
<path d="M935.353 1181.76C935.353 1178.06 935.353 1174.4 935.353 1170.73H370.82C370.82 1187.13 370.82 1197.6 370.82 1197.6H935.694C935.481 1192.41 935.353 1187.13 935.353 1181.76Z" fill="#263238" stroke="#263238" stroke-width="0.0665371" stroke-linecap="round" stroke-linejoin="round"/>
<path d="M1446.95 942.528C1444.12 942.528 1441.33 943.267 1438.86 944.671C1436.4 946.075 1434.34 948.096 1432.89 950.536C1431.44 952.976 1430.66 955.751 1430.61 958.588C1430.56 961.424 1431.24 964.225 1432.6 966.715L1456.96 1011.43V949.725C1456.93 947.292 1456.59 944.873 1455.94 942.528H1446.95Z" fill="#263238" stroke="#263238" stroke-width="0.0665371" stroke-linecap="round" stroke-linejoin="round"/>
<path d="M1227.78 945.636C1227.78 945.636 1278.88 1019.43 1227.78 1144.37" stroke="#263238" stroke-width="0.0665371" stroke-linecap="round" stroke-linejoin="round"/>
<path d="M1006.72 898.121C1006.38 898.118 1006.05 898.032 1005.76 897.871L949.997 867.946C949.848 867.883 949.719 867.783 949.621 867.654L928.753 849.707L907.259 842.737C907.109 842.694 906.967 842.623 906.842 842.529L889.146 832.136L869.697 827.212L847.785 830.342C847.738 830.563 847.654 830.775 847.535 830.968C847.117 831.802 846.909 832.262 844.78 831.51V831.844L842.652 830.717C842.464 830.641 842.294 830.527 842.151 830.383C838.478 828.714 832.176 825.542 820.991 819.908C787.602 803.213 765.607 806.803 765.398 806.844C765.129 806.898 764.852 806.898 764.583 806.843C764.314 806.787 764.059 806.679 763.834 806.523C763.608 806.367 763.416 806.167 763.268 805.936C763.121 805.704 763.022 805.445 762.977 805.175C762.88 804.633 763.001 804.074 763.313 803.62C763.626 803.167 764.105 802.856 764.647 802.754C765.607 802.754 788.395 798.789 822.869 816.193L843.737 826.711L869.571 822.996C869.848 822.954 870.13 822.954 870.406 822.996L890.565 828.13L891.107 828.338L908.845 838.772L930.506 845.826C930.776 845.909 931.03 846.035 931.258 846.201L952.126 864.315L1007.68 894.156C1007.92 894.284 1008.14 894.459 1008.32 894.671C1008.49 894.883 1008.63 895.128 1008.71 895.392C1008.79 895.656 1008.82 895.934 1008.79 896.209C1008.76 896.484 1008.68 896.751 1008.55 896.994C1008.37 897.326 1008.11 897.604 1007.78 897.802C1007.46 897.999 1007.09 898.109 1006.72 898.121V898.121Z" fill="white"/>
<path d="M981.508 885.183L946.199 882.762L922.034 877.336L899.997 873.997L877.877 872.495C877.602 872.45 877.335 872.365 877.084 872.245L843.236 855.174C826.75 854.256 786.224 864.106 785.807 864.189C785.27 864.315 784.706 864.223 784.237 863.934C783.767 863.644 783.432 863.181 783.303 862.645C783.235 862.379 783.221 862.102 783.263 861.831C783.304 861.559 783.4 861.299 783.544 861.065C783.688 860.832 783.877 860.629 784.101 860.471C784.325 860.312 784.579 860.2 784.847 860.141C786.558 859.724 827.126 849.874 843.946 851.043C844.207 850.986 844.477 850.986 844.739 851.043L878.587 868.113L900.456 869.615L922.785 873.038L946.825 878.422L981.758 880.801C982.312 880.801 982.843 881.02 983.234 881.412C983.625 881.803 983.845 882.334 983.845 882.887C983.845 883.441 983.625 883.972 983.234 884.363C982.843 884.754 982.312 884.974 981.758 884.974L981.508 885.183Z" fill="white"/>
<path d="M757.176 909.765C756.695 909.766 756.229 909.599 755.856 909.295C755.484 908.991 755.228 908.567 755.131 908.096C755.033 907.549 755.152 906.985 755.464 906.525C755.776 906.065 756.256 905.745 756.801 905.634L813.562 894.657L827.752 882.136L837.185 867.988C837.355 867.736 837.577 867.524 837.836 867.366C838.096 867.207 838.386 867.106 838.687 867.069L865.774 863.564C866.322 863.492 866.875 863.641 867.313 863.978C867.751 864.314 868.038 864.811 868.111 865.358C868.171 865.904 868.018 866.452 867.684 866.888C867.349 867.323 866.859 867.613 866.316 867.695L840.148 871.076L831.091 884.682C831.002 884.85 830.873 884.993 830.715 885.099L815.857 898.038C815.592 898.293 815.259 898.467 814.897 898.538L757.594 909.598L757.176 909.765Z" fill="white"/>
<path d="M888.06 906.969L861.307 905.133C860.754 905.094 860.238 904.837 859.874 904.418C859.51 903.999 859.328 903.453 859.366 902.9C859.405 902.346 859.662 901.831 860.081 901.467C860.5 901.103 861.046 900.92 861.599 900.959L888.102 902.754L911.766 899.081L924.663 895.742C924.855 895.704 925.054 895.704 925.247 895.742L952.083 896.493L967.943 899.707L987.142 896.827C987.413 896.786 987.69 896.798 987.956 896.864C988.223 896.93 988.474 897.047 988.695 897.21C988.916 897.373 989.103 897.578 989.244 897.813C989.386 898.048 989.48 898.309 989.521 898.58C989.593 899.126 989.451 899.68 989.124 900.123C988.797 900.567 988.311 900.867 987.768 900.959L968.235 903.881H967.484L951.582 900.625L925.456 899.916L912.601 903.255L888.519 907.011L888.06 906.969Z" fill="white"/>
<path d="M951.875 900.583C951.536 900.588 951.2 900.506 950.901 900.346C950.601 900.185 950.348 899.951 950.164 899.665L943.319 889.523C943.045 889.089 942.927 888.573 942.985 888.063L944.154 880.383L948.995 865.442C949.088 865.156 949.24 864.893 949.441 864.67C949.643 864.447 949.889 864.269 950.164 864.148L967.777 856.886C968.297 856.679 968.878 856.686 969.394 856.904C969.91 857.123 970.318 857.536 970.531 858.054C970.633 858.309 970.683 858.582 970.68 858.856C970.676 859.13 970.618 859.401 970.509 859.653C970.401 859.905 970.244 860.133 970.047 860.324C969.85 860.515 969.618 860.666 969.363 860.767L952.668 867.654L948.202 881.343L947.242 887.896L953.628 897.328C953.932 897.795 954.042 898.362 953.932 898.908C953.823 899.454 953.504 899.936 953.044 900.25C952.701 900.485 952.291 900.602 951.875 900.583V900.583Z" fill="white"/>
<path d="M929.838 849.916C929.504 849.914 929.175 849.834 928.878 849.682C928.581 849.53 928.323 849.309 928.127 849.039L912.559 826.627L895.364 818.28C895.117 818.16 894.896 817.992 894.715 817.785C894.534 817.579 894.397 817.338 894.311 817.077C894.225 816.816 894.193 816.54 894.216 816.266C894.239 815.993 894.317 815.726 894.446 815.484C894.696 814.992 895.13 814.619 895.654 814.447C896.178 814.275 896.749 814.318 897.242 814.565L914.896 823.288C915.206 823.451 915.476 823.679 915.689 823.956L930.881 845.826L946.699 844.699C946.975 844.67 947.253 844.698 947.517 844.78C947.782 844.862 948.027 844.997 948.237 845.176C948.448 845.356 948.62 845.576 948.743 845.824C948.866 846.072 948.938 846.342 948.953 846.619C948.988 847.166 948.806 847.704 948.446 848.118C948.087 848.532 947.58 848.788 947.033 848.831L929.963 850.083L929.838 849.916Z" fill="white"/>
<path d="M925.081 899.832C924.613 899.856 924.153 899.707 923.787 899.415L914.647 891.068C914.316 890.77 914.089 890.375 913.999 889.939C913.909 889.504 913.961 889.051 914.146 888.647L920.365 874.707L920.949 866.36C920.959 866.084 921.025 865.812 921.143 865.563C921.261 865.313 921.429 865.09 921.636 864.906C921.842 864.723 922.084 864.583 922.346 864.496C922.608 864.409 922.886 864.375 923.161 864.398C923.707 864.451 924.213 864.708 924.577 865.119C924.941 865.529 925.136 866.062 925.123 866.61L924.497 875.5C924.559 875.732 924.559 875.977 924.497 876.21L918.737 889.106L926.709 896.243C926.908 896.43 927.067 896.656 927.176 896.908C927.285 897.159 927.341 897.43 927.341 897.704C927.341 897.977 927.285 898.248 927.176 898.5C927.067 898.751 926.908 898.977 926.709 899.164C926.502 899.387 926.25 899.563 925.968 899.678C925.687 899.794 925.384 899.846 925.081 899.832Z" fill="white"/>
<path d="M894.947 916.109C894.561 916.112 894.182 916.003 893.856 915.796C893.53 915.589 893.271 915.292 893.11 914.941L883.636 896.034L876.959 884.974C876.793 884.679 876.693 884.352 876.666 884.014L875.832 870.617C875.804 870.193 875.906 869.771 876.124 869.407L889.104 847.161C889.259 846.845 889.507 846.583 889.813 846.41L925.665 825.25C925.897 825.107 926.155 825.012 926.424 824.97C926.694 824.928 926.969 824.941 927.233 825.007C927.497 825.073 927.746 825.191 927.964 825.355C928.182 825.518 928.365 825.724 928.503 825.959C928.647 826.194 928.742 826.456 928.785 826.729C928.827 827.001 928.815 827.279 928.749 827.547C928.683 827.815 928.564 828.067 928.4 828.289C928.236 828.51 928.03 828.697 927.793 828.839L892.401 849.707L879.88 870.993L880.631 883.263L887.142 894.031L896.658 913.104C896.895 913.599 896.931 914.166 896.76 914.687C896.589 915.208 896.224 915.643 895.74 915.901C895.488 916.011 895.22 916.081 894.947 916.109Z" fill="white"/>
<path d="M1331.32 907.217C1331.16 907.214 1331.01 907.128 1330.87 906.967L1305.05 877.008C1304.98 876.945 1304.92 876.844 1304.88 876.715L1295.22 858.748L1285.26 851.771C1285.19 851.727 1285.13 851.656 1285.07 851.562L1276.88 841.158L1267.87 836.227L1257.73 839.361C1257.7 839.583 1257.67 839.795 1257.61 839.988C1257.42 840.823 1257.32 841.283 1256.33 840.531V840.865L1255.35 839.737C1255.26 839.66 1255.18 839.547 1255.12 839.403C1253.42 837.731 1250.5 834.556 1245.32 828.915C1229.86 812.202 1219.68 815.795 1219.58 815.837C1219.45 815.891 1219.33 815.89 1219.2 815.835C1219.08 815.78 1218.96 815.671 1218.85 815.515C1218.75 815.359 1218.66 815.159 1218.59 814.927C1218.52 814.695 1218.48 814.436 1218.46 814.165C1218.41 813.623 1218.47 813.063 1218.61 812.609C1218.76 812.155 1218.98 811.843 1219.23 811.742C1219.68 811.742 1230.23 807.772 1246.19 825.196L1255.85 835.726L1267.81 832.007C1267.94 831.965 1268.07 831.965 1268.2 832.007L1277.53 837.146L1277.79 837.355L1286 847.801L1296.03 854.863C1296.15 854.945 1296.27 855.072 1296.38 855.239L1306.04 873.373L1331.76 903.248C1331.87 903.375 1331.98 903.551 1332.06 903.763C1332.14 903.975 1332.2 904.221 1332.24 904.485C1332.28 904.749 1332.29 905.027 1332.28 905.303C1332.26 905.578 1332.23 905.845 1332.17 906.089C1332.08 906.421 1331.96 906.7 1331.81 906.898C1331.66 907.095 1331.49 907.206 1331.32 907.217V907.217Z" fill="white"/>
<path d="M1319.72 894.236L1303.37 891.8L1292.18 886.34L1281.98 882.98L1271.74 881.468C1271.61 881.423 1271.49 881.338 1271.37 881.216L1255.7 864.039C1248.07 863.115 1229.31 873.027 1229.12 873.111C1228.87 873.237 1228.61 873.144 1228.39 872.853C1228.17 872.562 1228.02 872.096 1227.96 871.557C1227.93 871.289 1227.92 871.01 1227.94 870.737C1227.96 870.464 1228 870.202 1228.07 869.967C1228.14 869.732 1228.22 869.528 1228.33 869.369C1228.43 869.209 1228.55 869.096 1228.67 869.037C1229.47 868.617 1248.25 858.705 1256.03 859.881C1256.15 859.824 1256.28 859.824 1256.4 859.881L1272.07 877.059L1282.19 878.57L1292.53 882.014L1303.66 887.432L1319.83 889.826C1320.09 889.826 1320.33 890.047 1320.51 890.441C1320.7 890.835 1320.8 891.369 1320.8 891.926C1320.8 892.483 1320.7 893.017 1320.51 893.411C1320.33 893.805 1320.09 894.026 1319.83 894.026L1319.72 894.236Z" fill="white"/>
<path d="M1215.91 918.701C1215.69 918.701 1215.47 918.536 1215.3 918.234C1215.13 917.931 1215.01 917.51 1214.96 917.042C1214.92 916.498 1214.97 915.938 1215.12 915.48C1215.26 915.023 1215.48 914.705 1215.74 914.595L1242.07 903.685L1248.65 891.242L1253.02 877.18C1253.1 876.93 1253.2 876.72 1253.32 876.562C1253.44 876.405 1253.58 876.304 1253.72 876.268L1266.28 872.783C1266.54 872.713 1266.79 872.861 1267 873.195C1267.2 873.529 1267.33 874.023 1267.37 874.567C1267.4 875.109 1267.32 875.654 1267.17 876.087C1267.01 876.52 1266.79 876.807 1266.53 876.89L1254.4 880.25L1250.2 893.772C1250.15 893.938 1250.09 894.081 1250.02 894.187L1243.13 907.045C1243.01 907.299 1242.85 907.472 1242.68 907.543L1216.11 918.535L1215.91 918.701Z" fill="white"/>
<path d="M1276.59 916.162L1264.27 914.296C1264.02 914.256 1263.78 913.995 1263.62 913.569C1263.45 913.144 1263.36 912.588 1263.38 912.026C1263.4 911.463 1263.52 910.939 1263.71 910.569C1263.9 910.199 1264.15 910.014 1264.41 910.053L1276.61 911.877L1287.5 908.144L1293.43 904.75C1293.52 904.711 1293.61 904.711 1293.7 904.75L1306.05 905.514L1313.35 908.78L1322.19 905.853C1322.32 905.811 1322.44 905.824 1322.57 905.89C1322.69 905.957 1322.8 906.077 1322.91 906.242C1323.01 906.408 1323.09 906.616 1323.16 906.855C1323.22 907.094 1323.27 907.359 1323.29 907.635C1323.32 908.19 1323.25 908.753 1323.1 909.204C1322.95 909.655 1322.73 909.959 1322.48 910.053L1313.49 913.023H1313.14L1305.82 909.714L1293.8 908.992L1287.88 912.387L1276.8 916.205L1276.59 916.162Z" fill="white"/>
<path d="M1306 909.712C1305.84 909.717 1305.68 909.635 1305.54 909.474C1305.4 909.313 1305.28 909.078 1305.19 908.792L1301.99 898.63C1301.86 898.194 1301.8 897.678 1301.83 897.166L1302.38 889.471L1304.65 874.5C1304.69 874.213 1304.76 873.95 1304.86 873.726C1304.95 873.503 1305.07 873.324 1305.19 873.203L1313.45 865.927C1313.69 865.719 1313.96 865.726 1314.2 865.945C1314.45 866.165 1314.64 866.579 1314.74 867.098C1314.78 867.353 1314.81 867.626 1314.81 867.901C1314.8 868.176 1314.78 868.447 1314.73 868.7C1314.68 868.952 1314.6 869.181 1314.51 869.372C1314.42 869.564 1314.31 869.714 1314.19 869.816L1306.37 876.716L1304.28 890.433L1303.83 896.999L1306.82 906.45C1306.96 906.918 1307.01 907.486 1306.96 908.033C1306.91 908.581 1306.76 909.063 1306.54 909.377C1306.38 909.613 1306.19 909.73 1306 909.712V909.712Z" fill="white"/>
<path d="M1295.93 859.117C1295.77 859.116 1295.62 859.035 1295.48 858.882C1295.34 858.729 1295.22 858.507 1295.13 858.236L1287.89 835.692L1279.89 827.296C1279.78 827.175 1279.68 827.006 1279.59 826.798C1279.51 826.59 1279.44 826.348 1279.4 826.085C1279.36 825.823 1279.35 825.546 1279.36 825.27C1279.37 824.995 1279.41 824.727 1279.47 824.483C1279.58 823.989 1279.79 823.614 1280.03 823.441C1280.27 823.268 1280.54 823.31 1280.77 823.559L1288.98 832.333C1289.12 832.497 1289.25 832.726 1289.35 833.005L1296.41 855.003L1303.77 853.87C1303.9 853.841 1304.03 853.868 1304.15 853.951C1304.27 854.033 1304.39 854.169 1304.49 854.35C1304.58 854.53 1304.66 854.752 1304.72 855.001C1304.78 855.251 1304.81 855.523 1304.82 855.801C1304.83 856.351 1304.75 856.893 1304.58 857.309C1304.42 857.725 1304.18 857.983 1303.93 858.026L1295.99 859.285L1295.93 859.117Z" fill="white"/>
<path d="M1293.74 908.713C1293.51 908.736 1293.29 908.588 1293.11 908.295L1288.68 899.947C1288.52 899.649 1288.41 899.254 1288.36 898.818C1288.32 898.383 1288.35 897.93 1288.44 897.526L1291.45 883.583L1291.73 875.234C1291.74 874.958 1291.77 874.687 1291.83 874.437C1291.89 874.187 1291.97 873.964 1292.07 873.78C1292.17 873.597 1292.29 873.458 1292.41 873.37C1292.54 873.283 1292.67 873.25 1292.81 873.272C1293.07 873.325 1293.32 873.582 1293.49 873.993C1293.67 874.403 1293.77 874.936 1293.76 875.485L1293.46 884.376C1293.49 884.609 1293.49 884.853 1293.46 885.086L1290.66 897.985L1294.53 905.123C1294.62 905.31 1294.7 905.537 1294.75 905.788C1294.81 906.039 1294.83 906.31 1294.83 906.584C1294.83 906.858 1294.81 907.129 1294.75 907.38C1294.7 907.631 1294.62 907.858 1294.53 908.045C1294.43 908.268 1294.31 908.443 1294.17 908.559C1294.03 908.674 1293.89 908.727 1293.74 908.713Z" fill="white"/>
<path d="M1279.7 925.192C1279.52 925.195 1279.34 925.086 1279.19 924.878C1279.04 924.67 1278.92 924.373 1278.85 924.021L1274.47 905.071L1271.39 893.986C1271.31 893.69 1271.27 893.362 1271.26 893.024L1270.87 879.596C1270.86 879.171 1270.9 878.748 1271.01 878.383L1277 856.087C1277.07 855.77 1277.18 855.508 1277.33 855.334L1293.88 834.126C1293.99 833.982 1294.11 833.887 1294.23 833.845C1294.36 833.804 1294.48 833.816 1294.61 833.882C1294.73 833.949 1294.84 834.067 1294.94 834.231C1295.04 834.395 1295.13 834.601 1295.19 834.837C1295.26 835.073 1295.3 835.335 1295.32 835.608C1295.34 835.881 1295.34 836.16 1295.31 836.428C1295.28 836.697 1295.22 836.949 1295.14 837.171C1295.07 837.394 1294.97 837.581 1294.86 837.723L1278.52 858.639L1272.74 879.973L1273.09 892.271L1276.09 903.063L1280.49 922.18C1280.6 922.676 1280.61 923.244 1280.53 923.766C1280.46 924.288 1280.29 924.724 1280.06 924.983C1279.95 925.093 1279.82 925.164 1279.7 925.192Z" fill="white"/>
</svg>
