<svg width="565" height="458" viewBox="0 0 565 458" fill="none" xmlns="http://www.w3.org/2000/svg">
<path d="M256.379 386.657L160.918 424.85L50.1625 314.095L122.725 303.598L256.379 386.657Z" fill="#92E3A9"/>
<path opacity="0.5" d="M256.379 386.657L160.918 424.85L50.1625 314.095L122.725 303.598L256.379 386.657Z" fill="white"/>
<path d="M373.807 437.266C386.462 437.266 396.72 430.425 396.72 421.986C396.72 413.547 386.462 406.706 373.807 406.706C361.153 406.706 350.895 413.547 350.895 421.986C350.895 430.425 361.153 437.266 373.807 437.266Z" fill="#92E3A9"/>
<path opacity="0.5" d="M373.807 437.266C386.462 437.266 396.72 430.425 396.72 421.986C396.72 413.547 386.462 406.706 373.807 406.706C361.153 406.706 350.895 413.547 350.895 421.986C350.895 430.425 361.153 437.266 373.807 437.266Z" fill="white"/>
<path d="M284.075 335.232L423.958 346.316L392.911 330.335L284.075 335.232Z" fill="#92E3A9"/>
<path opacity="0.5" d="M284.075 335.232L423.958 346.316L392.911 330.335L284.075 335.232Z" fill="white"/>
<path d="M315.58 292.142L274.079 288.748L279.292 282.59H303.164L315.58 292.142Z" fill="#92E3A9"/>
<path opacity="0.5" d="M315.58 292.142L274.079 288.748L279.292 282.59H303.164L315.58 292.142Z" fill="white"/>
<path d="M450.15 457.788C466.23 457.788 479.264 449.882 479.264 440.13C479.264 430.379 466.23 422.473 450.15 422.473C434.071 422.473 421.037 430.379 421.037 440.13C421.037 449.882 434.071 457.788 450.15 457.788Z" fill="#92E3A9"/>
<path opacity="0.5" d="M450.15 457.788C466.23 457.788 479.264 449.882 479.264 440.13C479.264 430.379 466.23 422.473 450.15 422.473C434.071 422.473 421.037 430.379 421.037 440.13C421.037 449.882 434.071 457.788 450.15 457.788Z" fill="white"/>
<path d="M277.63 399.131L261.949 424.893L296.677 431.624L310.124 405.861L277.63 399.131Z" fill="white" stroke="#263238" stroke-width="0.719599" stroke-linecap="round" stroke-linejoin="round"/>
<path d="M304.525 370.017L288.844 393.531L321.323 403.613L334.77 380.099L304.525 370.017Z" fill="#92E3A9"/>
<path opacity="0.5" d="M304.525 370.017L288.844 393.531L321.323 403.613L334.77 380.099L304.525 370.017Z" fill="white" stroke="#263238" stroke-width="0.719599" stroke-miterlimit="10"/>
<path d="M304.525 370.017L288.844 393.531L321.323 403.613L334.77 380.099L304.525 370.017Z" stroke="#263238" stroke-width="0.719599" stroke-linecap="round" stroke-linejoin="round"/>
<path d="M339.252 414.826L311.241 422.66L322.439 440.589L354.933 432.741L339.252 414.826Z" fill="#92E3A9" stroke="#263238" stroke-width="0.719599" stroke-linecap="round" stroke-linejoin="round"/>
<path d="M419.161 410.229L422.025 431.982C422.025 440.99 432.98 448.307 446.499 448.307C460.017 448.307 470.987 440.99 470.987 431.982L473.937 410.229H419.161Z" fill="#92E3A9" stroke="#263238" stroke-width="0.719599" stroke-linecap="round" stroke-linejoin="round"/>
<path d="M446.527 428.516C461.673 428.516 473.951 420.329 473.951 410.229C473.951 400.129 461.673 391.942 446.527 391.942C431.381 391.942 419.103 400.129 419.103 410.229C419.103 420.329 431.381 428.516 446.527 428.516Z" fill="#92E3A9" stroke="#263238" stroke-width="0.719599" stroke-linecap="round" stroke-linejoin="round"/>
<path d="M446.527 425.781C459.411 425.781 469.855 418.818 469.855 410.229C469.855 401.64 459.411 394.677 446.527 394.677C433.643 394.677 423.199 401.64 423.199 410.229C423.199 418.818 433.643 425.781 446.527 425.781Z" fill="#92E3A9" stroke="#263238" stroke-width="0.719599" stroke-linecap="round" stroke-linejoin="round"/>
<path d="M446.527 425.795C459.19 425.795 469.454 420.089 469.454 413.05C469.454 406.011 459.19 400.305 446.527 400.305C433.865 400.305 423.6 406.011 423.6 413.05C423.6 420.089 433.865 425.795 446.527 425.795Z" fill="#263238" stroke="#263238" stroke-width="0.719599" stroke-linecap="round" stroke-linejoin="round"/>
<path d="M454.79 368.484C450.809 365.921 444.766 366.15 442.346 370.89C438.766 377.793 441.329 390.581 440.04 392.371C438.751 394.161 434.928 394.677 433.138 390.839C431.347 387.001 431.347 381.889 429.042 381.631C426.736 381.373 423.672 382.404 423.156 388.29C422.641 394.176 423.672 400.82 427.767 403.885C431.863 406.95 436.46 405.933 437.792 407.222C439.124 408.51 437.792 410.515 437.792 411.833C437.792 417.561 445.281 420.425 450.021 418.993C456.924 416.945 456.165 410.028 457.182 407.222C458.199 404.415 463.841 404.143 465.889 399.804C467.937 395.464 471.001 386.743 466.648 383.421C462.294 380.098 458.972 381.631 458.471 385.211C457.875 388.054 456.912 390.807 455.607 393.402C458.671 387.345 461.678 372.924 454.79 368.484Z" fill="#92E3A9"/>
<path opacity="0.2" d="M454.79 368.484C450.809 365.921 444.766 366.15 442.346 370.89C438.766 377.793 441.329 390.581 440.04 392.371C438.751 394.161 434.928 394.677 433.138 390.839C431.347 387.001 431.347 381.889 429.042 381.631C426.736 381.373 423.672 382.404 423.156 388.29C422.641 394.176 423.672 400.82 427.767 403.885C431.863 406.95 436.46 405.933 437.792 407.222C439.124 408.51 437.792 410.515 437.792 411.833C437.792 417.561 445.281 420.425 450.021 418.993C456.924 416.945 456.165 410.028 457.182 407.222C458.199 404.415 463.841 404.143 465.889 399.804C467.937 395.464 471.001 386.743 466.648 383.421C462.294 380.098 458.972 381.631 458.471 385.211C457.875 388.054 456.912 390.807 455.607 393.402C458.671 387.345 461.678 372.924 454.79 368.484Z" fill="black"/>
<path d="M454.79 368.484C450.809 365.921 444.766 366.15 442.346 370.89C438.766 377.793 441.329 390.581 440.04 392.371C438.751 394.161 434.928 394.677 433.138 390.839C431.347 387.001 431.347 381.889 429.042 381.631C426.736 381.373 423.672 382.404 423.156 388.29C422.641 394.176 423.672 400.82 427.767 403.885C431.863 406.95 436.46 405.933 437.792 407.222C439.124 408.51 437.792 410.515 437.792 411.833C437.792 417.561 445.281 420.425 450.021 418.993C456.924 416.945 456.165 410.028 457.182 407.222C458.199 404.415 463.841 404.143 465.889 399.804C467.937 395.464 471.001 386.743 466.648 383.421C462.294 380.098 458.972 381.631 458.471 385.211C457.875 388.054 456.912 390.807 455.607 393.402C458.671 387.345 461.678 372.924 454.79 368.484Z" stroke="#263238" stroke-width="0.719599" stroke-linecap="round" stroke-linejoin="round"/>
<path d="M448.489 370.375C447.328 371.139 446.355 372.158 445.646 373.354C444.936 374.55 444.508 375.892 444.394 377.278C444.136 381.889 444.394 396.467 442.603 398.515C440.813 400.563 434.928 400.047 431.147 396.467C427.366 392.887 429.042 385.225 429.042 385.225" stroke="#263238" stroke-width="0.3598" stroke-linecap="round" stroke-linejoin="round"/>
<path d="M430.173 400.978C431.499 402.01 433.033 402.743 434.67 403.126C439.281 404.143 442.603 401.852 443.377 404.143C444.15 406.434 442.603 414.64 442.603 414.64" stroke="#263238" stroke-width="0.3598" stroke-linecap="round" stroke-linejoin="round"/>
<path d="M427.51 398.257C427.986 398.929 428.534 399.549 429.142 400.104" stroke="#263238" stroke-width="0.3598" stroke-linecap="round" stroke-linejoin="round"/>
<path d="M448.403 410.444C448.662 406.63 448.69 402.805 448.489 398.987C448.031 393.259 450.695 382.619 451.353 377.807" stroke="#263238" stroke-width="0.3598" stroke-linecap="round" stroke-linejoin="round"/>
<path d="M447.974 416.43C447.974 416.43 448.117 414.869 448.274 412.578" stroke="#263238" stroke-width="0.3598" stroke-linecap="round" stroke-linejoin="round"/>
<path d="M465.688 390.796C465.817 389.55 465.889 388.791 465.889 388.791" stroke="#263238" stroke-width="0.3598" stroke-linecap="round" stroke-linejoin="round"/>
<path d="M453.602 411.819C453.602 411.819 454.633 403.384 456.681 401.794C458.728 400.205 464.6 399.231 465.115 395.393C465.201 394.792 465.273 394.219 465.345 393.689" stroke="#263238" stroke-width="0.3598" stroke-linecap="round" stroke-linejoin="round"/>
<path d="M462.309 385.469C461.772 385.828 461.344 386.328 461.071 386.914C460.799 387.5 460.692 388.149 460.762 388.791C460.867 390.324 460.54 391.856 459.819 393.213C459.098 394.569 458.01 395.697 456.681 396.467" stroke="#263238" stroke-width="0.3598" stroke-linecap="round" stroke-linejoin="round"/>
<path d="M451.64 374.886C451.716 373.454 451.688 372.018 451.554 370.59" stroke="#263238" stroke-width="0.3598" stroke-linecap="round" stroke-linejoin="round"/>
<path d="M354.117 369.272L357.912 409.227V413.451C357.912 419.179 365.96 423.719 375.898 423.719C385.837 423.719 393.885 419.122 393.885 413.451V409.227L397.336 368.857L354.117 369.272Z" fill="white" stroke="#263238" stroke-width="0.719599" stroke-linecap="round" stroke-linejoin="round"/>
<path d="M394.057 407.064L396.047 383.793C393.369 387.961 385.378 390.954 375.927 390.954C365.974 390.954 357.654 387.603 355.434 383.092L357.697 406.921C361.363 409.971 368.136 412.034 375.927 412.034C383.717 412.034 390.391 410.072 394.057 407.064Z" fill="#92E3A9" stroke="#263238" stroke-width="0.719599" stroke-linecap="round" stroke-linejoin="round"/>
<path d="M354.833 376.805V376.533L354.646 374.929L354.833 376.805Z" fill="white" stroke="#263238" stroke-width="0.719599" stroke-linecap="round" stroke-linejoin="round"/>
<path d="M398.024 363.344C394.214 358.532 385.751 355.167 375.898 355.167C366.046 355.167 357.582 358.532 353.759 363.344H351.596V369.072C351.596 376.748 362.48 382.963 375.941 382.963C389.403 382.963 400.286 376.748 400.286 369.072V363.344H398.024Z" fill="#92E3A9" stroke="#263238" stroke-width="0.719599" stroke-linecap="round" stroke-linejoin="round"/>
<path opacity="0.2" d="M398.024 363.344C394.214 358.532 385.751 355.167 375.898 355.167C366.046 355.167 357.582 358.532 353.759 363.344H351.596V369.072C351.596 376.748 362.48 382.963 375.941 382.963C389.403 382.963 400.286 376.748 400.286 369.072V363.344H398.024Z" fill="black"/>
<path d="M375.898 377.235C389.32 377.235 400.2 371.015 400.2 363.344C400.2 355.672 389.32 349.453 375.898 349.453C362.477 349.453 351.596 355.672 351.596 363.344C351.596 371.015 362.477 377.235 375.898 377.235Z" fill="white" stroke="#263238" stroke-width="0.719599" stroke-linecap="round" stroke-linejoin="round"/>
<path d="M395.231 355.596C391.894 351.386 384.505 348.436 375.898 348.436C367.292 348.436 359.902 351.372 356.565 355.596H354.718V360.58C354.718 367.282 364.213 372.709 375.941 372.709C387.67 372.709 397.164 367.282 397.164 360.58V355.596H395.231Z" fill="#92E3A9" stroke="#263238" stroke-width="0.719599" stroke-linecap="round" stroke-linejoin="round"/>
<path d="M375.898 367.726C387.619 367.726 397.121 362.295 397.121 355.596C397.121 348.897 387.619 343.467 375.898 343.467C364.177 343.467 354.675 348.897 354.675 355.596C354.675 362.295 364.177 367.726 375.898 367.726Z" fill="white" stroke="#263238" stroke-width="0.719599" stroke-linecap="round" stroke-linejoin="round"/>
<path d="M161.691 237.809C161.691 237.809 163.352 236.706 173.892 241.131C184.432 245.556 188.571 244.597 198.824 242.793C211.14 240.644 221.365 238.496 222.597 243.48C224.73 252.072 216.109 251.972 200.6 253.633C185.091 255.294 176.098 250.554 171.114 248.335C168.82 247.393 166.599 246.282 164.469 245.012L161.691 237.809Z" fill="white" stroke="#263238" stroke-width="0.719599" stroke-linecap="round" stroke-linejoin="round"/>
<path d="M137.862 242.249C137.862 242.249 151.724 258.316 157.81 253.877C163.896 249.438 163.352 235.045 157.81 230.606C152.268 226.167 136.759 234.487 137.862 242.249Z" fill="white" stroke="#263238" stroke-width="0.719599" stroke-linecap="round" stroke-linejoin="round"/>
<path d="M180.007 197.912C180.007 197.912 180.566 212.877 176.685 222.844C172.804 232.811 165.601 239.47 164.498 245.012C163.395 250.554 163.939 258.316 158.397 260.536C152.855 262.755 152.855 258.875 153.414 254.435C153.972 249.996 155.075 233.384 155.075 233.384L136.759 244.454C136.759 244.454 141.743 258.316 131.217 259.977C120.691 261.638 107.946 245.571 106.285 233.427C104.624 221.283 111.268 194.074 122.911 186.871C134.554 179.668 149.504 180.785 157.28 180.785C165.056 180.785 176.656 186.284 180.007 197.912Z" fill="white" stroke="#263238" stroke-width="0.719599" stroke-linecap="round" stroke-linejoin="round"/>
<path d="M135.828 182.532C135.828 182.532 132.964 183.964 127.966 191.826C122.968 199.688 132.964 206.462 138.334 202.896C143.704 199.33 139.036 191.826 142.974 188.246C145.24 186.324 146.76 183.669 147.27 180.742L135.828 182.532Z" fill="#263238"/>
<path d="M119.76 193.601C118.48 194.516 117.405 195.687 116.603 197.041C115.802 198.395 115.292 199.901 115.106 201.463C114.748 206.461 123.699 197.167 124.758 192.871C125.818 188.575 119.76 193.601 119.76 193.601Z" fill="#263238"/>
<path d="M151.724 182.403C150.453 184.711 149.834 187.322 149.932 189.955C150.03 192.589 150.843 195.146 152.283 197.353C157.266 205.115 168.35 208.438 172.775 202.895C177.2 197.353 178.876 194.59 177.215 191.826C175.553 189.062 159.486 177.963 151.724 182.403Z" fill="#92E3A9" stroke="#263238" stroke-width="0.719599" stroke-linecap="round" stroke-linejoin="round"/>
<path d="M192.724 155.251C190.62 155.48 188.492 155.251 186.486 154.581C184.479 153.912 182.64 152.816 181.095 151.37C175.553 146.387 170.556 135.303 168.35 135.847C166.145 136.391 158.326 152.473 158.326 152.473C158.326 152.473 145.022 153.59 143.919 157.456C142.817 161.323 148.903 179.625 153.944 187.386C156.294 190.844 159.424 193.701 163.08 195.728C166.736 197.755 170.817 198.896 174.995 199.058C181.64 199.058 201.588 200.719 204.366 194.06C207.145 187.401 204.911 167.467 204.911 167.467C204.911 167.467 213.789 158.602 209.908 156.941C206.028 155.28 192.724 155.251 192.724 155.251Z" fill="white" stroke="#263238" stroke-width="0.719599" stroke-linecap="round" stroke-linejoin="round"/>
<path d="M190.032 182.976C189.358 182.102 188.714 181.214 188.084 180.298C187.039 178.751 184.561 176.388 179.792 177.892C173.004 180.026 168.336 186.484 175.868 191.826C182.957 196.91 197.192 192.327 190.032 182.976Z" fill="#263238"/>
<path d="M158.369 152.473C158.369 152.473 166.13 156.912 170.556 155.251C174.981 153.59 172.217 134.744 168.35 135.847C164.484 136.95 157.81 145.27 158.369 152.473Z" fill="white" stroke="#263238" stroke-width="0.719599" stroke-linecap="round" stroke-linejoin="round"/>
<path d="M209.908 156.912C209.908 156.912 202.748 156.354 198.266 161.337C193.783 166.321 196.605 171.362 202.705 172.421C208.806 173.481 212.114 156.912 209.908 156.912Z" fill="white" stroke="#263238" stroke-width="0.719599" stroke-linecap="round" stroke-linejoin="round"/>
<path d="M166.689 187.945C166.689 187.945 159.529 182.403 161.147 186.828C162.765 191.253 165.572 191.826 168.307 190.709C171.042 189.592 166.689 187.945 166.689 187.945Z" fill="#92E3A9" stroke="#263238" stroke-width="0.719599" stroke-linecap="round" stroke-linejoin="round"/>
<path d="M162.737 174.054C162.321 175.486 161.147 176.489 160.116 176.202C159.085 175.916 158.584 174.484 158.999 173.009C159.414 171.534 160.588 170.574 161.62 170.861C162.651 171.147 163.152 172.593 162.737 174.054Z" fill="#263238"/>
<path d="M179.821 187.129C178.489 187.902 176.957 187.787 176.441 186.857C175.926 185.926 176.527 184.565 177.873 183.792C178.365 183.401 178.987 183.21 179.614 183.258C180.241 183.306 180.826 183.588 181.253 184.05C181.769 184.981 181.138 186.355 179.821 187.129Z" fill="white"/>
<path d="M130.114 222.3C130.114 222.3 128.453 234.487 130.658 239.485C132.864 244.482 135.098 263.314 139.537 263.83C143.977 264.345 142.301 253.805 142.301 252.187C142.301 250.569 142.86 232.797 142.86 232.797C142.86 232.797 146.74 224.477 148.946 220.052" fill="white"/>
<path d="M130.114 222.3C130.114 222.3 128.453 234.487 130.658 239.485C132.864 244.482 135.098 263.314 139.537 263.83C143.977 264.345 142.301 253.805 142.301 252.187C142.301 250.569 142.86 232.797 142.86 232.797C142.86 232.797 146.74 224.477 148.946 220.052" stroke="#263238" stroke-width="0.719599" stroke-linecap="round" stroke-linejoin="round"/>
<path d="M111.827 221.742C111.827 221.742 126.792 217.302 128.453 233.928" stroke="#263238" stroke-width="0.719599" stroke-linecap="round" stroke-linejoin="round"/>
<path d="M155.046 233.427C155.046 233.427 167.792 226.768 168.35 212.362" stroke="#263238" stroke-width="0.719599" stroke-linecap="round" stroke-linejoin="round"/>
<path d="M1 256.096L10.4373 253.963" stroke="#263238" stroke-width="0.719599" stroke-linecap="round" stroke-linejoin="round"/>
<path d="M79.7632 311.789L155.863 290.208C158.282 289.952 160.715 290.539 162.751 291.87L286.581 370.991C287.108 371.332 287.518 371.826 287.755 372.408C287.993 372.99 288.045 373.63 287.906 374.243C287.767 374.856 287.443 375.411 286.978 375.833C286.513 376.255 285.929 376.525 285.306 376.604L181.167 409.04L79.7632 311.789Z" fill="#92E3A9" stroke="#263238" stroke-width="0.719599" stroke-linecap="round" stroke-linejoin="round"/>
<path d="M124.257 316.343L135.041 323.776L147.499 320.253L136.73 312.835L124.257 316.343Z" fill="#263238"/>
<path d="M130.973 337.123L120.204 329.69L107.731 333.213L118.515 340.645L130.973 337.123Z" fill="#263238"/>
<path d="M151.352 320.897L162.121 328.315L174.58 324.792L163.811 317.374L151.352 320.897Z" fill="#263238"/>
<path d="M163.911 329.547L174.68 336.965L187.139 333.442L176.37 326.024L163.911 329.547Z" fill="#263238"/>
<path d="M136.816 324.993L147.585 332.425L160.044 328.902L149.275 321.484L136.816 324.993Z" fill="#263238"/>
<path d="M109.722 320.453L120.491 327.886L132.964 324.363L122.181 316.93L109.722 320.453Z" fill="#263238"/>
<path d="M195.717 367.611L184.933 360.178L172.489 363.701L183.258 371.134L195.717 367.611Z" fill="#263238"/>
<path d="M181.167 371.721L170.398 364.288L157.939 367.811L168.722 375.229L181.167 371.721Z" fill="#263238"/>
<path d="M143.518 345.772L132.749 338.34L120.29 341.862L131.059 349.28L143.518 345.772Z" fill="#263238"/>
<path d="M208.262 376.261L197.493 368.843L185.034 372.351L195.803 379.784L208.262 376.261Z" fill="#263238"/>
<path d="M156.077 354.422L145.294 346.989L132.835 350.512L143.619 357.93L156.077 354.422Z" fill="#263238"/>
<path d="M168.622 363.071L157.853 355.639L145.394 359.162L156.163 366.594L168.622 363.071Z" fill="#263238"/>
<path d="M176.456 338.196L187.225 345.614L199.684 342.092L188.915 334.674L176.456 338.196Z" fill="#263238"/>
<path d="M122.281 329.103L133.05 336.535L145.509 333.012L134.74 325.594L122.281 329.103Z" fill="#263238"/>
<path d="M222.797 372.15L212.028 364.732L199.569 368.255L210.338 375.673L222.797 372.15Z" fill="#263238"/>
<path d="M185.148 346.201L174.379 338.783L161.92 342.292L172.689 349.724L185.148 346.201Z" fill="#263238"/>
<path d="M158.054 341.662L147.285 334.23L134.826 337.753L145.595 345.185L158.054 341.662Z" fill="#263238"/>
<path d="M105.87 319.823L99.5685 315.47L91.0478 317.861L96.0314 322.602L105.87 319.823Z" fill="#263238"/>
<path d="M118.414 328.473L107.645 321.041L97.4348 323.933L105.87 331.924L105.956 331.981L118.414 328.473Z" fill="#263238"/>
<path d="M149.361 333.657L160.145 341.075L172.603 337.552L161.82 330.134L149.361 333.657Z" fill="#263238"/>
<path d="M170.613 350.312L159.844 342.894L147.385 346.402L158.154 353.834L170.613 350.312Z" fill="#263238"/>
<path d="M224.788 359.391L214.019 351.973L201.56 355.496L212.329 362.914L224.788 359.391Z" fill="#263238"/>
<path d="M189 346.846L199.784 354.264L212.243 350.741L201.474 343.323L189 346.846Z" fill="#263238"/>
<path d="M210.252 363.501L199.483 356.083L187.024 359.606L197.793 367.024L210.252 363.501Z" fill="#263238"/>
<path d="M197.693 354.851L186.924 347.433L174.465 350.942L185.248 358.374L197.693 354.851Z" fill="#263238"/>
<path d="M183.158 358.962L172.389 351.543L159.93 355.052L170.699 362.484L183.158 358.962Z" fill="#263238"/>
<path d="M128.983 349.868L118.214 342.45L117.254 342.722L125.747 350.784L128.983 349.868Z" fill="#263238"/>
<path d="M224.587 373.382L212.128 376.905L225.045 385.798L237.189 382.06L224.587 373.382Z" fill="#263238"/>
<path d="M210.037 377.492L197.578 381.001L210.882 390.166L223.012 386.428L210.037 377.492Z" fill="#263238"/>
<path d="M154.087 367.167L143.318 359.749L137.06 361.51L145.566 369.587L154.087 367.167Z" fill="#263238"/>
<path d="M237.347 368.041L226.563 360.623L214.104 364.145L224.888 371.563L237.347 368.041Z" fill="#263238"/>
<path d="M166.632 375.831L155.863 368.398L146.97 370.919L155.462 378.981L166.632 375.831Z" fill="#263238"/>
<path d="M179.191 384.48L168.422 377.048L156.865 380.313L165.371 388.376L179.191 384.48Z" fill="#263238"/>
<path d="M193.726 380.37L182.957 372.938L170.498 376.461L181.267 383.893L193.726 380.37Z" fill="#263238"/>
<path d="M264.097 368.714L256.937 364.231L241.185 368.685L253.357 377.077L262.837 374.213C263.462 374.158 264.053 373.907 264.526 373.495C264.998 373.084 265.329 372.533 265.469 371.922C265.609 371.311 265.551 370.671 265.305 370.095C265.059 369.518 264.636 369.035 264.097 368.714Z" fill="#263238"/>
<path d="M180.967 385.698L166.775 389.708L177.945 400.305L194.686 395.149L180.967 385.698Z" fill="#263238"/>
<path d="M243.648 355.796L228.654 360.035L239.423 367.453L255.104 363.028L243.648 355.796Z" fill="#263238"/>
<path d="M239.123 369.272L226.664 372.795L239.208 381.444L251.352 377.707L239.123 369.272Z" fill="#263238"/>
<path d="M151.567 306.906L161.748 304.027L155.175 299.875L145.351 302.624L151.567 306.906Z" fill="#263238"/>
<path d="M208.849 390.796L195.502 381.588L183.043 385.111L196.705 394.534L208.849 390.796Z" fill="#263238"/>
<path d="M153.342 308.138L164.111 315.556L175.095 312.462L163.639 305.23L153.342 308.138Z" fill="#263238"/>
<path d="M178.446 325.437L189.215 332.855L201.76 329.318L190.318 322.086L178.446 325.437Z" fill="#263238"/>
<path d="M165.887 316.787L176.67 324.205L188.428 320.883L176.971 313.651L165.887 316.787Z" fill="#263238"/>
<path d="M190.991 334.086L201.76 341.505L215.092 337.753L203.65 330.506L190.991 334.086Z" fill="#263238"/>
<path d="M203.55 342.736L214.319 350.154L228.425 346.173L216.983 338.941L203.55 342.736Z" fill="#263238"/>
<path d="M230.315 347.362L216.095 351.386L226.864 358.804L241.757 354.608L230.315 347.362Z" fill="#263238"/>
<path d="M138.807 312.248L149.576 319.666L162.035 316.143L151.266 308.725L138.807 312.248Z" fill="#263238"/>
<path d="M113.646 339.313L115.851 341.39L116.424 341.218L113.646 339.313Z" fill="#263238"/>
<path d="M107.946 319.236L120.405 315.713L114.132 311.388L101.645 314.882L107.946 319.236Z" fill="#263238"/>
<path d="M122.481 315.126L134.94 311.603L128.697 307.292L116.209 310.801L122.481 315.126Z" fill="#263238"/>
<path d="M130.787 306.72L137.031 311.016L149.49 307.493L143.261 303.211L130.787 306.72Z" fill="#263238"/>
<path d="M141.528 358.532L130.759 351.099L127.15 352.116L135.656 360.179L141.528 358.532Z" fill="#263238"/>
<path d="M181.095 409.04L148.158 275.701C147.408 272.67 145.791 269.923 143.504 267.797L54.7164 185.009C54.3391 184.659 53.8593 184.439 53.3475 184.381C52.8358 184.324 52.3191 184.432 51.8734 184.69C51.4278 184.948 51.0767 185.343 50.8718 185.815C50.667 186.287 50.6191 186.813 50.7353 187.315L79.7631 311.789L181.095 409.04Z" fill="#92E3A9" stroke="#263238" stroke-width="0.719599" stroke-linecap="round" stroke-linejoin="round"/>
<path d="M131.317 262.341L141.47 271.219C141.47 271.219 144.635 271.849 147.8 287.702" stroke="#263238" stroke-width="0.3598" stroke-linecap="round" stroke-linejoin="round"/>
<path d="M149.705 295.936L168.422 377.048" stroke="#263238" stroke-width="0.3598" stroke-linecap="round" stroke-linejoin="round"/>
<path d="M94.8999 258.717C99.2964 269.4 98.8954 279.697 93.9978 281.716C89.1001 283.735 81.5532 276.704 77.1568 265.963C72.7603 255.223 73.1613 244.984 78.059 242.979C82.9566 240.974 90.5035 248.034 94.8999 258.717Z" fill="#92E3A9"/>
<path opacity="0.6" d="M94.8999 258.717C99.2964 269.4 98.8954 279.697 93.9978 281.716C89.1001 283.735 81.5532 276.704 77.1568 265.963C72.7603 255.223 73.1613 244.984 78.059 242.979C82.9566 240.974 90.5035 248.034 94.8999 258.717Z" fill="white"/>
<path d="M91.6919 276.126C95.173 274.693 95.4586 267.371 92.3298 259.773C89.201 252.174 83.8427 247.176 80.3615 248.61C76.8804 250.043 76.5947 257.365 79.7235 264.963C82.8523 272.562 88.2107 277.56 91.6919 276.126Z" stroke="#263238" stroke-width="0.719599" stroke-miterlimit="10"/>
<path d="M101.688 302.524C103.979 308.066 103.034 313.708 99.5972 315.126C96.1602 316.544 91.5204 313.193 89.2291 307.665C86.9378 302.137 87.8972 296.481 91.3342 295.063C94.7711 293.645 99.411 296.996 101.688 302.524Z" fill="#263238"/>
<path d="M96.9478 311.904C94.7854 311.904 92.4368 309.942 91.2196 306.878C90.5343 305.302 90.2965 303.568 90.5322 301.865C90.5951 301.155 90.8423 300.474 91.2491 299.889C91.656 299.304 92.2085 298.835 92.8521 298.529C95.2723 297.526 98.3656 299.631 99.8836 303.312C101.387 306.992 100.671 310.658 98.251 311.661C97.8363 311.825 97.3938 311.908 96.9478 311.904V311.904ZM94.0837 299.717C93.8377 299.715 93.5939 299.764 93.3677 299.861C92.9562 300.081 92.6083 300.404 92.3575 300.797C92.1067 301.191 91.9614 301.643 91.9356 302.109C91.7308 303.569 91.9392 305.057 92.5371 306.405C93.6971 309.269 96.0599 311.074 97.6925 310.4C99.325 309.727 99.7117 306.763 98.5374 303.928C97.4634 301.421 95.5158 299.717 94.0837 299.717Z" fill="#92E3A9"/>
<g opacity="0.5">
<path opacity="0.5" d="M96.9478 311.904C94.7854 311.904 92.4368 309.942 91.2196 306.878C90.5343 305.302 90.2965 303.568 90.5322 301.865C90.5951 301.155 90.8423 300.474 91.2491 299.889C91.656 299.304 92.2085 298.835 92.8521 298.529C95.2723 297.526 98.3656 299.631 99.8836 303.312C101.387 306.992 100.671 310.658 98.251 311.661C97.8363 311.825 97.3938 311.908 96.9478 311.904V311.904ZM94.0837 299.717C93.8377 299.715 93.5939 299.764 93.3677 299.861C92.9562 300.081 92.6083 300.404 92.3575 300.797C92.1067 301.191 91.9614 301.643 91.9356 302.109C91.7308 303.569 91.9392 305.057 92.5371 306.405C93.6971 309.269 96.0599 311.074 97.6925 310.4C99.325 309.727 99.7117 306.763 98.5374 303.928C97.4634 301.421 95.5158 299.717 94.0837 299.717Z" fill="white"/>
</g>
<path d="M127.221 304.3L119.073 317.188C118.863 317.502 118.751 317.871 118.751 318.248C118.751 318.625 118.863 318.994 119.073 319.308L136.516 344.741C136.668 344.967 136.867 345.158 137.098 345.302C137.329 345.446 137.588 345.54 137.858 345.578C138.128 345.616 138.403 345.597 138.665 345.522C138.927 345.446 139.171 345.317 139.38 345.142L148.416 337.767C148.776 337.477 149.019 337.066 149.101 336.611C149.182 336.156 149.097 335.687 148.86 335.289L130.515 304.371C130.351 304.083 130.115 303.842 129.83 303.672C129.545 303.501 129.221 303.408 128.889 303.401C128.557 303.394 128.229 303.473 127.936 303.63C127.644 303.788 127.398 304.018 127.221 304.3V304.3Z" fill="#263238"/>
<path d="M113.044 321.384C113.044 321.384 135.613 317.632 151.123 349.424L154.975 344.684C154.975 344.684 140.038 319.809 127.866 317.589C115.693 315.37 111.268 315.355 111.268 315.355L113.044 321.384Z" fill="#92E3A9"/>
<path opacity="0.5" d="M113.044 321.384C113.044 321.384 135.613 317.632 151.123 349.424L154.975 344.684C154.975 344.684 140.038 319.809 127.866 317.589C115.693 315.37 111.268 315.355 111.268 315.355L113.044 321.384Z" fill="white"/>
<path d="M15.7072 252.774L52.5397 244.454" stroke="#263238" stroke-width="0.719599" stroke-linecap="round" stroke-linejoin="round"/>
<path d="M249.562 332.969C245.147 333.666 240.696 334.111 236.23 334.301C229.313 334.573 226.377 334.573 227.437 336.177C228.497 337.781 236.774 339.371 239.695 339.901C242.617 340.43 249.562 332.969 249.562 332.969Z" fill="white" stroke="#263238" stroke-width="0.719599" stroke-miterlimit="10"/>
<path d="M509.28 390.896L496.95 384.452" stroke="#263238" stroke-width="0.719599" stroke-linecap="round" stroke-linejoin="round"/>
<path d="M262.981 240.387C262.981 240.387 265.573 235.847 266.661 241.475L262.981 240.387Z" fill="#263238"/>
<path d="M489.317 380.456L188.7 223.403" stroke="#263238" stroke-width="0.719599" stroke-linecap="round" stroke-linejoin="round"/>
<path d="M196.605 284.91L259.773 325.637L311.728 304.443L241.743 268.871L196.605 284.91Z" fill="#263238" stroke="#263238" stroke-width="0.719599" stroke-linecap="round" stroke-linejoin="round"/>
<path d="M237.204 276.417L212.028 285.311" stroke="white" stroke-width="0.3598" stroke-linecap="round" stroke-linejoin="round"/>
<path d="M215.98 288.275L261.405 316.916L298.424 302.595" stroke="white" stroke-width="0.3598" stroke-linecap="round" stroke-linejoin="round"/>
<path d="M456.881 92.4556C456.881 92.4556 493.055 98.1838 504.697 117.574C516.34 136.964 508.02 167.438 504.139 177.964C500.63 187.516 510.998 195.492 517.371 200.676C531.692 212.304 539.067 228.716 531.62 246.574C526.98 257.686 506.344 262.67 509.137 276.045C511.929 289.421 524.088 308.181 508.578 322.043C492.21 336.65 467.65 329.117 453.301 315.47C437.162 300.118 431.605 273.41 439.868 252.774C449.893 227.842 455.377 211.775 445.954 201.22C436.532 190.666 424.345 184.036 424.345 169.085C424.345 154.134 437.649 149.695 443.191 134.716C448.733 119.736 440.971 104.241 440.971 104.241L456.881 92.4556Z" fill="#263238" stroke="#263238" stroke-width="0.719599" stroke-linecap="round" stroke-linejoin="round"/>
<path d="M490.764 118.318C497.752 123.603 504.11 132.496 501.905 146.96C497.437 176.317 475.741 178.236 489.775 196.738C503.81 215.24 516.583 206.934 514.02 229.904C511.457 252.874 503.179 261.166 503.179 261.166" stroke="white" stroke-width="0.719599" stroke-miterlimit="10"/>
<path d="M475.798 111.259C478.596 111.916 481.314 112.877 483.904 114.123" stroke="white" stroke-width="0.719599" stroke-miterlimit="10"/>
<path d="M468.781 119.564C468.781 119.564 487.284 124.663 493.026 139.971C498.769 155.28 475.842 168.054 474.524 177.62" stroke="white" stroke-width="0.719599" stroke-miterlimit="10"/>
<path d="M467.965 369.301C467.707 360.523 467.593 348.808 468.123 336.45C469.24 310.959 499.714 277.148 500.817 271.062C501.919 264.976 499.155 263.902 499.155 263.902L438.751 237.853C410.669 256.297 403.838 309.942 402.162 334.975L467.965 369.301Z" fill="#92E3A9" stroke="#263238" stroke-width="0.719599" stroke-linecap="round" stroke-linejoin="round"/>
<path d="M492.597 265.52C492.597 265.52 497.666 268.684 492.597 273.754C487.527 278.823 473.579 300.376 467.851 313.05" stroke="#263238" stroke-width="0.3598" stroke-linecap="round" stroke-linejoin="round"/>
<path d="M465.345 319.351C465.345 319.351 460.905 329.49 461.55 339.629C462.194 349.767 462.18 359.276 462.18 359.276" stroke="#263238" stroke-width="0.3598" stroke-linecap="round" stroke-linejoin="round"/>
<path d="M346.856 251.758C349.52 258.689 352.728 273.596 350.594 282.117C349.491 286.542 345.796 295.836 342.517 303.756L423.958 346.316C423.872 329.361 424.087 302.596 426.249 297.626C429.443 290.165 455.019 219.851 453.458 203.87C451.898 187.888 420.965 164.975 420.965 164.975L425.705 126.023L397.479 143.079C397.479 143.079 394.272 158.516 391.078 162.254C387.885 165.992 361.778 171.305 354.317 180.871C346.856 190.437 349.52 219.765 349.52 221.355C349.52 222.945 344.192 244.884 346.856 251.758Z" fill="white"/>
<g style="mix-blend-mode:multiply" opacity="0.5">
<path d="M453.416 203.812C451.812 187.831 420.922 164.918 420.922 164.918L425.705 126.023L397.479 143.079C397.479 143.079 396.549 147.532 395.202 152.244C397.021 152.086 399.055 151.829 401.332 151.428C412.101 149.523 417.815 145.699 417.815 145.699L412.086 169.787C412.086 169.787 441.243 186.971 448.847 207.822C449.878 210.686 450.981 213.364 452.112 216.028C453.076 212.03 453.515 207.923 453.416 203.812V203.812Z" fill="#92E3A9"/>
</g>
<path d="M346.856 251.758C349.52 258.689 352.728 273.596 350.594 282.117C349.491 286.542 345.796 295.836 342.517 303.756L423.958 346.316C423.872 329.361 424.087 302.596 426.249 297.626C429.443 290.165 455.019 219.851 453.458 203.87C451.898 187.888 420.965 164.975 420.965 164.975L425.705 126.023L397.479 143.079C397.479 143.079 394.272 158.516 391.078 162.254C387.885 165.992 361.778 171.305 354.317 180.871C346.856 190.437 349.52 219.765 349.52 221.355C349.52 222.945 344.192 244.884 346.856 251.758Z" stroke="#263238" stroke-width="0.719599" stroke-linecap="round" stroke-linejoin="round"/>
<path d="M346.856 251.757C349.52 258.688 352.728 273.596 350.594 282.117C349.491 286.542 345.796 295.836 342.517 303.755L423.958 346.316C423.872 329.36 424.087 302.595 426.249 297.626C429.443 290.165 455.019 219.851 453.458 203.869C452.47 193.917 440.126 181.3 430.947 173.18C421.91 182.761 402.305 200.633 387.985 192.671C375.096 185.51 375.913 174.627 377.817 168.154C369.11 171.362 358.699 175.457 354.417 180.956C346.956 190.551 349.62 219.851 349.62 221.441C349.62 223.03 344.192 244.883 346.856 251.757Z" fill="#263238" stroke="#263238" stroke-width="0.719599" stroke-linecap="round" stroke-linejoin="round"/>
<path d="M394.429 232.826L376.7 224.505C376.7 224.505 371.702 216.199 368.938 216.199C366.175 216.199 364.499 227.842 364.499 227.842C364.499 227.842 355.09 236.707 358.413 245.571C361.735 254.435 373.922 267.739 388.887 262.756C403.852 257.772 399.413 242.263 399.413 242.263C399.413 242.263 405.513 231.737 405.513 229.518C405.513 227.298 394.429 232.826 394.429 232.826Z" fill="white" stroke="#263238" stroke-width="0.719599" stroke-linecap="round" stroke-linejoin="round"/>
<path d="M356.451 61.0218C356.451 61.0218 360.189 80.2114 359.644 93.5295C359.1 106.848 353.787 112.146 355.348 118.032C356.909 123.918 376.127 145.742 387.842 147.862C399.556 149.981 427.266 131.88 435.257 123.889C443.248 115.898 444.308 104.184 443.248 99.3866C442.188 94.5892 437.921 56.2387 421.939 40.7868C405.957 25.3349 363.912 26.9388 356.451 61.0218Z" fill="white"/>
<g style="mix-blend-mode:multiply" opacity="0.5">
<path d="M422.025 40.7867C416.053 35.0585 406.43 31.6215 396.334 31.4067L395.675 51.2837C395.675 51.2837 392.496 70.9315 403.909 86.7701C415.323 102.609 425.462 107.062 426.722 113.392C427.982 119.722 422.254 126.023 407.704 136.849C402.015 141.155 395.919 144.896 389.503 148.019C401.976 148.463 427.681 131.55 435.329 123.889C443.32 115.898 444.379 104.184 443.319 99.3865C442.26 94.5891 437.964 56.2386 422.025 40.7867Z" fill="#92E3A9"/>
</g>
<path d="M356.451 61.0218C356.451 61.0218 360.189 80.2114 359.644 93.5295C359.1 106.848 353.787 112.146 355.348 118.032C356.909 123.918 376.127 145.742 387.842 147.862C399.556 149.981 427.266 131.88 435.257 123.889C443.248 115.898 444.308 104.184 443.248 99.3866C442.188 94.5892 437.921 56.2387 421.939 40.7868C405.957 25.3349 363.912 26.9388 356.451 61.0218Z" stroke="#263238" stroke-width="0.719599" stroke-linecap="round" stroke-linejoin="round"/>
<path d="M376.7 100.446C376.7 100.446 375.096 110.571 372.404 113.764C374.494 115.588 377.104 116.71 379.865 116.972" stroke="#263238" stroke-width="0.719599" stroke-linecap="round" stroke-linejoin="round"/>
<path d="M377.76 126.023C381.231 127.561 385.013 128.267 388.805 128.083C392.597 127.899 396.293 126.83 399.599 124.963" stroke="#263238" stroke-width="0.719599" stroke-linecap="round" stroke-linejoin="round"/>
<path d="M396.935 95.1193C396.935 96.895 396.105 98.3271 395.074 98.3271C394.042 98.3271 393.212 96.895 393.212 95.1193C393.212 93.3435 394.042 91.9258 395.074 91.9258C396.105 91.9258 396.935 93.3578 396.935 95.1193Z" fill="#263238"/>
<path d="M370.571 90.8661C370.571 92.6275 369.74 94.0596 368.709 94.0596C367.678 94.0596 366.848 92.6275 366.848 90.8661C366.848 89.1047 367.678 87.6726 368.709 87.6726C369.74 87.6726 370.571 89.1047 370.571 90.8661Z" fill="#263238"/>
<path d="M363.382 77.0178C364.876 76.0852 366.542 75.4627 368.281 75.1871C370.021 74.9116 371.798 74.9887 373.507 75.4139" stroke="#263238" stroke-width="0.719599" stroke-linecap="round" stroke-linejoin="round"/>
<path d="M388.415 77.5478C388.415 77.5478 391.608 75.9439 398.539 80.2114" stroke="#263238" stroke-width="0.719599" stroke-linecap="round" stroke-linejoin="round"/>
<path d="M391.608 46.6439C391.608 46.6439 376.7 58.9023 369.239 66.349C361.778 73.7957 358.585 79.1373 347.4 74.3542C336.216 69.5711 328.211 53.0309 343.104 33.3257C357.998 13.6206 386.796 7.74921 415.022 15.7401C443.248 23.731 454.991 41.8465 457.11 61.5659C459.23 81.2853 454.962 103.11 444.938 108.981C434.913 114.853 412.43 90.8658 404.439 75.9438C399.432 66.5135 395.143 56.7191 391.608 46.6439V46.6439Z" fill="#263238" stroke="#263238" stroke-width="0.719599" stroke-linecap="round" stroke-linejoin="round"/>
<path d="M391.608 46.644C391.608 46.644 351.381 52.5728 349.477 61.4945C347.572 70.4162 359.687 67.8814 359.687 67.8814" stroke="white" stroke-width="0.719599" stroke-miterlimit="10"/>
<path d="M344.293 52.5298C341.572 58.3439 343.734 62.1389 343.734 62.1389" stroke="white" stroke-width="0.719599" stroke-miterlimit="10"/>
<path d="M431.777 27.6834C431.777 27.6834 392.854 21.3108 392.854 38.5241C392.854 38.5241 369.253 30.2325 353.945 41.7176C351.647 43.3926 349.539 45.3134 347.658 47.4458" stroke="white" stroke-width="0.719599" stroke-miterlimit="10"/>
<path d="M394.816 42.3621C394.816 42.3621 404.74 74.3828 425.448 82.5599" stroke="white" stroke-width="0.719599" stroke-miterlimit="10"/>
<path d="M415.466 50.9688C423.443 57.5562 434.856 64.0578 448.403 63.4133" stroke="white" stroke-width="0.719599" stroke-miterlimit="10"/>
<path d="M403.064 37.894C404.929 40.4591 406.978 42.8857 409.194 45.1546" stroke="white" stroke-width="0.719599" stroke-miterlimit="10"/>
<path d="M352.728 79.6815L415.051 90.336C415.051 90.336 415.051 99.8162 412.387 104.657C409.723 109.497 406.53 109.554 399.599 109.554C392.668 109.554 383.03 105.258 382.557 103.697C381.455 99.9164 382.199 87.4432 382.199 87.4432L377.23 86.6413C377.23 86.6413 377.875 101.177 375.211 102.781C372.547 104.384 354.962 101.177 351.768 96.9234C348.575 92.6702 350.594 79.1373 352.728 79.6815Z" stroke="#263238" stroke-width="0.719599" stroke-linecap="round" stroke-linejoin="round"/>
<path d="M415.051 90.336L442.761 85.5386V89.2619L415.051 96.1931V90.336Z" fill="#92E3A9" stroke="#263238" stroke-width="0.719599" stroke-linecap="round" stroke-linejoin="round"/>
<path d="M463.212 93.6521C465.376 80.1818 460.301 68.1643 451.875 66.8102C443.449 65.4561 434.864 75.2782 432.699 88.7484C430.534 102.219 435.61 114.236 444.036 115.59C452.461 116.944 461.047 107.122 463.212 93.6521Z" fill="#92E3A9" stroke="#263238" stroke-width="0.719599" stroke-linecap="round" stroke-linejoin="round"/>
<path d="M467.664 94.1883C465.846 105.53 459.53 113.936 453.587 112.977C447.644 112.017 444.279 102.065 446.098 90.7228C447.916 79.3809 454.217 70.989 460.175 71.9485C466.132 72.908 469.483 82.8608 467.664 94.1883Z" fill="#92E3A9" stroke="#263238" stroke-width="0.719599" stroke-linecap="round" stroke-linejoin="round"/>
<path d="M459.258 46.644C460.288 61.5523 458.664 76.5251 454.461 90.8659C454.461 90.8659 453.931 99.4582 461.922 95.6633C469.913 91.8683 468.853 59.4322 467.779 46.1141C466.705 32.796 456.609 36.5193 459.258 46.644Z" fill="white" stroke="#263238" stroke-width="0.719599" stroke-linecap="round" stroke-linejoin="round"/>
<path d="M429.443 21.5974C429.443 21.5974 441.687 18.4039 448.06 29.6026C454.432 40.8013 453.387 50.9116 462.38 51.9714C471.373 53.0311 471.975 42.9208 467.178 30.1325C462.38 17.3442 452.27 7.74944 438.408 6.68971C424.545 5.62999 417.729 16.8144 417.729 16.8144C417.729 16.8144 425.175 17.8741 429.443 21.5974Z" fill="#92E3A9" stroke="#263238" stroke-width="0.719599" stroke-linecap="round" stroke-linejoin="round"/>
<path d="M428.369 220.854L391.608 304.5C391.608 304.5 291.45 323.117 282.399 323.117C273.349 323.117 255.19 329.504 251.495 331.709C247.801 333.915 211.584 350.541 218.558 351.572C222.854 352.216 233.967 346.101 233.967 346.101C233.967 346.101 216.381 354.694 217.971 357.286C219.561 359.878 240.884 349.295 240.884 349.295C240.884 349.295 221.394 360.751 225.389 361.396C229.026 362.04 233.423 359.964 237.161 357.286C240.42 355.285 243.931 353.725 247.6 352.646C247.6 352.646 239.008 358.374 237.991 360.98C236.974 363.587 240.125 362.04 243.318 360.98C249.294 358.403 255.072 355.387 260.603 351.958C262.723 350.355 269.124 347.161 273.392 343.438L281.912 335.977C281.912 335.977 338.908 337.566 364.972 336.507C391.035 335.447 403.866 332.783 413.461 323.188C423.056 313.594 450.222 252.86 456.609 236.348C462.996 219.837 458.743 210.242 452.313 199.115" fill="white"/>
<g style="mix-blend-mode:multiply" opacity="0.5">
<path d="M429.858 275.658C412.673 307.98 398.167 318.119 382.958 325.78C367.75 333.442 284.075 335.289 284.075 335.289L287.598 336.134C302.706 336.507 343.906 337.38 364.929 336.521C391.035 335.461 403.823 332.798 413.418 323.203C423.013 313.608 450.179 252.874 456.566 236.363C459.53 228.716 460.189 222.558 459.43 217.03L455.807 219.307C448.301 238.596 439.635 257.415 429.858 275.658V275.658Z" fill="#92E3A9"/>
</g>
<path d="M428.369 220.854L391.608 304.5C391.608 304.5 291.45 323.117 282.399 323.117C273.349 323.117 255.19 329.504 251.495 331.709C247.801 333.915 211.584 350.541 218.558 351.572C222.854 352.216 233.967 346.101 233.967 346.101C233.967 346.101 216.381 354.694 217.971 357.286C219.561 359.878 240.884 349.295 240.884 349.295C240.884 349.295 221.394 360.751 225.389 361.396C229.026 362.04 233.423 359.964 237.161 357.286C240.42 355.285 243.931 353.725 247.6 352.646C247.6 352.646 239.008 358.374 237.991 360.98C236.974 363.587 240.125 362.04 243.318 360.98C249.294 358.403 255.072 355.387 260.603 351.958C262.723 350.355 269.124 347.161 273.392 343.438L281.912 335.977C281.912 335.977 338.908 337.566 364.972 336.507C391.035 335.447 403.866 332.783 413.461 323.188C423.056 313.594 450.222 252.86 456.609 236.348C462.996 219.837 458.743 210.242 452.313 199.115" stroke="#263238" stroke-width="0.719599" stroke-miterlimit="10"/>
<path d="M427.753 218.749L416.569 247.748C424.789 243.366 440.212 237.48 452.513 246.316C454.246 242.249 455.664 238.812 456.609 236.363C463.01 219.851 458.743 210.256 452.313 199.129" fill="#263238"/>
<path d="M427.753 218.749L416.569 247.748C424.789 243.366 440.212 237.48 452.513 246.316C454.246 242.249 455.664 238.812 456.609 236.363C463.01 219.851 458.743 210.256 452.313 199.129" stroke="#263238" stroke-width="0.719599" stroke-linecap="round" stroke-linejoin="round"/>
<path d="M348.603 257.228C337.791 260.393 295.087 272.894 291.121 273.825C288.664 274.423 286.172 274.868 283.66 275.157C283.66 275.157 268.737 268.756 264.742 265.834C260.747 262.913 255.949 264.76 253.558 265.834C251.166 266.909 249.261 274.355 253.83 274.355C258.398 274.355 259.157 274.083 264.212 278.351C269.267 282.618 269.282 284.752 273.005 286.342C276.728 287.931 282.872 286.871 286.065 286.342C288.929 285.869 338.45 282.575 350.637 281.931C352.226 275.229 350.637 264.76 348.603 257.228Z" fill="white"/>
<g style="mix-blend-mode:multiply" opacity="0.5">
<path d="M350.307 264.932L286.065 286.413C288.929 285.941 338.45 282.647 350.637 282.003C351.725 277.334 351.324 270.961 350.307 264.932Z" fill="#92E3A9"/>
</g>
<path d="M348.603 257.228C337.791 260.393 295.087 272.894 291.121 273.825C288.664 274.423 286.172 274.868 283.66 275.157C283.66 275.157 268.737 268.756 264.742 265.834C260.747 262.913 255.949 264.76 253.558 265.834C251.166 266.909 249.261 274.355 253.83 274.355C258.398 274.355 259.157 274.083 264.212 278.351C269.267 282.618 269.282 284.752 273.005 286.342C276.728 287.931 282.872 286.871 286.065 286.342C288.929 285.869 338.45 282.575 350.637 281.931C352.226 275.229 350.637 264.76 348.603 257.228Z" stroke="#263238" stroke-width="0.719599" stroke-linecap="round" stroke-linejoin="round"/>
<path d="M241.829 274.627C241.829 274.627 236.23 277.821 234.669 281.544C233.108 285.268 236.258 284.208 237.332 283.42C238.406 282.633 242.932 278.881 242.932 278.881L241.829 274.627Z" fill="white" stroke="#263238" stroke-width="0.719599" stroke-linecap="round" stroke-linejoin="round"/>
<path d="M243.433 271.949C242.384 272.622 241.555 273.586 241.046 274.723C240.538 275.86 240.372 277.121 240.569 278.351C241.099 282.876 245.896 289.535 246.44 286.872C246.984 284.208 243.433 271.949 243.433 271.949Z" fill="white" stroke="#263238" stroke-width="0.719599" stroke-linecap="round" stroke-linejoin="round"/>
<path d="M250.092 267.954C250.092 267.954 245.023 269.286 243.433 271.95C241.843 274.613 244.493 286.084 246.369 286.872C246.767 287.05 247.2 287.136 247.636 287.122C248.072 287.108 248.499 286.994 248.885 286.789C249.27 286.585 249.604 286.295 249.86 285.942C250.117 285.589 250.289 285.182 250.364 284.752C250.894 282.876 250.092 267.954 250.092 267.954Z" fill="white" stroke="#263238" stroke-width="0.719599" stroke-linecap="round" stroke-linejoin="round"/>
<path d="M256.493 265.29C256.493 265.29 249.82 265.29 249.032 268.498C248.245 271.706 246.899 285.54 248.23 287.673C249.562 289.807 251.696 289.005 252.756 286.342C253.815 283.678 256.493 265.29 256.493 265.29Z" fill="white" stroke="#263238" stroke-width="0.719599" stroke-linecap="round" stroke-linejoin="round"/>
<path d="M262.551 240.473L251.61 290.294L253.329 296.653C253.354 296.75 253.405 296.839 253.476 296.91C253.548 296.982 253.636 297.033 253.734 297.059C253.831 297.085 253.933 297.086 254.031 297.059C254.128 297.033 254.217 296.982 254.288 296.91L259.071 292.156L267.062 241.805L262.551 240.473Z" fill="#263238"/>
<path d="M273.277 280.685C273.277 280.685 267.148 283.091 262.35 285.225C257.553 287.358 252.756 288.418 253.286 291.354C253.815 294.29 255.949 293.216 259.415 292.156C264.17 290.497 269.084 289.336 274.079 288.69C280.738 287.888 286.065 281.759 286.065 281.759" fill="white"/>
<path d="M273.277 280.685C273.277 280.685 267.148 283.091 262.35 285.225C257.553 287.358 252.756 288.418 253.286 291.354C253.815 294.29 255.949 293.216 259.415 292.156C264.17 290.497 269.084 289.336 274.079 288.69C280.738 287.888 286.065 281.759 286.065 281.759" stroke="#263238" stroke-width="0.719599" stroke-linecap="round" stroke-linejoin="round"/>
<path d="M251.753 291.067L252.87 295.765C252.925 295.991 253.038 296.199 253.198 296.368C253.359 296.537 253.56 296.661 253.784 296.728C254.007 296.794 254.243 296.801 254.47 296.748C254.697 296.695 254.906 296.583 255.076 296.423L257.696 293.931" stroke="white" stroke-width="0.3598" stroke-linecap="round" stroke-linejoin="round"/>
<path d="M251.624 290.294L257.281 265.062" stroke="white" stroke-width="0.3598" stroke-linecap="round" stroke-linejoin="round"/>
<path d="M55.9051 191.353L128.152 258.545" stroke="#263238" stroke-width="0.3598" stroke-linecap="round" stroke-linejoin="round"/>
</svg>
