<svg width="2288" height="2024" viewBox="0 0 2288 2024" fill="none" xmlns="http://www.w3.org/2000/svg">
<path d="M1704.68 1285.63H714L744.822 1245.09H1664.82L1704.68 1285.63Z" fill="white" stroke="#263238" stroke-width="0.683299" stroke-linecap="round" stroke-linejoin="round"/>
<path d="M1303.13 1250.63C1292.36 1246.22 1281.94 1241.02 1271.94 1235.06C1271.94 1235.06 1329.58 948.74 1331.74 854.673C1333.89 760.607 1346.69 566.137 1346.69 566.137H1088.6C1088.6 566.137 1101.4 760.668 1103.55 854.673C1105.71 948.678 1151.17 1235.06 1151.17 1235.06C1141.18 1241.03 1130.76 1246.23 1119.98 1250.63C1106.14 1255.86 1088.85 1262.93 1097.46 1266.25C1109.21 1270.03 1121.64 1271.21 1133.88 1269.7C1151.97 1264.89 1169.4 1257.91 1185.81 1248.9C1192.7 1243.74 1201.99 685.797 1201.99 685.797H1220.45C1220.45 685.797 1230.17 1243.74 1237.06 1248.9C1253.48 1257.92 1270.93 1264.9 1289.04 1269.7C1301.27 1271.2 1313.68 1270.03 1325.4 1266.25C1333.89 1262.75 1316.79 1255.86 1303.13 1250.63Z" fill="#263238" stroke="#263238" stroke-width="0.683299" stroke-linecap="round" stroke-linejoin="round"/>
<path d="M1180.52 204.883L1099.25 275.386V576.781H1308.73V273.233L1241.92 206.482L1180.52 204.883Z" fill="white" stroke="#263238" stroke-width="0.683299" stroke-linecap="round" stroke-linejoin="round"/>
<path d="M1230.41 279.201L1209.8 269.726L1194.18 277.109L1207.16 319.251L1185.07 543.559L1205.99 566.137L1230.41 542.636L1215.46 319.251L1230.41 279.201Z" fill="#92E3A9"/>
<path d="M1070.09 260.129L939.415 425.437L1027.82 435.588L1071.26 396.399L1070.09 260.129Z" fill="white" stroke="#263238" stroke-width="0.683299" stroke-linecap="round" stroke-linejoin="round"/>
<path d="M1167.11 203.037L1070.09 260.129V953.416H1173.94V206.482L1167.11 203.037Z" fill="white" stroke="#263238" stroke-width="0.683299" stroke-linecap="round" stroke-linejoin="round"/>
<path d="M1345.83 260.129L1478.28 408.396L1389.88 418.547L1345.09 396.399L1345.83 260.129Z" fill="white" stroke="#263238" stroke-width="0.683299" stroke-linecap="round" stroke-linejoin="round"/>
<path d="M1248.75 203.037L1345.83 260.129V953.416H1241.92V206.482L1248.75 203.037Z" fill="white" stroke="#263238" stroke-width="0.683299" stroke-linecap="round" stroke-linejoin="round"/>
<path d="M1210.36 269.726L1163.72 290.951V229.922H1255.27V290.951L1210.36 269.726Z" fill="white" stroke="#263238" stroke-width="0.683299" stroke-linecap="round" stroke-linejoin="round"/>
<path d="M1255.27 229.922L1209.8 269.726L1165.26 229.922V123.736H1255.27V229.922Z" fill="white" stroke="#263238" stroke-width="0.683299" stroke-linecap="round" stroke-linejoin="round"/>
<g style="mix-blend-mode:multiply">
<path d="M1163.85 192.209L1196.14 229.614H1225.49L1255.27 196.7L1252.44 165.509L1165.26 161.387L1163.85 192.209Z" fill="#E1BEE7"/>
</g>
<path d="M1155.48 95.5586C1155.48 95.5586 1138.81 91.1906 1140.47 102.88C1142.13 114.569 1147.17 136.286 1155.54 141.331L1163.85 146.314L1155.48 95.5586Z" fill="white" stroke="#263238" stroke-width="0.683299" stroke-linecap="round" stroke-linejoin="round"/>
<path d="M1267.32 95.5586C1267.32 95.5586 1284 91.1906 1282.34 102.88C1280.68 114.569 1275.63 136.286 1267.32 141.331L1258.96 146.314L1267.32 95.5586Z" fill="white" stroke="#263238" stroke-width="0.683299" stroke-linecap="round" stroke-linejoin="round"/>
<path d="M1275.14 76.1794C1275.19 66.984 1273.24 57.8879 1269.42 49.5203C1265.61 41.1527 1260.02 33.7132 1253.05 27.7166C1246.08 21.7199 1237.89 17.3091 1229.05 14.7893C1220.2 12.2694 1210.92 11.7006 1201.83 13.1222C1192.75 14.5439 1184.08 17.922 1176.43 23.023C1168.78 28.124 1162.33 34.8261 1157.52 42.6657C1152.71 50.5053 1149.67 59.2954 1148.59 68.4279C1147.52 77.5604 1148.44 86.8174 1151.3 95.5587L1167.41 171.538L1196.94 212.942H1225.43L1254.04 176.89L1271.51 97.3429C1273.91 90.5459 1275.14 83.3889 1275.14 76.1794V76.1794Z" fill="white" stroke="#263238" stroke-width="0.683299" stroke-linecap="round" stroke-linejoin="round"/>
<path d="M1163.85 88.7911C1163.85 88.7911 1174.06 77.7172 1183.22 81.4085C1192.39 85.0998 1188.82 96.1736 1215.52 98.9421C1230.53 100.766 1245.76 99.1672 1260.07 94.2665L1261.48 71.1344L1163.66 57.7227L1163.85 88.7911Z" fill="#E1BEE7"/>
<path d="M1261.48 71.1348C1257.94 79.0915 1255.69 87.5666 1254.84 96.2355C1256.25 106.576 1259.07 116.676 1263.2 126.258C1263.2 126.258 1283.2 84.5465 1281.66 69.4737C1280.12 54.4009 1260.07 66.1515 1261.48 71.1348Z" fill="#263238" stroke="#263238" stroke-width="0.683299" stroke-linecap="round" stroke-linejoin="round"/>
<path d="M1156.28 122.936C1156.28 122.936 1156.28 120.352 1156.71 116.414C1157.63 105.648 1160.15 84.8539 1166.31 81.1626C1174.67 76.1794 1173.81 49.8482 1173.81 49.8482C1173.81 49.8482 1162.12 63.0138 1202.24 76.3639C1242.35 89.7141 1274.89 84.5463 1296.61 56.1233C1318.33 27.7004 1298.27 7.70586 1294.89 17.7339C1291.5 27.7619 1284.86 41.1121 1273.17 31.0841C1261.48 21.056 1243.15 1 1209.74 1C1176.33 1 1161.32 31.0841 1161.32 31.0841C1155.96 33.6868 1151.41 37.7029 1148.15 42.7002C1144.9 47.6975 1143.07 53.4868 1142.87 59.4455C1143.17 79.5015 1156.28 122.936 1156.28 122.936Z" fill="#263238" stroke="#263238" stroke-width="0.683299" stroke-linecap="round" stroke-linejoin="round"/>
<path d="M1273.78 70.0274C1250.16 70.9502 1230.04 55.0161 1209.49 40.9892C1188.95 26.9623 1175.04 40.9892 1175.04 40.9892C1176.64 33.3567 1180.7 26.4616 1186.61 21.3689C1192.51 16.2762 1199.93 13.2691 1207.71 12.8123C1235.64 11.0282 1244.62 49.3562 1270.71 52.7399" stroke="white" stroke-width="0.34165" stroke-linecap="round" stroke-linejoin="round"/>
<path d="M1207.16 121.521H1151.23L1157.39 139.977C1157.93 141.743 1159.03 143.29 1160.51 144.395C1161.99 145.501 1163.78 146.108 1165.63 146.129H1194.48C1196.41 146.118 1198.28 145.465 1199.8 144.272C1201.31 143.08 1202.39 141.418 1202.85 139.547L1207.16 121.521Z" fill="white" stroke="#263238" stroke-width="0.683299" stroke-linecap="round" stroke-linejoin="round"/>
<path d="M1269.11 121.521H1213.25L1219.4 139.977C1219.93 141.743 1221 143.294 1222.48 144.401C1223.95 145.508 1225.74 146.114 1227.58 146.129H1256.44C1258.37 146.132 1260.26 145.485 1261.78 144.291C1263.31 143.098 1264.4 141.428 1264.86 139.547L1269.11 121.521Z" fill="white" stroke="#263238" stroke-width="0.683299" stroke-linecap="round" stroke-linejoin="round"/>
<path d="M1151.23 121.521L1148.47 94.2666" stroke="#263238" stroke-width="0.683299" stroke-linecap="round" stroke-linejoin="round"/>
<path d="M1269.11 121.521L1275.51 95.6816" stroke="#263238" stroke-width="0.683299" stroke-linecap="round" stroke-linejoin="round"/>
<path d="M1207.16 121.521H1213.25" stroke="#263238" stroke-width="0.683299" stroke-linecap="round" stroke-linejoin="round"/>
<path d="M1205.62 130.257H1215.52" stroke="#263238" stroke-width="0.683299" stroke-linecap="round" stroke-linejoin="round"/>
<path d="M1221.86 165.509C1221.86 165.509 1217.62 171.661 1212.69 171.661C1207.77 171.661 1203.47 165.509 1203.47 165.509" stroke="#263238" stroke-width="0.683299" stroke-linecap="round" stroke-linejoin="round"/>
<path d="M1165.51 203.098L1175.04 291.936L1174.06 491.696L1119.3 303.563L1150.68 289.352L1117.03 274.463L1147.67 211.773L1165.51 203.098Z" fill="white" stroke="#263238" stroke-width="0.683299" stroke-linecap="round" stroke-linejoin="round"/>
<path d="M1255.88 203.098L1242.1 285.722L1242.59 494.588L1302.15 303.563L1270.77 289.352L1304.36 274.463L1273.72 211.773L1255.88 203.098Z" fill="white" stroke="#263238" stroke-width="0.683299" stroke-linecap="round" stroke-linejoin="round"/>
<path d="M1077.84 433.374L1116.04 410.918V432.02L1077.84 433.374Z" fill="white" stroke="#263238" stroke-width="0.683299" stroke-linecap="round" stroke-linejoin="round"/>
<path d="M1265.05 389.939C1265.05 389.939 1250.53 367.545 1245.3 367.545C1240.07 367.545 1228.14 387.294 1230.78 393.938C1233.43 400.582 1247.95 384.71 1247.95 384.71L1258.47 413.687L1265.05 389.939Z" fill="white" stroke="#263238" stroke-width="0.683299" stroke-linecap="round" stroke-linejoin="round"/>
<path d="M1260.07 396.399L1240.32 397.753C1234.77 401.617 1228.49 404.298 1221.86 405.627C1212.63 406.981 1207.34 409.626 1215.28 416.209C1223.21 422.792 1240.32 412.272 1240.32 412.272L1260.07 420.147C1261.67 418.613 1262.95 416.77 1263.82 414.729C1264.69 412.689 1265.14 410.492 1265.14 408.273C1265.14 406.053 1264.69 403.857 1263.82 401.816C1262.95 399.776 1261.67 397.933 1260.07 396.399Z" fill="white" stroke="#263238" stroke-width="0.683299" stroke-linecap="round" stroke-linejoin="round"/>
<path d="M1267.69 435.957C1272.26 440.518 1278.25 443.383 1284.67 444.078C1295.13 445.063 1316.91 428.944 1316.91 428.944L1313.1 411.903L1282.77 402.244L1267.69 435.957Z" fill="white" stroke="#263238" stroke-width="0.683299" stroke-linecap="round" stroke-linejoin="round"/>
<path d="M1265.05 381.941C1265.05 381.941 1245.3 408.273 1245.3 413.563C1245.3 418.854 1261.11 435.957 1267.69 435.957C1272 435.957 1283.26 428.083 1290.46 422.607C1291.33 421.957 1292.07 421.141 1292.64 420.205C1293.2 419.268 1293.57 418.23 1293.73 417.151C1293.89 416.071 1293.83 414.97 1293.57 413.911C1293.3 412.852 1292.83 411.856 1292.18 410.98C1284.67 400.644 1269.85 381.941 1265.05 381.941Z" fill="white" stroke="#263238" stroke-width="0.683299" stroke-linecap="round" stroke-linejoin="round"/>
<path d="M1252.44 423.284L1276.12 392.954" stroke="#263238" stroke-width="0.683299" stroke-linecap="round" stroke-linejoin="round"/>
<path d="M1287.5 408.088L1260.07 431.774" stroke="#263238" stroke-width="0.683299" stroke-linecap="round" stroke-linejoin="round"/>
<path d="M1300.55 404.766V486.467L1458.29 468.01C1465.66 466.985 1472.39 463.281 1477.2 457.607C1482.01 451.933 1484.57 444.686 1484.37 437.25V425.499C1484.3 421.435 1483.4 417.428 1481.75 413.716C1480.09 410.005 1477.71 406.664 1474.73 403.892C1471.76 401.12 1468.26 398.974 1464.44 397.581C1460.62 396.188 1456.56 395.577 1452.51 395.784L1300.55 404.766Z" fill="white" stroke="#263238" stroke-width="0.683299" stroke-linecap="round" stroke-linejoin="round"/>
<path d="M1209.49 520.858H1126.75C1123.88 520.86 1121.13 519.752 1119.07 517.768C1117 515.783 1115.79 513.076 1115.67 510.214L1110.69 374.867C1110.65 373.384 1110.91 371.908 1111.44 370.525C1111.98 369.143 1112.79 367.881 1113.82 366.815C1114.85 365.749 1116.09 364.9 1117.45 364.318C1118.81 363.735 1120.28 363.431 1121.77 363.424H1214.42C1215.9 363.423 1217.37 363.721 1218.74 364.301C1220.11 364.88 1221.35 365.729 1222.38 366.797C1223.41 367.864 1224.22 369.129 1224.76 370.516C1225.29 371.902 1225.54 373.382 1225.49 374.867L1220.51 510.214C1220.41 513.071 1219.21 515.778 1217.15 517.764C1215.1 519.75 1212.35 520.859 1209.49 520.858Z" fill="#263238" stroke="#263238" stroke-width="0.683299" stroke-linecap="round" stroke-linejoin="round"/>
<path d="M1077.84 433.312L1109.46 422.792L1159.6 424.084C1159.6 424.084 1164.83 433.312 1159.6 434.666C1154.37 436.019 1131.92 437.311 1131.92 437.311L1162.25 443.894C1162.25 443.894 1162.25 453.122 1156.95 453.122C1151.66 453.122 1127.92 467.641 1121.33 472.871C1114.75 478.1 1073.9 470.287 1073.9 470.287L1055.44 468.933V435.958L1077.84 433.312Z" fill="white" stroke="#263238" stroke-width="0.683299" stroke-linecap="round" stroke-linejoin="round"/>
<path d="M1065.96 429.374V511.137L944.706 495.326C937.338 494.288 930.606 490.583 925.787 484.914C920.968 479.244 918.396 472.004 918.559 464.565V452.876C918.637 448.817 919.528 444.816 921.18 441.108C922.832 437.401 925.212 434.063 928.178 431.292C931.144 428.521 934.636 426.373 938.448 424.977C942.259 423.58 946.312 422.962 950.366 423.161L1065.96 429.374Z" fill="white" stroke="#263238" stroke-width="0.683299" stroke-linecap="round" stroke-linejoin="round"/>
<path d="M1345.83 642.363H1279.32V661.926H1345.83V642.363Z" fill="white" stroke="#263238" stroke-width="0.683299" stroke-linecap="round" stroke-linejoin="round"/>
<path d="M1136.59 642.363H1070.09V661.926H1136.59V642.363Z" fill="white" stroke="#263238" stroke-width="0.683299" stroke-linecap="round" stroke-linejoin="round"/>
<path d="M1543.68 1264.65V830.373C1543.68 818.341 1546.25 806.449 1551.22 795.49C1556.18 784.531 1563.43 774.757 1572.47 766.821L1655.4 694.287C1664.29 686.504 1671.41 676.913 1676.3 666.154C1681.18 655.395 1683.7 643.718 1683.7 631.904V599.482C1683.7 593.506 1682.52 587.589 1680.24 582.069C1677.95 576.549 1674.59 571.535 1670.36 567.312C1666.14 563.09 1661.12 559.742 1655.59 557.461C1650.07 555.18 1644.15 554.01 1638.18 554.018H1036.07C1024.01 554.018 1012.44 558.808 1003.92 567.334C995.391 575.86 990.601 587.424 990.601 599.482V643.716C990.584 664.8 982.532 685.084 968.084 700.439L894.258 778.756C879.563 794.427 871.381 815.103 871.372 836.586V1264.65" stroke="#263238" stroke-width="3.4165" stroke-linecap="round" stroke-linejoin="round"/>
<path d="M865.405 1007.43V1264.65" stroke="white" stroke-width="0.683299" stroke-linecap="round" stroke-linejoin="round"/>
<path d="M984.449 623.722V643.716C984.432 664.8 976.38 685.084 961.932 700.439L888.106 778.756C873.41 794.427 865.228 815.103 865.22 836.586V969.288" stroke="white" stroke-width="0.683299" stroke-linecap="round" stroke-linejoin="round"/>
<path d="M1055.44 554.018H1029.91C1017.86 554.018 1006.29 558.808 997.765 567.334C989.239 575.86 984.449 587.424 984.449 599.482" stroke="white" stroke-width="0.683299" stroke-linecap="round" stroke-linejoin="round"/>
<path d="M1537.53 1102.73V830.372C1537.53 818.341 1540.1 806.449 1545.07 795.49C1550.03 784.531 1557.28 774.757 1566.32 766.821L1649.25 694.287C1658.14 686.504 1665.26 676.912 1670.14 666.154C1675.02 655.395 1677.55 643.718 1677.55 631.904V599.482" stroke="white" stroke-width="0.683299" stroke-linecap="round" stroke-linejoin="round"/>
<path d="M1537.53 1264.65V1135.83" stroke="white" stroke-width="0.683299" stroke-linecap="round" stroke-linejoin="round"/>
<path d="M950.612 1180.61H780.505V1303.17H950.612V1180.61Z" fill="#92E3A9" stroke="#263238" stroke-width="0.683299" stroke-linecap="round" stroke-linejoin="round"/>
<path d="M950.612 1306.61H780.505V1393.73H950.612V1306.61Z" fill="#92E3A9" stroke="#263238" stroke-width="0.683299" stroke-linecap="round" stroke-linejoin="round"/>
<path d="M1619.78 1306.61H1449.67V1393.73H1619.78V1306.61Z" fill="#92E3A9" stroke="#263238" stroke-width="0.683299" stroke-linecap="round" stroke-linejoin="round"/>
<path d="M916.652 1460.85H814.588L780.566 1393.79H950.674L916.652 1460.85Z" fill="#92E3A9" stroke="#263238" stroke-width="0.683299" stroke-linecap="round" stroke-linejoin="round"/>
<path d="M802.96 1396.19L825.293 1450.14" stroke="#263238" stroke-width="0.683299" stroke-linecap="round" stroke-linejoin="round"/>
<path d="M834.213 1421.1L836.428 1427.32" stroke="#263238" stroke-width="0.683299" stroke-linecap="round" stroke-linejoin="round"/>
<path d="M825.292 1396.19L831.199 1412.74" stroke="#263238" stroke-width="0.683299" stroke-linecap="round" stroke-linejoin="round"/>
<path d="M1585.82 1460.85H1483.7L1449.67 1393.79H1619.84L1585.82 1460.85Z" fill="#92E3A9" stroke="#263238" stroke-width="0.683299" stroke-linecap="round" stroke-linejoin="round"/>
<path d="M1467.58 1396.19L1489.91 1445.83" stroke="#263238" stroke-width="0.683299" stroke-linecap="round" stroke-linejoin="round"/>
<path d="M1489.91 1396.19L1500 1417.66" stroke="#263238" stroke-width="0.683299" stroke-linecap="round" stroke-linejoin="round"/>
<path d="M1584.59 1434.94L1577.02 1450.14" stroke="#263238" stroke-width="0.683299" stroke-linecap="round" stroke-linejoin="round"/>
<path d="M1603.85 1396.19L1588.41 1427.32" stroke="#263238" stroke-width="0.683299" stroke-linecap="round" stroke-linejoin="round"/>
<path d="M1619.78 1180.61H1449.67V1303.17H1619.78V1180.61Z" fill="#92E3A9" stroke="#263238" stroke-width="0.683299" stroke-linecap="round" stroke-linejoin="round"/>
<path d="M966.115 1303.1H1434.29V1371.39C1434.29 1387.71 1427.81 1403.36 1416.28 1414.9C1404.74 1426.43 1389.09 1432.91 1372.77 1432.91H1027.02C1010.71 1432.91 995.057 1426.43 983.519 1414.9C971.982 1403.36 965.5 1387.71 965.5 1371.39V1303.1H966.115Z" fill="#92E3A9" stroke="#263238" stroke-width="0.683299" stroke-linecap="round" stroke-linejoin="round"/>
<path d="M1704.68 1285.63H714V1362.66H1704.68V1285.63Z" fill="#92E3A9" stroke="#263238" stroke-width="0.683299" stroke-linecap="round" stroke-linejoin="round"/>
<path d="M714 1332.02H1017.42L1103.43 1308.33H1522.33L1542.14 1288.46" stroke="#263238" stroke-width="0.683299" stroke-linecap="round" stroke-linejoin="round"/>
<path d="M200.704 1870.41L644.336 1865.73L1659.44 1850.97L2054.29 1817.38L2123.5 1831.04C2123.5 1831.04 2161.58 1799.91 2158.63 1721.47C2155.68 1643.03 2094.71 1512.29 1908.79 1500.67C1722.87 1489.04 1618.22 1611.03 1574.67 1672.06C1531.11 1733.09 685.556 1750.5 685.556 1750.5C685.556 1750.5 668.145 1579.11 514.157 1538.44C360.168 1497.77 261.426 1550.07 203.35 1613.74C145.273 1677.42 162.684 1843.28 162.684 1843.28L200.704 1870.41Z" fill="#263238" stroke="#263238" stroke-width="0.683299" stroke-linecap="round" stroke-linejoin="round"/>
<path d="M908.879 1318.07C908.879 1318.07 948.007 1309.95 951.267 1329.51C954.528 1349.08 952.928 1358.86 943.146 1363.72C928.182 1369.96 911.578 1371.11 895.898 1366.98C892.231 1366.08 888.857 1364.25 886.098 1361.67C883.34 1359.09 881.288 1355.84 880.141 1352.25C878.993 1348.65 878.787 1344.82 879.542 1341.12C880.297 1337.42 881.989 1333.97 884.455 1331.11C891.385 1324.8 899.78 1320.32 908.879 1318.07V1318.07Z" fill="white" stroke="#263238" stroke-width="0.683299" stroke-linecap="round" stroke-linejoin="round"/>
<path d="M2285.73 1590.18C2282.47 1577.14 2218.92 1542.93 2218.92 1542.93C2218.92 1542.93 2160.23 1456.8 2127.68 1425.61C2109.92 1408.41 2090.85 1392.62 2070.65 1378.36C2070.65 1378.36 2140.73 1371.84 2140.73 1360.46C2140.73 1349.08 2124.42 1347.41 2112.98 1344.15C2101.54 1340.89 2018.48 1342.55 2018.48 1342.55H1547.6L1083.23 1368.58L939.886 1378.36C939.886 1378.36 933.365 1360.46 920.322 1360.46C909.394 1360.08 898.502 1358.99 887.716 1357.2C887.716 1357.2 881.194 1342.55 904.019 1321.33C926.843 1300.1 1044.16 1228.49 1044.16 1228.49C1043.3 1217.51 1038.69 1207.15 1031.12 1199.15C1023.13 1190.28 1013.04 1183.55 1001.78 1179.58L949.668 1171.46C941.485 1171.46 814.32 1239.88 633.57 1380.02C633.57 1380.02 389.145 1399.58 268.562 1440.31C147.98 1481.04 94.2102 1525.03 69.7861 1586.92C69.7861 1586.92 73.0468 1608.14 66.5255 1614.66C60.0042 1621.19 16.0163 1635.83 6.23434 1652.13C-3.54759 1668.43 14.4167 1790.62 14.4167 1790.62C14.4167 1790.62 -5.14714 1803.66 2.97371 1816.76C11.0946 1829.87 66.5255 1854.23 112.175 1862.35C140.625 1867.34 169.424 1870.08 198.305 1870.53H200.52C195.597 1846.42 193.226 1821.87 193.445 1797.26C192.949 1767.2 198.441 1737.35 209.601 1709.43C220.761 1681.52 237.365 1656.11 258.446 1634.68C279.527 1613.25 304.663 1596.23 332.388 1584.61C360.114 1572.99 389.875 1567.01 419.936 1567.01C449.998 1567.01 479.759 1572.99 507.484 1584.61C535.21 1596.23 560.345 1613.25 581.426 1634.68C602.507 1656.11 619.111 1681.52 630.271 1709.43C641.431 1737.35 646.923 1767.2 646.428 1797.26C646.428 1822.79 645.628 1845.49 644.152 1865.86H662.608L739.203 1861L1659.01 1851.28C1657.41 1834.85 1656.55 1816.95 1656.55 1797.44C1656.05 1766.32 1661.74 1735.4 1673.31 1706.49C1684.87 1677.58 1702.07 1651.27 1723.91 1629.08C1745.74 1606.88 1771.78 1589.26 1800.49 1577.23C1829.21 1565.2 1860.03 1559 1891.16 1559C1922.3 1559 1953.12 1565.2 1981.83 1577.23C2010.55 1589.26 2036.58 1606.88 2058.42 1629.08C2080.25 1651.27 2097.46 1677.58 2109.02 1706.49C2120.58 1735.4 2126.28 1766.32 2125.78 1797.44C2125.77 1808.79 2124.95 1820.12 2123.32 1831.34L2207.23 1813.75L2275.7 1740.41C2280.86 1728 2283.62 1714.73 2283.82 1701.29C2284.07 1679.82 2288.99 1603.22 2285.73 1590.18Z" fill="white"/>
<path d="M2284.07 1700.98C2284.07 1690.52 2285.24 1666.65 2286.1 1643.52C1942.44 1424.32 1741.08 1539.92 1483.68 1613.74C1204.67 1693.72 862.307 1558.37 548.547 1527.61C372.595 1510.39 190.861 1564.52 65.172 1615.77C55.3901 1622.72 15.5241 1636.69 6.23434 1652.13C-3.05542 1667.57 14.4167 1790.62 14.4167 1790.62C14.4167 1790.62 -5.14714 1803.66 2.97371 1816.76C11.0946 1829.87 66.5255 1854.23 112.175 1862.35C140.625 1867.34 169.424 1870.08 198.305 1870.53H200.52C195.597 1846.42 193.226 1821.87 193.445 1797.26C192.949 1767.2 198.441 1737.35 209.601 1709.43C220.761 1681.52 237.365 1656.11 258.446 1634.68C279.527 1613.25 304.663 1596.23 332.388 1584.61C360.114 1572.99 389.875 1567.01 419.936 1567.01C449.998 1567.01 479.759 1572.99 507.484 1584.61C535.21 1596.23 560.345 1613.25 581.426 1634.68C602.507 1656.11 619.111 1681.52 630.271 1709.43C641.431 1737.35 646.923 1767.2 646.428 1797.26C646.428 1822.79 645.628 1845.49 644.152 1865.86H662.608L739.202 1861L1659.01 1851.28C1657.41 1834.85 1656.55 1816.95 1656.55 1797.44C1656.05 1766.32 1661.74 1735.4 1673.31 1706.49C1684.87 1677.58 1702.07 1651.27 1723.91 1629.08C1745.74 1606.88 1771.78 1589.26 1800.49 1577.23C1829.21 1565.2 1860.03 1559 1891.16 1559C1922.3 1559 1953.12 1565.2 1981.83 1577.23C2010.55 1589.26 2036.58 1606.88 2058.42 1629.08C2080.25 1651.27 2097.46 1677.58 2109.02 1706.49C2120.58 1735.4 2126.28 1766.32 2125.78 1797.44C2125.77 1808.79 2124.95 1820.12 2123.31 1831.34L2207.23 1813.75L2275.7 1740.41C2280.99 1727.92 2283.83 1714.54 2284.07 1700.98V1700.98Z" fill="#92E3A9"/>
<path opacity="0.5" d="M2284.07 1700.98C2284.07 1690.52 2285.24 1666.65 2286.1 1643.52C1942.44 1424.32 1741.08 1539.92 1483.68 1613.74C1204.67 1693.72 862.307 1558.37 548.547 1527.61C372.595 1510.39 190.861 1564.52 65.172 1615.77C55.3901 1622.72 15.5241 1636.69 6.23434 1652.13C-3.05542 1667.57 14.4167 1790.62 14.4167 1790.62C14.4167 1790.62 -5.14714 1803.66 2.97371 1816.76C11.0946 1829.87 66.5255 1854.23 112.175 1862.35C140.625 1867.34 169.424 1870.08 198.305 1870.53H200.52C195.597 1846.42 193.226 1821.87 193.445 1797.26C192.949 1767.2 198.441 1737.35 209.601 1709.43C220.761 1681.52 237.365 1656.11 258.446 1634.68C279.527 1613.25 304.663 1596.23 332.388 1584.61C360.114 1572.99 389.875 1567.01 419.936 1567.01C449.998 1567.01 479.759 1572.99 507.484 1584.61C535.21 1596.23 560.345 1613.25 581.426 1634.68C602.507 1656.11 619.111 1681.52 630.271 1709.43C641.431 1737.35 646.923 1767.2 646.428 1797.26C646.428 1822.79 645.628 1845.49 644.152 1865.86H662.608L739.202 1861L1659.01 1851.28C1657.41 1834.85 1656.55 1816.95 1656.55 1797.44C1656.05 1766.32 1661.74 1735.4 1673.31 1706.49C1684.87 1677.58 1702.07 1651.27 1723.91 1629.08C1745.74 1606.88 1771.78 1589.26 1800.49 1577.23C1829.21 1565.2 1860.03 1559 1891.16 1559C1922.3 1559 1953.12 1565.2 1981.83 1577.23C2010.55 1589.26 2036.58 1606.88 2058.42 1629.08C2080.25 1651.27 2097.46 1677.58 2109.02 1706.49C2120.58 1735.4 2126.28 1766.32 2125.78 1797.44C2125.77 1808.79 2124.95 1820.12 2123.31 1831.34L2207.23 1813.75L2275.7 1740.41C2280.99 1727.92 2283.83 1714.54 2284.07 1700.98V1700.98Z" fill="white"/>
<path d="M2285.73 1590.18C2282.47 1577.14 2218.92 1542.93 2218.92 1542.93C2218.92 1542.93 2160.23 1456.8 2127.68 1425.61C2109.92 1408.41 2090.85 1392.62 2070.65 1378.36C2070.65 1378.36 2140.73 1371.84 2140.73 1360.46C2140.73 1349.08 2124.42 1347.41 2112.98 1344.15C2101.54 1340.89 2018.48 1342.55 2018.48 1342.55H1547.6L1083.23 1368.58L939.886 1378.36C939.886 1378.36 933.365 1360.46 920.322 1360.46C909.394 1360.08 898.502 1358.99 887.716 1357.2C887.716 1357.2 881.194 1342.55 904.019 1321.33C926.843 1300.1 1044.16 1228.49 1044.16 1228.49C1043.3 1217.51 1038.69 1207.15 1031.12 1199.15C1023.13 1190.28 1013.04 1183.55 1001.78 1179.58L949.668 1171.46C941.485 1171.46 814.32 1239.88 633.57 1380.02C633.57 1380.02 389.145 1399.58 268.562 1440.31C147.98 1481.04 94.2102 1525.03 69.7861 1586.92C69.7861 1586.92 73.0468 1608.14 66.5255 1614.66C60.0042 1621.19 16.0163 1635.83 6.23434 1652.13C-3.54759 1668.43 14.4167 1790.62 14.4167 1790.62C14.4167 1790.62 -5.14714 1803.66 2.97371 1816.76C11.0946 1829.87 66.5255 1854.23 112.175 1862.35C140.625 1867.34 169.424 1870.08 198.305 1870.53H200.52C195.597 1846.42 193.226 1821.87 193.445 1797.26C192.949 1767.2 198.441 1737.35 209.601 1709.43C220.761 1681.52 237.365 1656.11 258.446 1634.68C279.527 1613.25 304.663 1596.23 332.388 1584.61C360.114 1572.99 389.875 1567.01 419.936 1567.01C449.998 1567.01 479.759 1572.99 507.484 1584.61C535.21 1596.23 560.345 1613.25 581.426 1634.68C602.507 1656.11 619.111 1681.52 630.271 1709.43C641.431 1737.35 646.923 1767.2 646.428 1797.26C646.428 1822.79 645.628 1845.49 644.152 1865.86H662.608L739.203 1861L1659.01 1851.28C1657.41 1834.85 1656.55 1816.95 1656.55 1797.44C1656.05 1766.32 1661.74 1735.4 1673.31 1706.49C1684.87 1677.58 1702.07 1651.27 1723.91 1629.08C1745.74 1606.88 1771.78 1589.26 1800.49 1577.23C1829.21 1565.2 1860.03 1559 1891.16 1559C1922.3 1559 1953.12 1565.2 1981.83 1577.23C2010.55 1589.26 2036.58 1606.88 2058.42 1629.08C2080.25 1651.27 2097.46 1677.58 2109.02 1706.49C2120.58 1735.4 2126.28 1766.32 2125.78 1797.44C2125.77 1808.79 2124.95 1820.12 2123.32 1831.34L2207.23 1813.75L2275.7 1740.41C2280.86 1728 2283.62 1714.73 2283.82 1701.29C2284.07 1679.82 2288.99 1603.22 2285.73 1590.18Z" stroke="#263238" stroke-width="0.683299" stroke-linecap="round" stroke-linejoin="round"/>
<path d="M983.874 1221.97C983.874 1221.97 825.825 1313.21 747.631 1420.75L2029.93 1352.34L1948.04 1342.55H1547.6L1083.23 1368.58L939.886 1378.36C939.886 1378.36 933.364 1360.46 920.322 1360.46C909.394 1360.08 898.502 1358.99 887.716 1357.2C887.716 1357.2 881.194 1342.55 904.019 1321.33C926.843 1300.1 1044.16 1228.49 1044.16 1228.49C1043.3 1217.51 1038.69 1207.15 1031.12 1199.15C1023.13 1190.28 1013.04 1183.55 1001.78 1179.58L949.668 1171.46C949.668 1171.46 983.874 1192.63 983.874 1221.97Z" fill="white" stroke="#263238" stroke-width="0.683299" stroke-linecap="round" stroke-linejoin="round"/>
<path d="M1296.28 1261.04C1289.22 1260.31 1282.14 1262.26 1276.45 1266.5C1270.75 1270.73 1266.85 1276.95 1265.52 1283.92C1262.91 1296.23 1261.41 1308.75 1261.03 1321.33C1261.03 1345.94 1296.9 1363.72 1296.9 1363.72L1278.93 1389.8L1353.93 1386.54C1353.98 1379.88 1352.88 1373.26 1350.67 1366.98L1347.41 1360.46C1347.41 1360.46 1357.19 1349.08 1340.88 1314.81C1324.58 1280.54 1310.12 1262.7 1296.9 1261.04H1296.28Z" fill="#263238" stroke="#263238" stroke-width="0.683299" stroke-linecap="round" stroke-linejoin="round"/>
<path d="M1604.63 1344.15L1629.24 1370.24L1963.3 1360.46L2007.29 1357.2C2007.29 1357.2 2025.19 1357.2 2018.67 1342.55C2016.5 1338.16 2013.29 1334.38 2009.3 1331.53C2005.32 1328.69 2000.7 1326.87 1995.84 1326.25C1995.84 1326.25 1989.32 1306.69 1981.2 1300.17C1975.85 1295.23 1968.91 1292.35 1961.64 1292.05C1956.78 1292.05 1948.59 1265.96 1937.03 1265.96C1925.46 1265.96 1889.78 1279 1884.86 1282.26C1879.94 1285.52 1847.39 1256.18 1824.63 1261.04C1801.87 1265.9 1673.1 1319.73 1656.8 1326.25C1640.49 1332.77 1604.63 1344.15 1604.63 1344.15Z" fill="#263238" stroke="#263238" stroke-width="0.683299" stroke-linecap="round" stroke-linejoin="round"/>
<path d="M1757.81 1332.77C1757.81 1332.77 1754.55 1254.58 1744.77 1246.64C1734.99 1238.71 1717.09 1230.34 1710.57 1235.26L1704.05 1240.12C1704.05 1240.12 1695.86 1230.34 1681.22 1238.52C1666.58 1246.7 1660.06 1284.11 1660.06 1300.41C1660.13 1305.3 1661.18 1310.12 1663.13 1314.6C1665.09 1319.07 1667.91 1323.12 1671.44 1326.5L1643.75 1342.8L1658.4 1365.56L1757.81 1332.77Z" fill="#263238" stroke="#263238" stroke-width="0.683299" stroke-linecap="round" stroke-linejoin="round"/>
<path d="M939.886 1378.36C939.886 1378.36 933.364 1360.46 920.322 1360.46C909.394 1360.08 898.502 1358.99 887.716 1357.2C887.716 1357.2 881.194 1342.55 904.019 1321.33C926.843 1300.1 1044.16 1228.49 1044.16 1228.49C1043.3 1217.51 1038.69 1207.15 1031.12 1199.15C1023.13 1190.28 1013.04 1183.55 1001.78 1179.58L949.668 1171.46C949.668 1171.46 983.874 1192.63 983.874 1221.97C983.874 1221.97 825.825 1313.21 747.631 1420.75L957.481 1409.55L939.886 1378.36Z" fill="#263238" stroke="#263238" stroke-width="0.683299" stroke-linecap="round" stroke-linejoin="round"/>
<path d="M822.564 1340.89C822.564 1340.89 847.173 1334.37 861.63 1347.41C876.088 1360.46 881.194 1391.4 873.073 1396.63C864.952 1401.86 829.085 1401.49 829.085 1401.49L846.988 1417.8L806.261 1419.39L804.6 1401.49C804.6 1401.49 781.837 1386.85 785.097 1368.89C788.358 1350.92 822.564 1340.89 822.564 1340.89Z" fill="white" stroke="#263238" stroke-width="0.683299" stroke-linecap="round" stroke-linejoin="round"/>
<path d="M2163.49 1469.6C2163.49 1469.6 2073.91 1402.85 1912.6 1422.35C1751.29 1441.85 1624.19 1502.33 1572.08 1761.27" stroke="#263238" stroke-width="0.683299" stroke-linecap="round" stroke-linejoin="round"/>
<path d="M1589.98 1802C1589.98 1802 1604.63 1792.22 1599.77 1782.43C1596.17 1775.6 1590.78 1769.88 1584.18 1765.87C1577.58 1761.86 1570.02 1759.72 1562.3 1759.67C1542.74 1759.67 729.667 1787.36 729.667 1787.36L734.588 1823.16L1589.98 1802Z" stroke="#263238" stroke-width="0.683299" stroke-linecap="round" stroke-linejoin="round"/>
<path d="M729.667 1787.36C729.667 1787.36 729.667 1691.2 697.122 1629.31C664.577 1567.42 617.144 1510.39 504.805 1469.35C392.467 1428.32 193.629 1495.44 193.629 1495.44C145.983 1516.44 105.706 1551.22 77.9686 1595.29L71.4473 1606.67" stroke="#263238" stroke-width="0.683299" stroke-linecap="round" stroke-linejoin="round"/>
<path d="M162.191 1589.81C128.847 1620.57 92.9182 1636.07 82.2134 1624.2C71.5087 1612.33 89.2884 1577.63 122.633 1546.74C155.978 1515.86 191.845 1500.48 202.611 1512.35C213.377 1524.23 195.475 1558.93 162.191 1589.81Z" stroke="#263238" stroke-width="0.683299" stroke-linecap="round" stroke-linejoin="round"/>
<path d="M6.17285 1722.2C9.43349 1756.72 14.4168 1790.62 14.4168 1790.62C14.4168 1790.62 61.6653 1805.26 77.9686 1803.66C94.2718 1802.06 100.732 1797.14 107.253 1769.45C113.774 1741.77 99.132 1731.92 99.132 1731.92L6.23439 1722.14L6.17285 1722.2Z" fill="#263238" stroke="#263238" stroke-width="0.683299" stroke-linecap="round" stroke-linejoin="round"/>
<path d="M1375.7 1511.98H1359.4C1352.72 1511.97 1346.31 1509.31 1341.58 1504.58C1336.86 1499.85 1334.19 1493.45 1334.18 1486.76V1486.76C1334.18 1480.07 1336.83 1473.64 1341.56 1468.9C1346.29 1464.16 1352.71 1461.49 1359.4 1461.48H1375.7C1379.03 1461.48 1382.31 1462.13 1385.38 1463.4C1388.45 1464.67 1391.24 1466.53 1393.58 1468.88C1395.93 1471.23 1397.79 1474.02 1399.07 1477.08C1400.34 1480.15 1400.99 1483.44 1400.99 1486.76C1400.97 1493.46 1398.3 1499.87 1393.56 1504.6C1388.82 1509.33 1382.4 1511.99 1375.7 1511.98V1511.98Z" fill="white" stroke="#263238" stroke-width="0.683299" stroke-linecap="round" stroke-linejoin="round"/>
<path d="M1332.52 1497.53C1329.43 1497.53 1326.47 1496.3 1324.29 1494.12C1322.11 1491.94 1320.89 1488.98 1320.89 1485.9C1320.89 1482.82 1322.11 1479.86 1324.29 1477.68C1326.47 1475.5 1329.43 1474.27 1332.52 1474.27L1420.49 1472.67C1423.56 1472.66 1426.51 1473.84 1428.71 1475.96C1430.92 1478.09 1432.21 1480.99 1432.3 1484.05C1432.34 1485.58 1432.07 1487.1 1431.51 1488.52C1430.96 1489.95 1430.13 1491.25 1429.07 1492.35C1428.02 1493.45 1426.75 1494.34 1425.35 1494.95C1423.96 1495.56 1422.45 1495.9 1420.92 1495.93L1332.95 1497.53H1332.52Z" fill="white" stroke="#263238" stroke-width="0.683299" stroke-linecap="round" stroke-linejoin="round"/>
<path d="M1924.85 1993.6C2027.31 1977.04 2096.95 1880.56 2080.39 1778.1C2063.83 1675.64 1967.34 1606 1864.88 1622.56C1762.42 1639.12 1692.79 1735.6 1709.35 1838.06C1725.9 1940.52 1822.39 2010.16 1924.85 1993.6Z" fill="#263238" stroke="#263238" stroke-width="0.685244" stroke-linecap="round" stroke-linejoin="round"/>
<path d="M1912.21 1924.11C1982.36 1912.65 2029.93 1846.49 2018.47 1776.34C2007.01 1706.19 1940.85 1658.61 1870.7 1670.07C1800.55 1681.54 1752.97 1747.7 1764.43 1817.85C1775.89 1888 1842.06 1935.57 1912.21 1924.11Z" fill="white" stroke="#263238" stroke-width="0.683299" stroke-linecap="round" stroke-linejoin="round"/>
<path d="M1945.53 1851.3C1975.44 1821.39 1975.44 1772.89 1945.53 1742.98C1915.62 1713.07 1867.12 1713.07 1837.21 1742.98C1807.3 1772.89 1807.3 1821.39 1837.21 1851.3C1867.12 1881.22 1915.62 1881.22 1945.53 1851.3Z" stroke="#263238" stroke-width="0.683299" stroke-linecap="round" stroke-linejoin="round"/>
<path d="M1925.65 1797.14C1925.66 1790.36 1923.66 1783.73 1919.9 1778.08C1916.14 1772.44 1910.8 1768.04 1904.53 1765.43C1898.27 1762.83 1891.38 1762.14 1884.73 1763.46C1878.08 1764.77 1871.97 1768.03 1867.17 1772.82C1862.37 1777.61 1859.1 1783.72 1857.77 1790.37C1856.45 1797.02 1857.12 1803.91 1859.71 1810.18C1862.31 1816.44 1866.7 1821.8 1872.33 1825.56C1877.97 1829.33 1884.6 1831.34 1891.38 1831.34C1895.88 1831.35 1900.33 1830.47 1904.49 1828.76C1908.64 1827.04 1912.42 1824.52 1915.61 1821.35C1918.79 1818.17 1921.31 1814.4 1923.04 1810.24C1924.76 1806.09 1925.65 1801.63 1925.65 1797.14V1797.14Z" stroke="#263238" stroke-width="0.683299" stroke-linecap="round" stroke-linejoin="round"/>
<path d="M448.956 1991.04C551.416 1974.48 621.053 1878 604.493 1775.54C587.934 1673.08 491.45 1603.44 388.989 1620C286.529 1636.56 216.893 1733.04 233.452 1835.5C250.011 1937.96 346.495 2007.6 448.956 1991.04Z" fill="#263238" stroke="#263238" stroke-width="0.685244" stroke-linecap="round" stroke-linejoin="round"/>
<path d="M449.752 1922.43C518.898 1905.96 561.598 1836.55 545.125 1767.4C528.652 1698.26 459.244 1655.56 390.099 1672.03C320.953 1688.5 278.253 1757.91 294.726 1827.06C311.199 1896.2 380.606 1938.9 449.752 1922.43Z" fill="white" stroke="#263238" stroke-width="0.683299" stroke-linecap="round" stroke-linejoin="round"/>
<path d="M437.986 1871.57C479.143 1861.79 504.583 1820.5 494.809 1779.34C485.034 1738.19 443.746 1712.75 402.588 1722.52C361.431 1732.3 335.991 1773.58 345.765 1814.74C355.54 1855.9 396.828 1881.34 437.986 1871.57Z" stroke="#263238" stroke-width="0.683299" stroke-linecap="round" stroke-linejoin="round"/>
<path d="M454.296 1797.14C454.296 1790.37 452.29 1783.76 448.531 1778.13C444.773 1772.51 439.431 1768.12 433.18 1765.54C426.93 1762.95 420.052 1762.27 413.417 1763.59C406.782 1764.91 400.687 1768.17 395.903 1772.95C391.119 1777.73 387.861 1783.83 386.542 1790.46C385.222 1797.1 385.899 1803.98 388.488 1810.23C391.077 1816.48 395.461 1821.82 401.086 1825.58C406.712 1829.34 413.325 1831.34 420.09 1831.34C429.162 1831.34 437.863 1827.74 444.278 1821.32C450.692 1814.91 454.296 1806.21 454.296 1797.14V1797.14Z" stroke="#263238" stroke-width="0.683299" stroke-linecap="round" stroke-linejoin="round"/>
<path d="M1438.95 1386.11C1454.74 1429.7 1460.79 1476.21 1456.67 1522.38C1450.51 1601.87 1403.64 1764.65 1403.64 1764.65C1407.55 1771.7 1408.81 1779.92 1407.2 1787.81C1405.59 1795.71 1401.2 1802.77 1394.84 1807.72" stroke="#263238" stroke-width="0.683299" stroke-linecap="round" stroke-linejoin="round"/>
<path d="M747.631 1420.75C738.651 1431.14 730.775 1442.44 724.129 1454.46C716.193 1470.4 713.548 1664.5 713.548 1664.5" stroke="#263238" stroke-width="0.683299" stroke-linecap="round" stroke-linejoin="round"/>
<path d="M677.743 1399.95C690.047 1394.6 708.503 1369.19 773.47 1314.87C838.437 1260.55 942.285 1201.85 942.285 1201.85L922.537 1184.26C874.919 1210.04 769.471 1274.82 633.386 1380.02L612.284 1402.6C612.284 1402.6 665.438 1405.25 677.743 1399.95Z" fill="#263238" stroke="#263238" stroke-width="0.683299" stroke-linecap="round" stroke-linejoin="round"/>
<path d="M632.955 1379.96C628.648 1380.27 597.887 1382.85 554.638 1387.71C554.638 1399.22 612.468 1402.48 612.468 1402.48L632.955 1379.96Z" stroke="#263238" stroke-width="0.683299" stroke-linecap="round" stroke-linejoin="round"/>
<path d="M2212.03 1547.05C2212.03 1547.05 2200.89 1506.88 2154.01 1471.2C2107.14 1435.51 2063.7 1446.59 2059.27 1467.87C2054.84 1489.16 2087.14 1525.83 2123.93 1544.78C2160.72 1563.72 2191.17 1554.87 2212.03 1547.05Z" fill="#263238" stroke="#263238" stroke-width="0.683299" stroke-linecap="round" stroke-linejoin="round"/>
<path d="M2103.5 1608.14C2103.5 1608.14 2150.02 1654.65 2158.87 1721.47C2158.87 1721.47 2155.98 1735.98 2176.35 1735.98C2209.04 1735.97 2241.46 1729.99 2272.01 1718.33" stroke="#263238" stroke-width="0.683299" stroke-linecap="round" stroke-linejoin="round"/>
<path d="M2285.73 1590.18C2285.73 1590.18 2283.64 1596.33 2240.08 1616.88C2213.6 1629.15 2184.96 1636.07 2155.8 1637.24" fill="#92E3A9"/>
<path d="M6.23438 1652.13C6.23438 1652.13 26.1059 1628.51 92.9183 1660.44C118.361 1672.93 145.213 1682.33 172.896 1688.43" stroke="#263238" stroke-width="0.683299" stroke-linecap="round" stroke-linejoin="round"/>
<path d="M20.3228 1811.53C62.4564 1819.54 105.279 1823.35 148.165 1822.91C148.165 1822.91 136.537 1700.86 232.388 1607.59" stroke="#263238" stroke-width="0.683299" stroke-linecap="round" stroke-linejoin="round"/>
</svg>
