<svg width="1467" height="1297" viewBox="0 0 1467 1297" fill="none" xmlns="http://www.w3.org/2000/svg">
<g clip-path="url(#clip0_379_61)">
<path d="M1092.38 822.845H457.538L477.289 796.866H1066.83L1092.38 822.845Z" fill="white" stroke="#263238" stroke-width="3" stroke-linecap="round" stroke-linejoin="round"/>
<path d="M835.059 800.417C828.157 797.591 821.48 794.259 815.072 790.439C815.072 790.439 852.008 606.963 853.393 546.683C854.77 486.405 862.973 361.787 862.973 361.787H697.586C697.586 361.787 705.788 486.444 707.166 546.683C708.55 606.923 737.681 790.439 737.681 790.439C731.28 794.265 724.603 797.597 717.695 800.417C708.826 803.768 697.746 808.299 703.264 810.426C710.793 812.848 718.758 813.605 726.602 812.637C738.194 809.555 749.363 805.082 759.879 799.308C764.294 796.002 770.247 438.466 770.247 438.466H782.077C782.077 438.466 788.305 796.002 792.721 799.308C803.243 805.088 814.425 809.561 826.03 812.637C833.867 813.598 841.82 812.848 849.33 810.426C854.77 808.183 843.812 803.768 835.059 800.417Z" fill="#263238" stroke="#263238" stroke-width="3" stroke-linecap="round" stroke-linejoin="round"/>
<path d="M756.49 130.291L704.411 175.47V368.607H838.648V174.09L795.836 131.316L756.49 130.291Z" fill="white" stroke="#263238" stroke-width="3" stroke-linecap="round" stroke-linejoin="round"/>
<path d="M788.46 177.915L775.253 171.843L765.243 176.574L773.561 203.579L759.405 347.318L772.811 361.786L788.46 346.727L778.88 203.579L788.46 177.915Z" fill="#92E3A9"/>
<path d="M685.724 165.693L601.986 271.624L658.637 278.129L686.474 253.017L685.724 165.693Z" fill="white" stroke="#263238" stroke-width="3" stroke-linecap="round" stroke-linejoin="round"/>
<path d="M747.896 129.108L685.725 165.694V609.959H752.273V131.316L747.896 129.108Z" fill="white" stroke="#263238" stroke-width="3" stroke-linecap="round" stroke-linejoin="round"/>
<path d="M862.421 165.693L947.297 260.704L890.649 267.209L861.947 253.017L862.421 165.693Z" fill="white" stroke="#263238" stroke-width="3" stroke-linecap="round" stroke-linejoin="round"/>
<path d="M800.212 129.108L862.422 165.694V609.959H795.835V131.316L800.212 129.108Z" fill="white" stroke="#263238" stroke-width="3" stroke-linecap="round" stroke-linejoin="round"/>
<path d="M775.611 171.843L745.724 185.444V146.336H804.39V185.444L775.611 171.843Z" fill="white" stroke="#263238" stroke-width="3" stroke-linecap="round" stroke-linejoin="round"/>
<path d="M804.39 146.336L775.253 171.843L746.711 146.336V78.291H804.39V146.336Z" fill="white" stroke="#263238" stroke-width="3" stroke-linecap="round" stroke-linejoin="round"/>
<g style="mix-blend-mode:multiply">
<g style="mix-blend-mode:multiply">
<path d="M745.807 122.17L766.498 146.14H785.306L804.39 125.048L802.576 105.06L746.71 102.419L745.807 122.17Z" fill="#E1BEE7"/>
</g>
</g>
<path d="M740.443 60.2352C740.443 60.2352 729.761 57.4361 730.824 64.9268C731.888 72.4172 735.118 86.3337 740.482 89.5666L745.807 92.7598L740.443 60.2352Z" fill="white" stroke="#263238" stroke-width="3" stroke-linecap="round" stroke-linejoin="round"/>
<path d="M812.112 60.2352C812.112 60.2352 822.801 57.4361 821.737 64.9268C820.673 72.4172 817.437 86.3337 812.112 89.5666L806.755 92.7598L812.112 60.2352Z" fill="white" stroke="#263238" stroke-width="3" stroke-linecap="round" stroke-linejoin="round"/>
<path d="M817.123 47.8168C817.155 41.9243 815.905 36.0954 813.457 30.7333C811.016 25.3713 807.434 20.604 802.967 16.7613C798.501 12.9186 793.253 10.0921 787.588 8.47735C781.917 6.86258 775.97 6.49808 770.145 7.40906C764.326 8.3201 758.771 10.4848 753.868 13.7536C748.966 17.0224 744.833 21.3171 741.751 26.3408C738.668 31.3645 736.72 36.9973 736.028 42.8495C735.342 48.7017 735.932 54.6337 737.765 60.2352L748.088 108.924L767.011 135.456H785.268L803.602 112.353L814.797 61.3786C816.334 57.023 817.123 52.4367 817.123 47.8168Z" fill="white" stroke="#263238" stroke-width="3" stroke-linecap="round" stroke-linejoin="round"/>
<path d="M745.807 55.8982C745.807 55.8982 752.35 48.8019 758.22 51.1674C764.096 53.5328 761.808 60.629 778.918 62.4031C788.537 63.5718 798.296 62.5473 807.466 59.4069L808.37 44.5836L745.686 35.9893L745.807 55.8982Z" fill="#E1BEE7"/>
<path d="M808.369 44.5838C806.101 49.6825 804.659 55.1135 804.114 60.6686C805.018 67.2949 806.825 73.7671 809.471 79.9073C809.471 79.9073 822.288 53.1782 821.301 43.5194C820.314 33.8605 807.466 41.3905 808.369 44.5838Z" fill="#263238" stroke="#263238" stroke-width="3" stroke-linecap="round" stroke-linejoin="round"/>
<path d="M740.957 77.7785C740.957 77.7785 740.957 76.1226 741.232 73.5991C741.822 66.7001 743.437 53.3751 747.384 51.0096C752.741 47.8164 752.19 30.9431 752.19 30.9431C752.19 30.9431 744.699 39.3797 770.408 47.9346C796.111 56.4895 816.963 53.1779 830.881 34.9642C844.8 16.7505 831.945 3.93781 829.779 10.3639C827.607 16.7899 823.352 25.3449 815.861 18.9188C808.37 12.4927 796.624 -0.359375 775.214 -0.359375C753.805 -0.359375 744.186 18.9188 744.186 18.9188C740.751 20.5867 737.836 23.1602 735.747 26.3625C733.664 29.5649 732.491 33.2747 732.363 37.0931C732.556 49.9452 740.957 77.7785 740.957 77.7785Z" fill="#263238" stroke="#263238" stroke-width="3" stroke-linecap="round" stroke-linejoin="round"/>
<path d="M816.251 43.8741C801.115 44.4654 788.222 34.2547 775.053 25.2661C761.891 16.2775 752.978 25.2661 752.978 25.2661C754.003 20.3751 756.604 15.9567 760.392 12.6932C764.172 9.42977 768.927 7.50279 773.913 7.21007C791.811 6.0668 797.565 30.6278 814.284 32.7961" stroke="white" stroke-width="3" stroke-linecap="round" stroke-linejoin="round"/>
<path d="M773.561 76.8721H737.721L741.668 88.6989C742.014 89.8305 742.719 90.8219 743.667 91.53C744.616 92.2387 745.763 92.6277 746.948 92.6411H765.436C766.673 92.6341 767.871 92.2156 768.845 91.4511C769.813 90.6873 770.505 89.6223 770.799 88.4233L773.561 76.8721Z" fill="white" stroke="#263238" stroke-width="3" stroke-linecap="round" stroke-linejoin="round"/>
<path d="M813.259 76.8721H777.463L781.404 88.6989C781.744 89.8305 782.429 90.8244 783.378 91.5338C784.32 92.2432 785.467 92.6315 786.646 92.6411H805.139C806.376 92.643 807.587 92.2284 808.561 91.4633C809.542 90.6988 810.24 89.6287 810.535 88.4233L813.259 76.8721Z" fill="white" stroke="#263238" stroke-width="3" stroke-linecap="round" stroke-linejoin="round"/>
<path d="M737.72 76.8721L735.951 59.4072" stroke="#263238" stroke-width="3" stroke-linecap="round" stroke-linejoin="round"/>
<path d="M813.259 76.8721L817.36 60.314" stroke="#263238" stroke-width="3" stroke-linecap="round" stroke-linejoin="round"/>
<path d="M773.561 76.8721H777.463" stroke="#263238" stroke-width="3" stroke-linecap="round" stroke-linejoin="round"/>
<path d="M772.574 82.4697H778.918" stroke="#263238" stroke-width="3" stroke-linecap="round" stroke-linejoin="round"/>
<path d="M782.98 105.06C782.98 105.06 780.263 109.002 777.104 109.002C773.951 109.002 771.195 105.06 771.195 105.06" stroke="#263238" stroke-width="3" stroke-linecap="round" stroke-linejoin="round"/>
<path d="M746.871 129.147L752.978 186.076L752.35 314.084L717.259 193.526L737.368 184.42L715.805 174.879L735.439 134.706L746.871 129.147Z" fill="white" stroke="#263238" stroke-width="3" stroke-linecap="round" stroke-linejoin="round"/>
<path d="M804.781 129.147L795.95 182.094L796.264 315.937L834.431 193.526L814.322 184.42L835.847 174.879L816.213 134.706L804.781 129.147Z" fill="white" stroke="#263238" stroke-width="3" stroke-linecap="round" stroke-linejoin="round"/>
<path d="M690.69 276.71L715.169 262.32V275.843L690.69 276.71Z" fill="white" stroke="#263238" stroke-width="3" stroke-linecap="round" stroke-linejoin="round"/>
<path d="M810.657 248.877C810.657 248.877 801.352 234.526 798.001 234.526C794.649 234.526 787.005 247.182 788.696 251.439C790.394 255.697 799.699 245.526 799.699 245.526L806.44 264.095L810.657 248.877Z" fill="white" stroke="#263238" stroke-width="3" stroke-linecap="round" stroke-linejoin="round"/>
<path d="M807.466 253.017L794.81 253.884C791.253 256.36 787.229 258.078 782.98 258.93C777.066 259.798 773.676 261.493 778.764 265.711C783.846 269.93 794.81 263.188 794.81 263.188L807.466 268.235C808.491 267.252 809.311 266.071 809.869 264.763C810.426 263.455 810.715 262.048 810.715 260.626C810.715 259.203 810.426 257.796 809.869 256.488C809.311 255.181 808.491 254 807.466 253.017Z" fill="white" stroke="#263238" stroke-width="3" stroke-linecap="round" stroke-linejoin="round"/>
<path d="M812.349 278.366C815.277 281.289 819.116 283.125 823.23 283.57C829.933 284.201 843.889 273.872 843.889 273.872L841.448 262.952L822.012 256.762L812.349 278.366Z" fill="white" stroke="#263238" stroke-width="3" stroke-linecap="round" stroke-linejoin="round"/>
<path d="M810.657 243.751C810.657 243.751 798.001 260.625 798.001 264.015C798.001 267.406 808.132 278.365 812.349 278.365C815.111 278.365 822.326 273.32 826.94 269.811C827.497 269.394 827.972 268.871 828.337 268.271C828.696 267.671 828.933 267.006 829.035 266.314C829.138 265.622 829.099 264.917 828.933 264.238C828.76 263.56 828.459 262.921 828.042 262.36C823.23 255.737 813.733 243.751 810.657 243.751Z" fill="white" stroke="#263238" stroke-width="3" stroke-linecap="round" stroke-linejoin="round"/>
<path d="M802.576 270.245L817.751 250.809" stroke="#263238" stroke-width="3" stroke-linecap="round" stroke-linejoin="round"/>
<path d="M825.043 260.507L807.466 275.685" stroke="#263238" stroke-width="3" stroke-linecap="round" stroke-linejoin="round"/>
<path d="M833.405 258.378V310.733L934.487 298.906C939.209 298.249 943.522 295.875 946.604 292.239C949.687 288.603 951.327 283.959 951.199 279.194V271.664C951.154 269.06 950.577 266.492 949.52 264.113C948.456 261.735 946.931 259.594 945.022 257.818C943.118 256.042 940.875 254.667 938.428 253.774C935.98 252.881 933.378 252.49 930.783 252.622L833.405 258.378Z" fill="white" stroke="#263238" stroke-width="3" stroke-linecap="round" stroke-linejoin="round"/>
<path d="M775.053 332.771H722.032C720.193 332.772 718.431 332.062 717.111 330.791C715.784 329.519 715.009 327.784 714.932 325.95L711.741 239.219C711.715 238.268 711.882 237.322 712.221 236.436C712.567 235.551 713.087 234.742 713.747 234.059C714.407 233.376 715.201 232.832 716.073 232.459C716.944 232.085 717.886 231.89 718.841 231.886H778.212C779.161 231.885 780.103 232.076 780.98 232.448C781.858 232.819 782.653 233.363 783.313 234.047C783.973 234.731 784.492 235.542 784.838 236.43C785.178 237.319 785.338 238.267 785.306 239.219L782.115 325.95C782.051 327.781 781.282 329.516 779.962 330.788C778.648 332.061 776.886 332.772 775.053 332.771Z" fill="#263238" stroke="#263238" stroke-width="3" stroke-linecap="round" stroke-linejoin="round"/>
<path d="M690.69 276.671L710.953 269.93L743.083 270.758C743.083 270.758 746.434 276.671 743.083 277.539C739.731 278.406 725.345 279.234 725.345 279.234L744.781 283.452C744.781 283.452 744.781 289.365 741.385 289.365C737.995 289.365 722.782 298.669 718.559 302.021C714.342 305.372 688.165 300.365 688.165 300.365L676.336 299.497V278.367L690.69 276.671Z" fill="white" stroke="#263238" stroke-width="3" stroke-linecap="round" stroke-linejoin="round"/>
<path d="M683.078 274.147V326.542L605.377 316.41C600.656 315.745 596.342 313.371 593.254 309.738C590.166 306.104 588.517 301.465 588.622 296.698V289.208C588.672 286.607 589.243 284.043 590.301 281.667C591.36 279.291 592.885 277.152 594.786 275.376C596.686 273.601 598.924 272.224 601.367 271.33C603.809 270.434 606.406 270.038 609.004 270.166L683.078 274.147Z" fill="white" stroke="#263238" stroke-width="3" stroke-linecap="round" stroke-linejoin="round"/>
<path d="M862.422 410.633H819.802V423.169H862.422V410.633Z" fill="white" stroke="#263238" stroke-width="3" stroke-linecap="round" stroke-linejoin="round"/>
<path d="M728.338 410.633H685.725V423.169H728.338V410.633Z" fill="white" stroke="#263238" stroke-width="3" stroke-linecap="round" stroke-linejoin="round"/>
<path d="M989.206 809.401V531.112C989.206 523.401 990.853 515.781 994.037 508.758C997.216 501.736 1001.86 495.472 1007.65 490.387L1060.8 443.906C1066.49 438.919 1071.06 432.773 1074.19 425.878C1077.32 418.984 1078.93 411.501 1078.93 403.931V383.154C1078.93 379.325 1078.18 375.533 1076.71 371.996C1075.25 368.459 1073.09 365.246 1070.38 362.539C1067.68 359.834 1064.46 357.689 1060.92 356.227C1057.38 354.765 1053.59 354.015 1049.76 354.021H663.924C656.196 354.021 648.782 357.09 643.322 362.554C637.856 368.017 634.787 375.427 634.787 383.154V411.5C634.776 425.011 629.616 438.009 620.358 447.849L573.049 498.035C563.633 508.077 558.39 521.326 558.384 535.093V809.401" stroke="#263238" stroke-width="3" stroke-linecap="round" stroke-linejoin="round"/>
<path d="M554.561 644.572V809.401" stroke="white" stroke-width="3" stroke-linecap="round" stroke-linejoin="round"/>
<path d="M630.845 398.688V411.5C630.834 425.011 625.674 438.009 616.415 447.849L569.107 498.035C559.69 508.077 554.447 521.326 554.441 535.093V620.13" stroke="white" stroke-width="3" stroke-linecap="round" stroke-linejoin="round"/>
<path d="M676.336 354.021H659.977C652.255 354.021 644.841 357.09 639.378 362.554C633.914 368.017 630.845 375.427 630.845 383.154" stroke="white" stroke-width="3" stroke-linecap="round" stroke-linejoin="round"/>
<path d="M985.266 705.641V531.111C985.266 523.401 986.912 515.781 990.097 508.758C993.276 501.736 997.922 495.472 1003.71 490.387L1056.86 443.906C1062.55 438.919 1067.12 432.772 1070.24 425.878C1073.37 418.984 1074.99 411.501 1074.99 403.931V383.154" stroke="white" stroke-width="3" stroke-linecap="round" stroke-linejoin="round"/>
<path d="M985.266 809.401V726.852" stroke="white" stroke-width="3" stroke-linecap="round" stroke-linejoin="round"/>
<path d="M609.162 756.547H500.155V835.085H609.162V756.547Z" fill="#92E3A9" stroke="#263238" stroke-width="3" stroke-linecap="round" stroke-linejoin="round"/>
<path d="M609.162 837.289H500.155V893.116H609.162V837.289Z" fill="#92E3A9" stroke="#263238" stroke-width="3" stroke-linecap="round" stroke-linejoin="round"/>
<path d="M1037.97 837.289H928.963V893.116H1037.97V837.289Z" fill="#92E3A9" stroke="#263238" stroke-width="3" stroke-linecap="round" stroke-linejoin="round"/>
<path d="M587.401 936.127H521.997L500.195 893.155H609.202L587.401 936.127Z" fill="#92E3A9" stroke="#263238" stroke-width="3" stroke-linecap="round" stroke-linejoin="round"/>
<path d="M514.545 894.693L528.856 929.265" stroke="#263238" stroke-width="3" stroke-linecap="round" stroke-linejoin="round"/>
<path d="M534.572 910.655L535.992 914.641" stroke="#263238" stroke-width="3" stroke-linecap="round" stroke-linejoin="round"/>
<path d="M528.855 895.693L532.641 906.298" stroke="#263238" stroke-width="3" stroke-linecap="round" stroke-linejoin="round"/>
<path d="M1016.21 937.127H950.77L928.963 894.155H1038.01L1016.21 937.127Z" fill="#92E3A9" stroke="#263238" stroke-width="3" stroke-linecap="round" stroke-linejoin="round"/>
<path d="M940.44 895.693L954.75 927.503" stroke="#263238" stroke-width="3" stroke-linecap="round" stroke-linejoin="round"/>
<path d="M954.75 895.693L961.216 909.451" stroke="#263238" stroke-width="3" stroke-linecap="round" stroke-linejoin="round"/>
<path d="M1015.42 920.524L1010.57 930.265" stroke="#263238" stroke-width="3" stroke-linecap="round" stroke-linejoin="round"/>
<path d="M1027.76 895.693L1017.87 915.641" stroke="#263238" stroke-width="3" stroke-linecap="round" stroke-linejoin="round"/>
<path d="M1037.97 757.547H928.963V836.085H1037.97V757.547Z" fill="#92E3A9" stroke="#263238" stroke-width="3" stroke-linecap="round" stroke-linejoin="round"/>
<path d="M619.096 836.04H919.108V879.801C919.108 890.259 914.955 900.288 907.567 907.683C900.172 915.071 890.143 919.224 879.685 919.224H658.125C647.673 919.224 637.643 915.071 630.249 907.683C622.856 900.288 618.702 890.259 618.702 879.801V836.04H619.096Z" fill="#92E3A9" stroke="#263238" stroke-width="3" stroke-linecap="round" stroke-linejoin="round"/>
<path d="M1092.38 824.845H457.538V874.206H1092.38V824.845Z" fill="#92E3A9" stroke="#263238" stroke-width="3" stroke-linecap="round" stroke-linejoin="round"/>
<path d="M457.538 854.572H651.973L707.089 839.391H975.524L988.219 826.658" stroke="#263238" stroke-width="3" stroke-linecap="round" stroke-linejoin="round"/>
<path d="M128.613 1199.58L412.897 1196.58L1063.39 1187.12L1316.41 1165.6L1360.76 1174.35C1360.76 1174.35 1385.16 1154.4 1383.27 1104.14C1381.38 1053.87 1342.31 970.091 1223.17 962.645C1104.03 955.192 1036.97 1033.36 1009.06 1072.47C981.151 1111.58 439.311 1122.74 439.311 1122.74C439.311 1122.74 428.154 1012.91 329.477 986.848C230.799 960.786 167.524 994.301 130.308 1035.1C93.0921 1075.91 104.249 1182.19 104.249 1182.19L128.613 1199.58Z" fill="#263238" stroke="#263238" stroke-width="3" stroke-linecap="round" stroke-linejoin="round"/>
<path d="M582.419 845.633C582.419 845.633 607.493 840.429 609.582 852.964C611.672 865.504 610.646 871.771 604.378 874.886C594.789 878.884 584.149 879.621 574.101 876.975C571.751 876.398 569.589 875.225 567.821 873.572C566.054 871.919 564.739 869.836 564.004 867.536C563.268 865.229 563.136 862.774 563.62 860.403C564.104 858.032 565.188 855.822 566.768 853.989C571.209 849.945 576.589 847.075 582.419 845.633Z" fill="white" stroke="#263238" stroke-width="3" stroke-linecap="round" stroke-linejoin="round"/>
<path d="M1464.72 1020C1462.63 1011.65 1421.91 989.725 1421.91 989.725C1421.91 989.725 1384.3 934.532 1363.44 914.546C1352.06 903.524 1339.84 893.405 1326.89 884.267C1326.89 884.267 1371.8 880.089 1371.8 872.797C1371.8 865.504 1361.35 864.434 1354.02 862.345C1346.69 860.256 1293.46 861.32 1293.46 861.32H991.718L694.145 878L602.288 884.267C602.288 884.267 598.11 872.797 589.752 872.797C582.749 872.553 575.769 871.855 568.857 870.708C568.857 870.708 564.678 861.32 579.304 847.722C593.93 834.117 669.108 788.229 669.108 788.229C668.557 781.193 665.603 774.554 660.752 769.428C655.632 763.744 649.166 759.431 641.951 756.887L608.557 751.684C603.313 751.684 521.824 795.528 405.998 885.331C405.998 885.331 249.368 897.865 172.097 923.965C94.8269 950.066 60.3707 978.255 44.7195 1017.91C44.7195 1017.91 46.809 1031.51 42.63 1035.69C38.4511 1039.88 10.2632 1049.26 3.99484 1059.7C-2.27352 1070.15 9.23818 1148.45 9.23818 1148.45C9.23818 1148.45 -3.29853 1156.8 1.9054 1165.2C7.10935 1173.6 42.63 1189.21 71.8827 1194.41C90.1138 1197.61 108.568 1199.37 127.076 1199.65H128.495C125.34 1184.2 123.821 1168.47 123.961 1152.7C123.644 1133.44 127.163 1114.31 134.314 1096.42C141.466 1078.54 152.106 1062.25 165.615 1048.52C179.124 1034.79 195.231 1023.88 212.997 1016.43C230.765 1008.99 249.836 1005.16 269.099 1005.16C288.363 1005.16 307.434 1008.99 325.201 1016.43C342.968 1023.88 359.075 1034.79 372.584 1048.52C386.092 1062.25 396.732 1078.54 403.884 1096.42C411.035 1114.31 414.555 1133.44 414.237 1152.7C414.237 1169.06 413.725 1183.61 412.779 1196.66H424.606L473.689 1193.55L1063.11 1187.32C1062.09 1176.79 1061.53 1165.32 1061.53 1152.82C1061.21 1132.88 1064.86 1113.06 1072.27 1094.54C1079.68 1076.01 1090.7 1059.15 1104.7 1044.93C1118.69 1030.71 1135.37 1019.41 1153.77 1011.71C1172.18 1004 1191.93 1000.02 1211.87 1000.02C1231.83 1000.02 1251.58 1004 1269.98 1011.71C1288.38 1019.41 1305.06 1030.71 1319.06 1044.93C1333.05 1059.15 1344.07 1076.01 1351.48 1094.54C1358.89 1113.06 1362.54 1132.88 1362.22 1152.82C1362.22 1160.09 1361.69 1167.35 1360.65 1174.54L1414.42 1163.27L1458.29 1116.27C1461.6 1108.32 1463.37 1099.82 1463.5 1091.2C1463.66 1077.45 1466.81 1028.36 1464.72 1020Z" fill="white"/>
<path d="M1463.66 1091.01C1463.66 1084.3 1464.41 1069.01 1464.96 1054.18C1244.74 913.719 1115.7 987.797 950.757 1035.1C771.965 1086.35 552.575 999.62 351.514 979.908C238.763 968.874 122.306 1003.56 41.7627 1036.4C35.4944 1040.86 9.94782 1049.81 3.99484 1059.7C-1.95813 1069.6 9.23818 1148.45 9.23818 1148.45C9.23818 1148.45 -3.29853 1156.8 1.9054 1165.2C7.10935 1173.6 42.63 1189.21 71.8827 1194.41C90.1138 1197.61 108.568 1199.37 127.076 1199.66H128.495C125.34 1184.21 123.821 1168.47 123.961 1152.7C123.644 1133.44 127.163 1114.31 134.314 1096.42C141.466 1078.54 152.106 1062.25 165.615 1048.52C179.124 1034.79 195.231 1023.88 212.997 1016.43C230.765 1008.99 249.836 1005.16 269.099 1005.16C288.363 1005.16 307.434 1008.99 325.201 1016.43C342.968 1023.88 359.075 1034.79 372.584 1048.52C386.093 1062.25 396.733 1078.54 403.884 1096.42C411.035 1114.31 414.555 1133.44 414.238 1152.7C414.238 1169.06 413.725 1183.61 412.779 1196.66H424.606L473.688 1193.55L1063.11 1187.32C1062.09 1176.79 1061.53 1165.32 1061.53 1152.82C1061.21 1132.88 1064.86 1113.06 1072.27 1094.54C1079.68 1076.01 1090.7 1059.15 1104.7 1044.93C1118.69 1030.71 1135.37 1019.41 1153.77 1011.71C1172.18 1004 1191.93 1000.02 1211.87 1000.02C1231.83 1000.02 1251.58 1004 1269.98 1011.71C1288.38 1019.41 1305.06 1030.71 1319.06 1044.93C1333.05 1059.15 1344.07 1076.01 1351.48 1094.54C1358.89 1113.06 1362.54 1132.88 1362.22 1152.82C1362.22 1160.09 1361.69 1167.35 1360.64 1174.54L1414.42 1163.27L1458.29 1116.27C1461.68 1108.27 1463.5 1099.7 1463.66 1091.01Z" fill="#92E3A9"/>
<path opacity="0.5" d="M1463.66 1091.01C1463.66 1084.3 1464.41 1069.01 1464.96 1054.18C1244.74 913.719 1115.7 987.797 950.757 1035.1C771.965 1086.35 552.575 999.62 351.514 979.908C238.763 968.874 122.306 1003.56 41.7627 1036.4C35.4944 1040.86 9.94782 1049.81 3.99484 1059.7C-1.95813 1069.6 9.23818 1148.45 9.23818 1148.45C9.23818 1148.45 -3.29853 1156.8 1.9054 1165.2C7.10935 1173.6 42.63 1189.21 71.8827 1194.41C90.1138 1197.61 108.568 1199.37 127.076 1199.66H128.495C125.34 1184.21 123.821 1168.47 123.961 1152.7C123.644 1133.44 127.163 1114.31 134.314 1096.42C141.466 1078.54 152.106 1062.25 165.615 1048.52C179.124 1034.79 195.231 1023.88 212.997 1016.43C230.765 1008.99 249.836 1005.16 269.099 1005.16C288.363 1005.16 307.434 1008.99 325.201 1016.43C342.968 1023.88 359.075 1034.79 372.584 1048.52C386.093 1062.25 396.733 1078.54 403.884 1096.42C411.035 1114.31 414.555 1133.44 414.238 1152.7C414.238 1169.06 413.725 1183.61 412.779 1196.66H424.606L473.688 1193.55L1063.11 1187.32C1062.09 1176.79 1061.53 1165.32 1061.53 1152.82C1061.21 1132.88 1064.86 1113.06 1072.27 1094.54C1079.68 1076.01 1090.7 1059.15 1104.7 1044.93C1118.69 1030.71 1135.37 1019.41 1153.77 1011.71C1172.18 1004 1191.93 1000.02 1211.87 1000.02C1231.83 1000.02 1251.58 1004 1269.98 1011.71C1288.38 1019.41 1305.06 1030.71 1319.06 1044.93C1333.05 1059.15 1344.07 1076.01 1351.48 1094.54C1358.89 1113.06 1362.54 1132.88 1362.22 1152.82C1362.22 1160.09 1361.69 1167.35 1360.64 1174.54L1414.42 1163.27L1458.29 1116.27C1461.68 1108.27 1463.5 1099.7 1463.66 1091.01Z" fill="white"/>
<path d="M1464.72 1020C1462.63 1011.65 1421.91 989.725 1421.91 989.725C1421.91 989.725 1384.3 934.532 1363.44 914.546C1352.06 903.524 1339.84 893.405 1326.89 884.267C1326.89 884.267 1371.8 880.089 1371.8 872.797C1371.8 865.504 1361.35 864.434 1354.02 862.345C1346.69 860.256 1293.46 861.32 1293.46 861.32H991.718L694.145 878L602.288 884.267C602.288 884.267 598.11 872.797 589.752 872.797C582.749 872.553 575.769 871.855 568.857 870.708C568.857 870.708 564.678 861.32 579.304 847.722C593.93 834.117 669.108 788.229 669.108 788.229C668.557 781.193 665.603 774.554 660.752 769.428C655.632 763.744 649.166 759.431 641.951 756.887L608.557 751.684C603.313 751.684 521.824 795.528 405.998 885.331C405.998 885.331 249.368 897.865 172.097 923.965C94.8269 950.066 60.3707 978.255 44.7195 1017.91C44.7195 1017.91 46.809 1031.51 42.63 1035.69C38.4511 1039.88 10.2632 1049.26 3.99484 1059.7C-2.27352 1070.15 9.23818 1148.45 9.23818 1148.45C9.23818 1148.45 -3.29853 1156.8 1.9054 1165.2C7.10935 1173.6 42.63 1189.21 71.8827 1194.41C90.1138 1197.61 108.568 1199.37 127.076 1199.65H128.495C125.34 1184.2 123.821 1168.47 123.961 1152.7C123.644 1133.44 127.163 1114.31 134.314 1096.42C141.466 1078.54 152.106 1062.25 165.615 1048.52C179.124 1034.79 195.231 1023.88 212.997 1016.43C230.765 1008.99 249.836 1005.16 269.099 1005.16C288.363 1005.16 307.434 1008.99 325.201 1016.43C342.968 1023.88 359.075 1034.79 372.584 1048.52C386.092 1062.25 396.732 1078.54 403.884 1096.42C411.035 1114.31 414.555 1133.44 414.237 1152.7C414.237 1169.06 413.725 1183.61 412.779 1196.66H424.606L473.689 1193.55L1063.11 1187.32C1062.09 1176.79 1061.53 1165.32 1061.53 1152.82C1061.21 1132.88 1064.86 1113.06 1072.27 1094.54C1079.68 1076.01 1090.7 1059.15 1104.7 1044.93C1118.69 1030.71 1135.37 1019.41 1153.77 1011.71C1172.18 1004 1191.93 1000.02 1211.87 1000.02C1231.83 1000.02 1251.58 1004 1269.98 1011.71C1288.38 1019.41 1305.06 1030.71 1319.06 1044.93C1333.05 1059.15 1344.07 1076.01 1351.48 1094.54C1358.89 1113.06 1362.54 1132.88 1362.22 1152.82C1362.22 1160.09 1361.69 1167.35 1360.65 1174.54L1414.42 1163.27L1458.29 1116.27C1461.6 1108.32 1463.37 1099.82 1463.5 1091.2C1463.66 1077.45 1466.81 1028.36 1464.72 1020Z" stroke="#263238" stroke-width="3" stroke-linecap="round" stroke-linejoin="round"/>
<path d="M630.477 784.051C630.477 784.051 529.197 842.518 479.09 911.431L1300.8 867.593L1248.32 861.32H991.718L694.145 878L602.289 884.267C602.289 884.267 598.109 872.797 589.752 872.797C582.749 872.553 575.77 871.855 568.858 870.708C568.858 870.708 564.678 861.32 579.305 847.722C593.931 834.117 669.109 788.229 669.109 788.229C668.558 781.193 665.603 774.554 660.753 769.428C655.632 763.744 649.167 759.431 641.951 756.887L608.557 751.684C608.557 751.684 630.477 765.25 630.477 784.051Z" fill="white" stroke="#263238" stroke-width="3" stroke-linecap="round" stroke-linejoin="round"/>
<path d="M830.67 809.087C826.145 808.62 821.609 809.869 817.962 812.586C814.31 815.297 811.811 819.283 810.958 823.749C809.286 831.638 808.325 839.66 808.081 847.722C808.081 863.492 831.067 874.886 831.067 874.886L819.552 891.598L867.612 889.509C867.644 885.241 866.939 880.999 865.523 876.975L863.434 872.797C863.434 872.797 869.701 865.504 859.25 843.544C848.805 821.583 839.538 810.151 831.067 809.087H830.67Z" fill="#263238" stroke="#263238" stroke-width="3" stroke-linecap="round" stroke-linejoin="round"/>
<path d="M1028.26 862.345L1044.03 879.064L1258.1 872.797L1286.29 870.708C1286.29 870.708 1297.76 870.708 1293.58 861.32C1292.19 858.507 1290.14 856.084 1287.58 854.258C1285.03 852.438 1282.07 851.272 1278.96 850.875C1278.96 850.875 1274.78 838.34 1269.57 834.162C1266.15 830.997 1261.7 829.151 1257.04 828.959C1253.93 828.959 1248.68 812.24 1241.27 812.24C1233.85 812.24 1210.99 820.596 1207.84 822.685C1204.69 824.774 1183.83 805.973 1169.24 809.087C1154.66 812.202 1072.14 846.697 1061.69 850.875C1051.24 855.053 1028.26 862.345 1028.26 862.345Z" fill="#263238" stroke="#263238" stroke-width="3" stroke-linecap="round" stroke-linejoin="round"/>
<path d="M1126.42 855.053C1126.42 855.053 1124.33 804.948 1118.07 799.86C1111.8 794.778 1100.33 789.414 1096.15 792.567L1091.97 795.681C1091.97 795.681 1086.72 789.414 1077.34 794.656C1067.96 799.898 1063.78 823.871 1063.78 834.316C1063.83 837.45 1064.5 840.538 1065.75 843.409C1067.01 846.273 1068.81 848.869 1071.08 851.035L1053.33 861.48L1062.72 876.065L1126.42 855.053Z" fill="#263238" stroke="#263238" stroke-width="3" stroke-linecap="round" stroke-linejoin="round"/>
<path d="M602.289 884.267C602.289 884.267 598.109 872.797 589.752 872.797C582.749 872.553 575.77 871.855 568.858 870.708C568.858 870.708 564.678 861.32 579.305 847.722C593.931 834.117 669.109 788.229 669.109 788.229C668.558 781.193 665.603 774.554 660.753 769.428C655.632 763.744 649.167 759.431 641.951 756.887L608.557 751.684C608.557 751.684 630.477 765.25 630.477 784.051C630.477 784.051 529.197 842.518 479.09 911.431L613.564 904.254L602.289 884.267Z" fill="#263238" stroke="#263238" stroke-width="3" stroke-linecap="round" stroke-linejoin="round"/>
<path d="M527.108 860.256C527.108 860.256 542.877 856.078 552.141 864.434C561.406 872.797 564.678 892.623 559.474 895.975C554.27 899.326 531.286 899.089 531.286 899.089L542.759 909.541L516.66 910.56L515.596 899.089C515.596 899.089 501.009 889.708 503.098 878.199C505.188 866.683 527.108 860.256 527.108 860.256Z" fill="white" stroke="#263238" stroke-width="3" stroke-linecap="round" stroke-linejoin="round"/>
<path d="M1386.39 942.735C1386.39 942.735 1328.98 899.961 1225.61 912.456C1122.24 924.952 1040.8 963.708 1007.41 1129.64" stroke="#263238" stroke-width="3" stroke-linecap="round" stroke-linejoin="round"/>
<path d="M1018.88 1155.74C1018.88 1155.74 1028.26 1149.47 1025.15 1143.2C1022.84 1138.82 1019.39 1135.16 1015.16 1132.59C1010.93 1130.02 1006.08 1128.65 1001.14 1128.61C988.604 1128.61 467.578 1146.36 467.578 1146.36L470.732 1169.3L1018.88 1155.74Z" stroke="#263238" stroke-width="3" stroke-linecap="round" stroke-linejoin="round"/>
<path d="M467.578 1146.36C467.578 1146.36 467.578 1084.74 446.723 1045.08C425.868 1005.42 395.472 968.873 323.484 942.575C251.497 916.282 124.079 959.293 124.079 959.293C93.5474 972.75 67.7375 995.038 49.9631 1023.28L45.7842 1030.57" stroke="#263238" stroke-width="3" stroke-linecap="round" stroke-linejoin="round"/>
<path d="M103.934 1019.77C82.5669 1039.48 59.5434 1049.41 52.6836 1041.8C45.8239 1034.2 57.2174 1011.96 78.5849 992.167C99.9527 972.379 122.937 962.523 129.836 970.129C136.735 977.742 125.263 999.978 103.934 1019.77Z" stroke="#263238" stroke-width="3" stroke-linecap="round" stroke-linejoin="round"/>
<path d="M3.95605 1104.6C6.04551 1126.72 9.23886 1148.45 9.23886 1148.45C9.23886 1148.45 39.5162 1157.83 49.9635 1156.8C60.4108 1155.78 64.5505 1152.63 68.7293 1134.88C72.908 1117.14 63.5252 1110.83 63.5252 1110.83L3.99549 1104.56L3.95605 1104.6Z" fill="#263238" stroke="#263238" stroke-width="3" stroke-linecap="round" stroke-linejoin="round"/>
<path d="M881.562 969.892H871.117C866.837 969.886 862.729 968.181 859.698 965.15C856.673 962.119 854.962 958.018 854.956 953.731C854.956 949.444 856.654 945.324 859.685 942.286C862.716 939.249 866.83 937.538 871.117 937.531H881.562C883.696 937.531 885.798 937.948 887.766 938.762C889.733 939.575 891.521 940.767 893.02 942.273C894.526 943.779 895.718 945.567 896.538 947.528C897.352 949.495 897.769 951.603 897.769 953.731C897.756 958.024 896.045 962.132 893.007 965.163C889.97 968.194 885.856 969.899 881.562 969.892Z" fill="white" stroke="#263238" stroke-width="3" stroke-linecap="round" stroke-linejoin="round"/>
<path d="M853.892 960.633C851.912 960.633 850.015 959.845 848.618 958.448C847.221 957.051 846.439 955.154 846.439 953.18C846.439 951.206 847.221 949.31 848.618 947.913C850.015 946.516 851.912 945.727 853.892 945.727L910.264 944.702C912.231 944.696 914.122 945.452 915.532 946.81C916.948 948.175 917.774 950.034 917.832 951.995C917.858 952.975 917.685 953.949 917.326 954.859C916.973 955.775 916.442 956.608 915.762 957.313C915.089 958.018 914.276 958.588 913.378 958.979C912.488 959.37 911.52 959.588 910.54 959.607L854.168 960.633H853.892Z" fill="white" stroke="#263238" stroke-width="3" stroke-linecap="round" stroke-linejoin="round"/>
<path d="M1233.46 1278.52C1299.12 1267.91 1343.75 1206.08 1333.14 1140.42C1322.52 1074.77 1260.69 1030.14 1195.03 1040.75C1129.38 1051.36 1084.76 1113.19 1095.37 1178.85C1105.97 1244.51 1167.81 1289.13 1233.46 1278.52Z" fill="#263238" stroke="#263238" stroke-width="3" stroke-linecap="round" stroke-linejoin="round"/>
<path d="M1225.36 1233.99C1270.32 1226.65 1300.8 1184.25 1293.46 1139.3C1286.11 1094.34 1243.72 1063.85 1198.76 1071.2C1153.81 1078.55 1123.32 1120.94 1130.66 1165.9C1138.01 1210.85 1180.41 1241.33 1225.36 1233.99Z" fill="white" stroke="#263238" stroke-width="3" stroke-linecap="round" stroke-linejoin="round"/>
<path d="M1246.72 1187.33C1265.88 1168.17 1265.88 1137.09 1246.72 1117.92C1227.55 1098.75 1196.47 1098.75 1177.3 1117.92C1158.14 1137.09 1158.14 1168.17 1177.3 1187.33C1196.47 1206.51 1227.55 1206.51 1246.72 1187.33Z" stroke="#263238" stroke-width="3" stroke-linecap="round" stroke-linejoin="round"/>
<path d="M1233.98 1152.63C1233.98 1148.28 1232.7 1144.03 1230.29 1140.41C1227.88 1136.8 1224.46 1133.98 1220.44 1132.31C1216.43 1130.64 1212.02 1130.2 1207.75 1131.04C1203.49 1131.88 1199.58 1133.97 1196.5 1137.04C1193.43 1140.11 1191.33 1144.03 1190.48 1148.29C1189.63 1152.55 1190.06 1156.96 1191.72 1160.98C1193.39 1164.99 1196.2 1168.43 1199.81 1170.84C1203.42 1173.25 1207.67 1174.54 1212.02 1174.54C1214.9 1174.55 1217.75 1173.98 1220.42 1172.89C1223.08 1171.79 1225.5 1170.17 1227.54 1168.14C1229.58 1166.1 1231.2 1163.69 1232.3 1161.02C1233.41 1158.36 1233.98 1155.5 1233.98 1152.63Z" stroke="#263238" stroke-width="3" stroke-linecap="round" stroke-linejoin="round"/>
<path d="M287.696 1276.88C353.353 1266.27 397.977 1204.44 387.366 1138.78C376.754 1073.13 314.927 1028.5 249.268 1039.11C183.611 1049.72 138.988 1111.55 149.599 1177.21C160.21 1242.86 222.038 1287.49 287.696 1276.88Z" fill="#263238" stroke="#263238" stroke-width="3" stroke-linecap="round" stroke-linejoin="round"/>
<path d="M288.205 1232.91C332.514 1222.36 359.877 1177.88 349.321 1133.57C338.765 1089.26 294.288 1061.9 249.979 1072.45C205.669 1083.01 178.307 1127.49 188.863 1171.8C199.419 1216.1 243.896 1243.47 288.205 1232.91Z" fill="white" stroke="#263238" stroke-width="3" stroke-linecap="round" stroke-linejoin="round"/>
<path d="M280.666 1200.32C307.04 1194.05 323.342 1167.6 317.079 1141.22C310.815 1114.85 284.357 1098.55 257.983 1104.81C231.609 1111.08 215.306 1137.53 221.57 1163.9C227.834 1190.28 254.291 1206.58 280.666 1200.32Z" stroke="#263238" stroke-width="3" stroke-linecap="round" stroke-linejoin="round"/>
<path d="M291.118 1152.63C291.118 1148.29 289.833 1144.05 287.424 1140.44C285.016 1136.84 281.592 1134.03 277.587 1132.38C273.582 1130.72 269.174 1130.28 264.922 1131.13C260.671 1131.97 256.765 1134.06 253.699 1137.12C250.634 1140.19 248.546 1144.1 247.701 1148.35C246.855 1152.6 247.289 1157.01 248.948 1161.01C250.607 1165.02 253.416 1168.44 257.021 1170.85C260.626 1173.26 264.863 1174.54 269.199 1174.54C275.012 1174.54 280.588 1172.23 284.698 1168.12C288.809 1164.01 291.118 1158.44 291.118 1152.63Z" stroke="#263238" stroke-width="3" stroke-linecap="round" stroke-linejoin="round"/>
<path d="M922.094 889.233C932.213 917.166 936.09 946.97 933.449 976.557C929.502 1027.49 899.467 1131.81 899.467 1131.81C901.973 1136.32 902.78 1141.59 901.749 1146.65C900.717 1151.71 897.904 1156.23 893.828 1159.41" stroke="#263238" stroke-width="3" stroke-linecap="round" stroke-linejoin="round"/>
<path d="M479.09 911.431C473.335 918.089 468.288 925.33 464.029 933.033C458.944 943.247 457.249 1067.63 457.249 1067.63" stroke="#263238" stroke-width="3" stroke-linecap="round" stroke-linejoin="round"/>
<path d="M434.305 898.102C442.19 894.674 454.017 878.391 495.648 843.582C537.28 808.773 603.826 771.158 603.826 771.158L591.172 759.886C560.658 776.406 493.085 817.918 405.881 885.331L392.358 899.8C392.358 899.8 426.42 901.498 434.305 898.102Z" fill="#263238" stroke="#263238" stroke-width="3" stroke-linecap="round" stroke-linejoin="round"/>
<path d="M405.604 885.292C402.844 885.491 383.132 887.144 355.418 890.259C355.418 897.634 392.476 899.724 392.476 899.724L405.604 885.292Z" stroke="#263238" stroke-width="3" stroke-linecap="round" stroke-linejoin="round"/>
<path d="M1417.49 992.365C1417.49 992.365 1410.35 966.624 1380.31 943.76C1350.28 920.889 1322.44 927.99 1319.6 941.626C1316.76 955.269 1337.46 978.767 1361.04 990.911C1384.61 1003.05 1404.12 997.377 1417.49 992.365Z" fill="#263238" stroke="#263238" stroke-width="3" stroke-linecap="round" stroke-linejoin="round"/>
<path d="M1347.94 1031.51C1347.94 1031.51 1377.75 1061.32 1383.43 1104.14C1383.43 1104.14 1381.57 1113.43 1394.63 1113.43C1415.58 1113.43 1436.35 1109.6 1455.93 1102.12" stroke="#263238" stroke-width="3" stroke-linecap="round" stroke-linejoin="round"/>
<path d="M1464.72 1020C1464.72 1020 1463.38 1023.94 1435.47 1037.11C1418.5 1044.98 1400.15 1049.41 1381.46 1050.16" fill="#92E3A9"/>
<path d="M3.99512 1059.7C3.99512 1059.7 16.729 1044.57 59.5431 1065.03C75.847 1073.03 93.054 1079.05 110.794 1082.96" stroke="#263238" stroke-width="3" stroke-linecap="round" stroke-linejoin="round"/>
<path d="M13.0234 1161.85C40.0231 1166.98 67.4642 1169.42 94.946 1169.14C94.946 1169.14 87.4947 1090.93 148.917 1031.16" stroke="#263238" stroke-width="3" stroke-linecap="round" stroke-linejoin="round"/>
</g>
<defs>
<clipPath id="clip0_379_61">
<rect width="1466.17" height="1297" fill="white"/>
</clipPath>
</defs>
</svg>
