<svg width="1340" height="1218" viewBox="0 0 1340 1218" fill="none" xmlns="http://www.w3.org/2000/svg">
<g clip-path="url(#clip0_198_3064)">
<path d="M387.951 225.722C377.328 219.911 372.488 224.754 368.586 219.911C364.686 215.071 379.237 202.51 350.216 189.923C350.216 189.923 348.28 162.838 308.718 161.87C269.157 160.902 279.586 188.954 268.991 195.733C258.394 202.51 255.435 191.859 244.783 198.499C234.131 205.139 239.001 218.805 230.286 220.632C221.573 222.457 209.98 211.916 199.329 218.695C188.678 225.472 188.761 231.531 183.837 231.531C178.912 231.531 169.312 227.659 163.503 231.531C157.693 235.404 150.942 240.219 150.942 240.219H395.671C395.671 240.219 398.575 231.531 387.951 225.722Z" stroke="#263238" stroke-width="3" stroke-linecap="round" stroke-linejoin="round"/>
<path d="M243.151 221.739C241.769 222.533 240.325 223.216 238.835 223.786" stroke="#263238" stroke-width="3" stroke-linecap="round" stroke-linejoin="round"/>
<path d="M295.521 176.561C293.12 177.639 291.01 179.272 289.367 181.326C287.721 183.38 286.587 185.795 286.06 188.374C284.29 197.226 280.167 203.119 275.436 203.701C270.706 204.281 253.001 202.538 250.067 209.012C249.278 210.921 248.72 212.918 248.408 214.96" stroke="#263238" stroke-width="3" stroke-linecap="round" stroke-linejoin="round"/>
<path d="M1107.25 361.697C1098.95 357.188 1095.22 360.95 1092.23 357.188C1089.24 353.425 1100.53 343.659 1077.93 333.894C1077.93 333.894 1076.43 312.813 1045.58 312.066C1014.74 311.318 1023.04 333.119 1014.77 338.403C1006.49 343.687 1004.25 335.387 995.98 340.644C987.71 345.9 991.444 356.441 984.694 357.934C977.943 359.429 968.898 351.184 960.625 356.441C952.353 361.697 952.326 366.206 948.59 366.206C944.856 366.206 937.304 363.22 932.793 366.206C928.284 369.195 923.027 372.985 923.027 372.985H1113.28C1113.28 372.985 1115.55 366.206 1107.25 361.697Z" stroke="#263238" stroke-width="3" stroke-linecap="round" stroke-linejoin="round"/>
<path d="M994.708 358.627C993.627 359.22 992.508 359.747 991.361 360.204" stroke="#263238" stroke-width="3" stroke-linecap="round" stroke-linejoin="round"/>
<path d="M1035.32 323.49C1033.46 324.33 1031.82 325.6 1030.55 327.197C1029.27 328.796 1028.39 330.673 1027.99 332.676C1026.61 339.537 1023.4 344.13 1019.69 344.6C1015.98 345.071 1002.26 343.687 999.965 348.723C999.352 350.204 998.924 351.756 998.692 353.343" stroke="#263238" stroke-width="3" stroke-linecap="round" stroke-linejoin="round"/>
<path d="M975.674 356.966H988.871" stroke="#263238" stroke-width="3" stroke-linecap="round" stroke-linejoin="round"/>
<path d="M1092.23 356.966H1181.15C1181.15 356.966 1188.28 335.526 1162.08 321.222C1135.88 306.92 1123.96 318.843 1114.44 306.92C1104.93 294.996 1140.64 264.039 1069.16 233.081C1069.16 233.081 1064.4 166.352 966.794 163.917C869.192 161.483 895.336 230.618 869.108 247.301C842.882 263.984 835.771 237.783 809.545 254.466C783.317 271.148 795.268 304.484 773.828 309.243C752.389 314.002 723.781 287.803 697.582 304.484C671.384 321.168 671.384 335.471 659.459 335.471C647.535 335.471 623.716 325.926 609.412 335.471C595.11 345.014 578.455 356.911 578.455 356.911H960.626" stroke="#263238" stroke-width="3" stroke-linecap="round" stroke-linejoin="round"/>
<path d="M805.504 311.429C802.084 313.352 798.536 315.035 794.882 316.463" stroke="#263238" stroke-width="3" stroke-linecap="round" stroke-linejoin="round"/>
<path d="M818.426 294.608C819.202 289.597 820.567 284.694 822.491 280.002C829.768 264.011 873.396 268.354 885.015 266.916C896.635 265.477 906.814 250.926 911.187 229.097C912.473 222.75 915.255 216.8 919.301 211.743C923.347 206.687 928.543 202.668 934.454 200.021" stroke="#263238" stroke-width="3" stroke-linecap="round" stroke-linejoin="round"/>
<path d="M45.9522 83.0516C64.654 66.9687 83.0054 50.6461 101.006 34.0839C77.1219 26.8908 53.348 19.2459 29.6851 11.1492C34.6832 35.1074 40.1056 59.0749 45.9522 83.0516Z" fill="#92E3A9"/>
<path d="M129.197 107.84C147.161 90.964 164.757 73.9128 181.983 56.6865C157.914 50.5448 133.937 43.942 110.053 36.8782C115.992 60.5043 122.373 84.1582 129.197 107.84Z" fill="#263238"/>
<path d="M210.173 128.34C227.418 110.726 244.258 92.9096 260.691 74.8902C236.473 69.7629 212.305 64.1654 188.18 58.0974C195.096 81.539 202.428 104.953 210.173 128.34Z" fill="#92E3A9"/>
<path d="M294.746 146.018C311.179 127.703 327.244 109.186 342.939 90.4659C318.521 86.3898 294.166 81.8343 269.875 76.7991C277.77 99.8905 286.06 122.963 294.746 146.018Z" fill="#263238"/>
<path d="M376.886 159.629C392.544 140.651 407.825 121.497 422.726 102.168C398.124 99.0696 373.622 95.5193 349.221 91.5168C357.999 114.295 367.222 136.999 376.886 159.629Z" fill="#92E3A9"/>
<path d="M462.287 170.114C477.044 150.491 491.475 130.701 505.585 110.745C480.961 108.697 456.387 106.189 431.857 103.22C441.595 125.684 451.739 147.982 462.287 170.114Z" fill="#263238"/>
<path d="M544.981 176.948C558.978 156.66 572.591 136.307 585.815 115.89C561.174 114.839 536.533 113.327 511.892 111.353C522.516 133.319 533.544 155.184 544.981 176.948Z" fill="#92E3A9"/>
<path d="M630.881 180.406C644.031 159.601 656.767 138.65 669.088 117.55C644.41 117.55 619.741 117.08 595.083 116.139C606.628 137.718 618.56 159.14 630.881 180.406Z" fill="#263238"/>
<path d="M713.795 180.295C726.078 158.993 737.956 137.58 749.427 116.056C724.769 117.052 700.1 117.578 675.422 117.633C687.817 138.659 700.608 159.546 713.795 180.295Z" fill="#92E3A9"/>
<path d="M799.695 176.616C811.075 154.815 822.049 132.914 832.616 110.91C807.995 112.958 783.346 114.535 758.668 115.641C771.966 136.114 785.641 156.438 799.695 176.616Z" fill="#263238"/>
<path d="M882.386 169.644C892.862 147.401 902.942 125.075 912.626 102.666C888.076 105.709 863.501 108.282 838.897 110.385C853.025 130.304 867.522 150.057 882.386 169.644Z" fill="#92E3A9"/>
<path d="M967.818 158.854C977.39 136.169 986.537 113.428 995.262 90.6316C970.842 94.7261 946.386 98.3503 921.893 101.504C936.833 120.796 952.14 139.913 967.818 158.854Z" fill="#263238"/>
<path d="M1049.87 145.022C1058.5 121.949 1066.73 98.8484 1074.55 75.7202C1050.3 80.8106 1025.95 85.4215 1001.51 89.5529C1017.26 108.218 1033.39 126.707 1049.87 145.022Z" fill="#92E3A9"/>
<path d="M1134.39 127.095C1142.12 103.69 1149.4 80.2202 1156.22 56.6863C1132.13 62.828 1107.95 68.4901 1083.68 73.6729C1100.22 91.7291 1117.13 109.536 1134.39 127.095Z" fill="#263238"/>
<path d="M1215.34 106.484C1222.09 82.7656 1228.44 59.047 1234.37 35.3286C1210.4 42.4479 1186.42 49.1061 1162.44 55.303C1179.71 72.5479 1197.34 89.6081 1215.34 106.484Z" fill="#92E3A9"/>
<path d="M1298.53 81.3637C1304.28 57.3871 1309.64 33.4105 1314.6 9.43384C1290.98 17.5859 1267.22 25.2862 1243.34 32.5344C1261.43 49.0598 1279.83 65.3363 1298.53 81.3637Z" fill="#263238"/>
<path d="M1339.25 1.68759C906.43 157.498 432.821 157.498 0 1.68759L0.636302 0C433.063 155.674 906.245 155.674 1338.67 0C1338.84 0.553308 1339.03 1.10662 1339.25 1.68759Z" fill="#263238"/>
<path d="M416.696 1048.96H522.959V1178.99C522.959 1189.26 518.878 1199.11 511.614 1206.37C504.351 1213.64 494.5 1217.72 484.227 1217.72H455.426C445.155 1217.72 435.304 1213.64 428.039 1206.37C420.776 1199.11 416.696 1189.26 416.696 1178.99V1048.96Z" fill="#263238" stroke="#263238" stroke-width="3" stroke-linecap="round" stroke-linejoin="round"/>
<path d="M1118.87 1048.96H1225.13V1178.99C1225.13 1189.26 1221.05 1199.11 1213.79 1206.37C1206.53 1213.64 1196.67 1217.72 1186.4 1217.72H1157.6C1147.33 1217.72 1137.48 1213.64 1130.21 1206.37C1122.95 1199.11 1118.87 1189.26 1118.87 1178.99V1048.96Z" fill="#263238" stroke="#263238" stroke-width="3" stroke-linecap="round" stroke-linejoin="round"/>
<path d="M1265.41 698.523C1257.36 689.117 1225.08 685.078 1208.92 683.722C1192.77 682.367 1188.75 697.168 1188.75 710.641C1188.75 724.113 1191.52 744.255 1188.75 749.648L1185.99 755.016L1155.11 674.315L1085.53 535.104C1081.8 527.497 1075.6 521.382 1067.94 517.757C1064.24 516.047 1060.37 514.722 1056.4 513.801L810.015 507.633C803.117 507.467 796.219 507.467 789.321 507.633L570.543 513.801C567.41 515.325 564.869 517.845 563.323 520.966C563.323 520.966 479.912 689.117 470.505 713.324C461.099 737.53 455.704 757.588 455.704 757.588C453.976 756.091 452.598 754.233 451.671 752.142C450.744 750.054 450.287 747.786 450.338 745.498C450.338 737.421 450.338 692.935 447.57 686.294C444.804 679.656 397.773 686.294 377.633 698.412C357.493 710.529 369.554 733.38 387.039 742.816C399.254 748.812 412.484 752.462 426.046 753.577L443.559 779.112C443.559 779.112 420.68 803.347 417.997 811.397C415.313 819.449 404.522 905.46 404.522 932.488C404.522 959.519 408.563 1050.84 415.285 1064.32C422.008 1077.79 439.493 1094.14 448.816 1096.71C458.138 1099.28 834.886 1110.16 834.886 1110.16L1180.7 1102.08C1180.7 1102.08 1211.66 1111.48 1223.75 1049.51C1235.84 987.542 1233.16 935.172 1233.16 900.122C1233.16 865.069 1230.39 816.71 1225.11 806.058C1219.82 795.407 1203.58 781.851 1200.9 777.812C1198.22 773.774 1207.62 748.209 1207.62 748.209C1207.62 748.209 1256.04 744.171 1265.44 737.448C1274.85 730.726 1273.49 707.929 1265.41 698.523Z" fill="#92E3A9" stroke="#263238" stroke-width="3" stroke-linecap="round" stroke-linejoin="round"/>
<path d="M565.95 691.469C565.95 691.469 526.278 727.794 670.138 742.787C813.999 757.781 968.925 783.953 1002.12 798.811L1035.16 813.694L1104.48 780.662C1104.48 780.662 1071.29 742.787 982.149 727.792C893.011 712.799 724.501 703.032 666.763 683.224C609.025 663.416 565.95 674.952 565.95 691.469Z" fill="white"/>
<path d="M645.821 957.139L659.957 1002.7" stroke="#263238" stroke-width="3" stroke-linecap="round" stroke-linejoin="round"/>
<path d="M1000.96 957.139L986.824 1002.7" stroke="#263238" stroke-width="3" stroke-linecap="round" stroke-linejoin="round"/>
<path d="M476.287 723.201C476.287 723.201 483.259 760.936 519.998 778.808C556.737 796.679 643.137 847.336 643.137 847.336" stroke="#263238" stroke-width="3" stroke-linecap="round" stroke-linejoin="round"/>
<path d="M1166.54 723.201C1166.54 723.201 1159.59 760.936 1122.86 778.808C1086.11 796.679 999.689 847.336 999.689 847.336" stroke="#263238" stroke-width="3" stroke-linecap="round" stroke-linejoin="round"/>
<path d="M501.131 924.825L565.673 996.312" stroke="#263238" stroke-width="3" stroke-linecap="round" stroke-linejoin="round"/>
<path d="M1135.75 926.791L1076.16 1002.29" stroke="#263238" stroke-width="3" stroke-linecap="round" stroke-linejoin="round"/>
<path d="M1014.6 867.198H1043.48" stroke="#263238" stroke-width="3" stroke-linecap="round" stroke-linejoin="round"/>
<path d="M632.208 867.198H597.24" stroke="#263238" stroke-width="3" stroke-linecap="round" stroke-linejoin="round"/>
<path d="M407.788 1009.73C409.613 1035.24 412.158 1058.2 415.258 1064.42C422.008 1077.87 439.493 1094 448.897 1096.71C458.304 1099.42 834.968 1110.16 834.968 1110.16L1180.79 1102.08C1180.79 1102.08 1211.74 1111.48 1223.83 1049.51C1226.6 1035.68 1228.48 1022.4 1229.89 1009.62L407.788 1009.73Z" fill="#757575" stroke="#263238" stroke-width="3" stroke-linecap="round" stroke-linejoin="round"/>
<path d="M684.69 1049.87H651.989L613.507 1103.3C718.636 1106.72 834.83 1110.04 834.83 1110.04L1031.5 1105.45L991.638 1049.87H958.937L821.801 1052.28L684.69 1049.87Z" fill="#ABABAB" stroke="#263238" stroke-width="3" stroke-linecap="round" stroke-linejoin="round"/>
<path d="M560.555 538.452C560.555 538.452 497.313 705.245 497.313 710.64C497.313 716.036 879.371 709.286 879.371 709.286H1140.45C1140.45 709.286 1148.53 703.918 1144.49 685.078C1140.45 666.238 1075.91 542.49 1075.91 542.49C1075.91 542.49 837.791 533.056 766.497 533.056C695.203 533.056 560.555 538.452 560.555 538.452Z" fill="#263238" stroke="#263238" stroke-width="3" stroke-linecap="round" stroke-linejoin="round"/>
<path opacity="0.2" d="M539.724 604.267L643.662 710.418H571.789L519.805 659.543L539.724 604.267Z" fill="white"/>
<path opacity="0.2" d="M750.949 542.822L1135.75 679.904L1119.23 636.967L899.594 542.822H750.949Z" fill="white"/>
<path d="M1058.5 653.18H821.357L830.598 574.748H1049.24L1058.5 653.18Z" fill="white" stroke="#263238" stroke-width="3" stroke-linecap="round" stroke-linejoin="round"/>
<path d="M1161.84 792.586C1161.84 792.586 1110.74 806.031 1086.53 822.16C1062.32 838.288 1051.53 847.722 1043.48 869.191C1035.43 890.659 1035.32 925.85 1035.32 925.85C1035.32 925.85 1167.15 907.037 1190.03 893.563C1212.91 880.091 1214.23 850.545 1215.56 839.782C1216.34 833.026 1215.89 826.185 1214.23 819.587L1161.84 792.586Z" fill="white" stroke="#263238" stroke-width="3" stroke-linecap="round" stroke-linejoin="round"/>
<path d="M1075.85 877.491V910.578" stroke="#263238" stroke-width="3" stroke-linecap="round" stroke-linejoin="round"/>
<path d="M1075.85 863.546V870.103" stroke="#263238" stroke-width="3" stroke-linecap="round" stroke-linejoin="round"/>
<path d="M1091.12 857.654V904.685" stroke="#263238" stroke-width="3" stroke-linecap="round" stroke-linejoin="round"/>
<path d="M1106.42 890.134V898.765" stroke="#263238" stroke-width="3" stroke-linecap="round" stroke-linejoin="round"/>
<path d="M1106.42 851.763V883.3" stroke="#263238" stroke-width="3" stroke-linecap="round" stroke-linejoin="round"/>
<path d="M1121.69 845.87V892.872" stroke="#263238" stroke-width="3" stroke-linecap="round" stroke-linejoin="round"/>
<path d="M1136.96 880.643V886.979" stroke="#263238" stroke-width="3" stroke-linecap="round" stroke-linejoin="round"/>
<path d="M1136.96 839.977V873.257" stroke="#263238" stroke-width="3" stroke-linecap="round" stroke-linejoin="round"/>
<path d="M1152.26 834.084V881.086" stroke="#263238" stroke-width="3" stroke-linecap="round" stroke-linejoin="round"/>
<path d="M1167.54 861.665V875.194" stroke="#263238" stroke-width="3" stroke-linecap="round" stroke-linejoin="round"/>
<path d="M1167.54 828.162V852.701" stroke="#263238" stroke-width="3" stroke-linecap="round" stroke-linejoin="round"/>
<path d="M1182.83 822.271V869.301" stroke="#263238" stroke-width="3" stroke-linecap="round" stroke-linejoin="round"/>
<path d="M478.86 792.586C478.86 792.586 529.986 806.031 554.192 822.16C578.4 838.288 589.163 847.722 597.24 869.191C605.319 890.659 605.319 925.684 605.319 925.684C605.319 925.684 473.494 906.871 450.613 893.397C427.735 879.925 426.408 850.379 425.051 839.616C424.292 832.858 424.75 826.017 426.407 819.421L478.86 792.586Z" fill="white" stroke="#263238" stroke-width="3" stroke-linecap="round" stroke-linejoin="round"/>
<path d="M561.275 877.491V910.578" stroke="#263238" stroke-width="3" stroke-linecap="round" stroke-linejoin="round"/>
<path d="M561.275 863.546V870.103" stroke="#263238" stroke-width="3" stroke-linecap="round" stroke-linejoin="round"/>
<path d="M546.003 857.654V904.685" stroke="#263238" stroke-width="3" stroke-linecap="round" stroke-linejoin="round"/>
<path d="M530.705 890.134V898.765" stroke="#263238" stroke-width="3" stroke-linecap="round" stroke-linejoin="round"/>
<path d="M530.705 851.763V883.3" stroke="#263238" stroke-width="3" stroke-linecap="round" stroke-linejoin="round"/>
<path d="M515.435 845.87V892.872" stroke="#263238" stroke-width="3" stroke-linecap="round" stroke-linejoin="round"/>
<path d="M500.135 880.643V886.979" stroke="#263238" stroke-width="3" stroke-linecap="round" stroke-linejoin="round"/>
<path d="M500.135 839.977V873.257" stroke="#263238" stroke-width="3" stroke-linecap="round" stroke-linejoin="round"/>
<path d="M484.864 834.084V881.086" stroke="#263238" stroke-width="3" stroke-linecap="round" stroke-linejoin="round"/>
<path d="M469.564 861.665V875.194" stroke="#263238" stroke-width="3" stroke-linecap="round" stroke-linejoin="round"/>
<path d="M469.564 828.162V852.701" stroke="#263238" stroke-width="3" stroke-linecap="round" stroke-linejoin="round"/>
<path d="M454.292 822.271V869.301" stroke="#263238" stroke-width="3" stroke-linecap="round" stroke-linejoin="round"/>
<path d="M645.239 950.637C638.835 923.213 634.48 895.351 632.208 867.282L667.981 851.401L814.276 853.338L978.829 851.401L1014.6 867.282C1012.37 895.376 1008.05 923.267 1001.68 950.721L645.239 950.637ZM664.356 1013.22C674.177 1038.11 684.11 1054.33 692.021 1058.89C703.752 1065.72 731.776 1077.32 814.662 1073.03C915.448 1077.32 943.499 1065.72 955.23 1058.89C963.032 1054.33 972.963 1038.23 982.895 1013.22H664.356Z" fill="#263238" stroke="#263238" stroke-width="3" stroke-linecap="round" stroke-linejoin="round"/>
<path d="M1014.6 867.282L978.829 851.401L814.276 853.338L667.981 851.401L632.208 867.282C632.208 867.282 632.347 869.246 632.651 872.814L749.427 888.197L767.299 898.128H878.514L896.413 888.197L1014.13 872.814C1014.46 869.246 1014.6 867.282 1014.6 867.282Z" fill="#757575" stroke="#263238" stroke-width="3" stroke-linecap="round" stroke-linejoin="round"/>
<path d="M978.829 851.32L814.276 853.256L667.981 851.32L654.562 857.267H726.576L744.448 864.239H906.346L919.237 858.263H994.487L978.829 851.32Z" fill="#263238" stroke="#263238" stroke-width="3" stroke-linecap="round" stroke-linejoin="round"/>
<path d="M638.185 911.905L648.116 899.983H673.929C689.96 904.084 706.258 907.07 722.703 908.919C749.538 911.905 942.199 908.919 942.199 908.919L976.947 900.978H996.589L1006.52 916.857L879.4 930.691L857.571 938.631H782.182L763.315 927.702L638.185 911.905Z" fill="#757575" stroke="#263238" stroke-width="3" stroke-linecap="round" stroke-linejoin="round"/>
<path d="M982.756 932.766L947.042 944.745H698.773L663 932.82L640.869 930.359C642.113 936.888 643.635 943.694 645.185 950.692H1001.68C1003.09 944.579 1004.45 938.604 1005.53 932.82L982.756 932.766Z" fill="#757575" stroke="#263238" stroke-width="3" stroke-linecap="round" stroke-linejoin="round"/>
<path d="M573.613 1075.77L583.545 1057.9C573.248 1042.21 557.799 1030.62 539.863 1025.11C509.071 1015.18 475.291 1010.23 464.362 1014.18C453.435 1018.14 450.531 1046.97 452.467 1054.91C454.404 1062.85 463.533 1069.82 463.533 1069.82L573.613 1075.77Z" fill="#474747"/>
<path d="M539.863 1025.11C524.142 1020.03 508.008 1016.32 491.641 1014.05C489.47 1014.99 487.516 1016.37 485.902 1018.1C484.288 1019.84 483.048 1021.88 482.264 1024.12C475.291 1041.02 476.287 1052.94 486.218 1065.84C487.739 1067.83 489.433 1069.68 491.282 1071.37L573.614 1075.82L583.545 1057.95C573.259 1042.25 557.807 1030.63 539.863 1025.11Z" fill="#263238"/>
<path d="M526.943 1044.48C526.943 1048.5 525.749 1052.44 523.512 1055.79C521.273 1059.14 518.093 1061.75 514.373 1063.29C510.652 1064.83 506.557 1065.23 502.608 1064.45C498.658 1063.66 495.031 1061.72 492.183 1058.88C489.335 1056.03 487.395 1052.4 486.611 1048.45C485.824 1044.5 486.228 1040.41 487.768 1036.69C489.31 1032.97 491.92 1029.79 495.269 1027.55C498.617 1025.31 502.554 1024.12 506.581 1024.12C509.255 1024.11 511.905 1024.64 514.377 1025.66C516.85 1026.68 519.094 1028.18 520.986 1030.07C522.877 1031.96 524.378 1034.21 525.399 1036.68C526.422 1039.16 526.947 1041.8 526.943 1044.48Z" fill="#ABABAB" stroke="#263238" stroke-width="3" stroke-linecap="round" stroke-linejoin="round"/>
<path d="M1070.62 1075.77L1060.69 1057.9C1071.02 1042.2 1086.51 1030.6 1104.48 1025.11C1135.25 1015.18 1169.03 1010.23 1179.96 1014.18C1190.88 1018.14 1193.79 1046.97 1191.88 1054.91C1189.97 1062.85 1180.95 1069.82 1180.95 1069.82L1070.62 1075.77Z" fill="#474747"/>
<path d="M1104.48 1025.11C1120.2 1020.02 1136.34 1016.32 1152.71 1014.05C1154.87 1014.99 1156.83 1016.37 1158.44 1018.11C1160.06 1019.84 1161.29 1021.88 1162.08 1024.12C1169.03 1041.02 1168.03 1052.94 1158.1 1065.84C1156.58 1067.83 1154.89 1069.68 1153.04 1071.37L1070.71 1075.82L1060.77 1057.95C1071.08 1042.25 1086.54 1030.63 1104.48 1025.11Z" fill="#263238"/>
<path d="M1156.43 1052.16C1160.71 1041.76 1155.75 1029.86 1145.36 1025.58C1134.96 1021.29 1123.06 1026.25 1118.77 1036.65C1114.49 1047.04 1119.45 1058.95 1129.84 1063.23C1140.24 1067.51 1152.14 1062.56 1156.43 1052.16Z" fill="#ABABAB" stroke="#263238" stroke-width="3" stroke-linecap="round" stroke-linejoin="round"/>
<path d="M564.678 537.484H580.586C580.586 537.484 585.483 516.403 600.892 511.533H613.341C613.341 511.533 603.41 499.747 588.442 501.74C573.475 503.731 564.678 515.628 564.678 537.484Z" fill="white" stroke="#263238" stroke-width="3" stroke-linecap="round" stroke-linejoin="round"/>
<path d="M600.478 502.985C575.275 509.403 580.586 537.483 580.586 537.483C580.586 537.483 585.483 516.403 600.892 511.533H613.341C609.81 507.681 605.395 504.748 600.478 502.985Z" fill="#263238" stroke="#263238" stroke-width="3" stroke-linecap="round" stroke-linejoin="round"/>
<path d="M1074.19 537.484H1058.28C1058.28 537.484 1053.39 516.403 1037.95 511.533H1025.5C1025.5 511.533 1035.43 499.747 1050.4 501.74C1065.37 503.731 1074.19 515.628 1074.19 537.484Z" fill="white" stroke="#263238" stroke-width="3" stroke-linecap="round" stroke-linejoin="round"/>
<path d="M1038.39 502.985C1063.6 509.403 1058.28 537.483 1058.28 537.483C1058.28 537.483 1053.39 516.403 1037.95 511.533H1025.5C1029.04 507.683 1033.47 504.752 1038.39 502.985Z" fill="#263238" stroke="#263238" stroke-width="3" stroke-linecap="round" stroke-linejoin="round"/>
<path d="M592.676 711.995L742.069 701.289L770.204 691.607C770.204 691.607 877.932 687.705 952.658 699.353H763.427" stroke="#8A8A8A" stroke-width="3" stroke-linecap="round" stroke-linejoin="round"/>
<path d="M1170.85 449.672L1207.4 748.266L1202.45 388.975" stroke="#263238" stroke-width="3" stroke-miterlimit="10"/>
<path d="M1194.06 254.88L1207.4 748.266L1247.35 354.45" stroke="#263238" stroke-width="3" stroke-miterlimit="10"/>
<path d="M1134.39 308.22L1208.67 742.982" stroke="#263238" stroke-width="3" stroke-miterlimit="10"/>
<path d="M1263.17 208.846C1262.76 242.044 1235.2 295.991 1201.98 295.578C1168.75 295.162 1141.67 240.633 1142.86 207.407C1144.38 164.47 1170.52 140.512 1203.72 141.01C1236.92 141.508 1263.64 168.012 1263.17 208.846Z" fill="#263238" stroke="#263238" stroke-width="3" stroke-linecap="round" stroke-linejoin="round"/>
<path opacity="0.5" d="M1243.2 176.145C1246.27 185.081 1242.31 194.515 1234.4 197.254C1226.49 199.992 1217.53 194.958 1214.48 186.022C1211.44 177.086 1215.34 167.652 1223.28 164.913C1231.22 162.174 1240.04 167.348 1243.2 176.145Z" fill="white"/>
<path d="M1169.55 250.178C1180.46 281.551 1172.85 341.612 1141.47 352.541C1110.1 363.467 1066.09 321.333 1055.9 289.712C1042.74 248.794 1059.25 217.366 1090.63 206.439C1122 195.51 1156.08 211.612 1169.55 250.178Z" fill="#92E3A9" stroke="#263238" stroke-width="3" stroke-linecap="round" stroke-linejoin="round"/>
<path opacity="0.5" d="M1134.11 224.091C1140.56 230.979 1140.84 241.187 1134.72 246.942C1128.61 252.696 1118.4 251.728 1111.95 244.867C1105.51 238.006 1105.23 227.741 1111.35 221.986C1117.46 216.232 1127.67 217.146 1134.11 224.091Z" fill="white"/>
<path d="M1317.78 304.043C1314.33 337.076 1281.82 388.201 1248.82 384.714C1215.81 381.228 1193.87 324.377 1198.13 291.426C1203.67 248.821 1231.97 227.382 1265 230.868C1298.03 234.354 1322.07 263.318 1317.78 304.043Z" fill="#92E3A9" stroke="#263238" stroke-width="3" stroke-linecap="round" stroke-linejoin="round"/>
<path opacity="0.5" d="M1302.85 270.125C1307.11 278.424 1304.53 288.44 1297.06 292.258C1289.59 296.076 1280.05 292.258 1275.76 283.958C1271.47 275.658 1274.07 265.643 1281.54 261.825C1289.01 258.007 1298.56 261.714 1302.85 270.125Z" fill="white"/>
<path d="M1249.81 341.391C1247.04 374.59 1215.4 426.185 1182.28 423.308C1149.16 420.431 1126.29 363.965 1129.96 330.933C1134.7 288.217 1162.64 266.307 1195.72 269.184C1228.81 272.061 1253.38 300.612 1249.81 341.391Z" fill="#263238" stroke="#263238" stroke-width="3" stroke-linecap="round" stroke-linejoin="round"/>
<path opacity="0.5" d="M1228.18 303.102C1231.25 312.011 1227.32 321.472 1219.38 324.183C1211.44 326.894 1202.53 321.886 1199.46 312.979C1196.39 304.07 1200.32 294.608 1208.26 291.869C1216.2 289.13 1225.1 294.166 1228.18 303.102Z" fill="white"/>
<path d="M1204.99 365.929C1216.06 397.275 1208.45 457.365 1177.08 468.292C1145.71 479.221 1101.64 437.196 1091.32 405.602C1078.06 364.686 1094.53 333.23 1125.9 322.274C1157.27 311.318 1191.47 327.281 1204.99 365.929Z" fill="#92E3A9" stroke="#263238" stroke-width="3" stroke-linecap="round" stroke-linejoin="round"/>
<path opacity="0.5" d="M1176.97 341.639C1184.44 347.421 1186.35 357.493 1181.2 364.104C1176.06 370.715 1165.87 371.463 1158.4 365.681C1150.93 359.899 1149.03 349.939 1154.28 343.216C1159.54 336.494 1169.5 335.885 1176.97 341.639Z" fill="white"/>
<path d="M860.759 624.186C859.003 624.186 857.383 623.879 855.899 623.268C854.429 622.658 853.231 621.726 852.308 620.477C851.396 619.228 850.908 617.641 850.844 615.715H855.372C855.372 616.69 855.612 617.491 856.094 618.115C856.577 618.74 857.221 619.208 858.027 619.521C858.847 619.819 859.745 619.97 860.721 619.97C861.657 619.97 862.491 619.847 863.219 619.599C863.961 619.351 864.54 619 864.956 618.545C865.386 618.076 865.6 617.524 865.6 616.886C865.6 616.04 865.341 615.377 864.82 614.895C864.312 614.413 863.492 613.971 862.36 613.567L857.363 611.576C855.411 610.809 853.914 609.917 852.874 608.902C851.833 607.887 851.312 606.488 851.312 604.706C851.312 602.65 852.126 600.983 853.752 599.709C855.378 598.434 857.65 597.796 860.564 597.796C863.4 597.796 865.594 598.46 867.142 599.787C868.69 601.1 869.569 602.935 869.777 605.291H865.249C865.079 604.29 864.624 603.49 863.883 602.89C863.141 602.279 862.034 601.973 860.564 601.973C859.262 601.973 858.236 602.246 857.48 602.793C856.725 603.326 856.348 604.003 856.348 604.823C856.348 605.526 856.582 606.086 857.051 606.501C857.533 606.905 858.275 607.296 859.276 607.673L864.82 609.82C866.693 610.548 868.132 611.465 869.133 612.572C870.135 613.679 870.636 615.065 870.636 616.73C870.636 618.252 870.252 619.573 869.485 620.692C868.718 621.799 867.597 622.658 866.127 623.268C864.657 623.879 862.868 624.186 860.759 624.186ZM876.793 623.639V598.303H893.072V602.285H881.399V608.961H892.369V612.943H881.399V619.618H893.072V623.639H876.793ZM917.504 618.603L923.984 598.303H928.825L920.119 623.639H915.279L906.69 598.303H911.57L917.972 618.603H917.504ZM933.102 623.639V598.303H949.381V602.285H937.708V608.961H948.678V612.943H937.708V619.618H949.381V623.639H933.102ZM955.974 598.303H961.01L972.527 616.378H972.175V598.303H976.782V623.639H972.097L959.839 604.471H960.581V623.639H955.974V598.303ZM984.035 598.303H992.233C994.81 598.303 997.066 598.825 999.006 599.865C1000.94 600.894 1002.45 602.358 1003.53 604.257C1004.61 606.156 1005.16 608.401 1005.16 610.991C1005.16 613.554 1004.61 615.787 1003.53 617.686C1002.45 619.573 1000.94 621.037 999.006 622.078C997.066 623.118 994.81 623.639 992.233 623.639H984.035V598.303ZM988.642 602.481V619.501H992.233C993.873 619.501 995.284 619.13 996.469 618.389C997.665 617.647 998.583 616.638 999.221 615.363C999.871 614.075 1000.2 612.617 1000.2 610.991C1000.2 609.338 999.871 607.874 999.221 606.599C998.583 605.324 997.665 604.321 996.469 603.593C995.284 602.851 993.873 602.481 992.233 602.481H988.642ZM1010.8 623.639V598.303H1027.08V602.285H1015.4V608.961H1026.37V612.943H1015.4V619.618H1027.08V623.639H1010.8Z" fill="black"/>
<path d="M299.118 402.504C303.793 400.234 306.393 391.243 305.011 381.035C303.489 369.665 297.623 361.088 291.953 361.863C287.471 362.445 284.428 368.697 284.096 376.858L299.118 402.504Z" fill="#263238" stroke="#263238" stroke-width="3" stroke-linecap="round" stroke-linejoin="round"/>
<path d="M177.694 338.873C180.258 335.686 181.828 331.815 182.212 327.743C182.595 323.672 181.775 319.577 179.852 315.966C173.406 302.355 124.024 303.075 106.124 328.858C88.2247 354.643 106.512 384.798 131.023 380.371C150.029 376.969 171.885 349.58 177.694 338.873Z" fill="white" stroke="#263238" stroke-width="3" stroke-linecap="round" stroke-linejoin="round"/>
<path d="M106.041 328.831C106.344 334.921 107.913 340.88 110.647 346.328C113.381 351.778 117.221 356.597 121.921 360.479C138.023 373.953 150.61 371.351 150.61 371.351" stroke="#263238" stroke-width="3" stroke-linecap="round" stroke-linejoin="round"/>
<path d="M110.163 325.262C110.163 325.262 123.664 340.035 136.694 346.121C144.277 349.64 151.666 353.565 158.827 357.879" stroke="#263238" stroke-width="3" stroke-linecap="round" stroke-linejoin="round"/>
<path d="M113.207 320.89C113.207 320.89 131.908 316.104 148.452 320.033C158.634 322.721 167.367 329.27 172.798 338.292" stroke="#263238" stroke-width="3" stroke-linecap="round" stroke-linejoin="round"/>
<path d="M277.954 342.912C277.954 342.912 285.756 355.72 287.415 365.045C289.076 374.367 287.415 381.201 290.183 386.762C292.949 392.323 304.014 400.125 301.857 405.131C299.699 410.14 291.842 413.431 291.842 413.431C291.842 413.431 280.14 439.05 274.025 446.852C267.911 454.654 244.506 446.852 244.506 446.852L243.954 459.106L198.306 450.806C198.306 450.806 203.313 443.559 194.958 434.65C186.603 425.742 161.538 395.67 190.504 366.731C219.471 337.794 268.493 339.564 277.954 342.912Z" fill="white" stroke="#263238" stroke-width="3" stroke-linecap="round" stroke-linejoin="round"/>
<path d="M244.535 447.045L225.666 443.586L243.981 459.301L244.535 447.045Z" fill="#263238" stroke="#263238" stroke-width="3" stroke-linecap="round" stroke-linejoin="round"/>
<path d="M279.642 346.591C276.144 340.031 271.667 334.042 266.361 328.831C249.762 313.061 212.691 310.932 182.619 330.96C152.547 350.991 132.517 406.127 149.697 426.158C166.877 446.188 205.526 433.323 205.526 433.323C205.526 433.323 198.36 404.688 207.685 401.811C217.007 398.934 225.584 402.531 227.05 396.114C228.515 389.694 226.331 373.206 240.66 363.883C254.991 354.559 273.554 358.709 279.642 346.591Z" fill="white" stroke="#263238" stroke-width="3" stroke-linecap="round" stroke-linejoin="round"/>
<path d="M204.115 421.869C204.115 421.869 191.943 431.441 168.15 423.612C144.358 415.783 145.548 391.852 145.548 391.852" stroke="#263238" stroke-width="3" stroke-linecap="round" stroke-linejoin="round"/>
<path d="M150.195 376.581C150.088 382.583 151.882 388.464 155.321 393.383C158.76 398.304 163.667 402.008 169.34 403.97C189.757 411.799 200.215 407.013 200.215 407.013" stroke="#263238" stroke-width="3" stroke-linecap="round" stroke-linejoin="round"/>
<path d="M155.396 363.965C157.701 370.545 161.552 376.475 166.627 381.257C171.701 386.038 177.85 389.53 184.556 391.437C189.976 393.186 195.526 394.499 201.156 395.366" stroke="#263238" stroke-width="3" stroke-linecap="round" stroke-linejoin="round"/>
<path d="M160.182 355.252C171.772 362.581 184.004 368.841 196.728 373.953C215.873 381.367 233.274 370.051 233.274 370.051" stroke="#263238" stroke-width="3" stroke-linecap="round" stroke-linejoin="round"/>
<path d="M169.755 343.964C169.755 343.964 173.241 350.907 208.901 347.007C244.562 343.105 261.466 347.921 264.564 354.836" stroke="#263238" stroke-width="3" stroke-linecap="round" stroke-linejoin="round"/>
<path d="M176.727 335.692C187.53 333.304 198.138 330.105 208.46 326.119C230.204 318.29 264.259 322.717 279.642 346.591" stroke="#263238" stroke-width="3" stroke-linecap="round" stroke-linejoin="round"/>
<path d="M215.541 406.847C215.541 406.847 210.535 387.482 198.942 387.482C187.35 387.482 191.085 411.108 199.66 420.403C208.237 429.698 213.412 424.635 213.412 424.635" fill="white"/>
<path d="M215.541 406.847C215.541 406.847 210.535 387.482 198.942 387.482C187.35 387.482 191.085 411.108 199.66 420.403C208.237 429.698 213.412 424.635 213.412 424.635" stroke="#263238" stroke-width="3" stroke-linecap="round" stroke-linejoin="round"/>
<path d="M253.498 414.704C253.498 414.704 260.636 426.876 272.863 424.028" stroke="#263238" stroke-width="3" stroke-linecap="round" stroke-linejoin="round"/>
<path d="M284.948 387.42C286.738 376.1 279.014 365.472 267.695 363.682C256.375 361.892 245.749 369.616 243.959 380.933C242.167 392.253 249.891 402.881 261.21 404.671C272.529 406.461 283.156 398.737 284.948 387.42Z" fill="#263238" stroke="#263238" stroke-width="3" stroke-linecap="round" stroke-linejoin="round"/>
<path d="M246.332 385.351L209.814 393.955" stroke="#263238" stroke-width="3" stroke-linecap="round" stroke-linejoin="round"/>
<path d="M283.295 380.703L291.869 378.546" stroke="#263238" stroke-width="3" stroke-linecap="round" stroke-linejoin="round"/>
<path d="M213.411 1122.61V1168.42H173.323V1121.89L213.411 1122.61Z" fill="white" stroke="#263238" stroke-width="3" stroke-linecap="round" stroke-linejoin="round"/>
<path d="M249.183 1127.61L248.462 1156.25L269.959 1164.82L283.542 1156.25V1123.32L249.183 1127.61Z" fill="white" stroke="#263238" stroke-width="3" stroke-linecap="round" stroke-linejoin="round"/>
<path d="M286.419 509.901C286.419 509.901 309.243 523.014 312.647 540.029C316.05 557.042 322.854 619.345 330.767 638.599C338.68 657.855 342.11 670.331 337.573 676.004C335.563 678.766 334.128 681.902 333.348 685.228C332.569 688.555 332.463 692.002 333.035 695.369C334.169 699.907 344.378 703.309 339.842 712.384C335.305 721.458 329.66 730.503 329.66 730.503V851.761C329.66 863.105 316.05 876.661 312.647 880.091C309.243 883.522 303.573 871.044 303.573 861.969C303.573 852.897 301.303 644.383 298.039 628.529C294.774 612.677 275.354 512.917 275.354 512.917C275.354 512.917 278.313 503.592 286.419 509.901Z" fill="#92E3A9" stroke="#263238" stroke-width="3" stroke-linecap="round" stroke-linejoin="round"/>
<path d="M312.647 879.98C316.05 876.605 329.66 862.994 329.66 851.651V749.15C320.537 750.836 311.219 751.182 301.996 750.175C302.937 804.565 303.489 857.405 303.489 861.86C303.573 870.934 309.243 883.384 312.647 879.98Z" fill="white" stroke="#263238" stroke-width="3" stroke-linecap="round" stroke-linejoin="round"/>
<path d="M148.978 800.497L171.11 1136.91L215.375 1136.19L244.092 794.77L248.408 795.491L246.249 1135.47L284.981 1134.06L325.067 814.717C325.067 814.717 316.463 741.709 308.468 724.529C303.471 713.857 296.948 703.969 289.103 695.176H174.043C174.043 695.176 154.705 727.49 148.978 800.497Z" fill="#263238" stroke="#263238" stroke-width="3" stroke-linecap="round" stroke-linejoin="round"/>
<path d="M243.456 484.143C243.456 484.143 266.362 499.167 271.37 512.058C276.377 524.95 294.996 702.452 294.996 705.302C294.996 708.15 260.637 707.459 240.606 708.068C220.575 708.677 213.412 708.786 213.412 708.786C213.412 708.786 186.935 534.136 181.9 516.237C176.865 498.336 181.9 491.199 187.627 485.472C193.354 479.746 202.676 478.307 206.992 476.148C211.308 473.991 243.456 484.143 243.456 484.143Z" fill="white" stroke="#263238" stroke-width="3" stroke-linecap="round" stroke-linejoin="round"/>
<path d="M251.339 495.597C251.339 495.597 268.52 533.527 277.815 620.091C283.349 672.933 282.104 817.651 282.104 817.651C284.643 819.817 287.77 821.178 291.084 821.562C294.401 821.947 297.756 821.336 300.723 819.808C311.951 815.574 323.424 812.025 335.083 809.185C335.083 809.185 321.472 716.118 320.779 683.917C320.088 651.714 305.011 558.646 297.873 532.17C290.735 505.694 287.831 502.126 277.097 495.681C266.361 489.234 249.901 487.077 249.901 487.077L251.339 495.597Z" fill="#92E3A9" stroke="#263238" stroke-width="3" stroke-linecap="round" stroke-linejoin="round"/>
<path d="M252.778 492.72C252.778 492.72 257.067 472.691 256.348 464.805C255.628 456.922 253.442 456.285 236.263 455.565C219.082 454.847 199.081 441.179 193.354 448.345C187.627 455.51 186.216 481.986 189.785 485.5C193.354 489.013 208.126 498.751 231.061 500.854C239.195 501.656 250.622 498.447 252.778 492.72Z" fill="white" stroke="#263238" stroke-width="3" stroke-linecap="round" stroke-linejoin="round"/>
<path d="M188.346 481.986C188.346 481.986 144.081 510.619 134.675 521.355C125.269 532.088 143.251 686.71 143.971 725.358C144.169 751.668 142.737 777.962 139.682 804.095C154.317 811.008 169.38 816.977 184.777 821.966C202.424 827.471 221.254 827.969 239.167 823.405C239.167 823.405 229.872 680.983 228.434 639.458C226.995 597.933 212.691 526.361 207.685 509.901C202.676 493.44 188.346 481.986 188.346 481.986Z" fill="#92E3A9" stroke="#263238" stroke-width="3" stroke-linecap="round" stroke-linejoin="round"/>
<path d="M187.627 477.698C187.627 477.698 145.409 505.612 148.259 509.181C151.108 512.751 170.391 607.975 170.391 655.807C170.391 703.641 172.549 798.256 172.549 798.256C172.549 798.256 186.16 798.256 196.176 798.977C206.19 799.695 227.659 796.209 227.659 796.209C227.659 796.209 220.493 697.444 220.493 647.342C220.493 597.24 202.621 520.634 198.36 508.462C194.1 496.29 187.627 477.698 187.627 477.698Z" fill="#263238" stroke="#263238" stroke-width="3" stroke-linecap="round" stroke-linejoin="round"/>
<path d="M253.498 489.152C253.498 489.152 269.959 575.052 277.097 630.881C284.233 686.71 292.146 752.609 292.146 763.288V790.482C292.146 790.482 305.73 792.641 310.738 792.641C314.911 792.334 319.014 791.403 322.91 789.875C322.91 789.875 312.177 694.678 309.327 651.021C306.477 607.366 291.428 525.061 286.419 509.928L281.412 494.906C281.412 494.906 263.457 485.5 253.498 489.152Z" fill="#263238" stroke="#263238" stroke-width="3" stroke-linecap="round" stroke-linejoin="round"/>
<path d="M148.978 989.481L43.8493 961.566C43.8493 961.566 35.9647 995.206 28.8271 1008.79C21.6893 1022.37 16.5713 1046 18.7291 1058.17C20.8871 1070.34 33.7514 1078.23 43.7663 1081.8C53.7813 1085.37 130.387 1107.56 149.697 1106.15C169.007 1104.73 171.829 1088.96 169.754 1075.35C167.679 1061.74 148.978 989.481 148.978 989.481Z" fill="#263238" stroke="#263238" stroke-width="3" stroke-linecap="round" stroke-linejoin="round"/>
<path d="M169.755 1075.35C167.597 1061.77 148.978 989.59 148.978 989.59L142.449 987.847C141.287 993.712 126.707 1066.94 124.66 1085.48C123.581 1095.05 126.209 1100.75 130.691 1104.35C136.94 1105.66 143.312 1106.3 149.697 1106.26C169.035 1104.71 171.885 1088.96 169.755 1075.35Z" fill="#4C4C4C" stroke="#263238" stroke-width="3" stroke-linecap="round" stroke-linejoin="round"/>
<path d="M91.0187 853.449L61.7489 980.931C61.5203 981.911 60.948 982.776 60.1358 983.371C59.3236 983.964 58.3254 984.247 57.3223 984.167C56.7143 984.111 56.126 983.923 55.598 983.617C55.07 983.311 54.615 982.893 54.2648 982.393C53.9146 981.892 53.6777 981.321 53.5703 980.72C53.4628 980.119 53.4875 979.502 53.6429 978.911L89.6079 843.352L123.249 849.079L137.082 996.478C137.137 997.138 137.036 997.8 136.788 998.413C136.54 999.025 136.15 999.57 135.652 1000C135.153 1000.44 134.56 1000.75 133.919 1000.91C133.278 1001.07 132.608 1001.08 131.964 1000.93L131.355 1000.8C130.475 1000.59 129.685 1000.11 129.101 999.424C128.518 998.737 128.173 997.878 128.118 996.978L119.818 855.497L91.0187 853.449Z" fill="#263238" stroke="#263238" stroke-width="3" stroke-linecap="round" stroke-linejoin="round"/>
<path d="M143.251 514.189C143.251 514.189 113.207 524.232 108.891 534.965C104.575 545.699 99.5953 630.163 97.4652 650.191C95.3348 670.222 95.3348 675.256 95.3348 675.256C95.3348 675.256 77.4353 683.833 80.3126 695.287C83.1898 706.739 93.8963 716.754 93.8963 719.631C93.8963 722.508 98.1844 811.231 98.1844 811.231C98.1844 811.231 84.6006 854.197 87.4502 857.765C90.2998 861.333 101.062 865.649 102.5 867.78C103.939 869.91 111.796 877.795 115.365 874.946C117.44 873.314 118.926 871.052 119.597 868.498L121.728 860.642C121.728 860.642 130.332 869.219 132.462 869.219C134.592 869.219 128.893 852.758 128.893 842.023C128.893 831.289 119.597 816.24 119.597 813.39C119.597 810.54 128.948 726.188 128.948 726.188C128.948 726.188 143.251 714.015 144.69 704.057C146.129 694.096 142.532 682.56 143.971 678.992C145.409 675.422 150.417 667.538 151.136 660.373C151.855 653.207 146.129 642.501 145.409 636.774C144.69 631.047 150.417 551.592 150.417 551.592" fill="#92E3A9"/>
<path d="M143.251 514.189C143.251 514.189 113.207 524.232 108.891 534.965C104.575 545.699 99.5953 630.163 97.4652 650.191C95.3348 670.222 95.3348 675.256 95.3348 675.256C95.3348 675.256 77.4353 683.833 80.3126 695.287C83.1898 706.739 93.8963 716.754 93.8963 719.631C93.8963 722.508 98.1844 811.231 98.1844 811.231C98.1844 811.231 84.6006 854.197 87.4502 857.765C90.2998 861.333 101.062 865.649 102.5 867.78C103.939 869.91 111.796 877.795 115.365 874.946C117.44 873.314 118.926 871.052 119.597 868.498L121.728 860.642C121.728 860.642 130.332 869.219 132.462 869.219C134.592 869.219 128.893 852.758 128.893 842.023C128.893 831.289 119.597 816.24 119.597 813.39C119.597 810.54 128.948 726.188 128.948 726.188C128.948 726.188 143.251 714.015 144.69 704.057C146.129 694.096 142.532 682.56 143.971 678.992C145.409 675.422 150.417 667.538 151.136 660.373C151.855 653.207 146.129 642.501 145.409 636.774C144.69 631.047 150.417 551.592 150.417 551.592" stroke="#263238" stroke-width="3" stroke-linecap="round" stroke-linejoin="round"/>
<path d="M102.473 867.78C103.884 869.937 111.768 877.795 115.337 874.946C117.423 873.32 118.919 871.055 119.598 868.498L121.728 860.642C121.728 860.642 130.332 869.219 132.462 869.219C134.592 869.219 128.893 852.758 128.893 842.023C128.893 831.289 119.598 816.24 119.598 813.39C119.598 811.453 123.83 772.251 126.597 746.993L94.9201 744.559C96.1928 771.726 98.1016 811.204 98.1016 811.204C98.1016 811.204 84.5179 854.167 87.3676 857.737C90.217 861.306 101.034 865.649 102.473 867.78Z" fill="white" stroke="#263238" stroke-width="3" stroke-linecap="round" stroke-linejoin="round"/>
<path d="M206.965 1165.54C206.965 1165.54 181.208 1161.25 176.893 1161.25C172.577 1161.25 153.986 1190.61 151.136 1202.03C148.287 1213.46 156.863 1217.77 158.993 1217.77H215.541C215.541 1217.77 224.145 1217.77 224.864 1204.16C225.584 1190.55 219.857 1171.24 219.857 1166.23C219.857 1161.23 223.425 1154.78 221.986 1151.21C220.548 1147.64 207.685 1145.51 206.965 1165.54Z" fill="#92E3A9" stroke="#263238" stroke-width="3" stroke-linecap="round" stroke-linejoin="round"/>
<path d="M224.864 1204.19C224.996 1200.21 224.791 1196.22 224.257 1192.27C221.212 1195.84 218.944 1202.56 214.85 1205.63C209.123 1209.92 194.792 1208.4 191.943 1207.79C189.093 1207.18 181.9 1193.46 178.331 1191.33C174.762 1189.2 166.878 1205.63 166.878 1205.63H150.583C150.231 1208.32 150.882 1211.05 152.412 1213.3C153.943 1215.54 156.246 1217.15 158.882 1217.8H215.541C215.541 1217.8 224.145 1217.8 224.864 1204.19Z" fill="white" stroke="#263238" stroke-width="3" stroke-linecap="round" stroke-linejoin="round"/>
<path d="M175.15 1166.46C175.15 1166.46 170.336 1133.95 173.932 1132.54C177.529 1131.13 209.648 1127.81 211.087 1134.94C212.526 1142.08 207.048 1167.26 207.048 1167.26L175.15 1166.46Z" fill="white" stroke="#263238" stroke-width="3" stroke-linecap="round" stroke-linejoin="round"/>
<path d="M182.758 1132.87L182.315 1145.4L199.772 1146.29L201.128 1132.87C195.08 1131.51 188.805 1131.51 182.758 1132.87Z" fill="#92E3A9" stroke="#263238" stroke-width="3" stroke-linecap="round" stroke-linejoin="round"/>
<path d="M210.173 1172.13L173.324 1170.91C172.994 1170.9 172.669 1170.83 172.368 1170.7C172.067 1170.56 171.795 1170.37 171.569 1170.13C171.343 1169.89 171.166 1169.61 171.049 1169.3C170.932 1168.99 170.878 1168.67 170.889 1168.34C170.888 1168 170.956 1167.67 171.089 1167.37C171.222 1167.06 171.416 1166.78 171.66 1166.55C171.904 1166.32 172.192 1166.15 172.507 1166.04C172.822 1165.92 173.156 1165.88 173.49 1165.9L210.339 1167.09C211.007 1167.09 211.647 1167.36 212.119 1167.83C212.592 1168.3 212.857 1168.94 212.857 1169.61C212.857 1170.28 212.592 1170.92 212.119 1171.39C211.647 1171.86 211.007 1172.13 210.339 1172.13H210.173Z" fill="white" stroke="#263238" stroke-width="3" stroke-linecap="round" stroke-linejoin="round"/>
<path d="M207.96 1177.88L171.11 1176.66C170.447 1176.64 169.82 1176.36 169.364 1175.88C168.908 1175.4 168.661 1174.75 168.676 1174.09C168.671 1173.76 168.736 1173.42 168.867 1173.11C168.998 1172.81 169.193 1172.53 169.437 1172.3C169.682 1172.07 169.972 1171.89 170.289 1171.78C170.606 1171.67 170.942 1171.63 171.276 1171.66L208.126 1172.85C208.795 1172.85 209.435 1173.11 209.906 1173.58C210.378 1174.05 210.644 1174.7 210.644 1175.36C210.644 1176.03 210.378 1176.67 209.906 1177.14C209.435 1177.62 208.795 1177.88 208.126 1177.88H207.96Z" fill="white" stroke="#263238" stroke-width="3" stroke-linecap="round" stroke-linejoin="round"/>
<path d="M203.701 1183.19L173.628 1181.98C173.023 1181.89 172.477 1181.57 172.105 1181.08C171.733 1180.59 171.565 1179.98 171.636 1179.38C171.636 1177.99 172.605 1176.8 173.767 1176.97L203.84 1178.16C204.441 1178.25 204.984 1178.58 205.355 1179.06C205.723 1179.55 205.895 1180.15 205.831 1180.76C205.868 1181.36 205.667 1181.96 205.267 1182.41C204.868 1182.87 204.304 1183.15 203.701 1183.19Z" fill="white" stroke="#263238" stroke-width="3" stroke-linecap="round" stroke-linejoin="round"/>
<path d="M270.677 1156.97C270.677 1156.97 247.051 1146.23 242.045 1151.24C237.038 1156.25 235.599 1159.1 239.279 1161.25C242.958 1163.41 247.883 1166.26 247.883 1166.26C247.883 1166.26 239.997 1202.75 242.874 1207.76C245.09 1211.2 248.014 1214.12 251.451 1216.34H350.216C350.216 1216.34 355.943 1213.57 350.935 1203.44C345.928 1193.32 325.899 1188.42 318.013 1183.41C310.13 1178.41 295.108 1159.79 294.387 1157.66C293.669 1155.53 297.985 1136.16 292.976 1134.03C287.969 1131.9 272.2 1134.03 272.92 1139.76C273.705 1144.39 274.909 1148.93 276.516 1153.34L270.677 1156.97Z" fill="#92E3A9" stroke="#263238" stroke-width="3" stroke-linecap="round" stroke-linejoin="round"/>
<path d="M292.396 1182.8C293.419 1184.27 294.912 1185.16 295.744 1184.8L311.512 1178.1C309.964 1176.61 308.359 1174.95 306.809 1173.26L292.035 1179.51C291.124 1179.9 291.372 1181.34 292.396 1182.8Z" fill="white" stroke="#263238" stroke-width="3" stroke-linecap="round" stroke-linejoin="round"/>
<path d="M283.515 1171.6C284.51 1173.07 286.281 1173.9 287.167 1173.43L301.414 1167.2C299.837 1165.32 298.425 1163.58 297.291 1162.11L283.46 1168.14C282.381 1168.42 282.492 1170.08 283.515 1171.6Z" fill="white" stroke="#263238" stroke-width="3" stroke-linecap="round" stroke-linejoin="round"/>
<path d="M286.281 1174.87C285.174 1175.2 285.285 1176.86 286.281 1178.32C287.278 1179.79 289.048 1180.59 289.933 1180.15L306.532 1172.9C305.011 1171.24 303.516 1169.55 302.134 1167.95L286.281 1174.87Z" fill="white" stroke="#263238" stroke-width="3" stroke-linecap="round" stroke-linejoin="round"/>
<path d="M296.462 1160.76C295.744 1158.63 300.944 1132.65 295.937 1130.52C290.928 1128.39 273.584 1134.06 272.809 1139.79C272.088 1145.04 276.404 1153.37 276.404 1153.37L284.262 1167.7C284.262 1167.7 295.023 1162.91 296.462 1160.76Z" fill="white" stroke="#263238" stroke-width="3" stroke-linecap="round" stroke-linejoin="round"/>
<path d="M282.188 1133.31L285.313 1142.28L293.392 1139.51L291.594 1130.99C291.594 1130.99 284.429 1130.1 282.188 1133.31Z" fill="#92E3A9" stroke="#263238" stroke-width="3" stroke-linecap="round" stroke-linejoin="round"/>
<path d="M350.825 1203.47C349.632 1201.31 348.002 1199.43 346.039 1197.94C345.953 1198.13 345.879 1198.32 345.816 1198.52C344.378 1203.53 346.537 1208.54 343.687 1211.41C340.837 1214.29 326.506 1213.57 315.054 1212.13C303.6 1210.69 283.542 1204.25 269.959 1199.24C261.001 1196.39 251.433 1196.04 242.294 1198.24C241.943 1201.44 242.064 1204.68 242.653 1207.84C242.93 1210.02 243.922 1212.04 245.474 1213.6C247.028 1215.15 249.052 1216.14 251.23 1216.42H349.995C349.995 1216.42 355.832 1213.51 350.825 1203.47Z" fill="white" stroke="#263238" stroke-width="3" stroke-linecap="round" stroke-linejoin="round"/>
<path d="M546.486 1202.48C538.922 1199.39 531.598 1195.73 524.577 1191.55C524.577 1191.55 565.066 990.453 566.579 924.384C568.089 858.315 577.078 721.729 577.078 721.729H395.811C395.811 721.729 404.799 858.358 406.312 924.384C407.823 990.41 439.756 1191.55 439.756 1191.55C432.739 1195.74 425.418 1199.4 417.848 1202.48C408.125 1206.16 395.984 1211.13 402.033 1213.46C410.284 1216.11 419.013 1216.94 427.613 1215.88C440.315 1212.5 452.561 1207.6 464.083 1201.28C468.922 1197.65 475.447 805.771 475.447 805.771H488.41C488.41 805.771 495.238 1197.65 500.077 1201.28C511.611 1207.61 523.873 1212.51 536.589 1215.88C545.178 1216.94 553.891 1216.11 562.126 1213.46C568.089 1211 556.077 1206.16 546.486 1202.48Z" fill="#263238" stroke="#263238" stroke-width="3" stroke-linecap="round" stroke-linejoin="round"/>
<path d="M460.367 467.999L403.287 517.517V729.203H550.417V516.005L503.491 469.121L460.367 467.999Z" fill="white" stroke="#263238" stroke-width="3" stroke-linecap="round" stroke-linejoin="round"/>
<path d="M495.412 520.197L480.936 513.543L469.96 518.728L479.078 548.326L463.564 705.87L478.256 721.729L495.412 705.222L484.91 548.326L495.412 520.197Z" fill="#92E3A9"/>
<path d="M382.805 506.801L291.028 622.908L353.12 630.036L383.627 602.512L382.805 506.801Z" fill="white" stroke="#263238" stroke-width="3" stroke-linecap="round" stroke-linejoin="round"/>
<path d="M450.947 466.703L382.805 506.801V993.736H455.744V469.121L450.947 466.703Z" fill="white" stroke="#263238" stroke-width="3" stroke-linecap="round" stroke-linejoin="round"/>
<path d="M576.473 506.801L669.506 610.938L607.411 618.067L575.956 602.512L576.473 506.801Z" fill="white" stroke="#263238" stroke-width="3" stroke-linecap="round" stroke-linejoin="round"/>
<path d="M508.287 466.703L576.473 506.801V993.736H503.491V469.121L508.287 466.703Z" fill="white" stroke="#263238" stroke-width="3" stroke-linecap="round" stroke-linejoin="round"/>
<path d="M481.325 513.541L448.571 528.45V485.586H512.868V528.45L481.325 513.541Z" fill="white" stroke="#263238" stroke-width="3" stroke-linecap="round" stroke-linejoin="round"/>
<path d="M512.868 485.586L480.936 513.541L449.651 485.586V411.005H512.868V485.586Z" fill="white" stroke="#263238" stroke-width="3" stroke-linecap="round" stroke-linejoin="round"/>
<g style="mix-blend-mode:multiply">
<g style="mix-blend-mode:multiply">
<path d="M448.658 459.096L471.343 485.369H491.955L512.868 462.25L510.881 440.344L449.651 437.449L448.658 459.096Z" fill="#E1BEE7"/>
</g>
</g>
<path d="M442.78 391.214C442.78 391.214 431.071 388.146 432.238 396.356C433.405 404.565 436.948 419.82 442.825 423.362L448.658 426.862L442.78 391.214Z" fill="white" stroke="#263238" stroke-width="3" stroke-linecap="round" stroke-linejoin="round"/>
<path d="M521.337 391.214C521.337 391.214 533.047 388.146 531.88 396.356C530.714 404.565 527.17 419.82 521.337 423.362L515.46 426.862L521.337 391.214Z" fill="white" stroke="#263238" stroke-width="3" stroke-linecap="round" stroke-linejoin="round"/>
<path d="M526.824 377.604C526.859 371.145 525.489 364.756 522.811 358.879C520.133 353.001 516.209 347.776 511.312 343.564C506.417 339.354 500.664 336.256 494.451 334.486C488.24 332.715 481.719 332.315 475.338 333.314C468.957 334.314 462.869 336.685 457.496 340.269C452.122 343.851 447.589 348.559 444.215 354.065C440.84 359.57 438.7 365.744 437.945 372.16C437.19 378.574 437.838 385.076 439.842 391.214L451.163 444.578L471.905 473.66H491.91L512.003 448.337L524.275 392.467C525.963 387.693 526.826 382.667 526.824 377.604Z" fill="white" stroke="#263238" stroke-width="3" stroke-linecap="round" stroke-linejoin="round"/>
<path d="M448.657 386.461C448.657 386.461 455.831 378.683 462.268 381.275C468.708 383.869 466.201 391.645 484.953 393.59C495.496 394.872 506.192 393.748 516.239 390.306L517.232 374.059L448.529 364.641L448.657 386.461Z" fill="#E1BEE7"/>
<path d="M517.232 374.059C514.742 379.647 513.166 385.601 512.565 391.689C513.559 398.952 515.536 406.045 518.442 412.775C518.442 412.775 532.485 383.479 531.405 372.894C530.324 362.306 516.239 370.559 517.232 374.059Z" fill="#263238" stroke="#263238" stroke-width="3" stroke-linecap="round" stroke-linejoin="round"/>
<path d="M443.342 410.443C443.342 410.443 443.342 408.627 443.644 405.861C444.292 398.3 446.065 383.695 450.386 381.103C456.262 377.603 455.657 359.109 455.657 359.109C455.657 359.109 447.447 368.355 475.621 377.732C503.793 387.109 526.652 383.479 541.904 363.516C557.158 343.554 543.071 329.51 540.694 336.553C538.319 343.597 533.651 352.972 525.442 345.93C517.232 338.887 504.355 324.8 480.893 324.8C457.429 324.8 446.885 345.93 446.885 345.93C443.117 347.759 439.92 350.579 437.636 354.089C435.353 357.598 434.068 361.664 433.922 365.849C434.139 379.936 443.342 410.443 443.342 410.443Z" fill="#263238" stroke="#263238" stroke-width="3" stroke-linecap="round" stroke-linejoin="round"/>
<path d="M525.873 373.282C509.282 373.93 495.152 362.738 480.719 352.886C466.287 343.035 456.521 352.886 456.521 352.886C457.642 347.526 460.496 342.683 464.643 339.106C468.789 335.53 473.999 333.418 479.466 333.096C499.083 331.842 505.392 358.763 523.713 361.139" stroke="white" stroke-width="3" stroke-linecap="round" stroke-linejoin="round"/>
<path d="M479.078 409.449H439.799L444.121 422.412C444.503 423.651 445.271 424.738 446.313 425.515C447.353 426.292 448.612 426.718 449.91 426.733H470.175C471.53 426.725 472.843 426.267 473.907 425.429C474.971 424.592 475.726 423.423 476.052 422.109L479.078 409.449Z" fill="white" stroke="#263238" stroke-width="3" stroke-linecap="round" stroke-linejoin="round"/>
<path d="M522.591 409.449H483.355L487.677 422.412C488.045 423.651 488.805 424.74 489.839 425.519C490.872 426.296 492.129 426.722 493.423 426.733H513.69C515.05 426.735 516.374 426.28 517.445 425.441C518.519 424.604 519.28 423.431 519.608 422.109L522.591 409.449Z" fill="white" stroke="#263238" stroke-width="3" stroke-linecap="round" stroke-linejoin="round"/>
<path d="M439.799 409.449L437.855 390.307" stroke="#263238" stroke-width="3" stroke-linecap="round" stroke-linejoin="round"/>
<path d="M522.591 409.449L527.084 391.3" stroke="#263238" stroke-width="3" stroke-linecap="round" stroke-linejoin="round"/>
<path d="M479.078 409.449H483.354" stroke="#263238" stroke-width="3" stroke-linecap="round" stroke-linejoin="round"/>
<path d="M477.997 415.584H484.953" stroke="#263238" stroke-width="3" stroke-linecap="round" stroke-linejoin="round"/>
<path d="M489.403 440.344C489.403 440.344 486.423 444.666 482.966 444.666C479.509 444.666 476.484 440.344 476.484 440.344" stroke="#263238" stroke-width="3" stroke-linecap="round" stroke-linejoin="round"/>
<path d="M449.824 466.746L456.521 529.141L455.83 669.445L417.374 537.308L439.411 527.326L415.775 516.869L437.293 472.838L449.824 466.746Z" fill="white" stroke="#263238" stroke-width="3" stroke-linecap="round" stroke-linejoin="round"/>
<path d="M513.299 466.746L503.621 524.777L503.967 671.475L545.795 537.308L523.757 527.326L547.35 516.869L525.83 472.838L513.299 466.746Z" fill="white" stroke="#263238" stroke-width="3" stroke-linecap="round" stroke-linejoin="round"/>
<path d="M388.25 628.48L415.085 612.709V627.53L388.25 628.48Z" fill="white" stroke="#263238" stroke-width="3" stroke-linecap="round" stroke-linejoin="round"/>
<path d="M519.738 597.975C519.738 597.975 509.54 582.247 505.868 582.247C502.194 582.247 493.813 596.117 495.669 600.784C497.527 605.449 507.726 594.302 507.726 594.302L515.114 614.655L519.738 597.975Z" fill="white" stroke="#263238" stroke-width="3" stroke-linecap="round" stroke-linejoin="round"/>
<path d="M516.239 602.512L502.368 603.462C498.472 606.177 494.059 608.059 489.404 608.994C482.923 609.945 479.207 611.803 484.781 616.425C490.356 621.049 502.368 613.659 502.368 613.659L516.239 619.191C517.365 618.113 518.261 616.819 518.874 615.387C519.487 613.952 519.803 612.41 519.803 610.852C519.803 609.293 519.487 607.751 518.874 606.316C518.261 604.883 517.365 603.589 516.239 602.512Z" fill="white" stroke="#263238" stroke-width="3" stroke-linecap="round" stroke-linejoin="round"/>
<path d="M521.597 630.295C524.806 633.499 529.014 635.511 533.523 635.999C540.868 636.692 556.165 625.371 556.165 625.371L553.485 613.402L532.182 606.617L521.597 630.295Z" fill="white" stroke="#263238" stroke-width="3" stroke-linecap="round" stroke-linejoin="round"/>
<path d="M519.739 592.358C519.739 592.358 505.868 610.852 505.868 614.567C505.868 618.283 516.973 630.296 521.597 630.296C524.621 630.296 532.528 624.766 537.585 620.92C538.2 620.464 538.721 619.89 539.116 619.232C539.51 618.574 539.769 617.846 539.883 617.087C539.994 616.328 539.957 615.555 539.769 614.811C539.584 614.067 539.252 613.368 538.793 612.754C533.523 605.494 523.11 592.358 519.739 592.358Z" fill="white" stroke="#263238" stroke-width="3" stroke-linecap="round" stroke-linejoin="round"/>
<path d="M510.881 621.395L527.517 600.091" stroke="#263238" stroke-width="3" stroke-linecap="round" stroke-linejoin="round"/>
<path d="M535.51 610.722L516.239 627.358" stroke="#263238" stroke-width="3" stroke-linecap="round" stroke-linejoin="round"/>
<path d="M544.671 608.389V665.772L655.462 652.809C660.637 652.089 665.366 649.487 668.745 645.501C672.124 641.517 673.917 636.426 673.783 631.203V622.95C673.728 620.097 673.102 617.282 671.938 614.674C670.775 612.068 669.1 609.72 667.012 607.774C664.923 605.828 662.466 604.319 659.784 603.341C657.102 602.363 654.252 601.934 651.4 602.08L544.671 608.389Z" fill="white" stroke="#263238" stroke-width="3" stroke-linecap="round" stroke-linejoin="round"/>
<path d="M480.719 689.927H422.601C420.59 689.927 418.656 689.15 417.206 687.756C415.755 686.363 414.902 684.461 414.824 682.451L411.325 587.388C411.295 586.346 411.475 585.31 411.852 584.339C412.23 583.367 412.796 582.481 413.522 581.734C414.247 580.984 415.113 580.389 416.072 579.979C417.03 579.571 418.061 579.356 419.101 579.35H484.176C485.221 579.35 486.253 579.559 487.213 579.967C488.174 580.373 489.044 580.97 489.77 581.72C490.495 582.469 491.063 583.358 491.437 584.332C491.814 585.306 491.99 586.346 491.955 587.388L488.455 682.451C488.387 684.457 487.541 686.359 486.099 687.752C484.656 689.148 482.726 689.927 480.719 689.927Z" fill="#263238" stroke="#263238" stroke-width="3" stroke-linecap="round" stroke-linejoin="round"/>
<path d="M388.249 628.437L410.46 621.049L445.677 621.957C445.677 621.957 449.348 628.437 445.677 629.388C442.003 630.339 426.232 631.246 426.232 631.246L447.535 635.87C447.535 635.87 447.535 642.353 443.819 642.353C440.102 642.353 423.423 652.549 418.799 656.223C414.177 659.895 385.483 654.408 385.483 654.408L372.521 653.457V630.296L388.249 628.437Z" fill="white" stroke="#263238" stroke-width="3" stroke-linecap="round" stroke-linejoin="round"/>
<path d="M379.91 625.671V683.099L294.742 671.994C289.568 671.264 284.84 668.662 281.455 664.681C278.071 660.699 276.263 655.614 276.378 650.389V642.179C276.433 639.329 277.06 636.518 278.219 633.914C279.381 631.31 281.051 628.964 283.134 627.018C285.219 625.072 287.67 623.565 290.346 622.583C293.024 621.602 295.87 621.168 298.718 621.309L379.91 625.671Z" fill="white" stroke="#263238" stroke-width="3" stroke-linecap="round" stroke-linejoin="round"/>
<path d="M576.473 775.267H529.764V789.006H576.473V775.267Z" fill="white" stroke="#263238" stroke-width="3" stroke-linecap="round" stroke-linejoin="round"/>
<path d="M429.514 775.267H382.805V789.006H429.514V775.267Z" fill="white" stroke="#263238" stroke-width="3" stroke-linecap="round" stroke-linejoin="round"/>
<path d="M239.044 1031.68V1212.34" stroke="white" stroke-width="3" stroke-linecap="round" stroke-linejoin="round"/>
<path d="M322.657 762.173V776.217C322.645 791.025 316.991 805.272 306.843 816.056L254.99 871.063C244.668 882.07 238.922 896.593 238.916 911.681V1004.89" stroke="white" stroke-width="3" stroke-linecap="round" stroke-linejoin="round"/>
<path d="M372.52 713.217H354.588C346.121 713.217 337.999 716.58 332.01 722.569C326.022 728.557 322.656 736.679 322.656 745.149" stroke="white" stroke-width="3" stroke-linecap="round" stroke-linejoin="round"/>
<path d="M711.117 1098.61V907.316C711.119 898.866 712.924 890.514 716.41 882.816C719.898 875.119 724.987 868.254 731.339 862.68L789.586 811.734C795.828 806.269 800.831 799.533 804.259 791.975C807.688 784.419 809.46 776.217 809.462 767.92V745.148" stroke="white" stroke-width="3" stroke-linecap="round" stroke-linejoin="round"/>
<path d="M711.117 1212.34V1121.85" stroke="white" stroke-width="3" stroke-linecap="round" stroke-linejoin="round"/>
<path d="M33.835 1217.8H1323.04" stroke="#263238" stroke-width="3" stroke-linecap="round" stroke-linejoin="round"/>
</g>
<defs>
<clipPath id="clip0_198_3064">
<rect width="1339.41" height="1218" fill="white"/>
</clipPath>
</defs>
</svg>
