<svg width="6862" height="6240" viewBox="0 0 6862 6240" fill="none" xmlns="http://www.w3.org/2000/svg">
<path d="M1987.53 1156.41C1933.11 1126.64 1908.31 1151.45 1888.32 1126.64C1868.34 1101.84 1942.89 1037.49 1794.21 973.004C1794.21 973.004 1784.29 834.246 1581.61 829.286C1378.93 824.325 1432.36 968.043 1378.08 1002.77C1323.79 1037.49 1308.63 982.925 1254.06 1016.94C1199.49 1050.96 1224.44 1120.97 1179.79 1130.33C1135.15 1139.68 1075.76 1085.68 1021.19 1120.41C966.625 1155.13 967.051 1186.17 941.822 1186.17C916.593 1186.17 867.412 1166.33 837.648 1186.17C807.883 1206.01 773.3 1230.68 773.3 1230.68H2027.08C2027.08 1230.68 2041.96 1186.17 1987.53 1156.41Z" stroke="#263238" stroke-width="0.686672" stroke-linecap="round" stroke-linejoin="round"/>
<path d="M1245.7 1136C1238.62 1140.07 1231.22 1143.57 1223.59 1146.49" stroke="#263238" stroke-width="0.686672" stroke-linecap="round" stroke-linejoin="round"/>
<path d="M1514 904.546C1501.7 910.069 1490.89 918.437 1482.47 928.96C1474.04 939.483 1468.23 951.858 1465.53 965.066C1456.46 1010.42 1435.34 1040.61 1411.1 1043.59C1386.87 1046.56 1296.16 1037.63 1281.13 1070.8C1277.09 1080.58 1274.23 1090.81 1272.63 1101.27" stroke="#263238" stroke-width="0.686672" stroke-linecap="round" stroke-linejoin="round"/>
<path d="M5672.62 1853.03C5630.1 1829.93 5610.96 1849.2 5595.66 1829.93C5580.35 1810.65 5638.18 1760.62 5522.38 1710.59C5522.38 1710.59 5514.73 1602.59 5356.69 1598.76C5198.66 1594.93 5241.18 1706.62 5198.8 1733.69C5156.42 1760.76 5144.94 1718.24 5102.56 1745.17C5060.19 1772.1 5079.32 1826.1 5044.74 1833.75C5010.15 1841.41 4963.81 1799.17 4921.43 1826.1C4879.05 1853.03 4878.91 1876.13 4859.77 1876.13C4840.64 1876.13 4801.95 1860.83 4778.84 1876.13C4755.74 1891.44 4728.81 1910.86 4728.81 1910.86H5703.52C5703.52 1910.86 5715.14 1876.13 5672.62 1853.03Z" stroke="#263238" stroke-width="0.686672" stroke-linecap="round" stroke-linejoin="round"/>
<path d="M5096.04 1837.3C5090.5 1840.34 5084.77 1843.04 5078.89 1845.38" stroke="#263238" stroke-width="0.686672" stroke-linecap="round" stroke-linejoin="round"/>
<path d="M5304.11 1657.29C5294.56 1661.59 5286.17 1668.1 5279.64 1676.28C5273.11 1684.47 5268.62 1694.09 5266.55 1704.35C5259.46 1739.5 5243.02 1763.03 5224.03 1765.44C5205.04 1767.85 5134.74 1760.76 5122.97 1786.56C5119.83 1794.15 5117.64 1802.1 5116.45 1810.23" stroke="#263238" stroke-width="0.686672" stroke-linecap="round" stroke-linejoin="round"/>
<path d="M4998.53 1828.79H5066.14" stroke="#263238" stroke-width="0.686672" stroke-linecap="round" stroke-linejoin="round"/>
<path d="M5595.66 1828.79H6051.19C6051.19 1828.79 6087.76 1718.95 5953.53 1645.67C5819.31 1572.4 5758.22 1633.48 5709.47 1572.4C5660.71 1511.31 5843.69 1352.71 5477.45 1194.11C5477.45 1194.11 5453.07 852.246 4953.03 839.774C4453 827.301 4586.94 1181.49 4452.57 1266.96C4318.21 1352.43 4281.78 1218.2 4147.42 1303.67C4013.05 1389.13 4074.28 1559.92 3964.44 1584.3C3854.6 1608.68 3708.04 1474.46 3573.82 1559.92C3439.6 1645.39 3439.6 1718.67 3378.51 1718.67C3317.42 1718.67 3195.39 1669.77 3122.11 1718.67C3048.84 1767.56 2963.51 1828.51 2963.51 1828.51H4921.43" stroke="#263238" stroke-width="0.686672" stroke-linecap="round" stroke-linejoin="round"/>
<path d="M4126.72 1595.5C4109.2 1605.35 4091.02 1613.97 4072.3 1621.29" stroke="#263238" stroke-width="0.686672" stroke-linecap="round" stroke-linejoin="round"/>
<path d="M4192.92 1509.32C4196.9 1483.65 4203.89 1458.53 4213.75 1434.49C4251.03 1352.57 4474.54 1374.82 4534.07 1367.45C4593.6 1360.08 4645.75 1285.53 4668.15 1173.7C4674.74 1141.18 4688.99 1110.7 4709.72 1084.79C4730.45 1058.89 4757.07 1038.3 4787.35 1024.74" stroke="#263238" stroke-width="0.686672" stroke-linecap="round" stroke-linejoin="round"/>
<path d="M235.42 425.486C331.232 343.091 425.249 259.468 517.471 174.617C395.107 137.766 273.31 98.5999 152.081 57.1191C177.687 179.861 205.467 302.65 235.42 425.486Z" fill="#92E3A9"/>
<path d="M661.897 552.479C753.93 466.022 844.073 378.666 932.326 290.413C809.017 258.948 686.181 225.121 563.817 188.932C594.243 309.972 626.936 431.155 661.897 552.479Z" fill="#263238"/>
<path d="M1076.75 657.504C1165.1 567.267 1251.37 475.99 1335.56 383.674C1211.49 357.406 1087.67 328.729 964.074 297.642C999.508 417.737 1037.07 537.692 1076.75 657.504Z" fill="#92E3A9"/>
<path d="M1510.03 748.071C1594.22 654.244 1676.52 559.376 1756.93 463.47C1631.83 442.588 1507.06 419.249 1382.61 393.453C1423.06 511.754 1465.53 629.96 1510.03 748.071Z" fill="#263238"/>
<path d="M1930.84 817.804C2011.06 720.575 2089.35 622.448 2165.69 523.423C2039.65 507.549 1914.12 489.36 1789.11 468.855C1834.08 585.55 1881.33 701.866 1930.84 817.804Z" fill="#92E3A9"/>
<path d="M2368.37 871.522C2443.97 770.986 2517.9 669.599 2590.19 567.361C2464.04 556.873 2338.14 544.022 2212.47 528.81C2262.36 643.898 2314.33 758.135 2368.37 871.522Z" fill="#263238"/>
<path d="M2792.02 906.531C2863.73 802.592 2933.47 698.324 3001.22 593.724C2874.98 588.338 2748.74 580.59 2622.5 570.479C2676.93 683.016 2733.43 795.033 2792.02 906.531Z" fill="#92E3A9"/>
<path d="M3232.1 924.247C3299.47 817.663 3364.72 710.323 3427.84 602.227C3301.41 602.227 3175.03 599.818 3048.7 594.999C3107.85 705.551 3168.98 815.301 3232.1 924.247Z" fill="#263238"/>
<path d="M3656.88 923.68C3719.81 814.545 3780.66 704.843 3839.43 594.574C3713.1 599.677 3586.72 602.37 3460.29 602.653C3523.79 710.371 3589.32 817.38 3656.88 923.68Z" fill="#92E3A9"/>
<path d="M4096.96 904.829C4155.26 793.143 4211.48 680.937 4265.62 568.211C4139.48 578.699 4013.2 586.778 3886.77 592.447C3954.9 697.331 4024.96 801.458 4096.96 904.829Z" fill="#263238"/>
<path d="M4520.6 869.112C4574.27 755.158 4625.91 640.779 4675.52 525.975C4549.75 541.565 4423.85 554.747 4297.8 565.518C4370.18 667.567 4444.45 768.765 4520.6 869.112Z" fill="#92E3A9"/>
<path d="M4958.28 813.836C5007.32 697.614 5054.18 581.109 5098.88 464.32C4973.77 485.297 4848.48 503.864 4723 520.022C4799.54 618.858 4877.96 716.796 4958.28 813.836Z" fill="#263238"/>
<path d="M5378.66 742.969C5422.88 624.763 5465.02 506.415 5505.09 387.926C5380.83 414.005 5256.11 437.627 5130.91 458.793C5211.6 554.416 5294.19 649.141 5378.66 742.969Z" fill="#92E3A9"/>
<path d="M5811.66 651.126C5851.25 531.219 5888.53 410.981 5923.49 290.413C5800.08 321.878 5676.21 350.886 5551.86 377.438C5636.62 469.943 5723.22 561.172 5811.66 651.126Z" fill="#263238"/>
<path d="M6226.37 545.534C6260.96 424.021 6293.46 302.507 6323.89 180.994C6201.05 217.467 6078.21 251.578 5955.38 283.326C6043.82 371.674 6134.15 459.076 6226.37 545.534Z" fill="#92E3A9"/>
<path d="M6652.57 416.839C6682.05 294.003 6709.5 171.167 6734.91 48.3311C6613.87 90.0953 6492.17 129.545 6369.81 166.679C6462.5 251.341 6556.75 334.728 6652.57 416.839Z" fill="#263238"/>
<path d="M6861.2 8.64578C4643.78 806.888 2217.41 806.888 0 8.64578L3.25987 0C2218.65 797.541 4642.83 797.541 6858.22 0C6859.07 2.83468 6860.06 5.66937 6861.2 8.64578Z" fill="#263238"/>
<path d="M2134.8 5373.98H2679.2V6040.13C2679.2 6092.76 2658.29 6143.23 2621.08 6180.44C2583.87 6217.65 2533.4 6238.56 2480.77 6238.56H2333.22C2280.6 6238.56 2230.13 6217.65 2192.91 6180.44C2155.7 6143.23 2134.8 6092.76 2134.8 6040.13V5373.98Z" fill="#263238" stroke="#263238" stroke-linecap="round" stroke-linejoin="round"/>
<path d="M5732.15 5373.98H6276.55V6040.13C6276.55 6092.76 6255.64 6143.23 6218.43 6180.44C6181.22 6217.65 6130.74 6238.56 6078.12 6238.56H5930.57C5877.95 6238.56 5827.48 6217.65 5790.26 6180.44C5753.05 6143.23 5732.15 6092.76 5732.15 6040.13V5373.98Z" fill="#263238" stroke="#263238" stroke-linecap="round" stroke-linejoin="round"/>
<path d="M6482.91 3578.64C6441.67 3530.45 6276.26 3509.76 6193.49 3502.81C6110.72 3495.87 6090.17 3571.7 6090.17 3640.72C6090.17 3709.74 6104.34 3812.93 6090.17 3840.56L6075.99 3868.06L5917.82 3454.62L5561.36 2741.42C5542.23 2702.45 5510.45 2671.12 5471.21 2652.55C5452.26 2643.79 5432.45 2637 5412.11 2632.28L4149.83 2600.68C4114.49 2599.83 4079.15 2599.83 4043.81 2600.68L2922.98 2632.28C2906.93 2640.09 2893.91 2653 2885.99 2668.99C2885.99 2668.99 2458.66 3530.45 2410.47 3654.47C2362.28 3778.48 2334.64 3881.24 2334.64 3881.24C2325.79 3873.57 2318.73 3864.05 2313.98 3853.34C2309.23 3842.64 2306.89 3831.02 2307.15 3819.3C2307.15 3777.92 2307.15 3550.01 2292.97 3515.99C2278.8 3481.98 2037.85 3515.99 1934.67 3578.07C1831.49 3640.15 1893.28 3757.22 1982.86 3805.56C2045.44 3836.28 2113.22 3854.98 2182.7 3860.69L2272.42 3991.51C2272.42 3991.51 2155.21 4115.67 2141.46 4156.91C2127.71 4198.16 2072.43 4638.81 2072.43 4777.28C2072.43 4915.76 2093.13 5383.62 2127.57 5452.65C2162.01 5521.67 2251.59 5605.44 2299.35 5618.62C2347.11 5631.8 4277.25 5687.5 4277.25 5687.5L6048.92 5646.11C6048.92 5646.11 6207.52 5694.3 6269.46 5376.82C6331.4 5059.33 6317.65 4791.03 6317.65 4611.46C6317.65 4431.88 6303.48 4184.13 6276.4 4129.56C6249.33 4074.99 6166.14 4005.54 6152.39 3984.85C6138.64 3964.16 6186.83 3833.19 6186.83 3833.19C6186.83 3833.19 6434.86 3812.5 6483.05 3778.06C6531.24 3743.62 6524.3 3626.83 6482.91 3578.64Z" fill="#92E3A9" stroke="#263238" stroke-linecap="round" stroke-linejoin="round"/>
<path d="M2899.45 3542.5C2899.45 3542.5 2696.2 3728.6 3433.22 3805.41C4170.24 3882.23 4963.95 4016.31 5134.03 4092.43L5303.26 4168.68L5658.44 3999.45C5658.44 3999.45 5488.36 3805.41 5031.7 3728.59C4575.03 3651.78 3711.73 3601.74 3415.93 3500.26C3120.13 3398.78 2899.45 3457.88 2899.45 3542.5Z" fill="white"/>
<path d="M3308.64 4903.57L3381.06 5137" stroke="#263238" stroke-linecap="round" stroke-linejoin="round"/>
<path d="M5128.08 4903.57L5055.65 5137" stroke="#263238" stroke-linecap="round" stroke-linejoin="round"/>
<path d="M2440.09 3705.07C2440.09 3705.07 2475.81 3898.39 2664.03 3989.95C2852.25 4081.51 3294.89 4341.03 3294.89 4341.03" stroke="#263238" stroke-linecap="round" stroke-linejoin="round"/>
<path d="M5976.35 3705.07C5976.35 3705.07 5940.78 3898.39 5752.56 3989.95C5564.33 4081.51 5121.56 4341.03 5121.56 4341.03" stroke="#263238" stroke-linecap="round" stroke-linejoin="round"/>
<path d="M2567.37 4738.02L2898.03 5104.26" stroke="#263238" stroke-linecap="round" stroke-linejoin="round"/>
<path d="M5818.6 4748.09L5513.31 5134.88" stroke="#263238" stroke-linecap="round" stroke-linejoin="round"/>
<path d="M5197.95 4442.79H5345.92" stroke="#263238" stroke-linecap="round" stroke-linejoin="round"/>
<path d="M3238.9 4442.79H3059.75" stroke="#263238" stroke-linecap="round" stroke-linejoin="round"/>
<path d="M2089.16 5173.01C2098.51 5303.68 2111.55 5421.32 2127.43 5453.21C2162.01 5522.1 2251.59 5604.73 2299.77 5618.62C2347.96 5632.51 4277.67 5687.5 4277.67 5687.5L6049.35 5646.11C6049.35 5646.11 6207.95 5694.3 6269.88 5376.82C6284.06 5305.95 6293.69 5237.92 6300.92 5172.44L2089.16 5173.01Z" fill="#757575" stroke="#263238" stroke-linecap="round" stroke-linejoin="round"/>
<path d="M3507.77 5378.66H3340.24L3143.09 5652.35C3681.68 5669.92 4276.96 5686.93 4276.96 5686.93L5284.55 5663.4L5080.31 5378.66H4912.78L4210.21 5390.99L3507.77 5378.66Z" fill="#ABABAB" stroke="#263238" stroke-linecap="round" stroke-linejoin="round"/>
<path d="M2871.81 2758.57C2871.81 2758.57 2547.81 3613.08 2547.81 3640.72C2547.81 3668.36 4505.15 3633.78 4505.15 3633.78H5842.7C5842.7 3633.78 5884.08 3606.28 5863.39 3509.76C5842.7 3413.24 5512.03 2779.26 5512.03 2779.26C5512.03 2779.26 4292.13 2730.93 3926.88 2730.93C3561.63 2730.93 2871.81 2758.57 2871.81 2758.57Z" fill="#263238" stroke="#263238" stroke-linecap="round" stroke-linejoin="round"/>
<path opacity="0.2" d="M2765.09 3095.75L3297.58 3639.58H2929.36L2663.04 3378.94L2765.09 3095.75Z" fill="white"/>
<path opacity="0.2" d="M3847.23 2780.96L5818.6 3483.25L5733.99 3263.28L4608.76 2780.96H3847.23Z" fill="white"/>
<path d="M5422.88 3346.34H4207.94L4255.28 2944.52H5375.4L5422.88 3346.34Z" fill="white" stroke="#263238" stroke-linecap="round" stroke-linejoin="round"/>
<path d="M5952.26 4060.54C5952.26 4060.54 5690.48 4129.42 5566.46 4212.05C5442.44 4294.68 5387.17 4343.01 5345.92 4453C5304.68 4562.98 5304.11 4743.27 5304.11 4743.27C5304.11 4743.27 5979.47 4646.89 6096.69 4577.86C6213.9 4508.84 6220.7 4357.47 6227.51 4302.33C6231.48 4267.72 6229.18 4232.67 6220.7 4198.87L5952.26 4060.54Z" fill="white" stroke="#263238" stroke-linecap="round" stroke-linejoin="round"/>
<path d="M5511.75 4495.52V4665.03" stroke="#263238" stroke-linecap="round" stroke-linejoin="round"/>
<path d="M5511.75 4424.08V4457.67" stroke="#263238" stroke-linecap="round" stroke-linejoin="round"/>
<path d="M5589.99 4393.89V4634.84" stroke="#263238" stroke-linecap="round" stroke-linejoin="round"/>
<path d="M5668.37 4560.29V4604.51" stroke="#263238" stroke-linecap="round" stroke-linejoin="round"/>
<path d="M5668.37 4363.71V4525.28" stroke="#263238" stroke-linecap="round" stroke-linejoin="round"/>
<path d="M5746.6 4333.52V4574.32" stroke="#263238" stroke-linecap="round" stroke-linejoin="round"/>
<path d="M5824.84 4511.67V4544.13" stroke="#263238" stroke-linecap="round" stroke-linejoin="round"/>
<path d="M5824.84 4303.33V4473.83" stroke="#263238" stroke-linecap="round" stroke-linejoin="round"/>
<path d="M5903.22 4273.14V4513.94" stroke="#263238" stroke-linecap="round" stroke-linejoin="round"/>
<path d="M5981.46 4414.44V4483.75" stroke="#263238" stroke-linecap="round" stroke-linejoin="round"/>
<path d="M5981.46 4242.8V4368.52" stroke="#263238" stroke-linecap="round" stroke-linejoin="round"/>
<path d="M6059.83 4212.62V4453.56" stroke="#263238" stroke-linecap="round" stroke-linejoin="round"/>
<path d="M2453.27 4060.54C2453.27 4060.54 2715.2 4129.42 2839.21 4212.05C2963.23 4294.68 3018.37 4343.01 3059.75 4453C3101.14 4562.98 3101.14 4742.42 3101.14 4742.42C3101.14 4742.42 2425.78 4646.04 2308.56 4577.01C2191.35 4507.99 2184.55 4356.62 2177.6 4301.48C2173.71 4266.86 2176.06 4231.81 2184.55 4198.02L2453.27 4060.54Z" fill="white" stroke="#263238" stroke-linecap="round" stroke-linejoin="round"/>
<path d="M2875.5 4495.52V4665.03" stroke="#263238" stroke-linecap="round" stroke-linejoin="round"/>
<path d="M2875.5 4424.08V4457.67" stroke="#263238" stroke-linecap="round" stroke-linejoin="round"/>
<path d="M2797.26 4393.89V4634.84" stroke="#263238" stroke-linecap="round" stroke-linejoin="round"/>
<path d="M2718.88 4560.29V4604.51" stroke="#263238" stroke-linecap="round" stroke-linejoin="round"/>
<path d="M2718.88 4363.71V4525.28" stroke="#263238" stroke-linecap="round" stroke-linejoin="round"/>
<path d="M2640.65 4333.52V4574.32" stroke="#263238" stroke-linecap="round" stroke-linejoin="round"/>
<path d="M2562.27 4511.67V4544.13" stroke="#263238" stroke-linecap="round" stroke-linejoin="round"/>
<path d="M2562.27 4303.33V4473.83" stroke="#263238" stroke-linecap="round" stroke-linejoin="round"/>
<path d="M2484.03 4273.14V4513.94" stroke="#263238" stroke-linecap="round" stroke-linejoin="round"/>
<path d="M2405.65 4414.44V4483.75" stroke="#263238" stroke-linecap="round" stroke-linejoin="round"/>
<path d="M2405.65 4242.8V4368.52" stroke="#263238" stroke-linecap="round" stroke-linejoin="round"/>
<path d="M2327.41 4212.62V4453.56" stroke="#263238" stroke-linecap="round" stroke-linejoin="round"/>
<path d="M3305.66 4870.26C3272.85 4729.76 3250.54 4587.02 3238.9 4443.22L3422.17 4361.86L4171.66 4371.78L5014.69 4361.86L5197.95 4443.22C5186.52 4587.15 5164.4 4730.04 5131.76 4870.69L3305.66 4870.26ZM3403.6 5190.86C3453.91 5318.42 3504.8 5401.48 3545.33 5424.87C3605.43 5459.87 3749 5519.26 4173.64 5497.29C4689.98 5519.26 4833.69 5459.87 4893.79 5424.87C4933.76 5401.48 4984.64 5318.99 5035.52 5190.86H3403.6Z" fill="#263238" stroke="#263238" stroke-linecap="round" stroke-linejoin="round"/>
<path d="M5197.95 4443.22L5014.69 4361.86L4171.66 4371.78L3422.17 4361.86L3238.9 4443.22C3238.9 4443.22 3239.61 4453.28 3241.17 4471.56L3839.43 4550.37L3930.99 4601.25H4500.76L4592.46 4550.37L5195.54 4471.56C5197.24 4453.28 5197.95 4443.22 5197.95 4443.22Z" fill="#757575" stroke="#263238" stroke-linecap="round" stroke-linejoin="round"/>
<path d="M5014.69 4361.44L4171.66 4371.36L3422.17 4361.44L3353.42 4391.91H3722.36L3813.92 4427.63H4643.35L4709.39 4397.01H5094.91L5014.69 4361.44Z" fill="#263238" stroke="#263238" stroke-linecap="round" stroke-linejoin="round"/>
<path d="M3269.52 4671.83L3320.4 4610.75H3452.64C3534.77 4631.76 3618.27 4647.06 3702.52 4656.53C3840 4671.83 4827.03 4656.53 4827.03 4656.53L5005.05 4615.85H5105.68L5156.56 4697.2L4505.3 4768.07L4393.47 4808.75H4007.24L3910.58 4752.76L3269.52 4671.83Z" fill="#757575" stroke="#263238" stroke-linecap="round" stroke-linejoin="round"/>
<path d="M5034.81 4778.7L4851.84 4840.07H3579.92L3396.65 4778.98L3283.27 4766.37C3289.64 4799.82 3297.44 4834.69 3305.38 4870.54H5131.76C5138.99 4839.22 5145.93 4808.61 5151.46 4778.98L5034.81 4778.7Z" fill="#757575" stroke="#263238" stroke-linecap="round" stroke-linejoin="round"/>
<path d="M2938.71 5511.32L2989.59 5419.76C2936.84 5339.41 2857.69 5280.01 2765.8 5251.81C2608.05 5200.93 2434.99 5175.56 2379 5195.82C2323.02 5216.09 2308.14 5363.78 2318.06 5404.46C2327.98 5445.13 2374.75 5480.85 2374.75 5480.85L2938.71 5511.32Z" fill="#474747"/>
<path d="M2765.8 5251.81C2685.26 5225.75 2602.6 5206.78 2518.75 5195.12C2507.63 5199.95 2497.62 5207.02 2489.35 5215.9C2481.08 5224.78 2474.73 5235.26 2470.71 5246.71C2434.99 5333.31 2440.09 5394.39 2490.97 5460.44C2498.76 5470.64 2507.44 5480.13 2516.91 5488.79L2938.71 5511.61L2989.59 5420.05C2936.89 5339.59 2857.73 5280.08 2765.8 5251.81Z" fill="#263238"/>
<path d="M2699.61 5351.02C2699.61 5371.65 2693.49 5391.82 2682.03 5408.98C2670.56 5426.13 2654.27 5439.5 2635.21 5447.4C2616.15 5455.29 2595.17 5457.36 2574.94 5453.33C2554.7 5449.31 2536.12 5439.37 2521.53 5424.79C2506.94 5410.2 2497 5391.61 2492.98 5371.37C2488.95 5351.14 2491.02 5330.16 2498.91 5311.1C2506.81 5292.04 2520.18 5275.75 2537.34 5264.29C2554.49 5252.82 2574.66 5246.71 2595.29 5246.71C2608.99 5246.69 2622.57 5249.37 2635.23 5254.61C2647.9 5259.84 2659.4 5267.53 2669.09 5277.22C2678.78 5286.91 2686.47 5298.42 2691.7 5311.08C2696.94 5323.75 2699.63 5337.32 2699.61 5351.02Z" fill="#ABABAB" stroke="#263238" stroke-linecap="round" stroke-linejoin="round"/>
<path d="M5484.96 5511.32L5434.08 5419.76C5487.01 5339.35 5566.37 5279.94 5658.44 5251.81C5816.05 5200.93 5989.11 5175.56 6045.09 5195.82C6101.08 5216.09 6115.96 5363.78 6106.18 5404.46C6096.4 5445.13 6050.2 5480.85 6050.2 5480.85L5484.96 5511.32Z" fill="#474747"/>
<path d="M5658.44 5251.81C5738.97 5225.71 5821.64 5206.74 5905.49 5195.12C5916.6 5199.96 5926.61 5207.04 5934.87 5215.92C5943.14 5224.79 5949.49 5235.27 5953.53 5246.71C5989.11 5333.31 5984.01 5394.39 5933.12 5460.44C5925.34 5470.64 5916.66 5480.13 5907.19 5488.79L5485.39 5511.61L5434.5 5420.05C5487.29 5339.6 5566.49 5280.1 5658.44 5251.81Z" fill="#263238"/>
<path d="M5924.55 5390.37C5946.5 5337.1 5921.1 5276.13 5867.83 5254.19C5814.57 5232.24 5753.59 5257.63 5731.65 5310.9C5709.7 5364.17 5735.1 5425.14 5788.36 5447.09C5841.63 5469.03 5902.61 5443.64 5924.55 5390.37Z" fill="#ABABAB" stroke="#263238" stroke-linecap="round" stroke-linejoin="round"/>
<path d="M2892.93 2753.61H2974.43C2974.43 2753.61 2999.52 2645.61 3078.46 2620.66H3142.24C3142.24 2620.66 3091.36 2560.28 3014.68 2570.49C2938 2580.69 2892.93 2641.64 2892.93 2753.61Z" fill="white" stroke="#263238" stroke-linecap="round" stroke-linejoin="round"/>
<path d="M3076.34 2576.87C2947.22 2609.75 2974.43 2753.61 2974.43 2753.61C2974.43 2753.61 2999.52 2645.61 3078.46 2620.66H3142.24C3124.15 2600.93 3101.53 2585.9 3076.34 2576.87V2576.87Z" fill="#263238" stroke="#263238" stroke-linecap="round" stroke-linejoin="round"/>
<path d="M5503.25 2753.61H5421.75C5421.75 2753.61 5396.66 2645.61 5317.57 2620.66H5253.79C5253.79 2620.66 5304.68 2560.28 5381.35 2570.49C5458.03 2580.69 5503.25 2641.64 5503.25 2753.61Z" fill="white" stroke="#263238" stroke-linecap="round" stroke-linejoin="round"/>
<path d="M5319.84 2576.87C5448.96 2609.75 5421.75 2753.61 5421.75 2753.61C5421.75 2753.61 5396.66 2645.61 5317.57 2620.66H5253.79C5271.95 2600.94 5294.61 2585.92 5319.84 2576.87V2576.87Z" fill="#263238" stroke="#263238" stroke-linecap="round" stroke-linejoin="round"/>
<path d="M3036.37 3647.66L3801.73 3592.81L3945.87 3543.21C3945.87 3543.21 4497.78 3523.22 4880.61 3582.89H3911.15" stroke="#8A8A8A" stroke-linecap="round" stroke-linejoin="round"/>
<path d="M5998.46 2303.74L6185.69 3833.48L6160.32 1992.78" stroke="#263238" stroke-miterlimit="10"/>
<path d="M6117.38 1305.79L6185.69 3833.48L6390.36 1815.9" stroke="#263238" stroke-miterlimit="10"/>
<path d="M5811.66 1579.06L6192.21 3806.41" stroke="#263238" stroke-miterlimit="10"/>
<path d="M6471.43 1069.95C6469.3 1240.03 6328.14 1516.41 6157.91 1514.29C5987.69 1512.16 5848.93 1232.8 5855.03 1062.58C5862.82 842.608 5996.76 719.867 6166.84 722.418C6336.92 724.969 6473.84 860.75 6471.43 1069.95Z" fill="#263238" stroke="#263238" stroke-linecap="round" stroke-linejoin="round"/>
<path opacity="0.5" d="M6369.1 902.42C6384.83 948.2 6364.56 996.531 6324.03 1010.56C6283.49 1024.59 6237.57 998.799 6221.98 953.019C6206.39 907.239 6226.37 858.908 6267.05 844.876C6307.73 830.844 6352.94 857.349 6369.1 902.42Z" fill="white"/>
<path d="M5991.8 1281.7C6047.65 1442.43 6008.67 1750.13 5847.94 1806.12C5687.22 1862.1 5461.72 1646.24 5409.56 1484.24C5342.09 1274.61 5426.71 1113.6 5587.44 1057.62C5748.16 1001.63 5922.78 1084.12 5991.8 1281.7Z" fill="#92E3A9" stroke="#263238" stroke-linecap="round" stroke-linejoin="round"/>
<path opacity="0.5" d="M5810.24 1148.05C5843.27 1183.34 5844.68 1235.64 5813.36 1265.12C5782.04 1294.6 5729.74 1289.64 5696.71 1254.49C5663.69 1219.34 5662.27 1166.75 5693.6 1137.27C5724.92 1107.79 5777.22 1112.47 5810.24 1148.05Z" fill="white"/>
<path d="M6751.21 1557.66C6733.5 1726.89 6566.96 1988.81 6397.87 1970.95C6228.78 1953.09 6116.39 1661.83 6138.21 1493.02C6166.56 1274.75 6311.55 1164.91 6480.78 1182.77C6650.01 1200.63 6773.18 1349.02 6751.21 1557.66Z" fill="#92E3A9" stroke="#263238" stroke-linecap="round" stroke-linejoin="round"/>
<path opacity="0.5" d="M6674.68 1383.89C6696.5 1426.41 6683.32 1477.72 6645.05 1497.28C6606.79 1516.84 6557.89 1497.28 6535.92 1454.76C6513.95 1412.24 6527.27 1360.93 6565.54 1341.37C6603.81 1321.81 6652.71 1340.8 6674.68 1383.89Z" fill="white"/>
<path d="M6402.97 1749C6388.8 1919.08 6226.66 2183.41 6057 2168.67C5887.34 2153.93 5770.13 1864.65 5788.98 1695.42C5813.22 1476.58 5956.37 1364.33 6125.88 1379.07C6295.4 1393.81 6421.26 1540.08 6402.97 1749Z" fill="#263238" stroke="#263238" stroke-linecap="round" stroke-linejoin="round"/>
<path opacity="0.5" d="M6292.14 1552.84C6307.87 1598.48 6287.74 1646.95 6247.07 1660.84C6206.39 1674.73 6160.75 1649.07 6145.02 1603.44C6129.28 1557.8 6149.41 1509.32 6190.09 1495.29C6230.77 1481.26 6276.4 1507.06 6292.14 1552.84Z" fill="white"/>
<path d="M6173.36 1874.71C6230.06 2035.3 6191.08 2343.15 6030.35 2399.13C5869.63 2455.12 5643.85 2239.82 5590.98 2077.96C5523.09 1868.34 5607.42 1707.19 5768.15 1651.06C5928.87 1594.93 6104.06 1676.71 6173.36 1874.71Z" fill="#92E3A9" stroke="#263238" stroke-linecap="round" stroke-linejoin="round"/>
<path opacity="0.5" d="M6029.79 1750.27C6068.05 1779.89 6077.83 1831.49 6051.47 1865.36C6025.11 1899.23 5972.95 1903.06 5934.68 1873.44C5896.41 1843.82 5886.64 1792.79 5913.56 1758.35C5940.49 1723.91 5991.52 1720.79 6029.79 1750.27Z" fill="white"/>
<path d="M4409.8 3197.8C4400.8 3197.8 4392.5 3196.23 4384.9 3193.1C4377.37 3189.97 4371.23 3185.2 4366.5 3178.8C4361.83 3172.4 4359.33 3164.27 4359 3154.4H4382.2C4382.2 3159.4 4383.43 3163.5 4385.9 3166.7C4388.37 3169.9 4391.67 3172.3 4395.8 3173.9C4400 3175.43 4404.6 3176.2 4409.6 3176.2C4414.4 3176.2 4418.67 3175.57 4422.4 3174.3C4426.2 3173.03 4429.17 3171.23 4431.3 3168.9C4433.5 3166.5 4434.6 3163.67 4434.6 3160.4C4434.6 3156.07 4433.27 3152.67 4430.6 3150.2C4428 3147.73 4423.8 3145.47 4418 3143.4L4392.4 3133.2C4382.4 3129.27 4374.73 3124.7 4369.4 3119.5C4364.07 3114.3 4361.4 3107.13 4361.4 3098C4361.4 3087.47 4365.57 3078.93 4373.9 3072.4C4382.23 3065.87 4393.87 3062.6 4408.8 3062.6C4423.33 3062.6 4434.57 3066 4442.5 3072.8C4450.43 3079.53 4454.93 3088.93 4456 3101H4432.8C4431.93 3095.87 4429.6 3091.77 4425.8 3088.7C4422 3085.57 4416.33 3084 4408.8 3084C4402.13 3084 4396.87 3085.4 4393 3088.2C4389.13 3090.93 4387.2 3094.4 4387.2 3098.6C4387.2 3102.2 4388.4 3105.07 4390.8 3107.2C4393.27 3109.27 4397.07 3111.27 4402.2 3113.2L4430.6 3124.2C4440.2 3127.93 4447.57 3132.63 4452.7 3138.3C4457.83 3143.97 4460.4 3151.07 4460.4 3159.6C4460.4 3167.4 4458.43 3174.17 4454.5 3179.9C4450.57 3185.57 4444.83 3189.97 4437.3 3193.1C4429.77 3196.23 4420.6 3197.8 4409.8 3197.8ZM4491.94 3195V3065.2H4575.34V3085.6H4515.54V3119.8H4571.74V3140.2H4515.54V3174.4H4575.34V3195H4491.94ZM4700.51 3169.2L4733.71 3065.2H4758.51L4713.91 3195H4689.11L4645.11 3065.2H4670.11L4702.91 3169.2H4700.51ZM4780.42 3195V3065.2H4863.82V3085.6H4804.02V3119.8H4860.22V3140.2H4804.02V3174.4H4863.82V3195H4780.42ZM4897.6 3065.2H4923.4L4982.4 3157.8H4980.6V3065.2H5004.2V3195H4980.2L4917.4 3096.8H4921.2V3195H4897.6V3065.2ZM5041.36 3065.2H5083.36C5096.56 3065.2 5108.12 3067.87 5118.06 3073.2C5127.99 3078.47 5135.72 3085.97 5141.26 3095.7C5146.79 3105.43 5149.56 3116.93 5149.56 3130.2C5149.56 3143.33 5146.79 3154.77 5141.26 3164.5C5135.72 3174.17 5127.99 3181.67 5118.06 3187C5108.12 3192.33 5096.56 3195 5083.36 3195H5041.36V3065.2ZM5064.96 3086.6V3173.8H5083.36C5091.76 3173.8 5098.99 3171.9 5105.06 3168.1C5111.19 3164.3 5115.89 3159.13 5119.16 3152.6C5122.49 3146 5124.16 3138.53 5124.16 3130.2C5124.16 3121.73 5122.49 3114.23 5119.16 3107.7C5115.89 3101.17 5111.19 3096.03 5105.06 3092.3C5098.99 3088.5 5091.76 3086.6 5083.36 3086.6H5064.96ZM5178.46 3195V3065.2H5261.86V3085.6H5202.06V3119.8H5258.26V3140.2H5202.06V3174.4H5261.86V3195H5178.46Z" fill="black"/>
<path d="M2798.68 2516.34C2798.68 2516.34 2897.89 2529.53 2947.92 2615.56C2997.96 2701.59 3144.37 3021.48 3144.37 3021.48C3144.37 3021.48 3291.49 2912.49 3346.05 2890.95C3400.62 2869.4 3492.75 2919.29 3513.73 2995.69C3534.7 3072.08 3513.73 3118.86 3458.73 3179.09C3403.74 3239.33 3139.12 3469.93 3071.09 3485.52C3003.06 3501.11 2950.48 3475.18 2926.95 3388.72C2903.42 3302.26 2769.76 2540.01 2769.76 2540.01C2769.76 2540.01 2759.28 2508.55 2798.68 2516.34Z" fill="white" stroke="#263238" stroke-miterlimit="10"/>
<path d="M1841.83 4025.53C1840.6 4054.28 1844.24 4083.03 1852.6 4110.57C1865.64 4143.02 1891.58 4197.17 1891.58 4225.23C1891.58 4253.29 1900.23 4320.48 1887.33 4329.12C1874.43 4337.77 1867.77 4305.31 1865.64 4292.27C1862.35 4278.99 1857.99 4266.01 1852.6 4253.44C1852.6 4253.44 1863.52 4339.89 1863.52 4370.22C1863.52 4400.56 1913.27 4400.56 1898.1 4426.92C1882.94 4453.28 1857 4437.69 1824.54 4426.92C1792.08 4416.15 1746.59 4390.07 1746.59 4307.86C1746.59 4225.66 1748.86 4043.95 1748.86 4043.95L1841.83 4025.53Z" fill="white" stroke="#263238" stroke-miterlimit="10"/>
<path d="M1732.41 3930.28L1727.31 4017.31C1726.37 4033.34 1731.48 4049.15 1741.64 4061.59C1751.8 4074.03 1766.26 4082.21 1782.16 4084.49V4084.49C1798.69 4086.87 1815.49 4082.71 1828.99 4072.89C1842.49 4063.07 1851.63 4048.36 1854.45 4031.91L1869.75 3943.18L1732.41 3930.28Z" fill="white" stroke="#263238" stroke-miterlimit="10"/>
<path d="M1963.02 2555.6C1963.02 2555.6 1869.61 2561.42 1822.42 2668.99C1805.41 2707.68 1646.38 3870.47 1659.28 3913.42C1672.18 3956.36 1787.97 4003.56 1843.53 3986.41C1899.09 3969.26 1925.03 3939.21 1933.68 3904.77C1942.32 3870.33 2002.28 2604.64 2002.28 2604.64C2003.19 2598.8 2002.89 2592.84 2001.37 2587.12C1999.85 2581.41 1997.16 2576.08 1993.47 2571.46C1989.77 2566.85 1985.15 2563.05 1979.91 2560.32C1974.67 2557.59 1968.91 2555.99 1963.02 2555.6Z" fill="white" stroke="#263238" stroke-miterlimit="10"/>
<path d="M1891.01 3617.05C1891.01 3617.05 1895.27 3741.49 1899.66 3810.09C1904.05 3878.69 2105.6 5689.63 2092.7 5766.87C2079.8 5844.12 2041.25 5861.26 2050.18 5912.71C2059.11 5964.16 2084.48 6075.85 2084.48 6075.85H2341.87C2341.87 6075.85 2397.71 6007.25 2389.07 5955.66C2380.42 5904.07 2337.62 5805.56 2337.62 5762.62C2337.62 5719.67 2376.17 4157.76 2376.17 4157.76L2440.52 4166.27C2440.52 4166.27 2556.45 5839.86 2547.81 5874.16C2539.16 5908.46 2513.51 5938.51 2513.51 5955.66C2513.51 5972.81 2573.6 6084.35 2573.6 6084.35L2865.44 6037.16C2865.44 6037.16 2878.19 5844.11 2869.69 5805.56C2861.18 5767.01 2818.24 5723.92 2818.24 5723.92L2865.44 4531.09L2916.88 3771.54L2899.73 3617.05H1891.01Z" fill="#263238" stroke="#263238" stroke-miterlimit="10"/>
<path d="M2899.45 3617.05H1891.01C1891.01 3617.05 1892.15 3648.37 1893.71 3687.92H2907.39L2899.45 3617.05Z" fill="#757575" stroke="#263238" stroke-linecap="round" stroke-linejoin="round"/>
<path d="M2050.89 3640.15H2005.25V3716.26H2050.89V3640.15Z" fill="#263238" stroke="#263238" stroke-miterlimit="10"/>
<path d="M2759.13 3640.15H2713.5V3716.26H2759.13V3640.15Z" fill="#263238" stroke="#263238" stroke-miterlimit="10"/>
<path d="M2472.69 3620.45H2329.26V3684.23H2472.69V3620.45Z" fill="white" stroke="#263238" stroke-miterlimit="10"/>
<path d="M2261.65 2427.34C2261.65 2427.34 1976.05 2529.53 1963.02 2554.9C1949.98 2580.27 1863.8 3414.09 1853.03 3453.49C1842.26 3492.89 1821.56 3558.23 1839.85 3589.7C1852.77 3610.28 1869.69 3628.06 1889.6 3642H2900.73C2900.73 3642 2960.96 3610.67 2971.59 3558.23C2977.49 3519.14 2977.49 3479.39 2971.59 3440.31L2798.82 2515.64L2617.97 2444.77L2384.39 2427.34H2261.65Z" fill="white" stroke="#263238" stroke-miterlimit="10"/>
<path d="M2031.33 3404.73L2605.49 3043.88" stroke="#263238" stroke-linecap="round" stroke-linejoin="round"/>
<path d="M1929.57 3468.65L1964.86 3446.54" stroke="#263238" stroke-linecap="round" stroke-linejoin="round"/>
<path d="M2161.3 3249.82L2573.32 2973.01" stroke="#263238" stroke-linecap="round" stroke-linejoin="round"/>
<path d="M2306.15 2542.56L2384.67 2663.04L2298.36 3422.73L2400.41 3595.65L2528.82 3407L2421.38 2665.73L2513.08 2553.05L2403.1 2435.13L2306.15 2542.56Z" fill="#263238" stroke="#263238" stroke-miterlimit="10"/>
<path d="M2285.18 2236.14L2298.36 2401.11C2298.36 2401.11 2358.59 2498.06 2403.1 2498.06C2447.6 2498.06 2557.59 2403.81 2557.59 2403.81V2222.96C2557.59 2222.96 2442.36 2304.17 2392.61 2291.13C2354.24 2278.29 2318.03 2259.75 2285.18 2236.14Z" fill="white" stroke="#263238" stroke-miterlimit="10"/>
<path d="M2392.61 2291.13C2354.24 2278.29 2318.03 2259.75 2285.18 2236.14L2297.08 2385.52C2326.85 2414.86 2437.97 2413.87 2460.93 2398.42C2483.89 2382.97 2531.79 2305.44 2557.59 2249.46V2222.96C2557.59 2222.96 2442.36 2304.17 2392.61 2291.13Z" fill="#263238" stroke="#263238" stroke-miterlimit="10"/>
<path d="M2374.19 2487.57L2274.69 2660.49L2190.92 2440.38L2282.63 2335.63L2374.19 2487.57Z" fill="white" stroke="#263238" stroke-miterlimit="10"/>
<path d="M2450.15 2479.78L2528.82 2665.73L2638.8 2448.31L2565.53 2348.67L2450.15 2479.78Z" fill="white" stroke="#263238" stroke-miterlimit="10"/>
<path d="M2634.98 1931.41C2634.98 1931.41 2676.65 1860.54 2698.61 1926.45C2706.32 1952.22 2705.74 1979.76 2696.97 2005.18C2688.2 2030.61 2671.67 2052.64 2649.72 2068.18C2622.79 2082.35 2615.42 2048.62 2615.42 2048.62L2634.98 1931.41Z" fill="white" stroke="#263238" stroke-miterlimit="10"/>
<path d="M2196.88 1938.78C2196.88 1938.78 2174.77 1875.14 2140.18 1916.67C2105.6 1958.2 2159.74 2044.23 2176.89 2063.5C2194.04 2082.78 2213.6 2075.84 2218.56 2061.1C2223.52 2046.35 2196.88 1938.78 2196.88 1938.78Z" fill="white" stroke="#263238" stroke-miterlimit="10"/>
<path d="M2184.83 1665.23C2184.83 1665.23 2160.03 1756.22 2164.14 1789.25C2168.25 1822.27 2205.52 2074.56 2217.85 2136.64C2230.18 2198.72 2304.74 2277.24 2321.32 2314.51C2337.9 2351.79 2466.03 2351.65 2491.4 2335.21C2516.77 2318.77 2578.28 2215.16 2598.98 2161.44C2619.67 2107.72 2639.51 1917.09 2639.51 1863.66C2639.51 1810.23 2685.01 1736.1 2680.9 1681.81C2676.79 1627.53 2569.21 1557.66 2515.49 1536.96C2461.78 1516.27 2436.97 1524.63 2408.06 1495.72C2379.15 1466.8 2337.19 1421.17 2267.32 1445.97C2197.44 1470.77 2267.32 1532.85 2234.29 1541.21C2201.27 1549.58 2077.11 1437.75 2052.31 1553.55C2027.5 1669.34 2184.83 1665.23 2184.83 1665.23Z" fill="white" stroke="#263238" stroke-miterlimit="10"/>
<path d="M2681.04 1681.39C2676.93 1627.53 2569.35 1557.23 2515.64 1536.54C2461.92 1515.84 2437.12 1524.21 2408.2 1495.29C2379.29 1466.38 2337.33 1420.74 2267.46 1445.54C2197.58 1470.35 2267.46 1532.43 2234.44 1540.79C2201.41 1549.15 2077.25 1437.32 2052.45 1553.12C2027.65 1668.92 2184.83 1664.81 2184.83 1664.81C2184.83 1664.81 2160.03 1755.8 2164.14 1788.82C2166.12 1804.41 2175.33 1868.34 2185.82 1938.21L2189.51 1941.19C2189.51 1941.19 2201.7 1924.04 2189.51 1865.36C2177.32 1806.68 2209.07 1816.32 2209.07 1789.39C2209.07 1762.46 2228.62 1694 2255.55 1684.22C2282.48 1674.44 2331.38 1720.93 2373.05 1706.19C2414.72 1691.45 2470.99 1637.59 2524.85 1662.11C2578.71 1686.63 2549.23 1789.67 2559.15 1803.85C2569.07 1818.02 2600.68 1825.82 2600.68 1879.68C2600.68 1933.53 2590.9 1982.57 2610.46 1989.8C2613.84 1990.82 2617.43 1990.93 2620.87 1990.1C2624.3 1989.28 2627.46 1987.56 2630.02 1985.13C2635.97 1933.68 2639.65 1885.91 2639.65 1862.95C2639.51 1809.52 2685.15 1735.11 2681.04 1681.39Z" fill="#263238" stroke="#263238" stroke-miterlimit="10"/>
<path d="M2352.64 2136.36C2352.64 2136.36 2423.51 2171.93 2480.91 2114.95" stroke="#263238" stroke-linecap="round" stroke-linejoin="round"/>
<path d="M2324.15 1843.25L2351.08 1899.94C2351.08 1899.94 2333.93 2086.04 2341.16 2090.86C2348.39 2095.68 2454.55 2071.3 2454.55 2049.33C2454.88 2036.78 2450.54 2024.56 2442.36 2015.03" stroke="#263238" stroke-linecap="round" stroke-linejoin="round"/>
<path d="M2304.31 1779.75C2304.31 1779.75 2206.37 1779.75 2206.37 1789.53C2206.37 1799.31 2216.15 1803.71 2230.89 1801.86C2245.63 1800.02 2291.98 1799.31 2301.76 1796.9C2311.54 1794.49 2304.31 1779.75 2304.31 1779.75Z" fill="#263238" stroke="#263238" stroke-linecap="round" stroke-linejoin="round"/>
<path d="M2507.7 1767C2507.7 1767 2409.76 1767 2409.76 1776.78C2409.76 1786.56 2419.54 1790.95 2434.28 1789.11C2449.02 1787.27 2495.51 1786.56 2505.15 1784.15C2514.79 1781.74 2507.7 1767 2507.7 1767Z" fill="#263238" stroke="#263238" stroke-linecap="round" stroke-linejoin="round"/>
<path d="M2473.4 1924.04C2473.4 1938.92 2467.45 1950.97 2459.93 1950.97C2452.42 1950.97 2445.76 1938.92 2445.76 1924.04C2445.76 1909.16 2451.86 1897.11 2459.93 1897.11C2468.01 1897.11 2473.4 1909.16 2473.4 1924.04Z" fill="#263238"/>
<path d="M2302.04 1924.04C2302.04 1938.92 2296.09 1950.97 2288.58 1950.97C2281.07 1950.97 2274.4 1938.92 2274.4 1924.04C2274.4 1909.16 2280.5 1897.11 2288.58 1897.11C2296.66 1897.11 2302.04 1909.16 2302.04 1924.04Z" fill="#263238"/>
<path d="M3144.37 3021.91C3144.37 3021.91 3016.1 3129.34 2984.63 3197.52Z" fill="white"/>
<path d="M3144.37 3021.91C3144.37 3021.91 3016.1 3129.34 2984.63 3197.52" stroke="#263238" stroke-miterlimit="10"/>
<path d="M3084.13 3076.9C3084.13 3076.9 2995.12 3121.55 2945.23 3179.09Z" fill="white"/>
<path d="M3084.13 3076.9C3084.13 3076.9 2995.12 3121.55 2945.23 3179.09" stroke="#263238" stroke-miterlimit="10"/>
<path d="M3804.56 2904.13C3804.56 2904.13 3877.84 2883.15 3893.57 2851.69C3909.31 2820.22 3906.61 2799.25 3888.33 2814.98C3870.05 2830.71 3849.07 2843.32 3841.13 2851.69C3833.19 2860.05 3804.56 2904.13 3804.56 2904.13Z" fill="white" stroke="#263238" stroke-miterlimit="10"/>
<path d="M3435.2 2846.44L3385.17 2922.41C3377.71 2933.63 3374.22 2947.02 3375.25 2960.45C3376.27 2973.88 3381.76 2986.59 3390.84 2996.54C3396.54 3002.72 3403.45 3007.65 3411.15 3011.03C3418.84 3014.4 3427.16 3016.14 3435.56 3016.14C3443.96 3016.14 3452.28 3014.4 3459.97 3011.03C3467.67 3007.65 3474.58 3002.72 3480.28 2996.54L3584.45 2884.99C3584.45 2884.99 3794.08 2916.46 3804.56 2903.42C3815.05 2890.38 3849.07 2866.71 3856.86 2840.49C3864.66 2814.27 3875.29 2782.8 3862.11 2790.74C3848.93 2798.68 3833.76 2833.26 3833.76 2833.26L3642.56 2710.09C3642.56 2710.09 3710.59 2667.57 3715.84 2634.13C3721.08 2600.68 3708.04 2584.38 3694.86 2605.78C3681.68 2627.18 3663.54 2642.35 3621.59 2658.08C3579.63 2673.81 3527.19 2689.54 3508.91 2721.01L3435.2 2846.44Z" fill="white" stroke="#263238" stroke-miterlimit="10"/>
<path d="M3480.28 2997.53L3537.96 2935.73C3513.69 2934.09 3490.55 2924.87 3471.79 2909.39C3453.03 2893.91 3439.59 2872.93 3433.36 2849.42L3385.17 2922.7C3376.57 2935.4 3373.1 2950.89 3375.45 2966.04C3377.81 2981.2 3385.83 2994.91 3397.88 3004.39C3409.94 3013.88 3425.14 3018.45 3440.43 3017.17C3455.72 3015.9 3469.96 3008.88 3480.28 2997.53V2997.53Z" fill="white" stroke="#263238" stroke-miterlimit="10"/>
<path d="M3539.95 2843.75C3539.95 2843.75 3600.18 2780.96 3644.69 2786.21C3689.19 2791.45 3759.92 2875.21 3759.92 2875.21C3759.92 2875.21 3846.38 2783.51 3851.62 2812.43C3856.86 2841.34 3780.75 2904.13 3767.86 2906.68C3754.96 2909.23 3568.72 2885.7 3568.72 2885.7" fill="white"/>
<path d="M3539.95 2843.75C3539.95 2843.75 3600.18 2780.96 3644.69 2786.21C3689.19 2791.45 3759.92 2875.21 3759.92 2875.21C3759.92 2875.21 3846.38 2783.51 3851.62 2812.43C3856.86 2841.34 3780.75 2904.13 3767.86 2906.68C3754.96 2909.23 3568.72 2885.7 3568.72 2885.7" stroke="#263238" stroke-miterlimit="10"/>
<path d="M2333.65 6074.57C2333.65 6074.57 2207.51 5975.36 2176.89 5969.41C2146.28 5963.45 2104.32 6003.85 2090.86 6021C2077.39 6038.15 2073.71 6057.42 2067.9 6061.25C2062.09 6065.08 2002.98 6117.94 1980.02 6139.49C1957.06 6161.03 1955.22 6217.87 1962.87 6227.51C1969.65 6233.96 1978.37 6237.99 1987.68 6238.99H2362.28C2365.66 6216.86 2366.94 6194.46 2366.11 6172.09C2360.9 6139.32 2352.69 6107.11 2341.59 6075.85" fill="#757575"/>
<path d="M2333.65 6074.57C2333.65 6074.57 2207.51 5975.36 2176.89 5969.41C2146.28 5963.45 2104.32 6003.85 2090.86 6021C2077.39 6038.15 2073.71 6057.42 2067.9 6061.25C2062.09 6065.08 2002.98 6117.94 1980.02 6139.49C1957.06 6161.03 1955.22 6217.87 1962.87 6227.51C1969.65 6233.96 1978.37 6237.99 1987.68 6238.99H2362.28C2365.66 6216.86 2366.94 6194.46 2366.11 6172.09C2360.9 6139.32 2352.69 6107.11 2341.59 6075.85" stroke="#263238" stroke-linecap="round" stroke-linejoin="round"/>
<path d="M1959.19 6203.69C1958.36 6211.84 1959.73 6220.07 1963.16 6227.51C1969.94 6233.96 1978.65 6237.99 1987.96 6238.99H2362.56C2362.56 6238.99 2365.11 6223.11 2366.25 6203.69H1959.19Z" fill="#757575" stroke="#263238" stroke-linecap="round" stroke-linejoin="round"/>
<path d="M2576.58 6074.57C2576.58 6074.57 2738.87 5975.36 2769.48 5969.41C2800.1 5963.45 2842.05 6003.85 2855.51 6021C2868.98 6038.15 2878.47 6076.42 2883.86 6080.24C2889.25 6084.07 2967.91 6118.51 2990.87 6139.49C3013.83 6160.47 3015.81 6217.87 3008.16 6227.51C3001.31 6233.93 2992.55 6237.96 2983.22 6238.99H2547.95C2544.57 6216.86 2543.29 6194.46 2544.12 6172.09C2549.33 6139.32 2557.54 6107.11 2568.64 6075.85L2576.58 6074.57Z" fill="#757575" stroke="#263238" stroke-linecap="round" stroke-linejoin="round"/>
<path d="M2547.95 6238.99H2983.5C2992.84 6237.96 3001.59 6233.93 3008.44 6227.51C3011.8 6220.05 3013.17 6211.84 3012.41 6203.69H2544.69C2545.4 6223.11 2547.95 6238.99 2547.95 6238.99Z" fill="#757575" stroke="#263238" stroke-linecap="round" stroke-linejoin="round"/>
<path d="M1532.43 2062.09C1556.38 2050.46 1569.7 2004.4 1562.62 1952.1C1554.82 1893.85 1524.77 1849.91 1495.72 1853.88C1472.76 1856.86 1457.17 1888.89 1455.47 1930.7L1532.43 2062.09Z" fill="#263238" stroke="#263238" stroke-linecap="round" stroke-linejoin="round"/>
<path d="M910.357 1736.1C923.488 1719.77 931.535 1699.94 933.5 1679.08C935.465 1658.22 931.262 1637.24 921.412 1618.74C888.388 1549.01 635.393 1552.7 543.691 1684.79C451.99 1816.89 545.676 1971.38 671.252 1948.7C768.623 1931.27 880.593 1790.95 910.357 1736.1Z" fill="white" stroke="#263238" stroke-linecap="round" stroke-linejoin="round"/>
<path d="M543.266 1684.65C544.818 1715.85 552.854 1746.38 566.861 1774.29C580.868 1802.21 600.54 1826.9 624.621 1846.79C707.111 1915.82 771.6 1902.49 771.6 1902.49" stroke="#263238" stroke-linecap="round" stroke-linejoin="round"/>
<path d="M564.384 1666.37C564.384 1666.37 633.55 1742.05 700.307 1773.23C739.156 1791.26 777.007 1811.37 813.694 1833.47" stroke="#263238" stroke-linecap="round" stroke-linejoin="round"/>
<path d="M579.975 1643.97C579.975 1643.97 675.787 1619.45 760.544 1639.58C812.705 1653.35 857.446 1686.9 885.27 1733.12" stroke="#263238" stroke-linecap="round" stroke-linejoin="round"/>
<path d="M1424 1756.79C1424 1756.79 1463.97 1822.41 1472.47 1870.18C1480.98 1917.94 1472.47 1952.95 1486.65 1981.44C1500.82 2009.93 1557.51 2049.9 1546.46 2075.55C1535.4 2101.21 1495.15 2118.07 1495.15 2118.07C1495.15 2118.07 1435.2 2249.32 1403.87 2289.29C1372.55 2329.26 1252.64 2289.29 1252.64 2289.29L1249.81 2352.07L1015.95 2309.55C1015.95 2309.55 1041.6 2272.42 998.799 2226.78C955.995 2181.14 827.584 2027.08 975.98 1878.82C1124.38 1730.57 1375.53 1739.64 1424 1756.79Z" fill="white" stroke="#263238" stroke-linecap="round" stroke-linejoin="round"/>
<path d="M1252.79 2290.28L1156.12 2272.56L1249.95 2353.07L1252.79 2290.28Z" fill="#263238" stroke="#263238" stroke-linecap="round" stroke-linejoin="round"/>
<path d="M1432.65 1775.64C1414.73 1742.03 1391.79 1711.35 1364.61 1684.65C1279.57 1603.86 1089.65 1592.95 935.585 1695.56C781.521 1798.18 678.905 2080.65 766.922 2183.27C854.939 2285.89 1052.94 2219.98 1052.94 2219.98C1052.94 2219.98 1016.23 2073.28 1064 2058.54C1111.76 2043.8 1155.7 2062.23 1163.21 2029.35C1170.72 1996.46 1159.53 1911.99 1232.94 1864.23C1306.36 1816.46 1401.46 1837.72 1432.65 1775.64Z" fill="white" stroke="#263238" stroke-linecap="round" stroke-linejoin="round"/>
<path d="M1045.71 2161.3C1045.71 2161.3 983.35 2210.34 861.459 2170.23C739.568 2130.12 745.662 2007.52 745.662 2007.52" stroke="#263238" stroke-linecap="round" stroke-linejoin="round"/>
<path d="M769.474 1929.28C768.923 1960.03 778.114 1990.16 795.732 2015.36C813.349 2040.57 838.49 2059.55 867.553 2069.6C972.153 2109.71 1025.73 2085.19 1025.73 2085.19" stroke="#263238" stroke-linecap="round" stroke-linejoin="round"/>
<path d="M796.119 1864.65C807.925 1898.36 827.657 1928.74 853.654 1953.24C879.652 1977.73 911.153 1995.62 945.507 2005.39C973.275 2014.35 1001.71 2021.08 1030.55 2025.52" stroke="#263238" stroke-linecap="round" stroke-linejoin="round"/>
<path d="M820.639 1820.01C880.013 1857.56 942.682 1889.63 1007.87 1915.82C1105.95 1953.8 1195.1 1895.83 1195.1 1895.83" stroke="#263238" stroke-linecap="round" stroke-linejoin="round"/>
<path d="M869.679 1762.18C869.679 1762.18 887.538 1797.75 1070.23 1777.77C1252.93 1757.78 1339.53 1782.45 1355.4 1817.88" stroke="#263238" stroke-linecap="round" stroke-linejoin="round"/>
<path d="M905.396 1719.8C960.745 1707.57 1015.09 1691.18 1067.97 1670.76C1179.37 1630.65 1353.84 1653.33 1432.65 1775.64" stroke="#263238" stroke-linecap="round" stroke-linejoin="round"/>
<path d="M1104.25 2084.34C1104.25 2084.34 1078.6 1985.13 1019.21 1985.13C959.822 1985.13 978.956 2106.17 1022.89 2153.79C1066.83 2201.41 1093.34 2175.47 1093.34 2175.47" fill="white"/>
<path d="M1104.25 2084.34C1104.25 2084.34 1078.6 1985.13 1019.21 1985.13C959.822 1985.13 978.956 2106.17 1022.89 2153.79C1066.83 2201.41 1093.34 2175.47 1093.34 2175.47" stroke="#263238" stroke-linecap="round" stroke-linejoin="round"/>
<path d="M1298.71 2124.59C1298.71 2124.59 1335.28 2186.95 1397.92 2172.36" stroke="#263238" stroke-linecap="round" stroke-linejoin="round"/>
<path d="M1459.83 1984.81C1469 1926.82 1429.43 1872.37 1371.44 1863.2C1313.45 1854.03 1259.01 1893.6 1249.84 1951.58C1240.66 2009.57 1280.23 2064.02 1338.22 2073.19C1396.21 2082.36 1450.65 2042.79 1459.83 1984.81Z" fill="#263238" stroke="#263238" stroke-linecap="round" stroke-linejoin="round"/>
<path d="M1262 1974.21L1074.91 2018.29" stroke="#263238" stroke-linecap="round" stroke-linejoin="round"/>
<path d="M1451.36 1950.4L1495.29 1939.35" stroke="#263238" stroke-linecap="round" stroke-linejoin="round"/>
<path d="M1093.34 5751.28V5985.99H887.963V5747.59L1093.34 5751.28Z" fill="white" stroke="#263238" stroke-linecap="round" stroke-linejoin="round"/>
<path d="M1276.6 5776.93L1272.91 5923.63L1383.04 5967.57L1452.63 5923.63V5754.96L1276.6 5776.93Z" fill="white" stroke="#263238" stroke-linecap="round" stroke-linejoin="round"/>
<path d="M1467.37 2612.3C1467.37 2612.3 1584.3 2679.48 1601.74 2766.65C1619.17 2853.81 1654.03 3173 1694.57 3271.64C1735.11 3370.29 1752.68 3434.21 1729.44 3463.27C1719.14 3477.42 1711.79 3493.49 1707.79 3510.53C1703.8 3527.57 1703.26 3545.23 1706.19 3562.48C1712 3585.73 1764.3 3603.16 1741.06 3649.65C1717.82 3696.14 1688.9 3742.48 1688.9 3742.48V4363.7C1688.9 4421.82 1619.17 4491.27 1601.74 4508.84C1584.3 4526.42 1555.25 4462.49 1555.25 4416C1555.25 4369.52 1543.62 3301.27 1526.9 3220.05C1510.17 3138.84 1410.68 2627.75 1410.68 2627.75C1410.68 2627.75 1425.84 2579.98 1467.37 2612.3Z" fill="#92E3A9" stroke="#263238" stroke-linecap="round" stroke-linejoin="round"/>
<path d="M1601.74 4508.27C1619.17 4490.98 1688.9 4421.25 1688.9 4363.14V3838.01C1642.16 3846.65 1594.42 3848.42 1547.17 3843.26C1551.99 4121.91 1554.82 4392.62 1554.82 4415.44C1555.25 4461.93 1584.3 4525.71 1601.74 4508.27Z" fill="white" stroke="#263238" stroke-linecap="round" stroke-linejoin="round"/>
<path d="M763.237 4101.07L876.625 5824.56L1103.4 5820.87L1250.52 4071.73L1272.63 4075.42L1261.57 5817.19L1460 5809.96L1665.37 4173.92C1665.37 4173.92 1621.29 3799.89 1580.33 3711.87C1554.73 3657.2 1521.31 3606.54 1481.12 3561.49H891.648C891.648 3561.49 792.576 3727.04 763.237 4101.07Z" fill="#263238" stroke="#263238" stroke-linecap="round" stroke-linejoin="round"/>
<path d="M1247.26 2480.34C1247.26 2480.34 1364.61 2557.31 1390.27 2623.35C1415.92 2689.4 1511.31 3598.77 1511.31 3613.37C1511.31 3627.96 1335.28 3624.42 1232.66 3627.54C1130.04 3630.66 1093.34 3631.22 1093.34 3631.22C1093.34 3631.22 957.696 2736.46 931.9 2644.76C906.105 2553.05 931.9 2516.49 961.239 2487.15C990.578 2457.81 1038.34 2450.44 1060.45 2439.38C1082.56 2428.33 1247.26 2480.34 1247.26 2480.34Z" fill="white" stroke="#263238" stroke-linecap="round" stroke-linejoin="round"/>
<path d="M1287.65 2539.02C1287.65 2539.02 1375.67 2733.34 1423.29 3176.82C1451.64 3447.54 1445.26 4188.95 1445.26 4188.95C1458.27 4200.05 1474.29 4207.02 1491.27 4208.99C1508.26 4210.96 1525.45 4207.83 1540.65 4200C1598.17 4178.31 1656.95 4160.13 1716.68 4145.58C1716.68 4145.58 1646.95 3668.78 1643.4 3503.81C1639.86 3338.83 1562.62 2862.03 1526.05 2726.39C1489.48 2590.75 1474.6 2572.47 1419.61 2539.45C1364.61 2506.42 1280.28 2495.37 1280.28 2495.37L1287.65 2539.02Z" fill="#92E3A9" stroke="#263238" stroke-linecap="round" stroke-linejoin="round"/>
<path d="M1295.02 2524.28C1295.02 2524.28 1316.99 2421.67 1313.31 2381.27C1309.62 2340.88 1298.42 2337.62 1210.41 2333.93C1122.39 2330.25 1019.92 2260.23 990.578 2296.94C961.239 2333.65 954.011 2469.29 972.295 2487.29C990.578 2505.29 1066.26 2555.18 1183.76 2565.95C1225.43 2570.06 1283.97 2553.62 1295.02 2524.28Z" fill="white" stroke="#263238" stroke-linecap="round" stroke-linejoin="round"/>
<path d="M964.924 2469.29C964.924 2469.29 738.15 2615.98 689.961 2670.98C641.771 2725.97 733.898 3518.12 737.583 3716.12C738.6 3850.91 731.263 3985.62 715.614 4119.5C790.591 4154.92 867.757 4185.5 946.641 4211.06C1037.05 4239.26 1133.52 4241.81 1225.29 4218.43C1225.29 4218.43 1177.67 3488.78 1170.3 3276.04C1162.93 3063.3 1089.65 2696.63 1064 2612.3C1038.34 2527.97 964.924 2469.29 964.924 2469.29Z" fill="#92E3A9" stroke="#263238" stroke-linecap="round" stroke-linejoin="round"/>
<path d="M961.239 2447.32C961.239 2447.32 744.953 2590.33 759.552 2608.61C774.15 2626.9 872.939 3114.75 872.939 3359.8C872.939 3604.86 883.994 4089.59 883.994 4089.59C883.994 4089.59 953.727 4089.59 1005.04 4093.28C1056.34 4096.96 1166.33 4079.1 1166.33 4079.1C1166.33 4079.1 1129.62 3573.11 1129.62 3316.43C1129.62 3059.75 1038.06 2667.29 1016.23 2604.93C994.405 2542.57 961.239 2447.32 961.239 2447.32Z" fill="#263238" stroke="#263238" stroke-linecap="round" stroke-linejoin="round"/>
<path d="M1298.71 2506C1298.71 2506 1383.04 2946.08 1419.61 3232.1C1456.17 3518.12 1496.71 3855.73 1496.71 3910.44V4049.76C1496.71 4049.76 1566.3 4060.82 1591.96 4060.82C1613.34 4059.25 1634.36 4054.48 1654.32 4046.65C1654.32 4046.65 1599.33 3558.94 1584.73 3335.28C1570.13 3111.63 1493.03 2689.97 1467.37 2612.44L1441.72 2535.48C1441.72 2535.48 1349.73 2487.29 1298.71 2506Z" fill="#263238" stroke="#263238" stroke-linecap="round" stroke-linejoin="round"/>
<path d="M763.237 5069.26L224.648 4926.25C224.648 4926.25 184.254 5098.59 147.687 5168.19C111.119 5237.78 84.8985 5358.82 95.9537 5421.18C107.009 5483.54 172.915 5523.94 224.223 5542.22C275.531 5560.51 667.992 5674.18 766.922 5666.95C865.852 5659.72 880.309 5578.93 869.679 5509.2C859.049 5439.46 763.237 5069.26 763.237 5069.26Z" fill="#263238" stroke="#263238" stroke-linecap="round" stroke-linejoin="round"/>
<path d="M869.679 5509.2C858.624 5439.61 763.237 5069.82 763.237 5069.82L729.788 5060.89C723.835 5090.94 649.141 5466.11 638.653 5561.07C633.125 5610.11 646.59 5639.31 669.551 5657.74C701.564 5664.48 734.208 5667.76 766.922 5667.52C865.994 5659.58 880.593 5578.93 869.679 5509.2Z" fill="#4C4C4C" stroke="#263238" stroke-linecap="round" stroke-linejoin="round"/>
<path d="M466.304 4372.35L316.35 5025.46C315.179 5030.48 312.247 5034.91 308.086 5037.96C303.925 5041 298.811 5042.45 293.672 5042.04V5042.04C290.557 5041.75 287.543 5040.79 284.838 5039.22C282.133 5037.65 279.802 5035.51 278.008 5032.95C276.214 5030.38 275 5027.46 274.45 5024.38C273.899 5021.3 274.026 5018.14 274.822 5015.11L459.076 4320.62L631.424 4349.96L702.291 5105.11C702.575 5108.49 702.06 5111.88 700.787 5115.02C699.515 5118.16 697.52 5120.95 694.967 5123.17C692.413 5125.39 689.371 5126.98 686.088 5127.81C682.805 5128.64 679.373 5128.68 676.071 5127.93L672.952 5127.23C668.447 5126.19 664.396 5123.73 661.407 5120.2C658.418 5116.68 656.651 5112.28 656.369 5107.67L613.849 4382.84L466.304 4372.35Z" fill="#263238" stroke="#263238" stroke-linecap="round" stroke-linejoin="round"/>
<path d="M733.898 2634.27C733.898 2634.27 579.975 2685.72 557.865 2740.71C535.754 2795.7 510.242 3228.42 499.329 3331.03C488.415 3433.65 488.415 3459.44 488.415 3459.44C488.415 3459.44 396.713 3503.38 411.454 3562.06C426.194 3620.73 481.045 3672.04 481.045 3686.78C481.045 3701.52 503.014 4156.06 503.014 4156.06C503.014 4156.06 433.422 4376.18 448.021 4394.46C462.62 4412.74 517.754 4434.85 525.124 4445.77C532.494 4456.68 572.747 4497.08 591.031 4482.48C601.662 4474.12 609.277 4462.53 612.716 4449.45L623.629 4409.2C623.629 4409.2 667.709 4453.14 678.622 4453.14C689.536 4453.14 660.338 4368.81 660.338 4313.81C660.338 4258.82 612.716 4181.72 612.716 4167.12C612.716 4152.52 660.622 3720.37 660.622 3720.37C660.622 3720.37 733.898 3658.01 741.269 3606.99C748.639 3555.96 730.213 3496.86 737.584 3478.58C744.954 3460.29 770.608 3419.9 774.293 3383.19C777.978 3346.48 748.639 3291.63 744.954 3262.29C741.269 3232.95 770.607 2825.89 770.607 2825.89" fill="#92E3A9"/>
<path d="M733.898 2634.27C733.898 2634.27 579.975 2685.72 557.865 2740.71C535.754 2795.7 510.242 3228.42 499.329 3331.03C488.415 3433.65 488.415 3459.44 488.415 3459.44C488.415 3459.44 396.713 3503.38 411.454 3562.06C426.194 3620.73 481.045 3672.04 481.045 3686.78C481.045 3701.52 503.014 4156.06 503.014 4156.06C503.014 4156.06 433.422 4376.18 448.021 4394.46C462.62 4412.74 517.754 4434.85 525.124 4445.77C532.494 4456.68 572.747 4497.08 591.031 4482.48C601.662 4474.12 609.277 4462.53 612.716 4449.45L623.629 4409.2C623.629 4409.2 667.709 4453.14 678.622 4453.14C689.536 4453.14 660.338 4368.81 660.338 4313.81C660.338 4258.82 612.716 4181.72 612.716 4167.12C612.716 4152.52 660.622 3720.37 660.622 3720.37C660.622 3720.37 733.898 3658.01 741.269 3606.99C748.639 3555.96 730.213 3496.86 737.584 3478.58C744.954 3460.29 770.608 3419.9 774.293 3383.19C777.978 3346.48 748.639 3291.63 744.954 3262.29C741.269 3232.95 770.607 2825.89 770.607 2825.89" stroke="#263238" stroke-linecap="round" stroke-linejoin="round"/>
<path d="M524.982 4445.77C532.211 4456.82 572.605 4497.08 590.889 4482.48C601.573 4474.15 609.239 4462.55 612.716 4449.45L623.629 4409.2C623.629 4409.2 667.708 4453.14 678.622 4453.14C689.535 4453.14 660.338 4368.81 660.338 4313.81C660.338 4258.82 612.716 4181.72 612.716 4167.12C612.716 4157.2 634.401 3956.36 648.574 3826.96L486.289 3814.49C492.809 3953.67 502.588 4155.92 502.588 4155.92C502.588 4155.92 432.997 4376.03 447.596 4394.32C462.194 4412.6 517.612 4434.85 524.982 4445.77Z" fill="white" stroke="#263238" stroke-linecap="round" stroke-linejoin="round"/>
<path d="M1060.31 5971.25C1060.31 5971.25 928.357 5949.28 906.247 5949.28C884.136 5949.28 788.891 6099.66 774.292 6158.2C759.694 6216.73 803.631 6238.84 814.545 6238.84H1104.25C1104.25 6238.84 1148.33 6238.84 1152.01 6169.11C1155.7 6099.38 1126.36 6000.45 1126.36 5974.79C1126.36 5949.14 1144.64 5916.12 1137.27 5897.83C1129.9 5879.55 1064 5868.64 1060.31 5971.25Z" fill="#92E3A9" stroke="#263238" stroke-linecap="round" stroke-linejoin="round"/>
<path d="M1152.01 6169.25C1152.69 6148.84 1151.64 6128.4 1148.9 6108.17C1133.3 6126.45 1121.68 6160.89 1100.71 6176.62C1071.37 6198.59 997.949 6190.8 983.35 6187.68C968.752 6184.56 931.901 6114.26 913.617 6103.35C895.333 6092.43 854.939 6176.62 854.939 6176.62H771.458C769.654 6190.42 772.99 6204.41 780.831 6215.91C788.673 6227.41 800.471 6235.62 813.978 6238.99H1104.25C1104.25 6238.99 1148.33 6238.99 1152.01 6169.25Z" fill="white" stroke="#263238" stroke-linecap="round" stroke-linejoin="round"/>
<path d="M897.318 5975.93C897.318 5975.93 872.656 5809.39 891.081 5802.16C909.507 5794.93 1074.06 5777.93 1081.43 5814.49C1088.8 5851.06 1060.74 5980.04 1060.74 5980.04L897.318 5975.93Z" fill="white" stroke="#263238" stroke-linecap="round" stroke-linejoin="round"/>
<path d="M936.294 5803.86L934.026 5868.07L1023.46 5872.6L1030.41 5803.86C999.422 5796.9 967.278 5796.9 936.294 5803.86V5803.86Z" fill="#92E3A9" stroke="#263238" stroke-linecap="round" stroke-linejoin="round"/>
<path d="M1076.75 6004.98L887.963 5998.75C886.276 5998.71 884.612 5998.34 883.069 5997.66C881.526 5996.97 880.134 5995.99 878.974 5994.76C877.814 5993.53 876.909 5992.09 876.311 5990.51C875.713 5988.93 875.434 5987.25 875.491 5985.57C875.487 5983.85 875.835 5982.16 876.514 5980.59C877.194 5979.02 878.189 5977.6 879.439 5976.43C880.689 5975.26 882.166 5974.36 883.779 5973.79C885.392 5973.21 887.106 5972.98 888.814 5973.09L1077.6 5979.19C1081.02 5979.19 1084.3 5980.55 1086.72 5982.97C1089.14 5985.38 1090.5 5988.66 1090.5 5992.09C1090.5 5995.51 1089.14 5998.79 1086.72 6001.21C1084.3 6003.62 1081.02 6004.98 1077.6 6004.98H1076.75Z" fill="white" stroke="#263238" stroke-linecap="round" stroke-linejoin="round"/>
<path d="M1065.41 6034.46L876.624 6028.23C873.228 6028.12 870.013 6026.67 867.678 6024.2C865.342 6021.73 864.075 6018.44 864.152 6015.05C864.126 6013.33 864.46 6011.62 865.132 6010.04C865.805 6008.46 866.8 6007.04 868.054 6005.86C869.308 6004.69 870.795 6003.79 872.417 6003.22C874.039 6002.66 875.762 6002.44 877.475 6002.57L1066.26 6008.67C1069.69 6008.67 1072.97 6010.03 1075.38 6012.45C1077.8 6014.86 1079.16 6018.15 1079.16 6021.57C1079.16 6024.99 1077.8 6028.27 1075.38 6030.69C1072.97 6033.11 1069.69 6034.46 1066.26 6034.46H1065.41Z" fill="white" stroke="#263238" stroke-linecap="round" stroke-linejoin="round"/>
<path d="M1043.59 6061.68L889.522 6055.44C886.423 6054.98 883.623 6053.34 881.718 6050.85C879.813 6048.36 878.952 6045.23 879.317 6042.12C879.317 6035.03 884.278 6028.94 890.231 6029.79L1044.3 6035.88C1047.38 6036.37 1050.16 6038.03 1052.06 6040.51C1053.95 6042.99 1054.83 6046.1 1054.5 6049.2C1054.69 6052.3 1053.66 6055.35 1051.61 6057.69C1049.57 6060.02 1046.68 6061.46 1043.59 6061.68V6061.68Z" fill="white" stroke="#263238" stroke-linecap="round" stroke-linejoin="round"/>
<path d="M1386.72 5927.31C1386.72 5927.31 1265.68 5872.32 1240.03 5897.97C1214.38 5923.63 1207.01 5938.23 1225.86 5949.28C1244.71 5960.34 1269.94 5974.94 1269.94 5974.94C1269.94 5974.94 1229.54 6161.88 1244.28 6187.54C1255.63 6205.14 1270.61 6220.12 1288.22 6231.47H1794.21C1794.21 6231.47 1823.55 6217.3 1797.89 6165.43C1772.24 6113.55 1669.63 6088.46 1629.23 6062.81C1588.84 6037.16 1511.88 5941.77 1508.19 5930.86C1504.51 5919.94 1526.62 5820.73 1500.96 5809.82C1475.31 5798.9 1394.52 5809.82 1398.21 5839.15C1402.23 5862.86 1408.4 5886.15 1416.63 5908.75L1386.72 5927.31Z" fill="#92E3A9" stroke="#263238" stroke-linecap="round" stroke-linejoin="round"/>
<path d="M1497.99 6059.69C1503.23 6067.2 1510.88 6071.74 1515.14 6069.9L1595.92 6035.6C1587.99 6027.94 1579.77 6019.44 1571.83 6010.79L1496.14 6042.83C1491.47 6044.81 1492.74 6052.18 1497.99 6059.69Z" fill="white" stroke="#263238" stroke-linecap="round" stroke-linejoin="round"/>
<path d="M1452.49 6002.29C1457.59 6009.8 1466.66 6014.05 1471.2 6011.64L1544.19 5979.75C1536.11 5970.12 1528.88 5961.19 1523.07 5953.68L1452.21 5984.57C1446.68 5985.99 1447.25 5994.5 1452.49 6002.29Z" fill="white" stroke="#263238" stroke-linecap="round" stroke-linejoin="round"/>
<path d="M1466.66 6019.02C1460.99 6020.72 1461.56 6029.22 1466.66 6036.73C1471.77 6044.24 1480.84 6048.35 1485.37 6046.09L1570.41 6008.95C1562.62 6000.45 1554.96 5991.8 1547.88 5983.58L1466.66 6019.02Z" fill="white" stroke="#263238" stroke-linecap="round" stroke-linejoin="round"/>
<path d="M1518.82 5946.73C1515.14 5935.82 1541.78 5802.73 1516.13 5791.82C1490.47 5780.9 1401.61 5809.96 1397.64 5839.3C1393.95 5866.23 1416.06 5908.89 1416.06 5908.89L1456.32 5982.31C1456.32 5982.31 1511.45 5957.79 1518.82 5946.73Z" fill="white" stroke="#263238" stroke-linecap="round" stroke-linejoin="round"/>
<path d="M1445.69 5806.13L1461.7 5852.05L1503.09 5837.88L1493.88 5794.22C1493.88 5794.22 1457.17 5789.69 1445.69 5806.13Z" fill="#92E3A9" stroke="#263238" stroke-linecap="round" stroke-linejoin="round"/>
<path d="M1797.33 6165.57C1791.22 6154.51 1782.87 6144.85 1772.81 6137.22C1772.37 6138.19 1771.99 6139.18 1771.67 6140.2C1764.3 6165.85 1775.36 6191.51 1760.76 6206.25C1746.16 6220.99 1672.74 6217.3 1614.07 6209.93C1555.39 6202.56 1452.63 6169.54 1383.04 6143.88C1337.15 6129.28 1288.13 6127.52 1241.31 6138.78C1239.51 6155.18 1240.13 6171.75 1243.15 6187.96C1244.57 6199.12 1249.65 6209.49 1257.6 6217.44C1265.56 6225.4 1275.93 6230.48 1287.09 6231.9H1793.08C1793.08 6231.9 1822.98 6217.02 1797.33 6165.57Z" fill="white" stroke="#263238" stroke-linecap="round" stroke-linejoin="round"/>
<path d="M173.341 6238.99H6778.14" stroke="#263238" stroke-width="0.908269" stroke-linecap="round" stroke-linejoin="round"/>
</svg>
