<svg width="1210" height="950" viewBox="0 0 1210 950" fill="none" xmlns="http://www.w3.org/2000/svg">
<path d="M781.499 683V810.607H283.292V683H189.624V869.262C189.618 872.702 190.291 876.108 191.604 879.288C192.917 882.467 194.844 885.356 197.275 887.789C199.706 890.222 202.593 892.151 205.771 893.467C208.949 894.782 212.355 895.458 215.795 895.455H257.122C264.059 895.455 270.712 892.701 275.619 887.798C280.527 882.895 283.286 876.244 283.292 869.307V860.71H328.671L349.917 847.278H712.949L739.993 862.725H781.499V869.441C781.505 876.378 784.265 883.029 789.172 887.932C794.079 892.835 800.733 895.59 807.67 895.59H848.996C852.432 895.592 855.835 894.918 859.01 893.606C862.185 892.293 865.07 890.367 867.501 887.939C869.931 885.51 871.859 882.627 873.175 879.453C874.49 876.279 875.167 872.877 875.167 869.441V683H781.499Z" fill="#263238" stroke="#263238" stroke-width="2" stroke-miterlimit="10" stroke-linecap="round"/>
<path d="M855.847 591.324C851.996 583.578 821.102 551.721 821.102 551.721C821.102 551.721 762.335 439.65 752.552 421.382C733.971 386.727 703.3 392.413 703.3 392.413L531.433 383.727L530.47 383.996L529.508 383.727L357.641 392.413C357.641 392.413 326.164 389.19 308.389 421.382C298.359 439.516 239.839 551.721 239.839 551.721C239.839 551.721 208.944 583.578 205.071 591.324C201.198 599.07 185.796 627.995 185.796 633.748C185.796 638.92 189.624 726.722 206.818 792.272C208.762 799.502 212.442 806.148 217.537 811.633C222.632 817.118 228.989 821.277 236.055 823.749C239.47 825.123 243.008 826.165 246.622 826.861H372.148L404.005 771.833C416.212 761.716 431.605 756.244 447.458 756.386H613.527C629.381 756.244 644.773 761.716 656.981 771.833L688.838 826.861H814.363C817.97 826.167 821.502 825.124 824.908 823.749C831.98 821.282 838.342 817.125 843.441 811.639C848.541 806.153 852.223 799.505 854.168 792.272C871.361 726.722 875.19 638.92 875.19 633.748C875.167 627.995 859.653 599.048 855.847 591.324Z" fill="#92E3A9" stroke="#263238" stroke-width="2" stroke-miterlimit="10" stroke-linecap="round"/>
<path d="M372.126 826.905L365.41 842.353H693.652L688.817 826.905L656.96 771.878C656.96 771.878 644.4 757.393 613.506 756.43C582.611 755.468 447.437 756.43 447.437 756.43C431.539 756.02 416.055 761.525 403.983 771.878L372.126 826.905Z" fill="#787878" stroke="#263238" stroke-width="2" stroke-miterlimit="10" stroke-linecap="round"/>
<path d="M400.109 643.464C400.109 643.464 426.19 689.806 433.914 697.53C441.638 705.253 450.324 705.253 460.958 706.216C471.592 707.179 617.355 706.216 617.355 706.216C617.355 706.216 628.952 704.291 634.75 695.604C640.549 686.918 659.846 643.464 659.846 643.464H400.109Z" fill="#263238" stroke="#263238" stroke-width="2" stroke-miterlimit="10" stroke-linecap="round"/>
<path d="M425.989 649.755C425.989 649.755 446.854 686.851 453.055 693.052C459.257 699.253 466.197 699.231 474.704 700.014C483.211 700.798 599.961 700.014 599.961 700.014C599.961 700.014 609.251 698.47 613.886 691.507C618.52 684.545 634.034 649.755 634.034 649.755H425.989Z" fill="#787878" stroke="#263238" stroke-width="2" stroke-miterlimit="10" stroke-linecap="round"/>
<path d="M638.914 810.608L633.138 794.645C631.348 789.728 628.066 785.492 623.752 782.53C619.437 779.568 614.305 778.027 609.072 778.124L452.249 779.713C446.862 779.823 441.653 781.666 437.394 784.968C433.136 788.271 430.055 792.858 428.608 798.048L424.713 810.608H638.914Z" fill="#263238" stroke="#263238" stroke-width="2" stroke-miterlimit="10" stroke-linecap="round"/>
<path d="M422.296 818.219L417.505 833.666H647.288L641.713 818.219H422.296Z" fill="#263238" stroke="#263238" stroke-width="2" stroke-miterlimit="10" stroke-linecap="round"/>
<path d="M821.103 551.721C821.103 551.721 825.916 514.066 834.535 514.066C843.154 514.066 881.839 524.7 882.802 532.423C883.764 540.147 875.078 548.833 867.355 550.759C859.631 552.684 843.221 554.632 843.221 554.632L839.505 569.116L821.103 551.721Z" fill="#92E3A9" stroke="#263238" stroke-width="2" stroke-miterlimit="10" stroke-linecap="round"/>
<path d="M239.839 551.721C239.839 551.721 235.004 514.066 226.407 514.066C217.81 514.066 179.102 524.7 178.14 532.423C177.177 540.147 185.863 548.833 193.587 550.759C201.311 552.684 217.721 554.632 217.721 554.632L221.571 569.116L239.839 551.721Z" fill="#92E3A9" stroke="#263238" stroke-width="2" stroke-miterlimit="10" stroke-linecap="round"/>
<path d="M265.898 529.513C265.898 529.513 642.475 515.028 792.134 529.513L726.472 409.875C726.472 409.875 556.53 388.63 335.433 410.838C335.433 410.749 290.054 482.209 265.898 529.513Z" fill="white" stroke="#263238" stroke-width="2" stroke-miterlimit="10" stroke-linecap="round"/>
<path d="M351.843 638.629C351.843 638.629 369.215 656.964 375.013 690.769C375.013 690.769 292.942 686.896 261.085 674.359C229.228 661.822 225.265 660.926 224.392 655.039C223.519 649.151 226.317 607.734 238.876 600.973C251.436 594.212 264.935 596.138 277.494 605.787C290.054 615.435 305.501 629.942 314.187 632.83C322.873 635.718 351.843 638.629 351.843 638.629Z" fill="white" stroke="#263238" stroke-width="2" stroke-miterlimit="10" stroke-linecap="round"/>
<path d="M288.974 657.435C297.813 648.596 297.813 634.265 288.974 625.426C280.135 616.587 265.804 616.587 256.965 625.426C248.126 634.265 248.126 648.596 256.965 657.435C265.804 666.274 280.135 666.274 288.974 657.435Z" fill="white" stroke="#263238" stroke-width="2" stroke-miterlimit="10" stroke-linecap="round"/>
<path d="M336.015 669.724C336.015 671.806 335.397 673.841 334.24 675.572C333.083 677.303 331.438 678.652 329.514 679.447C327.59 680.243 325.473 680.45 323.432 680.042C321.39 679.635 319.515 678.63 318.045 677.156C316.574 675.683 315.574 673.806 315.17 671.763C314.767 669.721 314.978 667.604 315.778 665.682C316.578 663.76 317.93 662.118 319.663 660.965C321.397 659.811 323.433 659.198 325.515 659.202C326.896 659.202 328.263 659.475 329.538 660.004C330.814 660.533 331.972 661.308 332.947 662.285C333.923 663.263 334.696 664.423 335.222 665.699C335.748 666.976 336.018 668.344 336.015 669.724V669.724Z" fill="white" stroke="#263238" stroke-width="2" stroke-miterlimit="10" stroke-linecap="round"/>
<path d="M711.897 638.629C711.897 638.629 694.502 656.964 688.704 690.769C688.704 690.769 770.776 686.896 802.655 674.359C834.535 661.822 838.475 660.926 839.348 655.039C840.221 649.151 837.4 607.734 824.863 600.973C812.327 594.212 798.782 596.138 786.223 605.787C773.664 615.435 758.239 629.942 749.553 632.83C740.866 635.718 711.897 638.629 711.897 638.629Z" fill="white" stroke="#263238" stroke-width="2" stroke-miterlimit="10" stroke-linecap="round"/>
<path d="M801.095 663.49C813.258 660.606 820.78 648.408 817.896 636.245C815.012 624.082 802.814 616.56 790.651 619.444C778.488 622.328 770.966 634.526 773.85 646.689C776.734 658.852 788.932 666.374 801.095 663.49Z" fill="white" stroke="#263238" stroke-width="2" stroke-miterlimit="10" stroke-linecap="round"/>
<path d="M732.852 669.725C732.852 671.807 733.469 673.842 734.626 675.573C735.784 677.304 737.428 678.652 739.352 679.448C741.276 680.244 743.393 680.451 745.435 680.043C747.476 679.635 749.351 678.631 750.822 677.157C752.292 675.683 753.293 673.806 753.696 671.764C754.1 669.721 753.888 667.605 753.088 665.683C752.288 663.76 750.936 662.119 749.203 660.965C747.47 659.812 745.433 659.198 743.351 659.203C741.971 659.203 740.603 659.475 739.328 660.004C738.053 660.533 736.894 661.308 735.919 662.286C734.944 663.263 734.171 664.423 733.644 665.7C733.118 666.976 732.849 668.344 732.852 669.725Z" fill="white" stroke="#263238" stroke-width="2" stroke-miterlimit="10" stroke-linecap="round"/>
<path d="M815.304 724.551C815.304 724.551 725.509 741.946 721.636 744.834C717.763 747.722 710.062 764.154 710.062 764.154L728.397 759.318C728.397 759.318 770.933 761.244 785.372 754.483C799.812 747.722 815.304 724.551 815.304 724.551Z" fill="#263238" stroke="#263238" stroke-width="2" stroke-miterlimit="10" stroke-linecap="round"/>
<path d="M252.398 724.551C252.398 724.551 342.194 741.946 346.044 744.834C349.895 747.722 357.641 764.154 357.641 764.154L339.283 759.318C339.283 759.318 296.748 761.244 282.33 754.483C267.913 747.722 252.398 724.551 252.398 724.551Z" fill="#263238" stroke="#263238" stroke-width="2" stroke-miterlimit="10" stroke-linecap="round"/>
<path d="M702.762 653.494L678.785 645.501H659.846" stroke="#263238" stroke-width="2" stroke-miterlimit="10" stroke-linecap="round"/>
<path d="M362.477 652.352L378.461 643.218L400.11 643.442" stroke="#263238" stroke-width="2" stroke-miterlimit="10" stroke-linecap="round"/>
<path d="M770.731 545.497C773.172 544.109 775.634 542.789 778.119 541.58" stroke="#263238" stroke-width="2" stroke-miterlimit="10" stroke-linecap="round"/>
<path d="M664.436 682.575C679.547 649.352 714.09 583.31 762.357 550.714" stroke="#263238" stroke-width="2" stroke-miterlimit="10" stroke-linecap="round"/>
<path d="M655.929 702.589C655.929 702.589 657.115 699.433 659.421 693.948" stroke="#263238" stroke-width="2" stroke-miterlimit="10" stroke-linecap="round"/>
<path d="M298.427 550.714C294.412 548.266 290.263 545.983 285.979 543.863" stroke="#263238" stroke-width="2" stroke-miterlimit="10" stroke-linecap="round"/>
<path d="M395.139 683.291C385.244 653.74 359.477 592.601 306.934 556.221" stroke="#263238" stroke-width="2" stroke-miterlimit="10" stroke-linecap="round"/>
<path d="M400.155 700.305C400.155 700.305 399.461 697.238 397.916 691.91" stroke="#263238" stroke-width="2" stroke-miterlimit="10" stroke-linecap="round"/>
<path d="M258.578 597.526C258.578 597.526 248.302 572.407 248.302 557.564Z" fill="white"/>
<path d="M258.578 597.526C258.578 597.526 248.302 572.407 248.302 557.564" stroke="#263238" stroke-width="2" stroke-miterlimit="10" stroke-linecap="round"/>
<path d="M807.805 596.384C810.577 585.878 812.486 575.164 813.513 564.348Z" fill="white"/>
<path d="M807.805 596.384C810.577 585.878 812.486 575.164 813.513 564.348" stroke="#263238" stroke-width="2" stroke-miterlimit="10" stroke-linecap="round"/>
<path d="M843.22 703.731L836.37 792.698L709.658 798.496C709.658 798.496 687.965 772.236 686.823 760.818C685.681 749.401 701.666 732.275 706.233 731.133C710.8 729.991 790.722 714.007 790.722 714.007" stroke="#263238" stroke-width="2" stroke-miterlimit="10" stroke-linecap="round"/>
<path d="M223.116 703.731L229.967 792.698L356.723 798.407C356.723 798.407 378.417 772.146 379.558 760.729C380.7 749.311 364.716 732.185 360.149 731.043C355.582 729.902 275.637 713.917 275.637 713.917" stroke="#263238" stroke-width="2" stroke-miterlimit="10" stroke-linecap="round"/>
<path d="M435.011 665.09L528.187 672.545C532.143 672.859 536.118 672.859 540.074 672.545L625.952 665.829" stroke="#263238" stroke-width="2" stroke-miterlimit="10" stroke-linecap="round"/>
<path d="M441.146 674.717L528.187 681.679C532.143 682.004 536.119 682.004 540.075 681.679L622.908 675.254" stroke="#263238" stroke-width="2" stroke-miterlimit="10" stroke-linecap="round"/>
<path d="M447.392 684.478L528.187 690.947C532.144 691.25 536.118 691.25 540.075 690.947L618.766 684.836" stroke="#263238" stroke-width="2" stroke-miterlimit="10" stroke-linecap="round"/>
<path d="M500.785 470.635C457.6 496.022 339.597 518.633 278.592 529.065C345.44 526.692 658.817 516.618 792.133 529.513L733.344 422.3C647.87 416.592 545.09 444.576 500.785 470.635Z" fill="#787878"/>
<path d="M265.898 529.513C265.898 529.513 642.475 515.028 792.134 529.513L726.472 409.875C726.472 409.875 556.53 388.63 335.433 410.838C335.433 410.749 290.054 482.209 265.898 529.513Z" stroke="#263238" stroke-width="2" stroke-miterlimit="10" stroke-linecap="round"/>
<path d="M900.806 414.675H752.482C748.551 414.675 745.365 417.861 745.365 421.791V550.46C745.365 554.39 748.551 557.576 752.482 557.576H900.806C904.737 557.576 907.923 554.39 907.923 550.46V421.791C907.923 417.861 904.737 414.675 900.806 414.675Z" fill="#263238"/>
<path d="M900.806 558.423H752.482C750.38 558.419 748.365 557.582 746.878 556.095C745.392 554.609 744.555 552.594 744.551 550.492V421.84C744.551 419.737 745.386 417.719 746.874 416.232C748.361 414.745 750.378 413.909 752.482 413.909H900.806C902.908 413.913 904.923 414.75 906.409 416.237C907.896 417.723 908.733 419.738 908.737 421.84V550.492C908.733 552.594 907.896 554.609 906.409 556.095C904.923 557.582 902.908 558.419 900.806 558.423ZM752.482 415.521C750.81 415.521 749.207 416.185 748.025 417.367C746.843 418.549 746.179 420.152 746.179 421.824V550.476C746.184 552.146 746.849 553.746 748.03 554.927C749.211 556.108 750.811 556.774 752.482 556.778H900.806C902.476 556.774 904.077 556.108 905.258 554.927C906.439 553.746 907.104 552.146 907.108 550.476V421.824C907.108 420.152 906.444 418.549 905.262 417.367C904.081 416.185 902.478 415.521 900.806 415.521H752.482Z" fill="#263238"/>
<path d="M895.644 406.923H747.32C743.389 406.923 740.203 410.109 740.203 414.039V542.708C740.203 546.638 743.389 549.824 747.32 549.824H895.644C899.575 549.824 902.761 546.638 902.761 542.708V414.039C902.761 410.109 899.575 406.923 895.644 406.923Z" fill="white"/>
<path d="M895.644 550.655H747.319C745.217 550.651 743.203 549.814 741.716 548.327C740.23 546.841 739.393 544.826 739.389 542.724V414.072C739.389 411.967 740.224 409.948 741.711 408.458C743.197 406.969 745.215 406.129 747.319 406.125H895.644C897.749 406.129 899.766 406.969 901.253 408.458C902.74 409.948 903.575 411.967 903.575 414.072V542.724C903.57 544.826 902.734 546.841 901.247 548.327C899.761 549.814 897.746 550.651 895.644 550.655ZM747.319 407.737C745.647 407.742 744.044 408.409 742.862 409.594C741.681 410.778 741.017 412.383 741.017 414.056V542.708C741.021 544.378 741.687 545.979 742.868 547.16C744.049 548.341 745.649 549.006 747.319 549.01H895.644C897.314 549.006 898.915 548.341 900.096 547.16C901.277 545.979 901.942 544.378 901.946 542.708V414.056C901.946 412.383 901.283 410.778 900.101 409.594C898.92 408.409 897.317 407.742 895.644 407.737H747.319Z" fill="#263238"/>
<path d="M775.9 464.149H760.901V533.474H775.9V464.149Z" fill="#263238"/>
<path d="M775.883 534.305H760.901C760.685 534.305 760.478 534.219 760.325 534.066C760.173 533.914 760.087 533.707 760.087 533.491V464.149C760.087 463.933 760.173 463.726 760.325 463.573C760.478 463.42 760.685 463.334 760.901 463.334H775.883C776.099 463.334 776.307 463.42 776.459 463.573C776.612 463.726 776.698 463.933 776.698 464.149V533.491C776.698 533.707 776.612 533.914 776.459 534.066C776.307 534.219 776.099 534.305 775.883 534.305ZM761.715 532.676H775.069V464.963H761.715V532.676Z" fill="#263238"/>
<path d="M797.135 475.385H782.137V533.474H797.135V475.385Z" fill="#92E3A9"/>
<path d="M797.119 534.305H782.219C782.003 534.305 781.796 534.219 781.643 534.066C781.49 533.913 781.404 533.706 781.404 533.49V475.369C781.404 475.153 781.49 474.946 781.643 474.793C781.796 474.64 782.003 474.555 782.219 474.555H797.201C797.417 474.555 797.624 474.64 797.777 474.793C797.929 474.946 798.015 475.153 798.015 475.369V533.458C798.02 533.575 798 533.691 797.957 533.8C797.913 533.908 797.846 534.006 797.761 534.086C797.676 534.167 797.575 534.228 797.464 534.265C797.353 534.303 797.236 534.316 797.119 534.305ZM782.951 532.676H796.305V476.216H782.951V532.676Z" fill="#263238"/>
<path d="M818.372 484.766H803.373V533.491H818.372V484.766Z" fill="white"/>
<path d="M818.355 534.305H803.389C803.173 534.305 802.966 534.219 802.814 534.066C802.661 533.913 802.575 533.706 802.575 533.49V484.765C802.575 484.549 802.661 484.342 802.814 484.19C802.966 484.037 803.173 483.951 803.389 483.951H818.372C818.588 483.951 818.795 484.037 818.947 484.19C819.1 484.342 819.186 484.549 819.186 484.765V533.49C819.186 533.599 819.164 533.706 819.122 533.806C819.081 533.906 819.019 533.996 818.942 534.072C818.864 534.148 818.773 534.207 818.672 534.247C818.571 534.287 818.464 534.307 818.355 534.305ZM804.187 532.676H817.541V485.58H804.187V532.676Z" fill="#263238"/>
<path d="M839.607 456.022H824.608V533.474H839.607V456.022Z" fill="#263238"/>
<path d="M839.591 534.305H824.559C824.343 534.305 824.136 534.219 823.984 534.066C823.831 533.913 823.745 533.706 823.745 533.49V456.022C823.745 455.806 823.831 455.599 823.984 455.447C824.136 455.294 824.343 455.208 824.559 455.208H839.542C839.758 455.208 839.965 455.294 840.117 455.447C840.27 455.599 840.356 455.806 840.356 456.022V533.49C840.356 533.698 840.277 533.898 840.135 534.05C839.993 534.201 839.798 534.292 839.591 534.305ZM825.422 532.676H838.776V456.837H825.422V532.676Z" fill="#263238"/>
<path d="M860.843 465.403H845.845V533.491H860.843V465.403Z" fill="#92E3A9"/>
<path d="M860.827 534.305H845.845C845.629 534.305 845.421 534.219 845.269 534.066C845.116 533.914 845.03 533.706 845.03 533.491V465.403C845.03 465.187 845.116 464.98 845.269 464.827C845.421 464.674 845.629 464.588 845.845 464.588H860.827C861.043 464.588 861.25 464.674 861.403 464.827C861.555 464.98 861.641 465.187 861.641 465.403V533.491C861.641 533.706 861.555 533.914 861.403 534.066C861.25 534.219 861.043 534.305 860.827 534.305ZM846.659 532.676H860.013V466.217H846.659V532.676Z" fill="#263238"/>
<path d="M882.079 432.914H867.08V533.474H882.079V432.914Z" fill="white"/>
<path d="M882.078 534.305H867.08C866.864 534.305 866.657 534.219 866.504 534.066C866.351 533.914 866.266 533.706 866.266 533.49V432.914C866.266 432.698 866.351 432.491 866.504 432.338C866.657 432.185 866.864 432.1 867.08 432.1H882.078C882.293 432.104 882.498 432.191 882.65 432.343C882.801 432.495 882.889 432.699 882.893 432.914V533.49C882.889 533.705 882.801 533.91 882.65 534.062C882.498 534.213 882.293 534.301 882.078 534.305ZM867.894 532.676H881.264V433.728H867.894V532.676Z" fill="#263238"/>
<path d="M776.91 424.885H761.911V426.514H776.91V424.885Z" fill="#263238"/>
<path d="M776.91 431.123H761.911V432.751H776.91V431.123Z" fill="#263238"/>
<path d="M776.91 437.376H761.911V439.004H776.91V437.376Z" fill="#263238"/>
<path d="M842.473 424.885H781.893V426.514H842.473V424.885Z" fill="#263238"/>
<path d="M842.473 431.123H781.893V432.751H842.473V431.123Z" fill="#263238"/>
<path d="M842.473 437.376H781.893V439.004H842.473V437.376Z" fill="#263238"/>
<path d="M912.397 239.73H764.073C760.142 239.73 756.956 242.916 756.956 246.847V375.515C756.956 379.445 760.142 382.632 764.073 382.632H912.397C916.327 382.632 919.514 379.445 919.514 375.515V246.847C919.514 242.916 916.327 239.73 912.397 239.73Z" fill="#263238"/>
<path d="M912.397 383.462H764.105C762.003 383.458 759.988 382.621 758.501 381.134C757.015 379.648 756.178 377.633 756.174 375.531V246.879C756.172 245.835 756.375 244.801 756.773 243.836C757.17 242.871 757.754 241.994 758.49 241.255C759.226 240.515 760.101 239.928 761.065 239.527C762.028 239.125 763.061 238.918 764.105 238.916H912.429C914.531 238.92 916.546 239.757 918.032 241.243C919.519 242.73 920.356 244.744 920.36 246.846V375.498C920.362 376.545 920.158 377.581 919.758 378.548C919.359 379.516 918.772 380.394 918.032 381.134C917.292 381.874 916.414 382.461 915.447 382.86C914.479 383.259 913.443 383.464 912.397 383.462ZM764.105 240.544C762.435 240.548 760.834 241.214 759.653 242.395C758.472 243.576 757.807 245.176 757.802 246.846V375.498C757.807 377.169 758.472 378.769 759.653 379.95C760.834 381.131 762.435 381.796 764.105 381.801H912.429C914.099 381.796 915.7 381.131 916.881 379.95C918.062 378.769 918.727 377.169 918.731 375.498V246.846C918.727 245.176 918.062 243.576 916.881 242.395C915.7 241.214 914.099 240.548 912.429 240.544H764.105Z" fill="#263238"/>
<path d="M905.508 231.457H757.184C753.254 231.457 750.067 234.643 750.067 238.574V367.242C750.067 371.172 753.254 374.359 757.184 374.359H905.508C909.439 374.359 912.625 371.172 912.625 367.242V238.574C912.625 234.643 909.439 231.457 905.508 231.457Z" fill="white"/>
<path d="M905.508 375.189H757.184C755.082 375.185 753.067 374.348 751.581 372.862C750.094 371.375 749.257 369.36 749.253 367.258V238.606C749.253 236.501 750.088 234.482 751.575 232.993C753.062 231.503 755.079 230.663 757.184 230.659H905.508C907.613 230.663 909.63 231.503 911.117 232.993C912.604 234.482 913.439 236.501 913.439 238.606V367.258C913.435 369.36 912.598 371.375 911.111 372.862C909.625 374.348 907.61 375.185 905.508 375.189ZM757.184 232.271C755.511 232.276 753.908 232.943 752.726 234.128C751.545 235.312 750.881 236.917 750.881 238.59V367.242C750.886 368.912 751.551 370.513 752.732 371.694C753.913 372.875 755.514 373.54 757.184 373.544H905.508C907.178 373.54 908.779 372.875 909.96 371.694C911.141 370.513 911.806 368.912 911.811 367.242V238.59C911.811 236.917 911.147 235.312 909.966 234.128C908.784 232.943 907.181 232.276 905.508 232.271H757.184Z" fill="#263238"/>
<path d="M767.753 347.326H766.124V352.846H767.753V347.326Z" fill="#263238"/>
<path d="M780.993 347.326H779.364V352.846H780.993V347.326Z" fill="#263238"/>
<path d="M794.232 347.326H792.604V352.846H794.232V347.326Z" fill="#263238"/>
<path d="M807.472 347.326H805.844V352.846H807.472V347.326Z" fill="#263238"/>
<path d="M820.712 347.326H819.083V352.846H820.712V347.326Z" fill="#263238"/>
<path d="M833.952 347.326H832.323V352.846H833.952V347.326Z" fill="#263238"/>
<path d="M847.191 347.326H845.562V352.846H847.191V347.326Z" fill="#263238"/>
<path d="M860.431 347.326H858.803V352.846H860.431V347.326Z" fill="#263238"/>
<path d="M873.671 347.326H872.043V352.846H873.671V347.326Z" fill="#263238"/>
<path d="M886.911 347.326H885.282V352.846H886.911V347.326Z" fill="#263238"/>
<path d="M900.151 347.326H898.522V352.846H900.151V347.326Z" fill="#263238"/>
<path d="M893.815 270.085L879.468 277.821L867.89 254.647L852.989 273.945L839.749 262.366L827.063 248.019L813.823 263.474L800.583 300.978L786.236 287.185L771.905 297.672V332.425H893.815V270.085Z" fill="#92E3A9"/>
<path d="M893.815 333.239H771.905C771.689 333.239 771.482 333.153 771.329 333C771.177 332.848 771.091 332.641 771.091 332.425V297.672C771.088 297.545 771.117 297.42 771.173 297.306C771.23 297.193 771.314 297.095 771.417 297.021L785.764 286.533C785.911 286.414 786.095 286.349 786.285 286.349C786.475 286.349 786.658 286.414 786.806 286.533L800.241 299.447L813.058 263.132C813.09 263.037 813.14 262.948 813.204 262.871L826.444 247.433C826.518 247.34 826.612 247.266 826.72 247.215C826.827 247.164 826.944 247.138 827.063 247.14C827.179 247.141 827.295 247.166 827.401 247.213C827.508 247.261 827.603 247.33 827.682 247.417L840.368 261.764L852.875 272.707L867.238 254.077C867.325 253.968 867.437 253.883 867.565 253.829C867.693 253.775 867.833 253.754 867.971 253.768C868.105 253.781 868.234 253.829 868.345 253.906C868.456 253.983 868.546 254.086 868.606 254.207L879.826 276.632L893.424 269.304C893.546 269.235 893.684 269.199 893.823 269.199C893.963 269.199 894.101 269.235 894.222 269.304C894.346 269.375 894.448 269.477 894.519 269.6C894.591 269.722 894.629 269.862 894.63 270.004V332.425C894.63 332.641 894.544 332.848 894.391 333C894.238 333.153 894.031 333.239 893.815 333.239ZM772.719 331.61H893.001V271.453L879.859 278.537C879.655 278.618 879.428 278.618 879.224 278.537C879.119 278.506 879.022 278.453 878.938 278.383C878.854 278.313 878.785 278.227 878.735 278.13L867.743 256.113L853.673 274.45C853.605 274.538 853.519 274.612 853.42 274.665C853.322 274.718 853.214 274.75 853.103 274.759C852.992 274.772 852.879 274.761 852.772 274.727C852.666 274.694 852.568 274.638 852.484 274.564L839.244 262.985L827.112 249.257L814.572 263.913L801.381 301.369C801.338 301.497 801.263 301.612 801.163 301.703C801.064 301.794 800.943 301.859 800.811 301.89C800.676 301.922 800.535 301.919 800.402 301.882C800.268 301.845 800.146 301.775 800.046 301.678L786.204 288.357L772.752 298.128L772.719 331.61Z" fill="#263238"/>
<path d="M787.23 246.896H772.231V248.524H787.23V246.896Z" fill="#263238"/>
<path d="M787.23 253.149H772.231V254.777H787.23V253.149Z" fill="#263238"/>
<path d="M787.23 259.386H772.231V261.015H787.23V259.386Z" fill="#263238"/>
<path d="M893.815 300.636L879.468 305.945L867.89 280.182L852.989 298.226L839.749 293.813L827.063 321.383L813.823 284.433L800.583 321.383L786.236 307.606L771.905 325.813V339.036H893.815V300.636Z" fill="#263238"/>
<path d="M893.815 339.851H771.905C771.689 339.851 771.482 339.765 771.329 339.612C771.177 339.459 771.091 339.252 771.091 339.036V325.797C771.087 325.615 771.145 325.437 771.254 325.292L785.601 307.101C785.673 307.013 785.762 306.94 785.863 306.887C785.963 306.834 786.074 306.801 786.187 306.792C786.416 306.783 786.638 306.865 786.806 307.02L800.241 319.934L813.058 284.107C813.115 283.949 813.219 283.813 813.355 283.717C813.492 283.621 813.656 283.569 813.823 283.569C813.99 283.569 814.154 283.621 814.291 283.717C814.428 283.813 814.532 283.949 814.588 284.107L827.161 319.185L839.016 293.471C839.098 293.288 839.245 293.142 839.429 293.061C839.612 292.98 839.819 292.969 840.009 293.031L852.712 297.265L867.254 279.661C867.342 279.555 867.456 279.472 867.584 279.422C867.712 279.371 867.851 279.354 867.988 279.372C868.125 279.39 868.255 279.442 868.366 279.524C868.476 279.606 868.565 279.715 868.622 279.84L879.908 304.919L893.522 299.871C893.645 299.821 893.778 299.804 893.91 299.821C894.041 299.838 894.166 299.889 894.271 299.968C894.383 300.04 894.474 300.139 894.537 300.256C894.599 300.373 894.631 300.504 894.63 300.636V339.036C894.63 339.143 894.609 339.249 894.568 339.348C894.527 339.447 894.467 339.537 894.391 339.612C894.315 339.688 894.226 339.748 894.127 339.789C894.028 339.83 893.922 339.851 893.815 339.851ZM772.719 338.222H893.001V301.809L879.745 306.694C879.552 306.763 879.34 306.757 879.151 306.679C878.962 306.601 878.808 306.455 878.719 306.271L867.678 281.68L853.673 298.747C853.566 298.874 853.423 298.966 853.263 299.009C853.103 299.053 852.933 299.047 852.777 298.991L840.237 294.806L827.844 321.725C827.781 321.873 827.673 321.998 827.536 322.083C827.4 322.167 827.24 322.207 827.079 322.198C826.917 322.193 826.76 322.139 826.629 322.043C826.498 321.947 826.399 321.814 826.346 321.66L813.823 286.826L801.349 321.644C801.306 321.772 801.231 321.887 801.131 321.978C801.031 322.069 800.91 322.133 800.779 322.165C800.644 322.196 800.503 322.194 800.369 322.157C800.235 322.12 800.113 322.05 800.013 321.953L786.334 308.795L772.719 326.073V338.222Z" fill="#263238"/>
<path d="M979.267 316.654C979.267 316.654 973.86 302.356 958.406 303.903C942.951 305.45 936.014 317.811 938.717 325.921C939.829 329.643 941.251 333.265 942.968 336.75C942.968 336.75 937.935 334.421 939.483 342.531C941.03 350.641 952.625 349.045 954.546 348.329C956.468 347.612 964.985 325.921 979.267 316.654Z" fill="#263238"/>
<path d="M949.645 349.795C947.254 349.861 944.883 349.341 942.74 348.28C941.679 347.725 940.761 346.931 940.058 345.962C939.354 344.993 938.885 343.875 938.685 342.694C938.05 339.356 938.375 337.239 939.695 336.18C940.215 335.788 940.851 335.582 941.502 335.594C940.786 333.965 939.581 331.067 937.936 326.149C937.345 323.979 937.24 321.705 937.628 319.49C938.017 317.274 938.889 315.172 940.183 313.332C942.252 310.371 944.962 307.914 948.111 306.143C951.261 304.373 954.768 303.334 958.374 303.105C974.284 301.477 980.033 316.133 980.082 316.361C980.144 316.536 980.147 316.726 980.091 316.902C980.036 317.078 979.923 317.232 979.772 317.338C969.773 323.852 962.51 336.718 958.602 343.639C956.468 347.45 955.687 348.769 954.905 349.094C953.197 349.592 951.423 349.828 949.645 349.795ZM941.502 337.255C941.206 337.246 940.915 337.331 940.672 337.499C940.248 337.841 939.613 338.932 940.265 342.385C940.428 343.329 940.807 344.222 941.372 344.996C941.937 345.77 942.672 346.403 943.522 346.847C946.913 348.3 950.696 348.558 954.253 347.58C955.334 346.076 956.298 344.492 957.136 342.841C961.028 335.92 968.226 323.152 978.306 316.345C977.101 313.707 971.581 303.415 958.536 304.718C955.172 304.911 951.894 305.859 948.945 307.492C945.997 309.124 943.453 311.398 941.502 314.147C940.355 315.784 939.579 317.654 939.23 319.623C938.882 321.592 938.968 323.614 939.483 325.546C940.591 329.208 941.991 332.775 943.668 336.213C943.751 336.362 943.785 336.534 943.765 336.703C943.745 336.873 943.673 337.032 943.558 337.158C943.442 337.284 943.29 337.371 943.123 337.406C942.956 337.441 942.782 337.422 942.626 337.353C942.265 337.259 941.891 337.226 941.519 337.255H941.502Z" fill="#263238"/>
<path d="M880.873 455.289L853.449 469.001C852.955 469.249 852.538 469.626 852.243 470.092C851.947 470.559 851.784 471.097 851.77 471.649C851.757 472.201 851.894 472.746 852.167 473.227C852.439 473.707 852.838 474.104 853.319 474.375L926.487 515.528C927.102 515.875 927.817 515.998 928.512 515.877C929.207 515.755 929.839 515.395 930.298 514.86L947.479 494.911C947.773 494.566 947.986 494.162 948.105 493.725C948.223 493.288 948.244 492.831 948.164 492.386C948.085 491.94 947.908 491.518 947.645 491.149C947.383 490.781 947.043 490.474 946.648 490.253L883.723 455.338C883.288 455.098 882.801 454.968 882.304 454.959C881.807 454.951 881.316 455.064 880.873 455.289Z" fill="#263238"/>
<path d="M927.985 516.733C927.324 516.733 926.674 516.565 926.096 516.244L852.927 475.076C852.314 474.736 851.805 474.234 851.457 473.625C851.108 473.017 850.933 472.324 850.949 471.623C850.966 470.922 851.174 470.238 851.552 469.647C851.929 469.056 852.461 468.579 853.09 468.269L880.514 454.557C881.07 454.268 881.687 454.118 882.314 454.118C882.94 454.118 883.557 454.268 884.113 454.557L947.039 489.439C947.543 489.715 947.978 490.102 948.311 490.57C948.644 491.038 948.866 491.576 948.961 492.143C949.073 492.715 949.054 493.306 948.905 493.871C948.755 494.435 948.479 494.958 948.097 495.4L930.917 515.398C930.554 515.819 930.104 516.157 929.598 516.387C929.092 516.618 928.541 516.736 927.985 516.733ZM881.247 456.006L853.872 469.718C853.509 469.899 853.203 470.175 852.985 470.517C852.768 470.859 852.648 471.254 852.638 471.659C852.627 472.064 852.728 472.464 852.928 472.817C853.129 473.169 853.421 473.46 853.774 473.659L926.943 514.828C927.393 515.077 927.915 515.165 928.422 515.076C928.929 514.987 929.39 514.727 929.728 514.339L946.909 494.341C947.125 494.088 947.282 493.791 947.37 493.47C947.457 493.148 947.472 492.812 947.413 492.485C947.356 492.158 947.225 491.849 947.03 491.581C946.835 491.313 946.582 491.093 946.29 490.937L883.364 456.055C883.043 455.871 882.682 455.77 882.312 455.761C881.942 455.752 881.576 455.837 881.247 456.006Z" fill="#263238"/>
<path d="M947.756 479.994L936.21 472.503C936.21 472.503 927.562 462.732 924.322 461.103C921.081 459.475 899.308 463.383 899.308 463.383L947.153 490.449L947.756 479.994Z" fill="white"/>
<path d="M947.153 491.328C947.017 491.329 946.882 491.295 946.762 491.23L898.917 464.165C898.769 464.084 898.651 463.959 898.577 463.808C898.503 463.657 898.478 463.487 898.505 463.321C898.531 463.155 898.609 463.002 898.726 462.882C898.844 462.761 898.996 462.681 899.161 462.65C901.424 462.243 921.292 458.725 924.68 460.452C928.067 462.178 935.835 470.874 936.747 471.851L948.146 479.277C948.268 479.35 948.366 479.457 948.429 479.584C948.493 479.71 948.519 479.853 948.505 479.994L947.918 490.53C947.906 490.738 947.815 490.932 947.663 491.075C947.512 491.217 947.312 491.296 947.104 491.296L947.153 491.328ZM901.685 463.855L946.42 489.162L946.909 480.417L935.77 473.187C935.701 473.156 935.644 473.105 935.607 473.04C933.229 470.386 926.503 463.269 923.947 461.901C921.944 460.891 910.055 462.438 901.685 463.855Z" fill="#263238"/>
<path d="M924.174 468.171C924.174 468.171 915.673 468.545 910.43 466.314C905.186 464.083 902.173 465.125 904.909 469.571C907.645 474.017 916.129 473.594 916.129 473.594C916.129 473.594 923.539 482.615 932.528 479.082" fill="white"/>
<path d="M928.311 480.677C921.944 480.677 916.911 475.678 915.772 474.375C913.996 474.375 906.831 474.196 904.209 469.962C902.923 467.877 902.711 466.281 903.59 465.256C904.714 463.969 907.254 464.067 910.756 465.565C915.771 467.698 924.061 467.356 924.142 467.356C924.251 467.345 924.36 467.356 924.464 467.391C924.568 467.425 924.663 467.481 924.743 467.555C924.823 467.629 924.887 467.719 924.929 467.82C924.971 467.92 924.992 468.029 924.989 468.138C924.993 468.353 924.915 468.561 924.769 468.719C924.623 468.877 924.422 468.972 924.207 468.985C923.865 468.985 915.462 469.343 910.104 467.063C907.14 465.793 905.219 465.793 904.828 466.314C904.437 466.835 904.616 467.535 905.593 469.099C908.036 473.056 916.016 472.747 916.097 472.747C916.224 472.739 916.35 472.762 916.466 472.812C916.583 472.863 916.685 472.941 916.765 473.04C916.765 473.121 923.914 481.557 932.236 478.284C932.335 478.244 932.441 478.224 932.548 478.226C932.655 478.227 932.761 478.25 932.859 478.292C932.958 478.335 933.047 478.396 933.121 478.473C933.196 478.549 933.255 478.64 933.294 478.74C933.334 478.839 933.353 478.945 933.352 479.052C933.35 479.159 933.328 479.265 933.285 479.363C933.243 479.462 933.182 479.551 933.105 479.625C933.028 479.7 932.938 479.759 932.838 479.798C931.399 480.376 929.862 480.675 928.311 480.677Z" fill="#263238"/>
<path d="M1041.15 857.14C1041.15 857.14 1046.04 875.721 1045.6 878.945C1045.16 882.17 1035.09 885.003 1029.44 885.003C1023.75 885.323 1018.08 885.997 1012.47 887.023L1012.88 857.14H1041.15Z" fill="white"/>
<path d="M1012.47 887.837C1012.28 887.84 1012.09 887.77 1011.95 887.642C1011.86 887.568 1011.78 887.473 1011.73 887.366C1011.68 887.259 1011.66 887.141 1011.66 887.023L1012.07 857.123C1012.07 856.91 1012.16 856.707 1012.31 856.558C1012.46 856.409 1012.67 856.325 1012.88 856.325H1041.15C1041.33 856.321 1041.51 856.378 1041.65 856.488C1041.79 856.598 1041.89 856.753 1041.93 856.928C1042.44 858.85 1046.82 875.754 1046.41 879.043C1045.91 883.033 1035.11 885.818 1029.44 885.818C1023.8 886.14 1018.18 886.809 1012.62 887.821L1012.47 887.837ZM1013.68 857.954L1013.3 886.062C1018.64 885.088 1024.03 884.462 1029.44 884.189C1035.24 884.189 1044.47 881.323 1044.78 878.848C1045.09 876.372 1041.95 863.491 1040.52 857.954H1013.68Z" fill="#263238"/>
<path d="M1045.6 878.946C1045.6 877.302 1045.42 875.663 1045.06 874.06C1041.11 876.211 1036.96 877.962 1032.67 879.288C1025.81 881.258 1016.02 881.356 1012.55 881.323L1012.47 886.958C1018.08 885.932 1023.75 885.258 1029.44 884.938C1035.09 885.004 1045.19 882.186 1045.6 878.946Z" fill="white"/>
<path d="M1012.47 887.837C1012.28 887.84 1012.09 887.77 1011.95 887.642C1011.86 887.568 1011.78 887.473 1011.73 887.366C1011.68 887.259 1011.66 887.142 1011.66 887.023L1011.74 881.388C1011.74 881.172 1011.83 880.965 1011.98 880.813C1012.13 880.66 1012.34 880.574 1012.55 880.574C1016.33 880.574 1025.76 880.476 1032.45 878.571C1036.69 877.256 1040.79 875.527 1044.68 873.409C1044.8 873.349 1044.92 873.317 1045.05 873.317C1045.18 873.317 1045.3 873.349 1045.42 873.409C1045.53 873.465 1045.63 873.548 1045.71 873.649C1045.78 873.751 1045.83 873.87 1045.86 873.995C1046.24 875.655 1046.43 877.355 1046.41 879.06C1045.91 883.049 1035.11 885.834 1029.44 885.834C1023.8 886.156 1018.18 886.825 1012.62 887.837H1012.47ZM1013.35 882.219V886.062C1018.68 885.088 1024.08 884.462 1029.49 884.189C1035.29 884.189 1044.52 881.323 1044.83 878.848C1044.87 877.677 1044.76 876.506 1044.51 875.363C1040.81 877.315 1036.94 878.913 1032.94 880.134C1026.56 881.626 1020.02 882.326 1013.47 882.219H1013.35Z" fill="#263238"/>
<path d="M1006.82 678.606C1006.82 678.606 1012.07 722.576 1014.08 731.126C1016.1 739.675 1026.2 754.137 1030.24 776.724C1034.28 799.311 1041.96 851.847 1041.96 853.068C1041.96 854.29 1042.76 857.954 1043.17 860.332C1043.17 860.332 1034.28 863.979 1027.83 863.165C1023.74 862.631 1019.69 861.82 1015.71 860.739C1015.71 860.739 1018.53 843.379 1012.46 812.274C1006.38 781.17 1000.44 748.958 996.725 726.273C993.012 703.588 1006.82 678.606 1006.82 678.606Z" fill="#999999"/>
<path d="M1029.83 864.126C1029.12 864.13 1028.42 864.091 1027.71 864.012C1023.59 863.469 1019.5 862.648 1015.48 861.553C1015.29 861.496 1015.13 861.373 1015.02 861.206C1014.91 861.038 1014.87 860.838 1014.9 860.641C1014.9 860.462 1017.63 843.021 1011.64 812.453C1004.35 774.998 999.037 746.043 995.877 726.403C992.246 703.767 1005.94 678.476 1006.07 678.216C1006.15 678.06 1006.28 677.936 1006.44 677.861C1006.6 677.785 1006.78 677.764 1006.95 677.798C1007.12 677.833 1007.28 677.923 1007.4 678.054C1007.52 678.185 1007.59 678.35 1007.6 678.525C1007.6 678.965 1012.86 722.592 1014.85 730.93C1016.02 734.769 1017.51 738.501 1019.31 742.086C1024.74 753.032 1028.69 764.653 1031.05 776.643C1034.98 798.66 1042.78 851.717 1042.78 853.182C1042.93 854.671 1043.16 856.15 1043.48 857.612C1043.66 858.557 1043.84 859.501 1043.97 860.315C1044 860.498 1043.97 860.686 1043.88 860.849C1043.79 861.012 1043.65 861.14 1043.48 861.211C1039.12 862.925 1034.51 863.91 1029.83 864.126ZM1016.61 860.169C1020.33 861.157 1024.11 861.897 1027.93 862.383C1033.14 863.035 1040.17 860.625 1042.26 859.843C1042.14 859.208 1042.01 858.524 1041.88 857.824C1041.54 856.294 1041.29 854.744 1041.15 853.182C1041.15 851.798 1033.56 800.044 1029.44 776.985C1027.12 765.121 1023.22 753.62 1017.86 742.786C1016.02 739.125 1014.49 735.311 1013.3 731.386C1011.56 724.074 1007.52 691.227 1006.33 681.473C1003.08 688.231 994.623 708.148 997.522 726.224C1000.68 745.848 1005.97 774.786 1013.27 812.225C1018.61 839.536 1017.05 856.537 1016.61 860.169Z" fill="#263238"/>
<path d="M986.22 852.287C983.603 856.062 980.48 859.459 976.938 862.384C970.065 868.442 957.135 874.907 953.503 876.519C949.872 878.131 946.989 878.148 947.852 881.779C948.715 885.411 954.708 888.293 972.899 888.293C991.089 888.293 1010.45 887.479 1012.47 887.072C1014.49 886.665 1020.61 886.665 1020.61 882.186C1020.61 877.708 1018.59 859.973 1018.59 859.973L986.22 852.287Z" fill="white"/>
<path d="M972.9 889.009C956.338 889.009 948.13 886.746 947.055 881.909C946.257 878.343 948.602 877.48 951.078 876.568C951.729 876.323 952.429 876.063 953.178 875.737C956.305 874.337 969.464 867.888 976.385 861.732C979.866 858.862 982.939 855.531 985.521 851.831C985.612 851.682 985.747 851.566 985.908 851.499C986.069 851.432 986.247 851.417 986.416 851.456L1018.73 859.126C1018.89 859.165 1019.04 859.254 1019.15 859.379C1019.26 859.504 1019.33 859.66 1019.34 859.827C1019.43 860.559 1021.36 877.74 1021.36 882.137C1021.36 886.534 1016.4 887.267 1013.74 887.609L1012.64 887.772C1010.57 888.244 991.285 889.009 972.9 889.009ZM986.595 853.182C983.957 856.792 980.895 860.073 977.476 862.953C970.327 869.256 957.005 875.802 953.83 877.219C953.064 877.561 952.315 877.838 951.631 878.098C948.944 879.092 948.179 879.466 948.651 881.551C949.237 884.205 953.928 887.381 972.9 887.381C990.813 887.381 1010.36 886.567 1012.31 886.176C1012.64 886.176 1013.06 886.062 1013.53 885.997C1016.67 885.59 1019.74 884.954 1019.74 882.137C1019.74 878.229 1018.11 863.654 1017.78 860.576L986.595 853.182Z" fill="#263238"/>
<path d="M1012.47 887.023C1014.49 886.616 1020.61 886.616 1020.61 882.137C1020.61 881.486 1020.61 880.509 1020.5 879.402C1013.58 880.314 997.914 882.251 980.228 883.75C969.306 884.915 958.261 883.806 947.788 880.493C947.773 880.931 947.817 881.369 947.918 881.796C948.716 885.427 954.774 888.31 972.965 888.31C991.155 888.31 1010.45 887.381 1012.47 887.023Z" fill="white"/>
<path d="M972.899 889.009C956.337 889.009 948.13 886.746 947.055 881.909C946.945 881.412 946.895 880.904 946.908 880.395C946.916 880.268 946.952 880.146 947.014 880.036C947.076 879.926 947.162 879.831 947.267 879.76C947.373 879.688 947.494 879.642 947.621 879.625C947.749 879.608 947.878 879.62 947.999 879.662C958.358 882.956 969.288 884.065 980.097 882.919C997.473 881.453 1012.77 879.564 1020.32 878.571C1020.55 878.555 1020.77 878.618 1020.96 878.75C1021.13 878.9 1021.23 879.11 1021.25 879.336C1021.33 880.476 1021.36 881.453 1021.36 882.121C1021.36 886.599 1016.4 887.251 1013.74 887.593L1012.63 887.756C1010.57 888.244 991.285 889.009 972.899 889.009ZM948.651 881.6C949.286 884.238 954.025 887.381 972.899 887.381C990.813 887.381 1010.35 886.567 1012.31 886.176C1012.63 886.176 1013.06 886.062 1013.53 885.997C1016.67 885.59 1019.74 884.954 1019.74 882.137C1019.74 881.665 1019.74 881.046 1019.74 880.33C1011.9 881.339 997.066 883.131 980.293 884.564C969.656 885.674 958.905 884.684 948.651 881.649V881.6Z" fill="#263238"/>
<path d="M943.44 585.716C943.419 608.397 944.767 631.058 947.478 653.576C951.924 689.517 964.855 733.145 964.855 733.145C964.855 733.145 971.369 768.272 973.323 780.372C975.277 792.472 985.781 840.154 985.781 840.154L981.335 846.212L982.149 856.716L998.304 860.348C1004.91 861.994 1011.69 862.81 1018.5 862.774C1018.5 862.774 1019.31 841.767 1018.9 838.949C1018.5 836.132 1016.07 822.794 1015.65 818.349C1015.22 813.903 1016.45 764.608 1013.63 753.322C1010.81 742.037 1005.94 725.442 1005.94 710.981C1005.94 696.52 1016.85 625.354 1016.85 625.354C1016.85 625.354 1028.56 608.792 1028.56 599.086C1028.69 594.215 1028.29 589.344 1027.36 584.56L943.44 585.716Z" fill="#BDBDBD"/>
<path d="M1017.36 863.637C1010.89 863.508 1004.45 862.678 998.157 861.162L982.003 857.53C981.833 857.49 981.681 857.398 981.567 857.266C981.453 857.135 981.383 856.971 981.368 856.798L980.57 846.294C980.549 846.103 980.602 845.911 980.716 845.756L984.95 839.991C983.973 835.562 974.398 791.967 972.492 780.535C970.505 768.565 964.073 733.634 964.008 733.308C963.943 732.982 950.98 689.338 946.631 653.69C943.934 631.133 942.585 608.434 942.593 585.716C942.593 585.505 942.677 585.302 942.826 585.152C942.976 585.002 943.179 584.918 943.391 584.918L1027.41 583.713C1027.59 583.708 1027.76 583.766 1027.9 583.875C1028.05 583.985 1028.15 584.141 1028.19 584.316C1029.14 589.168 1029.56 594.11 1029.42 599.054C1029.42 608.499 1018.95 623.791 1017.68 625.631C1017.05 629.702 1006.8 696.992 1006.8 710.948C1006.8 723.439 1010.37 737.265 1013.24 748.404C1013.67 750.087 1014.08 751.683 1014.46 753.192C1016.53 761.481 1016.46 789.491 1016.41 806.232C1016.41 812.323 1016.41 817.143 1016.49 818.332C1016.77 821.345 1017.98 828.445 1018.86 833.624C1019.26 836.034 1019.6 837.988 1019.74 838.9C1020.14 841.766 1019.36 862.009 1019.33 862.872C1019.32 863.075 1019.24 863.269 1019.1 863.415C1018.96 863.56 1018.77 863.645 1018.56 863.654C1018.56 863.654 1018.09 863.637 1017.36 863.637ZM982.947 856.065L998.516 859.582C1004.82 861.081 1011.27 861.889 1017.75 861.993C1018.03 854.567 1018.43 841.18 1018.14 839.079C1018.01 838.184 1017.67 836.23 1017.28 833.852C1016.38 828.641 1015.18 821.508 1014.9 818.43C1014.78 817.176 1014.78 812.567 1014.8 806.184C1014.8 789.508 1014.91 761.628 1012.9 753.534C1012.52 752.036 1012.11 750.44 1011.67 748.762C1008.79 737.558 1005.16 723.635 1005.16 710.932C1005.16 696.487 1015.63 628.074 1016.09 625.175C1016.1 625.052 1016.15 624.935 1016.22 624.833C1016.33 624.67 1027.78 608.369 1027.78 599.037C1027.85 594.444 1027.51 589.854 1026.74 585.325L944.189 586.514C944.248 608.898 945.629 631.258 948.325 653.478C952.706 688.931 965.538 732.477 965.652 732.917C965.766 733.357 972.166 768.272 974.17 780.258C976.173 792.244 986.579 839.519 986.676 839.991C986.7 840.106 986.701 840.224 986.679 840.338C986.656 840.453 986.611 840.562 986.546 840.659L982.28 846.473L982.947 856.065Z" fill="#263238"/>
<path d="M1002.62 855.593C1002.48 855.595 1002.34 855.548 1002.23 855.458C1002.12 855.369 1002.04 855.244 1002.02 855.104C1002.02 855.104 1001.37 851.847 1000.08 847.369C998.956 843.395 1000.57 841.636 1001.33 841.034C1001.24 839.633 1000.83 834.145 1000.06 826.556C1000.05 826.477 1000.06 826.397 1000.08 826.32C1000.11 826.244 1000.14 826.172 1000.19 826.11C1000.24 826.048 1000.3 825.997 1000.37 825.959C1000.44 825.921 1000.52 825.897 1000.6 825.889C1000.68 825.877 1000.76 825.882 1000.84 825.904C1000.92 825.925 1000.99 825.961 1001.06 826.012C1001.12 826.062 1001.17 826.124 1001.21 826.196C1001.25 826.267 1001.28 826.345 1001.28 826.426C1002.16 835.269 1002.57 841.246 1002.57 841.311C1002.58 841.429 1002.55 841.548 1002.49 841.652C1002.44 841.756 1002.35 841.841 1002.25 841.897C1002.16 841.897 1000.13 843.07 1001.25 847.027C1002.55 851.538 1003.21 854.827 1003.22 854.86C1003.25 855.02 1003.22 855.184 1003.12 855.318C1003.03 855.452 1002.89 855.545 1002.73 855.576L1002.62 855.593Z" fill="#263238"/>
<path d="M999.835 819.423C999.685 819.417 999.543 819.358 999.432 819.257C999.322 819.155 999.251 819.018 999.232 818.87C998.516 812.518 997.701 806.363 996.822 800.549C995.552 792.178 993.044 780.665 990.161 767.327C985.634 746.434 980 720.443 976.042 692.807C973.33 672.559 972.637 652.091 973.974 631.705C973.985 631.545 974.059 631.397 974.179 631.291C974.3 631.186 974.458 631.133 974.617 631.143C974.777 631.154 974.926 631.228 975.031 631.349C975.137 631.469 975.19 631.627 975.179 631.787C973.852 652.118 974.55 672.532 977.264 692.725C981.205 720.312 986.823 746.287 991.35 767.148C994.249 780.502 996.757 792.032 998.027 800.451C998.907 806.265 999.656 812.453 1000.45 818.821C1000.47 818.98 1000.42 819.138 1000.32 819.263C1000.22 819.387 1000.07 819.468 999.916 819.488L999.835 819.423Z" fill="#263238"/>
<path d="M975.097 625.191C975.017 625.185 974.938 625.163 974.866 625.126C974.794 625.089 974.73 625.037 974.679 624.975C974.627 624.913 974.588 624.841 974.565 624.763C974.542 624.685 974.535 624.604 974.544 624.523C975.505 613.026 976.742 605.796 976.742 605.73C976.768 605.571 976.856 605.428 976.988 605.333C977.119 605.238 977.283 605.2 977.443 605.226C977.602 605.252 977.745 605.34 977.84 605.471C977.935 605.603 977.973 605.766 977.947 605.926C977.947 606.007 976.726 613.189 975.765 624.621C975.749 624.784 975.67 624.934 975.546 625.04C975.421 625.146 975.261 625.2 975.097 625.191Z" fill="#263238"/>
<path d="M1021.38 329.796C1021.38 329.796 1026.4 309.7 1056.52 312.013C1086.65 314.325 1086.28 341.831 1086.28 341.831L1079.76 338.737C1079.76 338.737 1085.17 354.582 1078.98 366.161C1072.79 377.74 1056.96 384.319 1046.54 382.446C1036.12 380.573 1024.86 370.737 1023.24 365.33C1021.61 359.924 1027.55 341 1021.38 329.796Z" fill="#263238"/>
<path d="M1050.32 383.472C1048.99 383.477 1047.66 383.363 1046.35 383.13C1035.39 381.095 1024.1 371.047 1022.52 365.559C1021.95 363.523 1022.29 360.006 1022.75 355.576C1023.51 347.841 1024.57 337.255 1020.66 330.188C1020.56 330.009 1020.54 329.8 1020.58 329.601C1020.58 329.39 1026.15 308.854 1056.59 311.215C1087.03 313.577 1087.09 341.489 1087.09 341.783C1087.09 341.918 1087.05 342.052 1086.99 342.169C1086.92 342.287 1086.82 342.384 1086.7 342.45C1086.58 342.514 1086.45 342.548 1086.32 342.548C1086.18 342.548 1086.05 342.514 1085.93 342.45L1081.05 340.138C1082.27 344.665 1084.81 356.846 1079.68 366.438C1073.92 377.251 1060.69 383.472 1050.32 383.472ZM1022.24 329.732C1026.22 337.239 1025.14 347.938 1024.36 355.788C1023.95 359.875 1023.6 363.425 1024.1 365.152C1025.52 370.135 1036.41 379.678 1046.64 381.583C1056.57 383.423 1072.21 377.056 1078.22 365.77C1084.22 354.485 1079 339.144 1078.93 338.981C1078.89 338.831 1078.88 338.67 1078.92 338.517C1078.96 338.365 1079.05 338.227 1079.16 338.118C1079.28 338.008 1079.43 337.937 1079.59 337.914C1079.75 337.891 1079.91 337.917 1080.06 337.988L1085.41 340.512C1085.09 335.089 1082.16 314.847 1056.48 312.828C1029.07 310.711 1023.01 327.175 1022.24 329.699V329.732Z" fill="#263238"/>
<path d="M961.5 327.468C961.5 327.468 959.187 331.344 954.546 339.454C949.905 347.563 951.843 354.892 948.749 358.768C945.655 362.643 937.17 362.236 938.326 366.096C939.482 369.955 944.498 372.61 944.498 372.61C944.498 372.61 944.498 394.237 946.827 396.94C949.156 399.643 966.907 395.002 966.907 395.002C966.907 395.002 970.392 400.425 968.063 412.394C965.734 424.364 944.889 457.585 942.186 474.196C939.483 490.807 948.7 532.139 948.7 532.139L939.824 592.393C955.59 597.742 972.276 599.842 988.875 598.565C1015.53 596.253 1031.75 590.846 1031.75 590.846L1014.04 520.967C1014.04 520.967 1015.58 471.526 1012.11 444.101C1008.65 416.677 999.754 410.114 999.754 400.132C999.754 390.149 1012.49 384.677 1020.6 375.02C1025.06 369.037 1027.78 361.94 1028.46 354.509C1029.15 347.078 1027.77 339.603 1024.47 332.907C1018.14 319.244 997.816 313.984 983.908 313.593C970.001 313.202 961.5 327.468 961.5 327.468Z" fill="white"/>
<path d="M979.641 599.868C966.017 599.832 952.489 597.594 939.58 593.24C939.406 593.17 939.261 593.044 939.166 592.881C939.072 592.719 939.034 592.53 939.059 592.345L947.934 532.236C947.234 529.093 938.733 490.384 941.42 474.131C942.935 464.832 950.1 450.322 956.419 437.522C961.5 427.246 966.287 417.557 967.297 412.297C969.137 402.868 967.297 397.64 966.515 396.012C961.63 397.249 948.602 400.262 946.24 397.526C943.879 394.79 943.733 377.675 943.716 373.099C942.43 372.317 938.619 369.842 937.577 366.291C936.714 363.409 939.661 362.35 942.462 361.325C944.586 360.792 946.534 359.714 948.113 358.198C949.4 356.569 949.742 354.273 950.149 351.309C950.557 347.002 951.813 342.817 953.846 338.998C958.422 330.969 960.783 327.044 960.799 327.012C961.174 326.377 969.496 312.697 983.338 312.697H983.924C996.008 313.039 1018.3 317.583 1025.21 332.484C1034.23 352.026 1026.56 369.125 1021.23 375.46C1018.36 378.733 1015.22 381.757 1011.84 384.498C1005.83 389.547 1000.65 393.911 1000.65 400.099C1000.65 404.138 1002.13 407.574 1004.2 412.346C1008.78 422.381 1011.75 433.076 1012.99 444.036C1016.36 470.565 1015.01 518.231 1014.93 520.918L1032.68 590.732C1032.73 590.931 1032.7 591.139 1032.6 591.317C1032.5 591.495 1032.34 591.629 1032.14 591.693C1031.98 591.693 1015.52 597.165 989.086 599.461C985.781 599.738 982.686 599.868 979.641 599.868ZM940.769 591.921C956.255 597.031 972.595 599.045 988.859 597.849C1003.06 596.766 1017.12 594.262 1030.83 590.374L1013.25 521.211C1013.25 521.136 1013.25 521.059 1013.25 520.983C1013.25 520.495 1014.77 471.281 1011.33 444.232C1010.1 433.423 1007.17 422.876 1002.65 412.981C1000.58 408.226 998.972 404.464 998.972 400.099C998.972 393.162 1004.69 388.341 1010.73 383.244C1014.06 380.566 1017.15 377.607 1019.98 374.401C1025.08 368.327 1032.4 351.912 1023.72 333.151C1017.21 318.967 995.601 314.635 983.892 314.309H983.354C970.326 314.309 962.281 327.68 962.184 327.826C962.184 327.826 959.822 331.783 955.246 339.779C953.304 343.419 952.114 347.412 951.745 351.521C951.321 354.599 950.931 357.253 949.367 359.207C947.613 360.972 945.412 362.227 943 362.839C939.987 363.93 938.7 364.468 939.091 365.803C940.134 369.304 944.824 371.861 944.873 371.894C945.002 371.962 945.11 372.066 945.185 372.192C945.26 372.319 945.298 372.463 945.296 372.61C945.296 380.85 945.882 394.611 947.429 396.403C948.651 397.836 958.373 396.403 966.694 394.22C966.858 394.176 967.032 394.186 967.19 394.247C967.348 394.309 967.483 394.419 967.574 394.562C967.72 394.807 971.205 400.392 968.86 412.476C967.802 417.948 962.949 427.735 957.835 438.109C951.566 450.811 944.449 465.207 942.967 474.262C940.329 490.547 949.481 531.487 949.481 531.894C949.497 531.997 949.497 532.101 949.481 532.204L940.769 591.921Z" fill="#263238"/>
<path d="M966.906 395.067L975.374 393.178L970.098 403.715C969.482 400.686 968.405 397.77 966.906 395.067Z" fill="#263238"/>
<path d="M970.098 404.545H970.001C969.83 404.524 969.67 404.45 969.545 404.333C969.419 404.216 969.333 404.062 969.3 403.894C968.699 400.983 967.667 398.178 966.239 395.572C966.179 395.456 966.147 395.328 966.147 395.197C966.147 395.067 966.179 394.938 966.239 394.823C966.282 394.698 966.358 394.588 966.458 394.502C966.558 394.416 966.679 394.358 966.809 394.334L975.277 392.429C975.429 392.397 975.587 392.407 975.733 392.459C975.88 392.511 976.009 392.602 976.107 392.722C976.203 392.843 976.261 392.988 976.276 393.141C976.29 393.295 976.26 393.449 976.189 393.585L970.913 404.154C970.831 404.292 970.709 404.403 970.565 404.473C970.42 404.542 970.257 404.567 970.098 404.545ZM968.177 395.572C969.109 397.41 969.84 399.342 970.359 401.337L973.893 394.302L968.177 395.572Z" fill="#263238"/>
<path d="M1031.8 590.993L1014.04 520.967C1014.04 520.967 1015.58 471.526 1012.11 444.102C1011.38 438.041 1010.15 432.05 1008.45 426.188C1002.77 421.775 994.006 416.205 985.065 415.521C974.692 414.723 964.334 426.725 958.879 434.298C952.072 448.108 943.815 464.197 942.187 474.229C939.483 490.84 948.701 532.171 948.701 532.171L939.825 592.426C955.591 597.775 972.277 599.875 988.876 598.598C1015.58 596.334 1031.8 590.993 1031.8 590.993Z" fill="#92E3A9"/>
<path d="M979.641 599.868C966.018 599.832 952.49 597.594 939.58 593.24C939.406 593.169 939.261 593.043 939.167 592.881C939.072 592.719 939.034 592.53 939.059 592.344L947.934 532.236C947.234 529.093 938.733 490.383 941.42 474.131C942.935 464.832 950.1 450.322 956.419 437.522L958.178 433.972C963.65 426.351 974.316 413.909 985.162 414.739C994.233 415.44 1003.08 421.025 1008.99 425.585C1009.12 425.688 1009.22 425.831 1009.26 425.992C1010.98 431.896 1012.21 437.931 1012.94 444.036C1016.32 470.564 1014.96 518.231 1014.88 520.918L1032.63 590.732C1032.68 590.93 1032.65 591.139 1032.55 591.317C1032.45 591.495 1032.29 591.629 1032.1 591.693C1031.93 591.693 1015.47 597.165 989.038 599.461C985.781 599.738 982.687 599.868 979.641 599.868ZM940.769 591.921C956.255 597.03 972.595 599.045 988.859 597.849C1003.06 596.766 1017.12 594.262 1030.83 590.374L1013.25 521.211C1013.25 521.135 1013.25 521.059 1013.25 520.983C1013.25 520.495 1014.77 471.281 1011.33 444.232C1010.62 438.305 1009.43 432.446 1007.78 426.709C1002.1 422.312 993.598 416.938 984.983 416.351C974.935 415.586 964.724 427.588 959.513 434.802L957.885 438.239C951.615 450.941 944.498 465.337 943.016 474.391C940.378 490.677 949.53 531.617 949.53 532.024C949.547 532.127 949.547 532.231 949.53 532.334L940.769 591.921Z" fill="#263238"/>
<path d="M983.908 313.56C970.001 313.186 961.5 327.468 961.5 327.468C961.5 327.468 960.295 329.487 957.885 333.656C960.295 330.79 969.056 321.394 972.704 331.344C974.838 337.141 969.61 345.235 972.313 347.955C975.017 350.674 980.456 356.83 979.658 357.986C979.07 359.203 978.68 360.506 978.502 361.846C978.502 361.846 985.455 351.814 990.862 357.986C996.269 364.158 988.924 375.753 988.924 375.753L984.299 377.3C984.299 377.3 999.363 394.302 1002.07 394.302C1002.82 394.302 1004.77 388.504 1008.24 387.348C1012.65 383.529 1016.78 379.398 1020.6 374.988C1025.06 369.005 1027.78 361.907 1028.46 354.477C1029.15 347.046 1027.77 339.571 1024.47 332.875C1018.14 319.211 997.816 313.951 983.908 313.56Z" fill="#263238"/>
<path d="M1002.07 395.116C999.217 395.116 987.28 381.893 983.681 377.838C983.591 377.737 983.528 377.616 983.497 377.486C983.466 377.355 983.467 377.218 983.502 377.089C983.54 376.96 983.608 376.842 983.702 376.745C983.796 376.649 983.911 376.577 984.039 376.535L988.387 375.085C989.364 373.457 994.787 363.686 990.244 358.524C989.832 357.97 989.293 357.524 988.672 357.223C988.051 356.923 987.367 356.777 986.677 356.797C982.899 357.009 979.202 362.269 979.17 362.318C979.067 362.47 978.916 362.581 978.741 362.635C978.566 362.688 978.378 362.68 978.209 362.611C978.036 362.544 977.891 362.42 977.797 362.261C977.703 362.102 977.664 361.915 977.688 361.732C977.88 360.314 978.292 358.935 978.909 357.644C978.795 356.553 975.245 352.026 971.744 348.525C970.115 346.896 970.734 344.014 971.483 340.708C972.167 337.711 972.933 334.324 971.939 331.621C971.092 329.308 969.92 328.005 968.438 327.745C964.806 327.11 959.921 332.5 958.504 334.259C958.37 334.402 958.188 334.493 957.993 334.513C957.797 334.533 957.601 334.482 957.44 334.369C957.28 334.256 957.165 334.088 957.118 333.897C957.071 333.707 957.095 333.505 957.185 333.331C959.595 329.162 960.8 327.142 960.8 327.142C961.158 326.54 969.48 312.828 983.339 312.828H983.925C996.008 313.17 1018.3 317.713 1025.21 332.614C1034.23 352.156 1026.56 369.255 1021.23 375.59C1018.28 379.079 1015.06 382.345 1011.63 385.361C1010.7 386.208 1009.77 386.99 1008.81 387.967C1008.72 388.051 1008.62 388.113 1008.5 388.146C1006.5 388.814 1004.97 391.403 1003.96 393.146C1003.17 394.448 1002.78 395.116 1002.07 395.116ZM985.781 377.659C992.491 385.15 999.949 392.673 1001.92 393.406C1002.1 393.146 1002.38 392.657 1002.62 392.25C1003.73 390.361 1005.39 387.527 1007.88 386.599C1008.81 385.72 1009.7 384.971 1010.6 384.091C1013.96 381.101 1017.1 377.862 1019.98 374.402C1025.08 368.327 1032.41 351.912 1023.73 333.151C1017.21 318.967 995.601 314.635 983.892 314.31H983.355C970.408 314.31 962.282 327.68 962.184 327.826L961.663 328.722C963.829 327.093 966.37 325.66 968.715 326.067C970.799 326.442 972.395 328.103 973.454 330.953C974.61 334.112 973.779 337.76 973.063 340.968C972.444 343.688 971.858 346.245 972.884 347.271C974.366 348.753 981.71 356.276 980.326 358.344C980.29 358.381 980.262 358.426 980.245 358.475C981.898 356.649 984.129 355.447 986.563 355.071C987.5 355.039 988.43 355.229 989.279 355.625C990.128 356.022 990.872 356.613 991.449 357.351C997.181 363.865 989.902 375.607 989.592 376.095C989.485 376.252 989.331 376.372 989.152 376.437L985.781 377.659Z" fill="#263238"/>
<path d="M957.608 357.742C957.184 359.712 956.158 361.178 955.328 360.999C954.497 360.82 954.155 359.077 954.579 357.09C955.002 355.104 956.028 353.638 956.858 353.833C957.689 354.029 958.096 355.755 957.608 357.742Z" fill="#263238"/>
<path d="M961.5 350.3C961.347 350.304 961.195 350.263 961.065 350.182C960.935 350.101 960.831 349.983 960.767 349.844C960.083 348.378 959.269 347.564 958.341 347.417C956.794 347.173 955.165 348.866 955.084 348.883C955.008 348.959 954.918 349.02 954.819 349.061C954.72 349.102 954.613 349.124 954.506 349.124C954.398 349.124 954.292 349.102 954.193 349.061C954.093 349.02 954.003 348.959 953.928 348.883C953.777 348.728 953.693 348.52 953.693 348.305C953.693 348.089 953.777 347.881 953.928 347.726C954.517 347.087 955.236 346.581 956.036 346.241C956.836 345.902 957.7 345.736 958.569 345.756C959.412 345.958 960.19 346.369 960.831 346.953C961.472 347.537 961.954 348.274 962.233 349.094C962.296 349.219 962.325 349.358 962.317 349.497C962.31 349.636 962.266 349.77 962.19 349.887C962.114 350.004 962.009 350.099 961.885 350.163C961.761 350.227 961.623 350.257 961.484 350.251L961.5 350.3Z" fill="#263238"/>
<path d="M949.4 378.814C947.56 378.814 946.99 377.919 946.86 377.674C946.813 377.578 946.785 377.474 946.778 377.367C946.771 377.26 946.786 377.152 946.821 377.051C946.855 376.95 946.91 376.856 946.981 376.776C947.052 376.696 947.138 376.63 947.234 376.583C947.417 376.489 947.628 376.468 947.826 376.526C948.023 376.583 948.19 376.715 948.293 376.893C948.505 377.137 949.612 377.528 952.332 376.534C952.537 376.461 952.763 376.47 952.961 376.562C953.159 376.653 953.313 376.819 953.39 377.023C953.463 377.226 953.453 377.45 953.362 377.645C953.27 377.841 953.104 377.992 952.902 378.065C951.787 378.518 950.602 378.771 949.4 378.814Z" fill="#263238"/>
<path d="M973.095 436.415C973.095 436.415 967.298 444.558 964.952 459.589C962.607 474.62 964.562 523.703 964.562 523.703C964.562 523.703 931.731 514.437 920.901 509.046C916.011 506.721 911.244 504.145 906.619 501.327C906.619 501.327 903.134 493.185 900.431 490.123C897.728 487.062 890.399 486.264 887.696 484.326C884.993 482.388 883.055 476.183 879.554 478.528C878.969 478.831 878.474 479.281 878.116 479.833C877.758 480.386 877.55 481.022 877.513 481.679C877.475 482.336 877.609 482.991 877.901 483.581C878.193 484.171 878.633 484.674 879.179 485.042C880.726 486.215 886.507 491.996 886.507 491.996L871.851 485.482C871.851 485.482 870.695 491.279 872.616 493.217C874.538 495.155 878.414 498.624 878.414 498.624C878.414 498.624 884.211 506.767 887.696 508.656C891.175 510.273 894.795 511.571 898.509 512.531C901.962 513.688 905.447 516.635 908.541 518.508L928.23 530.478C938.427 536.607 949.22 541.687 960.442 545.639C967.477 548.114 984.69 555.671 990.797 548.098C993.435 544.841 992.621 535.07 993.305 530.999C997.62 505.089 1003.19 479.017 1003.19 452.651" fill="#92E3A9"/>
<path d="M982.312 552.202C975.896 552.202 968.16 549.336 962.77 547.316L960.23 546.388C948.957 542.418 938.116 537.317 927.871 531.162L914.843 523.263L908.15 519.192C907.173 518.589 906.163 517.905 905.121 517.189C903.024 515.59 900.724 514.276 898.281 513.281L897.125 512.939C893.758 512.068 890.485 510.868 887.354 509.356C883.901 507.434 878.495 500.024 877.876 499.145C877.339 498.673 873.919 495.579 872.111 493.771C869.929 491.589 870.987 485.938 871.118 485.303C871.144 485.185 871.196 485.075 871.27 484.979C871.343 484.883 871.437 484.805 871.544 484.749C871.651 484.693 871.768 484.662 871.889 484.656C872.009 484.65 872.13 484.671 872.241 484.716L882.81 489.439C881.182 487.908 879.553 486.28 878.772 485.726C878.134 485.268 877.612 484.667 877.248 483.972C876.883 483.276 876.685 482.505 876.671 481.72C876.734 480.92 876.992 480.149 877.424 479.473C877.856 478.797 878.447 478.237 879.146 477.844C882.11 475.857 884.178 478.675 885.823 480.955C886.479 481.957 887.274 482.862 888.184 483.642C889.688 484.491 891.298 485.137 892.972 485.563C895.952 486.508 899.323 487.566 901.115 489.569C903.639 492.452 906.733 499.34 907.336 500.757C908.199 501.311 912.091 503.672 921.341 508.297C930.868 513.069 958.015 520.967 963.682 522.612C963.405 515.039 962.054 473.349 964.122 459.458C966.451 444.378 972.134 436.268 972.378 435.943C972.44 435.855 972.519 435.78 972.609 435.722C972.7 435.665 972.802 435.626 972.908 435.607C973.014 435.589 973.122 435.592 973.227 435.616C973.332 435.64 973.431 435.685 973.518 435.747C973.693 435.875 973.811 436.065 973.847 436.278C973.884 436.49 973.836 436.709 973.714 436.887C973.714 436.887 967.998 445.03 965.734 459.686C963.47 474.343 965.343 523.198 965.359 523.67C965.365 523.8 965.339 523.928 965.285 524.045C965.23 524.163 965.149 524.265 965.047 524.345C964.945 524.424 964.826 524.479 964.699 524.503C964.572 524.527 964.441 524.521 964.317 524.485C962.982 524.094 931.291 515.121 920.527 509.828C915.602 507.484 910.802 504.885 906.147 502.044C906.016 501.956 905.914 501.831 905.854 501.686C905.854 501.604 902.401 493.657 899.812 490.709C898.363 489.081 895.22 488.055 892.451 487.176C890.608 486.711 888.837 485.993 887.191 485.042C886.148 484.157 885.237 483.126 884.488 481.981C882.582 479.375 881.508 478.251 880.009 479.261C879.528 479.511 879.116 479.877 878.811 480.326C878.507 480.776 878.32 481.294 878.267 481.834C878.286 482.353 878.421 482.862 878.664 483.321C878.906 483.781 879.249 484.18 879.667 484.488C881.296 485.677 886.849 491.279 887.093 491.524C887.227 491.66 887.309 491.838 887.327 492.027C887.345 492.217 887.297 492.407 887.191 492.566C887.082 492.723 886.921 492.837 886.737 492.888C886.552 492.939 886.355 492.923 886.181 492.843L872.469 486.703C872.193 488.82 872.176 491.67 873.186 492.68C875.075 494.569 878.902 498.021 878.951 498.054L879.065 498.201C879.065 498.201 884.797 506.18 888.07 507.972C891.106 509.42 894.275 510.571 897.532 511.408L898.753 511.766C901.34 512.807 903.777 514.187 906 515.87C907.01 516.57 908.003 517.254 908.948 517.824L915.641 521.895L928.669 529.794C938.815 535.895 949.553 540.953 960.718 544.89L963.291 545.818C970.896 548.652 985.081 553.961 990.178 547.593C991.806 545.558 992.002 540.363 992.148 536.194C992.175 534.424 992.3 532.657 992.523 530.901C993.288 526.276 994.151 521.635 994.917 516.993C998.597 496.002 1002.39 474.278 1002.39 452.684C1002.39 452.468 1002.48 452.261 1002.63 452.108C1002.78 451.955 1002.99 451.869 1003.21 451.869C1003.42 451.869 1003.63 451.955 1003.78 452.108C1003.93 452.261 1004.02 452.468 1004.02 452.684C1004.02 474.408 1000.21 496.214 996.513 517.287C995.715 521.912 994.884 526.537 994.119 531.162C993.923 532.415 993.858 534.272 993.777 536.242C993.614 540.9 993.419 546.176 991.448 548.635C989.478 551.094 986.041 552.202 982.312 552.202Z" fill="#263238"/>
<path d="M952.885 520.267C942.348 517.01 927.545 512.336 920.934 509.03C916.043 506.705 911.276 504.128 906.652 501.311C906.652 501.311 903.167 493.168 900.463 490.107C897.76 487.045 890.432 486.247 887.728 484.309C885.025 482.371 883.087 476.167 879.586 478.512C879.002 478.815 878.506 479.265 878.148 479.817C877.791 480.369 877.583 481.005 877.545 481.662C877.507 482.319 877.641 482.975 877.933 483.564C878.225 484.154 878.666 484.658 879.211 485.026C880.758 486.198 886.54 491.979 886.54 491.979L871.883 485.465C871.883 485.465 870.727 491.263 872.648 493.201C874.57 495.139 878.446 498.608 878.446 498.608C878.446 498.608 884.243 506.75 887.728 508.639C891.208 510.257 894.827 511.554 898.542 512.515C901.994 513.671 905.479 516.619 908.573 518.492L928.262 530.461C934.603 534.277 941.179 537.687 947.951 540.672L952.885 520.267Z" fill="white"/>
<path d="M947.95 541.486C947.843 541.51 947.732 541.51 947.624 541.486C940.816 538.5 934.206 535.079 927.838 531.243L914.81 523.344L908.117 519.273C907.14 518.671 906.13 517.987 905.088 517.27C902.99 515.671 900.691 514.357 898.248 513.362L897.092 513.02C893.725 512.149 890.452 510.949 887.321 509.437C883.868 507.515 878.462 500.106 877.843 499.226C877.305 498.754 873.886 495.66 872.078 493.852C869.896 491.67 870.954 486.019 871.085 485.384C871.111 485.266 871.163 485.156 871.237 485.06C871.31 484.965 871.404 484.886 871.51 484.83C871.617 484.775 871.735 484.743 871.856 484.737C871.976 484.732 872.097 484.752 872.208 484.798L882.777 489.52C881.149 487.99 879.52 486.361 878.738 485.807C878.096 485.337 877.574 484.722 877.214 484.012C876.855 483.301 876.668 482.516 876.67 481.72C876.733 480.92 876.992 480.148 877.423 479.472C877.855 478.796 878.447 478.237 879.146 477.844C882.11 475.857 884.178 478.691 885.823 480.954C886.479 481.957 887.274 482.862 888.184 483.641C889.688 484.491 891.298 485.137 892.972 485.563C895.952 486.508 899.323 487.566 901.114 489.569C903.638 492.452 906.733 499.34 907.335 500.757C908.198 501.311 912.09 503.672 921.34 508.297C927.854 511.554 942.218 516.163 953.145 519.485C953.346 519.546 953.516 519.68 953.622 519.861C953.728 520.043 953.761 520.257 953.715 520.462L948.829 540.851C948.8 540.967 948.746 541.076 948.67 541.169C948.594 541.262 948.498 541.337 948.39 541.388C948.257 541.465 948.103 541.499 947.95 541.486ZM872.518 486.638C872.241 488.755 872.225 491.605 873.234 492.615C875.123 494.504 878.95 497.956 878.999 497.989L879.113 498.135C879.113 498.135 884.845 506.115 888.119 507.906C891.154 509.355 894.323 510.506 897.58 511.342L898.802 511.701C901.389 512.741 903.826 514.121 906.049 515.804C907.058 516.505 908.052 517.189 908.996 517.759L915.689 521.83L928.717 529.728C934.743 533.365 940.987 536.628 947.413 539.499L951.94 520.788C941.045 517.531 927.04 512.938 920.607 509.73C915.683 507.386 910.883 504.787 906.228 501.946C906.097 501.858 905.995 501.733 905.935 501.588C905.935 501.506 902.482 493.559 899.893 490.611C898.443 488.983 895.3 487.957 892.532 487.078C890.688 486.613 888.918 485.895 887.272 484.944C886.228 484.059 885.318 483.028 884.569 481.883C882.663 479.277 881.588 478.153 880.09 479.163C879.608 479.413 879.197 479.779 878.892 480.228C878.588 480.678 878.401 481.196 878.348 481.736C878.366 482.255 878.502 482.764 878.744 483.223C878.987 483.683 879.33 484.082 879.748 484.391C881.377 485.579 886.93 491.181 887.174 491.426C887.308 491.562 887.39 491.74 887.408 491.93C887.426 492.119 887.378 492.309 887.272 492.468C887.163 492.625 887.002 492.74 886.817 492.79C886.633 492.841 886.436 492.825 886.262 492.745L872.518 486.638Z" fill="#263238"/>
<path d="M975.798 535.721C975.581 535.72 975.372 535.639 975.211 535.493L966.238 526.553L968.421 533.914C968.477 534.121 968.45 534.342 968.347 534.53C968.244 534.718 968.072 534.859 967.867 534.923C967.764 534.956 967.656 534.967 967.549 534.956C967.442 534.946 967.338 534.913 967.244 534.862C967.15 534.81 967.067 534.74 967 534.655C966.934 534.571 966.885 534.473 966.857 534.37L963.763 523.947C963.716 523.772 963.725 523.587 963.789 523.417C963.854 523.247 963.97 523.102 964.121 523.003C964.278 522.913 964.461 522.878 964.64 522.901C964.819 522.925 964.986 523.006 965.115 523.133L976.319 534.337C976.395 534.413 976.456 534.503 976.497 534.602C976.538 534.701 976.56 534.808 976.56 534.915C976.56 535.023 976.538 535.129 976.497 535.228C976.456 535.328 976.395 535.418 976.319 535.493C976.177 535.627 975.992 535.708 975.798 535.721Z" fill="#263238"/>
</svg>
