<svg width="1211" height="886" viewBox="0 0 1211 886" fill="none" xmlns="http://www.w3.org/2000/svg">
<path d="M804.149 602.05V771.892H141.053V602.05H16.3834V849.959C16.3755 854.537 17.271 859.071 19.0183 863.303C20.7656 867.534 23.3306 871.379 26.5662 874.617C29.8019 877.856 33.6446 880.424 37.8744 882.175C42.1042 883.926 46.6379 884.825 51.2157 884.821H106.22C115.453 884.821 124.309 881.156 130.84 874.63C137.372 868.104 141.045 859.252 141.053 850.019V838.577H201.451L229.728 820.699H712.911L748.906 841.258H804.149V850.197C804.157 859.43 807.83 868.283 814.362 874.808C820.893 881.334 829.749 885 838.982 885H893.986C898.559 885.004 903.088 884.107 907.314 882.359C911.54 880.612 915.38 878.049 918.615 874.817C921.85 871.585 924.416 867.747 926.167 863.523C927.917 859.298 928.819 854.77 928.819 850.197V602.05H804.149Z" fill="#263238" stroke="#263238" stroke-width="0.709907" stroke-miterlimit="10" stroke-linecap="round"/>
<path d="M903.104 480.033C897.979 469.723 856.859 427.322 856.859 427.322C856.859 427.322 778.643 278.16 765.622 253.846C740.89 207.721 700.069 215.289 700.069 215.289L471.32 203.728L470.038 204.085L468.757 203.728L240.008 215.289C240.008 215.289 198.114 210.998 174.455 253.846C161.106 277.981 83.2174 427.322 83.2174 427.322C83.2174 427.322 42.0979 469.723 36.943 480.033C31.7882 490.342 11.2881 528.84 11.2881 536.498C11.2881 543.381 16.3834 660.243 39.2672 747.488C41.8554 757.111 46.7527 765.956 53.5341 773.257C60.3155 780.557 68.7762 786.093 78.1818 789.382C82.7261 791.211 87.4358 792.598 92.2458 793.524H259.316L301.717 720.284C317.964 706.819 338.451 699.536 359.552 699.724H580.584C601.685 699.536 622.172 706.819 638.42 720.284L680.82 793.524H847.891C852.692 792.6 857.392 791.213 861.925 789.382C871.337 786.099 879.805 780.566 886.592 773.265C893.38 765.964 898.28 757.115 900.869 747.488C923.753 660.243 928.848 543.381 928.848 536.498C928.818 528.84 908.169 490.313 903.104 480.033Z" fill="#92E3A9" stroke="#263238" stroke-width="0.709907" stroke-miterlimit="10" stroke-linecap="round"/>
<path d="M259.287 793.584L250.348 814.143H687.227L680.791 793.584L638.39 720.343C638.39 720.343 621.674 701.065 580.555 699.784C539.435 698.502 359.523 699.784 359.523 699.784C338.363 699.238 317.754 706.564 301.687 720.343L259.287 793.584Z" fill="#787878" stroke="#263238" stroke-width="0.709907" stroke-miterlimit="10" stroke-linecap="round"/>
<path d="M296.532 549.429C296.532 549.429 331.245 611.109 341.525 621.388C351.805 631.668 363.366 631.668 377.519 632.95C391.673 634.231 585.679 632.95 585.679 632.95C585.679 632.95 601.114 630.387 608.831 618.826C616.548 607.265 642.233 549.429 642.233 549.429H296.532Z" fill="#263238" stroke="#263238" stroke-width="0.709907" stroke-miterlimit="10" stroke-linecap="round"/>
<path d="M330.977 557.802C330.977 557.802 358.748 607.176 367.001 615.429C375.255 623.683 384.492 623.653 395.815 624.696C407.137 625.739 562.527 624.696 562.527 624.696C562.527 624.696 574.893 622.64 581.061 613.373C587.229 604.106 607.878 557.802 607.878 557.802H330.977Z" fill="#787878" stroke="#263238" stroke-width="0.709907" stroke-miterlimit="10" stroke-linecap="round"/>
<path d="M614.373 771.892L606.686 750.647C604.303 744.101 599.935 738.463 594.192 734.521C588.45 730.578 581.619 728.528 574.654 728.657L365.928 730.772C358.757 730.919 351.825 733.371 346.157 737.767C340.49 742.162 336.389 748.267 334.463 755.176L329.278 771.892H614.373Z" fill="#263238" stroke="#263238" stroke-width="0.709907" stroke-miterlimit="10" stroke-linecap="round"/>
<path d="M326.061 782.023L319.685 802.582H625.518L618.099 782.023H326.061Z" fill="#263238" stroke="#263238" stroke-width="0.709907" stroke-miterlimit="10" stroke-linecap="round"/>
<path d="M856.859 427.322C856.859 427.322 863.266 377.204 874.737 377.204C886.209 377.204 937.698 391.358 938.979 401.638C940.26 411.918 928.699 423.479 918.419 426.041C908.139 428.604 886.298 431.196 886.298 431.196L881.352 450.475L856.859 427.322Z" fill="#92E3A9" stroke="#263238" stroke-width="0.709907" stroke-miterlimit="10" stroke-linecap="round"/>
<path d="M83.2175 427.322C83.2175 427.322 76.7814 377.204 65.3395 377.204C53.8976 377.204 2.37896 391.358 1.0977 401.638C-0.183558 411.918 11.3776 423.479 21.6575 426.041C31.9374 428.604 53.7784 431.196 53.7784 431.196L58.9034 450.475L83.2175 427.322Z" fill="#92E3A9" stroke="#263238" stroke-width="0.709907" stroke-miterlimit="10" stroke-linecap="round"/>
<path d="M117.901 397.764C117.901 397.764 619.112 378.486 818.303 397.764L730.909 238.531C730.909 238.531 504.722 210.253 210.449 239.812C210.449 239.693 150.052 334.804 117.901 397.764Z" fill="white" stroke="#263238" stroke-width="0.709907" stroke-miterlimit="10" stroke-linecap="round"/>
<path d="M232.291 542.993C232.291 542.993 255.413 567.397 263.13 612.39C263.13 612.39 153.895 607.235 111.495 590.549C69.0939 573.863 63.8198 572.671 62.6577 564.834C61.4957 556.998 65.2203 501.874 81.9362 492.875C98.6522 483.877 116.62 486.439 133.336 499.282C150.052 512.124 170.611 531.432 182.172 535.276C193.734 539.12 232.291 542.993 232.291 542.993Z" fill="white" stroke="#263238" stroke-width="0.709907" stroke-miterlimit="10" stroke-linecap="round"/>
<path d="M148.615 568.024C160.379 556.26 160.379 537.186 148.615 525.422C136.85 513.657 117.777 513.657 106.012 525.422C94.2479 537.186 94.2478 556.26 106.012 568.024C117.776 579.789 136.85 579.789 148.615 568.024Z" fill="white" stroke="#263238" stroke-width="0.709907" stroke-miterlimit="10" stroke-linecap="round"/>
<path d="M211.224 584.381C211.224 587.152 210.402 589.861 208.862 592.165C207.321 594.468 205.132 596.263 202.572 597.322C200.011 598.381 197.194 598.657 194.476 598.114C191.759 597.571 189.263 596.235 187.306 594.273C185.349 592.312 184.017 589.813 183.48 587.095C182.943 584.376 183.225 581.559 184.289 579.001C185.354 576.443 187.154 574.257 189.461 572.722C191.768 571.187 194.478 570.371 197.249 570.376C199.087 570.376 200.906 570.739 202.604 571.443C204.301 572.147 205.843 573.179 207.141 574.48C208.439 575.781 209.468 577.325 210.169 579.024C210.869 580.723 211.228 582.543 211.224 584.381V584.381Z" fill="white" stroke="#263238" stroke-width="0.709907" stroke-miterlimit="10" stroke-linecap="round"/>
<path d="M711.512 542.993C711.512 542.993 688.36 567.397 680.643 612.39C680.643 612.39 789.877 607.235 832.308 590.549C874.738 573.863 879.983 572.671 881.145 564.834C882.307 556.998 878.552 501.874 861.866 492.875C845.18 483.877 827.153 486.439 810.437 499.282C793.721 512.124 773.191 531.432 761.63 535.276C750.069 539.12 711.512 542.993 711.512 542.993Z" fill="white" stroke="#263238" stroke-width="0.709907" stroke-miterlimit="10" stroke-linecap="round"/>
<path d="M830.232 576.083C846.42 572.244 856.431 556.009 852.593 539.821C848.754 523.632 832.519 513.621 816.33 517.46C800.142 521.298 790.13 537.533 793.969 553.722C797.808 569.91 814.043 579.922 830.232 576.083Z" fill="white" stroke="#263238" stroke-width="0.709907" stroke-miterlimit="10" stroke-linecap="round"/>
<path d="M739.4 584.381C739.4 587.152 740.223 589.861 741.763 592.165C743.303 594.468 745.492 596.263 748.053 597.322C750.613 598.381 753.431 598.657 756.148 598.114C758.865 597.571 761.361 596.235 763.318 594.273C765.276 592.312 766.607 589.813 767.144 587.095C767.681 584.376 767.399 581.559 766.335 579.001C765.27 576.443 763.471 574.257 761.164 572.722C758.857 571.187 756.146 570.371 753.375 570.376C751.537 570.376 749.718 570.739 748.02 571.443C746.323 572.147 744.781 573.179 743.483 574.48C742.185 575.781 741.156 577.325 740.456 579.024C739.755 580.723 739.397 582.543 739.4 584.381Z" fill="white" stroke="#263238" stroke-width="0.709907" stroke-miterlimit="10" stroke-linecap="round"/>
<path d="M849.142 657.353C849.142 657.353 729.627 680.505 724.472 684.349C719.317 688.193 709.067 710.064 709.067 710.064L733.471 703.628C733.471 703.628 790.085 706.19 809.304 697.191C828.522 688.193 849.142 657.353 849.142 657.353Z" fill="#263238" stroke="#263238" stroke-width="0.709907" stroke-miterlimit="10" stroke-linecap="round"/>
<path d="M99.9336 657.353C99.9336 657.353 219.448 680.505 224.573 684.349C229.698 688.193 240.008 710.064 240.008 710.064L215.575 703.627C215.575 703.627 158.961 706.19 139.772 697.191C120.583 688.193 99.9336 657.353 99.9336 657.353Z" fill="#263238" stroke="#263238" stroke-width="0.709907" stroke-miterlimit="10" stroke-linecap="round"/>
<path d="M699.354 562.778L667.441 552.141H642.233" stroke="#263238" stroke-width="0.709907" stroke-miterlimit="10" stroke-linecap="round"/>
<path d="M246.444 561.259L267.719 549.102L296.532 549.399" stroke="#263238" stroke-width="0.709907" stroke-miterlimit="10" stroke-linecap="round"/>
<path d="M789.817 419.039C793.065 417.192 796.343 415.434 799.65 413.825" stroke="#263238" stroke-width="0.709907" stroke-miterlimit="10" stroke-linecap="round"/>
<path d="M648.342 601.484C668.455 557.266 714.431 469.366 778.673 425.982" stroke="#263238" stroke-width="0.709907" stroke-miterlimit="10" stroke-linecap="round"/>
<path d="M637.019 628.123C637.019 628.123 638.598 623.921 641.667 616.621" stroke="#263238" stroke-width="0.709907" stroke-miterlimit="10" stroke-linecap="round"/>
<path d="M161.195 425.982C155.852 422.724 150.33 419.685 144.628 416.864" stroke="#263238" stroke-width="0.709907" stroke-miterlimit="10" stroke-linecap="round"/>
<path d="M289.917 602.438C276.747 563.106 242.451 481.731 172.518 433.312" stroke="#263238" stroke-width="0.709907" stroke-miterlimit="10" stroke-linecap="round"/>
<path d="M296.591 625.083C296.591 625.083 295.668 621.001 293.612 613.91" stroke="#263238" stroke-width="0.709907" stroke-miterlimit="10" stroke-linecap="round"/>
<path d="M108.158 488.287C108.158 488.287 94.481 454.855 94.481 435.099Z" fill="white"/>
<path d="M108.158 488.287C108.158 488.287 94.481 454.855 94.481 435.099" stroke="#263238" stroke-width="0.709907" stroke-miterlimit="10" stroke-linecap="round"/>
<path d="M839.16 486.767C842.85 472.785 845.391 458.524 846.758 444.128Z" fill="white"/>
<path d="M839.16 486.767C842.85 472.785 845.391 458.524 846.758 444.128" stroke="#263238" stroke-width="0.709907" stroke-miterlimit="10" stroke-linecap="round"/>
<path d="M886.298 629.642L877.18 748.054L708.531 755.772C708.531 755.772 679.658 720.82 678.138 705.624C676.618 690.428 697.893 667.633 703.972 666.113C710.05 664.594 816.425 643.319 816.425 643.319" stroke="#263238" stroke-width="0.709907" stroke-miterlimit="10" stroke-linecap="round"/>
<path d="M60.9595 629.642L70.0773 748.054L238.786 755.653C238.786 755.653 267.659 720.701 269.179 705.505C270.698 690.308 249.424 667.514 243.345 665.994C237.267 664.475 130.863 643.2 130.863 643.2" stroke="#263238" stroke-width="0.709907" stroke-miterlimit="10" stroke-linecap="round"/>
<path d="M342.985 578.213L466.999 588.135C472.265 588.552 477.555 588.552 482.821 588.135L597.121 579.196" stroke="#263238" stroke-width="0.709907" stroke-miterlimit="10" stroke-linecap="round"/>
<path d="M351.149 591.026L466.999 600.292C472.264 600.724 477.556 600.724 482.821 600.292L593.069 591.741" stroke="#263238" stroke-width="0.709907" stroke-miterlimit="10" stroke-linecap="round"/>
<path d="M359.462 604.017L466.999 612.628C472.265 613.03 477.554 613.03 482.821 612.628L587.556 604.494" stroke="#263238" stroke-width="0.709907" stroke-miterlimit="10" stroke-linecap="round"/>
<path d="M430.528 319.399C373.05 353.188 215.991 383.283 134.795 397.168C223.768 394.01 640.863 380.601 818.302 397.764L740.056 255.068C626.292 247.47 489.496 284.715 430.528 319.399Z" fill="#787878"/>
<path d="M117.901 397.764C117.901 397.764 619.112 378.486 818.303 397.764L730.909 238.531C730.909 238.531 504.722 210.253 210.449 239.812C210.449 239.693 150.052 334.804 117.901 397.764Z" stroke="#263238" stroke-width="0.709907" stroke-miterlimit="10" stroke-linecap="round"/>
<path d="M274.274 417.549C274.274 417.549 277.254 426.339 300.674 448.359C324.094 470.379 343.224 439.569 368.194 426.339C393.163 413.109 363.784 401.399 453.293 465.969C542.802 530.538 582.402 543.738 617.622 505.569C652.842 467.399 702.721 410.219 726.201 423.419C749.681 436.619 764.371 461.559 784.901 461.559C805.431 461.559 831.86 420.469 831.86 420.469" stroke="white" stroke-width="0.709907" stroke-miterlimit="10" stroke-linecap="round"/>
<path d="M274.274 424.879C274.274 424.879 277.254 433.818 300.674 455.689C324.094 477.56 343.224 446.899 368.194 433.699C393.163 420.499 363.784 408.729 453.293 473.299C542.802 537.868 582.402 551.068 617.622 512.928C652.842 474.789 702.721 417.579 726.201 430.749C749.681 443.919 764.371 468.889 784.901 468.889C805.431 468.889 831.86 427.829 831.86 427.829" stroke="#263238" stroke-width="0.709907" stroke-miterlimit="10" stroke-linecap="round"/>
<path d="M79.0462 457.864C79.0462 457.864 32.5931 502.112 33.6956 537.511C34.7981 572.909 66.8891 578.451 72.4313 603.898C77.9735 629.344 133.276 645.941 187.477 631.549C241.677 617.157 264.948 631.549 281.515 661.346C298.082 691.143 325.733 693.497 347.991 682.502" stroke="#263238" stroke-width="0.709907" stroke-miterlimit="10" stroke-linecap="round"/>
<path d="M84.5882 452.322C84.5882 452.322 38.1054 496.6 39.2376 531.998C40.3699 567.397 72.4014 572.909 77.9734 598.356C83.5454 623.802 138.788 640.399 193.048 625.888C247.308 611.377 270.52 625.888 287.087 655.685C303.654 685.481 331.335 687.746 353.444 676.691" stroke="white" stroke-width="0.709907" stroke-miterlimit="10" stroke-linecap="round"/>
<path d="M894.344 512.064C894.344 512.064 884.392 589.536 854.536 603.898C824.679 618.26 701.857 629.344 673.103 649.248C644.35 669.153 643.307 712.298 643.307 712.298" stroke="white" stroke-width="0.709907" stroke-miterlimit="10" stroke-linecap="round"/>
<path d="M894.344 518.62C894.344 518.62 884.332 596.091 854.536 610.543C824.739 624.994 701.857 635.959 673.103 655.893C644.35 675.827 643.307 718.943 643.307 718.943" stroke="#263238" stroke-width="0.709907" stroke-miterlimit="10" stroke-linecap="round"/>
<path d="M496.141 230.903C496.141 230.903 513.721 227.923 524.06 255.693C534.4 283.464 552.993 350.805 584.011 351.818C615.03 352.831 620.184 291.867 637.645 267.076C655.106 242.285 688.3 247.44 707.906 264.096" stroke="white" stroke-width="0.709907" stroke-miterlimit="10" stroke-linecap="round"/>
<path d="M495.098 237.1C495.098 237.1 512.678 234.121 523.017 261.891C533.357 289.662 551.95 357.002 582.968 358.015C613.987 359.028 619.141 298.124 636.722 273.273C654.302 248.423 687.376 253.637 707.012 270.294" stroke="#263238" stroke-width="0.709907" stroke-miterlimit="10" stroke-linecap="round"/>
<path d="M114.713 449.759C114.713 449.759 128.241 459.235 145.85 480.897C163.46 502.559 170.194 491.713 178.329 475.474C186.463 459.235 205.384 494.425 221.624 518.798C237.863 543.172 241.945 547.224 244.656 533.697" stroke="white" stroke-width="0.709907" stroke-miterlimit="10" stroke-linecap="round"/>
<path d="M114.176 455.093C114.176 455.093 127.704 464.568 145.314 486.201C162.924 507.833 169.658 497.047 177.792 480.807C185.927 464.568 204.848 499.758 221.117 524.102C237.386 548.446 241.408 552.528 244.12 539" stroke="#263238" stroke-width="0.709907" stroke-miterlimit="10" stroke-linecap="round"/>
<path d="M962.945 244.918H765.53C760.298 244.918 756.058 249.159 756.058 254.39V425.643C756.058 430.875 760.298 435.115 765.53 435.115H962.945C968.176 435.115 972.416 430.875 972.416 425.643V254.39C972.416 249.159 968.176 244.918 962.945 244.918Z" fill="#263238"/>
<path d="M962.944 436.243H765.529C762.732 436.237 760.05 435.123 758.072 433.145C756.093 431.166 754.979 428.485 754.974 425.687V254.455C754.974 251.656 756.086 248.971 758.065 246.991C760.045 245.012 762.73 243.9 765.529 243.9H962.944C965.742 243.905 968.424 245.019 970.402 246.998C972.38 248.976 973.494 251.657 973.5 254.455V425.687C973.494 428.485 972.38 431.166 970.402 433.145C968.424 435.123 965.742 436.237 962.944 436.243ZM765.529 246.045C763.305 246.045 761.171 246.929 759.598 248.502C758.025 250.075 757.141 252.209 757.141 254.434V425.665C757.147 427.888 758.032 430.018 759.604 431.59C761.176 433.162 763.306 434.048 765.529 434.053H962.944C965.167 434.048 967.297 433.162 968.869 431.59C970.441 430.018 971.327 427.888 971.333 425.665V254.434C971.333 252.209 970.449 250.075 968.876 248.502C967.303 246.929 965.169 246.045 962.944 246.045H765.529Z" fill="#263238"/>
<path d="M956.072 234.601H758.657C753.426 234.601 749.186 238.842 749.186 244.073V415.326C749.186 420.557 753.426 424.798 758.657 424.798H956.072C961.304 424.798 965.544 420.557 965.544 415.326V244.073C965.544 238.842 961.304 234.601 956.072 234.601Z" fill="white"/>
<path d="M956.073 425.904H758.658C755.86 425.898 753.179 424.784 751.201 422.806C749.222 420.827 748.108 418.146 748.103 415.348V244.116C748.103 241.315 749.214 238.628 751.193 236.645C753.172 234.662 755.857 233.545 758.658 233.539H956.073C958.875 233.545 961.56 234.662 963.538 236.645C965.517 238.628 966.629 241.315 966.629 244.116V415.348C966.623 418.146 965.509 420.827 963.531 422.806C961.553 424.784 958.871 425.898 956.073 425.904ZM758.658 235.685C756.432 235.691 754.298 236.579 752.726 238.156C751.153 239.732 750.27 241.868 750.27 244.095V415.326C750.276 417.549 751.161 419.679 752.733 421.251C754.305 422.823 756.435 423.709 758.658 423.715H956.073C958.296 423.709 960.426 422.823 961.998 421.251C963.57 419.679 964.456 417.549 964.461 415.326V244.095C964.461 241.868 963.578 239.732 962.006 238.156C960.433 236.579 958.3 235.691 956.073 235.685H758.658Z" fill="#263238"/>
<path d="M796.698 310.767H776.735V403.037H796.698V310.767Z" fill="#263238"/>
<path d="M796.676 404.142H776.735C776.448 404.142 776.172 404.028 775.969 403.825C775.766 403.621 775.651 403.346 775.651 403.058V310.767C775.651 310.479 775.766 310.204 775.969 310C776.172 309.797 776.448 309.683 776.735 309.683H796.676C796.963 309.683 797.239 309.797 797.442 310C797.646 310.204 797.76 310.479 797.76 310.767V403.058C797.76 403.346 797.646 403.621 797.442 403.825C797.239 404.028 796.963 404.142 796.676 404.142ZM777.819 401.975H795.592V311.85H777.819V401.975Z" fill="#263238"/>
<path d="M824.962 325.722H804.999V403.037H824.962V325.722Z" fill="#92E3A9"/>
<path d="M824.94 404.142H805.107C804.82 404.142 804.544 404.028 804.341 403.825C804.138 403.621 804.023 403.346 804.023 403.058V325.701C804.023 325.413 804.138 325.138 804.341 324.934C804.544 324.731 804.82 324.617 805.107 324.617H825.048C825.336 324.617 825.611 324.731 825.814 324.934C826.018 325.138 826.132 325.413 826.132 325.701V403.015C826.139 403.17 826.112 403.326 826.054 403.47C825.996 403.614 825.907 403.744 825.794 403.851C825.681 403.958 825.546 404.04 825.398 404.09C825.251 404.14 825.095 404.158 824.94 404.142ZM806.083 401.975H823.856V326.828H806.083V401.975Z" fill="#263238"/>
<path d="M853.225 338.207H833.263V403.058H853.225V338.207Z" fill="white"/>
<path d="M853.204 404.142H833.285C832.997 404.142 832.722 404.028 832.519 403.825C832.315 403.621 832.201 403.346 832.201 403.058V338.207C832.201 337.92 832.315 337.644 832.519 337.441C832.722 337.237 832.997 337.123 833.285 337.123H853.226C853.513 337.123 853.789 337.237 853.992 337.441C854.195 337.644 854.31 337.92 854.31 338.207V403.058C854.31 403.202 854.281 403.345 854.225 403.478C854.169 403.611 854.087 403.731 853.985 403.832C853.882 403.933 853.76 404.013 853.626 404.066C853.492 404.119 853.348 404.145 853.204 404.142ZM834.347 401.975H852.12V339.291H834.347V401.975Z" fill="#263238"/>
<path d="M881.49 299.951H861.527V403.037H881.49V299.951Z" fill="#263238"/>
<path d="M881.468 404.142H861.462C861.174 404.142 860.899 404.028 860.695 403.825C860.492 403.621 860.378 403.346 860.378 403.058V299.951C860.378 299.663 860.492 299.388 860.695 299.185C860.899 298.981 861.174 298.867 861.462 298.867H881.403C881.69 298.867 881.966 298.981 882.169 299.185C882.372 299.388 882.486 299.663 882.486 299.951V403.058C882.487 403.335 882.382 403.601 882.192 403.803C882.003 404.004 881.744 404.125 881.468 404.142V404.142ZM862.61 401.975H880.384V301.035H862.61V401.975Z" fill="#263238"/>
<path d="M909.754 312.436H889.791V403.058H909.754V312.436Z" fill="#92E3A9"/>
<path d="M909.733 404.142H889.792C889.504 404.142 889.229 404.028 889.025 403.825C888.822 403.621 888.708 403.346 888.708 403.058V312.436C888.708 312.148 888.822 311.872 889.025 311.669C889.229 311.466 889.504 311.352 889.792 311.352H909.733C910.02 311.352 910.296 311.466 910.499 311.669C910.702 311.872 910.816 312.148 910.816 312.436V403.058C910.816 403.346 910.702 403.621 910.499 403.825C910.296 404.028 910.02 404.142 909.733 404.142ZM890.875 401.975H908.649V313.519H890.875V401.975Z" fill="#263238"/>
<path d="M938.018 269.194H918.056V403.037H938.018V269.194Z" fill="white"/>
<path d="M938.018 404.142H918.055C917.768 404.142 917.492 404.028 917.289 403.825C917.086 403.621 916.972 403.346 916.972 403.058V269.194C916.972 268.907 917.086 268.631 917.289 268.428C917.492 268.225 917.768 268.11 918.055 268.11H938.018C938.304 268.116 938.576 268.232 938.778 268.434C938.98 268.636 939.096 268.908 939.102 269.194V403.058C939.096 403.344 938.98 403.616 938.778 403.818C938.576 404.021 938.304 404.136 938.018 404.142V404.142ZM919.139 401.975H936.934V270.278H919.139V401.975Z" fill="#263238"/>
<path d="M798.042 258.508H778.079V260.676H798.042V258.508Z" fill="#263238"/>
<path d="M798.042 266.81H778.079V268.977H798.042V266.81Z" fill="#263238"/>
<path d="M798.042 275.133H778.079V277.301H798.042V275.133Z" fill="#263238"/>
<path d="M885.304 258.508H804.674V260.676H885.304V258.508Z" fill="#263238"/>
<path d="M885.304 266.81H804.674V268.977H885.304V266.81Z" fill="#263238"/>
<path d="M885.304 275.133H804.674V277.301H885.304V275.133Z" fill="#263238"/>
<path d="M978.37 12.0729H780.955C775.724 12.0729 771.483 16.3136 771.483 21.5448V192.798C771.483 198.029 775.724 202.27 780.955 202.27H978.37C983.602 202.27 987.842 198.029 987.842 192.798V21.5448C987.842 16.3136 983.602 12.0729 978.37 12.0729Z" fill="#263238"/>
<path d="M978.37 203.376H780.998C778.2 203.37 775.519 202.256 773.54 200.278C771.562 198.299 770.448 195.618 770.442 192.82V21.5882C770.44 20.1991 770.71 18.8231 771.239 17.5387C771.768 16.2543 772.545 15.0867 773.525 14.1025C774.505 13.1183 775.67 12.3368 776.952 11.8026C778.234 11.2684 779.609 10.992 780.998 10.9891H978.413C981.211 10.9949 983.892 12.1088 985.871 14.0871C987.849 16.0655 988.963 18.747 988.969 21.5448V192.776C988.972 194.169 988.699 195.549 988.168 196.836C987.636 198.123 986.855 199.293 985.871 200.278C984.886 201.262 983.716 202.043 982.429 202.575C981.142 203.106 979.762 203.378 978.37 203.376V203.376ZM780.998 13.1566C778.775 13.1623 776.645 14.0479 775.073 15.6198C773.501 17.1916 772.616 19.3219 772.61 21.5448V192.776C772.616 194.999 773.501 197.13 775.073 198.702C776.645 200.273 778.775 201.159 780.998 201.165H978.413C980.636 201.159 982.766 200.273 984.338 198.702C985.91 197.13 986.796 194.999 986.801 192.776V21.5448C986.796 19.3219 985.91 17.1916 984.338 15.6198C982.766 14.0479 980.636 13.1623 978.413 13.1566H780.998Z" fill="#263238"/>
<path d="M969.2 1.06201H771.785C766.554 1.06201 762.313 5.30275 762.313 10.5339V181.787C762.313 187.019 766.554 191.259 771.785 191.259H969.2C974.432 191.259 978.672 187.019 978.672 181.787V10.5339C978.672 5.30275 974.432 1.06201 969.2 1.06201Z" fill="white"/>
<path d="M969.201 192.365H771.786C768.988 192.359 766.307 191.245 764.328 189.267C762.35 187.288 761.236 184.607 761.23 181.809V10.5773C761.23 7.77581 762.342 5.0887 764.321 3.10568C766.3 1.12266 768.985 0.00574085 771.786 0H969.201C972.003 0.00574085 974.687 1.12266 976.666 3.10568C978.645 5.0887 979.757 7.77581 979.757 10.5773V181.809C979.751 184.607 978.637 187.288 976.659 189.267C974.68 191.245 971.999 192.359 969.201 192.365V192.365ZM771.786 2.14581C769.559 2.15155 767.426 3.04011 765.853 4.61665C764.281 6.19318 763.398 8.32898 763.398 10.5557V181.787C763.404 184.01 764.289 186.141 765.861 187.712C767.433 189.284 769.563 190.17 771.786 190.176H969.201C971.424 190.17 973.554 189.284 975.126 187.712C976.698 186.141 977.584 184.01 977.589 181.787V10.5557C977.589 8.32898 976.706 6.19318 975.134 4.61665C973.561 3.04011 971.428 2.15155 969.201 2.14581H771.786Z" fill="#263238"/>
<path d="M785.853 155.279H783.686V162.627H785.853V155.279Z" fill="#263238"/>
<path d="M803.474 155.279H801.307V162.627H803.474V155.279Z" fill="#263238"/>
<path d="M821.097 155.279H818.93V162.627H821.097V155.279Z" fill="#263238"/>
<path d="M838.718 155.279H836.551V162.627H838.718V155.279Z" fill="#263238"/>
<path d="M856.34 155.279H854.173V162.627H856.34V155.279Z" fill="#263238"/>
<path d="M873.961 155.279H871.794V162.627H873.961V155.279Z" fill="#263238"/>
<path d="M891.584 155.279H889.416V162.627H891.584V155.279Z" fill="#263238"/>
<path d="M909.205 155.279H907.037V162.627H909.205V155.279Z" fill="#263238"/>
<path d="M926.827 155.279H924.659V162.627H926.827V155.279Z" fill="#263238"/>
<path d="M944.449 155.279H942.281V162.627H944.449V155.279Z" fill="#263238"/>
<path d="M962.07 155.279H959.902V162.627H962.07V155.279Z" fill="#263238"/>
<path d="M953.638 52.475L934.543 62.7705L919.132 31.9272L899.299 57.6119L881.678 42.2011L864.793 23.1055L847.171 43.675L829.549 93.5922L810.454 75.2336L791.38 89.1922V135.446H953.638V52.475Z" fill="#92E3A9"/>
<path d="M953.639 136.53H791.381C791.093 136.53 790.818 136.416 790.615 136.213C790.411 136.01 790.297 135.734 790.297 135.446V89.1922C790.294 89.0234 790.331 88.8562 790.407 88.7052C790.482 88.5541 790.593 88.4237 790.731 88.3252L809.826 74.3666C810.023 74.2083 810.267 74.1219 810.52 74.1219C810.772 74.1219 811.017 74.2083 811.213 74.3666L829.095 91.5548L846.153 43.2197C846.197 43.0933 846.263 42.9758 846.348 42.873L863.97 22.3251C864.069 22.2019 864.194 22.1027 864.337 22.0351C864.48 21.9675 864.636 21.9333 864.794 21.935C864.949 21.9364 865.102 21.9698 865.244 22.0332C865.386 22.0966 865.513 22.1886 865.617 22.3035L882.502 41.3991L899.148 55.9646L918.266 31.1685C918.381 31.0237 918.531 30.9102 918.701 30.8382C918.871 30.7663 919.057 30.7382 919.241 30.7567C919.42 30.7747 919.591 30.8378 919.739 30.9402C919.887 31.0425 920.007 31.1808 920.086 31.3419L935.02 61.1882L953.119 51.4345C953.281 51.3434 953.464 51.2955 953.65 51.2955C953.836 51.2955 954.019 51.3434 954.181 51.4345C954.345 51.5291 954.481 51.6649 954.576 51.8284C954.671 51.9919 954.722 52.1774 954.723 52.3666V135.446C954.723 135.734 954.609 136.01 954.405 136.213C954.202 136.416 953.927 136.53 953.639 136.53ZM792.465 134.363H952.555V54.2956L935.064 63.7242C934.792 63.8317 934.49 63.8317 934.218 63.7242C934.079 63.6821 933.95 63.6125 933.838 63.5194C933.727 63.4263 933.635 63.3117 933.568 63.1823L918.938 33.8779L900.211 58.2838C900.12 58.4017 900.006 58.4993 899.875 58.5703C899.744 58.6412 899.6 58.6839 899.452 58.6956C899.304 58.7124 899.154 58.6979 899.012 58.6531C898.871 58.6083 898.74 58.5342 898.628 58.4355L881.007 43.0247L864.859 24.7527L848.169 44.2602L830.612 94.1124C830.555 94.2828 830.455 94.4358 830.323 94.5571C830.19 94.6784 830.029 94.7641 829.854 94.806C829.674 94.8479 829.487 94.844 829.309 94.7948C829.131 94.7456 828.968 94.6526 828.835 94.5243L810.411 76.7942L792.508 89.7991L792.465 134.363Z" fill="#263238"/>
<path d="M811.777 21.6099H791.814V23.7774H811.777V21.6099Z" fill="#263238"/>
<path d="M811.777 29.9331H791.814V32.1006H811.777V29.9331Z" fill="#263238"/>
<path d="M811.777 38.2345H791.814V40.402H811.777V38.2345Z" fill="#263238"/>
<path d="M953.638 93.1371L934.543 100.203L919.132 65.9135L899.299 89.9292L881.678 84.0553L864.793 120.751L847.171 71.5706L829.549 120.751L810.454 102.414L791.38 126.647V144.247H953.638V93.1371Z" fill="#263238"/>
<path d="M953.639 145.33H791.381C791.093 145.33 790.818 145.216 790.615 145.013C790.411 144.81 790.297 144.534 790.297 144.246V126.625C790.292 126.383 790.369 126.146 790.514 125.953L809.609 101.742C809.705 101.624 809.824 101.527 809.958 101.457C810.092 101.386 810.239 101.343 810.39 101.33C810.694 101.318 810.99 101.427 811.213 101.634L829.095 118.822L846.153 71.137C846.229 70.9276 846.367 70.7465 846.55 70.6185C846.732 70.4905 846.949 70.4218 847.172 70.4217V70.4217C847.395 70.4218 847.612 70.4905 847.794 70.6185C847.977 70.7465 848.115 70.9276 848.191 71.137L864.924 117.825L880.703 83.6001C880.813 83.3569 881.008 83.1627 881.252 83.0547C881.496 82.9468 881.772 82.9326 882.025 83.0148L898.932 88.6503L918.287 65.2198C918.404 65.0783 918.555 64.9688 918.726 64.9015C918.897 64.8343 919.082 64.8115 919.264 64.8353C919.446 64.8592 919.619 64.9288 919.766 65.0378C919.914 65.1467 920.032 65.2914 920.108 65.4582L935.129 98.8375L953.249 92.1183C953.412 92.0519 953.59 92.029 953.765 92.0518C953.939 92.0746 954.105 92.1423 954.246 92.2484C954.394 92.3439 954.516 92.4756 954.599 92.6311C954.683 92.7865 954.725 92.9606 954.723 93.137V144.246C954.723 144.389 954.695 144.53 954.64 144.661C954.586 144.793 954.506 144.912 954.405 145.013C954.305 145.113 954.185 145.193 954.054 145.248C953.922 145.302 953.781 145.33 953.639 145.33ZM792.465 143.163H952.555V94.6976L934.912 101.2C934.655 101.291 934.373 101.284 934.121 101.18C933.869 101.076 933.665 100.882 933.547 100.637L918.851 67.9074L900.211 90.6227C900.069 90.7919 899.878 90.9137 899.665 90.9718C899.452 91.03 899.227 91.0216 899.018 90.9479L882.329 85.3774L865.834 121.206C865.75 121.403 865.607 121.569 865.424 121.681C865.242 121.794 865.029 121.847 864.815 121.835C864.599 121.829 864.39 121.757 864.216 121.629C864.042 121.502 863.911 121.324 863.84 121.119L847.172 74.7567L830.569 121.098C830.512 121.268 830.412 121.421 830.279 121.542C830.147 121.664 829.985 121.749 829.81 121.791C829.631 121.833 829.443 121.829 829.265 121.78C829.087 121.731 828.924 121.638 828.792 121.509L810.585 103.996L792.465 126.993V143.163Z" fill="#263238"/>
<path d="M1067.37 114.457C1067.37 114.457 1060.18 95.4265 1039.61 97.4856C1019.04 99.5448 1009.8 115.996 1013.4 126.79C1014.88 131.744 1016.77 136.566 1019.06 141.204C1019.06 141.204 1012.36 138.104 1014.42 148.898C1016.48 159.693 1031.91 157.568 1034.47 156.615C1037.03 155.661 1048.36 126.79 1067.37 114.457Z" fill="#263238"/>
<path d="M1027.94 158.565C1024.76 158.653 1021.61 157.961 1018.75 156.55C1017.34 155.81 1016.12 154.755 1015.19 153.465C1014.25 152.175 1013.62 150.687 1013.36 149.115C1012.51 144.672 1012.95 141.854 1014.7 140.445C1015.39 139.924 1016.24 139.649 1017.11 139.665C1016.15 137.497 1014.55 133.639 1012.36 127.094C1011.57 124.205 1011.43 121.179 1011.95 118.23C1012.47 115.282 1013.63 112.484 1015.35 110.035C1018.11 106.094 1021.71 102.824 1025.9 100.467C1030.1 98.1106 1034.76 96.7286 1039.56 96.4236C1060.74 94.2561 1068.39 113.763 1068.46 114.067C1068.54 114.299 1068.54 114.552 1068.47 114.787C1068.39 115.021 1068.24 115.225 1068.04 115.367C1054.74 124.037 1045.07 141.161 1039.87 150.372C1037.03 155.444 1035.99 157.2 1034.95 157.633C1032.67 158.296 1030.31 158.61 1027.94 158.565ZM1017.11 141.876C1016.71 141.863 1016.33 141.977 1016 142.201C1015.44 142.656 1014.59 144.108 1015.46 148.703C1015.68 149.96 1016.18 151.149 1016.93 152.179C1017.69 153.209 1018.67 154.052 1019.8 154.642C1024.31 156.576 1029.34 156.92 1034.08 155.618C1035.52 153.616 1036.8 151.508 1037.92 149.31C1043.1 140.098 1052.68 123.105 1066.09 114.045C1064.49 110.534 1057.14 96.8354 1039.78 98.5694C1035.3 98.8274 1030.94 100.089 1027.01 102.262C1023.09 104.434 1019.7 107.461 1017.11 111.119C1015.58 113.299 1014.55 115.787 1014.08 118.408C1013.62 121.029 1013.73 123.72 1014.42 126.292C1015.89 131.165 1017.76 135.913 1019.99 140.489C1020.1 140.687 1020.15 140.916 1020.12 141.141C1020.09 141.367 1020 141.579 1019.84 141.747C1019.69 141.915 1019.49 142.03 1019.26 142.076C1019.04 142.123 1018.81 142.098 1018.6 142.006C1018.12 141.881 1017.62 141.837 1017.13 141.876H1017.11Z" fill="#263238"/>
<path d="M936.412 298.975L899.912 317.226C899.255 317.555 898.7 318.057 898.307 318.678C897.913 319.299 897.696 320.015 897.678 320.75C897.66 321.485 897.842 322.211 898.205 322.85C898.568 323.489 899.098 324.017 899.738 324.378L997.124 379.151C997.941 379.613 998.894 379.777 999.819 379.615C1000.74 379.453 1001.58 378.975 1002.2 378.262L1025.06 351.71C1025.45 351.252 1025.74 350.713 1025.9 350.132C1026.05 349.551 1026.08 348.942 1025.97 348.35C1025.87 347.757 1025.63 347.195 1025.28 346.704C1024.94 346.213 1024.48 345.806 1023.96 345.511L940.205 299.04C939.626 298.721 938.978 298.548 938.317 298.537C937.656 298.525 937.002 298.676 936.412 298.975V298.975Z" fill="#263238"/>
<path d="M999.118 380.755C998.238 380.755 997.373 380.531 996.604 380.105L899.218 325.31C898.402 324.858 897.725 324.19 897.261 323.38C896.797 322.57 896.563 321.648 896.585 320.715C896.608 319.781 896.885 318.872 897.387 318.085C897.89 317.298 898.598 316.664 899.435 316.25L935.935 298C936.675 297.616 937.497 297.416 938.331 297.416C939.164 297.416 939.986 297.616 940.726 298L1024.48 344.428C1025.15 344.795 1025.73 345.309 1026.17 345.932C1026.61 346.556 1026.91 347.272 1027.04 348.026C1027.19 348.788 1027.16 349.575 1026.96 350.326C1026.76 351.077 1026.39 351.773 1025.89 352.361L1003.02 378.977C1002.54 379.538 1001.94 379.988 1001.26 380.295C1000.59 380.601 999.858 380.758 999.118 380.755V380.755ZM936.911 299.929L900.475 318.179C899.993 318.42 899.585 318.788 899.295 319.243C899.006 319.698 898.846 320.224 898.832 320.763C898.819 321.302 898.953 321.835 899.219 322.304C899.486 322.773 899.875 323.16 900.345 323.425L997.731 378.219C998.329 378.551 999.024 378.668 999.699 378.55C1000.37 378.431 1000.99 378.085 1001.44 377.569L1024.3 350.952C1024.59 350.615 1024.8 350.219 1024.92 349.792C1025.03 349.365 1025.05 348.917 1024.98 348.481C1024.9 348.047 1024.72 347.636 1024.47 347.279C1024.21 346.922 1023.87 346.629 1023.48 346.422L939.729 299.994C939.302 299.749 938.82 299.614 938.328 299.603C937.836 299.592 937.349 299.704 936.911 299.929V299.929Z" fill="#263238"/>
<path d="M1025.43 331.856L1010.06 321.886C1010.06 321.886 998.554 308.881 994.241 306.713C989.928 304.546 960.948 309.748 960.948 309.748L1024.63 345.772L1025.43 331.856Z" fill="white"/>
<path d="M1024.63 346.942C1024.45 346.943 1024.27 346.898 1024.11 346.812L960.427 310.788C960.231 310.681 960.073 310.515 959.975 310.314C959.877 310.113 959.843 309.887 959.879 309.666C959.915 309.445 960.018 309.241 960.174 309.081C960.331 308.921 960.533 308.813 960.753 308.773C963.765 308.231 990.209 303.549 994.717 305.846C999.225 308.144 1009.56 319.718 1010.78 321.019L1025.95 330.903C1026.11 331 1026.24 331.142 1026.33 331.31C1026.41 331.479 1026.45 331.668 1026.43 331.856L1025.65 345.88C1025.63 346.156 1025.51 346.415 1025.31 346.605C1025.11 346.794 1024.84 346.899 1024.56 346.899L1024.63 346.942ZM964.112 310.376L1023.65 344.059L1024.3 332.42L1009.48 322.796C1009.39 322.755 1009.31 322.687 1009.26 322.601C1006.1 319.068 997.145 309.596 993.742 307.775C991.076 306.432 975.253 308.491 964.112 310.376V310.376Z" fill="#263238"/>
<path d="M994.046 316.12C994.046 316.12 982.731 316.619 975.752 313.649C968.773 310.68 964.763 312.067 968.404 317.984C972.046 323.902 983.338 323.338 983.338 323.338C983.338 323.338 993.2 335.346 1005.16 330.642" fill="white"/>
<path d="M999.552 332.767C991.077 332.767 984.379 326.112 982.862 324.378C980.5 324.378 970.963 324.14 967.473 318.505C965.761 315.73 965.479 313.606 966.649 312.24C968.145 310.528 971.526 310.658 976.186 312.652C982.862 315.492 993.895 315.037 994.003 315.037C994.148 315.021 994.294 315.037 994.432 315.082C994.569 315.128 994.696 315.202 994.803 315.301C994.91 315.399 994.994 315.52 995.05 315.654C995.107 315.787 995.134 315.932 995.13 316.077C995.136 316.363 995.031 316.64 994.837 316.85C994.643 317.06 994.375 317.187 994.09 317.204C993.635 317.204 982.45 317.681 975.319 314.646C971.374 312.956 968.817 312.956 968.297 313.649C967.776 314.343 968.015 315.275 969.315 317.356C972.567 322.623 983.187 322.211 983.296 322.211C983.464 322.201 983.633 322.231 983.787 322.299C983.942 322.366 984.078 322.47 984.184 322.601C984.184 322.709 993.7 333.937 1004.78 329.58C1004.91 329.528 1005.05 329.502 1005.19 329.504C1005.33 329.506 1005.47 329.536 1005.61 329.592C1005.74 329.648 1005.85 329.73 1005.95 329.832C1006.05 329.934 1006.13 330.055 1006.18 330.187C1006.24 330.32 1006.26 330.461 1006.26 330.604C1006.26 330.746 1006.23 330.887 1006.17 331.017C1006.12 331.148 1006.03 331.267 1005.93 331.366C1005.83 331.465 1005.71 331.544 1005.58 331.596C1003.66 332.366 1001.62 332.763 999.552 332.767V332.767Z" fill="#263238"/>
<path d="M1149.74 833.825C1149.74 833.825 1156.24 858.556 1155.65 862.848C1155.07 867.14 1141.67 870.911 1134.15 870.911C1126.57 871.336 1119.03 872.234 1111.57 873.599L1112.11 833.825H1149.74Z" fill="white"/>
<path d="M1111.57 874.682C1111.31 874.686 1111.06 874.593 1110.87 874.422C1110.75 874.324 1110.65 874.198 1110.58 874.055C1110.52 873.913 1110.48 873.756 1110.48 873.599L1111.03 833.803C1111.03 833.52 1111.15 833.25 1111.35 833.051C1111.55 832.853 1111.83 832.741 1112.11 832.741H1149.74C1149.98 832.735 1150.21 832.811 1150.4 832.957C1150.59 833.103 1150.72 833.31 1150.78 833.543C1151.45 836.101 1157.28 858.6 1156.74 862.978C1156.07 868.288 1141.7 871.995 1134.15 871.995C1126.64 872.423 1119.16 873.314 1111.76 874.661L1111.57 874.682ZM1113.17 834.909L1112.67 872.32C1119.77 871.023 1126.95 870.19 1134.15 869.827C1141.87 869.827 1154.16 866.012 1154.57 862.718C1154.98 859.423 1150.8 842.278 1148.89 834.909H1113.17Z" fill="#263238"/>
<path d="M1155.65 862.848C1155.66 860.66 1155.42 858.479 1154.94 856.345C1149.68 859.208 1144.16 861.539 1138.44 863.303C1129.32 865.926 1116.29 866.056 1111.67 866.012L1111.57 873.512C1119.03 872.147 1126.57 871.25 1134.15 870.824C1141.67 870.911 1155.11 867.161 1155.65 862.848Z" fill="white"/>
<path d="M1111.57 874.683C1111.31 874.686 1111.06 874.593 1110.87 874.423C1110.75 874.324 1110.65 874.198 1110.58 874.056C1110.52 873.913 1110.48 873.757 1110.48 873.599L1110.59 866.099C1110.59 865.812 1110.71 865.536 1110.91 865.333C1111.11 865.13 1111.39 865.016 1111.68 865.016C1116.7 865.016 1129.25 864.886 1138.16 862.35C1143.8 860.599 1149.25 858.298 1154.44 855.479C1154.59 855.399 1154.76 855.357 1154.93 855.357C1155.1 855.357 1155.27 855.399 1155.42 855.479C1155.57 855.554 1155.7 855.664 1155.8 855.799C1155.9 855.935 1155.97 856.092 1156 856.259C1156.51 858.469 1156.76 860.732 1156.74 863C1156.07 868.31 1141.7 872.017 1134.15 872.017C1126.64 872.445 1119.16 873.336 1111.76 874.683H1111.57ZM1112.74 867.205V872.32C1119.84 871.023 1127.01 870.191 1134.22 869.827C1141.93 869.827 1154.22 866.013 1154.64 862.718C1154.68 861.16 1154.54 859.602 1154.2 858.08C1149.28 860.678 1144.13 862.805 1138.81 864.43C1130.32 866.416 1121.61 867.348 1112.89 867.205H1112.74Z" fill="#263238"/>
<path d="M1104.05 596.203C1104.05 596.203 1111.03 654.726 1113.71 666.105C1116.4 677.484 1129.84 696.732 1135.21 726.795C1140.59 756.858 1150.82 826.781 1150.82 828.407C1150.82 830.032 1151.88 834.909 1152.42 838.074C1152.42 838.074 1140.59 842.929 1132.01 841.845C1126.56 841.134 1121.18 840.055 1115.88 838.615C1115.88 838.615 1119.63 815.51 1111.55 774.111C1103.46 732.712 1095.55 689.839 1090.61 659.646C1085.67 629.453 1104.05 596.203 1104.05 596.203Z" fill="#999999"/>
<path d="M1134.67 843.124C1133.73 843.128 1132.79 843.078 1131.85 842.972C1126.36 842.25 1120.92 841.156 1115.58 839.699C1115.32 839.624 1115.1 839.46 1114.96 839.237C1114.82 839.014 1114.76 838.748 1114.8 838.485C1114.8 838.247 1118.44 815.033 1110.46 774.349C1100.75 724.497 1093.69 685.959 1089.48 659.819C1084.65 629.691 1102.88 596.03 1103.05 595.683C1103.16 595.476 1103.33 595.311 1103.54 595.211C1103.75 595.11 1103.99 595.081 1104.22 595.128C1104.45 595.174 1104.66 595.293 1104.81 595.468C1104.97 595.642 1105.07 595.862 1105.09 596.095C1105.09 596.68 1112.09 654.747 1114.73 665.845C1116.29 670.954 1118.27 675.921 1120.67 680.692C1127.9 695.262 1133.15 710.729 1136.3 726.686C1141.52 755.991 1151.9 826.607 1151.9 828.558C1152.1 830.539 1152.41 832.508 1152.84 834.454C1153.07 835.711 1153.31 836.968 1153.49 838.052C1153.53 838.295 1153.49 838.546 1153.37 838.762C1153.25 838.979 1153.06 839.149 1152.84 839.244C1147.04 841.526 1140.9 842.836 1134.67 843.124V843.124ZM1117.07 837.857C1122.02 839.172 1127.06 840.157 1132.14 840.805C1139.07 841.672 1148.44 838.464 1151.21 837.423C1151.06 836.578 1150.89 835.668 1150.71 834.736C1150.25 832.7 1149.93 830.636 1149.74 828.558C1149.74 826.716 1139.64 757.833 1134.15 727.141C1131.06 711.351 1125.88 696.044 1118.74 681.624C1116.28 676.752 1114.25 671.675 1112.67 666.452C1110.35 656.72 1104.98 613.001 1103.4 600.018C1099.06 609.013 1087.81 635.522 1091.67 659.581C1095.87 685.699 1102.92 724.215 1112.63 774.046C1119.74 810.395 1117.66 833.023 1117.07 837.857Z" fill="#263238"/>
<path d="M1076.63 827.366C1073.14 832.391 1068.99 836.912 1064.27 840.804C1055.13 848.868 1037.92 857.472 1033.08 859.618C1028.25 861.764 1024.41 861.786 1025.56 866.619C1026.71 871.453 1034.69 875.289 1058.9 875.289C1083.11 875.289 1108.88 874.206 1111.57 873.664C1114.25 873.122 1122.4 873.122 1122.4 867.161C1122.4 861.201 1119.72 837.597 1119.72 837.597L1076.63 827.366Z" fill="white"/>
<path d="M1058.9 876.243C1036.85 876.243 1025.93 873.23 1024.5 866.793C1023.44 862.046 1026.56 860.897 1029.85 859.683C1030.72 859.358 1031.65 859.011 1032.65 858.578C1036.81 856.714 1054.32 848.131 1063.54 839.937C1068.17 836.117 1072.26 831.684 1075.7 826.759C1075.82 826.561 1076 826.407 1076.21 826.318C1076.43 826.228 1076.66 826.208 1076.89 826.261L1119.89 836.469C1120.11 836.521 1120.3 836.639 1120.45 836.806C1120.6 836.972 1120.69 837.18 1120.71 837.401C1120.82 838.377 1123.4 861.244 1123.4 867.096C1123.4 872.948 1116.79 873.924 1113.26 874.379L1111.78 874.596C1109.03 875.224 1083.37 876.243 1058.9 876.243ZM1077.13 828.558C1073.61 833.363 1069.54 837.729 1064.99 841.563C1055.47 849.951 1037.74 858.665 1033.52 860.55C1032.5 861.005 1031.5 861.374 1030.59 861.721C1027.01 863.043 1025.99 863.541 1026.62 866.316C1027.4 869.849 1033.65 874.075 1058.9 874.075C1082.74 874.075 1108.75 872.992 1111.35 872.471C1111.78 872.471 1112.35 872.32 1112.98 872.233C1117.16 871.691 1121.23 870.846 1121.23 867.096C1121.23 861.894 1119.07 842.495 1118.63 838.399L1077.13 828.558Z" fill="#263238"/>
<path d="M1111.57 873.599C1114.26 873.057 1122.4 873.057 1122.4 867.096C1122.4 866.229 1122.4 864.929 1122.25 863.455C1113.04 864.669 1092.19 867.248 1068.65 869.242C1054.11 870.793 1039.41 869.317 1025.47 864.907C1025.45 865.49 1025.51 866.074 1025.65 866.641C1026.71 871.475 1034.77 875.311 1058.98 875.311C1083.19 875.311 1108.88 874.076 1111.57 873.599Z" fill="white"/>
<path d="M1058.9 876.243C1036.85 876.243 1025.93 873.23 1024.5 866.793C1024.35 866.131 1024.29 865.454 1024.3 864.777C1024.31 864.609 1024.36 864.446 1024.45 864.299C1024.53 864.153 1024.64 864.027 1024.78 863.932C1024.92 863.836 1025.08 863.775 1025.25 863.752C1025.42 863.729 1025.6 863.746 1025.76 863.801C1039.54 868.185 1054.09 869.661 1068.48 868.136C1091.6 866.186 1111.96 863.671 1122.01 862.349C1122.32 862.328 1122.61 862.413 1122.86 862.588C1123.09 862.788 1123.23 863.067 1123.25 863.368C1123.36 864.885 1123.4 866.186 1123.4 867.074C1123.4 873.035 1116.79 873.902 1113.26 874.357L1111.78 874.574C1109.03 875.224 1083.37 876.243 1058.9 876.243ZM1026.62 866.381C1027.47 869.892 1033.78 874.075 1058.9 874.075C1082.74 874.075 1108.75 872.992 1111.35 872.471C1111.78 872.471 1112.35 872.32 1112.98 872.233C1117.16 871.691 1121.23 870.846 1121.23 867.096C1121.23 866.467 1121.23 865.644 1121.23 864.69C1110.81 866.034 1091.06 868.418 1068.74 870.326C1054.58 871.804 1040.27 870.486 1026.62 866.446V866.381Z" fill="#263238"/>
<path d="M1019.69 472.57C1019.66 502.757 1021.45 532.918 1025.06 562.889C1030.98 610.725 1048.19 668.793 1048.19 668.793C1048.19 668.793 1056.86 715.545 1059.46 731.65C1062.06 747.754 1076.04 811.218 1076.04 811.218L1070.12 819.281L1071.21 833.262L1092.71 838.095C1101.5 840.287 1110.53 841.372 1119.59 841.325C1119.59 841.325 1120.67 813.364 1120.13 809.614C1119.59 805.865 1116.36 788.113 1115.79 782.196C1115.23 776.278 1116.86 710.668 1113.11 695.648C1109.36 680.627 1102.88 658.54 1102.88 639.293C1102.88 620.046 1117.4 525.326 1117.4 525.326C1117.4 525.326 1132.98 503.283 1132.98 490.365C1133.15 483.881 1132.62 477.398 1131.38 471.031L1019.69 472.57Z" fill="#BDBDBD"/>
<path d="M1118.07 842.474C1109.46 842.302 1100.89 841.197 1092.52 839.179L1071.01 834.345C1070.79 834.292 1070.59 834.169 1070.43 833.994C1070.28 833.819 1070.19 833.601 1070.17 833.37L1069.11 819.39C1069.08 819.135 1069.15 818.88 1069.3 818.674L1074.94 811.002C1073.64 805.106 1060.89 747.082 1058.36 731.867C1055.71 715.935 1047.15 669.443 1047.06 669.009C1046.98 668.576 1029.72 610.487 1023.94 563.041C1020.35 533.018 1018.55 502.807 1018.56 472.57C1018.56 472.288 1018.67 472.018 1018.87 471.819C1019.07 471.62 1019.34 471.508 1019.62 471.508L1131.44 469.904C1131.68 469.897 1131.92 469.974 1132.11 470.12C1132.3 470.266 1132.43 470.473 1132.48 470.706C1133.75 477.164 1134.31 483.742 1134.13 490.321C1134.13 502.893 1120.19 523.246 1118.5 525.695C1117.66 531.114 1104.02 620.674 1104.02 639.25C1104.02 655.874 1108.77 674.276 1112.59 689.102C1113.16 691.342 1113.71 693.466 1114.21 695.474C1116.96 706.507 1116.88 743.788 1116.81 766.07C1116.81 774.176 1116.81 780.592 1116.92 782.174C1117.29 786.184 1118.89 795.634 1120.06 802.527C1120.61 805.735 1121.06 808.336 1121.23 809.549C1121.78 813.364 1120.74 840.306 1120.69 841.455C1120.69 841.725 1120.58 841.984 1120.39 842.177C1120.2 842.37 1119.94 842.484 1119.67 842.495C1119.67 842.495 1119.05 842.474 1118.07 842.474ZM1072.27 832.395L1092.99 837.076C1101.38 839.071 1109.97 840.147 1118.59 840.284C1118.96 830.401 1119.5 812.584 1119.11 809.788C1118.94 808.596 1118.48 805.995 1117.96 802.83C1116.77 795.894 1115.17 786.401 1114.8 782.304C1114.65 780.635 1114.65 774.501 1114.67 766.004C1114.67 743.809 1114.82 706.702 1112.13 695.93C1111.63 693.935 1111.09 691.811 1110.51 689.579C1106.67 674.666 1101.84 656.134 1101.84 639.228C1101.84 620.002 1115.77 528.946 1116.38 525.088C1116.4 524.925 1116.46 524.769 1116.55 524.633C1116.7 524.416 1131.94 502.719 1131.94 490.3C1132.04 484.187 1131.58 478.077 1130.55 472.049L1020.68 473.632C1020.76 503.423 1022.6 533.184 1026.19 562.759C1032.02 609.945 1049.1 667.904 1049.25 668.489C1049.4 669.074 1057.92 715.545 1060.59 731.498C1063.25 747.451 1077.1 810.373 1077.23 811.002C1077.27 811.154 1077.27 811.311 1077.24 811.463C1077.21 811.616 1077.15 811.761 1077.06 811.89L1071.38 819.628L1072.27 832.395Z" fill="#263238"/>
<path d="M1098.45 831.766C1098.26 831.77 1098.08 831.706 1097.93 831.587C1097.79 831.468 1097.69 831.302 1097.65 831.116C1097.65 831.116 1096.78 826.781 1095.07 820.82C1093.58 815.532 1095.72 813.191 1096.74 812.389C1096.61 810.525 1096.07 803.22 1095.05 793.12C1095.04 793.015 1095.05 792.908 1095.08 792.806C1095.11 792.704 1095.16 792.609 1095.22 792.526C1095.29 792.444 1095.37 792.375 1095.46 792.324C1095.56 792.274 1095.66 792.242 1095.77 792.231C1095.87 792.216 1095.98 792.223 1096.09 792.251C1096.19 792.279 1096.29 792.328 1096.37 792.395C1096.46 792.462 1096.53 792.545 1096.58 792.64C1096.63 792.735 1096.67 792.839 1096.68 792.947C1097.85 804.716 1098.39 812.671 1098.39 812.757C1098.4 812.915 1098.36 813.073 1098.29 813.211C1098.21 813.35 1098.09 813.463 1097.95 813.538C1097.85 813.538 1095.14 815.098 1096.63 820.365C1098.37 826.369 1099.23 830.748 1099.26 830.791C1099.29 831.003 1099.25 831.222 1099.13 831.401C1099 831.579 1098.82 831.703 1098.61 831.745L1098.45 831.766Z" fill="#263238"/>
<path d="M1094.75 783.626C1094.55 783.618 1094.36 783.539 1094.21 783.404C1094.07 783.269 1093.97 783.087 1093.95 782.889C1092.99 774.436 1091.91 766.243 1090.74 758.505C1089.05 747.364 1085.71 732.04 1081.87 714.288C1075.85 686.479 1068.35 651.886 1063.08 615.104C1059.47 588.154 1058.55 560.912 1060.33 533.78C1060.34 533.567 1060.44 533.369 1060.6 533.228C1060.76 533.088 1060.97 533.017 1061.18 533.032C1061.4 533.046 1061.59 533.144 1061.73 533.305C1061.88 533.466 1061.95 533.675 1061.93 533.888C1060.16 560.949 1061.09 588.119 1064.71 614.995C1069.95 651.713 1077.43 686.284 1083.45 714.05C1087.31 731.823 1090.65 747.169 1092.34 758.375C1093.51 766.113 1094.51 774.349 1095.57 782.824C1095.59 783.036 1095.53 783.247 1095.39 783.412C1095.26 783.578 1095.07 783.686 1094.86 783.713L1094.75 783.626Z" fill="#263238"/>
<path d="M1061.82 525.11C1061.72 525.101 1061.61 525.072 1061.52 525.022C1061.42 524.973 1061.33 524.905 1061.27 524.822C1061.2 524.739 1061.15 524.643 1061.11 524.54C1061.08 524.436 1061.07 524.328 1061.09 524.221C1062.36 508.918 1064.01 499.295 1064.01 499.208C1064.05 498.995 1064.16 498.805 1064.34 498.679C1064.51 498.553 1064.73 498.502 1064.94 498.536C1065.16 498.571 1065.35 498.688 1065.47 498.863C1065.6 499.038 1065.65 499.255 1065.62 499.468C1065.62 499.577 1063.99 509.135 1062.71 524.351C1062.69 524.567 1062.58 524.767 1062.42 524.908C1062.25 525.05 1062.04 525.122 1061.82 525.11Z" fill="#263238"/>
<path d="M1123.42 131.949C1123.42 131.949 1130.1 105.202 1170.2 108.28C1210.3 111.357 1209.8 147.966 1209.8 147.966L1201.13 143.848C1201.13 143.848 1208.32 164.938 1200.09 180.349C1191.85 195.759 1170.78 204.516 1156.91 202.024C1143.04 199.531 1128.06 186.439 1125.89 179.243C1123.73 172.047 1131.64 146.861 1123.42 131.949Z" fill="#263238"/>
<path d="M1161.94 203.389C1160.17 203.396 1158.4 203.244 1156.65 202.934C1142.06 200.225 1127.04 186.851 1124.94 179.547C1124.18 176.837 1124.64 172.156 1125.24 166.26C1126.26 155.965 1127.67 141.876 1122.47 132.469C1122.34 132.232 1122.3 131.953 1122.36 131.689C1122.36 131.407 1129.77 104.075 1170.28 107.218C1210.8 110.361 1210.88 147.511 1210.88 147.901C1210.88 148.082 1210.83 148.26 1210.74 148.416C1210.65 148.573 1210.52 148.702 1210.36 148.79C1210.21 148.876 1210.03 148.92 1209.85 148.92C1209.67 148.92 1209.5 148.876 1209.34 148.79L1202.84 145.712C1204.47 151.738 1207.85 167.951 1201.02 180.717C1193.35 195.109 1175.75 203.389 1161.94 203.389ZM1124.57 131.862C1129.86 141.854 1128.43 156.095 1127.39 166.542C1126.85 171.982 1126.37 176.707 1127.04 179.005C1128.93 185.637 1143.43 198.339 1157.04 200.875C1170.26 203.324 1191.07 194.849 1199.07 179.829C1207.07 164.808 1200.11 144.39 1200.02 144.173C1199.96 143.973 1199.96 143.759 1200.01 143.556C1200.06 143.353 1200.17 143.169 1200.33 143.025C1200.48 142.878 1200.68 142.784 1200.9 142.753C1201.11 142.722 1201.33 142.756 1201.52 142.851L1208.65 146.211C1208.22 138.993 1204.31 112.051 1170.13 109.364C1133.65 106.546 1125.59 128.459 1124.57 131.819V131.862Z" fill="#263238"/>
<path d="M1043.72 128.849C1043.72 128.849 1040.65 134.008 1034.47 144.802C1028.29 155.596 1030.87 165.35 1026.75 170.508C1022.64 175.667 1011.34 175.125 1012.88 180.262C1014.42 185.399 1021.1 188.932 1021.1 188.932C1021.1 188.932 1021.1 217.716 1024.2 221.314C1027.3 224.912 1050.92 218.735 1050.92 218.735C1050.92 218.735 1055.56 225.953 1052.46 241.884C1049.36 257.815 1021.62 302.032 1018.02 324.14C1014.42 346.248 1026.69 401.259 1026.69 401.259L1014.88 481.456C1035.86 488.576 1058.07 491.37 1080.16 489.671C1115.64 486.593 1137.23 479.397 1137.23 479.397L1113.65 386.39C1113.65 386.39 1115.71 320.585 1111.09 284.085C1106.47 247.584 1094.64 238.849 1094.64 225.563C1094.64 212.276 1111.59 204.993 1122.38 192.14C1128.32 184.177 1131.94 174.73 1132.85 164.84C1133.76 154.95 1131.92 145.001 1127.54 136.089C1119.11 117.903 1092.06 110.902 1073.55 110.382C1055.04 109.862 1043.72 128.849 1043.72 128.849Z" fill="white"/>
<path d="M1067.87 491.405C1049.74 491.357 1031.73 488.378 1014.55 482.584C1014.32 482.49 1014.13 482.322 1014 482.106C1013.87 481.89 1013.82 481.639 1013.86 481.391L1025.67 401.389C1024.74 397.206 1013.42 345.685 1017 324.053C1019.02 311.677 1028.55 292.365 1036.96 275.328C1043.72 261.651 1050.1 248.755 1051.44 241.754C1053.89 229.204 1051.44 222.246 1050.4 220.079C1043.9 221.726 1026.56 225.736 1023.42 222.095C1020.27 218.453 1020.08 195.673 1020.06 189.582C1018.34 188.542 1013.27 185.247 1011.88 180.522C1010.74 176.686 1014.66 175.277 1018.39 173.911C1021.21 173.203 1023.81 171.768 1025.91 169.75C1027.62 167.582 1028.08 164.526 1028.62 160.581C1029.16 154.848 1030.83 149.279 1033.54 144.195C1039.63 133.509 1042.77 128.286 1042.79 128.242C1043.29 127.397 1054.37 109.19 1072.79 109.19H1073.57C1089.65 109.645 1119.33 115.693 1128.52 135.525C1140.52 161.535 1130.32 184.294 1123.23 192.725C1119.41 197.082 1115.22 201.106 1110.72 204.755C1102.72 211.474 1095.83 217.283 1095.83 225.519C1095.83 230.895 1097.8 235.468 1100.56 241.819C1106.65 255.175 1110.6 269.41 1112.26 283.998C1116.75 319.307 1114.95 382.749 1114.84 386.325L1138.47 479.246C1138.53 479.51 1138.49 479.787 1138.36 480.024C1138.22 480.261 1138.01 480.439 1137.75 480.524C1137.53 480.524 1115.62 487.807 1080.44 490.863C1076.04 491.232 1071.92 491.405 1067.87 491.405ZM1016.13 480.828C1036.74 487.629 1058.49 490.309 1080.14 488.718C1099.04 487.277 1117.76 483.944 1135.99 478.769L1112.61 386.715C1112.6 386.615 1112.6 386.513 1112.61 386.412C1112.61 385.762 1114.62 320.26 1110.05 284.258C1108.41 269.872 1104.51 255.834 1098.5 242.664C1095.74 236.335 1093.6 231.328 1093.6 225.519C1093.6 216.286 1101.21 209.87 1109.25 203.086C1113.68 199.521 1117.8 195.583 1121.56 191.316C1128.34 183.232 1138.1 161.383 1126.54 136.414C1117.87 117.535 1089.11 111.769 1073.53 111.336H1072.81C1055.47 111.336 1044.77 129.131 1044.64 129.326C1044.64 129.326 1041.49 134.593 1035.4 145.235C1032.82 150.08 1031.23 155.394 1030.74 160.863C1030.18 164.96 1029.66 168.493 1027.58 171.094C1025.24 173.442 1022.31 175.113 1019.1 175.927C1015.09 177.379 1013.38 178.095 1013.9 179.872C1015.29 184.532 1021.53 187.935 1021.59 187.978C1021.77 188.07 1021.91 188.208 1022.01 188.376C1022.11 188.544 1022.16 188.737 1022.16 188.932C1022.16 199.899 1022.94 218.215 1025 220.599C1026.62 222.506 1039.56 220.599 1050.64 217.695C1050.86 217.636 1051.09 217.649 1051.3 217.731C1051.51 217.812 1051.69 217.959 1051.81 218.15C1052 218.475 1056.64 225.909 1053.52 241.992C1052.11 249.275 1045.65 262.302 1038.85 276.108C1030.5 293.015 1021.03 312.175 1019.06 324.227C1015.55 345.902 1027.73 400.392 1027.73 400.934C1027.75 401.071 1027.75 401.21 1027.73 401.346L1016.13 480.828Z" fill="#263238"/>
<path d="M1050.92 218.822L1062.19 216.307L1055.17 230.331C1054.35 226.3 1052.92 222.419 1050.92 218.822V218.822Z" fill="#263238"/>
<path d="M1055.17 231.436H1055.04C1054.81 231.409 1054.6 231.31 1054.43 231.154C1054.26 230.998 1054.15 230.794 1054.11 230.569C1053.31 226.695 1051.93 222.962 1050.03 219.494C1049.95 219.34 1049.91 219.169 1049.91 218.995C1049.91 218.822 1049.95 218.651 1050.03 218.497C1050.09 218.331 1050.19 218.184 1050.32 218.07C1050.46 217.955 1050.62 217.878 1050.79 217.846L1062.06 215.31C1062.26 215.268 1062.47 215.282 1062.67 215.35C1062.86 215.419 1063.04 215.54 1063.17 215.7C1063.29 215.861 1063.37 216.055 1063.39 216.259C1063.41 216.463 1063.37 216.668 1063.27 216.849L1056.25 230.916C1056.14 231.1 1055.98 231.248 1055.79 231.34C1055.6 231.433 1055.38 231.466 1055.17 231.436V231.436ZM1052.61 219.494C1053.85 221.94 1054.83 224.512 1055.52 227.166L1060.22 217.803L1052.61 219.494Z" fill="#263238"/>
<path d="M1137.3 479.593L1113.65 386.39C1113.65 386.39 1115.71 320.585 1111.09 284.085C1110.11 276.019 1108.48 268.045 1106.21 260.243C1098.65 254.369 1086.99 246.956 1075.09 246.045C1061.28 244.983 1047.5 260.958 1040.24 271.037C1031.18 289.417 1020.19 310.832 1018.02 324.184C1014.42 346.292 1026.69 401.303 1026.69 401.303L1014.88 481.5C1035.86 488.62 1058.07 491.414 1080.16 489.715C1115.71 486.702 1137.3 479.593 1137.3 479.593Z" fill="#92E3A9"/>
<path d="M1067.87 491.405C1049.74 491.357 1031.73 488.378 1014.55 482.584C1014.32 482.49 1014.13 482.322 1014 482.106C1013.88 481.89 1013.82 481.639 1013.86 481.391L1025.67 401.389C1024.74 397.206 1013.42 345.685 1017 324.053C1019.02 311.677 1028.55 292.365 1036.96 275.328L1039.3 270.603C1046.59 260.459 1060.78 243.9 1075.22 245.005C1087.29 245.937 1099.06 253.372 1106.93 259.44C1107.11 259.578 1107.24 259.767 1107.3 259.982C1109.59 267.84 1111.22 275.872 1112.2 283.998C1116.68 319.307 1114.88 382.749 1114.78 386.325L1138.4 479.246C1138.46 479.51 1138.43 479.787 1138.29 480.024C1138.16 480.261 1137.94 480.439 1137.69 480.524C1137.47 480.524 1115.56 487.807 1080.38 490.863C1076.04 491.232 1071.92 491.405 1067.87 491.405ZM1016.13 480.828C1036.74 487.629 1058.49 490.309 1080.14 488.718C1099.04 487.277 1117.76 483.944 1136 478.769L1112.61 386.715C1112.6 386.615 1112.6 386.513 1112.61 386.412C1112.61 385.762 1114.62 320.26 1110.05 284.258C1109.1 276.371 1107.52 268.572 1105.33 260.936C1097.76 255.084 1086.45 247.931 1074.98 247.151C1061.61 246.132 1048.02 262.107 1041.08 271.708L1038.91 276.282C1030.57 293.188 1021.1 312.349 1019.12 324.4C1015.61 346.075 1027.79 400.566 1027.79 401.108C1027.82 401.244 1027.82 401.383 1027.79 401.519L1016.13 480.828Z" fill="#263238"/>
<path d="M1073.55 110.339C1055.04 109.84 1043.72 128.849 1043.72 128.849C1043.72 128.849 1042.12 131.537 1038.91 137.086C1042.12 133.271 1053.78 120.764 1058.64 134.008C1061.48 141.724 1054.52 152.496 1058.12 156.116C1061.72 159.736 1068.95 167.929 1067.89 169.468C1067.11 171.088 1066.59 172.822 1066.35 174.605C1066.35 174.605 1075.61 161.253 1082.8 169.468C1090 177.683 1080.23 193.115 1080.23 193.115L1074.07 195.174C1074.07 195.174 1094.12 217.803 1097.72 217.803C1098.71 217.803 1101.32 210.087 1105.93 208.548C1111.8 203.465 1117.3 197.967 1122.38 192.096C1128.32 184.134 1131.94 174.687 1132.85 164.797C1133.76 154.907 1131.92 144.958 1127.54 136.045C1119.11 117.86 1092.06 110.859 1073.55 110.339Z" fill="#263238"/>
<path d="M1097.72 218.887C1093.92 218.887 1078.04 201.287 1073.25 195.89C1073.13 195.756 1073.04 195.595 1073 195.421C1072.96 195.247 1072.96 195.066 1073.01 194.893C1073.06 194.721 1073.15 194.564 1073.27 194.436C1073.4 194.308 1073.55 194.211 1073.72 194.156L1079.51 192.227C1080.81 190.059 1088.03 177.054 1081.98 170.183C1081.43 169.446 1080.72 168.852 1079.89 168.452C1079.06 168.052 1078.15 167.858 1077.23 167.886C1072.21 168.167 1067.29 175.168 1067.24 175.233C1067.11 175.435 1066.9 175.584 1066.67 175.655C1066.44 175.726 1066.19 175.715 1065.96 175.624C1065.73 175.534 1065.54 175.37 1065.42 175.158C1065.29 174.946 1065.24 174.698 1065.27 174.453C1065.53 172.566 1066.07 170.731 1066.9 169.013C1066.74 167.561 1062.02 161.535 1057.36 156.875C1055.19 154.707 1056.01 150.871 1057.01 146.471C1057.92 142.483 1058.94 137.974 1057.62 134.376C1056.49 131.298 1054.93 129.564 1052.96 129.218C1048.13 128.372 1041.62 135.547 1039.74 137.888C1039.56 138.079 1039.32 138.199 1039.06 138.226C1038.8 138.253 1038.54 138.184 1038.32 138.034C1038.11 137.883 1037.96 137.661 1037.89 137.407C1037.83 137.153 1037.86 136.885 1037.98 136.652C1041.19 131.103 1042.79 128.416 1042.79 128.416C1043.27 127.614 1054.35 109.363 1072.79 109.363H1073.57C1089.65 109.819 1119.33 115.866 1128.52 135.698C1140.53 161.708 1130.32 184.467 1123.23 192.898C1119.29 197.542 1115.02 201.889 1110.44 205.903C1109.2 207.03 1107.97 208.071 1106.69 209.371C1106.58 209.484 1106.43 209.566 1106.28 209.61C1103.61 210.498 1101.58 213.945 1100.23 216.264C1099.19 217.998 1098.67 218.887 1097.72 218.887ZM1076.04 195.651C1084.97 205.622 1094.9 215.635 1097.52 216.611C1097.76 216.264 1098.13 215.614 1098.45 215.072C1099.93 212.558 1102.14 208.786 1105.46 207.551C1106.69 206.38 1107.88 205.383 1109.07 204.213C1113.55 200.233 1117.73 195.922 1121.56 191.316C1128.34 183.231 1138.1 161.383 1126.54 136.414C1117.87 117.535 1089.11 111.769 1073.53 111.336H1072.81C1055.58 111.336 1044.77 129.131 1044.64 129.326L1043.94 130.518C1046.82 128.351 1050.21 126.443 1053.33 126.985C1056.1 127.484 1058.23 129.694 1059.63 133.488C1061.17 137.692 1060.07 142.548 1059.11 146.818C1058.29 150.437 1057.51 153.84 1058.88 155.206C1060.85 157.178 1070.62 167.192 1068.78 169.945C1068.73 169.994 1068.7 170.053 1068.67 170.118C1070.87 167.688 1073.84 166.088 1077.08 165.588C1078.33 165.546 1079.57 165.798 1080.7 166.326C1081.83 166.853 1082.82 167.64 1083.59 168.623C1091.21 177.293 1081.53 192.92 1081.11 193.57C1080.97 193.779 1080.77 193.939 1080.53 194.026L1076.04 195.651Z" fill="#263238"/>
<path d="M1038.54 169.143C1037.98 171.766 1036.62 173.716 1035.51 173.478C1034.4 173.239 1033.95 170.92 1034.51 168.276C1035.08 165.632 1036.44 163.681 1037.55 163.941C1038.65 164.201 1039.19 166.499 1038.54 169.143Z" fill="#263238"/>
<path d="M1043.72 159.237C1043.52 159.243 1043.32 159.189 1043.15 159.081C1042.97 158.973 1042.83 158.816 1042.75 158.631C1041.84 156.68 1040.76 155.596 1039.52 155.401C1037.46 155.076 1035.29 157.33 1035.18 157.352C1035.08 157.453 1034.96 157.534 1034.83 157.589C1034.7 157.644 1034.56 157.672 1034.42 157.672C1034.27 157.672 1034.13 157.644 1034 157.589C1033.87 157.534 1033.75 157.453 1033.65 157.352C1033.45 157.145 1033.33 156.869 1033.33 156.582C1033.33 156.295 1033.45 156.019 1033.65 155.813C1034.43 154.962 1035.39 154.288 1036.45 153.836C1037.52 153.384 1038.67 153.164 1039.82 153.19C1040.95 153.458 1041.98 154.007 1042.83 154.784C1043.69 155.561 1044.33 156.541 1044.7 157.633C1044.78 157.799 1044.82 157.984 1044.81 158.169C1044.8 158.354 1044.74 158.533 1044.64 158.689C1044.54 158.845 1044.4 158.971 1044.24 159.056C1044.07 159.141 1043.89 159.181 1043.7 159.172L1043.72 159.237Z" fill="#263238"/>
<path d="M1027.62 197.19C1025.17 197.19 1024.41 195.998 1024.24 195.673C1024.18 195.545 1024.14 195.406 1024.13 195.263C1024.12 195.121 1024.14 194.978 1024.19 194.843C1024.23 194.708 1024.31 194.584 1024.4 194.477C1024.49 194.37 1024.61 194.283 1024.74 194.221C1024.98 194.095 1025.26 194.067 1025.52 194.144C1025.79 194.221 1026.01 194.396 1026.15 194.633C1026.43 194.958 1027.9 195.478 1031.52 194.156C1031.79 194.057 1032.1 194.07 1032.36 194.192C1032.62 194.314 1032.83 194.534 1032.93 194.806C1033.03 195.076 1033.01 195.374 1032.89 195.634C1032.77 195.894 1032.55 196.095 1032.28 196.193C1030.8 196.795 1029.22 197.133 1027.62 197.19Z" fill="#263238"/>
<path d="M1059.16 273.854C1059.16 273.854 1051.44 284.692 1048.32 304.698C1045.2 324.704 1047.8 390.032 1047.8 390.032C1047.8 390.032 1004.1 377.699 989.689 370.524C983.18 367.429 976.835 364 970.68 360.25C970.68 360.25 966.042 349.413 962.444 345.338C958.846 341.263 949.092 340.201 945.494 337.622C941.896 335.042 939.317 326.784 934.657 329.906C933.879 330.309 933.22 330.907 932.743 331.643C932.267 332.378 931.99 333.224 931.94 334.099C931.89 334.973 932.068 335.846 932.457 336.631C932.845 337.415 933.432 338.086 934.158 338.575C936.217 340.136 943.912 347.831 943.912 347.831L924.404 339.161C924.404 339.161 922.865 346.877 925.423 349.456C927.981 352.036 933.139 356.652 933.139 356.652C933.139 356.652 940.856 367.49 945.494 370.004C950.125 372.157 954.942 373.884 959.886 375.163C964.481 376.702 969.12 380.625 973.238 383.117L999.443 399.048C1013.02 407.206 1027.38 413.967 1042.32 419.228C1051.68 422.522 1074.59 432.58 1082.72 422.501C1086.23 418.166 1085.15 405.161 1086.06 399.742C1091.8 365.257 1099.21 330.556 1099.21 295.464" fill="#92E3A9"/>
<path d="M1071.43 427.963C1062.89 427.963 1052.59 424.148 1045.42 421.46L1042.03 420.225C1027.03 414.941 1012.6 408.151 998.966 399.959L981.626 389.446L972.718 384.028C971.417 383.226 970.073 382.315 968.686 381.362C965.895 379.233 962.833 377.484 959.583 376.16L958.044 375.705C953.563 374.546 949.207 372.949 945.039 370.936C940.444 368.378 933.248 358.516 932.424 357.346C931.709 356.717 927.157 352.599 924.751 350.193C921.847 347.289 923.255 339.768 923.429 338.922C923.464 338.766 923.533 338.619 923.631 338.491C923.729 338.364 923.854 338.26 923.996 338.186C924.138 338.111 924.295 338.069 924.455 338.061C924.616 338.054 924.776 338.081 924.924 338.142L938.991 344.428C936.824 342.39 934.656 340.223 933.616 339.486C932.767 338.876 932.073 338.076 931.587 337.15C931.102 336.225 930.839 335.199 930.82 334.154C930.904 333.09 931.248 332.062 931.822 331.163C932.397 330.263 933.184 329.518 934.115 328.995C938.059 326.351 940.812 330.101 943.001 333.135C943.875 334.47 944.933 335.674 946.144 336.711C948.146 337.842 950.289 338.702 952.517 339.269C956.483 340.526 960.97 341.935 963.354 344.601C966.714 348.438 970.832 357.606 971.634 359.492C972.783 360.229 977.963 363.372 990.274 369.527C1002.95 375.878 1039.09 386.39 1046.63 388.579C1046.26 378.501 1044.46 323.013 1047.21 304.524C1050.31 284.453 1057.88 273.659 1058.2 273.226C1058.29 273.108 1058.39 273.009 1058.51 272.932C1058.63 272.855 1058.77 272.804 1058.91 272.779C1059.05 272.755 1059.19 272.759 1059.33 272.791C1059.47 272.823 1059.6 272.882 1059.72 272.966C1059.95 273.135 1060.11 273.388 1060.16 273.671C1060.21 273.955 1060.14 274.246 1059.98 274.483C1059.98 274.483 1052.37 285.32 1049.36 304.828C1046.35 324.335 1048.84 389.36 1048.86 389.988C1048.87 390.16 1048.83 390.331 1048.76 390.487C1048.69 390.643 1048.58 390.78 1048.45 390.886C1048.31 390.992 1048.15 391.064 1047.98 391.096C1047.81 391.129 1047.64 391.12 1047.47 391.072C1045.7 390.552 1003.52 378.609 989.19 371.565C982.636 368.444 976.248 364.986 970.052 361.204C969.877 361.087 969.742 360.921 969.661 360.727C969.661 360.619 965.066 350.041 961.62 346.118C959.691 343.951 955.508 342.585 951.823 341.415C949.369 340.797 947.013 339.841 944.822 338.575C943.433 337.397 942.221 336.025 941.224 334.501C938.688 331.033 937.257 329.537 935.263 330.881C934.622 331.213 934.074 331.701 933.669 332.299C933.264 332.897 933.015 333.587 932.944 334.305C932.969 334.997 933.149 335.673 933.472 336.285C933.795 336.897 934.252 337.428 934.808 337.838C936.976 339.421 944.367 346.877 944.692 347.202C944.869 347.383 944.979 347.62 945.003 347.873C945.027 348.125 944.963 348.378 944.822 348.589C944.677 348.799 944.463 348.951 944.217 349.018C943.971 349.085 943.71 349.064 943.478 348.958L925.228 340.786C924.859 343.604 924.838 347.397 926.182 348.741C928.696 351.255 933.789 355.85 933.854 355.894L934.006 356.089C934.006 356.089 941.636 366.709 945.992 369.094C950.032 371.022 954.25 372.553 958.586 373.667L960.211 374.144C963.654 375.529 966.898 377.366 969.857 379.606C971.2 380.538 972.523 381.448 973.78 382.207L982.688 387.626L1000.03 398.138C1013.53 406.259 1027.82 412.991 1042.68 418.231L1046.11 419.466C1056.23 423.238 1075.11 430.304 1081.89 421.829C1084.06 419.119 1084.32 412.205 1084.52 406.656C1084.55 404.301 1084.72 401.949 1085.02 399.612C1086.03 393.456 1087.18 387.279 1088.2 381.102C1093.1 353.163 1098.15 324.248 1098.15 295.507C1098.15 295.22 1098.26 294.944 1098.47 294.741C1098.67 294.538 1098.95 294.424 1099.23 294.424C1099.52 294.424 1099.8 294.538 1100 294.741C1100.2 294.944 1100.32 295.22 1100.32 295.507C1100.32 324.422 1095.25 353.444 1090.33 381.492C1089.26 387.647 1088.16 393.803 1087.14 399.959C1086.88 401.628 1086.79 404.099 1086.68 406.721C1086.47 412.92 1086.21 419.943 1083.58 423.216C1080.96 426.489 1076.39 427.963 1071.43 427.963Z" fill="#263238"/>
<path d="M1032.26 385.458C1018.23 381.123 998.532 374.903 989.732 370.503C983.223 367.408 976.878 363.979 970.723 360.229C970.723 360.229 966.085 349.391 962.487 345.316C958.889 341.242 949.135 340.18 945.537 337.6C941.939 335.021 939.36 326.763 934.7 329.884C933.922 330.287 933.263 330.886 932.786 331.621C932.31 332.356 932.033 333.203 931.983 334.077C931.933 334.952 932.111 335.824 932.5 336.609C932.889 337.394 933.475 338.064 934.201 338.554C936.26 340.114 943.955 347.809 943.955 347.809L924.447 339.139C924.447 339.139 922.908 346.855 925.466 349.435C928.024 352.014 933.182 356.631 933.182 356.631C933.182 356.631 940.899 367.468 945.537 369.982C950.168 372.136 954.985 373.862 959.929 375.141C964.524 376.68 969.163 380.603 973.281 383.096L999.486 399.027C1007.93 404.105 1016.68 408.644 1025.69 412.617L1032.26 385.458Z" fill="white"/>
<path d="M1025.69 413.701C1025.55 413.733 1025.4 413.733 1025.26 413.701C1016.2 409.727 1007.4 405.173 998.923 400.067L981.583 389.555L972.675 384.136C971.374 383.334 970.03 382.424 968.643 381.47C965.852 379.342 962.791 377.593 959.54 376.268L958.001 375.813C953.52 374.654 949.164 373.057 944.996 371.045C940.401 368.487 933.205 358.625 932.381 357.454C931.666 356.826 927.114 352.708 924.708 350.302C921.804 347.397 923.213 339.876 923.386 339.031C923.421 338.874 923.49 338.727 923.588 338.6C923.686 338.473 923.811 338.368 923.953 338.294C924.095 338.22 924.252 338.177 924.412 338.17C924.573 338.162 924.733 338.19 924.881 338.25L938.948 344.536C936.781 342.499 934.613 340.331 933.573 339.594C932.718 338.969 932.023 338.15 931.544 337.204C931.066 336.259 930.818 335.213 930.82 334.154C930.904 333.09 931.248 332.062 931.823 331.163C932.397 330.263 933.185 329.519 934.115 328.995C938.06 326.351 940.813 330.122 943.002 333.135C943.875 334.47 944.933 335.674 946.145 336.712C948.146 337.842 950.289 338.702 952.517 339.269C956.484 340.526 960.97 341.935 963.354 344.601C966.714 348.438 970.832 357.606 971.634 359.492C972.783 360.229 977.963 363.372 990.275 369.527C998.945 373.862 1018.06 379.996 1032.61 384.418C1032.87 384.499 1033.1 384.678 1033.24 384.919C1033.38 385.16 1033.43 385.446 1033.36 385.718L1026.86 412.855C1026.82 413.01 1026.75 413.155 1026.65 413.279C1026.55 413.402 1026.42 413.502 1026.28 413.571C1026.1 413.673 1025.9 413.718 1025.69 413.701ZM925.293 340.7C924.925 343.517 924.903 347.311 926.247 348.654C928.761 351.169 933.855 355.764 933.92 355.807L934.072 356.002C934.072 356.002 941.701 366.623 946.058 369.007C950.098 370.935 954.315 372.467 958.651 373.58L960.277 374.057C963.72 375.442 966.963 377.279 969.922 379.519C971.266 380.451 972.588 381.362 973.845 382.12L982.753 387.539L1000.09 398.051C1008.11 402.892 1016.42 407.235 1024.98 411.056L1031 386.152C1016.5 381.817 997.861 375.705 989.299 371.435C982.745 368.314 976.357 364.856 970.16 361.074C969.986 360.957 969.85 360.791 969.77 360.597C969.77 360.489 965.175 349.912 961.729 345.988C959.8 343.821 955.616 342.455 951.932 341.285C949.478 340.667 947.122 339.711 944.931 338.446C943.542 337.267 942.33 335.895 941.333 334.371C938.797 330.903 937.366 329.407 935.372 330.751C934.731 331.083 934.183 331.571 933.778 332.169C933.373 332.767 933.124 333.457 933.053 334.176C933.078 334.867 933.258 335.543 933.581 336.155C933.904 336.767 934.36 337.298 934.917 337.709C937.084 339.291 944.476 346.747 944.801 347.072C944.978 347.253 945.088 347.49 945.112 347.743C945.136 347.995 945.072 348.248 944.931 348.459C944.786 348.669 944.572 348.821 944.326 348.888C944.08 348.956 943.819 348.934 943.587 348.828L925.293 340.7Z" fill="#263238"/>
<path d="M1062.76 406.028C1062.47 406.026 1062.19 405.918 1061.98 405.724L1050.03 393.825L1052.94 403.622C1053.01 403.898 1052.98 404.192 1052.84 404.442C1052.7 404.693 1052.47 404.88 1052.2 404.966C1052.06 405.009 1051.92 405.023 1051.78 405.009C1051.63 404.995 1051.5 404.953 1051.37 404.884C1051.25 404.815 1051.13 404.721 1051.05 404.609C1050.96 404.496 1050.89 404.367 1050.86 404.229L1046.74 390.357C1046.67 390.124 1046.69 389.877 1046.77 389.651C1046.86 389.426 1047.01 389.233 1047.21 389.1C1047.42 388.981 1047.67 388.933 1047.9 388.965C1048.14 388.996 1048.37 389.104 1048.54 389.273L1063.45 404.185C1063.55 404.286 1063.63 404.406 1063.69 404.538C1063.74 404.67 1063.77 404.812 1063.77 404.955C1063.77 405.098 1063.74 405.24 1063.69 405.372C1063.63 405.504 1063.55 405.624 1063.45 405.724C1063.26 405.902 1063.01 406.01 1062.76 406.028V406.028Z" fill="#263238"/>
</svg>
