<svg width="1610" height="1265" viewBox="0 0 1610 1265" fill="none" xmlns="http://www.w3.org/2000/svg">
<path d="M1040.15 909.05V1078.89H377.053V909.05H252.383V1156.96C252.376 1161.54 253.271 1166.07 255.018 1170.3C256.766 1174.53 259.331 1178.38 262.566 1181.62C265.802 1184.86 269.645 1187.42 273.874 1189.17C278.104 1190.93 282.638 1191.83 287.216 1191.82H342.22C351.453 1191.82 360.309 1188.16 366.84 1181.63C373.372 1175.1 377.045 1166.25 377.053 1157.02V1145.58H437.451L465.728 1127.7H948.911L984.906 1148.26H1040.15V1157.2C1040.16 1166.43 1043.83 1175.28 1050.36 1181.81C1056.89 1188.33 1065.75 1192 1074.98 1192H1129.99C1134.56 1192 1139.09 1191.11 1143.31 1189.36C1147.54 1187.61 1151.38 1185.05 1154.61 1181.82C1157.85 1178.58 1160.42 1174.75 1162.17 1170.52C1163.92 1166.3 1164.82 1161.77 1164.82 1157.2V909.05H1040.15Z" fill="#263238" stroke="#263238" stroke-width="0.709907" stroke-miterlimit="10" stroke-linecap="round"/>
<path d="M1139.1 787.033C1133.98 776.723 1092.86 734.322 1092.86 734.322C1092.86 734.322 1014.64 585.16 1001.62 560.846C976.891 514.721 936.069 522.289 936.069 522.289L707.32 510.728L706.038 511.085L704.757 510.728L476.008 522.289C476.008 522.289 434.114 517.998 410.455 560.846C397.106 584.981 319.217 734.322 319.217 734.322C319.217 734.322 278.098 776.723 272.943 787.033C267.788 797.342 247.288 835.84 247.288 843.498C247.288 850.381 252.383 967.243 275.267 1054.49C277.855 1064.11 282.753 1072.96 289.534 1080.26C296.316 1087.56 304.776 1093.09 314.182 1096.38C318.726 1098.21 323.436 1099.6 328.246 1100.52H495.316L537.717 1027.28C553.964 1013.82 574.451 1006.54 595.552 1006.72H816.584C837.685 1006.54 858.172 1013.82 874.42 1027.28L916.82 1100.52H1083.89C1088.69 1099.6 1093.39 1098.21 1097.92 1096.38C1107.34 1093.1 1115.81 1087.57 1122.59 1080.26C1129.38 1072.96 1134.28 1064.11 1136.87 1054.49C1159.75 967.243 1164.85 850.381 1164.85 843.498C1164.82 835.84 1144.17 797.313 1139.1 787.033Z" fill="#92E3A9" stroke="#263238" stroke-width="0.709907" stroke-miterlimit="10" stroke-linecap="round"/>
<path d="M495.287 1100.58L486.348 1121.14H923.227L916.791 1100.58L874.39 1027.34C874.39 1027.34 857.674 1008.06 816.555 1006.78C775.435 1005.5 595.523 1006.78 595.523 1006.78C574.363 1006.24 553.754 1013.56 537.687 1027.34L495.287 1100.58Z" fill="#787878" stroke="#263238" stroke-width="0.709907" stroke-miterlimit="10" stroke-linecap="round"/>
<path d="M532.532 856.429C532.532 856.429 567.245 918.108 577.525 928.388C587.805 938.668 599.366 938.668 613.519 939.949C627.673 941.231 821.679 939.949 821.679 939.949C821.679 939.949 837.114 937.387 844.831 925.826C852.548 914.265 878.233 856.429 878.233 856.429H532.532Z" fill="#263238" stroke="#263238" stroke-width="0.709907" stroke-miterlimit="10" stroke-linecap="round"/>
<path d="M566.977 864.802C566.977 864.802 594.748 914.175 603.001 922.429C611.255 930.683 620.492 930.653 631.815 931.696C643.137 932.739 798.527 931.696 798.527 931.696C798.527 931.696 810.893 929.64 817.061 920.373C823.229 911.106 843.878 864.802 843.878 864.802H566.977Z" fill="#787878" stroke="#263238" stroke-width="0.709907" stroke-miterlimit="10" stroke-linecap="round"/>
<path d="M850.373 1078.89L842.686 1057.65C840.303 1051.1 835.935 1045.46 830.192 1041.52C824.45 1037.58 817.619 1035.53 810.654 1035.66L601.928 1037.77C594.757 1037.92 587.825 1040.37 582.157 1044.77C576.49 1049.16 572.389 1055.27 570.463 1062.18L565.278 1078.89H850.373Z" fill="#263238" stroke="#263238" stroke-width="0.709907" stroke-miterlimit="10" stroke-linecap="round"/>
<path d="M562.061 1089.02L555.685 1109.58H861.518L854.099 1089.02H562.061Z" fill="#263238" stroke="#263238" stroke-width="0.709907" stroke-miterlimit="10" stroke-linecap="round"/>
<path d="M1092.86 734.322C1092.86 734.322 1099.27 684.204 1110.74 684.204C1122.21 684.204 1173.7 698.358 1174.98 708.638C1176.26 718.917 1164.7 730.479 1154.42 733.041C1144.14 735.604 1122.3 738.196 1122.3 738.196L1117.35 757.474L1092.86 734.322Z" fill="#92E3A9" stroke="#263238" stroke-width="0.709907" stroke-miterlimit="10" stroke-linecap="round"/>
<path d="M319.218 734.322C319.218 734.322 312.781 684.204 301.34 684.204C289.898 684.204 238.379 698.358 237.098 708.638C235.816 718.917 247.378 730.479 257.658 733.041C267.937 735.604 289.778 738.196 289.778 738.196L294.903 757.474L319.218 734.322Z" fill="#92E3A9" stroke="#263238" stroke-width="0.709907" stroke-miterlimit="10" stroke-linecap="round"/>
<path d="M353.901 704.764C353.901 704.764 855.112 685.486 1054.3 704.764L966.909 545.53C966.909 545.53 740.722 517.253 446.449 546.812C446.449 546.692 386.052 641.804 353.901 704.764Z" fill="white" stroke="#263238" stroke-width="0.709907" stroke-miterlimit="10" stroke-linecap="round"/>
<path d="M468.291 849.993C468.291 849.993 491.413 874.397 499.13 919.39C499.13 919.39 389.895 914.235 347.495 897.549C305.094 880.863 299.82 879.671 298.658 871.834C297.496 863.998 301.22 808.874 317.936 799.875C334.652 790.876 352.62 793.439 369.336 806.281C386.052 819.124 406.611 838.432 418.172 842.276C429.734 846.12 468.291 849.993 468.291 849.993Z" fill="white" stroke="#263238" stroke-width="0.709907" stroke-miterlimit="10" stroke-linecap="round"/>
<path d="M384.615 875.024C396.379 863.26 396.379 844.186 384.615 832.422C372.85 820.657 353.777 820.657 342.012 832.422C330.248 844.186 330.248 863.26 342.012 875.024C353.776 886.788 372.85 886.788 384.615 875.024Z" fill="white" stroke="#263238" stroke-width="0.709907" stroke-miterlimit="10" stroke-linecap="round"/>
<path d="M447.224 891.381C447.224 894.152 446.402 896.861 444.862 899.164C443.321 901.468 441.132 903.263 438.572 904.322C436.011 905.381 433.194 905.657 430.476 905.114C427.759 904.571 425.263 903.234 423.306 901.273C421.349 899.311 420.017 896.813 419.48 894.095C418.943 891.376 419.225 888.559 420.289 886.001C421.354 883.442 423.154 881.257 425.461 879.722C427.768 878.187 430.478 877.37 433.249 877.376C435.087 877.376 436.906 877.739 438.604 878.443C440.301 879.147 441.843 880.179 443.141 881.48C444.439 882.781 445.468 884.325 446.169 886.024C446.869 887.723 447.228 889.543 447.224 891.381Z" fill="white" stroke="#263238" stroke-width="0.709907" stroke-miterlimit="10" stroke-linecap="round"/>
<path d="M947.512 849.993C947.512 849.993 924.36 874.397 916.643 919.39C916.643 919.39 1025.88 914.235 1068.31 897.549C1110.74 880.863 1115.98 879.671 1117.14 871.834C1118.31 863.998 1114.55 808.874 1097.87 799.875C1081.18 790.877 1063.15 793.439 1046.44 806.282C1029.72 819.124 1009.19 838.432 997.63 842.276C986.069 846.12 947.512 849.993 947.512 849.993Z" fill="white" stroke="#263238" stroke-width="0.709907" stroke-miterlimit="10" stroke-linecap="round"/>
<path d="M1066.23 883.083C1082.42 879.244 1092.43 863.009 1088.59 846.82C1084.75 830.632 1068.52 820.621 1052.33 824.459C1036.14 828.298 1026.13 844.533 1029.97 860.722C1033.81 876.91 1050.04 886.921 1066.23 883.083Z" fill="white" stroke="#263238" stroke-width="0.709907" stroke-miterlimit="10" stroke-linecap="round"/>
<path d="M975.4 891.381C975.4 894.152 976.223 896.861 977.763 899.165C979.303 901.468 981.492 903.263 984.053 904.322C986.613 905.381 989.431 905.657 992.148 905.114C994.865 904.571 997.361 903.235 999.318 901.273C1001.28 899.312 1002.61 896.813 1003.14 894.095C1003.68 891.376 1003.4 888.559 1002.33 886.001C1001.27 883.443 999.471 881.257 997.164 879.722C994.857 878.187 992.146 877.371 989.375 877.376C987.537 877.376 985.718 877.739 984.02 878.443C982.323 879.147 980.781 880.179 979.483 881.48C978.185 882.781 977.156 884.325 976.456 886.024C975.755 887.723 975.397 889.543 975.4 891.381Z" fill="white" stroke="#263238" stroke-width="0.709907" stroke-miterlimit="10" stroke-linecap="round"/>
<path d="M1085.14 964.353C1085.14 964.353 965.627 987.505 960.472 991.349C955.317 995.193 945.067 1017.06 945.067 1017.06L969.471 1010.63C969.471 1010.63 1026.08 1013.19 1045.3 1004.19C1064.52 995.193 1085.14 964.353 1085.14 964.353Z" fill="#263238" stroke="#263238" stroke-width="0.709907" stroke-miterlimit="10" stroke-linecap="round"/>
<path d="M335.934 964.353C335.934 964.353 455.448 987.505 460.573 991.349C465.698 995.193 476.008 1017.06 476.008 1017.06L451.575 1010.63C451.575 1010.63 394.961 1013.19 375.772 1004.19C356.583 995.193 335.934 964.353 335.934 964.353Z" fill="#263238" stroke="#263238" stroke-width="0.709907" stroke-miterlimit="10" stroke-linecap="round"/>
<path d="M935.354 869.778L903.441 859.141H878.233" stroke="#263238" stroke-width="0.709907" stroke-miterlimit="10" stroke-linecap="round"/>
<path d="M482.444 868.259L503.719 856.102L532.532 856.399" stroke="#263238" stroke-width="0.709907" stroke-miterlimit="10" stroke-linecap="round"/>
<path d="M1025.82 726.039C1029.07 724.192 1032.34 722.434 1035.65 720.825" stroke="#263238" stroke-width="0.709907" stroke-miterlimit="10" stroke-linecap="round"/>
<path d="M884.342 908.484C904.455 864.266 950.431 776.366 1014.67 732.982" stroke="#263238" stroke-width="0.709907" stroke-miterlimit="10" stroke-linecap="round"/>
<path d="M873.019 935.122C873.019 935.122 874.598 930.921 877.667 923.621" stroke="#263238" stroke-width="0.709907" stroke-miterlimit="10" stroke-linecap="round"/>
<path d="M397.195 732.982C391.852 729.724 386.33 726.685 380.628 723.864" stroke="#263238" stroke-width="0.709907" stroke-miterlimit="10" stroke-linecap="round"/>
<path d="M525.917 909.438C512.747 870.106 478.451 788.731 408.518 740.312" stroke="#263238" stroke-width="0.709907" stroke-miterlimit="10" stroke-linecap="round"/>
<path d="M532.591 932.083C532.591 932.083 531.668 928.001 529.612 920.909" stroke="#263238" stroke-width="0.709907" stroke-miterlimit="10" stroke-linecap="round"/>
<path d="M344.158 795.287C344.158 795.287 330.481 761.855 330.481 742.099L344.158 795.287Z" fill="white"/>
<path d="M344.158 795.287C344.158 795.287 330.481 761.855 330.481 742.099" stroke="#263238" stroke-width="0.709907" stroke-miterlimit="10" stroke-linecap="round"/>
<path d="M1075.16 793.767C1078.85 779.784 1081.39 765.524 1082.76 751.128L1075.16 793.767Z" fill="white"/>
<path d="M1075.16 793.767C1078.85 779.784 1081.39 765.524 1082.76 751.128" stroke="#263238" stroke-width="0.709907" stroke-miterlimit="10" stroke-linecap="round"/>
<path d="M1122.3 936.642L1113.18 1055.05L944.531 1062.77C944.531 1062.77 915.658 1027.82 914.138 1012.62C912.618 997.428 933.893 974.633 939.972 973.113C946.05 971.594 1052.42 950.319 1052.42 950.319" stroke="#263238" stroke-width="0.709907" stroke-miterlimit="10" stroke-linecap="round"/>
<path d="M296.959 936.642L306.077 1055.05L474.786 1062.65C474.786 1062.65 503.659 1027.7 505.179 1012.5C506.698 997.308 485.424 974.514 479.345 972.994C473.267 971.474 366.863 950.2 366.863 950.2" stroke="#263238" stroke-width="0.709907" stroke-miterlimit="10" stroke-linecap="round"/>
<path d="M578.985 885.213L702.999 895.135C708.265 895.552 713.555 895.552 718.821 895.135L833.121 886.196" stroke="#263238" stroke-width="0.709907" stroke-miterlimit="10" stroke-linecap="round"/>
<path d="M587.149 898.025L702.999 907.292C708.264 907.724 713.556 907.724 718.821 907.292L829.069 898.741" stroke="#263238" stroke-width="0.709907" stroke-miterlimit="10" stroke-linecap="round"/>
<path d="M595.462 911.017L702.999 919.628C708.265 920.03 713.554 920.03 718.821 919.628L823.556 911.494" stroke="#263238" stroke-width="0.709907" stroke-miterlimit="10" stroke-linecap="round"/>
<path d="M666.528 626.399C609.05 660.188 451.991 690.283 370.795 704.168C459.768 701.01 876.863 687.601 1054.3 704.764L976.056 562.068C862.292 554.469 725.496 591.715 666.528 626.399Z" fill="#787878"/>
<path d="M353.901 704.764C353.901 704.764 855.112 685.486 1054.3 704.764L966.909 545.53C966.909 545.53 740.722 517.253 446.449 546.812C446.449 546.692 386.052 641.804 353.901 704.764Z" stroke="#263238" stroke-width="0.709907" stroke-miterlimit="10" stroke-linecap="round"/>
<path d="M510.274 724.549C510.274 724.549 513.254 733.339 536.674 755.359C560.094 777.379 579.224 746.569 604.194 733.339C629.163 720.109 599.784 708.399 689.293 772.969C778.802 837.538 818.402 850.738 853.622 812.568C888.842 774.399 938.721 717.219 962.201 730.419C985.681 743.619 1000.37 768.559 1020.9 768.559C1041.43 768.559 1067.86 727.469 1067.86 727.469" stroke="white" stroke-width="0.709907" stroke-miterlimit="10" stroke-linecap="round"/>
<path d="M510.274 731.879C510.274 731.879 513.254 740.818 536.674 762.689C560.094 784.56 579.224 753.899 604.194 740.699C629.163 727.499 599.784 715.729 689.293 780.299C778.802 844.868 818.402 858.068 853.622 819.928C888.842 781.789 938.721 724.579 962.201 737.749C985.681 750.919 1000.37 775.889 1020.9 775.889C1041.43 775.889 1067.86 734.829 1067.86 734.829" stroke="#263238" stroke-width="0.709907" stroke-miterlimit="10" stroke-linecap="round"/>
<path d="M315.046 764.864C315.046 764.864 268.593 809.112 269.696 844.511C270.798 879.909 302.889 885.451 308.431 910.898C313.974 936.344 369.276 952.941 423.477 938.549C477.677 924.157 500.948 938.549 517.515 968.346C534.082 998.142 561.733 1000.5 583.991 989.501" stroke="#263238" stroke-width="0.709907" stroke-miterlimit="10" stroke-linecap="round"/>
<path d="M320.588 759.322C320.588 759.322 274.105 803.6 275.238 838.998C276.37 874.397 308.401 879.909 313.973 905.356C319.545 930.802 374.788 947.399 429.048 932.888C483.308 918.377 506.52 932.888 523.087 962.685C539.654 992.481 567.335 994.746 589.444 983.691" stroke="white" stroke-width="0.709907" stroke-miterlimit="10" stroke-linecap="round"/>
<path d="M1130.34 819.064C1130.34 819.064 1120.39 896.536 1090.54 910.898C1060.68 925.26 937.857 936.344 909.103 956.248C880.35 976.153 879.307 1019.3 879.307 1019.3" stroke="white" stroke-width="0.709907" stroke-miterlimit="10" stroke-linecap="round"/>
<path d="M1130.34 825.62C1130.34 825.62 1120.33 903.091 1090.54 917.543C1060.74 931.994 937.857 942.959 909.103 962.893C880.35 982.827 879.307 1025.94 879.307 1025.94" stroke="#263238" stroke-width="0.709907" stroke-miterlimit="10" stroke-linecap="round"/>
<path d="M732.141 537.902C732.141 537.902 749.721 534.923 760.06 562.693C770.4 590.464 788.993 657.804 820.011 658.818C851.03 659.831 856.184 598.867 873.645 574.076C891.106 549.285 924.3 554.44 943.906 571.096" stroke="white" stroke-width="0.709907" stroke-miterlimit="10" stroke-linecap="round"/>
<path d="M731.098 544.1C731.098 544.1 748.678 541.12 759.017 568.891C769.357 596.661 787.95 664.002 818.968 665.015C849.987 666.028 855.141 605.124 872.722 580.273C890.302 555.423 923.376 560.637 943.012 577.294" stroke="#263238" stroke-width="0.709907" stroke-miterlimit="10" stroke-linecap="round"/>
<path d="M350.713 756.759C350.713 756.759 364.241 766.235 381.85 787.897C399.46 809.559 406.194 798.713 414.329 782.474C422.463 766.235 441.384 801.425 457.624 825.798C473.863 850.172 477.945 854.224 480.656 840.697" stroke="white" stroke-width="0.709907" stroke-miterlimit="10" stroke-linecap="round"/>
<path d="M350.176 762.093C350.176 762.093 363.704 771.568 381.314 793.201C398.924 814.833 405.658 804.047 413.792 787.807C421.927 771.568 440.848 806.758 457.117 831.102C473.386 855.446 477.408 859.528 480.12 846" stroke="#263238" stroke-width="0.709907" stroke-miterlimit="10" stroke-linecap="round"/>
<path d="M1198.94 551.918H1001.53C996.298 551.918 992.058 556.159 992.058 561.39V732.644C992.058 737.875 996.298 742.116 1001.53 742.116H1198.94C1204.18 742.116 1208.42 737.875 1208.42 732.644V561.39C1208.42 556.159 1204.18 551.918 1198.94 551.918Z" fill="#263238"/>
<path d="M1198.94 743.243H1001.53C998.732 743.237 996.05 742.123 994.072 740.145C992.093 738.166 990.979 735.485 990.974 732.687V561.455C990.974 558.656 992.086 555.971 994.065 553.991C996.045 552.012 998.73 550.9 1001.53 550.9H1198.94C1201.74 550.905 1204.42 552.019 1206.4 553.998C1208.38 555.976 1209.49 558.658 1209.5 561.455V732.687C1209.49 735.485 1208.38 738.166 1206.4 740.145C1204.42 742.123 1201.74 743.237 1198.94 743.243ZM1001.53 553.045C999.305 553.045 997.171 553.929 995.598 555.502C994.025 557.075 993.141 559.209 993.141 561.434V732.665C993.147 734.888 994.032 737.019 995.604 738.59C997.176 740.162 999.306 741.048 1001.53 741.054H1198.94C1201.17 741.048 1203.3 740.162 1204.87 738.59C1206.44 737.019 1207.33 734.888 1207.33 732.665V561.434C1207.33 559.209 1206.45 557.075 1204.88 555.502C1203.3 553.929 1201.17 553.045 1198.94 553.045H1001.53Z" fill="#263238"/>
<path d="M1192.07 541.601H994.657C989.426 541.601 985.186 545.842 985.186 551.073V722.326C985.186 727.558 989.426 731.798 994.657 731.798H1192.07C1197.3 731.798 1201.54 727.558 1201.54 722.326V551.073C1201.54 545.842 1197.3 541.601 1192.07 541.601Z" fill="white"/>
<path d="M1192.07 732.904H994.658C991.86 732.898 989.179 731.784 987.201 729.806C985.222 727.827 984.108 725.146 984.103 722.348V551.116C984.103 548.315 985.214 545.628 987.193 543.645C989.172 541.662 991.857 540.545 994.658 540.539H1192.07C1194.87 540.545 1197.56 541.662 1199.54 543.645C1201.52 545.628 1202.63 548.315 1202.63 551.116V722.348C1202.62 725.146 1201.51 727.827 1199.53 729.806C1197.55 731.784 1194.87 732.898 1192.07 732.904ZM994.658 542.685C992.432 542.691 990.298 543.579 988.726 545.156C987.153 546.732 986.27 548.868 986.27 551.095V722.326C986.276 724.549 987.161 726.68 988.733 728.251C990.305 729.823 992.435 730.709 994.658 730.715H1192.07C1194.3 730.709 1196.43 729.823 1198 728.251C1199.57 726.68 1200.46 724.549 1200.46 722.326V551.095C1200.46 548.868 1199.58 546.732 1198.01 545.156C1196.43 543.579 1194.3 542.691 1192.07 542.685H994.658Z" fill="#263238"/>
<path d="M1032.7 617.767H1012.74V710.037H1032.7V617.767Z" fill="#263238"/>
<path d="M1032.68 711.142H1012.74C1012.45 711.142 1012.17 711.028 1011.97 710.825C1011.77 710.622 1011.65 710.346 1011.65 710.058V617.767C1011.65 617.479 1011.77 617.204 1011.97 617C1012.17 616.797 1012.45 616.683 1012.74 616.683H1032.68C1032.96 616.683 1033.24 616.797 1033.44 617C1033.65 617.204 1033.76 617.479 1033.76 617.767V710.058C1033.76 710.346 1033.65 710.622 1033.44 710.825C1033.24 711.028 1032.96 711.142 1032.68 711.142ZM1013.82 708.975H1031.59V618.85H1013.82V708.975Z" fill="#263238"/>
<path d="M1060.96 632.722H1041V710.037H1060.96V632.722Z" fill="#92E3A9"/>
<path d="M1060.94 711.142H1041.11C1040.82 711.142 1040.54 711.028 1040.34 710.825C1040.14 710.621 1040.02 710.346 1040.02 710.058V632.701C1040.02 632.413 1040.14 632.138 1040.34 631.934C1040.54 631.731 1040.82 631.617 1041.11 631.617H1061.05C1061.34 631.617 1061.61 631.731 1061.81 631.934C1062.02 632.138 1062.13 632.413 1062.13 632.701V710.015C1062.14 710.171 1062.11 710.326 1062.05 710.47C1062 710.614 1061.91 710.744 1061.79 710.851C1061.68 710.958 1061.55 711.04 1061.4 711.09C1061.25 711.14 1061.09 711.158 1060.94 711.142ZM1042.08 708.975H1059.86V633.828H1042.08V708.975Z" fill="#263238"/>
<path d="M1089.23 645.207H1069.26V710.058H1089.23V645.207Z" fill="white"/>
<path d="M1089.2 711.142H1069.28C1069 711.142 1068.72 711.028 1068.52 710.825C1068.32 710.622 1068.2 710.346 1068.2 710.058V645.207C1068.2 644.92 1068.32 644.644 1068.52 644.441C1068.72 644.238 1069 644.123 1069.28 644.123H1089.23C1089.51 644.123 1089.79 644.238 1089.99 644.441C1090.2 644.644 1090.31 644.92 1090.31 645.207V710.058C1090.31 710.203 1090.28 710.345 1090.23 710.478C1090.17 710.611 1090.09 710.732 1089.98 710.833C1089.88 710.933 1089.76 711.013 1089.63 711.066C1089.49 711.119 1089.35 711.145 1089.2 711.142ZM1070.35 708.975H1088.12V646.291H1070.35V708.975Z" fill="#263238"/>
<path d="M1117.49 606.951H1097.53V710.037H1117.49V606.951Z" fill="#263238"/>
<path d="M1117.47 711.142H1097.46C1097.17 711.142 1096.9 711.028 1096.7 710.825C1096.49 710.622 1096.38 710.346 1096.38 710.058V606.951C1096.38 606.664 1096.49 606.388 1096.7 606.185C1096.9 605.981 1097.17 605.867 1097.46 605.867H1117.4C1117.69 605.867 1117.97 605.981 1118.17 606.185C1118.37 606.388 1118.49 606.664 1118.49 606.951V710.058C1118.49 710.335 1118.38 710.601 1118.19 710.803C1118 711.004 1117.74 711.126 1117.47 711.142ZM1098.61 708.975H1116.38V608.035H1098.61V708.975Z" fill="#263238"/>
<path d="M1145.75 619.436H1125.79V710.058H1145.75V619.436Z" fill="#92E3A9"/>
<path d="M1145.73 711.142H1125.79C1125.5 711.142 1125.23 711.028 1125.03 710.825C1124.82 710.621 1124.71 710.346 1124.71 710.058V619.436C1124.71 619.148 1124.82 618.873 1125.03 618.669C1125.23 618.466 1125.5 618.352 1125.79 618.352H1145.73C1146.02 618.352 1146.3 618.466 1146.5 618.669C1146.7 618.873 1146.82 619.148 1146.82 619.436V710.058C1146.82 710.346 1146.7 710.621 1146.5 710.825C1146.3 711.028 1146.02 711.142 1145.73 711.142ZM1126.88 708.975H1144.65V620.519H1126.88V708.975Z" fill="#263238"/>
<path d="M1174.02 576.194H1154.06V710.037H1174.02V576.194Z" fill="white"/>
<path d="M1174.02 711.142H1154.06C1153.77 711.142 1153.49 711.028 1153.29 710.825C1153.09 710.621 1152.97 710.346 1152.97 710.058V576.194C1152.97 575.907 1153.09 575.631 1153.29 575.428C1153.49 575.225 1153.77 575.11 1154.06 575.11H1174.02C1174.3 575.116 1174.58 575.232 1174.78 575.434C1174.98 575.636 1175.1 575.909 1175.1 576.194V710.058C1175.1 710.344 1174.98 710.617 1174.78 710.819C1174.58 711.021 1174.3 711.137 1174.02 711.142ZM1155.14 708.975H1172.93V577.278H1155.14V708.975Z" fill="#263238"/>
<path d="M1034.04 565.509H1014.08V567.676H1034.04V565.509Z" fill="#263238"/>
<path d="M1034.04 573.81H1014.08V575.978H1034.04V573.81Z" fill="#263238"/>
<path d="M1034.04 582.133H1014.08V584.301H1034.04V582.133Z" fill="#263238"/>
<path d="M1121.3 565.509H1040.67V567.676H1121.3V565.509Z" fill="#263238"/>
<path d="M1121.3 573.81H1040.67V575.978H1121.3V573.81Z" fill="#263238"/>
<path d="M1121.3 582.133H1040.67V584.301H1121.3V582.133Z" fill="#263238"/>
<path d="M1214.37 319.073H1016.96C1011.72 319.073 1007.48 323.314 1007.48 328.545V499.798C1007.48 505.029 1011.72 509.27 1016.96 509.27H1214.37C1219.6 509.27 1223.84 505.029 1223.84 499.798V328.545C1223.84 323.314 1219.6 319.073 1214.37 319.073Z" fill="#263238"/>
<path d="M1214.37 510.376H1017C1014.2 510.37 1011.52 509.256 1009.54 507.278C1007.56 505.299 1006.45 502.618 1006.44 499.82V328.588C1006.44 327.199 1006.71 325.823 1007.24 324.539C1007.77 323.254 1008.54 322.087 1009.53 321.102C1010.51 320.118 1011.67 319.337 1012.95 318.803C1014.23 318.268 1015.61 317.992 1017 317.989H1214.41C1217.21 317.995 1219.89 319.109 1221.87 321.087C1223.85 323.065 1224.96 325.747 1224.97 328.545V499.776C1224.97 501.169 1224.7 502.549 1224.17 503.836C1223.64 505.123 1222.86 506.293 1221.87 507.278C1220.89 508.262 1219.72 509.043 1218.43 509.575C1217.14 510.106 1215.76 510.378 1214.37 510.376ZM1017 320.157C1014.78 320.162 1012.64 321.048 1011.07 322.62C1009.5 324.192 1008.62 326.322 1008.61 328.545V499.776C1008.62 501.999 1009.5 504.13 1011.07 505.702C1012.64 507.273 1014.78 508.159 1017 508.165H1214.41C1216.64 508.159 1218.77 507.273 1220.34 505.702C1221.91 504.13 1222.8 501.999 1222.8 499.776V328.545C1222.8 326.322 1221.91 324.192 1220.34 322.62C1218.77 321.048 1216.64 320.162 1214.41 320.157H1017Z" fill="#263238"/>
<path d="M1205.2 308.062H1007.79C1002.55 308.062 998.313 312.303 998.313 317.534V488.787C998.313 494.019 1002.55 498.259 1007.79 498.259H1205.2C1210.43 498.259 1214.67 494.019 1214.67 488.787V317.534C1214.67 312.303 1210.43 308.062 1205.2 308.062Z" fill="white"/>
<path d="M1205.2 499.365H1007.79C1004.99 499.359 1002.31 498.245 1000.33 496.267C998.35 494.288 997.236 491.607 997.23 488.809V317.577C997.23 314.776 998.342 312.089 1000.32 310.106C1002.3 308.123 1004.98 307.006 1007.79 307H1205.2C1208 307.006 1210.69 308.123 1212.67 310.106C1214.65 312.089 1215.76 314.776 1215.76 317.577V488.809C1215.75 491.607 1214.64 494.288 1212.66 496.267C1210.68 498.245 1208 499.359 1205.2 499.365ZM1007.79 309.146C1005.56 309.152 1003.43 310.04 1001.85 311.617C1000.28 313.193 999.398 315.329 999.398 317.556V488.787C999.404 491.01 1000.29 493.141 1001.86 494.712C1003.43 496.284 1005.56 497.17 1007.79 497.176H1205.2C1207.42 497.17 1209.55 496.284 1211.13 494.712C1212.7 493.141 1213.58 491.01 1213.59 488.787V317.556C1213.59 315.329 1212.71 313.193 1211.13 311.617C1209.56 310.04 1207.43 309.152 1205.2 309.146H1007.79Z" fill="#263238"/>
<path d="M1021.85 462.279H1019.69V469.627H1021.85V462.279Z" fill="#263238"/>
<path d="M1039.47 462.279H1037.31V469.627H1039.47V462.279Z" fill="#263238"/>
<path d="M1057.1 462.279H1054.93V469.627H1057.1V462.279Z" fill="#263238"/>
<path d="M1074.72 462.279H1072.55V469.627H1074.72V462.279Z" fill="#263238"/>
<path d="M1092.34 462.279H1090.17V469.627H1092.34V462.279Z" fill="#263238"/>
<path d="M1109.96 462.279H1107.79V469.627H1109.96V462.279Z" fill="#263238"/>
<path d="M1127.58 462.279H1125.42V469.627H1127.58V462.279Z" fill="#263238"/>
<path d="M1145.2 462.279H1143.04V469.627H1145.2V462.279Z" fill="#263238"/>
<path d="M1162.83 462.279H1160.66V469.627H1162.83V462.279Z" fill="#263238"/>
<path d="M1180.45 462.279H1178.28V469.627H1180.45V462.279Z" fill="#263238"/>
<path d="M1198.07 462.279H1195.9V469.627H1198.07V462.279Z" fill="#263238"/>
<path d="M1189.64 359.475L1170.54 369.771L1155.13 338.927L1135.3 364.612L1117.68 349.201L1100.79 330.105L1083.17 350.675L1065.55 400.592L1046.45 382.234L1027.38 396.192V442.446H1189.64V359.475Z" fill="#92E3A9"/>
<path d="M1189.64 443.53H1027.38C1027.09 443.53 1026.82 443.416 1026.61 443.213C1026.41 443.01 1026.3 442.734 1026.3 442.446V396.192C1026.29 396.023 1026.33 395.856 1026.41 395.705C1026.48 395.554 1026.59 395.424 1026.73 395.325L1045.83 381.367C1046.02 381.208 1046.27 381.122 1046.52 381.122C1046.77 381.122 1047.02 381.208 1047.21 381.367L1065.1 398.555L1082.15 350.22C1082.2 350.093 1082.26 349.976 1082.35 349.873L1099.97 329.325C1100.07 329.202 1100.19 329.103 1100.34 329.035C1100.48 328.967 1100.64 328.933 1100.79 328.935C1100.95 328.936 1101.1 328.97 1101.24 329.033C1101.39 329.097 1101.51 329.189 1101.62 329.303L1118.5 348.399L1135.15 362.965L1154.27 338.169C1154.38 338.024 1154.53 337.91 1154.7 337.838C1154.87 337.766 1155.06 337.738 1155.24 337.757C1155.42 337.775 1155.59 337.838 1155.74 337.94C1155.89 338.043 1156.01 338.181 1156.09 338.342L1171.02 368.188L1189.12 358.435C1189.28 358.343 1189.46 358.296 1189.65 358.296C1189.84 358.296 1190.02 358.343 1190.18 358.435C1190.34 358.529 1190.48 358.665 1190.58 358.828C1190.67 358.992 1190.72 359.177 1190.72 359.367V442.446C1190.72 442.734 1190.61 443.01 1190.41 443.213C1190.2 443.416 1189.93 443.53 1189.64 443.53ZM1028.46 441.363H1188.56V361.296L1171.06 370.724C1170.79 370.832 1170.49 370.832 1170.22 370.724C1170.08 370.682 1169.95 370.612 1169.84 370.519C1169.73 370.426 1169.63 370.312 1169.57 370.182L1154.94 340.878L1136.21 365.284C1136.12 365.402 1136.01 365.499 1135.87 365.57C1135.74 365.641 1135.6 365.684 1135.45 365.696C1135.3 365.712 1135.15 365.698 1135.01 365.653C1134.87 365.608 1134.74 365.534 1134.63 365.436L1117.01 350.025L1100.86 331.753L1084.17 351.26L1066.61 401.112C1066.56 401.283 1066.46 401.436 1066.32 401.557C1066.19 401.678 1066.03 401.764 1065.85 401.806C1065.67 401.848 1065.49 401.844 1065.31 401.795C1065.13 401.746 1064.97 401.653 1064.84 401.524L1046.41 383.794L1028.51 396.799L1028.46 441.363Z" fill="#263238"/>
<path d="M1047.78 328.61H1027.81V330.777H1047.78V328.61Z" fill="#263238"/>
<path d="M1047.78 336.933H1027.81V339.101H1047.78V336.933Z" fill="#263238"/>
<path d="M1047.78 345.234H1027.81V347.402H1047.78V345.234Z" fill="#263238"/>
<path d="M1189.64 400.137L1170.54 407.203L1155.13 372.913L1135.3 396.929L1117.68 391.055L1100.79 427.751L1083.17 378.571L1065.55 427.751L1046.45 409.414L1027.38 433.647V451.247H1189.64V400.137Z" fill="#263238"/>
<path d="M1189.64 452.33H1027.38C1027.09 452.33 1026.82 452.216 1026.61 452.013C1026.41 451.81 1026.3 451.534 1026.3 451.246V433.625C1026.29 433.383 1026.37 433.146 1026.51 432.953L1045.61 408.742C1045.71 408.624 1045.82 408.527 1045.96 408.457C1046.09 408.386 1046.24 408.343 1046.39 408.33C1046.69 408.318 1046.99 408.427 1047.21 408.634L1065.1 425.822L1082.15 378.137C1082.23 377.928 1082.37 377.747 1082.55 377.619C1082.73 377.491 1082.95 377.422 1083.17 377.422C1083.39 377.422 1083.61 377.491 1083.79 377.619C1083.98 377.747 1084.12 377.928 1084.19 378.137L1100.92 424.825L1116.7 390.6C1116.81 390.357 1117.01 390.163 1117.25 390.055C1117.5 389.947 1117.77 389.933 1118.03 390.015L1134.93 395.65L1154.29 372.22C1154.4 372.078 1154.56 371.969 1154.73 371.902C1154.9 371.834 1155.08 371.812 1155.26 371.835C1155.45 371.859 1155.62 371.929 1155.77 372.038C1155.91 372.147 1156.03 372.291 1156.11 372.458L1171.13 405.838L1189.25 399.118C1189.41 399.052 1189.59 399.029 1189.76 399.052C1189.94 399.075 1190.11 399.142 1190.25 399.248C1190.39 399.344 1190.52 399.476 1190.6 399.631C1190.68 399.787 1190.73 399.961 1190.72 400.137V451.246C1190.72 451.389 1190.69 451.53 1190.64 451.661C1190.59 451.793 1190.51 451.912 1190.41 452.013C1190.3 452.113 1190.19 452.193 1190.05 452.248C1189.92 452.302 1189.78 452.33 1189.64 452.33ZM1028.46 450.163H1188.56V401.698L1170.91 408.2C1170.65 408.291 1170.37 408.284 1170.12 408.18C1169.87 408.076 1169.66 407.882 1169.55 407.637L1154.85 374.907L1136.21 397.623C1136.07 397.792 1135.88 397.914 1135.67 397.972C1135.45 398.03 1135.23 398.022 1135.02 397.948L1118.33 392.377L1101.83 428.206C1101.75 428.403 1101.61 428.569 1101.42 428.681C1101.24 428.794 1101.03 428.847 1100.82 428.835C1100.6 428.829 1100.39 428.757 1100.22 428.629C1100.04 428.502 1099.91 428.324 1099.84 428.119L1083.17 381.757L1066.57 428.098C1066.51 428.268 1066.41 428.421 1066.28 428.542C1066.15 428.664 1065.99 428.749 1065.81 428.791C1065.63 428.833 1065.44 428.829 1065.27 428.78C1065.09 428.731 1064.92 428.638 1064.79 428.509L1046.58 410.996L1028.46 433.993V450.163Z" fill="#263238"/>
<path d="M1303.37 421.457C1303.37 421.457 1296.18 402.426 1275.61 404.486C1255.04 406.545 1245.8 422.996 1249.4 433.79C1250.88 438.744 1252.77 443.566 1255.06 448.204C1255.06 448.204 1248.36 445.104 1250.42 455.898C1252.48 466.692 1267.91 464.568 1270.47 463.615C1273.03 462.661 1284.36 433.79 1303.37 421.457Z" fill="#263238"/>
<path d="M1263.94 465.565C1260.76 465.653 1257.61 464.961 1254.75 463.55C1253.34 462.81 1252.12 461.754 1251.19 460.465C1250.25 459.175 1249.62 457.686 1249.36 456.115C1248.51 451.672 1248.95 448.854 1250.7 447.445C1251.39 446.924 1252.24 446.649 1253.11 446.665C1252.15 444.497 1250.55 440.639 1248.36 434.093C1247.57 431.205 1247.43 428.179 1247.95 425.23C1248.47 422.282 1249.63 419.484 1251.35 417.035C1254.11 413.094 1257.71 409.823 1261.9 407.467C1266.1 405.111 1270.76 403.728 1275.56 403.423C1296.74 401.256 1304.39 420.763 1304.46 421.067C1304.54 421.299 1304.54 421.552 1304.47 421.786C1304.39 422.021 1304.24 422.225 1304.04 422.367C1290.74 431.037 1281.07 448.16 1275.87 457.372C1273.03 462.444 1271.99 464.2 1270.95 464.633C1268.67 465.296 1266.31 465.61 1263.94 465.565ZM1253.11 448.876C1252.71 448.863 1252.33 448.977 1252 449.201C1251.44 449.656 1250.59 451.108 1251.46 455.703C1251.68 456.96 1252.18 458.149 1252.93 459.179C1253.69 460.209 1254.67 461.052 1255.8 461.642C1260.31 463.576 1265.34 463.92 1270.08 462.618C1271.52 460.616 1272.8 458.508 1273.92 456.31C1279.1 447.098 1288.68 430.105 1302.09 421.045C1300.49 417.534 1293.14 403.835 1275.78 405.569C1271.3 405.827 1266.94 407.089 1263.01 409.261C1259.09 411.434 1255.7 414.461 1253.11 418.119C1251.58 420.299 1250.55 422.787 1250.08 425.408C1249.62 428.029 1249.73 430.719 1250.42 433.291C1251.89 438.165 1253.76 442.912 1255.99 447.489C1256.1 447.687 1256.15 447.916 1256.12 448.141C1256.09 448.367 1256 448.579 1255.84 448.747C1255.69 448.914 1255.49 449.03 1255.26 449.076C1255.04 449.123 1254.81 449.098 1254.6 449.006C1254.12 448.881 1253.62 448.837 1253.13 448.876H1253.11Z" fill="#263238"/>
<path d="M1172.41 605.975L1135.91 624.226C1135.25 624.555 1134.7 625.057 1134.31 625.678C1133.91 626.299 1133.7 627.015 1133.68 627.75C1133.66 628.485 1133.84 629.21 1134.21 629.85C1134.57 630.489 1135.1 631.017 1135.74 631.378L1233.12 686.151C1233.94 686.613 1234.89 686.777 1235.82 686.615C1236.74 686.453 1237.58 685.975 1238.2 685.262L1261.06 658.71C1261.45 658.252 1261.74 657.713 1261.9 657.132C1262.05 656.551 1262.08 655.942 1261.97 655.35C1261.87 654.757 1261.63 654.195 1261.28 653.704C1260.94 653.213 1260.48 652.806 1259.96 652.511L1176.21 606.04C1175.63 605.721 1174.98 605.548 1174.32 605.537C1173.66 605.525 1173 605.676 1172.41 605.975Z" fill="#263238"/>
<path d="M1235.12 687.755C1234.24 687.755 1233.37 687.531 1232.6 687.104L1135.22 632.31C1134.4 631.858 1133.72 631.19 1133.26 630.38C1132.8 629.57 1132.56 628.648 1132.59 627.715C1132.61 626.781 1132.89 625.872 1133.39 625.085C1133.89 624.298 1134.6 623.663 1135.43 623.25L1171.94 605C1172.68 604.616 1173.5 604.416 1174.33 604.416C1175.16 604.416 1175.99 604.616 1176.73 605L1260.48 651.428C1261.15 651.795 1261.73 652.309 1262.17 652.932C1262.61 653.556 1262.91 654.271 1263.04 655.026C1263.19 655.788 1263.16 656.575 1262.96 657.326C1262.76 658.077 1262.39 658.773 1261.89 659.361L1239.02 685.977C1238.54 686.538 1237.94 686.988 1237.26 687.295C1236.59 687.601 1235.86 687.758 1235.12 687.755ZM1172.91 606.929L1136.48 625.179C1135.99 625.42 1135.58 625.788 1135.3 626.243C1135.01 626.698 1134.85 627.224 1134.83 627.763C1134.82 628.302 1134.95 628.835 1135.22 629.304C1135.49 629.773 1135.88 630.16 1136.35 630.425L1233.73 685.219C1234.33 685.551 1235.02 685.668 1235.7 685.549C1236.37 685.431 1236.99 685.085 1237.44 684.568L1260.3 657.952C1260.59 657.615 1260.8 657.219 1260.92 656.792C1261.03 656.364 1261.05 655.917 1260.98 655.481C1260.9 655.047 1260.72 654.635 1260.47 654.279C1260.21 653.922 1259.87 653.629 1259.48 653.422L1175.73 606.994C1175.3 606.749 1174.82 606.614 1174.33 606.603C1173.84 606.592 1173.35 606.704 1172.91 606.929Z" fill="#263238"/>
<path d="M1261.43 638.856L1246.06 628.886C1246.06 628.886 1234.55 615.881 1230.24 613.713C1225.93 611.546 1196.95 616.748 1196.95 616.748L1260.63 652.771L1261.43 638.856Z" fill="white"/>
<path d="M1260.63 653.942C1260.45 653.943 1260.27 653.898 1260.11 653.812L1196.43 617.788C1196.23 617.681 1196.07 617.515 1195.98 617.314C1195.88 617.113 1195.84 616.886 1195.88 616.666C1195.91 616.445 1196.02 616.24 1196.17 616.08C1196.33 615.921 1196.53 615.813 1196.75 615.772C1199.77 615.231 1226.21 610.549 1230.72 612.846C1235.23 615.144 1245.56 626.718 1246.78 628.019L1261.95 637.902C1262.11 638 1262.24 638.141 1262.33 638.31C1262.41 638.479 1262.45 638.668 1262.43 638.856L1261.65 652.88C1261.63 653.156 1261.51 653.415 1261.31 653.604C1261.11 653.794 1260.84 653.899 1260.56 653.899L1260.63 653.942ZM1200.11 617.376L1259.65 651.059L1260.3 639.42L1245.48 629.796C1245.39 629.755 1245.31 629.687 1245.26 629.601C1242.1 626.068 1233.14 616.596 1229.74 614.775C1227.08 613.432 1211.25 615.491 1200.11 617.376Z" fill="#263238"/>
<path d="M1230.05 623.12C1230.05 623.12 1218.73 623.619 1211.75 620.649C1204.77 617.68 1200.76 619.067 1204.4 624.984C1208.05 630.901 1219.34 630.338 1219.34 630.338C1219.34 630.338 1229.2 642.346 1241.16 637.642" fill="white"/>
<path d="M1235.55 639.766C1227.08 639.766 1220.38 633.112 1218.86 631.378C1216.5 631.378 1206.96 631.14 1203.47 625.504C1201.76 622.73 1201.48 620.606 1202.65 619.24C1204.14 617.528 1207.53 617.658 1212.19 619.652C1218.86 622.491 1229.89 622.036 1230 622.036C1230.15 622.021 1230.29 622.036 1230.43 622.082C1230.57 622.128 1230.7 622.202 1230.8 622.301C1230.91 622.399 1230.99 622.519 1231.05 622.653C1231.11 622.787 1231.13 622.931 1231.13 623.077C1231.14 623.363 1231.03 623.64 1230.84 623.85C1230.64 624.06 1230.38 624.187 1230.09 624.204C1229.63 624.204 1218.45 624.681 1211.32 621.646C1207.37 619.956 1204.82 619.956 1204.3 620.649C1203.78 621.343 1204.01 622.275 1205.32 624.356C1208.57 629.623 1219.19 629.211 1219.3 629.211C1219.46 629.2 1219.63 629.231 1219.79 629.298C1219.94 629.366 1220.08 629.47 1220.18 629.601C1220.18 629.709 1229.7 640.937 1240.78 636.58C1240.91 636.528 1241.05 636.501 1241.19 636.503C1241.33 636.505 1241.47 636.535 1241.61 636.592C1241.74 636.648 1241.85 636.73 1241.95 636.832C1242.05 636.934 1242.13 637.055 1242.18 637.187C1242.24 637.319 1242.26 637.461 1242.26 637.603C1242.26 637.746 1242.23 637.886 1242.17 638.017C1242.12 638.148 1242.03 638.266 1241.93 638.366C1241.83 638.465 1241.71 638.543 1241.58 638.596C1239.66 639.366 1237.62 639.763 1235.55 639.766Z" fill="#263238"/>
<path d="M1385.74 1140.82C1385.74 1140.82 1392.24 1165.56 1391.65 1169.85C1391.07 1174.14 1377.67 1177.91 1370.15 1177.91C1362.57 1178.34 1355.03 1179.23 1347.57 1180.6L1348.11 1140.82H1385.74Z" fill="white"/>
<path d="M1347.57 1181.68C1347.31 1181.69 1347.06 1181.59 1346.87 1181.42C1346.75 1181.32 1346.65 1181.2 1346.58 1181.06C1346.52 1180.91 1346.48 1180.76 1346.48 1180.6L1347.03 1140.8C1347.03 1140.52 1347.15 1140.25 1347.35 1140.05C1347.55 1139.85 1347.83 1139.74 1348.11 1139.74H1385.74C1385.98 1139.73 1386.21 1139.81 1386.4 1139.96C1386.59 1140.1 1386.72 1140.31 1386.78 1140.54C1387.45 1143.1 1393.28 1165.6 1392.74 1169.98C1392.07 1175.29 1377.7 1178.99 1370.15 1178.99C1362.64 1179.42 1355.16 1180.31 1347.76 1181.66L1347.57 1181.68ZM1349.17 1141.91L1348.67 1179.32C1355.77 1178.02 1362.95 1177.19 1370.15 1176.83C1377.87 1176.83 1390.16 1173.01 1390.57 1169.72C1390.98 1166.42 1386.8 1149.28 1384.89 1141.91H1349.17Z" fill="#263238"/>
<path d="M1391.65 1169.85C1391.66 1167.66 1391.42 1165.48 1390.94 1163.35C1385.68 1166.21 1380.16 1168.54 1374.44 1170.3C1365.32 1172.93 1352.29 1173.06 1347.67 1173.01L1347.57 1180.51C1355.03 1179.15 1362.57 1178.25 1370.15 1177.82C1377.67 1177.91 1391.11 1174.16 1391.65 1169.85Z" fill="white"/>
<path d="M1347.57 1181.68C1347.31 1181.69 1347.06 1181.59 1346.87 1181.42C1346.75 1181.32 1346.65 1181.2 1346.58 1181.06C1346.52 1180.91 1346.48 1180.76 1346.48 1180.6L1346.59 1173.1C1346.59 1172.81 1346.71 1172.54 1346.91 1172.33C1347.11 1172.13 1347.39 1172.02 1347.68 1172.02C1352.7 1172.02 1365.25 1171.89 1374.16 1169.35C1379.8 1167.6 1385.25 1165.3 1390.44 1162.48C1390.59 1162.4 1390.76 1162.36 1390.93 1162.36C1391.1 1162.36 1391.27 1162.4 1391.42 1162.48C1391.57 1162.55 1391.7 1162.66 1391.8 1162.8C1391.9 1162.93 1391.97 1163.09 1392 1163.26C1392.51 1165.47 1392.76 1167.73 1392.74 1170C1392.07 1175.31 1377.7 1179.02 1370.15 1179.02C1362.64 1179.45 1355.16 1180.34 1347.76 1181.68H1347.57ZM1348.74 1174.2V1179.32C1355.84 1178.02 1363.01 1177.19 1370.22 1176.83C1377.93 1176.83 1390.22 1173.01 1390.64 1169.72C1390.68 1168.16 1390.54 1166.6 1390.2 1165.08C1385.28 1167.68 1380.13 1169.8 1374.81 1171.43C1366.32 1173.42 1357.61 1174.35 1348.89 1174.2H1348.74Z" fill="#263238"/>
<path d="M1340.05 903.203C1340.05 903.203 1347.03 961.725 1349.71 973.105C1352.4 984.484 1365.84 1003.73 1371.21 1033.79C1376.59 1063.86 1386.82 1133.78 1386.82 1135.41C1386.82 1137.03 1387.88 1141.91 1388.42 1145.07C1388.42 1145.07 1376.59 1149.93 1368.01 1148.84C1362.56 1148.13 1357.18 1147.05 1351.88 1145.62C1351.88 1145.62 1355.63 1122.51 1347.55 1081.11C1339.46 1039.71 1331.55 996.839 1326.61 966.646C1321.67 936.452 1340.05 903.203 1340.05 903.203Z" fill="#999999"/>
<path d="M1370.67 1150.12C1369.73 1150.13 1368.79 1150.08 1367.85 1149.97C1362.36 1149.25 1356.92 1148.16 1351.58 1146.7C1351.32 1146.62 1351.1 1146.46 1350.96 1146.24C1350.82 1146.01 1350.76 1145.75 1350.8 1145.49C1350.8 1145.25 1354.44 1122.03 1346.46 1081.35C1336.75 1031.5 1329.69 992.959 1325.48 966.819C1320.65 936.691 1338.88 903.03 1339.05 902.683C1339.16 902.476 1339.33 902.311 1339.54 902.21C1339.75 902.11 1339.99 902.081 1340.22 902.128C1340.45 902.174 1340.66 902.293 1340.81 902.468C1340.97 902.642 1341.07 902.862 1341.09 903.095C1341.09 903.68 1348.09 961.747 1350.73 972.845C1352.29 977.954 1354.27 982.921 1356.67 987.692C1363.9 1002.26 1369.15 1017.73 1372.3 1033.69C1377.52 1062.99 1387.9 1133.61 1387.9 1135.56C1388.1 1137.54 1388.41 1139.51 1388.84 1141.45C1389.07 1142.71 1389.31 1143.97 1389.49 1145.05C1389.53 1145.29 1389.49 1145.55 1389.37 1145.76C1389.25 1145.98 1389.06 1146.15 1388.84 1146.24C1383.04 1148.53 1376.9 1149.84 1370.67 1150.12ZM1353.07 1144.86C1358.02 1146.17 1363.06 1147.16 1368.14 1147.8C1375.07 1148.67 1384.44 1145.46 1387.21 1144.42C1387.06 1143.58 1386.89 1142.67 1386.71 1141.74C1386.25 1139.7 1385.93 1137.64 1385.74 1135.56C1385.74 1133.72 1375.64 1064.83 1370.15 1034.14C1367.06 1018.35 1361.88 1003.04 1354.74 988.624C1352.28 983.751 1350.25 978.675 1348.67 973.452C1346.35 963.719 1340.98 920.001 1339.4 907.018C1335.06 916.013 1323.81 942.521 1327.67 966.581C1331.87 992.699 1338.92 1031.22 1348.63 1081.05C1355.74 1117.39 1353.66 1140.02 1353.07 1144.86Z" fill="#263238"/>
<path d="M1312.63 1134.37C1309.14 1139.39 1304.99 1143.91 1300.27 1147.8C1291.13 1155.87 1273.92 1164.47 1269.08 1166.62C1264.25 1168.76 1260.41 1168.79 1261.56 1173.62C1262.71 1178.45 1270.69 1182.29 1294.9 1182.29C1319.11 1182.29 1344.88 1181.21 1347.57 1180.66C1350.25 1180.12 1358.4 1180.12 1358.4 1174.16C1358.4 1168.2 1355.72 1144.6 1355.72 1144.6L1312.63 1134.37Z" fill="white"/>
<path d="M1294.9 1183.24C1272.85 1183.24 1261.93 1180.23 1260.5 1173.79C1259.44 1169.05 1262.56 1167.9 1265.85 1166.68C1266.72 1166.36 1267.65 1166.01 1268.65 1165.58C1272.81 1163.71 1290.32 1155.13 1299.54 1146.94C1304.17 1143.12 1308.26 1138.68 1311.7 1133.76C1311.82 1133.56 1312 1133.41 1312.21 1133.32C1312.43 1133.23 1312.66 1133.21 1312.89 1133.26L1355.89 1143.47C1356.11 1143.52 1356.3 1143.64 1356.45 1143.81C1356.6 1143.97 1356.69 1144.18 1356.71 1144.4C1356.82 1145.38 1359.4 1168.24 1359.4 1174.1C1359.4 1179.95 1352.79 1180.92 1349.26 1181.38L1347.78 1181.6C1345.03 1182.22 1319.37 1183.24 1294.9 1183.24ZM1313.13 1135.56C1309.61 1140.36 1305.54 1144.73 1300.99 1148.56C1291.47 1156.95 1273.74 1165.66 1269.52 1167.55C1268.5 1168.01 1267.5 1168.37 1266.59 1168.72C1263.01 1170.04 1261.99 1170.54 1262.62 1173.32C1263.4 1176.85 1269.65 1181.08 1294.9 1181.08C1318.74 1181.08 1344.75 1179.99 1347.35 1179.47C1347.78 1179.47 1348.35 1179.32 1348.98 1179.23C1353.16 1178.69 1357.23 1177.85 1357.23 1174.1C1357.23 1168.89 1355.07 1149.5 1354.63 1145.4L1313.13 1135.56Z" fill="#263238"/>
<path d="M1347.57 1180.6C1350.26 1180.06 1358.4 1180.06 1358.4 1174.1C1358.4 1173.23 1358.4 1171.93 1358.25 1170.45C1349.04 1171.67 1328.19 1174.25 1304.65 1176.24C1290.11 1177.79 1275.41 1176.32 1261.47 1171.91C1261.45 1172.49 1261.51 1173.07 1261.65 1173.64C1262.71 1178.47 1270.77 1182.31 1294.98 1182.31C1319.19 1182.31 1344.88 1181.08 1347.57 1180.6Z" fill="white"/>
<path d="M1294.9 1183.24C1272.85 1183.24 1261.93 1180.23 1260.5 1173.79C1260.35 1173.13 1260.29 1172.45 1260.3 1171.78C1260.31 1171.61 1260.36 1171.45 1260.45 1171.3C1260.53 1171.15 1260.64 1171.03 1260.78 1170.93C1260.92 1170.84 1261.08 1170.77 1261.25 1170.75C1261.42 1170.73 1261.6 1170.75 1261.76 1170.8C1275.54 1175.19 1290.09 1176.66 1304.48 1175.14C1327.6 1173.19 1347.96 1170.67 1358.01 1169.35C1358.32 1169.33 1358.61 1169.41 1358.86 1169.59C1359.09 1169.79 1359.23 1170.07 1359.25 1170.37C1359.36 1171.89 1359.4 1173.19 1359.4 1174.07C1359.4 1180.03 1352.79 1180.9 1349.26 1181.36L1347.78 1181.57C1345.03 1182.22 1319.37 1183.24 1294.9 1183.24ZM1262.62 1173.38C1263.47 1176.89 1269.78 1181.08 1294.9 1181.08C1318.74 1181.08 1344.75 1179.99 1347.35 1179.47C1347.78 1179.47 1348.35 1179.32 1348.98 1179.23C1353.16 1178.69 1357.23 1177.85 1357.23 1174.1C1357.23 1173.47 1357.23 1172.64 1357.23 1171.69C1346.81 1173.03 1327.06 1175.42 1304.74 1177.33C1290.58 1178.8 1276.27 1177.49 1262.62 1173.45V1173.38Z" fill="#263238"/>
<path d="M1255.69 779.57C1255.66 809.757 1257.45 839.918 1261.06 869.889C1266.98 917.725 1284.19 975.792 1284.19 975.792C1284.19 975.792 1292.86 1022.55 1295.46 1038.65C1298.06 1054.75 1312.04 1118.22 1312.04 1118.22L1306.12 1126.28L1307.21 1140.26L1328.71 1145.1C1337.5 1147.29 1346.53 1148.37 1355.59 1148.32C1355.59 1148.32 1356.67 1120.36 1356.13 1116.61C1355.59 1112.86 1352.36 1095.11 1351.79 1089.2C1351.23 1083.28 1352.86 1017.67 1349.11 1002.65C1345.36 987.627 1338.88 965.54 1338.88 946.293C1338.88 927.046 1353.4 832.326 1353.4 832.326C1353.4 832.326 1368.98 810.283 1368.98 797.365C1369.15 790.881 1368.62 784.397 1367.38 778.031L1255.69 779.57Z" fill="#BDBDBD"/>
<path d="M1354.07 1149.47C1345.46 1149.3 1336.89 1148.2 1328.52 1146.18L1307.01 1141.35C1306.79 1141.29 1306.59 1141.17 1306.43 1140.99C1306.28 1140.82 1306.19 1140.6 1306.17 1140.37L1305.11 1126.39C1305.08 1126.14 1305.15 1125.88 1305.3 1125.67L1310.94 1118C1309.64 1112.11 1296.89 1054.08 1294.36 1038.87C1291.71 1022.94 1283.15 976.443 1283.06 976.009C1282.98 975.576 1265.72 917.487 1259.94 870.041C1256.35 840.018 1254.55 809.807 1254.56 779.57C1254.56 779.288 1254.67 779.018 1254.87 778.819C1255.07 778.62 1255.34 778.508 1255.62 778.508L1367.44 776.904C1367.68 776.897 1367.92 776.974 1368.11 777.12C1368.3 777.266 1368.43 777.473 1368.48 777.706C1369.75 784.164 1370.31 790.742 1370.13 797.321C1370.13 809.893 1356.19 830.246 1354.5 832.695C1353.66 838.114 1340.02 927.674 1340.02 946.25C1340.02 962.874 1344.77 981.276 1348.59 996.102C1349.16 998.342 1349.71 1000.47 1350.21 1002.47C1352.96 1013.51 1352.88 1050.79 1352.81 1073.07C1352.81 1081.18 1352.81 1087.59 1352.92 1089.17C1353.29 1093.18 1354.89 1102.63 1356.06 1109.53C1356.61 1112.73 1357.06 1115.34 1357.23 1116.55C1357.78 1120.36 1356.74 1147.31 1356.69 1148.45C1356.69 1148.73 1356.58 1148.98 1356.39 1149.18C1356.2 1149.37 1355.94 1149.48 1355.67 1149.5C1355.67 1149.5 1355.05 1149.47 1354.07 1149.47ZM1308.27 1139.39L1328.99 1144.08C1337.38 1146.07 1345.97 1147.15 1354.59 1147.28C1354.96 1137.4 1355.5 1119.58 1355.11 1116.79C1354.94 1115.6 1354.48 1112.99 1353.96 1109.83C1352.77 1102.89 1351.17 1093.4 1350.8 1089.3C1350.65 1087.64 1350.65 1081.5 1350.67 1073C1350.67 1050.81 1350.82 1013.7 1348.13 1002.93C1347.63 1000.94 1347.09 998.811 1346.51 996.579C1342.67 981.666 1337.84 963.134 1337.84 946.228C1337.84 927.002 1351.77 835.946 1352.38 832.088C1352.4 831.925 1352.46 831.769 1352.55 831.633C1352.7 831.416 1367.94 809.719 1367.94 797.3C1368.04 791.187 1367.58 785.077 1366.55 779.049L1256.68 780.632C1256.76 810.423 1258.6 840.184 1262.19 869.759C1268.02 916.945 1285.1 974.904 1285.25 975.489C1285.4 976.074 1293.92 1022.55 1296.59 1038.5C1299.25 1054.45 1313.1 1117.37 1313.23 1118C1313.27 1118.15 1313.27 1118.31 1313.24 1118.46C1313.21 1118.62 1313.15 1118.76 1313.06 1118.89L1307.38 1126.63L1308.27 1139.39Z" fill="#263238"/>
<path d="M1334.45 1138.77C1334.26 1138.77 1334.08 1138.71 1333.93 1138.59C1333.79 1138.47 1333.69 1138.3 1333.65 1138.12C1333.65 1138.12 1332.78 1133.78 1331.07 1127.82C1329.58 1122.53 1331.72 1120.19 1332.74 1119.39C1332.61 1117.52 1332.07 1110.22 1331.05 1100.12C1331.04 1100.01 1331.05 1099.91 1331.08 1099.81C1331.11 1099.7 1331.16 1099.61 1331.22 1099.53C1331.29 1099.44 1331.37 1099.37 1331.46 1099.32C1331.56 1099.27 1331.66 1099.24 1331.77 1099.23C1331.87 1099.22 1331.98 1099.22 1332.09 1099.25C1332.19 1099.28 1332.29 1099.33 1332.37 1099.39C1332.46 1099.46 1332.53 1099.54 1332.58 1099.64C1332.63 1099.73 1332.67 1099.84 1332.68 1099.95C1333.85 1111.72 1334.39 1119.67 1334.39 1119.76C1334.4 1119.92 1334.36 1120.07 1334.29 1120.21C1334.21 1120.35 1334.09 1120.46 1333.95 1120.54C1333.85 1120.54 1331.14 1122.1 1332.63 1127.37C1334.37 1133.37 1335.23 1137.75 1335.26 1137.79C1335.29 1138 1335.25 1138.22 1335.13 1138.4C1335 1138.58 1334.82 1138.7 1334.61 1138.74L1334.45 1138.77Z" fill="#263238"/>
<path d="M1330.75 1090.63C1330.55 1090.62 1330.36 1090.54 1330.21 1090.4C1330.07 1090.27 1329.97 1090.09 1329.95 1089.89C1328.99 1081.44 1327.91 1073.24 1326.74 1065.5C1325.05 1054.36 1321.71 1039.04 1317.87 1021.29C1311.85 993.479 1304.35 958.886 1299.08 922.104C1295.47 895.154 1294.55 867.912 1296.33 840.78C1296.34 840.567 1296.44 840.369 1296.6 840.228C1296.76 840.088 1296.97 840.017 1297.18 840.032C1297.4 840.046 1297.59 840.144 1297.73 840.305C1297.88 840.465 1297.95 840.675 1297.93 840.888C1296.16 867.949 1297.09 895.118 1300.71 921.995C1305.95 958.713 1313.43 993.284 1319.45 1021.05C1323.31 1038.82 1326.65 1054.17 1328.34 1065.37C1329.51 1073.11 1330.51 1081.35 1331.57 1089.82C1331.59 1090.04 1331.53 1090.25 1331.39 1090.41C1331.26 1090.58 1331.07 1090.69 1330.86 1090.71L1330.75 1090.63Z" fill="#263238"/>
<path d="M1297.82 832.109C1297.72 832.101 1297.61 832.072 1297.52 832.022C1297.42 831.973 1297.33 831.905 1297.27 831.822C1297.2 831.739 1297.15 831.643 1297.11 831.54C1297.08 831.436 1297.07 831.328 1297.09 831.221C1298.36 815.918 1300.01 806.295 1300.01 806.208C1300.05 805.995 1300.16 805.805 1300.34 805.679C1300.51 805.553 1300.73 805.501 1300.94 805.536C1301.16 805.57 1301.35 805.688 1301.47 805.863C1301.6 806.038 1301.65 806.255 1301.62 806.468C1301.62 806.576 1299.99 816.135 1298.71 831.351C1298.69 831.567 1298.58 831.767 1298.42 831.908C1298.25 832.05 1298.04 832.122 1297.82 832.109Z" fill="#263238"/>
<path d="M1359.42 438.948C1359.42 438.948 1366.1 412.202 1406.2 415.279C1446.3 418.357 1445.8 454.966 1445.8 454.966L1437.13 450.848C1437.13 450.848 1444.32 471.938 1436.09 487.349C1427.85 502.759 1406.78 511.516 1392.91 509.023C1379.04 506.531 1364.06 493.439 1361.89 486.243C1359.73 479.047 1367.64 453.861 1359.42 438.948Z" fill="#263238"/>
<path d="M1397.94 510.389C1396.17 510.396 1394.4 510.243 1392.65 509.934C1378.06 507.225 1363.04 493.851 1360.94 486.547C1360.18 483.837 1360.64 479.156 1361.24 473.26C1362.26 462.964 1363.67 448.876 1358.47 439.469C1358.34 439.232 1358.3 438.953 1358.36 438.689C1358.36 438.407 1365.77 411.075 1406.28 414.218C1446.8 417.36 1446.88 454.511 1446.88 454.901C1446.88 455.082 1446.83 455.26 1446.74 455.416C1446.65 455.572 1446.52 455.701 1446.36 455.79C1446.21 455.875 1446.03 455.92 1445.85 455.92C1445.67 455.92 1445.5 455.875 1445.34 455.79L1438.84 452.712C1440.47 458.738 1443.85 474.951 1437.02 487.717C1429.35 502.109 1411.75 510.389 1397.94 510.389ZM1360.57 438.862C1365.86 448.854 1364.43 463.094 1363.39 473.542C1362.85 478.982 1362.37 483.707 1363.04 486.005C1364.93 492.637 1379.43 505.339 1393.04 507.875C1406.26 510.324 1427.07 501.849 1435.07 486.828C1443.07 471.808 1436.11 451.39 1436.02 451.173C1435.96 450.973 1435.96 450.759 1436.01 450.556C1436.06 450.353 1436.17 450.169 1436.33 450.024C1436.48 449.878 1436.68 449.783 1436.9 449.752C1437.11 449.721 1437.33 449.756 1437.52 449.851L1444.65 453.211C1444.22 445.993 1440.31 419.051 1406.13 416.363C1369.65 413.546 1361.59 435.459 1360.57 438.819V438.862Z" fill="#263238"/>
<path d="M1279.72 435.849C1279.72 435.849 1276.65 441.008 1270.47 451.802C1264.29 462.596 1266.87 472.35 1262.75 477.508C1258.64 482.667 1247.34 482.125 1248.88 487.262C1250.42 492.399 1257.1 495.932 1257.1 495.932C1257.1 495.932 1257.1 524.716 1260.2 528.314C1263.3 531.912 1286.92 525.735 1286.92 525.735C1286.92 525.735 1291.56 532.953 1288.46 548.884C1285.36 564.815 1257.62 609.032 1254.02 631.14C1250.42 653.248 1262.69 708.259 1262.69 708.259L1250.88 788.456C1271.86 795.576 1294.07 798.37 1316.16 796.671C1351.64 793.593 1373.23 786.397 1373.23 786.397L1349.65 693.39C1349.65 693.39 1351.71 627.585 1347.09 591.085C1342.47 554.584 1330.64 545.849 1330.64 532.562C1330.64 519.276 1347.59 511.993 1358.38 499.14C1364.32 491.177 1367.94 481.73 1368.85 471.84C1369.76 461.95 1367.92 452.001 1363.54 443.088C1355.11 424.903 1328.06 417.902 1309.55 417.382C1291.04 416.862 1279.72 435.849 1279.72 435.849Z" fill="white"/>
<path d="M1303.87 798.405C1285.74 798.357 1267.73 795.378 1250.55 789.583C1250.32 789.49 1250.13 789.322 1250 789.106C1249.87 788.89 1249.82 788.639 1249.86 788.391L1261.67 708.389C1260.74 704.206 1249.42 652.685 1253 631.053C1255.02 618.677 1264.55 599.364 1272.96 582.328C1279.72 568.651 1286.1 555.755 1287.44 548.754C1289.89 536.204 1287.44 529.246 1286.4 527.079C1279.9 528.726 1262.56 532.736 1259.42 529.094C1256.27 525.453 1256.08 502.673 1256.06 496.582C1254.34 495.542 1249.27 492.247 1247.88 487.522C1246.74 483.686 1250.66 482.277 1254.39 480.911C1257.21 480.203 1259.81 478.768 1261.91 476.75C1263.62 474.582 1264.08 471.526 1264.62 467.581C1265.16 461.848 1266.83 456.279 1269.54 451.195C1275.63 440.509 1278.77 435.286 1278.79 435.242C1279.29 434.397 1290.37 416.19 1308.79 416.19H1309.57C1325.65 416.645 1355.33 422.692 1364.52 442.525C1376.52 468.535 1366.32 491.293 1359.23 499.725C1355.41 504.082 1351.22 508.106 1346.72 511.755C1338.72 518.474 1331.83 524.283 1331.83 532.519C1331.83 537.894 1333.8 542.468 1336.56 548.819C1342.65 562.175 1346.6 576.41 1348.26 590.998C1352.75 626.306 1350.95 689.749 1350.84 693.325L1374.47 786.245C1374.53 786.509 1374.49 786.787 1374.36 787.024C1374.22 787.261 1374.01 787.439 1373.75 787.524C1373.53 787.524 1351.62 794.807 1316.44 797.863C1312.04 798.232 1307.92 798.405 1303.87 798.405ZM1252.13 787.828C1272.74 794.628 1294.49 797.309 1316.14 795.717C1335.04 794.277 1353.76 790.944 1371.99 785.769L1348.61 693.715C1348.6 693.614 1348.6 693.513 1348.61 693.412C1348.61 692.762 1350.62 627.26 1346.05 591.258C1344.41 576.871 1340.51 562.834 1334.5 549.664C1331.74 543.335 1329.6 538.328 1329.6 532.519C1329.6 523.286 1337.21 516.87 1345.25 510.086C1349.68 506.521 1353.8 502.583 1357.56 498.316C1364.34 490.231 1374.1 468.383 1362.54 443.414C1353.87 424.535 1325.11 418.769 1309.53 418.336H1308.81C1291.47 418.336 1280.77 436.131 1280.64 436.326C1280.64 436.326 1277.49 441.593 1271.4 452.235C1268.82 457.08 1267.23 462.394 1266.74 467.863C1266.18 471.959 1265.66 475.492 1263.58 478.093C1261.24 480.442 1258.31 482.113 1255.1 482.927C1251.09 484.379 1249.38 485.094 1249.9 486.872C1251.29 491.532 1257.53 494.935 1257.59 494.978C1257.77 495.07 1257.91 495.207 1258.01 495.376C1258.11 495.544 1258.16 495.736 1258.16 495.932C1258.16 506.899 1258.94 525.215 1261 527.599C1262.62 529.506 1275.56 527.599 1286.64 524.694C1286.86 524.636 1287.09 524.649 1287.3 524.731C1287.51 524.812 1287.69 524.959 1287.81 525.15C1288 525.475 1292.64 532.909 1289.52 548.992C1288.11 556.275 1281.65 569.301 1274.85 583.108C1266.5 600.015 1257.03 619.175 1255.06 631.227C1251.55 652.902 1263.73 707.392 1263.73 707.934C1263.75 708.07 1263.75 708.209 1263.73 708.346L1252.13 787.828Z" fill="#263238"/>
<path d="M1286.92 525.822L1298.19 523.307L1291.17 537.331C1290.35 533.3 1288.92 529.419 1286.92 525.822Z" fill="#263238"/>
<path d="M1291.17 538.436H1291.04C1290.81 538.409 1290.6 538.31 1290.43 538.154C1290.26 537.998 1290.15 537.794 1290.11 537.569C1289.31 533.695 1287.93 529.962 1286.03 526.493C1285.95 526.339 1285.91 526.168 1285.91 525.995C1285.91 525.821 1285.95 525.65 1286.03 525.496C1286.09 525.331 1286.19 525.184 1286.32 525.069C1286.46 524.955 1286.62 524.878 1286.79 524.846L1298.06 522.31C1298.26 522.268 1298.47 522.281 1298.67 522.35C1298.86 522.419 1299.04 522.54 1299.17 522.7C1299.29 522.861 1299.37 523.055 1299.39 523.259C1299.41 523.463 1299.37 523.668 1299.27 523.849L1292.25 537.916C1292.14 538.1 1291.98 538.248 1291.79 538.34C1291.6 538.433 1291.38 538.466 1291.17 538.436ZM1288.61 526.493C1289.85 528.94 1290.83 531.512 1291.52 534.166L1296.22 524.803L1288.61 526.493Z" fill="#263238"/>
<path d="M1373.3 786.592L1349.65 693.39C1349.65 693.39 1351.71 627.585 1347.09 591.085C1346.11 583.019 1344.48 575.045 1342.21 567.242C1334.65 561.368 1322.99 553.956 1311.09 553.045C1297.28 551.983 1283.5 567.958 1276.24 578.036C1267.18 596.417 1256.19 617.832 1254.02 631.183C1250.42 653.292 1262.69 708.303 1262.69 708.303L1250.88 788.5C1271.86 795.619 1294.07 798.414 1316.16 796.714C1351.71 793.702 1373.3 786.592 1373.3 786.592Z" fill="#92E3A9"/>
<path d="M1303.87 798.405C1285.74 798.357 1267.73 795.378 1250.55 789.583C1250.32 789.49 1250.13 789.322 1250 789.106C1249.88 788.89 1249.82 788.639 1249.86 788.391L1261.67 708.389C1260.74 704.206 1249.42 652.685 1253 631.053C1255.02 618.677 1264.55 599.365 1272.96 582.328L1275.3 577.603C1282.59 567.459 1296.78 550.899 1311.22 552.005C1323.29 552.937 1335.06 560.371 1342.93 566.44C1343.11 566.578 1343.24 566.767 1343.3 566.982C1345.59 574.84 1347.22 582.872 1348.2 590.998C1352.68 626.306 1350.88 689.749 1350.78 693.325L1374.4 786.246C1374.46 786.51 1374.43 786.787 1374.29 787.024C1374.16 787.261 1373.94 787.439 1373.69 787.524C1373.47 787.524 1351.56 794.807 1316.38 797.863C1312.04 798.232 1307.92 798.405 1303.87 798.405ZM1252.13 787.828C1272.74 794.629 1294.49 797.309 1316.14 795.717C1335.04 794.277 1353.76 790.944 1372 785.769L1348.61 693.715C1348.6 693.614 1348.6 693.513 1348.61 693.412C1348.61 692.762 1350.62 627.26 1346.05 591.258C1345.1 583.371 1343.52 575.572 1341.33 567.936C1333.76 562.084 1322.45 554.931 1310.98 554.151C1297.61 553.132 1284.02 569.106 1277.08 578.708L1274.91 583.282C1266.57 600.188 1257.1 619.349 1255.12 631.4C1251.61 653.075 1263.79 707.566 1263.79 708.107C1263.82 708.244 1263.82 708.383 1263.79 708.519L1252.13 787.828Z" fill="#263238"/>
<path d="M1309.55 417.339C1291.04 416.84 1279.72 435.849 1279.72 435.849C1279.72 435.849 1278.12 438.537 1274.91 444.085C1278.12 440.271 1289.78 427.764 1294.64 441.008C1297.48 448.724 1290.52 459.496 1294.12 463.116C1297.72 466.736 1304.95 474.929 1303.89 476.468C1303.11 478.088 1302.59 479.822 1302.35 481.605C1302.35 481.605 1311.61 468.253 1318.8 476.468C1326 484.683 1316.23 500.115 1316.23 500.115L1310.07 502.174C1310.07 502.174 1330.12 524.803 1333.72 524.803C1334.71 524.803 1337.32 517.086 1341.93 515.548C1347.8 510.465 1353.3 504.967 1358.38 499.096C1364.32 491.134 1367.94 481.687 1368.85 471.797C1369.76 461.907 1367.92 451.957 1363.54 443.045C1355.11 424.86 1328.06 417.859 1309.55 417.339Z" fill="#263238"/>
<path d="M1333.72 525.887C1329.92 525.887 1314.04 508.287 1309.25 502.889C1309.13 502.756 1309.04 502.595 1309 502.421C1308.96 502.247 1308.96 502.065 1309.01 501.892C1309.06 501.721 1309.15 501.564 1309.27 501.436C1309.4 501.307 1309.55 501.211 1309.72 501.155L1315.51 499.226C1316.81 497.059 1324.03 484.054 1317.98 477.183C1317.43 476.446 1316.72 475.852 1315.89 475.452C1315.06 475.052 1314.15 474.858 1313.23 474.886C1308.21 475.167 1303.29 482.168 1303.24 482.233C1303.11 482.435 1302.9 482.584 1302.67 482.655C1302.44 482.726 1302.19 482.715 1301.96 482.623C1301.73 482.534 1301.54 482.37 1301.42 482.158C1301.29 481.945 1301.24 481.698 1301.27 481.453C1301.53 479.566 1302.07 477.731 1302.9 476.013C1302.74 474.56 1298.02 468.535 1293.36 463.875C1291.19 461.707 1292.01 457.871 1293.01 453.471C1293.92 449.483 1294.94 444.974 1293.62 441.376C1292.49 438.298 1290.93 436.564 1288.96 436.217C1284.13 435.372 1277.62 442.547 1275.74 444.887C1275.56 445.079 1275.32 445.199 1275.06 445.226C1274.8 445.252 1274.54 445.184 1274.32 445.034C1274.11 444.883 1273.96 444.661 1273.89 444.407C1273.83 444.153 1273.86 443.885 1273.98 443.652C1277.19 438.103 1278.79 435.416 1278.79 435.416C1279.27 434.614 1290.35 416.363 1308.79 416.363H1309.57C1325.65 416.818 1355.33 422.866 1364.52 442.698C1376.53 468.708 1366.32 491.467 1359.23 499.898C1355.29 504.542 1351.02 508.888 1346.44 512.903C1345.21 514.03 1343.97 515.071 1342.69 516.371C1342.58 516.484 1342.43 516.565 1342.28 516.61C1339.61 517.498 1337.58 520.945 1336.23 523.264C1335.19 524.998 1334.67 525.887 1333.72 525.887ZM1312.04 502.651C1320.97 512.622 1330.9 522.635 1333.52 523.611C1333.76 523.264 1334.13 522.614 1334.45 522.072C1335.93 519.557 1338.14 515.786 1341.46 514.551C1342.69 513.38 1343.88 512.383 1345.07 511.213C1349.55 507.232 1353.73 502.921 1357.56 498.316C1364.34 490.231 1374.1 468.383 1362.54 443.414C1353.87 424.535 1325.11 418.769 1309.53 418.336H1308.81C1291.58 418.336 1280.77 436.131 1280.64 436.326L1279.94 437.518C1282.82 435.35 1286.21 433.443 1289.33 433.985C1292.1 434.483 1294.23 436.694 1295.63 440.487C1297.17 444.692 1296.07 449.548 1295.11 453.818C1294.29 457.437 1293.51 460.84 1294.88 462.206C1296.85 464.178 1306.62 474.192 1304.78 476.945C1304.73 476.994 1304.7 477.053 1304.67 477.118C1306.87 474.688 1309.84 473.088 1313.08 472.588C1314.33 472.546 1315.57 472.798 1316.7 473.326C1317.83 473.853 1318.82 474.64 1319.59 475.622C1327.21 484.292 1317.53 499.92 1317.11 500.57C1316.97 500.779 1316.77 500.938 1316.53 501.025L1312.04 502.651Z" fill="#263238"/>
<path d="M1274.54 476.143C1273.98 478.765 1272.62 480.716 1271.51 480.478C1270.4 480.239 1269.95 477.92 1270.51 475.276C1271.08 472.631 1272.44 470.681 1273.55 470.941C1274.65 471.201 1275.19 473.498 1274.54 476.143Z" fill="#263238"/>
<path d="M1279.72 466.237C1279.52 466.243 1279.32 466.189 1279.15 466.081C1278.97 465.973 1278.83 465.816 1278.75 465.63C1277.84 463.68 1276.76 462.596 1275.52 462.401C1273.46 462.076 1271.29 464.33 1271.18 464.352C1271.08 464.453 1270.96 464.534 1270.83 464.589C1270.7 464.644 1270.56 464.672 1270.42 464.672C1270.27 464.672 1270.13 464.644 1270 464.589C1269.87 464.534 1269.75 464.453 1269.65 464.352C1269.45 464.145 1269.33 463.869 1269.33 463.582C1269.33 463.295 1269.45 463.019 1269.65 462.813C1270.43 461.962 1271.39 461.288 1272.45 460.836C1273.52 460.384 1274.67 460.164 1275.82 460.19C1276.95 460.458 1277.98 461.006 1278.83 461.783C1279.69 462.561 1280.33 463.541 1280.7 464.633C1280.78 464.799 1280.82 464.984 1280.81 465.169C1280.8 465.354 1280.74 465.533 1280.64 465.689C1280.54 465.844 1280.4 465.971 1280.24 466.056C1280.07 466.141 1279.89 466.181 1279.7 466.172L1279.72 466.237Z" fill="#263238"/>
<path d="M1263.62 504.19C1261.17 504.19 1260.41 502.998 1260.24 502.673C1260.18 502.545 1260.14 502.406 1260.13 502.263C1260.12 502.121 1260.14 501.978 1260.19 501.843C1260.23 501.708 1260.31 501.584 1260.4 501.477C1260.49 501.37 1260.61 501.283 1260.74 501.221C1260.98 501.095 1261.26 501.067 1261.52 501.144C1261.79 501.221 1262.01 501.396 1262.15 501.632C1262.43 501.958 1263.9 502.478 1267.52 501.156C1267.79 501.057 1268.1 501.07 1268.36 501.192C1268.62 501.314 1268.83 501.534 1268.93 501.806C1269.03 502.076 1269.01 502.374 1268.89 502.634C1268.77 502.894 1268.55 503.095 1268.28 503.193C1266.8 503.795 1265.22 504.133 1263.62 504.19Z" fill="#263238"/>
<path d="M1295.16 580.854C1295.16 580.854 1287.44 591.692 1284.32 611.697C1281.2 631.703 1283.8 697.032 1283.8 697.032C1283.8 697.032 1240.1 684.699 1225.69 677.524C1219.18 674.429 1212.84 671 1206.68 667.25C1206.68 667.25 1202.04 656.413 1198.44 652.338C1194.85 648.263 1185.09 647.201 1181.49 644.622C1177.9 642.042 1175.32 633.784 1170.66 636.905C1169.88 637.309 1169.22 637.907 1168.74 638.643C1168.27 639.378 1167.99 640.224 1167.94 641.099C1167.89 641.973 1168.07 642.846 1168.46 643.63C1168.85 644.415 1169.43 645.086 1170.16 645.575C1172.22 647.136 1179.91 654.831 1179.91 654.831L1160.4 646.161C1160.4 646.161 1158.87 653.877 1161.42 656.456C1163.98 659.035 1169.14 663.652 1169.14 663.652C1169.14 663.652 1176.86 674.49 1181.49 677.004C1186.12 679.157 1190.94 680.884 1195.89 682.163C1200.48 683.702 1205.12 687.625 1209.24 690.117L1235.44 706.048C1249.02 714.206 1263.38 720.967 1278.32 726.228C1287.68 729.522 1310.59 739.579 1318.72 729.501C1322.23 725.166 1321.15 712.161 1322.06 706.742C1327.8 672.257 1335.21 637.556 1335.21 602.464" fill="#92E3A9"/>
<path d="M1307.43 734.963C1298.89 734.963 1288.59 731.148 1281.42 728.46L1278.03 727.225C1263.03 721.941 1248.6 715.151 1234.97 706.959L1217.63 696.446L1208.72 691.028C1207.42 690.226 1206.07 689.315 1204.69 688.362C1201.89 686.233 1198.83 684.484 1195.58 683.16L1194.04 682.704C1189.56 681.546 1185.21 679.949 1181.04 677.936C1176.44 675.378 1169.25 665.516 1168.42 664.346C1167.71 663.717 1163.16 659.599 1160.75 657.193C1157.85 654.289 1159.26 646.767 1159.43 645.922C1159.46 645.766 1159.53 645.618 1159.63 645.491C1159.73 645.364 1159.85 645.26 1160 645.185C1160.14 645.111 1160.29 645.069 1160.46 645.061C1160.62 645.054 1160.78 645.081 1160.92 645.142L1174.99 651.428C1172.82 649.39 1170.66 647.223 1169.62 646.486C1168.77 645.876 1168.07 645.076 1167.59 644.15C1167.1 643.225 1166.84 642.199 1166.82 641.154C1166.9 640.089 1167.25 639.062 1167.82 638.162C1168.4 637.263 1169.18 636.518 1170.11 635.995C1174.06 633.351 1176.81 637.1 1179 640.135C1179.87 641.469 1180.93 642.674 1182.14 643.711C1184.15 644.842 1186.29 645.702 1188.52 646.269C1192.48 647.526 1196.97 648.935 1199.35 651.601C1202.71 655.437 1206.83 664.606 1207.63 666.492C1208.78 667.229 1213.96 670.371 1226.27 676.527C1238.95 682.878 1275.09 693.39 1282.63 695.579C1282.26 685.5 1280.46 630.013 1283.21 611.524C1286.31 591.453 1293.88 580.659 1294.2 580.225C1294.29 580.108 1294.39 580.009 1294.51 579.932C1294.63 579.855 1294.77 579.803 1294.91 579.779C1295.05 579.755 1295.19 579.759 1295.33 579.791C1295.47 579.823 1295.6 579.882 1295.72 579.965C1295.95 580.135 1296.11 580.388 1296.16 580.671C1296.21 580.955 1296.14 581.246 1295.98 581.483C1295.98 581.483 1288.37 592.32 1285.36 611.827C1282.35 631.335 1284.84 696.36 1284.86 696.988C1284.87 697.16 1284.83 697.331 1284.76 697.487C1284.69 697.643 1284.58 697.78 1284.45 697.886C1284.31 697.992 1284.15 698.064 1283.98 698.096C1283.81 698.129 1283.64 698.12 1283.47 698.072C1281.7 697.552 1239.52 685.609 1225.19 678.565C1218.64 675.444 1212.25 671.986 1206.05 668.204C1205.88 668.087 1205.74 667.921 1205.66 667.727C1205.66 667.619 1201.07 657.041 1197.62 653.118C1195.69 650.951 1191.51 649.585 1187.82 648.415C1185.37 647.797 1183.01 646.841 1180.82 645.575C1179.43 644.397 1178.22 643.024 1177.22 641.5C1174.69 638.032 1173.26 636.537 1171.26 637.881C1170.62 638.213 1170.07 638.701 1169.67 639.299C1169.26 639.897 1169.01 640.586 1168.94 641.305C1168.97 641.997 1169.15 642.673 1169.47 643.285C1169.79 643.897 1170.25 644.428 1170.81 644.838C1172.98 646.421 1180.37 653.877 1180.69 654.202C1180.87 654.383 1180.98 654.62 1181 654.872C1181.03 655.125 1180.96 655.378 1180.82 655.589C1180.68 655.799 1180.46 655.951 1180.22 656.018C1179.97 656.085 1179.71 656.064 1179.48 655.958L1161.23 647.786C1160.86 650.604 1160.84 654.397 1162.18 655.741C1164.7 658.255 1169.79 662.85 1169.85 662.894L1170.01 663.089C1170.01 663.089 1177.64 673.709 1181.99 676.094C1186.03 678.022 1190.25 679.553 1194.59 680.667L1196.21 681.144C1199.65 682.529 1202.9 684.366 1205.86 686.606C1207.2 687.538 1208.52 688.448 1209.78 689.207L1218.69 694.626L1236.03 705.138C1249.53 713.259 1263.82 719.991 1278.68 725.231L1282.11 726.466C1292.23 730.237 1311.11 737.303 1317.89 728.829C1320.06 726.119 1320.32 719.205 1320.52 713.656C1320.55 711.301 1320.72 708.949 1321.02 706.612C1322.03 700.456 1323.18 694.279 1324.2 688.101C1329.1 660.163 1334.15 631.248 1334.15 602.507C1334.15 602.22 1334.26 601.944 1334.47 601.741C1334.67 601.538 1334.95 601.424 1335.23 601.424C1335.52 601.424 1335.8 601.538 1336 601.741C1336.2 601.944 1336.32 602.22 1336.32 602.507C1336.32 631.422 1331.25 660.444 1326.33 688.492C1325.26 694.647 1324.16 700.803 1323.14 706.959C1322.88 708.628 1322.79 711.099 1322.68 713.721C1322.47 719.92 1322.21 726.943 1319.58 730.216C1316.96 733.489 1312.39 734.963 1307.43 734.963Z" fill="#263238"/>
<path d="M1268.26 692.458C1254.23 688.123 1234.53 681.902 1225.73 677.502C1219.22 674.408 1212.88 670.978 1206.72 667.229C1206.72 667.229 1202.08 656.391 1198.49 652.316C1194.89 648.241 1185.14 647.179 1181.54 644.6C1177.94 642.021 1175.36 633.762 1170.7 636.884C1169.92 637.287 1169.26 637.886 1168.79 638.621C1168.31 639.356 1168.03 640.202 1167.98 641.077C1167.93 641.951 1168.11 642.824 1168.5 643.609C1168.89 644.394 1169.47 645.064 1170.2 645.554C1172.26 647.114 1179.95 654.809 1179.95 654.809L1160.45 646.139C1160.45 646.139 1158.91 653.855 1161.47 656.434C1164.02 659.014 1169.18 663.631 1169.18 663.631C1169.18 663.631 1176.9 674.468 1181.54 676.982C1186.17 679.135 1190.99 680.862 1195.93 682.141C1200.52 683.68 1205.16 687.603 1209.28 690.096L1235.49 706.027C1243.93 711.105 1252.68 715.644 1261.69 719.617L1268.26 692.458Z" fill="white"/>
<path d="M1261.69 720.701C1261.55 720.732 1261.4 720.732 1261.26 720.701C1252.2 716.727 1243.4 712.173 1234.92 707.067L1217.58 696.555L1208.67 691.136C1207.37 690.334 1206.03 689.424 1204.64 688.47C1201.85 686.342 1198.79 684.593 1195.54 683.268L1194 682.813C1189.52 681.654 1185.16 680.057 1181 678.044C1176.4 675.487 1169.2 665.625 1168.38 664.454C1167.67 663.826 1163.11 659.707 1160.71 657.302C1157.8 654.397 1159.21 646.876 1159.39 646.031C1159.42 645.874 1159.49 645.727 1159.59 645.6C1159.69 645.473 1159.81 645.368 1159.95 645.294C1160.1 645.22 1160.25 645.177 1160.41 645.17C1160.57 645.162 1160.73 645.19 1160.88 645.25L1174.95 651.536C1172.78 649.499 1170.61 647.331 1169.57 646.594C1168.72 645.969 1168.02 645.15 1167.54 644.204C1167.07 643.259 1166.82 642.213 1166.82 641.154C1166.9 640.089 1167.25 639.062 1167.82 638.163C1168.4 637.263 1169.18 636.518 1170.11 635.995C1174.06 633.351 1176.81 637.122 1179 640.135C1179.88 641.47 1180.93 642.674 1182.14 643.711C1184.15 644.842 1186.29 645.702 1188.52 646.269C1192.48 647.526 1196.97 648.935 1199.35 651.601C1202.71 655.438 1206.83 664.606 1207.63 666.492C1208.78 667.229 1213.96 670.372 1226.27 676.527C1234.94 680.862 1254.06 686.996 1268.61 691.418C1268.87 691.499 1269.1 691.678 1269.24 691.919C1269.38 692.16 1269.43 692.446 1269.36 692.718L1262.86 719.855C1262.82 720.01 1262.75 720.155 1262.65 720.278C1262.55 720.402 1262.42 720.502 1262.28 720.571C1262.1 720.673 1261.9 720.718 1261.69 720.701ZM1161.29 647.7C1160.92 650.517 1160.9 654.31 1162.25 655.654C1164.76 658.169 1169.85 662.764 1169.92 662.807L1170.07 663.002C1170.07 663.002 1177.7 673.623 1182.06 676.007C1186.1 677.935 1190.32 679.467 1194.65 680.58L1196.28 681.057C1199.72 682.442 1202.96 684.279 1205.92 686.519C1207.27 687.451 1208.59 688.362 1209.85 689.12L1218.75 694.539L1236.09 705.051C1244.11 709.892 1252.42 714.235 1260.98 718.056L1267 693.152C1252.5 688.817 1233.86 682.705 1225.3 678.435C1218.74 675.314 1212.36 671.856 1206.16 668.074C1205.99 667.957 1205.85 667.791 1205.77 667.597C1205.77 667.489 1201.18 656.911 1197.73 652.988C1195.8 650.821 1191.62 649.455 1187.93 648.285C1185.48 647.667 1183.12 646.711 1180.93 645.445C1179.54 644.267 1178.33 642.895 1177.33 641.37C1174.8 637.903 1173.37 636.407 1171.37 637.751C1170.73 638.083 1170.18 638.571 1169.78 639.169C1169.37 639.767 1169.12 640.457 1169.05 641.175C1169.08 641.867 1169.26 642.543 1169.58 643.155C1169.9 643.767 1170.36 644.298 1170.92 644.708C1173.08 646.291 1180.48 653.747 1180.8 654.072C1180.98 654.253 1181.09 654.49 1181.11 654.743C1181.14 654.995 1181.07 655.248 1180.93 655.459C1180.79 655.669 1180.57 655.821 1180.33 655.888C1180.08 655.955 1179.82 655.934 1179.59 655.828L1161.29 647.7Z" fill="#263238"/>
<path d="M1298.76 713.028C1298.47 713.026 1298.19 712.918 1297.98 712.724L1286.03 700.825L1288.94 710.622C1289.01 710.898 1288.98 711.192 1288.84 711.442C1288.7 711.693 1288.47 711.88 1288.2 711.966C1288.06 712.009 1287.92 712.023 1287.78 712.009C1287.63 711.995 1287.5 711.952 1287.37 711.884C1287.25 711.815 1287.13 711.721 1287.05 711.609C1286.96 711.496 1286.89 711.367 1286.86 711.229L1282.74 697.357C1282.67 697.124 1282.69 696.877 1282.77 696.651C1282.86 696.425 1283.01 696.232 1283.21 696.1C1283.42 695.981 1283.67 695.933 1283.9 695.964C1284.14 695.996 1284.37 696.104 1284.54 696.273L1299.45 711.185C1299.55 711.286 1299.63 711.406 1299.69 711.538C1299.74 711.67 1299.77 711.812 1299.77 711.955C1299.77 712.098 1299.74 712.239 1299.69 712.372C1299.63 712.504 1299.55 712.623 1299.45 712.724C1299.26 712.902 1299.01 713.01 1298.76 713.028Z" fill="#263238"/>
</svg>
