<svg width="499" height="508" viewBox="0 0 499 508" fill="none" xmlns="http://www.w3.org/2000/svg">
<path d="M78.3893 134.461H431.208C433.778 134.461 436.242 135.482 438.058 137.299C439.875 139.116 440.896 141.58 440.896 144.149V389.501H68.7019V144.164C68.6999 142.89 68.949 141.629 69.435 140.452C69.9209 139.275 70.6342 138.205 71.5339 137.304C72.4337 136.403 73.5023 135.688 74.6786 135.2C75.8549 134.713 77.1158 134.461 78.3893 134.461V134.461Z" fill="#263238"/>
<path d="M441.665 390.256H67.9473V144.164C67.9473 141.393 69.0469 138.735 71.0047 136.775C72.9625 134.814 75.6184 133.711 78.3891 133.707H431.208C433.98 133.711 436.638 134.814 438.598 136.774C440.558 138.734 441.661 141.392 441.665 144.164V390.256ZM69.4562 388.747H440.156V144.164C440.152 141.792 439.208 139.518 437.531 137.841C435.854 136.164 433.58 135.22 431.208 135.216H78.3891C76.0186 135.22 73.7465 136.164 72.0717 137.842C70.3969 139.519 69.4562 141.793 69.4562 144.164V388.747Z" fill="#263238"/>
<path d="M485.666 506.444H23.9317C18.8315 506.444 14.531 499.125 16.7944 494.553L68.7018 393.711H440.911L493.089 494.206C495.368 498.763 490.841 506.444 485.666 506.444Z" fill="#263238"/>
<path d="M485.666 507.198H23.9318C22.5014 507.108 21.1177 506.655 19.9111 505.881C18.7046 505.108 17.7151 504.039 17.0359 502.777C16.1798 501.542 15.6447 500.113 15.4787 498.62C15.3128 497.126 15.5212 495.615 16.0853 494.222L68.2039 392.957H441.363L441.575 393.349L493.754 493.859C494.314 495.284 494.511 496.826 494.327 498.346C494.143 499.866 493.583 501.317 492.697 502.566C492.001 503.86 490.993 504.961 489.766 505.769C488.539 506.578 487.13 507.069 485.666 507.198V507.198ZM69.1998 394.466L17.4584 494.931C17.0116 496.092 16.8591 497.346 17.0145 498.581C17.1698 499.816 17.6282 500.993 18.3487 502.008C18.8978 503.041 19.6958 503.922 20.6705 504.57C21.6452 505.218 22.7661 505.613 23.9318 505.72H485.666C486.873 505.59 488.03 505.165 489.033 504.48C490.036 503.796 490.854 502.874 491.415 501.796C492.158 500.765 492.638 499.566 492.812 498.306C492.985 497.046 492.848 495.763 492.411 494.569L440.443 394.466H69.1998Z" fill="#263238"/>
<path d="M485.666 502.234H23.9317C22.7631 502.235 21.6137 501.937 20.5922 501.37C19.5708 500.802 18.7111 499.983 18.0947 498.99C17.4782 497.998 17.1253 496.864 17.0694 495.697C17.0135 494.529 17.2564 493.367 17.7752 492.32L68.7017 389.501H440.911L491.822 492.32C492.341 493.367 492.584 494.529 492.528 495.697C492.472 496.864 492.119 497.998 491.503 498.99C490.886 499.983 490.026 500.802 489.005 501.37C487.984 501.937 486.834 502.235 485.666 502.234V502.234Z" fill="white"/>
<path d="M485.666 502.988H23.9317C22.6299 503 21.3468 502.677 20.2049 502.052C19.063 501.426 18.1004 500.519 17.4089 499.416C16.7174 498.313 16.32 497.051 16.2547 495.751C16.1894 494.45 16.4584 493.155 17.0359 491.988L67.9624 389.169C68.0216 389.04 68.1176 388.931 68.2383 388.856C68.3591 388.781 68.4993 388.743 68.6414 388.747H440.911C441.051 388.744 441.188 388.782 441.307 388.858C441.425 388.933 441.518 389.041 441.575 389.169L492.501 491.988C493.076 493.15 493.345 494.44 493.283 495.735C493.22 497.031 492.828 498.289 492.144 499.39C491.459 500.491 490.505 501.4 489.372 502.03C488.238 502.659 486.962 502.989 485.666 502.988V502.988ZM69.1998 390.256L18.4543 492.652C17.9919 493.584 17.7751 494.619 17.8244 495.658C17.8737 496.697 18.1875 497.706 18.736 498.59C19.2845 499.474 20.0497 500.204 20.9589 500.709C21.8681 501.215 22.8914 501.48 23.9317 501.479H485.666C486.706 501.48 487.729 501.215 488.638 500.709C489.548 500.204 490.313 499.474 490.861 498.59C491.41 497.706 491.724 496.697 491.773 495.658C491.822 494.619 491.605 493.584 491.143 492.652L440.443 390.256H69.1998Z" fill="#263238"/>
<path d="M418.367 154.651H91.2454V369.297H418.367V154.651Z" fill="white"/>
<path d="M419.106 370.051H90.4907V153.912H419.106V370.051ZM91.9997 368.542H417.597V155.421H91.9997V368.542Z" fill="#263238"/>
<path d="M411.064 252.475H99.7407V361.571H411.064V252.475Z" fill="#92E3A9"/>
<path opacity="0.46" d="M139.531 318.084V315.367C139.531 314.967 139.372 314.584 139.089 314.301C138.806 314.018 138.422 313.859 138.022 313.859H135.94C135.623 312.475 135.078 311.154 134.325 309.95L135.834 308.441C136.097 308.162 136.244 307.792 136.244 307.408C136.244 307.024 136.097 306.654 135.834 306.374L133.888 304.428C133.607 304.16 133.234 304.011 132.847 304.011C132.459 304.011 132.086 304.16 131.806 304.428L130.297 305.937C129.089 305.182 127.763 304.636 126.373 304.322V302.194C126.373 301.794 126.214 301.411 125.931 301.128C125.648 300.845 125.265 300.686 124.864 300.686H122.118C121.718 300.686 121.334 300.845 121.051 301.128C120.768 301.411 120.609 301.794 120.609 302.194V304.322C119.226 304.639 117.905 305.184 116.701 305.937L115.192 304.428C114.912 304.165 114.543 304.018 114.159 304.018C113.774 304.018 113.405 304.165 113.125 304.428L111.254 306.314C110.991 306.594 110.844 306.963 110.844 307.348C110.844 307.732 110.991 308.101 111.254 308.381L112.763 309.89C112.011 311.094 111.465 312.415 111.148 313.798H109.081C108.681 313.798 108.297 313.957 108.014 314.24C107.731 314.523 107.572 314.907 107.572 315.307V318.053C107.572 318.454 107.731 318.837 108.014 319.12C108.297 319.403 108.681 319.562 109.081 319.562H111.209C111.523 320.951 112.068 322.278 112.823 323.486L111.314 324.995C111.051 325.274 110.905 325.644 110.905 326.028C110.905 326.412 111.051 326.782 111.314 327.062L113.261 329.008C113.541 329.271 113.91 329.418 114.294 329.418C114.678 329.418 115.048 329.271 115.328 329.008L116.837 327.499C118.041 328.252 119.361 328.797 120.745 329.114V331.241C120.745 331.642 120.904 332.025 121.187 332.308C121.47 332.591 121.854 332.75 122.254 332.75H125C125.4 332.75 125.784 332.591 126.067 332.308C126.35 332.025 126.509 331.642 126.509 331.241V329.114C127.898 328.8 129.225 328.254 130.432 327.499L131.941 329.008C132.222 329.276 132.595 329.425 132.982 329.425C133.37 329.425 133.743 329.276 134.024 329.008L135.97 327.062C136.233 326.782 136.38 326.412 136.38 326.028C136.38 325.644 136.233 325.274 135.97 324.995L134.461 323.486C135.216 322.278 135.762 320.951 136.076 319.562H138.203C138.566 319.518 138.901 319.344 139.145 319.072C139.389 318.8 139.527 318.449 139.531 318.084ZM124.17 322.912C122.881 323.043 121.584 322.771 120.455 322.135C119.327 321.499 118.423 320.529 117.867 319.358C117.312 318.188 117.132 316.874 117.353 315.598C117.573 314.321 118.184 313.144 119.1 312.228C120.016 311.312 121.193 310.702 122.469 310.481C123.746 310.261 125.059 310.441 126.23 310.996C127.4 311.551 128.37 312.455 129.006 313.584C129.642 314.712 129.914 316.01 129.784 317.299C129.638 318.738 129 320.083 127.977 321.106C126.954 322.128 125.609 322.767 124.17 322.912V322.912Z" fill="white"/>
<path opacity="0.46" d="M165.44 337.322V334.576C165.44 334.176 165.281 333.792 164.998 333.509C164.715 333.226 164.331 333.067 163.931 333.067H161.894C161.575 331.677 161.024 330.351 160.264 329.144L161.773 327.635C162.041 327.355 162.19 326.982 162.19 326.594C162.19 326.206 162.041 325.833 161.773 325.553L159.826 323.606C159.546 323.339 159.173 323.19 158.785 323.19C158.398 323.19 158.025 323.339 157.744 323.606L156.235 325.115C155.026 324.363 153.7 323.817 152.312 323.501V321.403C152.312 321.003 152.153 320.619 151.87 320.336C151.587 320.053 151.203 319.894 150.803 319.894H148.042C147.642 319.894 147.258 320.053 146.975 320.336C146.692 320.619 146.533 321.003 146.533 321.403V323.531C145.144 323.847 143.819 324.393 142.61 325.145L141.101 323.636C140.82 323.369 140.447 323.22 140.059 323.22C139.672 323.22 139.299 323.369 139.018 323.636L137.072 325.583C136.804 325.864 136.655 326.236 136.655 326.624C136.655 327.012 136.804 327.385 137.072 327.665L138.581 329.174C137.815 330.378 137.263 331.705 136.951 333.097H134.839C134.438 333.097 134.055 333.256 133.772 333.539C133.489 333.822 133.33 334.206 133.33 334.606V337.353C133.33 337.753 133.489 338.137 133.772 338.42C134.055 338.703 134.438 338.862 134.839 338.862H136.951C137.264 340.249 137.815 341.571 138.581 342.77L137.072 344.279C136.804 344.559 136.655 344.932 136.655 345.32C136.655 345.708 136.804 346.08 137.072 346.361L139.018 348.292C139.299 348.56 139.672 348.709 140.059 348.709C140.447 348.709 140.82 348.56 141.101 348.292L142.61 346.784C143.819 347.536 145.144 348.081 146.533 348.398V350.526C146.533 350.926 146.692 351.31 146.975 351.593C147.258 351.876 147.642 352.035 148.042 352.035H150.803C151.203 352.035 151.587 351.876 151.87 351.593C152.153 351.31 152.312 350.926 152.312 350.526V348.398C153.7 348.081 155.026 347.536 156.235 346.784L157.744 348.292C158.025 348.56 158.398 348.709 158.785 348.709C159.173 348.709 159.546 348.56 159.826 348.292L161.773 346.361C162.041 346.08 162.19 345.708 162.19 345.32C162.19 344.932 162.041 344.559 161.773 344.279L160.264 342.77C161.024 341.568 161.575 340.247 161.894 338.862H164.006C164.398 338.842 164.768 338.67 165.035 338.383C165.303 338.096 165.448 337.715 165.44 337.322V337.322ZM150.079 342.211C148.786 342.345 147.484 342.075 146.351 341.438C145.218 340.801 144.309 339.829 143.751 338.656C143.193 337.482 143.011 336.165 143.232 334.884C143.453 333.603 144.065 332.422 144.984 331.503C145.903 330.584 147.084 329.972 148.364 329.752C149.645 329.531 150.963 329.712 152.136 330.271C153.31 330.829 154.282 331.737 154.919 332.87C155.555 334.003 155.825 335.305 155.692 336.598C155.544 338.036 154.905 339.379 153.882 340.402C152.86 341.424 151.517 342.063 150.079 342.211Z" fill="white"/>
<path d="M168.382 262.977H111.948C111.776 262.977 111.611 262.909 111.489 262.787C111.367 262.665 111.299 262.5 111.299 262.328C111.299 262.155 111.367 261.988 111.488 261.864C111.609 261.74 111.774 261.668 111.948 261.664H168.382C168.558 261.664 168.727 261.734 168.852 261.859C168.976 261.983 169.046 262.152 169.046 262.328C169.042 262.502 168.97 262.667 168.846 262.788C168.722 262.909 168.556 262.977 168.382 262.977V262.977Z" fill="#263238"/>
<path d="M168.382 271.126H111.948C111.774 271.122 111.609 271.05 111.488 270.926C111.367 270.802 111.299 270.635 111.299 270.462C111.299 270.289 111.367 270.124 111.489 270.003C111.611 269.881 111.776 269.813 111.948 269.813H168.382C168.556 269.813 168.722 269.881 168.846 270.002C168.97 270.123 169.042 270.288 169.046 270.462C169.046 270.638 168.976 270.807 168.852 270.931C168.727 271.056 168.558 271.126 168.382 271.126Z" fill="#263238"/>
<path d="M168.382 279.259H111.948C111.776 279.259 111.611 279.19 111.489 279.069C111.367 278.947 111.299 278.782 111.299 278.61C111.299 278.436 111.367 278.27 111.488 278.146C111.609 278.021 111.774 277.95 111.948 277.946H168.382C168.558 277.946 168.727 278.016 168.852 278.14C168.976 278.265 169.046 278.434 169.046 278.61C169.042 278.783 168.97 278.948 168.846 279.069C168.722 279.191 168.556 279.259 168.382 279.259V279.259Z" fill="#263238"/>
<path d="M168.382 287.407H111.948C111.774 287.403 111.609 287.331 111.488 287.207C111.367 287.083 111.299 286.917 111.299 286.743C111.299 286.571 111.367 286.406 111.489 286.284C111.611 286.163 111.776 286.094 111.948 286.094H168.382C168.556 286.094 168.722 286.162 168.846 286.283C168.97 286.405 169.042 286.57 169.046 286.743C169.046 286.919 168.976 287.088 168.852 287.213C168.727 287.337 168.558 287.407 168.382 287.407Z" fill="#263238"/>
<path d="M405.089 164.776H105.716C102.416 164.776 99.7407 167.451 99.7407 170.751V171.43C99.7407 174.73 102.416 177.406 105.716 177.406H405.089C408.389 177.406 411.064 174.73 411.064 171.43V170.751C411.064 167.451 408.389 164.776 405.089 164.776Z" fill="#92E3A9"/>
<path d="M405.089 206.422H105.716C102.416 206.422 99.7407 209.098 99.7407 212.398V213.077C99.7407 216.377 102.416 219.052 105.716 219.052H405.089C408.389 219.052 411.064 216.377 411.064 213.077V212.398C411.064 209.098 408.389 206.422 405.089 206.422Z" fill="#92E3A9"/>
<path d="M239.272 425.188L239.92 411.441H220.259L218.946 425.188H239.272Z" fill="#263238"/>
<path d="M239.996 425.942H218.116L219.625 410.687H240.75L239.996 425.942ZM219.776 424.433H238.547L239.136 412.196H220.938L219.776 424.433Z" fill="white"/>
<path d="M279.922 425.188L279.259 411.441H259.582L259.597 425.188H279.922Z" fill="#263238"/>
<path d="M280.722 425.942H258.843V410.687H279.968L280.722 425.942ZM260.351 424.433H279.123L278.534 412.196H260.336L260.351 424.433Z" fill="white"/>
<path d="M385.774 439.869H406.809L401.874 425.188H381.549L385.774 439.869Z" fill="#263238"/>
<path d="M407.85 440.609H385.216L380.538 424.418H402.418L407.85 440.609ZM386.347 439.1H405.752L401.331 425.927H382.545L386.347 439.1Z" fill="white"/>
<path d="M218.946 425.188L220.259 411.441H200.582L198.621 425.188H218.946Z" fill="#263238"/>
<path d="M219.641 425.942H197.761L199.934 410.687H221.059L219.641 425.942ZM199.496 424.433H218.267L219.429 412.196H201.322L199.496 424.433Z" fill="white"/>
<path d="M178.296 425.188L180.921 411.441H161.245L157.97 425.188H178.296Z" fill="#263238"/>
<path d="M178.929 425.942H157.02L160.656 410.687H181.781L178.929 425.942ZM158.936 424.433H177.677L180.001 412.196H161.894L158.936 424.433Z" fill="white"/>
<path d="M361.224 425.188L357.919 411.441H338.258L340.898 425.188H361.224Z" fill="#263238"/>
<path d="M362.174 425.942H340.265L337.337 410.687H358.462L362.174 425.942ZM341.517 424.433H360.258L357.331 412.196H339.224L341.517 424.433Z" fill="white"/>
<path d="M381.549 425.188L377.581 411.441H357.919L361.224 425.188H381.549Z" fill="#263238"/>
<path d="M382.545 425.942H360.62L356.969 410.687H378.094L382.545 425.942ZM361.812 424.433H380.538L377.022 412.196H358.915L361.812 424.433Z" fill="white"/>
<path d="M157.97 425.188L161.245 411.441H141.583L137.645 425.188H157.97Z" fill="#263238"/>
<path d="M158.574 425.942H136.649L141.01 410.687H162.211L158.574 425.942ZM138.656 424.433H157.367L160.279 412.196H142.172L138.656 424.433Z" fill="white"/>
<path d="M300.248 425.188L298.92 411.441H279.259L279.922 425.188H300.248Z" fill="#263238"/>
<path d="M301.078 425.942H279.198L278.459 410.687H299.584L301.078 425.942ZM280.647 424.433H299.418L298.241 412.196H280.043L280.647 424.433Z" fill="white"/>
<path d="M401.875 425.188L397.257 411.441H377.581L381.549 425.188H401.875Z" fill="#263238"/>
<path d="M402.916 425.942H380.976L376.585 410.687H397.8L402.916 425.942ZM382.107 424.433H400.818L396.714 412.196H378.607L382.107 424.433Z" fill="white"/>
<path d="M340.898 425.188L338.258 411.441H318.581L320.573 425.188H340.898Z" fill="#263238"/>
<path d="M341.804 425.942H319.924L317.721 410.687H338.846L341.804 425.942ZM321.222 424.433H339.948L337.594 412.196H319.487L321.222 424.433Z" fill="white"/>
<path d="M320.573 425.188L318.581 411.441H298.92L300.248 425.188H320.573Z" fill="#263238"/>
<path d="M321.448 425.942H299.569L298.06 410.687H319.185L321.448 425.942ZM300.927 424.433H319.698L317.932 412.196H299.75L300.927 424.433Z" fill="white"/>
<path d="M259.597 425.188L259.582 411.441H239.921L239.272 425.188H259.597Z" fill="#263238"/>
<path d="M260.352 425.942H238.487L239.196 410.687H260.321L260.352 425.942ZM240.071 424.433H258.843V412.196H240.645L240.071 424.433Z" fill="white"/>
<path d="M117.335 425.188H97.0095L91.3962 439.869H112.416L117.335 425.188Z" fill="#263238"/>
<path d="M112.959 440.609H90.325L96.5116 424.418H118.406L112.959 440.609ZM92.4827 439.1H111.873L116.279 425.927H97.5226L92.4827 439.1Z" fill="white"/>
<path d="M121.922 411.441H102.246L97.0095 425.188H117.335L121.922 411.441Z" fill="#263238"/>
<path d="M117.863 425.942H95.9077L101.732 410.687H122.963L117.863 425.942ZM98.0957 424.433H116.776L120.865 412.196H102.758L98.0957 424.433Z" fill="white"/>
<path d="M137.645 425.188L141.583 411.441H121.922L117.335 425.188H137.645Z" fill="#263238"/>
<path d="M138.218 425.942H116.279L121.379 410.687H142.504L138.218 425.942ZM118.376 424.433H137.087L140.587 412.196H122.48L118.376 424.433Z" fill="white"/>
<path d="M85.3755 455.608L78.9172 472.523H101.506L107.164 455.608H85.3755Z" fill="#263238"/>
<path d="M102.049 473.278H77.8157L84.9378 454.854H108.281L102.049 473.278ZM80.0036 471.769H100.963L106.063 456.362H85.9036L80.0036 471.769Z" fill="white"/>
<path d="M112.416 439.87H91.3961L85.3755 455.608H107.165L112.416 439.87Z" fill="#263238"/>
<path d="M107.708 456.362H84.2739L90.868 439.1H113.502L107.708 456.362ZM86.477 454.853H106.621L111.374 440.624H91.9091L86.477 454.853Z" fill="white"/>
<path d="M107.164 455.608L101.506 472.523H124.095L128.938 455.608H107.164Z" fill="#263238"/>
<path d="M124.668 473.278H100.525L106.682 454.854H129.995L124.668 473.278ZM102.547 471.769H123.521L127.942 456.362H107.708L102.547 471.769Z" fill="white"/>
<path d="M198.621 425.188L200.583 411.441H180.921L178.296 425.188H198.621Z" fill="#263238"/>
<path d="M199.285 425.942H177.39L180.287 410.687H201.412L199.285 425.942ZM179.216 424.433H197.972L199.707 412.196H181.51L179.216 424.433Z" fill="white"/>
<path d="M196.524 439.869L198.621 425.188H178.296L175.504 439.869H196.524Z" fill="#263238"/>
<path d="M197.187 440.609H174.553L177.647 424.418H199.466L197.187 440.609ZM176.409 439.1H195.875L197.761 425.927H178.929L176.409 439.1Z" fill="white"/>
<path d="M175.504 439.869L178.296 425.188H157.97L154.469 439.869H175.504Z" fill="#263238"/>
<path d="M176.123 440.609H153.489L157.367 424.433H179.201L176.123 440.609ZM155.435 439.1H174.87L177.39 425.927H158.574L155.435 439.1Z" fill="white"/>
<path d="M217.558 439.869L218.946 425.188H198.621L196.524 439.869H217.558Z" fill="#263238"/>
<path d="M218.237 440.609H195.603L197.912 424.418H219.716L218.237 440.609ZM197.399 439.1H216.864L218.117 425.927H199.285L197.399 439.1Z" fill="white"/>
<path d="M137.645 425.188H117.335L112.416 439.869H133.45L137.645 425.188Z" fill="#263238"/>
<path d="M134.008 440.609H111.374L116.776 424.418H138.656L134.008 440.609ZM113.472 439.1H132.877L136.649 425.927H117.863L113.472 439.1Z" fill="white"/>
<path d="M390.316 455.608H412.09L406.809 439.87H385.774L390.316 455.608Z" fill="#263238"/>
<path d="M413.146 456.362H389.742L384.778 439.1H407.412L413.146 456.362ZM390.874 454.853H411.049L406.341 440.609H386.725L390.874 454.853Z" fill="white"/>
<path d="M154.47 439.869L157.97 425.188H137.645L133.45 439.869H154.47Z" fill="#263238"/>
<path d="M155.073 440.609H132.439L137.087 424.418H158.876L155.073 440.609ZM134.446 439.1H153.881L157.02 425.927H138.218L134.446 439.1Z" fill="white"/>
<path d="M112.416 439.87L107.165 455.608H128.938L133.45 439.87H112.416Z" fill="#263238"/>
<path d="M129.512 456.362H106.063L111.872 439.1H134.506L129.512 456.362ZM108.206 454.853H128.365L132.439 440.624H112.959L108.206 454.853Z" fill="white"/>
<path d="M343.72 439.869L340.898 425.188H320.573L322.701 439.869H343.72Z" fill="#263238"/>
<path d="M344.641 440.609H322.007L319.668 424.418H341.457L344.641 440.609ZM323.35 439.1H342.815L340.265 425.927H321.448L323.35 439.1Z" fill="white"/>
<path d="M322.701 439.869L320.573 425.188H300.248L301.666 439.869H322.701Z" fill="#263238"/>
<path d="M323.561 440.609H300.927L299.418 424.418H321.222L323.561 440.609ZM302.345 439.1H321.841L319.939 425.927H301.078L302.345 439.1Z" fill="white"/>
<path d="M385.774 439.869L381.549 425.188H361.224L364.755 439.869H385.774Z" fill="#263238"/>
<path d="M386.725 440.609H364.091L360.198 424.418H382.047L386.725 440.609ZM365.283 439.1H384.718L380.915 425.927H362.174L365.283 439.1Z" fill="white"/>
<path d="M259.612 439.869L259.597 425.188H239.272L238.578 439.869H259.612Z" fill="#263238"/>
<path d="M260.367 440.609H237.733L238.487 424.418H260.291L260.367 440.609ZM239.377 439.1H258.858V425.927H239.996L239.377 439.1Z" fill="white"/>
<path d="M301.666 439.869L300.248 425.188H279.923L280.632 439.869H301.666Z" fill="#263238"/>
<path d="M302.496 440.609H279.862L279.062 424.418H300.866L302.496 440.609ZM281.371 439.1H300.851L299.584 425.927H280.722L281.371 439.1Z" fill="white"/>
<path d="M280.631 439.869L279.922 425.188H259.597L259.612 439.869H280.631Z" fill="#263238"/>
<path d="M281.431 440.609H258.797V424.433H280.647L281.431 440.609ZM260.306 439.1H279.787L279.138 425.927H260.352L260.306 439.1Z" fill="white"/>
<path d="M238.578 439.869L239.272 425.188H218.946L217.558 439.869H238.578Z" fill="#263238"/>
<path d="M239.302 440.609H216.668L218.177 424.418H239.981L239.302 440.609ZM218.388 439.1H237.868L238.487 425.927H219.641L218.388 439.1Z" fill="white"/>
<path d="M301.666 439.87L303.19 455.608H324.964L322.701 439.87H301.666Z" fill="#263238"/>
<path d="M325.839 456.362H302.496L300.836 439.1H323.35L325.839 456.362ZM303.869 454.853H324.104L322.037 440.609H302.496L303.869 454.853Z" fill="white"/>
<path d="M322.701 439.87L324.964 455.608H346.753L343.72 439.87H322.701Z" fill="#263238"/>
<path d="M347.658 456.362H324.315L321.841 439.1H344.354L347.658 456.362ZM325.628 454.853H345.833L343.101 440.609H323.561L325.628 454.853Z" fill="white"/>
<path d="M133.45 439.87L128.938 455.608H150.712L154.47 439.87H133.45Z" fill="#263238"/>
<path d="M151.331 456.362H127.943L132.877 439.1H155.435L151.331 456.362ZM129.95 454.853H150.124L153.519 440.624H134.009L129.95 454.853Z" fill="white"/>
<path d="M343.72 439.87L346.753 455.608H368.527L364.755 439.87H343.72Z" fill="#263238"/>
<path d="M369.493 456.362H346.134L342.815 439.1H365.343L369.493 456.362ZM347.372 454.853H367.576L364.091 440.609H344.64L347.372 454.853Z" fill="white"/>
<path d="M259.612 439.87L259.627 455.608H281.401L280.632 439.87H259.612Z" fill="#263238"/>
<path d="M282.201 456.362H258.873V439.1H281.371L282.201 456.362ZM260.382 454.853H280.617L279.922 440.624H260.306L260.382 454.853Z" fill="white"/>
<path d="M364.755 439.87L368.527 455.608H390.316L385.774 439.87H364.755Z" fill="#263238"/>
<path d="M391.251 456.362H367.938L363.789 439.1H386.347L391.251 456.362ZM369.07 454.853H389.245L385.216 440.609H365.705L369.07 454.853Z" fill="white"/>
<path d="M280.632 439.87L281.401 455.608H303.19L301.666 439.87H280.632Z" fill="#263238"/>
<path d="M304.02 456.362H280.692L279.847 439.1H302.345L304.02 456.362ZM282.126 454.853H302.36L300.987 440.624H281.371L282.126 454.853Z" fill="white"/>
<path d="M175.504 439.87L172.501 455.608H194.29L196.524 439.87H175.504Z" fill="#263238"/>
<path d="M194.939 456.362H171.596L174.87 439.1H197.399L194.939 456.362ZM173.407 454.853H193.581L195.618 440.624H176.123L173.407 454.853Z" fill="white"/>
<path d="M154.47 439.87L150.712 455.608H172.501L175.504 439.87H154.47Z" fill="#263238"/>
<path d="M173.12 456.362H149.822L153.881 439.1H176.409L173.12 456.362ZM151.678 454.853H171.883L174.584 440.624H155.073L151.678 454.853Z" fill="white"/>
<path d="M238.578 439.87L237.853 455.608H259.627L259.612 439.87H238.578Z" fill="#263238"/>
<path d="M260.382 456.362H237.053L237.868 439.115H260.366L260.382 456.362ZM238.638 454.853H258.873V440.609H239.257L238.638 454.853Z" fill="white"/>
<path d="M217.558 439.87L216.064 455.608H237.853L238.578 439.87H217.558Z" fill="#263238"/>
<path d="M238.562 456.362H215.234L216.864 439.1H239.377L238.562 456.362ZM216.894 454.853H237.129L237.793 440.624H218.177L216.894 454.853Z" fill="white"/>
<path d="M196.523 439.87L194.29 455.608H216.064L217.558 439.87H196.523Z" fill="#263238"/>
<path d="M216.743 456.362H193.415L195.875 439.1H218.388L216.743 456.362ZM195.151 454.853H215.37L216.728 440.624H197.112L195.151 454.853Z" fill="white"/>
<path d="M364.755 439.869L361.224 425.188H340.898L343.72 439.869H364.755Z" fill="#263238"/>
<path d="M365.705 440.609H343.071L339.948 424.433H361.782L365.705 440.609ZM344.339 439.1H363.789L360.62 425.927H341.804L344.339 439.1Z" fill="white"/>
<path d="M121.922 411.441L126.615 397.378H107.617L102.245 411.441H121.922Z" fill="#263238"/>
<path d="M122.465 412.196H101.159L107.104 396.624H127.671L122.465 412.196ZM103.347 410.687H121.454L125.649 398.132H108.145L103.347 410.687Z" fill="white"/>
<path d="M102.245 411.441H84.093L78.2383 425.188H97.0094L102.245 411.441Z" fill="#263238"/>
<path d="M97.5223 425.942H77.1064L83.5949 410.687H103.347L97.5223 425.942ZM79.4151 424.433H96.5113L101.189 412.196H84.5908L79.4151 424.433Z" fill="white"/>
<path d="M107.617 397.378H90.0832L84.0928 411.441H102.245L107.617 397.378Z" fill="#263238"/>
<path d="M102.773 412.196H82.9612L89.5854 396.624H108.719L102.773 412.196ZM85.2397 410.687H101.732L106.531 398.132H90.5964L85.2397 410.687Z" fill="white"/>
<path d="M97.0093 425.188H78.2381L71.9761 439.869H91.396L97.0093 425.188Z" fill="#263238"/>
<path d="M91.9092 440.609H70.7842L77.68 424.418H98.0355L91.9092 440.609ZM73.123 439.1H90.8681L95.9079 425.927H78.7363L73.123 439.1Z" fill="white"/>
<path d="M91.3963 439.87H71.9763L65.2766 455.608H85.3756L91.3963 439.87Z" fill="#263238"/>
<path d="M85.9036 456.362H64.1296L71.4782 439.1H92.4825L85.9036 456.362ZM66.4081 454.853H84.9378L90.37 440.624H72.474L66.4081 454.853Z" fill="white"/>
<path d="M85.3754 455.608H65.2764L58.0637 472.523H78.9172L85.3754 455.608Z" fill="#263238"/>
<path d="M79.4303 473.278H56.917L64.7785 454.854H86.4468L79.4303 473.278ZM59.2106 471.769H78.3891L84.274 456.362H65.7744L59.2106 471.769Z" fill="white"/>
<path d="M422.2 425.188L427.828 439.869H446.433L440.171 425.188H422.2Z" fill="#263238"/>
<path d="M447.58 440.609H427.315L421.098 424.418H440.715L447.58 440.609ZM428.356 439.1H445.287L439.673 425.927H423.286L428.356 439.1Z" fill="white"/>
<path d="M433.879 455.608H453.148L446.433 439.87H427.828L433.879 455.608Z" fill="#263238"/>
<path d="M454.28 456.362H433.351L426.742 439.1H446.931L454.28 456.362ZM434.392 454.853H452.001L445.966 440.624H428.975L434.392 454.853Z" fill="white"/>
<path d="M440.367 472.523H460.346L453.148 455.608H433.879L440.367 472.523Z" fill="#263238"/>
<path d="M461.492 473.278H439.854L432.777 454.854H453.646L461.492 473.278ZM440.88 471.769H459.154L452.59 456.362H435.011L440.88 471.769Z" fill="white"/>
<path d="M279.258 411.441L278.564 397.378H259.567L259.582 411.441H279.258Z" fill="#263238"/>
<path d="M280.043 412.196H258.828V396.624H279.289L280.043 412.196ZM260.337 410.687H278.444L277.825 398.132H260.321L260.337 410.687Z" fill="white"/>
<path d="M422.2 425.188H440.171L434.317 411.441H416.919L422.2 425.188Z" fill="#263238"/>
<path d="M441.318 425.942H421.702L415.847 410.687H434.845L441.318 425.942ZM422.713 424.433H439.024L433.819 412.196H418.02L422.713 424.433Z" fill="white"/>
<path d="M412.09 455.608H433.879L427.828 439.87H406.809L412.09 455.608Z" fill="#263238"/>
<path d="M435.01 456.362H411.547L405.752 439.1H428.386L435.01 456.362ZM412.663 454.853H432.807L427.315 440.609H407.85L412.663 454.853Z" fill="white"/>
<path d="M141.583 411.441L145.612 397.378H126.615L121.922 411.441H141.583Z" fill="#263238"/>
<path d="M142.157 412.196H120.866L126.072 396.624H146.608L142.157 412.196ZM122.963 410.687H141.07L144.677 398.132H127.188L122.963 410.687Z" fill="white"/>
<path d="M397.257 411.441L401.874 425.188H422.2L416.918 411.441H397.257Z" fill="#263238"/>
<path d="M423.286 425.942H401.331L396.201 410.687H417.432L423.286 425.942ZM402.418 424.433H421.098L416.406 412.196H398.298L402.418 424.433Z" fill="white"/>
<path d="M434.317 411.441L428.326 397.378H411.517L416.919 411.441H434.317Z" fill="#263238"/>
<path d="M435.463 412.196H416.406L410.37 396.624H428.824L435.463 412.196ZM417.432 410.687H433.17L427.828 398.132H412.618L417.432 410.687Z" fill="white"/>
<path d="M416.919 411.441L411.517 397.378H392.534L397.257 411.441H416.919Z" fill="#263238"/>
<path d="M418.02 412.196H396.714L391.478 396.624H412.045L418.02 412.196ZM397.8 410.687H415.817L411.004 398.132H393.575L397.8 410.687Z" fill="white"/>
<path d="M346.753 455.608L350.012 472.523H372.601L368.527 455.608H346.753Z" fill="#263238"/>
<path d="M373.552 473.278H349.409L345.863 454.854H369.161L373.552 473.278ZM350.631 471.769H371.635L367.938 456.362H347.658L350.631 471.769Z" fill="white"/>
<path d="M417.779 472.523H440.368L433.879 455.608H412.09L417.779 472.523Z" fill="#263238"/>
<path d="M441.469 473.278H417.235L411.049 454.854H434.392L441.469 473.278ZM418.322 471.769H439.266L433.351 456.362H413.146L418.322 471.769Z" fill="white"/>
<path d="M397.257 411.441L392.534 397.378H373.537L377.581 411.441H397.257Z" fill="#263238"/>
<path d="M398.298 412.196H377.022L372.495 396.624H393.047L398.298 412.196ZM378.154 410.687H396.261L392.051 398.132H374.532L378.154 410.687Z" fill="white"/>
<path d="M390.316 455.608L395.19 472.523H417.779L412.09 455.608H390.316Z" fill="#263238"/>
<path d="M418.82 473.278H394.677L389.365 454.854H412.694L418.82 473.278ZM395.748 471.769H416.722L411.547 456.362H391.252L395.748 471.769Z" fill="white"/>
<path d="M368.527 455.608L372.601 472.523H395.19L390.316 455.608H368.527Z" fill="#263238"/>
<path d="M396.186 473.278H372.043L367.622 454.854H390.92L396.186 473.278ZM373.19 471.769H394.179L389.743 456.362H369.493L373.19 471.769Z" fill="white"/>
<path d="M406.809 439.869H427.828L422.2 425.188H401.875L406.809 439.869Z" fill="#263238"/>
<path d="M428.975 440.609H406.341L400.894 424.418H422.788L428.975 440.609ZM407.397 439.1H426.787L421.717 425.927H402.916L407.397 439.1Z" fill="white"/>
<path d="M220.259 411.441L221.587 397.378H202.589L200.583 411.441H220.259Z" fill="#263238"/>
<path d="M220.938 412.196H199.708L201.941 396.624H222.417L220.938 412.196ZM201.458 410.687H219.565L220.757 398.132H203.254L201.458 410.687Z" fill="white"/>
<path d="M377.581 411.441L373.537 397.378H354.539L357.919 411.441H377.581Z" fill="#263238"/>
<path d="M378.592 412.196H357.331L353.528 396.624H374.035L378.592 412.196ZM358.508 410.687H376.615L372.994 398.132H355.505L358.508 410.687Z" fill="white"/>
<path d="M200.583 411.441L202.59 397.378H183.592L180.921 411.441H200.583Z" fill="#263238"/>
<path d="M201.247 412.196H180.001L183.019 396.624H203.51L201.247 412.196ZM181.827 410.687H199.934L201.73 398.132H184.226L181.827 410.687Z" fill="white"/>
<path d="M259.582 411.441L259.567 397.378H240.585L239.921 411.441H259.582Z" fill="#263238"/>
<path d="M260.337 412.196H239.136L239.86 396.624H260.321L260.337 412.196ZM240.72 410.687H258.828V398.132H241.294L240.72 410.687Z" fill="white"/>
<path d="M180.921 411.441L183.592 397.378H164.61L161.245 411.441H180.921Z" fill="#263238"/>
<path d="M181.51 412.196H160.294L164.006 396.624H184.528L181.51 412.196ZM162.18 410.687H180.288L182.687 398.132H165.198L162.18 410.687Z" fill="white"/>
<path d="M161.245 411.441L164.61 397.378H145.612L141.583 411.441H161.245Z" fill="#263238"/>
<path d="M161.894 412.196H140.587L145.114 396.624H165.636L161.894 412.196ZM142.624 410.687H160.732L163.75 398.132H146.186L142.624 410.687Z" fill="white"/>
<path d="M239.92 411.441L240.584 397.378H221.587L220.259 411.441H239.92Z" fill="#263238"/>
<path d="M240.645 412.196H219.429L220.938 396.624H241.415L240.645 412.196ZM221.029 410.687H239.136L239.725 398.132H222.251L221.029 410.687Z" fill="white"/>
<path d="M357.919 411.441L354.539 397.378H335.542L338.258 411.441H357.919Z" fill="#263238"/>
<path d="M358.87 412.196H337.624L334.606 396.624H355.113L358.87 412.196ZM338.877 410.687H356.984L353.966 398.132H336.462L338.877 410.687Z" fill="white"/>
<path d="M338.258 411.441L335.542 397.378H316.559L318.581 411.441H338.258Z" fill="#263238"/>
<path d="M339.163 412.196H317.932L315.684 396.624H336.175L339.163 412.196ZM319.245 410.687H337.352L334.938 398.132H317.434L319.245 410.687Z" fill="white"/>
<path d="M298.92 411.441L297.562 397.378H278.564L279.259 411.441H298.92Z" fill="#263238"/>
<path d="M299.75 412.196H278.534L277.78 396.624H298.241L299.75 412.196ZM279.968 410.687H298.075L296.853 398.132H279.349L279.968 410.687Z" fill="white"/>
<path d="M346.753 455.608H324.964H303.19H281.401H259.627H237.853H216.064H194.29H172.501H150.712H128.938L124.095 472.523H146.683H169.272H191.876H214.465H237.054H259.642H282.231H304.82H327.409H350.012L346.753 455.608Z" fill="#263238"/>
<path d="M350.918 473.278H123.069L128.335 454.854H347.372L350.918 473.278ZM125.091 471.769H349.092L346.074 456.362H129.512L125.091 471.769Z" fill="white"/>
<path d="M318.581 411.441L316.559 397.378H297.562L298.92 411.441H318.581Z" fill="#263238"/>
<path d="M319.457 412.196H298.241L296.732 396.624H317.208L319.457 412.196ZM299.599 410.687H317.706L315.88 398.132H298.377L299.599 410.687Z" fill="white"/>
<path d="M284.298 277.916C306.524 277.916 324.541 254.98 324.541 226.687C324.541 198.395 306.524 175.459 284.298 175.459C262.072 175.459 244.055 198.395 244.055 226.687C244.055 254.98 262.072 277.916 284.298 277.916Z" fill="#263238"/>
<path d="M284.298 278.655C261.664 278.655 243.286 255.342 243.286 226.687C243.286 198.033 261.68 174.705 284.298 174.705C306.917 174.705 325.296 198.018 325.296 226.687C325.296 255.357 306.902 278.655 284.298 278.655ZM284.298 176.214C262.509 176.214 244.795 198.848 244.795 226.687C244.795 254.527 262.509 277.146 284.298 277.146C306.087 277.146 323.787 254.512 323.787 226.687C323.787 198.863 306.072 176.214 284.298 176.214V176.214Z" fill="#263238"/>
<path d="M193.581 357.15C189.884 357.15 185.689 353.876 183.456 351.854C180.317 349.002 177.073 345.003 177.073 343.223C177.073 340.672 207.252 249.669 210.738 239.332C210.777 239.212 210.845 239.103 210.938 239.016C211.03 238.929 211.143 238.866 211.266 238.834C211.386 238.804 211.512 238.803 211.633 238.832C211.754 238.861 211.866 238.919 211.96 239L223.382 249.427C223.472 249.508 223.54 249.609 223.582 249.722C223.624 249.835 223.638 249.956 223.624 250.076L212.367 348.941C212.354 349.056 212.314 349.166 212.251 349.263C212.188 349.359 212.104 349.441 212.005 349.5C211.537 349.786 200.522 356.486 194.169 357.12L193.581 357.15ZM211.809 240.962C202.303 269.632 178.839 340.552 178.612 343.313C178.612 344.173 180.906 347.538 184.497 350.782C188.088 354.026 191.665 355.898 194.049 355.671C199.496 355.128 209.138 349.56 210.934 348.459L222.115 250.378L211.809 240.962Z" fill="#263238"/>
<path d="M278.157 226.204L211.402 239.559L222.085 371.077H352.276L369.628 234.217L290.168 225.541L278.157 226.204Z" fill="#92E3A9"/>
<path d="M352.276 371.832H222.085C221.896 371.832 221.715 371.76 221.577 371.631C221.44 371.502 221.357 371.326 221.346 371.138L210.647 239.619C210.632 239.435 210.686 239.252 210.797 239.104C210.908 238.957 211.07 238.856 211.251 238.819L278.081 225.465L290.153 224.786L369.719 233.478C369.918 233.499 370.102 233.596 370.232 233.749C370.294 233.83 370.339 233.922 370.365 234.021C370.391 234.119 370.397 234.222 370.383 234.323L353.03 371.198C353.001 371.377 352.909 371.539 352.771 371.655C352.632 371.771 352.457 371.834 352.276 371.832V371.832ZM222.794 370.323H351.612L368.783 234.896L290.153 226.34L278.308 227.004L212.262 240.223L222.794 370.323Z" fill="#263238"/>
<path opacity="0.3" d="M222.085 371.077H352.276L355.55 345.32L355.309 344.067L323.893 350.918L337.594 293.246L262.207 326.367L243.934 344.641H255.357L221.738 366.762L222.085 371.077Z" fill="black"/>
<path d="M271.065 218.796C271.065 218.796 260.231 224.726 257.485 230.052C254.738 235.379 243.376 274.943 243.376 274.943L262.072 278.957L244.055 287.633L271.321 365.736L314.718 363.065L342.966 280.949L325.598 273.615L340.959 266.931C340.959 266.931 326.277 238.895 318.325 226.884C310.373 214.872 271.065 218.796 271.065 218.796Z" fill="#92E3A9"/>
<path d="M271.382 366.49C271.227 366.49 271.075 366.442 270.949 366.353C270.822 366.264 270.725 366.138 270.673 365.992L243.376 287.875C243.318 287.7 243.325 287.51 243.398 287.34C243.47 287.17 243.602 287.033 243.768 286.954L259.808 279.228L243.21 275.683C243.108 275.661 243.012 275.619 242.926 275.559C242.841 275.499 242.768 275.423 242.712 275.335C242.659 275.245 242.625 275.145 242.612 275.041C242.599 274.938 242.607 274.832 242.637 274.732C243.104 273.117 254.135 235.062 256.805 229.72C259.476 224.379 270.175 218.388 270.627 218.132C270.715 218.084 270.814 218.058 270.914 218.056C272.529 217.89 310.599 214.209 318.762 226.461C326.714 238.367 341.396 266.312 341.502 266.584C341.546 266.678 341.569 266.781 341.569 266.885C341.569 266.99 341.546 267.093 341.502 267.187C341.471 267.286 341.418 267.376 341.348 267.452C341.277 267.528 341.191 267.587 341.095 267.625L327.348 273.661L343.086 280.315C343.263 280.392 343.404 280.532 343.483 280.708C343.561 280.884 343.57 281.083 343.509 281.266L315.367 363.382C315.317 363.521 315.228 363.642 315.11 363.73C314.992 363.819 314.85 363.871 314.703 363.88L271.306 366.551L271.382 366.49ZM245.036 288.026L271.91 364.981L314.16 362.386L341.909 281.401L325.205 274.34C325.068 274.283 324.95 274.187 324.867 274.063C324.783 273.94 324.738 273.794 324.738 273.645C324.739 273.499 324.782 273.355 324.863 273.232C324.943 273.109 325.057 273.012 325.19 272.951L339.812 266.599C337.458 262.072 324.723 238.11 317.525 227.366C310.101 216.23 273.902 219.369 271.231 219.61C269.994 220.305 260.548 225.646 258.164 230.475C255.779 235.303 245.956 268.892 244.327 274.46L262.238 278.293C262.391 278.326 262.53 278.407 262.636 278.523C262.741 278.64 262.808 278.786 262.826 278.942C262.84 279.098 262.808 279.254 262.733 279.391C262.657 279.528 262.543 279.64 262.404 279.711L245.036 288.026Z" fill="#263238"/>
<path d="M269.375 372.42L268.817 234.896L304.865 231.546L315.443 371.077L269.375 372.42Z" fill="white"/>
<path d="M269.375 373.175C269.179 373.173 268.99 373.098 268.847 372.964C268.705 372.818 268.624 372.624 268.621 372.42L268.062 234.896C268.058 234.707 268.126 234.524 268.252 234.384C268.378 234.244 268.553 234.157 268.741 234.142L304.79 230.867C304.889 230.853 304.991 230.86 305.087 230.889C305.184 230.918 305.273 230.967 305.348 231.033C305.504 231.167 305.602 231.357 305.62 231.561L316.182 371.093C316.188 371.194 316.174 371.295 316.14 371.391C316.106 371.487 316.054 371.575 315.986 371.651C315.918 371.727 315.834 371.788 315.74 371.83C315.647 371.871 315.545 371.893 315.443 371.892L269.39 373.235L269.375 373.175ZM269.571 235.575L270.129 371.636L314.628 370.353L304.171 232.376L269.571 235.575Z" fill="#263238"/>
<path d="M263.475 198.833C263.475 198.833 268.138 224.877 268.817 231.546C269.496 238.216 286.728 285.642 291.888 277.901C297.517 269.466 304.201 242.908 305.469 236.888C306.736 230.867 306.812 204.853 306.812 204.853C306.812 204.853 289.504 216.864 263.475 198.833Z" fill="white"/>
<path d="M290.53 279.515C290.337 279.511 290.145 279.486 289.957 279.44C282.865 277.674 268.711 238.065 268.062 231.622C267.413 225.179 262.781 199.24 262.721 198.968C262.693 198.821 262.71 198.668 262.77 198.531C262.829 198.393 262.929 198.276 263.055 198.195C263.181 198.114 263.329 198.073 263.479 198.076C263.629 198.079 263.775 198.127 263.898 198.214C289.217 215.748 306.268 204.34 306.434 204.25C306.553 204.179 306.689 204.142 306.827 204.142C306.965 204.142 307.1 204.179 307.219 204.25C307.341 204.317 307.443 204.415 307.515 204.534C307.586 204.653 307.625 204.79 307.626 204.929C307.626 205.985 307.626 231.109 306.268 237.129C304.759 243.678 298.226 269.843 292.522 278.399C292.311 278.738 292.018 279.018 291.669 279.213C291.321 279.408 290.929 279.512 290.53 279.515V279.515ZM264.501 200.462C265.557 206.498 269.028 225.782 269.526 231.471C270.175 237.974 284.479 276.528 290.289 277.976C290.56 277.976 290.877 277.976 291.239 277.493C296.747 269.209 303.416 242.788 304.82 236.752C305.951 231.667 306.117 211.523 306.133 206.181C301.787 208.399 286.094 214.631 264.501 200.462Z" fill="#263238"/>
<path d="M306.6 222.161C306.872 213.62 306.872 204.853 306.872 204.853C306.872 204.853 289.504 216.925 263.475 198.817C263.475 198.817 265.391 209.546 266.945 218.992C270.506 223.519 277.282 230.716 285.641 232.059C294.227 233.447 301.168 228.89 306.6 222.161Z" fill="#92E3A9"/>
<path opacity="0.5" d="M306.6 222.161C306.872 213.62 306.872 204.853 306.872 204.853C306.872 204.853 289.504 216.925 263.475 198.817C263.475 198.817 265.391 209.546 266.945 218.992C270.506 223.519 277.282 230.716 285.641 232.059C294.227 233.447 301.168 228.89 306.6 222.161Z" fill="white"/>
<path d="M320.89 172.803C320.89 172.803 328.224 163.448 328.224 174.131C328.224 184.815 320.89 186.203 320.89 186.203V172.803Z" fill="white"/>
<path d="M320.89 186.912C320.712 186.914 320.54 186.85 320.407 186.731C320.32 186.664 320.249 186.577 320.202 186.477C320.155 186.377 320.132 186.268 320.136 186.157V172.803C320.132 172.635 320.185 172.47 320.287 172.336C320.935 171.521 324.255 167.507 326.79 168.382C328.299 168.895 328.978 170.781 328.978 174.131C328.978 185.312 321.101 186.882 321.026 186.897L320.89 186.912ZM321.645 173.06V185.131C323.47 184.407 327.469 181.917 327.469 174.131C327.469 170.6 326.654 169.936 326.307 169.816C325.191 169.438 322.942 171.475 321.645 173.06Z" fill="#263238"/>
<path d="M248.114 150.773C248.114 150.773 256.79 190.111 256.79 195.498C256.79 206.83 278.157 219.535 287.497 222.206C296.837 224.877 319.547 204.174 320.89 198.832C322.233 193.491 322.882 146.759 320.211 137.419C317.54 128.079 302.224 122.058 292.175 122.058C282.125 122.058 252.792 127.399 248.114 150.773Z" fill="white"/>
<path d="M289.338 223.202C288.65 223.209 287.964 223.117 287.301 222.93C278.247 220.335 256.036 207.509 256.036 195.498C256.036 190.262 247.465 151.331 247.375 150.939C247.36 150.834 247.36 150.727 247.375 150.622C252.158 126.69 282.08 121.303 292.175 121.303C302.27 121.303 318.129 127.339 320.935 137.208C323.742 147.076 322.927 193.778 321.614 199.074C320.633 203.012 309.633 213.892 299.735 219.611C295.54 221.98 292.054 223.202 289.338 223.202ZM248.884 150.773C249.563 153.866 257.545 190.232 257.545 195.513C257.545 206.317 278.504 218.856 287.724 221.497C290.213 222.206 294.106 221.089 298.995 218.268C308.803 212.609 319.351 201.911 320.12 198.651C321.373 193.627 322.127 146.955 319.456 137.63C316.876 128.577 301.56 122.812 292.145 122.812C282.412 122.812 253.576 127.958 248.884 150.758V150.773Z" fill="#263238"/>
<path d="M292.175 122.058C282.171 122.058 252.792 127.399 248.114 150.728C248.114 150.728 253.305 174.267 255.659 187.425C255.659 181.389 256.715 169.831 263.203 164.791C272.166 157.82 287.12 156.809 295.585 152.825C304.05 148.841 306.042 138.385 306.042 138.385C306.042 138.385 306.54 156.809 310.569 161.305C314.598 165.802 318.551 168.85 319.049 176.742C319.547 184.633 321.041 192.676 317.057 199.164C313.074 205.653 296.626 218.086 289.157 220.576C288.01 220.968 286.894 221.3 285.837 221.617C286.426 221.829 286.999 222.025 287.527 222.176C296.883 224.846 319.577 204.144 320.92 198.802C322.263 193.461 322.912 146.729 320.241 137.389C317.57 128.048 302.224 122.058 292.175 122.058Z" fill="#92E3A9"/>
<path d="M278.308 218.252C274.671 214.586 264.727 204.431 260.201 199.195C258.893 197.703 257.721 196.097 256.7 194.396C256.7 194.834 256.7 195.226 256.7 195.498C256.79 203.872 268.439 212.986 278.308 218.252Z" fill="#92E3A9"/>
<g opacity="0.5">
<path opacity="0.5" d="M292.175 122.058C282.171 122.058 252.792 127.399 248.114 150.728C248.114 150.728 253.305 174.267 255.659 187.425C255.659 181.389 256.715 169.831 263.203 164.791C272.166 157.82 287.12 156.809 295.585 152.825C304.05 148.841 306.042 138.385 306.042 138.385C306.042 138.385 306.54 156.809 310.569 161.305C314.598 165.802 318.551 168.85 319.049 176.742C319.547 184.633 321.041 192.676 317.057 199.164C313.074 205.653 296.626 218.086 289.157 220.576C288.01 220.968 286.894 221.3 285.837 221.617C286.426 221.829 286.999 222.025 287.527 222.176C296.883 224.846 319.577 204.144 320.92 198.802C322.263 193.461 322.912 146.729 320.241 137.389C317.57 128.048 302.224 122.058 292.175 122.058Z" fill="white"/>
<path opacity="0.5" d="M278.308 218.252C274.671 214.586 264.727 204.431 260.201 199.195C258.893 197.703 257.721 196.097 256.7 194.396C256.7 194.834 256.7 195.226 256.7 195.498C256.79 203.872 268.439 212.986 278.308 218.252Z" fill="white"/>
</g>
<path d="M282.684 174.931C282.684 176.802 281.854 178.311 280.813 178.311C279.772 178.311 278.927 176.802 278.927 174.931C278.927 173.06 279.772 171.551 280.813 171.551C281.854 171.551 282.684 173.06 282.684 174.931Z" fill="#263238"/>
<path d="M304.669 174.931C304.669 176.802 303.824 178.311 302.783 178.311C301.741 178.311 300.896 176.802 300.896 174.931C300.896 173.06 301.741 171.551 302.783 171.551C303.824 171.551 304.669 173.06 304.669 174.931Z" fill="#263238"/>
<path d="M294.454 189.221C294.302 189.223 294.153 189.178 294.029 189.091C293.904 189.004 293.81 188.881 293.759 188.738C293.684 188.554 293.685 188.347 293.761 188.163C293.838 187.98 293.983 187.834 294.167 187.757C297.185 186.58 301.44 184.256 301.712 182.808C301.832 182.249 301.606 182.053 299.69 181.631C298.297 181.441 296.985 180.866 295.902 179.971C293.654 177.722 295.495 171.415 295.721 170.706C295.779 170.506 295.914 170.337 296.097 170.237C296.187 170.187 296.286 170.155 296.389 170.144C296.491 170.133 296.595 170.142 296.694 170.17C296.793 170.199 296.886 170.247 296.966 170.311C297.047 170.376 297.114 170.456 297.164 170.546C297.213 170.636 297.245 170.736 297.256 170.838C297.268 170.941 297.259 171.044 297.23 171.144C296.506 173.497 295.812 177.692 297.034 178.915C297.917 179.58 298.956 180.006 300.052 180.152C301.561 180.499 303.658 180.967 303.22 183.17C302.677 185.946 296.068 188.708 294.755 189.205C294.657 189.233 294.554 189.238 294.454 189.221Z" fill="#263238"/>
<path d="M287.769 199.27C286.22 199.361 284.674 199.052 283.278 198.373C281.883 197.693 280.686 196.667 279.802 195.392C279.746 195.311 279.706 195.218 279.687 195.121C279.667 195.024 279.667 194.924 279.687 194.827C279.706 194.73 279.745 194.638 279.801 194.556C279.857 194.474 279.929 194.404 280.013 194.351C280.179 194.242 280.382 194.203 280.577 194.242C280.772 194.282 280.943 194.397 281.054 194.562C284.675 200.01 293.125 196.811 293.125 196.78C293.312 196.706 293.519 196.709 293.703 196.789C293.887 196.868 294.032 197.017 294.106 197.203C294.18 197.389 294.177 197.597 294.098 197.781C294.019 197.965 293.87 198.11 293.684 198.184C291.785 198.869 289.787 199.236 287.769 199.27V199.27Z" fill="#263238"/>
<path d="M273.917 169.68C273.827 169.694 273.735 169.694 273.645 169.68C273.552 169.645 273.466 169.591 273.393 169.523C273.32 169.454 273.262 169.372 273.221 169.281C273.181 169.19 273.158 169.091 273.156 168.991C273.154 168.891 273.171 168.792 273.207 168.699C273.989 166.852 275.431 165.362 277.251 164.519C278.367 164.087 279.559 163.885 280.754 163.927C281.95 163.968 283.125 164.252 284.208 164.761C284.394 164.835 284.543 164.98 284.622 165.164C284.701 165.347 284.704 165.555 284.63 165.741C284.556 165.928 284.411 166.077 284.227 166.156C284.043 166.235 283.835 166.238 283.649 166.164C282.752 165.73 281.776 165.483 280.78 165.436C279.784 165.39 278.789 165.545 277.855 165.892C276.407 166.584 275.256 167.773 274.611 169.242C274.553 169.377 274.456 169.491 274.332 169.569C274.208 169.647 274.063 169.686 273.917 169.68V169.68Z" fill="#263238"/>
<path d="M306.163 167.205C306.048 167.204 305.934 167.177 305.83 167.128C305.726 167.078 305.633 167.007 305.559 166.918C304.05 165.032 302.677 164.112 301.319 164.172C300.663 164.284 300.038 164.532 299.484 164.901C298.93 165.27 298.46 165.752 298.105 166.315C297.997 166.482 297.828 166.601 297.633 166.646C297.439 166.691 297.235 166.659 297.064 166.556C296.978 166.505 296.903 166.438 296.844 166.357C296.785 166.276 296.743 166.185 296.721 166.087C296.698 165.99 296.696 165.889 296.713 165.791C296.731 165.692 296.768 165.599 296.823 165.515C297.302 164.745 297.946 164.09 298.707 163.597C299.469 163.105 300.33 162.786 301.229 162.663C303.16 162.558 304.986 163.689 306.751 165.998C306.873 166.156 306.927 166.356 306.902 166.554C306.876 166.752 306.773 166.932 306.616 167.054C306.485 167.153 306.326 167.206 306.163 167.205V167.205Z" fill="#263238"/>
<path d="M323.561 127.4C316.952 119.855 309.98 120.308 305.816 121.937C300.172 112.431 281.522 104.886 257.53 114.046C229.494 124.729 232.828 153.444 234.171 158.786C235.514 164.127 244.855 178.145 250.86 178.809C250.86 178.809 256.202 174.131 256.202 169.469C256.202 164.806 268.892 155.451 281.567 151.437C289.549 148.917 298.316 144.285 303.386 138.37C303.292 142.254 304.291 146.086 306.268 149.43C310.282 155.466 316.288 158.786 316.288 160.792C316.288 162.799 319.622 170.133 322.323 170.133C325.024 170.133 324.994 159.449 325.658 154.772C326.322 150.094 332.901 138.083 323.561 127.4Z" fill="#263238"/>
<path d="M250.785 179.563H250.694C244.13 178.824 234.715 164.338 233.357 158.966C233.281 158.634 225.903 125.272 257.198 113.351C280.3 104.539 299.448 110.68 306.133 121.017C309.543 119.87 316.997 118.753 324.119 126.901C331.92 135.819 328.963 145.612 327.137 151.482C326.768 152.594 326.471 153.728 326.247 154.877C326.081 156.009 325.96 157.533 325.824 159.132C325.251 166.239 324.677 170.887 322.157 170.887C318.838 170.887 315.397 162.92 315.397 160.792C315.397 160.158 313.889 158.74 312.38 157.382C309.795 155.158 307.494 152.624 305.529 149.837C303.715 146.94 302.676 143.625 302.511 140.21C297.713 145.084 290.062 149.475 281.597 152.146C268.802 156.19 256.76 165.319 256.76 169.453C256.76 174.403 251.388 179.156 251.162 179.367C251.058 179.467 250.927 179.535 250.785 179.563ZM278.459 110.68C271.358 110.766 264.332 112.147 257.726 114.755C227.653 126.222 234.745 158.272 234.82 158.604C236.148 163.916 245.021 176.923 250.543 178.009C251.57 177.043 255.372 173.18 255.372 169.468C255.372 164.232 268.439 154.771 281.265 150.712C290.243 147.891 298.271 143.077 302.737 137.871C302.841 137.755 302.976 137.672 303.127 137.635C303.278 137.597 303.437 137.606 303.582 137.66C303.725 137.715 303.848 137.813 303.935 137.939C304.021 138.066 304.066 138.216 304.065 138.369C303.97 142.109 304.927 145.8 306.827 149.022C308.727 151.701 310.953 154.134 313.451 156.265C315.563 158.212 316.967 159.494 316.967 160.792C316.967 162.739 320.226 169.378 322.218 169.378C323.546 169.378 324.134 162.12 324.391 159.012C324.511 157.382 324.647 155.843 324.813 154.666C325.044 153.439 325.357 152.229 325.749 151.044C327.529 145.129 330.276 136.181 322.987 127.897C316.288 120.247 309.528 121.318 306.087 122.646C305.919 122.709 305.735 122.711 305.566 122.65C305.397 122.589 305.256 122.47 305.167 122.314C301.621 116.369 291.979 110.68 278.459 110.68Z" fill="#263238"/>
<path d="M245.172 162.135H245.036C244.84 162.099 244.667 161.986 244.554 161.822C244.441 161.658 244.397 161.456 244.432 161.26C244.87 158.921 246.515 156.93 249.472 155.134C249.644 155.036 249.848 155.009 250.039 155.06C250.23 155.111 250.394 155.234 250.495 155.405C250.596 155.575 250.626 155.778 250.578 155.97C250.531 156.162 250.41 156.328 250.242 156.432C247.692 157.94 246.273 159.646 245.911 161.547C245.876 161.716 245.783 161.867 245.648 161.975C245.513 162.082 245.344 162.139 245.172 162.135V162.135Z" fill="white"/>
<path d="M254.723 154.213C254.57 154.212 254.421 154.166 254.295 154.08C254.169 153.994 254.071 153.872 254.014 153.73C253.945 153.544 253.953 153.338 254.035 153.158C254.116 152.977 254.266 152.836 254.452 152.765C259.689 150.908 265.042 149.395 270.476 148.238C274.52 147.302 278.353 146.397 281.537 145.386C293.488 141.584 300.187 131.172 300.263 131.081C300.314 130.995 300.382 130.921 300.462 130.862C300.543 130.803 300.634 130.761 300.732 130.738C300.829 130.716 300.93 130.713 301.028 130.73C301.127 130.748 301.22 130.785 301.304 130.84C301.472 130.948 301.59 131.119 301.632 131.314C301.675 131.509 301.638 131.713 301.53 131.881C296.769 138.845 289.891 144.089 281.914 146.835C278.685 147.861 274.822 148.766 270.748 149.717C265.383 150.833 260.096 152.294 254.919 154.093C254.86 154.141 254.794 154.182 254.723 154.213Z" fill="white"/>
<path d="M242.923 140.754C242.772 140.755 242.623 140.707 242.501 140.618C242.335 140.507 242.22 140.336 242.181 140.141C242.141 139.946 242.18 139.743 242.29 139.577C243.798 137.238 247.873 137.404 253.954 137.645C258.885 137.921 263.829 137.891 268.756 137.555C282.472 136.453 294.725 128.199 294.846 128.109C295.012 127.999 295.215 127.96 295.41 128C295.605 128.039 295.776 128.154 295.887 128.32C295.944 128.401 295.984 128.492 296.005 128.589C296.025 128.685 296.027 128.785 296.009 128.882C295.99 128.979 295.953 129.071 295.898 129.154C295.844 129.236 295.773 129.306 295.691 129.361C295.178 129.708 282.985 137.932 268.877 139.064C263.889 139.408 258.885 139.438 253.893 139.154C248.521 138.943 244.643 138.777 243.542 140.422C243.474 140.524 243.383 140.608 243.275 140.666C243.167 140.724 243.046 140.754 242.923 140.754V140.754Z" fill="white"/>
<path d="M323.983 148.63C323.884 148.626 323.787 148.603 323.697 148.561C323.607 148.52 323.526 148.461 323.459 148.388C323.391 148.315 323.339 148.23 323.305 148.137C323.271 148.044 323.255 147.945 323.259 147.845C323.327 145.98 323.191 144.113 322.852 142.278C322.83 142.18 322.828 142.08 322.846 141.982C322.863 141.883 322.901 141.79 322.956 141.707C323.011 141.624 323.082 141.553 323.165 141.498C323.249 141.443 323.342 141.405 323.44 141.387C323.538 141.368 323.639 141.368 323.738 141.387C323.836 141.407 323.929 141.446 324.012 141.503C324.095 141.559 324.165 141.631 324.22 141.715C324.275 141.798 324.312 141.892 324.33 141.991C324.687 143.941 324.834 145.924 324.768 147.906C324.764 148.005 324.741 148.102 324.699 148.192C324.658 148.282 324.599 148.363 324.526 148.431C324.453 148.498 324.368 148.55 324.274 148.584C324.181 148.619 324.082 148.634 323.983 148.63Z" fill="white"/>
<path d="M322.746 139.863C322.588 139.865 322.435 139.815 322.307 139.723C322.18 139.631 322.085 139.5 322.037 139.35C321.062 136.666 319.499 134.233 317.463 132.23C315.426 130.228 312.968 128.706 310.267 127.777C310.074 127.721 309.911 127.591 309.813 127.416C309.714 127.242 309.687 127.035 309.739 126.841C309.766 126.746 309.813 126.657 309.875 126.58C309.937 126.503 310.013 126.439 310.1 126.391C310.187 126.343 310.283 126.313 310.381 126.303C310.48 126.292 310.579 126.301 310.674 126.328C313.619 127.302 316.302 128.937 318.517 131.108C320.732 133.279 322.421 135.928 323.455 138.852C323.488 138.947 323.503 139.046 323.497 139.146C323.491 139.246 323.466 139.343 323.423 139.433C323.379 139.523 323.318 139.603 323.244 139.669C323.169 139.735 323.082 139.786 322.987 139.818C322.91 139.848 322.828 139.863 322.746 139.863V139.863Z" fill="white"/>
<path d="M274.219 208.354C272.255 208.43 270.302 208.026 268.53 207.177C262.781 204.159 252.566 190.578 252.143 189.945C252.023 189.785 251.971 189.583 252 189.385C252.028 189.187 252.134 189.008 252.294 188.888C252.454 188.768 252.655 188.717 252.853 188.745C253.051 188.773 253.23 188.879 253.35 189.039C253.456 189.175 263.777 202.967 269.239 205.849C274.702 208.731 284.947 204.717 285.053 204.672C285.146 204.636 285.245 204.619 285.345 204.622C285.445 204.625 285.543 204.647 285.634 204.688C285.725 204.728 285.807 204.786 285.876 204.859C285.944 204.931 285.998 205.016 286.034 205.109C286.069 205.203 286.086 205.302 286.084 205.402C286.081 205.501 286.059 205.599 286.018 205.691C285.977 205.782 285.919 205.864 285.847 205.932C285.774 206.001 285.689 206.055 285.596 206.09C281.946 207.439 278.107 208.203 274.219 208.354V208.354Z" fill="#263238"/>
<path d="M289.067 205.502C289.067 206.875 287.377 208.007 285.309 208.007C283.242 208.007 281.552 206.875 281.552 205.502C281.552 204.129 283.227 202.997 285.309 202.997C287.392 202.997 289.067 204.114 289.067 205.502Z" fill="#263238"/>
<path d="M246.862 170.389C246.862 170.389 234.473 138.309 246.862 119.176C246.862 119.176 227.713 138.867 244.613 174.901L246.862 170.389Z" fill="white"/>
<path d="M255.447 180.786C256.579 188.33 254.527 194.849 250.845 195.407C247.163 195.966 243.301 190.307 242.154 182.778C241.007 175.248 243.089 168.714 246.756 168.156C250.423 167.598 254.376 173.256 255.447 180.786Z" fill="white"/>
<path d="M250.392 196.162C246.454 196.162 242.606 190.534 241.46 182.868C240.871 179.446 241.052 175.936 241.988 172.592C242.938 169.574 244.613 167.688 246.696 167.386C250.83 166.768 255.04 172.577 256.247 180.635C256.828 184.057 256.648 187.566 255.719 190.911C254.753 193.929 253.093 195.815 251.011 196.117C250.806 196.147 250.6 196.162 250.392 196.162ZM247.375 168.85C247.239 168.835 247.103 168.835 246.967 168.85C245.458 169.061 244.251 170.585 243.482 173.015C242.619 176.14 242.459 179.417 243.014 182.612C244.055 189.583 247.631 195.09 250.845 194.593C252.354 194.381 253.576 192.857 254.346 190.428C255.202 187.302 255.361 184.026 254.814 180.831C253.742 174.192 250.408 168.88 247.314 168.88L247.375 168.85Z" fill="#263238"/>
<path d="M248.792 195.182C252.055 194.691 253.783 188.194 252.652 180.67C251.521 173.146 247.959 167.444 244.695 167.935C241.432 168.426 239.703 174.923 240.834 182.447C241.966 189.971 245.528 195.672 248.792 195.182Z" fill="white"/>
<path d="M248.371 195.981C246.65 195.981 244.885 194.668 243.361 192.238C241.631 189.271 240.513 185.988 240.071 182.581C238.849 174.508 240.841 167.763 244.598 167.205C248.355 166.647 252.143 172.517 253.425 180.574C253.998 183.961 253.895 187.428 253.124 190.775C252.309 193.793 250.815 195.664 248.914 195.95L248.371 195.981ZM245.051 168.669H244.794C242.35 169.031 240.418 174.705 241.565 182.249C241.967 185.436 242.993 188.512 244.583 191.303C245.911 193.4 247.36 194.502 248.612 194.321C249.864 194.14 250.951 192.646 251.63 190.247C252.353 187.102 252.445 183.845 251.901 180.665C250.8 173.528 247.48 168.669 245.051 168.669Z" fill="#263238"/>
<path d="M369.629 234.217L387.027 371.756L352.276 371.077L369.629 234.217Z" fill="#92E3A9"/>
<path d="M387.027 372.511L352.321 371.832C352.215 371.831 352.111 371.807 352.015 371.763C351.918 371.719 351.833 371.655 351.763 371.575C351.695 371.494 351.646 371.4 351.617 371.299C351.589 371.197 351.582 371.091 351.597 370.987L368.934 234.127C368.957 233.943 369.046 233.773 369.185 233.651C369.324 233.528 369.503 233.461 369.689 233.463V233.463C369.872 233.465 370.047 233.534 370.183 233.656C370.319 233.778 370.406 233.945 370.428 234.127L387.826 371.651C387.843 371.759 387.836 371.869 387.805 371.973C387.773 372.078 387.719 372.174 387.645 372.254C387.569 372.342 387.473 372.411 387.366 372.455C387.259 372.5 387.142 372.519 387.027 372.511V372.511ZM353.136 370.338L386.166 370.987L369.568 240.223L353.136 370.338Z" fill="#263238"/>
<path opacity="0.3" d="M379.105 309.226L361.013 320.09L361.314 299.765L352.276 371.077L387.027 371.756L384.175 349.288L369.01 349.786L382.47 335.798L382.364 334.878L363.864 341.216L380.599 320.951L379.105 309.226Z" fill="black"/>
<path d="M245.308 193.657C245.308 193.657 250.438 191.861 251.555 193.838C252.671 195.814 253.969 204.4 253.939 205.623C253.908 206.845 253.486 207.961 251.162 207.131C248.838 206.302 245.126 198.742 245.126 198.742L245.308 193.657Z" fill="white"/>
<path d="M252.535 208.233C251.977 208.218 251.425 208.105 250.906 207.901C248.431 206.981 245.111 200.447 244.478 199.134C244.455 199.02 244.455 198.902 244.478 198.787L244.628 193.717C244.632 193.565 244.681 193.417 244.77 193.293C244.859 193.169 244.983 193.075 245.126 193.023C246.092 192.691 250.921 191.137 252.279 193.551C253.471 195.648 254.814 204.461 254.768 205.728C254.79 206.136 254.716 206.543 254.554 206.917C254.392 207.291 254.145 207.623 253.833 207.886C253.447 208.135 252.994 208.256 252.535 208.233V208.233ZM245.911 198.636C247.314 201.458 249.97 205.939 251.419 206.483C252.46 206.86 252.822 206.694 252.928 206.634C253.033 206.573 253.199 206.196 253.214 205.683C253.214 204.642 251.962 196.146 250.921 194.29C250.423 193.385 247.903 193.732 246.077 194.29L245.911 198.636Z" fill="#263238"/>
<path d="M222.854 220.878C222.854 220.878 227.607 190.322 227.713 187.002C227.819 183.683 232.24 180.967 234.352 180.152C236.465 179.337 248.536 179.729 249.819 179.775C251.102 179.82 256.262 179.548 256.217 181.284C256.172 183.019 255.719 183.758 251.403 184.452C247.088 185.146 236.767 185.69 236.767 185.69L234.066 189.764L246.877 192.208C246.877 192.208 249.894 193.536 249.351 195.603C248.808 197.671 247.314 206.739 247.284 207.977C247.254 209.214 245.926 210.014 242.863 212.005C241.034 213.188 238.978 213.975 236.827 214.314C236.827 214.314 237.068 220.546 235.318 221.316L230.957 223.262L230.354 258.918L210.662 256.685L222.854 220.878Z" fill="white"/>
<path d="M230.339 259.537H230.248L210.632 257.304C210.519 257.291 210.411 257.253 210.314 257.193C210.218 257.133 210.135 257.052 210.074 256.957C210.026 256.855 210 256.744 210 256.632C210 256.52 210.026 256.409 210.074 256.308L222.266 220.637C222.507 219.128 227.004 190.081 227.095 186.927C227.2 183.125 232.044 180.152 234.232 179.382C236.42 178.613 245.941 178.839 249.97 178.96H250.649C253.154 178.96 255.674 179.035 256.685 180.061C256.828 180.206 256.941 180.378 257.016 180.567C257.091 180.757 257.128 180.959 257.122 181.163C257.122 183.547 255.885 184.377 251.675 185.071C247.782 185.705 239.272 186.188 237.34 186.293L235.484 189.1L247.179 191.333H247.344C247.48 191.333 250.875 192.948 250.242 195.588C249.714 197.806 248.22 206.724 248.189 207.826C248.189 209.335 246.786 210.285 243.829 212.202L243.436 212.458C241.689 213.574 239.75 214.357 237.717 214.767C237.717 216.819 237.567 221.014 235.756 221.829L231.848 223.579L231.244 258.752C231.241 258.858 231.217 258.962 231.173 259.058C231.129 259.154 231.066 259.24 230.988 259.311C230.905 259.397 230.803 259.463 230.69 259.502C230.578 259.541 230.457 259.553 230.339 259.537V259.537ZM211.688 255.976L229.599 258.028L230.188 223.202C230.193 223.06 230.238 222.922 230.318 222.805C230.399 222.687 230.51 222.595 230.641 222.538L234.986 220.591C235.741 220.244 236.148 217 236.043 214.299C236.034 214.109 236.097 213.922 236.22 213.776C236.343 213.631 236.517 213.537 236.706 213.514C238.755 213.197 240.714 212.452 242.456 211.326L242.863 211.07C245.443 209.38 246.499 208.671 246.53 207.916C246.53 206.528 248.174 197.354 248.627 195.377C248.929 194.11 247.118 193.083 246.65 192.887L233.93 190.458C233.807 190.434 233.692 190.38 233.595 190.301C233.498 190.222 233.421 190.12 233.372 190.005C233.316 189.895 233.287 189.774 233.287 189.651C233.287 189.527 233.316 189.406 233.372 189.296L236.058 185.222C236.127 185.125 236.217 185.045 236.322 184.988C236.426 184.93 236.542 184.897 236.661 184.89C236.752 184.89 246.982 184.362 251.207 183.668C255.432 182.974 255.357 182.325 255.387 181.208C255.251 180.982 254.436 180.559 250.528 180.559H249.714C243.678 180.378 236.027 180.363 234.534 180.891C232.497 181.616 228.498 184.241 228.392 187.063C228.287 190.382 223.73 219.777 223.534 221.029C223.534 221.029 223.534 221.119 223.534 221.15L211.688 255.976Z" fill="#263238"/>
<path d="M248.325 198.018H248.189L232.647 195.226C232.447 195.19 232.27 195.076 232.154 194.909C232.038 194.742 231.993 194.536 232.029 194.336C232.065 194.136 232.179 193.958 232.346 193.842C232.513 193.726 232.719 193.681 232.919 193.717L248.461 196.524C248.661 196.542 248.846 196.639 248.975 196.793C249.103 196.947 249.166 197.146 249.148 197.346C249.13 197.546 249.033 197.731 248.879 197.86C248.724 197.989 248.525 198.051 248.325 198.033V198.018Z" fill="#263238"/>
<path d="M246.56 204.989H246.394L233.598 201.881C233.398 201.835 233.224 201.711 233.116 201.537C233.007 201.363 232.971 201.153 233.017 200.953C233.063 200.753 233.187 200.579 233.361 200.47C233.535 200.361 233.745 200.326 233.945 200.372L246.756 203.48C246.853 203.501 246.944 203.542 247.025 203.599C247.105 203.657 247.173 203.731 247.224 203.815C247.274 203.9 247.307 203.995 247.32 204.093C247.334 204.191 247.326 204.29 247.299 204.386C247.267 204.557 247.175 204.712 247.04 204.823C246.905 204.933 246.735 204.992 246.56 204.989Z" fill="#263238"/>
<path d="M236.797 214.993C236.67 214.996 236.545 214.965 236.434 214.904C236.323 214.843 236.229 214.754 236.163 214.646C235.62 213.801 234.398 211.734 234.805 210.602C234.869 210.422 234.975 210.26 235.114 210.129C235.253 209.997 235.421 209.901 235.605 209.848C236.797 209.486 239.573 208.776 239.573 208.776L239.951 210.285C239.951 210.285 237.476 210.919 236.224 211.281C236.474 212.209 236.882 213.087 237.431 213.877C237.539 214.045 237.575 214.249 237.533 214.444C237.49 214.639 237.372 214.809 237.204 214.918C237.077 214.976 236.937 215.002 236.797 214.993V214.993Z" fill="#263238"/>
<path d="M212.428 238.216L233.704 246.243C233.704 246.243 218.886 339.254 215.325 346.557C211.764 353.861 203.434 362.341 192.691 363.367C181.947 364.393 174.176 352.804 173.859 340.627C173.542 328.45 212.428 238.216 212.428 238.216Z" fill="#92E3A9"/>
<path d="M191.318 364.181C187.606 364.145 184.041 362.73 181.313 360.213C176.424 355.867 173.256 348.383 173.06 340.597C172.728 328.45 210.149 241.55 211.734 237.853C211.813 237.676 211.958 237.537 212.138 237.464C212.318 237.391 212.519 237.39 212.699 237.461L233.975 245.474C234.138 245.531 234.276 245.645 234.364 245.793C234.453 245.942 234.486 246.118 234.458 246.288C233.855 250.091 219.58 339.51 215.989 346.814C212.156 354.66 203.465 363.035 192.706 364.061C192.253 364.166 191.785 364.181 191.318 364.181ZM212.835 239.181C209.304 247.42 174.267 329.34 174.569 340.612C174.75 347.93 177.722 355.007 182.324 359.081C183.686 360.359 185.303 361.335 187.069 361.944C188.835 362.552 190.71 362.78 192.57 362.612C202.74 361.646 210.979 353.679 214.646 346.225C217.981 339.42 231.576 254.784 232.874 246.726L212.835 239.181Z" fill="#263238"/>
<path opacity="0.3" d="M194.819 316.092C189.628 318.738 184.209 320.91 178.628 322.58C176.711 328.148 175.248 332.871 174.463 336.251L184.528 334.983C191.699 334.157 198.773 332.641 205.653 330.457C205.653 330.457 189.054 340.733 174.252 342.453H173.905C174.886 353.89 182.37 364.393 192.631 363.412C203.42 362.386 211.734 353.89 215.265 346.602C217.015 343.011 221.481 318.778 225.571 295.042C216.091 303.124 205.783 310.18 194.819 316.092V316.092Z" fill="black"/>
<path d="M422.532 78.4647V74.3302C422.532 73.7459 422.3 73.1856 421.886 72.7724C421.473 72.3593 420.913 72.1272 420.329 72.1272H417.145C416.661 70.0439 415.835 68.0553 414.7 66.2423L416.949 63.9789C417.361 63.5635 417.592 63.0022 417.592 62.4172C417.592 61.8322 417.361 61.2708 416.949 60.8554L414.036 57.9432C413.621 57.5313 413.06 57.3002 412.475 57.3002C411.89 57.3002 411.328 57.5313 410.913 57.9432L408.649 60.1915C406.836 59.0569 404.848 58.2309 402.765 57.747V54.5632C402.765 53.9789 402.533 53.4185 402.119 53.0054C401.706 52.5922 401.146 52.3601 400.562 52.3601H396.427C395.843 52.3601 395.282 52.5922 394.869 53.0054C394.456 53.4185 394.224 53.9789 394.224 54.5632V57.747C392.141 58.2309 390.152 59.0569 388.339 60.1915L386.076 57.9432C385.66 57.5313 385.099 57.3002 384.514 57.3002C383.929 57.3002 383.368 57.5313 382.952 57.9432L380.04 60.8554C379.628 61.2708 379.397 61.8322 379.397 62.4172C379.397 63.0022 379.628 63.5635 380.04 63.9789L382.288 66.2423C381.153 68.0529 380.331 70.0426 379.859 72.1272H376.66C376.076 72.1272 375.515 72.3593 375.102 72.7724C374.689 73.1856 374.457 73.7459 374.457 74.3302V78.4647C374.457 79.049 374.689 79.6093 375.102 80.0225C375.515 80.4356 376.076 80.6677 376.66 80.6677H379.859C380.331 82.7523 381.153 84.742 382.288 86.5526L380.04 88.816C379.628 89.2314 379.397 89.7927 379.397 90.3777C379.397 90.9627 379.628 91.524 380.04 91.9394L382.952 94.8517C383.368 95.2636 383.929 95.4947 384.514 95.4947C385.099 95.4947 385.66 95.2636 386.076 94.8517L388.339 92.6034C390.162 93.7545 392.167 94.5863 394.269 95.063V98.2619C394.269 98.8462 394.501 99.4065 394.915 99.8197C395.328 100.233 395.888 100.465 396.472 100.465H400.607C401.191 100.465 401.751 100.233 402.165 99.8197C402.578 99.4065 402.81 98.8462 402.81 98.2619V95.063C404.894 94.5908 406.884 93.7694 408.695 92.6336L410.958 94.8819C411.374 95.2938 411.935 95.5249 412.52 95.5249C413.105 95.5249 413.666 95.2938 414.082 94.8819L416.903 92.0451C417.315 91.6297 417.546 91.0683 417.546 90.4833C417.546 89.8983 417.315 89.337 416.903 88.9216L414.655 86.6582C415.79 84.8452 416.616 82.8566 417.1 80.7733H420.283C420.586 80.7799 420.886 80.7242 421.166 80.6097C421.445 80.4952 421.699 80.3244 421.909 80.1078C422.12 79.8913 422.284 79.6337 422.391 79.351C422.499 79.0683 422.546 78.7666 422.532 78.4647ZM399.46 85.7981C397.517 86.0055 395.558 85.6054 393.852 84.6528C392.146 83.7002 390.777 82.242 389.935 80.4792C389.092 78.7163 388.817 76.7355 389.147 74.8097C389.477 72.8839 390.396 71.1079 391.778 69.7263C393.16 68.3447 394.936 67.4255 396.861 67.0954C398.787 66.7653 400.768 67.0405 402.531 67.8832C404.294 68.7258 405.752 70.0943 406.704 71.8003C407.657 73.5062 408.057 75.4656 407.85 77.4084C407.628 79.5621 406.673 81.5745 405.147 83.1096C403.62 84.6447 401.613 85.6096 399.46 85.8434V85.7981Z" fill="#263238"/>
<path d="M36.2446 258.722V255.614C36.2446 255.169 36.0681 254.743 35.754 254.429C35.4399 254.115 35.0139 253.939 34.5697 253.939H32.1252C31.7619 252.368 31.1398 250.869 30.2843 249.502L31.9894 247.812C32.1445 247.658 32.2676 247.475 32.3516 247.273C32.4356 247.071 32.4789 246.854 32.4789 246.635C32.4789 246.417 32.4356 246.2 32.3516 245.998C32.2676 245.796 32.1445 245.613 31.9894 245.458L29.7864 243.255C29.6321 243.1 29.4487 242.977 29.2467 242.893C29.0447 242.809 28.8281 242.766 28.6094 242.766C28.3906 242.766 28.174 242.809 27.9721 242.893C27.7701 242.977 27.5867 243.1 27.4324 243.255L25.7273 244.945C24.3628 244.09 22.8627 243.472 21.2911 243.12V240.705C21.2911 240.265 21.1162 239.843 20.8049 239.532C20.4936 239.22 20.0715 239.045 19.6312 239.045H16.5681C16.1265 239.045 15.7027 239.22 15.3891 239.531C15.0754 239.841 14.8972 240.264 14.8932 240.705V243.12C13.3216 243.472 11.8214 244.09 10.4569 244.945L8.75182 243.255C8.59757 243.1 8.41418 242.977 8.2122 242.893C8.01021 242.809 7.79361 242.766 7.57486 242.766C7.3561 242.766 7.13949 242.809 6.9375 242.893C6.73552 242.977 6.55213 243.1 6.39788 243.255L4.20993 245.458C4.05297 245.612 3.92825 245.795 3.84309 245.997C3.75793 246.199 3.71406 246.416 3.71406 246.635C3.71406 246.855 3.75793 247.072 3.84309 247.274C3.92825 247.476 4.05297 247.659 4.20993 247.812L5.89994 249.502C5.04447 250.869 4.42234 252.368 4.05904 253.939H1.65983C1.21823 253.943 0.796082 254.121 0.48523 254.434C0.174378 254.748 -1.79202e-05 255.172 1.38112e-09 255.614V258.722C1.38112e-09 259.162 0.174873 259.584 0.486151 259.896C0.797429 260.207 1.21961 260.382 1.65983 260.382H4.05904C4.41686 261.954 5.03936 263.454 5.89994 264.818L4.20993 266.523C4.05297 266.676 3.92825 266.859 3.84309 267.061C3.75793 267.264 3.71406 267.481 3.71406 267.7C3.71406 267.919 3.75793 268.137 3.84309 268.339C3.92825 268.541 4.05297 268.724 4.20993 268.877L6.47333 271.08C6.62758 271.235 6.81097 271.358 7.01295 271.442C7.21494 271.526 7.43154 271.57 7.6503 271.57C7.86905 271.57 8.08565 271.526 8.28764 271.442C8.48962 271.358 8.67301 271.235 8.82726 271.08L10.5324 269.375C11.8961 270.236 13.3962 270.858 14.9686 271.216V273.615C14.9686 274.059 15.1451 274.485 15.4592 274.799C15.7733 275.114 16.1993 275.29 16.6435 275.29H19.752C20.1936 275.286 20.6157 275.108 20.9266 274.794C21.2374 274.48 21.4118 274.057 21.4118 273.615V271.216C22.9842 270.858 24.4843 270.236 25.848 269.375L27.5531 271.08C27.7074 271.235 27.8908 271.358 28.0928 271.442C28.2948 271.526 28.5114 271.57 28.7301 271.57C28.9489 271.57 29.1655 271.526 29.3675 271.442C29.5694 271.358 29.7528 271.235 29.9071 271.08L32.1101 268.877C32.2652 268.723 32.3883 268.539 32.4723 268.337C32.5563 268.135 32.5996 267.919 32.5996 267.7C32.5996 267.481 32.5563 267.265 32.4723 267.063C32.3883 266.861 32.2652 266.677 32.1101 266.523L30.405 264.818C31.2656 263.454 31.8881 261.954 32.2459 260.382H34.6451C35.0735 260.362 35.4782 260.18 35.7758 259.871C36.0734 259.562 36.2412 259.151 36.2446 258.722V258.722ZM18.8466 264.245C17.3832 264.396 15.909 264.09 14.6264 263.37C13.3438 262.649 12.3158 261.549 11.6836 260.221C11.0515 258.892 10.8462 257.401 11.096 255.951C11.3458 254.501 12.0384 253.164 13.0786 252.124C14.1188 251.084 15.4557 250.391 16.9055 250.141C18.3552 249.892 19.8468 250.097 21.1752 250.729C22.5036 251.361 23.6036 252.389 24.3242 253.672C25.0447 254.954 25.3504 256.429 25.1992 257.892C25.0311 259.519 24.3078 261.039 23.1509 262.196C21.994 263.353 20.474 264.076 18.8466 264.245V264.245Z" fill="#263238"/>
<path d="M498.869 217.287V214.178C498.869 213.734 498.692 213.308 498.378 212.994C498.064 212.68 497.638 212.503 497.194 212.503H494.795C494.437 210.931 493.814 209.431 492.954 208.067L494.659 206.377C494.814 206.223 494.937 206.039 495.021 205.837C495.105 205.635 495.148 205.419 495.148 205.2C495.148 204.981 495.105 204.765 495.021 204.563C494.937 204.361 494.814 204.177 494.659 204.023L492.456 201.82C492.301 201.665 492.118 201.542 491.916 201.458C491.714 201.374 491.497 201.331 491.279 201.331C491.06 201.331 490.843 201.374 490.641 201.458C490.439 201.542 490.256 201.665 490.102 201.82L488.397 203.51C487.03 202.656 485.531 202.033 483.96 201.669V199.179C483.96 198.961 483.917 198.746 483.834 198.544C483.751 198.343 483.628 198.16 483.474 198.006C483.32 197.852 483.137 197.729 482.936 197.646C482.734 197.562 482.519 197.52 482.301 197.52H479.177C478.737 197.52 478.315 197.694 478.003 198.006C477.692 198.317 477.517 198.739 477.517 199.179V201.579C475.947 201.943 474.448 202.565 473.081 203.419L471.376 201.729C471.222 201.574 471.038 201.451 470.836 201.367C470.634 201.283 470.418 201.24 470.199 201.24C469.98 201.24 469.764 201.283 469.562 201.367C469.36 201.451 469.176 201.574 469.022 201.729L466.834 203.933C466.677 204.086 466.552 204.269 466.467 204.471C466.382 204.673 466.338 204.89 466.338 205.109C466.338 205.329 466.382 205.546 466.467 205.748C466.552 205.95 466.677 206.133 466.834 206.286L468.524 207.976C467.663 209.34 467.041 210.84 466.683 212.413H464.284C463.842 212.417 463.42 212.595 463.109 212.909C462.798 213.222 462.624 213.646 462.624 214.088V217.287C462.624 217.727 462.799 218.149 463.11 218.46C463.421 218.772 463.844 218.946 464.284 218.946H466.698C467.056 220.519 467.678 222.019 468.539 223.383L466.849 225.088C466.692 225.241 466.567 225.424 466.482 225.626C466.397 225.828 466.353 226.045 466.353 226.265C466.353 226.484 466.397 226.701 466.482 226.903C466.567 227.105 466.692 227.288 466.849 227.442L469.037 229.645C469.191 229.8 469.375 229.923 469.577 230.007C469.779 230.091 469.995 230.134 470.214 230.134C470.433 230.134 470.649 230.091 470.851 230.007C471.053 229.923 471.237 229.8 471.391 229.645L473.096 227.94C474.46 228.8 475.96 229.423 477.532 229.781V232.18C477.532 232.621 477.707 233.045 478.018 233.359C478.328 233.672 478.751 233.851 479.192 233.855H482.316C482.757 233.851 483.179 233.672 483.49 233.359C483.801 233.045 483.975 232.621 483.975 232.18V229.781C485.548 229.423 487.048 228.8 488.412 227.94L490.117 229.645C490.271 229.8 490.454 229.923 490.656 230.007C490.858 230.091 491.075 230.134 491.294 230.134C491.513 230.134 491.729 230.091 491.931 230.007C492.133 229.923 492.316 229.8 492.471 229.645L494.674 227.442C494.829 227.287 494.952 227.104 495.036 226.902C495.12 226.7 495.163 226.483 495.163 226.265C495.163 226.046 495.12 225.829 495.036 225.627C494.952 225.425 494.829 225.242 494.674 225.088L492.954 223.322C493.814 221.959 494.437 220.458 494.795 218.886H497.194C497.625 218.886 498.04 218.72 498.352 218.422C498.664 218.124 498.849 217.718 498.869 217.287V217.287ZM481.471 222.809C480.007 222.96 478.533 222.655 477.25 221.934C475.968 221.214 474.94 220.114 474.308 218.785C473.676 217.457 473.47 215.965 473.72 214.516C473.97 213.066 474.662 211.729 475.703 210.689C476.743 209.648 478.08 208.956 479.529 208.706C480.979 208.456 482.471 208.662 483.799 209.294C485.128 209.926 486.228 210.954 486.948 212.236C487.669 213.519 487.974 214.993 487.823 216.457C487.649 218.079 486.922 219.592 485.766 220.742C484.61 221.893 483.093 222.612 481.471 222.779V222.809Z" fill="#263238"/>
<path d="M244.568 14.7877V13.1882C244.568 13.076 244.546 12.9648 244.502 12.8613C244.459 12.7578 244.395 12.664 244.315 12.5853C244.235 12.5066 244.14 12.4447 244.036 12.4031C243.932 12.3616 243.82 12.3412 243.708 12.3432H242.486C242.296 11.5367 241.975 10.7669 241.535 10.0647L242.41 9.20463C242.569 9.04372 242.658 8.82691 242.658 8.60105C242.658 8.37519 242.569 8.15839 242.41 7.99748L241.278 6.86578C241.12 6.70822 240.906 6.61976 240.682 6.61976C240.459 6.61976 240.245 6.70822 240.086 6.86578L239.211 7.74096C238.509 7.30112 237.739 6.97995 236.933 6.79033V5.5681C236.933 5.34258 236.844 5.12606 236.686 4.96519C236.528 4.80432 236.313 4.71196 236.088 4.70801H234.488C234.263 4.71196 234.048 4.80432 233.89 4.96519C233.732 5.12606 233.643 5.34258 233.643 5.5681V6.79033C232.836 6.97809 232.066 7.29938 231.365 7.74096L230.49 6.86578C230.329 6.70728 230.112 6.61843 229.886 6.61843C229.66 6.61843 229.443 6.70728 229.282 6.86578L228.166 7.99748C228.007 8.15839 227.918 8.37519 227.918 8.60105C227.918 8.82691 228.007 9.04372 228.166 9.20463L229.026 10.0647C228.591 10.7678 228.275 11.5376 228.09 12.3432H226.853C226.629 12.3432 226.414 12.4322 226.256 12.5907C226.097 12.7492 226.008 12.9641 226.008 13.1882V14.7877C226.008 15.0132 226.097 15.2297 226.255 15.3906C226.413 15.5515 226.628 15.6438 226.853 15.6478H228.09C228.273 16.4494 228.589 17.2146 229.026 17.9112L228.166 18.7864C228.007 18.9473 227.918 19.1641 227.918 19.3899C227.918 19.6158 228.007 19.8326 228.166 19.9935L229.282 21.1252C229.443 21.2837 229.66 21.3725 229.886 21.3725C230.112 21.3725 230.329 21.2837 230.49 21.1252L231.365 20.25C232.063 20.6932 232.835 21.0099 233.643 21.1856V22.4229C233.643 22.647 233.732 22.8619 233.891 23.0204C234.049 23.1789 234.264 23.2679 234.488 23.2679H236.088C236.312 23.2679 236.527 23.1789 236.685 23.0204C236.844 22.8619 236.933 22.647 236.933 22.4229V21.1252C237.74 20.9466 238.511 20.6301 239.211 20.1897L240.086 21.0648C240.245 21.2224 240.459 21.3109 240.682 21.3109C240.906 21.3109 241.12 21.2224 241.278 21.0648L242.41 19.9331C242.569 19.7722 242.658 19.5554 242.658 19.3296C242.658 19.1037 242.569 18.8869 242.41 18.726L241.535 17.8508C241.977 17.155 242.298 16.3899 242.486 15.5874H243.708C243.926 15.588 244.136 15.5057 244.296 15.3572C244.455 15.2087 244.553 15.0052 244.568 14.7877V14.7877ZM235.665 17.6245C234.914 17.7177 234.152 17.5751 233.486 17.2164C232.819 16.8578 232.28 16.3008 231.944 15.6226C231.608 14.9444 231.491 14.1784 231.609 13.4307C231.727 12.683 232.075 11.9905 232.604 11.449C233.133 10.9075 233.817 10.5437 234.561 10.4081C235.306 10.2725 236.075 10.3717 236.761 10.6919C237.447 11.0122 238.016 11.5377 238.39 12.1958C238.764 12.8539 238.925 13.612 238.849 14.3652C238.764 15.1879 238.403 15.9577 237.825 16.5494C237.247 17.1411 236.486 17.52 235.665 17.6245V17.6245Z" fill="#263238"/>
<path d="M50.4588 120.443H40.198V130.704H50.4588V120.443ZM42.2803 122.525H48.3161V128.637H42.2803V122.525Z" fill="#263238"/>
<path d="M464.933 320.965H454.627V331.226H464.887L464.933 320.965ZM456.739 323.048H462.85V329.159H456.739V323.048Z" fill="#263238"/>
<path d="M310.991 27.04H300.716V37.3008H310.976L310.991 27.04ZM302.798 29.1073H308.909V35.143H302.798V29.1073Z" fill="#263238"/>
<path d="M44.4231 284.298H34.1624V294.574H44.4231V284.298ZM36.2296 286.381H42.2653V292.416H36.2296V286.381Z" fill="#263238"/>
<path opacity="0.9" d="M344.022 98.0808C342.801 98.0778 341.606 98.4373 340.589 99.1136C339.572 99.7899 338.779 100.753 338.31 101.88C337.84 103.008 337.716 104.249 337.952 105.447C338.189 106.645 338.775 107.746 339.638 108.611C340.5 109.476 341.6 110.065 342.797 110.304C343.995 110.544 345.237 110.422 346.365 109.956C347.494 109.489 348.459 108.698 349.137 107.683C349.816 106.667 350.179 105.474 350.179 104.252C350.179 102.618 349.53 101.051 348.376 99.8938C347.222 98.7368 345.656 98.0848 344.022 98.0808V98.0808ZM344.022 107.949C343.291 107.949 342.576 107.732 341.968 107.326C341.36 106.92 340.886 106.343 340.607 105.667C340.327 104.992 340.254 104.248 340.396 103.531C340.539 102.814 340.891 102.155 341.408 101.638C341.925 101.121 342.584 100.769 343.301 100.627C344.018 100.484 344.761 100.557 345.437 100.837C346.112 101.117 346.69 101.591 347.096 102.198C347.502 102.806 347.719 103.521 347.719 104.252C347.703 105.222 347.307 106.147 346.615 106.828C345.923 107.508 344.992 107.889 344.022 107.889V107.949Z" fill="#263238"/>
<path d="M234.322 127.022L220.501 107.889C223.035 107.881 225.464 106.871 227.256 105.078C229.049 103.286 230.059 100.857 230.067 98.3225V46.2341C230.055 43.7006 229.044 41.2741 227.252 39.4826C225.461 37.6911 223.034 36.6794 220.501 36.6675H100.389C97.8546 36.6754 95.4259 37.6859 93.6336 39.4783C91.8412 41.2706 90.8307 43.6993 90.8228 46.2341V98.3225C90.8267 100.859 91.8359 103.29 93.6292 105.083C95.4224 106.876 97.8534 107.885 100.389 107.889H204.249L234.322 127.022Z" fill="#263238"/>
<path d="M130.734 70.1506C130.734 68.9926 130.391 67.8607 129.748 66.8979C129.104 65.9351 128.19 65.1847 127.12 64.7416C126.05 64.2984 124.873 64.1825 123.737 64.4084C122.602 64.6343 121.558 65.1919 120.74 66.0107C119.921 66.8295 119.363 67.8727 119.137 69.0084C118.911 70.1441 119.027 71.3213 119.471 72.3911C119.914 73.4609 120.664 74.3752 121.627 75.0185C122.59 75.6618 123.722 76.0052 124.88 76.0052C125.648 76.0052 126.41 75.8538 127.12 75.5596C127.83 75.2653 128.476 74.8341 129.019 74.2904C129.563 73.7468 129.994 73.1014 130.289 72.3911C130.583 71.6807 130.734 70.9194 130.734 70.1506Z" fill="#92E3A9"/>
<path d="M165.274 70.1508C165.274 68.9922 164.93 67.8597 164.286 66.8965C163.642 65.9334 162.727 65.183 161.656 64.7404C160.585 64.2977 159.407 64.1826 158.271 64.4097C157.135 64.6369 156.092 65.196 155.274 66.0163C154.455 66.8366 153.899 67.8812 153.675 69.0179C153.451 70.1546 153.569 71.3322 154.014 72.4017C154.46 73.4713 155.212 74.3846 156.177 75.0261C157.142 75.6676 158.275 76.0084 159.434 76.0054C160.202 76.0054 160.963 75.8539 161.672 75.5595C162.382 75.2651 163.026 74.8336 163.569 74.2897C164.111 73.7459 164.541 73.1004 164.833 72.3901C165.126 71.6799 165.276 70.9189 165.274 70.1508V70.1508Z" fill="#92E3A9"/>
<path d="M199.828 70.1506C199.828 68.9926 199.485 67.8607 198.842 66.8979C198.198 65.9351 197.284 65.1847 196.214 64.7416C195.144 64.2984 193.967 64.1825 192.831 64.4084C191.696 64.6343 190.652 65.1919 189.834 66.0107C189.015 66.8295 188.457 67.8727 188.231 69.0084C188.005 70.1441 188.121 71.3213 188.565 72.3911C189.008 73.4609 189.758 74.3752 190.721 75.0185C191.684 75.6618 192.816 76.0052 193.974 76.0052C194.742 76.0052 195.504 75.8538 196.214 75.5596C196.924 75.2653 197.57 74.8341 198.113 74.2904C198.657 73.7468 199.088 73.1014 199.383 72.3911C199.677 71.6807 199.828 70.9194 199.828 70.1506Z" fill="#92E3A9"/>
</svg>
