<svg width="536" height="377" viewBox="0 0 536 377" fill="none" xmlns="http://www.w3.org/2000/svg">
<path d="M234.171 376.862C308.962 376.862 369.592 372.563 369.592 367.26C369.592 361.957 308.962 357.658 234.171 357.658C159.38 357.658 98.7502 361.957 98.7502 367.26C98.7502 372.563 159.38 376.862 234.171 376.862Z" fill="#02D39B"/>
<path d="M361.063 360.876C403.465 360.876 437.839 358.726 437.839 356.075C437.839 353.423 403.465 351.274 361.063 351.274C318.661 351.274 284.287 353.423 284.287 356.075C284.287 358.726 318.661 360.876 361.063 360.876Z" fill="#02D39B"/>
<g opacity="0.6">
<path opacity="0.6" d="M234.171 376.862C308.962 376.862 369.592 372.563 369.592 367.26C369.592 361.957 308.962 357.658 234.171 357.658C159.38 357.658 98.7504 361.957 98.7504 367.26C98.7504 372.563 159.38 376.862 234.171 376.862Z" fill="white"/>
<path opacity="0.6" d="M361.063 360.875C403.465 360.875 437.839 358.726 437.839 356.075C437.839 353.423 403.465 351.274 361.063 351.274C318.661 351.274 284.287 353.423 284.287 356.075C284.287 358.726 318.661 360.875 361.063 360.875Z" fill="white"/>
</g>
<path d="M233.188 224.088L257.001 207.03" stroke="#263238" stroke-width="0.38203" stroke-linecap="round" stroke-linejoin="round"/>
<path d="M308.457 342.591L307.116 357.722C307.116 357.722 300.336 360.697 300.349 361.693C300.362 362.689 301.626 364.055 307.155 364.055C312.683 364.055 314.484 361.961 314.484 360.39C314.484 358.82 326.256 345.732 326.256 345.732C326.545 344.947 326.625 344.1 326.488 343.274C326.352 342.448 326.004 341.672 325.477 341.021C323.639 338.927 317.357 338.671 317.357 338.671L308.457 342.591Z" fill="#02D39B"/>
<path d="M300.362 362.701C300.362 362.701 309.568 362.101 312.032 360.697C314.497 359.292 323.268 345.936 323.971 344.877C324.43 344.011 324.671 343.047 324.673 342.068" stroke="#263238" stroke-width="0.191015" stroke-linecap="round" stroke-linejoin="round"/>
<path d="M320.255 338.888C320.255 338.888 327.725 340.306 327.01 343.511C326.295 346.715 314.573 360.927 312.798 362.663C311.024 364.4 300.03 364.438 300.362 362.663C300.694 360.888 307.117 357.683 307.117 357.683L309.249 344.915" stroke="#263238" stroke-width="0.38203" stroke-linecap="round" stroke-linejoin="round"/>
<path d="M162.949 354.887L140.962 365.625C140.962 365.625 138.089 367.719 143.848 367.719C149.606 367.719 179.957 367.975 179.957 367.975C179.957 367.975 183.366 368.766 184.145 367.196C185.422 364.642 185.983 363.008 185.192 362.216C184.4 361.425 162.949 354.887 162.949 354.887Z" fill="#02D39B"/>
<path d="M143.031 365.255H182.038" stroke="#263238" stroke-width="0.191015" stroke-linecap="round" stroke-linejoin="round"/>
<path d="M161.468 356.253C161.468 356.253 139.073 365.855 139.43 366.915C139.788 367.975 162.17 367.987 170.7 367.987C179.229 367.987 185.281 368.345 185.281 366.212" stroke="#263238" stroke-width="0.38203" stroke-linecap="round" stroke-linejoin="round"/>
<path d="M320.255 338.888L246.339 284.865L243.786 230.485C241.061 232.883 237.987 234.85 234.669 236.32C230.098 238.07 203.616 251.451 203.616 251.451C203.616 251.451 215.351 293.037 217.483 296.6C219.615 300.162 309.185 344.928 309.185 344.928L320.255 338.888Z" fill="#263238"/>
<path d="M185.268 364.08C185.268 364.08 182.421 363.365 179.229 362.65C176.037 361.935 161.455 356.266 161.455 356.266C161.167 355.106 161.046 353.911 161.098 352.716C161.135 351.946 161.347 351.195 161.716 350.518C162.085 349.842 162.603 349.257 163.23 348.809C163.23 348.809 107.777 274.881 106.36 272.748C104.943 270.616 106.003 267.054 115.604 259.597C125.206 252.14 188.026 213.797 188.026 213.797C185.613 210.937 190.159 209.175 190.159 209.175L195.853 210.95L233.175 224.101L248.101 214.154C248.101 214.154 250.591 223.386 241.347 230.498C232.103 237.61 147.589 275.187 147.589 275.187L146.184 275.276L184.209 358.347C184.209 358.347 186.762 362.893 185.268 364.08Z" fill="#263238"/>
<path d="M138.115 265.828L145.137 274.613L142.328 263.019" stroke="white" stroke-width="0.38203" stroke-linecap="round" stroke-linejoin="round"/>
<path d="M207.332 252.127C207.332 252.127 221.735 274.612 227.008 279.184" stroke="white" stroke-width="0.38203" stroke-linecap="round" stroke-linejoin="round"/>
<path d="M209.439 251.425C213.409 254.899 217.634 258.071 222.079 260.912" stroke="white" stroke-width="0.38203" stroke-linecap="round" stroke-linejoin="round"/>
<g style="mix-blend-mode:multiply">
<path d="M234.695 132.386L184.821 166.375L195.726 211.32L232.741 223.731L282.129 188.541L276.166 143.328L234.695 132.386Z" fill="#02D39B"/>
</g>
<path d="M185.09 166.375L188.256 180.421" stroke="#263238" stroke-width="0.38203" stroke-linecap="round" stroke-linejoin="round"/>
<path d="M190.886 190.674L195.866 210.937L233.188 224.088L228.566 190.674" stroke="#263238" stroke-width="0.38203" stroke-linecap="round" stroke-linejoin="round"/>
<path d="M228.208 187.839L226.791 179.31" stroke="#263238" stroke-width="0.38203" stroke-linecap="round" stroke-linejoin="round"/>
<path d="M272.285 196.368L282.231 188.899L277.251 146.61" stroke="#263238" stroke-width="0.38203" stroke-linecap="round" stroke-linejoin="round"/>
<path d="M231.758 176.82L258.776 156.557" stroke="#263238" stroke-width="0.38203" stroke-linecap="round" stroke-linejoin="round"/>
<path d="M257.358 138.425L234.963 132.386L185.907 165.801" stroke="#263238" stroke-width="0.38203" stroke-linecap="round" stroke-linejoin="round"/>
<path d="M186.264 167.218L193.734 169.35" stroke="#263238" stroke-width="0.38203" stroke-linecap="round" stroke-linejoin="round"/>
<path d="M206.528 172.198L226.791 177.88" stroke="#263238" stroke-width="0.38203" stroke-linecap="round" stroke-linejoin="round"/>
<path d="M253.796 137.723L223.229 161.179" stroke="#263238" stroke-width="0.191015" stroke-linecap="round" stroke-linejoin="round"/>
<path d="M220.739 163.311L209.72 171.84" stroke="#263238" stroke-width="0.191015" stroke-linecap="round" stroke-linejoin="round"/>
<path d="M254.562 118.111C254.562 118.111 262.325 182.144 262.325 184.992C262.325 187.839 255.213 189.256 255.213 192.806C255.014 195.717 254.417 198.587 253.438 201.335C253.438 201.335 252.021 202.765 252.021 203.889C252.021 205.012 254.511 204.604 256.643 203.544C258.776 202.484 259.478 198.564 259.478 198.564C258.99 200.913 258.636 203.288 258.418 205.676L257.001 207.094C257.001 207.094 252.736 211.001 255.571 211.358C258.405 211.716 271.569 206.736 272.284 203.544C272.999 200.352 270.497 185.056 270.497 185.056C270.497 185.056 280.814 112.902 280.814 106.147C280.863 104.26 280.348 102.4 279.333 100.808C278.318 99.2151 276.851 97.9621 275.119 97.2095" fill="white"/>
<g style="mix-blend-mode:multiply" opacity="0.3">
<path d="M280.763 115.136C279.269 109.454 277.647 99.1375 277.647 99.1375L270.88 97.0818L261.942 107.82L269.003 103.479V188.682C269.003 193.023 263.576 209.839 263.576 209.839C263.576 209.839 274.8 207.477 272.987 197.262C271.174 187.047 269.003 188.682 272.259 168.061C275.515 147.44 282.308 120.856 280.763 115.136Z" fill="#02D39B"/>
</g>
<path d="M254.562 118.111C254.562 118.111 262.325 182.144 262.325 184.992C262.325 187.839 255.213 189.256 255.213 192.806C255.014 195.717 254.417 198.587 253.438 201.335C253.438 201.335 252.021 202.765 252.021 203.889C252.021 205.012 254.511 204.604 256.643 203.544C258.776 202.484 259.478 198.564 259.478 198.564C258.99 200.913 258.636 203.288 258.418 205.676L257.001 207.094C257.001 207.094 252.736 211.001 255.571 211.358C258.405 211.716 271.569 206.736 272.284 203.544C272.999 200.352 270.497 185.056 270.497 185.056C270.497 185.056 280.814 112.902 280.814 106.147C280.863 104.26 280.348 102.4 279.333 100.808C278.318 99.2151 276.851 97.9621 275.119 97.2095" stroke="#263238" stroke-width="0.38203" stroke-linecap="round" stroke-linejoin="round"/>
<path d="M263.155 202.944C263.542 204.461 263.416 206.064 262.798 207.502C262.099 208.644 261.277 209.706 260.346 210.669" stroke="#263238" stroke-width="0.191015" stroke-linecap="round" stroke-linejoin="round"/>
<path d="M267.407 202.944C267.198 204.381 266.842 205.792 266.347 207.157" stroke="#263238" stroke-width="0.191015" stroke-linecap="round" stroke-linejoin="round"/>
<path d="M270.574 201.884C270.359 203.32 270.004 204.731 269.514 206.098" stroke="#263238" stroke-width="0.191015" stroke-linecap="round" stroke-linejoin="round"/>
<path d="M155.748 68.8127C155.339 65.1354 147.985 58.1894 137.77 56.1465C127.555 54.1036 116.511 54.1036 112.425 57.4233C110.893 58.6363 109.871 61.4581 109.207 64.497C109.935 62.9392 111.403 59.7854 112.923 58.5214C120.443 52.2521 122.537 55.9677 123.789 61.4453C125.04 66.923 123.367 81.8747 123.367 81.8747C123.367 81.8747 106.232 86.8926 108.735 78.108C108.367 76.8562 108.111 75.5744 107.969 74.2775C107.969 74.9287 107.969 75.3245 107.969 75.3245L107.152 80.6361L100.206 81.913L76.0735 81.1469C76.0735 81.1469 88.3566 88.8079 95.3026 88.8079C99.7912 88.623 104.092 86.9573 107.535 84.0708L152.224 87.48C152.224 87.48 156.156 72.49 155.748 68.8127Z" fill="#02D39B"/>
<path d="M103.653 81.5553L76.0225 81.134C76.0225 81.134 83.6835 88.3608 93.8981 88.3608C104.113 88.3608 107.509 84.109 107.509 84.109L152.198 87.5181C152.198 87.5181 158.033 76.3969 155.058 66.6291C152.083 56.8614 125.27 53.5799 117.813 55.3802C108.594 57.6147 107.982 65.4034 107.982 69.6552C107.914 72.791 107.628 75.9184 107.126 79.0144" stroke="#263238" stroke-width="0.38203" stroke-linecap="round" stroke-linejoin="round"/>
<g style="mix-blend-mode:multiply" opacity="0.3">
<path d="M129.483 86.0116L111.442 86.3308C111.442 86.3308 106.334 93.9279 107.611 96.1496C108.599 97.6857 109.906 98.9919 111.442 99.9801C111.442 99.9801 110.165 110.118 111.761 113.604C113.357 117.09 126.01 115.494 126.01 115.494C123.21 117.149 120.062 118.129 116.817 118.354C110.803 118.979 108.914 117.715 107.956 114.23C106.998 110.744 106.679 100.733 106.679 100.733L102.274 96.1496L105.441 87.5948L108.926 84.1218L129.483 86.0116Z" fill="#02D39B"/>
</g>
<path d="M105.785 85.3857C105.785 85.3857 101.099 96.4431 103.232 98.1541C105.364 99.865 106.628 100.708 106.628 100.708C106.628 100.708 107.905 115.583 110.025 118.137C112.144 120.69 125.755 116.438 125.755 116.438C125.755 116.438 153.347 144.056 154.241 138.949C155.135 133.842 151.688 114.689 151.688 112.595C151.688 110.501 145.738 104.934 145.738 104.934" stroke="#263238" stroke-width="0.38203" stroke-linecap="round" stroke-linejoin="round"/>
<path d="M130.441 85.8074C130.441 85.8074 131.284 89.6379 133.838 90.0592C136.391 90.4806 138.511 86.2287 138.511 86.2287L130.441 85.8074Z" fill="#263238"/>
<path d="M152.071 87.5181C152.071 87.5181 154.624 95.1791 151.636 99.4182C148.649 103.657 147.397 103.67 147.397 103.67C144.844 107.922 138.038 98.5627 138.038 98.5627C138.038 98.5627 143.146 98.3329 144.422 94.9365C145.699 91.5401 143.912 86.5732 143.912 86.5732L152.071 87.5181Z" fill="#263238"/>
<path d="M144.41 87.5183C144.41 87.5183 145.686 93.4684 144.41 96.4561C143.133 99.4439 138.025 98.5757 138.025 98.5757L135.472 104.96" stroke="#263238" stroke-width="0.38203" stroke-linecap="round" stroke-linejoin="round"/>
<path d="M109.654 103.159C109.654 103.159 114.583 104.219 117.737 98.5884" stroke="#263238" stroke-width="0.286522" stroke-linecap="round" stroke-linejoin="round"/>
<path d="M197.164 130.816L186.716 134.664L192.617 150.683L203.065 146.835L197.164 130.816Z" fill="#263238"/>
<path d="M195.336 134.399L190.339 136.24L193.076 143.668L198.072 141.828L195.336 134.399Z" fill="white"/>
<path d="M191.653 128.372L189.448 129.184L191.245 134.061L193.449 133.249L191.653 128.372Z" fill="white" stroke="#263238" stroke-width="0.191015" stroke-linecap="round" stroke-linejoin="round"/>
<path d="M180.71 198.373L190.171 209.162" stroke="#263238" stroke-width="0.38203" stroke-linecap="round" stroke-linejoin="round"/>
<path d="M277.902 65.2501L268.518 70.6639L263.219 61.4069L272.591 56.0059L277.902 65.2501Z" stroke="#263238" stroke-width="0.38203" stroke-linecap="round" stroke-linejoin="round"/>
<path d="M274.736 54.7165L259.963 63.2457L251.166 46.9533L265.939 38.4241L274.736 54.7165Z" stroke="#263238" stroke-width="0.38203" stroke-linecap="round" stroke-linejoin="round"/>
<path d="M416.97 261.724C461.328 217.365 461.328 145.446 416.97 101.088C372.611 56.7291 300.692 56.7291 256.333 101.088C211.975 145.446 211.975 217.365 256.333 261.724C300.692 306.082 372.611 306.082 416.97 261.724Z" fill="white"/>
<path d="M337.645 48.332C311.711 48.3245 286.357 56.008 264.79 70.4108C243.223 84.8136 226.411 105.289 216.481 129.247C206.551 153.205 203.949 179.569 209.004 205.006C214.059 230.443 226.544 253.81 244.879 272.151C263.215 290.492 286.578 302.984 312.013 308.046C337.449 313.108 363.814 310.514 387.775 300.591C411.736 290.668 432.216 273.862 446.625 252.299C461.034 230.736 468.725 205.384 468.725 179.45C468.725 144.682 454.916 111.337 430.335 86.7492C405.754 62.1609 372.414 48.3422 337.645 48.332ZM337.645 293.037C315.17 293.037 293.199 286.372 274.512 273.886C255.824 261.399 241.259 243.651 232.658 222.886C224.057 202.122 221.806 179.273 226.191 157.229C230.576 135.186 241.399 114.937 257.291 99.0447C273.184 83.1521 293.432 72.3291 315.476 67.9443C337.519 63.5596 360.368 65.81 381.133 74.411C401.898 83.012 419.645 97.5773 432.132 116.265C444.619 134.953 451.284 156.923 451.284 179.399C451.284 194.322 448.344 209.099 442.633 222.886C436.923 236.674 428.552 249.201 418 259.753C407.448 270.306 394.92 278.676 381.133 284.387C367.346 290.098 352.569 293.037 337.645 293.037Z" fill="#263238" stroke="#263238" stroke-width="0.38203" stroke-linecap="round" stroke-linejoin="round"/>
<path d="M418.099 80.5468C405.032 69.8997 389.98 61.9531 373.818 57.168" stroke="white" stroke-width="0.764058" stroke-linecap="round" stroke-linejoin="round"/>
<path d="M361.727 54.2312C357.083 53.35 352.394 52.7234 347.682 52.3542" stroke="white" stroke-width="0.764058" stroke-linecap="round" stroke-linejoin="round"/>
<path d="M433.28 249.548C448.599 228.631 456.643 203.27 456.182 177.347C455.72 151.425 446.78 126.366 430.727 106.007" stroke="white" stroke-width="0.38203" stroke-linecap="round" stroke-linejoin="round"/>
<path d="M416.707 267.794C420.43 264.469 423.936 260.908 427.203 257.133" stroke="white" stroke-width="0.38203" stroke-linecap="round" stroke-linejoin="round"/>
<path d="M289.445 287.802C309.372 296.652 331.352 299.844 352.974 297.029C374.595 294.214 395.024 285.499 412.021 271.842" stroke="white" stroke-width="0.38203" stroke-linecap="round" stroke-linejoin="round"/>
<path d="M272.527 278.545C276.074 280.87 279.744 283.001 283.521 284.929" stroke="white" stroke-width="0.38203" stroke-linecap="round" stroke-linejoin="round"/>
<path d="M259.81 268.892C262.8 271.495 265.92 273.945 269.156 276.234" stroke="white" stroke-width="0.38203" stroke-linecap="round" stroke-linejoin="round"/>
<path d="M304.857 65.48C284.708 71.282 266.458 82.3219 251.967 97.4747C237.475 112.628 227.26 131.352 222.362 151.738C217.464 172.125 218.059 193.446 224.086 213.529C230.112 233.611 241.355 251.736 256.669 266.058" stroke="white" stroke-width="0.38203" stroke-linecap="round" stroke-linejoin="round"/>
<path d="M421.482 95.6132C407.612 81.761 390.529 71.5579 371.756 65.9145C352.983 60.2711 333.106 59.3629 313.896 63.271" stroke="white" stroke-width="0.38203" stroke-linecap="round" stroke-linejoin="round"/>
<path d="M347.171 179.45C347.171 177.222 346.388 175.064 344.96 173.354C343.532 171.644 341.549 170.489 339.357 170.091L338.348 107.692H336.931L335.935 170.091C333.764 170.481 331.797 171.613 330.368 173.294C328.94 174.974 328.141 177.099 328.106 179.304C328.071 181.509 328.804 183.657 330.178 185.382C331.553 187.107 333.484 188.3 335.641 188.758L335.283 210.899H340.008L339.65 188.758C341.778 188.298 343.684 187.124 345.052 185.43C346.42 183.737 347.168 181.627 347.171 179.45ZM337.646 184.557C336.635 184.557 335.648 184.258 334.808 183.697C333.968 183.136 333.314 182.338 332.927 181.405C332.54 180.471 332.439 179.444 332.636 178.454C332.834 177.463 333.32 176.553 334.034 175.839C334.748 175.124 335.658 174.638 336.649 174.441C337.64 174.244 338.667 174.345 339.6 174.732C340.533 175.118 341.331 175.773 341.892 176.613C342.453 177.453 342.753 178.44 342.753 179.45C342.753 180.121 342.621 180.785 342.364 181.405C342.108 182.024 341.731 182.587 341.257 183.062C340.783 183.536 340.22 183.912 339.6 184.169C338.98 184.425 338.316 184.557 337.646 184.557Z" fill="#263238"/>
<path d="M337.645 184.698C340.544 184.698 342.893 182.348 342.893 179.45C342.893 176.552 340.544 174.202 337.645 174.202C334.747 174.202 332.398 176.552 332.398 179.45C332.398 182.348 334.747 184.698 337.645 184.698Z" fill="#02D39B"/>
<path d="M337.646 72.2346V91.1445" stroke="#263238" stroke-width="1.52812" stroke-linecap="round" stroke-linejoin="round"/>
<path d="M337.646 268.407V287.317" stroke="#263238" stroke-width="1.52812" stroke-linecap="round" stroke-linejoin="round"/>
<path d="M283.878 86.6499L293.327 103.019" stroke="#263238" stroke-width="1.52812" stroke-linecap="round" stroke-linejoin="round"/>
<path d="M381.964 256.532L391.413 272.914" stroke="#263238" stroke-width="1.52812" stroke-linecap="round" stroke-linejoin="round"/>
<path d="M244.513 126.002L260.882 135.463" stroke="#263238" stroke-width="1.52812" stroke-linecap="round" stroke-linejoin="round"/>
<path d="M414.396 224.088L430.778 233.55" stroke="#263238" stroke-width="1.52812" stroke-linecap="round" stroke-linejoin="round"/>
<path d="M445.18 179.782H426.271" stroke="#263238" stroke-width="1.52812" stroke-linecap="round" stroke-linejoin="round"/>
<path d="M249.008 179.782H230.098" stroke="#263238" stroke-width="1.52812" stroke-linecap="round" stroke-linejoin="round"/>
<path d="M445.18 179.782H426.271" stroke="#263238" stroke-width="1.52812" stroke-linecap="round" stroke-linejoin="round"/>
<path d="M249.008 179.782H230.098" stroke="#263238" stroke-width="1.52812" stroke-linecap="round" stroke-linejoin="round"/>
<path d="M430.778 126.002L414.396 135.463" stroke="#263238" stroke-width="1.52812" stroke-linecap="round" stroke-linejoin="round"/>
<path d="M260.882 224.088L244.513 233.55" stroke="#263238" stroke-width="1.52812" stroke-linecap="round" stroke-linejoin="round"/>
<path d="M391.413 86.6499L381.964 103.019" stroke="#263238" stroke-width="1.52812" stroke-linecap="round" stroke-linejoin="round"/>
<path d="M293.327 256.532L283.878 272.914" stroke="#263238" stroke-width="1.52812" stroke-linecap="round" stroke-linejoin="round"/>
<path d="M343.059 44.208H332.232V53.7843H343.059V44.208Z" stroke="#263238" stroke-width="0.38203" stroke-linecap="round" stroke-linejoin="round"/>
<path d="M346.175 18.6204H329.116V43.659H346.175V18.6204Z" stroke="#263238" stroke-width="0.38203" stroke-linecap="round" stroke-linejoin="round"/>
<path d="M349.993 1H325.299V18.0585H349.993V1Z" stroke="#263238" stroke-width="0.38203" stroke-linecap="round" stroke-linejoin="round"/>
<path d="M328.044 11.6105V1.38306" stroke="#263238" stroke-width="0.38203" stroke-linecap="round" stroke-linejoin="round"/>
<path d="M328.044 18.3777V13.9727" stroke="#263238" stroke-width="0.38203" stroke-linecap="round" stroke-linejoin="round"/>
<path d="M331.185 18.3777V1.38306" stroke="#263238" stroke-width="0.38203" stroke-linecap="round" stroke-linejoin="round"/>
<path d="M334.326 5.63491V1.38306" stroke="#263238" stroke-width="0.38203" stroke-linecap="round" stroke-linejoin="round"/>
<path d="M334.326 18.3776V7.67773" stroke="#263238" stroke-width="0.38203" stroke-linecap="round" stroke-linejoin="round"/>
<path d="M339.522 18.3777V1.38306" stroke="#263238" stroke-width="0.38203" stroke-linecap="round" stroke-linejoin="round"/>
<g style="mix-blend-mode:multiply" opacity="0.3">
<path d="M157.344 136.357L166.524 136.996L166.218 133.51C166.218 133.51 157.982 132.871 157.344 136.357Z" fill="#02D39B"/>
</g>
<g style="mix-blend-mode:multiply" opacity="0.3">
<path d="M132.05 208.792L150.794 196.368L126.853 205.498C126.853 205.498 124.683 156.659 126.317 152.867C127.951 149.074 138.255 142.014 138.255 142.014C138.255 142.014 137.642 138.081 140.962 136.587C143.239 135.736 145.746 135.736 148.023 136.587L150.385 137.481C147.666 135.949 143.273 132.846 136.519 126.538H136.366L138 128.109L137.285 134.493L130.109 140.354C128.488 141.988 122.359 149.777 122.359 149.777L122.001 214.461L131.743 208.192L132.05 208.792Z" fill="#02D39B"/>
</g>
<path d="M137.221 134.518C137.221 134.518 122.295 146.61 122.295 149.84C122.295 153.071 121.222 213.107 121.937 214.525C122.652 215.942 150.794 196.368 150.794 196.368L147.947 170.423" stroke="#263238" stroke-width="0.38203" stroke-linecap="round" stroke-linejoin="round"/>
<path d="M140.068 164.026L170.278 188.197" stroke="#263238" stroke-width="0.38203" stroke-linecap="round" stroke-linejoin="round"/>
<g style="mix-blend-mode:multiply" opacity="0.3">
<path d="M270.88 97.0817L252.685 91.4892L193.376 81.5171L178.348 98.001C178.348 98.001 191.372 89.8676 195.164 89.8676C198.956 89.8676 256.158 106.134 261.559 107.654L270.88 97.0817Z" fill="#02D39B"/>
</g>
<path d="M160.523 109.365C160.523 109.365 189.827 81.5171 193.376 81.5171C196.926 81.5171 255.571 93.2384 259.835 93.9534C264.1 94.6685 271.212 96.0858 271.212 96.0858C271.212 96.0858 258.776 111.727 254.511 117.051C250.246 122.376 248.127 125.581 248.127 125.581L200.143 103.555" stroke="#263238" stroke-width="0.38203" stroke-linecap="round" stroke-linejoin="round"/>
<path d="M208.302 108.931L220.394 140.915" stroke="#263238" stroke-width="0.38203" stroke-linecap="round" stroke-linejoin="round"/>
<path d="M171.338 156.914L168.491 159.761L154.637 141.988" stroke="#263238" stroke-width="0.38203" stroke-linecap="round" stroke-linejoin="round"/>
<path d="M194.679 110.195L208.737 107.73L196.785 116.158" stroke="#263238" stroke-width="0.191015" stroke-linecap="round" stroke-linejoin="round"/>
<path d="M147.883 170.423L130.033 167.805" stroke="#263238" stroke-width="0.191015" stroke-linecap="round" stroke-linejoin="round"/>
<path d="M137.936 128.122C136.653 131.297 136.527 134.822 137.579 138.081C139.353 143.405 145.393 152.65 145.393 152.65L153.207 141.63" stroke="#263238" stroke-width="0.38203" stroke-linecap="round" stroke-linejoin="round"/>
<path d="M155.697 137.366C155.697 137.366 159.617 133.816 163.166 133.816H169.206C169.206 133.816 168.146 119.95 163.166 112.48C158.187 105.011 151.432 108.931 151.432 108.931" stroke="#263238" stroke-width="0.38203" stroke-linecap="round" stroke-linejoin="round"/>
<path d="M149.3 198.501L191.959 178.595L195.509 166.158L210.077 162.992C210.077 162.992 212.925 160.144 212.567 162.992C212.209 165.839 208.302 166.899 206.885 169.746C205.468 172.594 205.455 178.275 203.68 180.765C201.905 183.255 195.509 186.102 195.509 186.102C195.509 186.102 147.525 226.259 143.976 228.391C140.426 230.523 133.314 210.26 133.314 210.26" fill="white"/>
<g style="mix-blend-mode:multiply" opacity="0.3">
<path d="M132.05 208.792C133.697 211.435 140.426 222.377 140.898 226.668C141.447 231.558 145.789 226.668 145.789 226.668L184.86 194.121C184.86 194.121 146.325 218.521 143.133 217.436C139.941 216.351 139.302 208.217 139.302 208.217L150.794 196.368L132.05 208.792Z" fill="#02D39B"/>
</g>
<path d="M149.3 198.501L191.959 178.595L195.509 166.158L210.077 162.992C210.077 162.992 212.925 160.144 212.567 162.992C212.209 165.839 208.302 166.899 206.885 169.746C205.468 172.594 205.455 178.275 203.68 180.765C201.905 183.255 195.509 186.102 195.509 186.102C195.509 186.102 147.525 226.259 143.976 228.391C140.426 230.523 133.314 210.26 133.314 210.26" stroke="#263238" stroke-width="0.38203" stroke-linecap="round" stroke-linejoin="round"/>
<path d="M210.077 162.992C210.077 162.992 203.118 167.142 203.821 168.546" stroke="#263238" stroke-width="0.191015" stroke-linecap="round" stroke-linejoin="round"/>
<path d="M204.523 164.294L199.25 167.103" stroke="#263238" stroke-width="0.191015" stroke-linecap="round" stroke-linejoin="round"/>
</svg>
