<svg width="283" height="433" viewBox="0 0 283 433" fill="none" xmlns="http://www.w3.org/2000/svg">
<path d="M283 347.312H0V432.179H283V347.312Z" fill="#636363"/>
<g opacity="0.2">
<path opacity="0.2" d="M261.847 347.312H220.878L136.028 432.179H176.98L261.847 347.312Z" fill="white"/>
<path opacity="0.2" d="M8.18677 432.179H24.6807L109.531 347.312H93.0371L8.18677 432.179Z" fill="white"/>
</g>
<path d="M106.585 371.792L109.377 380.356H118.369L111.089 385.648L113.881 394.195L106.585 388.92L99.3057 394.195L102.097 385.648L94.8182 380.356H103.81L106.585 371.792Z" fill="white"/>
<path d="M70.6711 371.792L73.4629 380.356H82.4549L75.1757 385.648L77.9675 394.195L70.6711 388.92L63.3919 394.195L66.1837 385.648L58.9044 380.356H67.8964L70.6711 371.792Z" fill="white"/>
<path d="M142.759 371.792L145.533 380.356H154.542L147.246 385.648L150.038 394.195L142.759 388.92L135.479 394.195L138.254 385.648L130.975 380.356H139.967L142.759 371.792Z" fill="white"/>
<path d="M178.915 371.792L181.707 380.356H190.699L183.42 385.648L186.195 394.195L178.915 388.92L171.636 394.195L174.411 385.648L167.132 380.356H176.141L178.915 371.792Z" fill="white"/>
<path d="M213.547 371.792L216.338 380.356H225.33L218.051 385.648L220.826 394.195L213.547 388.92L206.267 394.195L209.042 385.648L201.763 380.356H210.772L213.547 371.792Z" fill="white"/>
<path d="M270.805 364.285C273.075 364.285 274.916 362.445 274.916 360.174C274.916 357.904 273.075 356.064 270.805 356.064C268.535 356.064 266.695 357.904 266.695 360.174C266.695 362.445 268.535 364.285 270.805 364.285Z" fill="white"/>
<path d="M270.805 424.66C273.075 424.66 274.916 422.82 274.916 420.55C274.916 418.279 273.075 416.439 270.805 416.439C268.535 416.439 266.695 418.279 266.695 420.55C266.695 422.82 268.535 424.66 270.805 424.66Z" fill="white"/>
<path d="M11.15 364.285C13.4202 364.285 15.2606 362.445 15.2606 360.174C15.2606 357.904 13.4202 356.064 11.15 356.064C8.87972 356.064 7.03931 357.904 7.03931 360.174C7.03931 362.445 8.87972 364.285 11.15 364.285Z" fill="white"/>
<path d="M11.15 424.66C13.4202 424.66 15.2606 422.82 15.2606 420.55C15.2606 418.279 13.4202 416.439 11.15 416.439C8.87972 416.439 7.03931 418.279 7.03931 420.55C7.03931 422.82 8.87972 424.66 11.15 424.66Z" fill="white"/>
<path opacity="0.22" d="M140.714 374.495C175.072 374.495 202.924 367.722 202.924 359.367C202.924 351.012 175.072 344.239 140.714 344.239C106.356 344.239 78.5029 351.012 78.5029 359.367C78.5029 367.722 106.356 374.495 140.714 374.495Z" fill="black"/>
<path d="M102.124 92.6958L69.4482 139.461C69.4482 139.461 64.6459 147.55 72.7476 154.442C80.8492 161.334 87.4112 153.843 87.4112 153.843L107.488 129.269L106.889 99.9421L102.124 92.6958Z" fill="#263238" stroke="#263238" stroke-width="1.08916" stroke-linecap="round" stroke-linejoin="round"/>
<path d="M133.589 83.7018L102.123 92.6955L109.541 176.401H176.981L193.393 92.7688L157.418 83.3352L137.866 84.0073L133.589 83.7018Z" fill="#92E3A9" stroke="#263238" stroke-width="1.08916" stroke-linecap="round" stroke-linejoin="round"/>
<path d="M180.391 121.498C180.391 123.1 179.916 124.666 179.026 125.999C178.136 127.331 176.87 128.369 175.39 128.983C173.909 129.596 172.28 129.756 170.709 129.444C169.137 129.131 167.694 128.359 166.561 127.226C165.428 126.093 164.656 124.65 164.343 123.078C164.031 121.507 164.191 119.878 164.804 118.397C165.418 116.917 166.456 115.652 167.788 114.761C169.121 113.871 170.687 113.396 172.289 113.396C174.438 113.396 176.499 114.25 178.018 115.769C179.538 117.288 180.391 119.349 180.391 121.498V121.498Z" fill="white"/>
<path d="M94.9261 141.648L101.989 95.3837C101.989 95.3837 84.7959 94.8827 84.5638 96.3613C84.3316 97.8399 65.6476 140.242 65.6476 140.242C65.6476 140.242 64.0224 145.863 68.9347 151.692C70.8171 154.128 73.3993 155.929 76.3348 156.855C79.2703 157.782 82.4188 157.788 85.358 156.873C90.7347 155.358 94.9261 141.648 94.9261 141.648Z" fill="#92E3A9" stroke="#263238" stroke-width="1.08916" stroke-linecap="round" stroke-linejoin="round"/>
<path d="M79.5045 101.873L104.054 104.365L103.443 91.9869L83.1215 90.9971L79.5045 101.873Z" fill="white" stroke="#263238" stroke-width="1.08916" stroke-linecap="round" stroke-linejoin="round"/>
<path d="M164.383 27.8944L46.3402 112.87C41.9399 110.668 36.9283 110.005 32.1066 110.987C27.2849 111.969 22.9318 114.539 19.7433 118.287C16.5547 122.035 14.7149 126.743 14.518 131.66C14.3211 136.577 15.7786 141.417 18.6573 145.408C21.536 149.399 25.6697 152.309 30.3974 153.673C35.1251 155.037 40.1738 154.777 44.7361 152.934C49.2983 151.09 53.1107 147.77 55.5637 143.505C58.0166 139.239 58.9683 134.274 58.2667 129.404L176.309 44.4399C179.94 46.275 184.009 47.0671 188.063 46.7283C192.117 46.3895 195.997 44.933 199.273 42.5208C202.549 40.1085 205.092 36.8351 206.618 33.0643C208.145 29.2935 208.596 25.1732 207.922 21.1614L206.248 19.4872L191.926 32.6968L180.586 17.0189L196.704 5.39789C196.103 4.88811 195.548 4.32805 195.042 3.7238C195.042 3.7238 179.987 2.02526 173.254 6.91315C170.001 9.2674 167.455 12.4673 165.891 16.1659C164.327 19.8644 163.805 23.9205 164.383 27.8944V27.8944ZM30.6012 145.595L22.2429 133.998L28.1084 120.972L42.3199 119.53L50.6782 131.114L44.825 144.141L30.6012 145.595Z" fill="white" stroke="#263238" stroke-width="1.08916" stroke-linecap="round" stroke-linejoin="round"/>
<path d="M162.709 26.2324L44.6662 111.196C40.266 108.994 35.2543 108.331 30.4326 109.313C25.611 110.295 21.2578 112.865 18.0693 116.613C14.8807 120.36 13.0409 125.069 12.844 129.986C12.6472 134.902 14.1046 139.743 16.9833 143.734C19.8621 147.725 23.9958 150.635 28.7235 151.999C33.4512 153.363 38.4998 153.103 43.0621 151.259C47.6244 149.416 51.4368 146.096 53.8897 141.83C56.3426 137.565 57.2943 132.6 56.5927 127.729L174.635 42.7657C178.266 44.6007 182.335 45.3929 186.389 45.0541C190.443 44.7153 194.323 43.2588 197.599 40.8465C200.875 38.4343 203.418 35.1608 204.945 31.39C206.471 27.6193 206.922 23.4989 206.248 19.4871L190.24 31.0348L178.937 15.3446L195.055 3.72367C191.464 1.74836 187.393 0.815484 183.3 1.03022C179.208 1.24496 175.256 2.59877 171.892 4.939C168.528 7.27924 165.884 10.5128 164.26 14.2751C162.635 18.0375 162.094 22.1789 162.697 26.2324H162.709ZM28.9395 143.921L20.5812 132.336L26.4344 119.335L40.646 117.893L49.0043 129.477L43.151 142.515L28.9395 143.921Z" fill="white" stroke="#263238" stroke-width="1.08916" stroke-linecap="round" stroke-linejoin="round"/>
<path d="M193.393 92.7686L211.832 201.805L195.043 203.601L180.953 156.849L193.393 92.7686Z" fill="#92E3A9" stroke="#263238" stroke-width="1.08916" stroke-linecap="round" stroke-linejoin="round"/>
<path d="M189.58 113.836L183.886 163.741L180.953 156.849L189.58 113.836Z" fill="#263238" stroke="#263238" stroke-width="1.08916" stroke-linecap="round" stroke-linejoin="round"/>
<path d="M80.1033 80.3661C78.3559 81.1237 76.2542 83.9587 76.8896 84.5941C77.7938 85.5106 80.5555 90.0441 81.8752 89.3598C83.1949 88.6755 85.2845 86.647 85.2845 85.5106C85.2845 84.3741 81.6186 80.5249 81.6186 80.5127C81.4139 80.3314 81.157 80.2196 80.8848 80.1933C80.6126 80.1669 80.339 80.2274 80.1033 80.3661V80.3661Z" fill="white" stroke="#263238" stroke-width="1.08916" stroke-linecap="round" stroke-linejoin="round"/>
<path d="M82.6817 73.1684C80.9343 73.9138 78.8325 76.761 79.4679 77.3964C80.3722 78.3129 84.9057 85.1804 86.2743 84.4961C87.643 83.8118 89.6714 81.7711 89.6714 80.6347C89.6714 79.4982 84.2459 73.3028 84.2336 73.3028C84.0245 73.1151 83.7601 73.0005 83.4802 72.9763C83.2002 72.952 82.92 73.0195 82.6817 73.1684V73.1684Z" fill="white" stroke="#263238" stroke-width="1.08916" stroke-linecap="round" stroke-linejoin="round"/>
<path d="M88.0217 69.3559C86.2743 70.1013 84.1725 72.9485 84.8079 73.5839C85.7244 74.4882 90.2579 81.3557 91.6143 80.6714C92.9707 79.9871 95.0236 77.9586 95.0236 76.8222C95.0236 75.6857 89.5858 69.4903 89.5736 69.4903C89.3645 69.3026 89.1001 69.188 88.8201 69.1638C88.5402 69.1395 88.26 69.207 88.0217 69.3559V69.3559Z" fill="white" stroke="#263238" stroke-width="1.08916" stroke-linecap="round" stroke-linejoin="round"/>
<path d="M94.3274 66.9609C92.5799 67.7185 90.4781 70.5535 91.1136 71.2011C92.0178 72.1054 96.5636 78.9729 97.92 78.2886C99.2764 77.6043 101.317 75.5636 101.317 74.4271C101.317 73.2907 95.8915 67.0953 95.8793 67.0953C95.6702 66.9076 95.4057 66.793 95.1258 66.7687C94.8458 66.7445 94.5656 66.8119 94.3274 66.9609V66.9609Z" fill="white" stroke="#263238" stroke-width="1.08916" stroke-linecap="round" stroke-linejoin="round"/>
<path d="M106.535 209.895H110.555L109.614 174.226H106.633C104.322 174.226 102.106 175.144 100.472 176.778C98.8379 178.412 97.92 180.628 97.92 182.939V201.268C97.9102 202.403 98.1263 203.528 98.5556 204.578C98.985 205.629 99.619 206.583 100.421 207.386C101.222 208.189 102.176 208.824 103.226 209.255C104.275 209.686 105.4 209.904 106.535 209.895V209.895Z" fill="white" stroke="#263238" stroke-width="1.08916" stroke-linecap="round" stroke-linejoin="round"/>
<path d="M109.614 182.327H107.17C105.916 182.327 104.713 182.825 103.826 183.712C102.939 184.599 102.441 185.802 102.441 187.056V196.404C102.441 197.607 101.964 198.76 101.113 199.61C100.263 200.46 99.1101 200.938 97.9077 200.938V200.938" stroke="#263238" stroke-width="1.08916" stroke-linecap="round" stroke-linejoin="round"/>
<path d="M109.614 180.824C109.614 180.824 112.058 274.049 112.058 275.845C112.058 277.641 115.956 335.795 115.956 335.795C115.186 338.247 114.585 340.75 114.16 343.285C114.417 345.313 114.826 347.319 115.382 349.285H140.86L143.56 214.392L146.261 349.591H170.81C170.81 349.591 172.313 336.992 171.409 335.196C170.839 334.03 170.341 332.83 169.918 331.603L178.607 239.271L177.104 180.824H109.614Z" fill="white" stroke="#263238" stroke-width="1.08916" stroke-linecap="round" stroke-linejoin="round"/>
<path d="M111.716 256.66H125.5V265.36H116.812" stroke="#263238" stroke-width="1.08916" stroke-linecap="round" stroke-linejoin="round"/>
<path d="M125.5 265.361V297.425H115.015" stroke="#263238" stroke-width="1.08916" stroke-linecap="round" stroke-linejoin="round"/>
<path d="M176.163 256.66H162.367V265.36H171.067" stroke="#263238" stroke-width="1.08916" stroke-linecap="round" stroke-linejoin="round"/>
<path d="M162.367 265.361V297.425H172.863" stroke="#263238" stroke-width="1.08916" stroke-linecap="round" stroke-linejoin="round"/>
<path d="M177.055 173.028H109.614V182.315H177.055V173.028Z" fill="#263238" stroke="#263238" stroke-width="1.08916" stroke-linecap="round" stroke-linejoin="round"/>
<path d="M150.086 173.028H136.595V182.315H150.086V173.028Z" fill="white" stroke="#263238" stroke-width="1.08916" stroke-linecap="round" stroke-linejoin="round"/>
<path d="M128.799 171.586H122.799V181.57H128.799V171.586Z" fill="white" stroke="#263238" stroke-width="1.08916" stroke-linecap="round" stroke-linejoin="round"/>
<path d="M173.462 172.149H168.965V194.034H173.462V172.149Z" fill="white" stroke="#263238" stroke-width="1.08916" stroke-linecap="round" stroke-linejoin="round"/>
<path d="M136.29 211.704L147.08 214.991" stroke="#263238" stroke-width="1.08916" stroke-linecap="round" stroke-linejoin="round"/>
<path d="M141.092 346.621H132.392C132.392 346.621 129.398 337.335 123.997 337.933C118.596 338.532 118.303 346.023 118.303 346.023C118.303 346.023 103.321 355.615 102.417 357.411C101.513 359.208 102.417 363.106 102.417 363.106H141.154L141.092 346.621Z" fill="#92E3A9" stroke="#263238" stroke-width="1.08916" stroke-linecap="round" stroke-linejoin="round"/>
<path d="M102.38 363.07H141.117V359.22H102.013C101.987 360.513 102.11 361.805 102.38 363.07V363.07Z" fill="white" stroke="#263238" stroke-width="1.08916" stroke-linecap="round" stroke-linejoin="round"/>
<path d="M145.846 346.621H154.534C154.534 346.621 157.528 337.335 162.929 337.933C168.33 338.532 168.623 346.023 168.623 346.023C168.623 346.023 183.605 355.615 184.509 357.411C185.413 359.208 184.509 363.106 184.509 363.106H145.772L145.846 346.621Z" fill="#92E3A9" stroke="#263238" stroke-width="1.08916" stroke-linecap="round" stroke-linejoin="round"/>
<path d="M184.509 363.07H145.772V359.22H184.876C184.898 360.513 184.775 361.804 184.509 363.07V363.07Z" fill="white" stroke="#263238" stroke-width="1.08916" stroke-linecap="round" stroke-linejoin="round"/>
<path d="M135.703 181.13H115.614V202.111H135.703V181.13Z" fill="white" stroke="#263238" stroke-width="1.08916" stroke-linecap="round" stroke-linejoin="round"/>
<path d="M133.589 191.614C133.592 193.186 133.128 194.723 132.257 196.03C131.385 197.338 130.146 198.358 128.694 198.961C127.243 199.564 125.646 199.723 124.104 199.418C122.563 199.113 121.146 198.357 120.034 197.247C118.922 196.137 118.165 194.722 117.857 193.18C117.55 191.639 117.706 190.042 118.307 188.59C118.908 187.138 119.926 185.896 121.232 185.023C122.539 184.15 124.075 183.684 125.646 183.684C127.751 183.684 129.769 184.519 131.259 186.006C132.748 187.493 133.586 189.51 133.589 191.614Z" fill="white" stroke="#263238" stroke-width="1.08916" stroke-linecap="round" stroke-linejoin="round"/>
<path d="M129.814 191.614C129.816 192.439 129.574 193.246 129.117 193.933C128.661 194.62 128.011 195.156 127.25 195.473C126.489 195.79 125.65 195.874 124.841 195.715C124.032 195.556 123.289 195.16 122.705 194.577C122.121 193.995 121.722 193.253 121.561 192.444C121.399 191.635 121.481 190.797 121.796 190.035C122.111 189.273 122.645 188.621 123.33 188.163C124.016 187.704 124.822 187.46 125.647 187.46C126.75 187.46 127.808 187.897 128.589 188.676C129.37 189.455 129.81 190.511 129.814 191.614V191.614Z" fill="white" stroke="#263238" stroke-width="1.08916" stroke-linecap="round" stroke-linejoin="round"/>
<path d="M127.333 191.614C127.353 191.847 127.324 192.081 127.249 192.302C127.173 192.523 127.053 192.726 126.895 192.898C126.737 193.07 126.545 193.208 126.331 193.301C126.117 193.395 125.886 193.444 125.653 193.444C125.419 193.444 125.188 193.395 124.974 193.301C124.76 193.208 124.568 193.07 124.41 192.898C124.253 192.726 124.132 192.523 124.057 192.302C123.981 192.081 123.952 191.847 123.972 191.614C124.008 191.193 124.201 190.801 124.512 190.516C124.823 190.23 125.23 190.071 125.653 190.071C126.075 190.071 126.482 190.23 126.793 190.516C127.104 190.801 127.297 191.193 127.333 191.614V191.614Z" fill="white" stroke="#263238" stroke-width="1.08916" stroke-linecap="round" stroke-linejoin="round"/>
<path d="M133.821 80.9037L131.121 83.1277C129.87 84.1561 128.884 85.4697 128.246 86.9582C127.608 88.4466 127.337 90.0664 127.455 91.6815L128.677 107.922C128.677 107.922 139.675 100.272 142.204 99.4899C144.734 98.7079 152.982 98.268 152.982 98.268L169.063 106.895C169.063 106.895 169.906 92.6958 167.939 86.6226C165.972 80.5494 162.196 77.6777 160.607 77.6777C159.018 77.6777 133.821 80.9037 133.821 80.9037Z" fill="white" stroke="#263238" stroke-width="1.08916" stroke-linecap="round" stroke-linejoin="round"/>
<path d="M124.803 46.0166C124.505 47.3683 124.439 48.7607 124.608 50.1346C124.999 51.3566 125.585 52.8718 125.585 52.8718C125.585 52.8718 120.49 57.7597 121.076 59.1528C121.663 60.5458 124.608 62.2932 124.608 62.2932C124.608 62.2932 122.64 77.5801 123.227 78.7532C123.814 79.9263 132.245 78.9487 132.245 78.9487C132.245 78.9487 134.213 87.5759 136.754 92.476C139.296 97.3761 147.752 105.417 149.304 105.221C150.856 105.026 159.312 92.6715 160.302 90.7163C161.291 88.7612 162.452 81.5026 162.452 78.7532C162.196 75.5263 161.739 72.3185 161.084 69.1485C161.084 69.1485 167.194 52.8718 167.352 49.9391C167.511 47.0064 149.304 38.7458 141.483 36.9862C133.663 35.2265 129.129 38.5503 127.553 40.3222C126.328 42.0553 125.399 43.9795 124.803 46.0166Z" fill="white" stroke="#263238" stroke-width="1.08916" stroke-linecap="round" stroke-linejoin="round"/>
<path d="M161.035 69.1361C161.035 69.1361 167.145 52.8594 167.304 49.9266C167.475 47.4827 155.328 41.5806 146.603 38.5256L146.139 45.0265L146.335 47.5682L145.944 55.0223L149.463 55.6088C149.463 55.6088 151.235 50.7209 153.581 50.1222C155.927 49.5234 158.286 55.01 158.286 58.5538C158.286 62.0975 153.972 65.2135 152.799 65.2135H150.844C150.844 65.2135 155.292 70.5413 161.145 69.6859C161.108 69.3438 161.035 69.1361 161.035 69.1361Z" fill="#263238" stroke="#263238" stroke-width="1.08916" stroke-linecap="round" stroke-linejoin="round"/>
<path d="M122.445 56.782L141.276 55.8044V49.5357L122.641 47.5684C122.641 47.5684 120.881 53.6538 122.445 56.782Z" stroke="#263238" stroke-width="1.08916" stroke-linecap="round" stroke-linejoin="round"/>
<path d="M146.175 53.4587L150.379 54.033L151.466 52.0778L141.275 49.5361V55.8048L145.528 55.7071L146.175 53.4587Z" fill="#92E3A9" stroke="#263238" stroke-width="1.08916" stroke-linecap="round" stroke-linejoin="round"/>
<path d="M131.268 52.6642C131.268 53.6418 130.877 54.436 130.388 54.436C129.899 54.436 129.508 53.6418 129.508 52.6642C129.508 51.6866 129.899 50.9045 130.388 50.9045C130.877 50.9045 131.268 51.6988 131.268 52.6642Z" fill="#263238" stroke="#263238" stroke-width="1.08916" stroke-linecap="round" stroke-linejoin="round"/>
<path d="M132.257 78.9362L141.068 77.5676L134.213 85.2172L132.257 78.9362Z" fill="#263238" stroke="#263238" stroke-width="1.08916" stroke-linecap="round" stroke-linejoin="round"/>
<path d="M127.345 63.2583C127.345 63.2583 132.648 63.4539 135.972 59.9224" stroke="#263238" stroke-width="1.08916" stroke-linecap="round" stroke-linejoin="round"/>
<path d="M124.608 43.6457L167.743 53.0549C167.743 53.0549 170.09 43.8412 170.09 39.3321C170.09 34.823 157.931 25.2183 150.685 23.4465C143.438 21.6746 128.139 27.76 126.954 30.4973C125.769 33.2345 124.608 43.6457 124.608 43.6457Z" fill="#92E3A9" stroke="#263238" stroke-width="1.08916" stroke-linecap="round" stroke-linejoin="round"/>
<path d="M124.608 43.6458C124.608 43.6458 106.046 41.8862 106.046 43.2548C106.046 44.6234 113.097 48.9492 118.975 49.5358C124.852 50.1223 135.838 46.1998 135.838 46.1998L124.608 43.6458Z" fill="#92E3A9" stroke="#263238" stroke-width="1.08916" stroke-linecap="round" stroke-linejoin="round"/>
<path d="M201.335 231.181H213.922V244.672" stroke="#263238" stroke-width="4.35666" stroke-linecap="round" stroke-linejoin="round"/>
<path d="M198.635 208.099C198.635 208.099 199.246 212.596 198.036 213.194C196.826 213.793 189.348 221.296 189.348 222.787C189.348 224.278 192.048 231.182 193.246 233.577C194.444 235.972 195.947 237.475 197.144 237.475C200.338 236.956 203.457 236.05 206.431 234.775C207.934 233.882 212.431 216.445 212.431 213.793C212.148 211.136 211.545 208.522 210.635 206.009L198.635 208.099Z" fill="white" stroke="#263238" stroke-width="1.08916" stroke-linecap="round" stroke-linejoin="round"/>
<path d="M194.749 225.182C196.028 226.147 197.07 227.392 197.794 228.821C198.519 230.251 198.906 231.827 198.928 233.43" stroke="#263238" stroke-width="1.08916" stroke-linecap="round" stroke-linejoin="round"/>
<path d="M196.936 231.181H185.755V244.672" stroke="#263238" stroke-width="4.35666" stroke-linecap="round" stroke-linejoin="round"/>
<path d="M174.611 244.672H225.029C226.169 244.672 227.297 244.897 228.35 245.333C229.402 245.769 230.359 246.408 231.164 247.213C231.97 248.019 232.609 248.975 233.045 250.028C233.481 251.081 233.705 252.209 233.705 253.348V295.03H167.719V251.515C167.719 250.613 167.898 249.719 168.244 248.885C168.591 248.052 169.1 247.295 169.74 246.659C170.381 246.023 171.141 245.52 171.977 245.179C172.813 244.838 173.708 244.666 174.611 244.672Z" fill="#5E5E5E" stroke="#263238" stroke-width="1.08916" stroke-linecap="round" stroke-linejoin="round"/>
<path d="M186.599 244.672H225.03C226.169 244.672 227.297 244.897 228.35 245.333C229.402 245.769 230.359 246.408 231.164 247.213C231.97 248.019 232.609 248.976 233.045 250.028C233.481 251.081 233.706 252.209 233.706 253.348V295.03H179.755V251.515C179.755 249.701 180.476 247.96 181.76 246.677C183.043 245.393 184.784 244.672 186.599 244.672V244.672Z" fill="#263238" stroke="#263238" stroke-width="1.08916" stroke-linecap="round" stroke-linejoin="round"/>
<path d="M207.03 262.305H207.103C207.508 262.305 207.897 262.466 208.183 262.753C208.47 263.039 208.631 263.428 208.631 263.833V266.582H205.502V263.833C205.502 263.428 205.663 263.039 205.95 262.753C206.236 262.466 206.625 262.305 207.03 262.305Z" fill="#263238" stroke="#263238" stroke-width="1.08916" stroke-linecap="round" stroke-linejoin="round"/>
<path d="M203.73 262.538C203.659 262.539 203.589 262.515 203.533 262.471C203.478 262.426 203.439 262.363 203.425 262.293L202.679 258.762C202.67 258.722 202.669 258.682 202.676 258.642C202.683 258.602 202.698 258.564 202.719 258.53C202.741 258.496 202.769 258.467 202.802 258.443C202.835 258.42 202.872 258.404 202.912 258.395C202.951 258.386 202.992 258.385 203.031 258.392C203.071 258.399 203.109 258.413 203.143 258.435C203.177 258.456 203.207 258.485 203.23 258.518C203.253 258.551 203.27 258.588 203.278 258.627L204.036 262.171C204.05 262.252 204.033 262.335 203.988 262.404C203.942 262.472 203.872 262.52 203.791 262.538H203.73Z" fill="#263238"/>
<path d="M205.771 263.613H205.686L203.645 262.391C203.617 262.361 203.601 262.322 203.601 262.281C203.601 262.24 203.617 262.2 203.645 262.171C203.659 262.157 203.675 262.146 203.693 262.139C203.71 262.132 203.73 262.128 203.749 262.128C203.768 262.128 203.787 262.132 203.805 262.139C203.823 262.146 203.839 262.157 203.853 262.171L205.893 263.393C205.929 263.416 205.955 263.45 205.966 263.491C205.977 263.532 205.973 263.575 205.954 263.613C205.927 263.63 205.895 263.639 205.863 263.639C205.83 263.639 205.799 263.63 205.771 263.613V263.613Z" fill="#263238"/>
<path d="M200.052 267.193C199.963 267.172 199.868 267.179 199.783 267.214C199.697 267.249 199.625 267.31 199.576 267.389L197.376 271.531C197.326 271.627 197.316 271.739 197.348 271.842C197.38 271.945 197.452 272.031 197.547 272.081C197.643 272.131 197.755 272.142 197.858 272.11C197.961 272.078 198.047 272.006 198.097 271.91L200.285 267.768C200.31 267.722 200.326 267.672 200.332 267.62C200.338 267.568 200.334 267.515 200.319 267.465C200.304 267.415 200.279 267.369 200.246 267.328C200.213 267.288 200.172 267.254 200.126 267.23L200.052 267.193Z" fill="#263238"/>
<path d="M202.973 266.631C202.937 266.625 202.9 266.625 202.863 266.631L199.881 267.425C199.856 267.431 199.831 267.442 199.81 267.457C199.788 267.473 199.771 267.493 199.758 267.517C199.745 267.54 199.738 267.565 199.736 267.592C199.734 267.618 199.738 267.645 199.747 267.67C199.753 267.696 199.764 267.721 199.779 267.742C199.795 267.764 199.815 267.782 199.838 267.796C199.86 267.81 199.886 267.819 199.912 267.822C199.939 267.826 199.966 267.824 199.992 267.816L202.961 267.022C202.987 267.016 203.012 267.005 203.033 266.99C203.055 266.974 203.073 266.955 203.087 266.932C203.101 266.909 203.11 266.883 203.113 266.857C203.117 266.83 203.115 266.803 203.108 266.778C203.097 266.745 203.08 266.715 203.057 266.689C203.034 266.664 203.005 266.644 202.973 266.631V266.631Z" fill="#263238"/>
<path d="M199.368 271.605C199.277 271.599 199.187 271.625 199.114 271.679C199.04 271.732 198.987 271.81 198.965 271.898L197.743 276.419C197.728 276.47 197.724 276.523 197.73 276.575C197.736 276.627 197.753 276.678 197.779 276.724C197.806 276.769 197.841 276.809 197.883 276.841C197.925 276.873 197.973 276.895 198.024 276.908C198.074 276.923 198.127 276.927 198.18 276.921C198.232 276.915 198.283 276.898 198.328 276.872C198.374 276.845 198.414 276.81 198.445 276.768C198.477 276.726 198.5 276.678 198.513 276.627L199.735 272.118C199.75 272.067 199.754 272.013 199.748 271.96C199.742 271.907 199.725 271.855 199.699 271.809C199.673 271.762 199.638 271.721 199.596 271.688C199.553 271.655 199.505 271.631 199.454 271.617L199.368 271.605Z" fill="#263238"/>
<path d="M202.093 270.383C202.057 270.371 202.019 270.371 201.983 270.383L199.258 271.812C199.235 271.824 199.214 271.841 199.197 271.861C199.18 271.881 199.167 271.904 199.159 271.929C199.152 271.954 199.149 271.98 199.151 272.007C199.153 272.033 199.16 272.058 199.172 272.081C199.184 272.105 199.201 272.125 199.221 272.142C199.241 272.159 199.264 272.172 199.289 272.18C199.314 272.188 199.34 272.191 199.366 272.188C199.392 272.186 199.418 272.179 199.441 272.167L202.166 270.737C202.19 270.725 202.211 270.709 202.228 270.689C202.245 270.669 202.258 270.646 202.266 270.621C202.274 270.596 202.277 270.569 202.275 270.543C202.272 270.517 202.264 270.491 202.252 270.468C202.236 270.441 202.213 270.418 202.184 270.403C202.156 270.388 202.125 270.381 202.093 270.383Z" fill="#263238"/>
<path d="M201.274 274.122C201.183 274.118 201.092 274.145 201.017 274.198C200.941 274.251 200.886 274.327 200.859 274.415L199.637 278.937C199.614 279.04 199.632 279.148 199.687 279.239C199.741 279.33 199.828 279.397 199.93 279.425C199.981 279.44 200.034 279.444 200.086 279.438C200.138 279.432 200.189 279.415 200.235 279.389C200.28 279.363 200.32 279.327 200.352 279.285C200.384 279.243 200.406 279.195 200.419 279.144L201.641 274.635C201.668 274.532 201.653 274.422 201.601 274.328C201.549 274.235 201.462 274.165 201.36 274.134L201.274 274.122Z" fill="#263238"/>
<path d="M203.987 272.9C203.955 272.889 203.921 272.889 203.889 272.9L201.152 274.33C201.106 274.358 201.072 274.403 201.058 274.455C201.044 274.508 201.052 274.564 201.079 274.611C201.09 274.634 201.107 274.655 201.127 274.673C201.147 274.69 201.17 274.703 201.195 274.711C201.22 274.719 201.247 274.722 201.273 274.719C201.299 274.717 201.324 274.709 201.348 274.696L204.073 273.267C204.119 273.238 204.153 273.194 204.169 273.142C204.185 273.091 204.181 273.035 204.158 272.985C204.139 272.958 204.114 272.935 204.084 272.92C204.054 272.905 204.021 272.898 203.987 272.9V272.9Z" fill="#263238"/>
<path d="M213.91 267.194C213.998 267.171 214.091 267.178 214.175 267.213C214.259 267.248 214.329 267.31 214.374 267.389L216.573 271.532C216.599 271.578 216.614 271.629 216.619 271.681C216.624 271.734 216.618 271.787 216.602 271.837C216.586 271.887 216.561 271.934 216.526 271.974C216.492 272.013 216.45 272.046 216.402 272.069C216.357 272.095 216.307 272.111 216.255 272.117C216.203 272.123 216.15 272.118 216.1 272.103C216.05 272.089 216.003 272.064 215.963 272.031C215.922 271.998 215.889 271.957 215.865 271.91L213.665 267.768C213.64 267.722 213.624 267.671 213.619 267.618C213.614 267.566 213.62 267.513 213.636 267.463C213.652 267.412 213.678 267.366 213.712 267.326C213.747 267.286 213.789 267.254 213.836 267.23L213.91 267.194Z" fill="#263238"/>
<path d="M210.989 266.631C211.025 266.625 211.062 266.625 211.099 266.631L214.068 267.425C214.094 267.432 214.118 267.443 214.139 267.459C214.161 267.475 214.179 267.494 214.192 267.517C214.206 267.54 214.215 267.565 214.219 267.591C214.223 267.617 214.221 267.644 214.215 267.67C214.209 267.695 214.197 267.72 214.181 267.741C214.166 267.762 214.146 267.78 214.123 267.794C214.1 267.807 214.075 267.816 214.049 267.82C214.023 267.824 213.996 267.823 213.971 267.816L210.989 267.022C210.963 267.016 210.938 267.005 210.916 266.99C210.895 266.974 210.876 266.955 210.863 266.932C210.849 266.909 210.84 266.883 210.837 266.857C210.833 266.83 210.835 266.803 210.842 266.778C210.853 266.743 210.872 266.712 210.897 266.686C210.923 266.66 210.954 266.642 210.989 266.631V266.631Z" fill="#263238"/>
<path d="M214.582 271.605C214.674 271.599 214.766 271.624 214.841 271.678C214.917 271.731 214.972 271.809 214.997 271.898L216.219 276.42C216.233 276.471 216.236 276.524 216.229 276.577C216.222 276.63 216.205 276.68 216.178 276.726C216.124 276.819 216.036 276.887 215.932 276.914C215.828 276.942 215.718 276.927 215.625 276.873C215.532 276.819 215.465 276.731 215.437 276.627L214.215 272.118C214.188 272.015 214.203 271.905 214.255 271.811C214.307 271.718 214.394 271.648 214.496 271.617L214.582 271.605Z" fill="#263238"/>
<path d="M211.869 270.382C211.9 270.37 211.935 270.37 211.967 270.382L214.704 271.812C214.727 271.824 214.749 271.84 214.766 271.86C214.783 271.88 214.796 271.903 214.804 271.928C214.812 271.954 214.815 271.98 214.812 272.006C214.81 272.032 214.802 272.058 214.789 272.081C214.761 272.127 214.717 272.162 214.665 272.178C214.613 272.193 214.558 272.189 214.508 272.167L211.783 270.737C211.76 270.725 211.739 270.709 211.721 270.689C211.704 270.669 211.691 270.646 211.683 270.621C211.675 270.596 211.672 270.569 211.675 270.543C211.677 270.517 211.685 270.491 211.698 270.468C211.716 270.439 211.741 270.416 211.771 270.401C211.801 270.386 211.835 270.38 211.869 270.382V270.382Z" fill="#263238"/>
<path d="M212.675 274.122C212.768 274.116 212.859 274.142 212.935 274.195C213.011 274.249 213.066 274.326 213.091 274.416L214.313 278.937C214.339 279.039 214.324 279.147 214.272 279.238C214.219 279.33 214.133 279.397 214.032 279.426C213.981 279.442 213.928 279.448 213.875 279.443C213.822 279.437 213.771 279.421 213.725 279.394C213.679 279.368 213.638 279.332 213.607 279.289C213.576 279.246 213.554 279.197 213.543 279.145L212.321 274.635C212.306 274.584 212.302 274.53 212.308 274.477C212.314 274.424 212.33 274.373 212.357 274.326C212.383 274.28 212.418 274.239 212.46 274.206C212.502 274.173 212.55 274.149 212.602 274.134L212.675 274.122Z" fill="#263238"/>
<path d="M209.914 272.9C209.949 272.888 209.988 272.888 210.024 272.9L212.749 274.33C212.795 274.358 212.829 274.402 212.845 274.454C212.861 274.506 212.857 274.562 212.834 274.611C212.823 274.634 212.806 274.655 212.786 274.673C212.766 274.69 212.743 274.703 212.718 274.711C212.693 274.719 212.666 274.722 212.64 274.719C212.614 274.717 212.588 274.709 212.565 274.696L209.914 273.303C209.867 273.275 209.833 273.231 209.817 273.179C209.801 273.127 209.805 273.071 209.828 273.022C209.839 272.972 209.87 272.928 209.914 272.9Z" fill="#263238"/>
<path d="M210.598 262.537H210.525C210.447 262.517 210.379 262.468 210.336 262.4C210.293 262.332 210.278 262.25 210.293 262.171L211.038 258.627C211.066 258.558 211.118 258.501 211.185 258.467C211.251 258.432 211.327 258.422 211.4 258.438C211.473 258.454 211.537 258.496 211.583 258.555C211.629 258.614 211.652 258.687 211.649 258.761L210.891 262.305C210.875 262.371 210.837 262.429 210.784 262.471C210.731 262.513 210.666 262.537 210.598 262.537V262.537Z" fill="#263238"/>
<path d="M208.557 263.613C208.53 263.616 208.503 263.611 208.478 263.598C208.454 263.584 208.435 263.564 208.423 263.54C208.394 263.51 208.379 263.471 208.379 263.43C208.379 263.389 208.394 263.349 208.423 263.32L210.463 262.098C210.493 262.07 210.532 262.054 210.573 262.054C210.614 262.054 210.654 262.07 210.683 262.098C210.709 262.129 210.723 262.168 210.723 262.208C210.723 262.248 210.709 262.287 210.683 262.318L208.643 263.54L208.557 263.613Z" fill="#263238"/>
<path d="M207.054 267.267V264.811" stroke="#263238" stroke-width="1.08916" stroke-miterlimit="10"/>
<path d="M192.342 199.704L196.545 209.602L213.922 208.698L215.132 197.309L192.342 199.704Z" fill="white" stroke="#263238" stroke-width="1.08916" stroke-linecap="round" stroke-linejoin="round"/>
<path d="M198.488 209.895L211.832 210.653L211.074 208.698L198.488 209.895Z" fill="#263238" stroke="#263238" stroke-width="1.08916" stroke-linecap="round" stroke-linejoin="round"/>
<circle opacity="0.9" cx="202.674" cy="268.723" r="6.64403" fill="url(#paint0_linear_119_2579)"/>
<circle opacity="0.9" cx="206.66" cy="272.377" r="6.64403" fill="url(#paint1_linear_119_2579)"/>
<defs>
<linearGradient id="paint0_linear_119_2579" x1="196.409" y1="270.451" x2="209.317" y2="270.403" gradientUnits="userSpaceOnUse">
<stop stop-color="#2CD59F"/>
<stop offset="0.15625" stop-color="#1DCF96"/>
<stop offset="0.432292" stop-color="#53A9DA"/>
<stop offset="0.838542" stop-color="#5D5FEF"/>
<stop offset="0.958333" stop-color="#7879F1"/>
</linearGradient>
<linearGradient id="paint1_linear_119_2579" x1="200.396" y1="274.105" x2="213.303" y2="274.057" gradientUnits="userSpaceOnUse">
<stop stop-color="#2CD59F"/>
<stop offset="0.15625" stop-color="#1DCF96"/>
<stop offset="0.432292" stop-color="#53A9DA"/>
<stop offset="0.838542" stop-color="#5D5FEF"/>
<stop offset="0.958333" stop-color="#7879F1"/>
</linearGradient>
</defs>
</svg>
