<svg width="506" height="381" viewBox="0 0 506 381" fill="none" xmlns="http://www.w3.org/2000/svg">
<path d="M392.223 204.03V203.955C381.934 200.538 366.148 201.698 363.803 203.097C361.31 204.766 359.168 206.908 357.499 209.401C351.957 217.264 347.984 226.121 345.798 235.489L233.897 245.891C229.774 236.989 223.558 229.008 217.317 224.191C215.534 222.698 213.479 221.564 211.265 220.85C210.29 220.733 209.304 220.767 208.34 220.951C204.28 209.187 198.53 197.839 191.343 197.121C176.213 195.608 149.811 200.676 142.611 215.353C135.412 230.029 133.155 266.669 133.155 266.669L128.111 271.713C124.433 264.547 119.317 258.216 113.082 253.115C111.305 251.614 109.248 250.478 107.03 249.774C105.769 249.421 100.726 250.203 95.4427 251.93C95.2283 251.728 95.0266 251.527 94.7996 251.337C89.7562 247.114 79.4172 244.806 73.6425 255.574C67.8678 266.342 74.8025 286.73 78.2572 291.344C79.935 293.702 82.039 295.725 84.4606 297.308C88.5332 307.395 95.8083 320.256 107.005 320.848C110.84 321.055 114.674 320.434 118.249 319.029C121.823 317.624 125.053 315.466 127.721 312.703C134.983 305.138 135.765 294.509 133.029 284.107L134.201 282.392C134.201 282.392 136.811 286.112 146.81 284.611C149.708 284.313 152.456 283.173 154.715 281.333C159.406 293.299 166.984 305.29 179.025 307.08C184.193 307.871 189.47 307.539 194.498 306.107C199.526 304.676 204.187 302.178 208.163 298.783C210.474 296.788 212.491 294.474 214.152 291.912C220.894 291.54 227.246 288.63 231.93 283.767C236.122 279.297 238.519 273.439 238.663 267.313L253.554 265.573C262.902 269.742 273.1 271.651 283.323 271.146C293.112 270.517 302.378 266.505 309.536 259.798L343.466 256.898C344.033 270.049 348.761 282.115 359.857 288.76C364.105 291.295 368.852 292.88 373.771 293.404C378.69 293.929 383.665 293.381 388.352 291.798C403.999 286.553 407.706 263.303 408.715 249.169C410.278 226.473 403.041 207.245 392.223 204.03Z" fill="#263238" stroke="#263238" stroke-width="0.305631" stroke-linecap="round" stroke-linejoin="round"/>
<path d="M185.064 299.78C183.763 301.443 182.104 302.792 180.21 303.726" stroke="white" stroke-width="0.203754" stroke-linecap="round" stroke-linejoin="round"/>
<path d="M191.179 269.897C191.179 269.897 192.68 286.288 187.094 296.69" stroke="white" stroke-width="0.203754" stroke-linecap="round" stroke-linejoin="round"/>
<path d="M195.605 288.003C194.18 294.307 191.343 300.423 185.846 303.133" stroke="white" stroke-width="0.203754" stroke-linecap="round" stroke-linejoin="round"/>
<path d="M202.451 268.649C202.451 268.649 204.973 295.896 191.495 302.478" stroke="white" stroke-width="0.203754" stroke-linecap="round" stroke-linejoin="round"/>
<path d="M208.1 268.019C208.1 268.019 210.622 295.278 197.131 301.847" stroke="white" stroke-width="0.203754" stroke-linecap="round" stroke-linejoin="round"/>
<path d="M378.202 287.121C376.753 288.951 374.952 290.472 372.906 291.597" stroke="white" stroke-width="0.203754" stroke-linecap="round" stroke-linejoin="round"/>
<path d="M388.339 253.09C388.339 253.09 387.532 271.738 380.61 283.603" stroke="white" stroke-width="0.203754" stroke-linecap="round" stroke-linejoin="round"/>
<path d="M390.142 273.743C387.873 280.917 384.242 287.877 378.505 290.903" stroke="white" stroke-width="0.203754" stroke-linecap="round" stroke-linejoin="round"/>
<path d="M399.536 251.703C399.536 251.703 398.187 282.771 384.103 290.21" stroke="white" stroke-width="0.203754" stroke-linecap="round" stroke-linejoin="round"/>
<path d="M405.159 251.022C405.159 251.022 403.81 282.077 389.726 289.529" stroke="white" stroke-width="0.203754" stroke-linecap="round" stroke-linejoin="round"/>
<path d="M110.56 316.637C109.487 318.281 108.072 319.675 106.412 320.722" stroke="white" stroke-width="0.203754" stroke-linecap="round" stroke-linejoin="round"/>
<path d="M112.552 290.122C112.552 290.122 116.108 303.991 112.099 313.687" stroke="white" stroke-width="0.203754" stroke-linecap="round" stroke-linejoin="round"/>
<path d="M119.147 305.012C118.579 310.623 116.625 316.271 111.746 319.373" stroke="white" stroke-width="0.203754" stroke-linecap="round" stroke-linejoin="round"/>
<path d="M123.194 287.423C123.194 287.423 129.12 310.434 117.066 318.011" stroke="white" stroke-width="0.203754" stroke-linecap="round" stroke-linejoin="round"/>
<path d="M128.515 286.062C128.515 286.062 134.454 309.072 122.387 316.662" stroke="white" stroke-width="0.203754" stroke-linecap="round" stroke-linejoin="round"/>
<path d="M171.977 260.554C174.977 277.715 173.099 292.391 167.803 293.337C162.508 294.282 155.762 281.094 152.761 263.933C149.76 246.773 151.639 232.097 156.947 231.151C162.255 230.206 168.976 243.381 171.977 260.554Z" fill="#03D39B" stroke="#263238" stroke-width="0.407508" stroke-linecap="round" stroke-linejoin="round"/>
<path d="M169.304 260.92C170.136 267.502 169.367 273.012 167.564 273.239C165.761 273.465 163.642 268.321 162.81 261.739C161.978 255.158 162.81 249.635 164.55 249.408C166.29 249.181 168.471 254.338 169.304 260.92Z" fill="#03D39B" stroke="#263238" stroke-width="0.407508" stroke-linecap="round" stroke-linejoin="round"/>
<path d="M156.657 245.184C156.836 242.975 157.186 240.783 157.704 238.628" stroke="#263238" stroke-width="0.305631" stroke-linecap="round" stroke-linejoin="round"/>
<path d="M165.017 287.146C161.528 280.16 159.032 272.72 157.603 265.043C156.653 259.613 156.269 254.098 156.455 248.589" stroke="#263238" stroke-width="0.305631" stroke-linecap="round" stroke-linejoin="round"/>
<path d="M97.7728 311.554C101.584 310.497 101.902 299.637 98.4818 287.296C95.0617 274.955 89.1993 265.807 85.3877 266.864C81.5761 267.92 81.2587 278.781 84.6787 291.121C88.0988 303.462 93.9612 312.61 97.7728 311.554Z" fill="#03D39B" stroke="#263238" stroke-width="0.407508" stroke-linecap="round" stroke-linejoin="round"/>
<path d="M97.233 287.789C98.4309 292.479 98.3678 296.539 97.0817 296.867C95.7957 297.195 93.8035 293.652 92.6057 288.974C91.4079 284.296 91.4709 280.211 92.757 279.896C94.0431 279.581 96.0352 283.098 97.233 287.789Z" stroke="#263238" stroke-width="0.305631" stroke-linecap="round" stroke-linejoin="round"/>
<path d="M86.6671 277.538C86.5968 275.922 86.6516 274.304 86.831 272.696" stroke="#263238" stroke-width="0.305631" stroke-linecap="round" stroke-linejoin="round"/>
<path d="M96.4892 307.156C93.3363 302.413 90.8621 297.252 89.1384 291.824C87.9602 287.98 87.1827 284.025 86.8184 280.022" stroke="#263238" stroke-width="0.305631" stroke-linecap="round" stroke-linejoin="round"/>
<path d="M368.052 76.6838C354.763 49.2602 349.026 46.8772 340.187 46.4233C331.349 45.9694 310.482 43.372 287.231 47.0915C287.231 47.0915 222.373 45.9568 172.191 76.356C119.802 108.092 94.3079 135.969 90.7397 150.419C87.1715 164.868 74.9916 202.517 69.2169 224.103C63.4422 245.689 59.5083 264.703 66.8717 282.178C71.3225 292.744 76.0633 295.921 82.1533 295.871C81.2215 294.199 80.4002 292.468 79.6946 290.689C73.6425 275.697 74.3738 254.25 81.2833 252.863C88.1928 251.476 92.3158 265.837 96.4892 281.497C97.3176 284.949 98.4397 288.323 99.8431 291.584C110.169 287.688 126.712 278.975 148.701 269.923C146.614 256.169 146.567 242.182 148.563 228.415C151.816 206.892 165.571 202.139 171.561 215.239C176.516 226.032 178.357 250.19 178.848 258.335C187.674 255.297 195.063 253.292 199.615 253.014C199.615 253.014 274.862 236.018 330.327 234.656C385.792 233.295 413.544 231.971 413.544 231.971C413.544 231.971 381.342 104.057 368.052 76.6838Z" fill="white"/>
<path d="M190.725 208.998C190.725 208.998 183.097 219.438 173.817 221.67C177.096 233.698 178.445 251.501 178.861 258.234C186.741 255.524 193.436 253.62 198.026 253.065C198.694 249.131 199.098 246.622 199.098 246.622L190.725 208.998Z" fill="#03D39B"/>
<path opacity="0.2" d="M96.817 282.632C100.322 282.985 102.655 284.498 109.779 282.72C122.387 279.581 113.322 255.246 134.239 245.311C138.3 243.263 142.718 242.021 147.251 241.654C147.439 237.201 147.86 232.761 148.512 228.352C149.067 224.021 150.346 219.815 152.295 215.908C146.583 214.155 145.549 212.478 135.815 217.105C114.885 227.041 118.025 252.674 105.479 255.814C95.4679 258.335 94.9131 254.313 87.3101 256.179C90.8657 261.223 93.6144 271.045 96.3883 281.396C96.6026 281.863 96.7035 282.203 96.817 282.632Z" fill="#03D39B"/>
<g style="mix-blend-mode:multiply">
<g style="mix-blend-mode:multiply" opacity="0.2">
<path d="M76.2272 261.084C70.3642 265.119 66.8717 271.171 64.8795 276.277C65.4199 278.292 66.0852 280.271 66.8717 282.203C71.3225 292.769 76.0633 295.947 82.1532 295.896C81.2215 294.224 80.4002 292.493 79.6946 290.714C75.849 281.169 74.8151 269.027 76.2272 261.084Z" fill="#03D39B"/>
</g>
</g>
<g style="mix-blend-mode:multiply" opacity="0.2">
<path d="M340.187 46.4234L337.905 46.2847C245.951 69.8122 208.541 180.641 195.668 234.051C196.362 239.359 197.118 244.567 197.938 249.635C199.501 249.333 198.417 253.014 199.614 252.951C199.614 252.951 274.862 235.955 330.327 234.593C385.792 233.232 413.544 231.908 413.544 231.908C413.544 231.908 381.342 104.057 368.052 76.6839C354.763 49.3107 349.026 46.8268 340.187 46.4234Z" fill="#03D39B"/>
</g>
<path d="M368.052 76.6838C354.763 49.2602 349.026 46.8772 340.187 46.4233C331.349 45.9694 310.482 43.372 287.231 47.0915C287.231 47.0915 222.373 45.9568 172.191 76.356C119.802 108.092 94.3079 135.969 90.7397 150.419C87.1715 164.868 74.9916 202.517 69.2169 224.103C63.4422 245.689 59.5083 264.703 66.8717 282.178C71.3225 292.744 76.0633 295.921 82.1533 295.871C81.2215 294.199 80.4002 292.468 79.6946 290.689C73.6425 275.697 74.3738 254.25 81.2833 252.863C88.1928 251.476 92.3158 265.837 96.4892 281.497C97.3176 284.949 98.4397 288.323 99.8431 291.584C110.169 287.688 126.712 278.975 148.701 269.923C146.614 256.169 146.567 242.182 148.563 228.415C151.816 206.892 165.571 202.139 171.56 215.239C176.516 226.032 178.357 250.19 178.848 258.335C187.674 255.297 195.063 253.292 199.615 253.014C199.615 253.014 274.862 236.018 330.327 234.656C385.792 233.295 413.544 231.971 413.544 231.971C413.544 231.971 381.342 104.057 368.052 76.6838Z" stroke="#263238" stroke-width="0.407508" stroke-linecap="round" stroke-linejoin="round"/>
<path opacity="0.2" d="M92.8075 215.075C93.673 215.795 94.7265 216.253 95.8436 216.394C96.9607 216.534 98.0947 216.353 99.1118 215.87C103.083 214.281 103.487 208.305 103.487 208.305L109.438 207.914L110.636 189.24L97.5231 194.397C97.5231 194.397 94.0053 212.692 92.8075 215.075Z" fill="#03D39B"/>
<path d="M75.6094 269.683C71.8444 271.684 68.2844 274.049 64.9804 276.744C65.5032 278.591 66.1347 280.406 66.8717 282.178C71.3225 292.744 76.0633 295.921 82.1533 295.871C81.2215 294.199 80.4002 292.468 79.6946 290.689C77.1098 283.981 75.7269 276.871 75.6094 269.683Z" fill="#263238" stroke="#263238" stroke-width="0.305631" stroke-linecap="round" stroke-linejoin="round"/>
<path d="M95.6949 259.268C95.3537 259.267 95.0192 259.173 94.7264 258.998C94.4336 258.823 94.1932 258.572 94.0305 258.272C93.801 257.837 93.7517 257.328 93.8932 256.857C94.0347 256.385 94.3557 255.988 94.7871 255.751C95.0897 255.587 119.626 240.381 139.951 229.575C140.17 229.459 140.411 229.386 140.658 229.362C140.905 229.338 141.155 229.363 141.393 229.436C141.63 229.509 141.851 229.627 142.043 229.785C142.235 229.943 142.394 230.138 142.51 230.357C142.627 230.576 142.7 230.817 142.723 231.064C142.747 231.311 142.722 231.561 142.65 231.799C142.577 232.036 142.458 232.257 142.3 232.449C142.142 232.641 141.948 232.8 141.729 232.917C121.416 243.709 96.8927 258.903 96.5901 259.067C96.3141 259.21 96.0057 259.28 95.6949 259.268Z" fill="#263238" stroke="#263238" stroke-width="0.407508" stroke-miterlimit="10"/>
<path d="M214.278 92.659L217.859 146.876C217.952 148.441 218.363 149.97 219.066 151.371C219.77 152.772 220.752 154.015 221.952 155.024C223.152 156.033 224.545 156.787 226.046 157.239C227.547 157.692 229.124 157.834 230.682 157.656L351.119 142.021C352.778 141.83 354.376 141.281 355.802 140.412C357.229 139.542 358.449 138.374 359.379 136.987C360.31 135.6 360.928 134.027 361.191 132.377C361.454 130.728 361.356 129.041 360.903 127.433L345.697 73.6705C344.978 71.1156 343.397 68.8879 341.224 67.3645C339.05 65.8411 336.417 65.1157 333.769 65.311C314.251 66.7484 267.436 70.947 223.243 80.7943C220.589 81.3971 218.234 82.9185 216.594 85.0896C214.954 87.2607 214.133 89.9417 214.278 92.659Z" fill="#BAF3E4" stroke="#263238" stroke-width="0.407508" stroke-linecap="round" stroke-linejoin="round"/>
<path d="M303.799 109.466L358.785 135.515" stroke="#263238" stroke-width="0.407508" stroke-linecap="round" stroke-linejoin="round"/>
<path d="M222.423 155.273L268.861 113.715" stroke="#263238" stroke-width="0.407508" stroke-linecap="round" stroke-linejoin="round"/>
<path d="M214.682 91.2343L281.318 118.633C283.82 119.655 286.565 119.928 289.219 119.42C291.874 118.912 294.324 117.644 296.272 115.771L343.768 70.9219" stroke="#263238" stroke-width="0.407508" stroke-linecap="round" stroke-linejoin="round"/>
<path d="M347.761 149.695C359.08 149.417 368.034 140.173 367.76 129.048C367.486 117.924 358.088 109.132 346.769 109.411C335.45 109.689 326.496 118.933 326.77 130.057C327.044 141.182 336.442 149.974 347.761 149.695Z" fill="#263238" stroke="#263238" stroke-width="0.305631" stroke-linecap="round" stroke-linejoin="round"/>
<path d="M345.054 139.172H344.991C344.593 139.173 344.201 139.08 343.846 138.9C343.491 138.72 343.183 138.459 342.948 138.138L334.892 127.017C334.499 126.475 334.337 125.8 334.442 125.139C334.548 124.478 334.911 123.886 335.453 123.493C335.994 123.1 336.67 122.938 337.331 123.044C337.992 123.149 338.584 123.512 338.977 124.054L344.991 132.35L359.365 112.492C359.758 111.95 360.35 111.587 361.011 111.482C361.672 111.376 362.347 111.538 362.889 111.931C363.431 112.324 363.794 112.916 363.899 113.577C364.005 114.238 363.843 114.913 363.45 115.455L347.059 138.15C346.827 138.464 346.525 138.72 346.177 138.897C345.829 139.074 345.444 139.168 345.054 139.172Z" fill="white" stroke="#263238" stroke-width="0.407508" stroke-linecap="round" stroke-linejoin="round"/>
<path d="M268.898 193.515C268.898 193.515 311.768 185.294 341.146 185.874L342.911 192.935C342.911 192.935 281.23 195.86 269.479 201.761L268.898 193.515Z" fill="#263238" stroke="#263238" stroke-width="0.305631" stroke-linecap="round" stroke-linejoin="round"/>
<path d="M269.479 201.736L270.739 208.796C270.87 209.583 271.303 210.288 271.946 210.759C272.59 211.23 273.392 211.431 274.181 211.318C284.937 209.78 322.687 204.598 342.268 205.077C342.75 205.092 343.229 204.992 343.666 204.787C344.102 204.581 344.484 204.276 344.781 203.895C345.077 203.514 345.279 203.068 345.37 202.594C345.461 202.121 345.44 201.632 345.306 201.168L342.961 192.96" stroke="#263238" stroke-width="0.407508" stroke-linecap="round" stroke-linejoin="round"/>
<path d="M113.044 189.266L112.805 160.14L114.255 130.194C114.265 129.908 114.19 129.625 114.037 129.382C113.885 129.14 113.662 128.949 113.399 128.834C113.137 128.72 112.845 128.687 112.564 128.741C112.282 128.795 112.023 128.932 111.821 129.135C106.4 134.683 97.1196 143.08 94.3709 149.965C90.8027 158.879 86.5789 202.757 86.5789 202.757L113.044 189.266Z" fill="#263238" stroke="#263238" stroke-width="0.305631" stroke-linecap="round" stroke-linejoin="round"/>
<path d="M79.4676 183.415H75.2438C73.092 183.415 71.3477 185.16 71.3477 187.311V209.074C71.3477 211.225 73.092 212.97 75.2438 212.97H79.4676C81.6194 212.97 83.3637 211.225 83.3637 209.074V187.311C83.3637 185.16 81.6194 183.415 79.4676 183.415Z" fill="#263238" stroke="#263238" stroke-width="0.305631" stroke-linecap="round" stroke-linejoin="round"/>
<path d="M82.1281 163.09C84.1275 163.474 86.0803 164.07 87.9532 164.868C89.5062 165.632 90.9175 166.656 92.1266 167.894L98.4309 159.56C98.4309 159.56 89.1888 155.689 87.4363 153.331L85.6963 150.961L82.1281 163.09Z" fill="white"/>
<g style="mix-blend-mode:multiply" opacity="0.5">
<path d="M87.4236 153.331L85.7971 151.074L85.608 151.2L82.1281 163.052C82.1281 163.052 82.7963 163.178 83.7419 163.405L92.7571 156.874C90.7868 156.012 88.982 154.813 87.4236 153.331Z" fill="#03D39B"/>
</g>
<path d="M82.1281 163.09C84.1275 163.474 86.0803 164.07 87.9532 164.868C89.5062 165.632 90.9175 166.656 92.1266 167.894L98.4309 159.56C98.4309 159.56 89.1888 155.689 87.4362 153.331L85.6963 150.961L82.1281 163.09Z" stroke="#263238" stroke-width="0.305631" stroke-linecap="round" stroke-linejoin="round"/>
<path d="M95.4427 156.017L87.7389 165.839L88.7854 169.18L100.524 156.988L95.4427 156.017Z" fill="#03D39B" stroke="#263238" stroke-width="0.407508" stroke-linecap="round" stroke-linejoin="round"/>
<path d="M83.1115 128.265C77.9042 124.231 64.3374 126.803 61.677 136.36C60.0379 142.248 60.9457 151.074 60.9457 151.074L76.4038 147.796L77.6646 149.7C80.1863 153.482 85.6458 150.961 87.058 149.7C87.8271 149.032 87.7767 147.065 87.5749 145.438L88.1928 145.299C88.1928 145.299 88.3062 132.313 83.1115 128.265Z" fill="#263238" stroke="#263238" stroke-width="0.305631" stroke-linecap="round" stroke-linejoin="round"/>
<path d="M77.3368 146.636C70.552 145.88 63.6842 146.533 57.1631 148.553C47.0763 151.932 45.5254 154.857 52.7501 154.68C59.9748 154.504 77.3368 146.636 77.3368 146.636Z" fill="#263238" stroke="#263238" stroke-width="0.305631" stroke-linecap="round" stroke-linejoin="round"/>
<path d="M64.8796 142.967C66.0564 142.967 67.0104 141.663 67.0104 140.054C67.0104 138.446 66.0564 137.142 64.8796 137.142C63.7027 137.142 62.7487 138.446 62.7487 140.054C62.7487 141.663 63.7027 142.967 64.8796 142.967Z" fill="#03D39B"/>
<path d="M112.805 160.14C112.805 160.14 98.9983 156.635 94.7492 159.862C90.5001 163.09 89.4158 168.424 90.7775 174.892C92.1392 181.36 95.4553 198.369 95.4553 198.369L113.044 189.266L112.805 160.14Z" fill="#263238" stroke="#263238" stroke-width="0.305631" stroke-linecap="round" stroke-linejoin="round"/>
<path d="M90.891 195.658C90.891 195.658 90.1471 202.189 89.2771 203.11C88.4071 204.03 65.4596 184.752 64.06 182.936C62.6605 181.12 63.6187 174.64 64.06 172.61C64.5013 170.58 63.7574 169.47 61.5383 170.87C59.3192 172.269 59.9118 178.094 59.9118 178.094C59.9118 178.094 53.141 176.468 51.7919 176.279C50.4428 176.09 49.2702 177.767 49.4719 179.103C49.6737 180.44 51.4515 180.553 51.4515 180.553C50.9966 182.488 51.1238 184.515 51.8171 186.378C53.0023 188.824 54.3388 190.363 56.8605 190.968C59.4623 191.374 62.0965 191.534 64.7283 191.447C64.7283 191.447 76.4542 202.618 79.8585 206.791C83.2628 210.965 90.4371 216.639 94.0053 215.617C97.5735 214.596 100.978 196.78 100.978 196.78L90.891 195.658Z" fill="white"/>
<g style="mix-blend-mode:multiply" opacity="0.5">
<path d="M89.2771 203.11L95.9849 205.341C96.1976 206.748 95.9003 208.185 95.1465 209.392C94.3927 210.599 93.2322 211.497 91.8745 211.923C88.9115 212.907 83.5907 209.54 79.8081 206.703L79.9216 206.842C83.3889 211.028 90.5002 216.689 94.0684 215.668C97.6366 214.647 101.041 196.831 101.041 196.831L90.891 195.57C90.891 195.57 90.1471 202.189 89.2771 203.11Z" fill="#03D39B"/>
</g>
<path d="M90.891 195.658C90.891 195.658 90.1471 202.189 89.2771 203.11C88.4071 204.03 65.4596 184.752 64.06 182.936C62.6605 181.12 63.6187 174.64 64.06 172.61C64.5013 170.58 63.7574 169.47 61.5383 170.87C59.3192 172.269 59.9118 178.094 59.9118 178.094C59.9118 178.094 53.141 176.468 51.7919 176.279C50.4428 176.09 49.2702 177.767 49.4719 179.103C49.6737 180.44 51.4515 180.553 51.4515 180.553C50.9966 182.488 51.1238 184.515 51.8171 186.378C53.0023 188.824 54.3388 190.363 56.8605 190.968C59.4623 191.374 62.0965 191.534 64.7283 191.447C64.7283 191.447 76.4542 202.618 79.8585 206.791C83.2628 210.965 90.4371 216.639 94.0053 215.617C97.5735 214.596 100.978 196.78 100.978 196.78L90.891 195.658Z" stroke="#263238" stroke-width="0.305631" stroke-linecap="round" stroke-linejoin="round"/>
<path d="M67.9561 186.479L64.7283 191.497L66.38 192.62L69.6834 187.891L67.9561 186.479Z" fill="#263238" stroke="#263238" stroke-width="0.407508" stroke-miterlimit="10"/>
<path d="M66.8465 191.207C67.5428 191.207 68.1073 190.643 68.1073 189.946C68.1073 189.25 67.5428 188.686 66.8465 188.686C66.1501 188.686 65.5856 189.25 65.5856 189.946C65.5856 190.643 66.1501 191.207 66.8465 191.207Z" fill="white" stroke="#263238" stroke-width="0.305631" stroke-linecap="round" stroke-linejoin="round"/>
<path d="M63.7574 152.688C63.7574 152.688 64.5265 154.592 65.8126 157.933C67.0986 161.275 74.0081 168.323 77.3872 168.726C80.7663 169.13 84.8137 156.849 85.4567 154.315C85.671 153.482 85.8854 152.146 85.8854 152.146C85.8854 152.146 90.1345 150.141 89.151 147.72C88.1675 145.299 86.1754 144.19 85.2297 144.934C84.2841 145.678 84.1202 148.817 82.708 148.842C81.2959 148.868 80.5268 148.426 79.2785 146.762C78.0303 145.098 65.0939 148.552 63.7574 152.688Z" fill="white"/>
<path opacity="0.5" d="M79.2533 146.762C77.9924 145.11 65.0939 148.565 63.7574 152.688L64.4887 154.554C69.4192 151.58 74.7773 149.382 80.3755 148.035C79.9572 147.652 79.581 147.225 79.2533 146.762Z" fill="#03D39B"/>
<g style="mix-blend-mode:multiply">
<g style="mix-blend-mode:multiply" opacity="0.5">
<path d="M88.9871 147.379C87.9532 145.211 86.1249 144.227 85.2045 144.933C84.6276 145.686 84.1997 146.542 83.9437 147.455C85.6184 147.268 87.3074 147.242 88.9871 147.379Z" fill="#03D39B"/>
</g>
</g>
<path d="M63.7574 152.688C63.7574 152.688 64.5265 154.592 65.8126 157.933C67.0986 161.275 74.0081 168.323 77.3872 168.726C80.7663 169.13 84.8137 156.849 85.4567 154.315C85.671 153.482 85.8854 152.146 85.8854 152.146C85.8854 152.146 90.1345 150.141 89.151 147.72C88.1675 145.299 86.1754 144.19 85.2297 144.934C84.2841 145.678 84.1202 148.817 82.708 148.842C81.2959 148.868 80.5268 148.426 79.2785 146.762C78.0303 145.098 65.0939 148.552 63.7574 152.688Z" stroke="#263238" stroke-width="0.305631" stroke-linecap="round" stroke-linejoin="round"/>
<path d="M68.3343 153.596C68.5613 154.365 68.4856 155.071 68.183 155.159C67.8804 155.248 67.4391 154.693 67.2122 153.898C66.9852 153.104 67.0609 152.423 67.3635 152.335C67.6661 152.247 68.1074 152.852 68.3343 153.596Z" fill="#263238" stroke="#263238" stroke-width="0.407508" stroke-miterlimit="10"/>
<path d="M65.9891 151.453C67.7543 150.948 68.5108 152.272 68.7251 153.495L69.053 154.945L70.1499 160.556L71.8142 159.85" stroke="#263238" stroke-width="0.203754" stroke-linecap="round" stroke-linejoin="round"/>
<path d="M73.176 151.881C73.5594 151.46 74.0367 151.136 74.5691 150.935C75.1015 150.733 75.6739 150.66 76.2398 150.721" stroke="#263238" stroke-width="0.203754" stroke-linecap="round" stroke-linejoin="round"/>
<path d="M74.6386 148.389C73.9213 148.539 73.2629 148.894 72.7436 149.411C72.2243 149.928 71.8664 150.585 71.7134 151.301" stroke="#263238" stroke-width="0.203754" stroke-linecap="round" stroke-linejoin="round"/>
<path d="M73.3147 161.665C73.3147 161.665 76.9712 160.934 77.2612 158.312" stroke="#263238" stroke-width="0.203754" stroke-linecap="round" stroke-linejoin="round"/>
<path d="M104.357 205.115L85.898 199.97C85.898 199.97 87.5245 168.449 90.374 163.116C94.8122 154.832 104.987 158.564 106.904 168.979C108.694 178.813 104.357 205.115 104.357 205.115Z" fill="#03D39B" stroke="#263238" stroke-width="0.407508" stroke-linecap="round" stroke-linejoin="round"/>
<path d="M86.3393 196.465C86.3393 196.465 96.4261 198.785 102.566 200.802" stroke="#263238" stroke-width="0.203754" stroke-linecap="round" stroke-linejoin="round"/>
<path d="M102.314 157.605C102.314 157.605 108.316 158.072 112.237 161.3" stroke="#03D39B" stroke-width="0.203754" stroke-linecap="round" stroke-linejoin="round"/>
<path d="M208.075 238.237C208.075 238.237 181.193 247.719 178.735 250.304C176.276 252.888 176.528 262.975 182.328 267.88C188.128 272.785 229.472 261.664 259.026 258.424C288.58 255.183 353.464 250.417 379.942 249.131C406.42 247.845 418.461 251.338 420.781 243.079C423.101 234.82 422.811 225.994 417.768 224.204C412.724 222.414 320.833 207.699 208.075 238.237Z" fill="#263238" stroke="#263238" stroke-width="0.305631" stroke-linecap="round" stroke-linejoin="round"/>
<path d="M176.818 255.814C176.818 255.814 178.079 266.745 184.799 268.422C191.52 270.099 271.382 254.969 318.45 253.292C365.518 251.615 406.71 250.354 406.71 250.354" stroke="white" stroke-width="0.203754" stroke-linecap="round" stroke-linejoin="round"/>
<path d="M215.829 261.361C247.048 253.796 311.263 243.104 419.319 246.143" stroke="white" stroke-width="0.203754" stroke-linecap="round" stroke-linejoin="round"/>
<path d="M190.234 268.019C190.234 268.019 197.408 266.279 208.314 263.303" stroke="white" stroke-width="0.203754" stroke-linecap="round" stroke-linejoin="round"/>
<path d="M196.815 269.267C197.155 273.954 197.028 278.663 196.437 283.325" stroke="white" stroke-width="0.203754" stroke-linecap="round" stroke-linejoin="round"/>
<path d="M195.668 67.6433C195.668 67.6433 189.654 74.6915 189.187 81.0084" stroke="#263238" stroke-width="0.305631" stroke-linecap="round" stroke-linejoin="round"/>
<path d="M188.557 86.1025C188.557 86.1025 184.03 158.11 196.008 234.745" stroke="#263238" stroke-width="0.305631" stroke-linecap="round" stroke-linejoin="round"/>
<path d="M189.982 169.306C189.982 169.306 180.21 172.71 180.084 177.123C179.756 188.988 181.004 214.306 183.589 216.765C186.174 219.223 194.205 212.717 194.205 212.717C194.205 212.717 205.553 213.701 206.814 211.154C208.075 208.607 203.347 172.761 202.641 169.634C201.934 166.507 189.982 169.306 189.982 169.306Z" fill="#03D39B" stroke="#263238" stroke-width="0.407508" stroke-linecap="round" stroke-linejoin="round"/>
<path d="M394.089 186.378C396.632 187.621 399.396 188.349 402.221 188.522C399.094 176.77 395.551 163.683 391.895 150.62C388.591 150.393 384.33 150.393 384.418 151.881C384.481 154.428 390.899 184.537 394.089 186.378Z" fill="#03D39B" stroke="#263238" stroke-width="0.407508" stroke-linecap="round" stroke-linejoin="round"/>
<path d="M188.582 173.013C188.582 173.013 189.011 195.709 190.688 204.535" stroke="#263238" stroke-width="0.305631" stroke-linecap="round" stroke-linejoin="round"/>
<path d="M306.447 178.258C306.447 178.258 362.706 169.193 428.258 180.78" stroke="#263238" stroke-width="0.407508" stroke-linecap="round" stroke-linejoin="round"/>
<path d="M477.721 213.802C481.592 214.962 485.4 216.185 489.069 217.496" stroke="#263238" stroke-width="0.407508" stroke-linecap="round" stroke-linejoin="round"/>
<path d="M376.714 196.679C376.714 196.679 421.323 199.39 464.041 210.07" stroke="#263238" stroke-width="0.407508" stroke-linecap="round" stroke-linejoin="round"/>
<path d="M240.945 300.561C277.676 294.948 314.993 294.282 351.901 298.582" stroke="#263238" stroke-width="0.407508" stroke-linecap="round" stroke-linejoin="round"/>
<path d="M236.331 294.623C236.331 294.623 262.733 291.319 271.319 290.664" stroke="#263238" stroke-width="0.407508" stroke-linecap="round" stroke-linejoin="round"/>
<path d="M413.153 49.7393C416.936 50.2814 420.718 51.0001 424.148 51.8197" stroke="#263238" stroke-width="0.407508" stroke-linecap="round" stroke-linejoin="round"/>
<path d="M358.797 48.491C374.333 47.3936 389.93 47.499 405.449 48.8062" stroke="#263238" stroke-width="0.407508" stroke-linecap="round" stroke-linejoin="round"/>
<path d="M155.371 201.231C155.371 201.231 193.045 183.39 247.552 178.435" stroke="#263238" stroke-width="0.407508" stroke-linecap="round" stroke-linejoin="round"/>
<path d="M218.817 168.512C218.817 168.512 241.626 162.573 276.325 160.581" stroke="#263238" stroke-width="0.407508" stroke-linecap="round" stroke-linejoin="round"/>
<path d="M154.753 294.484C159.332 302.685 166.721 308.954 175.557 312.136" stroke="#263238" stroke-width="0.407508" stroke-linecap="round" stroke-linejoin="round"/>
<path d="M153.492 300.158C153.492 300.158 159.166 308.984 166.731 312.766" stroke="#263238" stroke-width="0.407508" stroke-linecap="round" stroke-linejoin="round"/>
<path d="M339.469 268.636C339.469 268.636 343.251 286.288 358.381 293.854" stroke="#263238" stroke-width="0.407508" stroke-linecap="round" stroke-linejoin="round"/>
<path d="M341.36 284.397C344.358 288.788 348.5 292.276 353.338 294.484" stroke="#263238" stroke-width="0.407508" stroke-linecap="round" stroke-linejoin="round"/>
<path d="M91.9123 318.39C91.9123 318.39 95.6949 324.694 108.934 324.694" stroke="#263238" stroke-width="0.407508" stroke-linecap="round" stroke-linejoin="round"/>
<path d="M89.3906 322.172C94.2138 326.183 100.159 328.606 106.412 329.107" stroke="#263238" stroke-width="0.407508" stroke-linecap="round" stroke-linejoin="round"/>
<path d="M259.833 306.613C226.347 308.435 193.107 313.408 160.553 321.466L161.335 322.638C161.335 322.638 189.074 316.75 240.34 329.359C291.607 341.967 294.986 352.054 351.295 352.054C407.605 352.054 462.251 338.614 462.251 338.614L455.417 334.831C404.857 313.434 335.56 302.377 259.833 306.613Z" fill="#03D39B"/>
<path opacity="0.5" d="M259.833 306.613C226.347 308.435 193.107 313.408 160.553 321.466L161.335 322.638C161.335 322.638 189.074 316.75 240.34 329.359C291.607 341.967 294.986 352.054 351.295 352.054C407.605 352.054 462.251 338.614 462.251 338.614L455.417 334.831C404.857 313.434 335.56 302.377 259.833 306.613Z" fill="white"/>
<path d="M136.471 335.461C136.471 335.461 202.666 325.374 260.035 363.83" stroke="#263238" stroke-width="0.407508" stroke-linecap="round" stroke-linejoin="round"/>
<path d="M205.818 349.961C205.818 349.961 232.926 358.156 249.317 375.808" stroke="#263238" stroke-width="0.407508" stroke-linecap="round" stroke-linejoin="round"/>
<path d="M365.947 317.809C365.947 317.809 404.403 321.592 439.076 342.396" stroke="#263238" stroke-width="0.407508" stroke-linecap="round" stroke-linejoin="round"/>
<path d="M485.854 350.39C492.779 354.628 499.371 359.386 505.574 364.625" stroke="#263238" stroke-width="0.407508" stroke-linecap="round" stroke-linejoin="round"/>
<path d="M34.7325 380.133C80.6907 341.047 163.731 312.047 259.833 306.613C347.551 301.632 426.669 317.343 477.961 345.699" stroke="#263238" stroke-width="0.407508" stroke-linecap="round" stroke-linejoin="round"/>
<path d="M314.882 317.179C314.882 317.179 354.599 319.07 381.077 327.896" stroke="#263238" stroke-width="0.407508" stroke-linecap="round" stroke-linejoin="round"/>
</svg>
