<svg width="1292" height="1311" viewBox="0 0 1292 1311" fill="none" xmlns="http://www.w3.org/2000/svg">
<g clip-path="url(#clip0_379_161)">
<path d="M0.547852 1238.98H1290.65" stroke="#263238" stroke-width="3" stroke-linecap="round" stroke-linejoin="round"/>
<path d="M1141.59 989.961H792.463V1238.98H1141.59V989.961Z" fill="#999999"/>
<path opacity="0.3" d="M792.463 1239.01H973.392V1096.79L1141.62 1089.51V1080.46H792.463V1239.01Z" fill="black" fill-opacity="0.7"/>
<path d="M1141.59 989.961H792.463V1238.98H1141.59V989.961Z" stroke="#263238" stroke-width="3" stroke-linecap="round" stroke-linejoin="round"/>
<path d="M1149.91 986.409H784.181V1079.66H1149.91V986.409Z" fill="#999999"/>
<path opacity="0.3" d="M978.066 986.409H784.181V1079.66H978.066V986.409Z" fill="black" fill-opacity="0.7"/>
<path d="M1149.91 986.409H784.181V1079.66H1149.91V986.409Z" stroke="#263238" stroke-width="3" stroke-linecap="round" stroke-linejoin="round"/>
<path d="M978.066 1055.42V1068.41" stroke="#263238" stroke-width="3" stroke-linecap="round" stroke-linejoin="round"/>
<path d="M978.066 1029.61V1044.03" stroke="#263238" stroke-width="3" stroke-linecap="round" stroke-linejoin="round"/>
<path d="M978.066 986.409V1019.32" stroke="#263238" stroke-width="3" stroke-linecap="round" stroke-linejoin="round"/>
<path d="M973.392 1222.94V1228.33" stroke="#263238" stroke-width="3" stroke-linecap="round" stroke-linejoin="round"/>
<path d="M973.392 1143.34V1211.25" stroke="#263238" stroke-width="3" stroke-linecap="round" stroke-linejoin="round"/>
<path d="M973.392 1080.42V1119.34" stroke="#263238" stroke-width="3" stroke-linecap="round" stroke-linejoin="round"/>
<path d="M1085.57 1059.83H1068.02V1106.29H1085.57V1059.83Z" fill="#BFBFBF" stroke="#263238" stroke-width="3" stroke-linecap="round" stroke-linejoin="round"/>
<path d="M829.099 674.358C810.455 682.114 727.745 691.141 727.745 691.141C740.816 662.501 756.756 635.263 775.329 609.848L750.976 593.574C750.976 593.574 686.641 662.791 670.811 711.558C670.811 711.558 666.076 733.602 669.212 736.738C672.349 739.875 698.804 749.64 748.786 753.341C798.769 757.041 834.606 757.961 834.606 757.961" fill="white"/>
<path d="M829.099 674.358C810.455 682.114 727.745 691.141 727.745 691.141C740.816 662.501 756.756 635.263 775.329 609.848L750.976 593.574C750.976 593.574 686.641 662.791 670.811 711.558C670.811 711.558 666.076 733.602 669.212 736.738C672.349 739.875 698.804 749.64 748.786 753.341C798.769 757.041 834.606 757.961 834.606 757.961" stroke="#263238" stroke-width="3" stroke-linecap="round" stroke-linejoin="round"/>
<path d="M733.815 607.954C733.815 607.954 752.843 626.363 768.049 625.416L779.889 606.799C779.889 606.799 817.856 587.892 813.505 578.422C809.153 568.952 805.277 575.461 805.277 575.461L822.088 564.13C822.088 564.13 801.046 551.611 796.579 551.644C792.107 551.671 780.689 549.509 773.08 552.646C765.477 555.782 751.6 589.282 751.6 589.282L733.815 607.954Z" fill="#92E3A9" stroke="#263238" stroke-width="3" stroke-linecap="round" stroke-linejoin="round"/>
<path d="M775.833 600.794C775.833 600.794 784 597.597 786.666 591.915C789.326 586.233 786.666 575.521 786.666 575.521" fill="#92E3A9"/>
<path d="M775.833 600.794C775.833 600.794 784 597.597 786.666 591.915C789.326 586.233 786.666 575.521 786.666 575.521" stroke="#263238" stroke-width="3" stroke-linecap="round" stroke-linejoin="round"/>
<path d="M783.261 568.925C784.87 571.224 787.29 572.833 790.037 573.413C792.785 573.994 795.654 573.512 798.057 572.061" fill="#92E3A9"/>
<path d="M783.261 568.925C784.87 571.224 787.29 572.833 790.037 573.413C792.785 573.994 795.654 573.512 798.057 572.061" stroke="#263238" stroke-width="3" stroke-linecap="round" stroke-linejoin="round"/>
<path d="M789.42 564.069C794.877 567.545 800.132 571.328 805.163 575.406L789.42 564.069Z" fill="#92E3A9"/>
<path d="M789.42 564.069C794.877 567.545 800.132 571.328 805.163 575.406" stroke="#263238" stroke-width="3" stroke-linecap="round" stroke-linejoin="round"/>
<path d="M812.437 570.49L800.071 560.254L812.437 570.49Z" fill="#92E3A9"/>
<path d="M812.437 570.49L800.071 560.254" stroke="#263238" stroke-width="3" stroke-linecap="round" stroke-linejoin="round"/>
<path d="M727.684 691.141C727.136 703.008 723.737 714.569 717.771 724.843" stroke="#263238" stroke-width="3" stroke-linecap="round" stroke-linejoin="round"/>
<path d="M872.513 663.793C872.513 663.793 810.367 669.3 798.708 676.312C787.048 683.324 760.445 685.962 760.445 685.962C760.445 685.962 772.28 719.309 760.445 754.173L771.366 763.697C771.366 763.697 791.663 761.776 796.343 763.697C801.018 765.624 849.309 779.648 849.309 779.648" fill="#92E3A9"/>
<path opacity="0.2" d="M829.576 773.879C815.667 769.768 799.004 764.792 796.344 763.697C791.664 761.776 771.367 763.697 771.367 763.697L765.241 758.344C774.12 745.261 779.413 728.752 782.993 728.752C784.92 728.752 789.091 734.105 792.999 740.176C790.038 721.384 796.694 696.582 800.011 717.684C802.469 733.191 817.265 756.718 829.576 773.879Z" fill="black"/>
<path d="M872.513 663.793C872.513 663.793 810.367 669.3 798.708 676.312C787.048 683.324 760.445 685.962 760.445 685.962C760.445 685.962 772.28 719.309 760.445 754.173L771.366 763.697C771.366 763.697 791.663 761.776 796.343 763.697C801.018 765.624 849.309 779.648 849.309 779.648" stroke="#263238" stroke-width="3" stroke-linecap="round" stroke-linejoin="round"/>
<path d="M824.545 1146.21C824.545 1146.21 847.623 1213.32 846.616 1234.39C846.616 1234.39 809.037 1243.77 789.862 1241.44C770.687 1239.1 732.452 1242.18 712.149 1241.79C691.852 1241.4 689.515 1236.73 689.515 1236.73C689.515 1236.73 687.944 1228.15 701.349 1220.37C714.755 1212.58 768.465 1208.53 773.139 1169.59C777.814 1130.64 824.545 1146.21 824.545 1146.21Z" fill="#BFBFBF" stroke="#263238" stroke-width="3" stroke-linecap="round" stroke-linejoin="round"/>
<path d="M1098.12 893.341C1098.12 893.341 1118.51 948.535 1107.18 983.48C1095.84 1018.43 1014.73 1044.26 996.709 1044.26C978.689 1044.26 834.572 1008.22 834.572 1008.22L827.352 1016.12L805.156 1007.09L840.106 1168.2C840.106 1168.2 857.004 1177.22 840.106 1182.85C823.209 1188.47 758.994 1188.49 757.872 1182.85C757.259 1177.98 757.259 1173.06 757.872 1168.2L748.342 1150.17C748.342 1150.17 750.088 1118.63 748.342 1114.13C746.596 1109.63 674.51 959.718 704.813 923.672C735.111 887.632 914.918 916.896 914.918 916.896L937.849 893.227L1098.12 893.341Z" fill="#263238"/>
<path opacity="0.2" d="M809.596 1008.75L827.353 1015.97L834.573 1008.07C834.573 1008.07 978.69 1044.26 996.71 1044.26C1014.73 1044.26 1095.88 1018.37 1107.18 983.42C1108.04 980.721 1108.73 977.962 1109.22 975.165C1096.82 987.416 1072.79 1008.42 1047.55 1015.64C1047.55 1015.64 1054.92 1007.92 1035.33 1003.81C1015.74 999.699 955.634 904.409 955.634 904.409L929.299 902.34L914.919 917.016C914.919 917.016 887.188 912.489 851.679 909.205C839.554 943.159 825.503 976.397 809.596 1008.75Z" fill="black"/>
<path opacity="0.2" d="M748.343 1114.07C750.089 1118.57 748.343 1150.12 748.343 1150.12L757.873 1168.14C757.26 1173 757.26 1177.92 757.873 1182.78C758.995 1188.41 823.21 1188.41 840.108 1182.78C857.005 1177.16 840.108 1168.14 840.108 1168.14L806.755 1014.46C789.003 1049.35 767.398 1083.83 744.172 1104.84C746.569 1110.16 748.108 1113.45 748.343 1114.07Z" fill="black"/>
<path d="M805.162 1007.03C805.162 1007.03 815.371 988.598 809.689 975.312" stroke="white" stroke-width="3" stroke-linecap="round" stroke-linejoin="round"/>
<path d="M800.542 979.161C801.221 984.586 801.467 990.06 801.281 995.523" stroke="white" stroke-width="3" stroke-linecap="round" stroke-linejoin="round"/>
<path d="M795.895 957.911C797.175 961.841 798.221 965.843 799.031 969.899" stroke="white" stroke-width="3" stroke-linecap="round" stroke-linejoin="round"/>
<path d="M778.466 1032.75C778.466 1032.75 777.519 1086.43 748.343 1114.07" stroke="white" stroke-width="3" stroke-linecap="round" stroke-linejoin="round"/>
<path d="M788.883 1135.62C780.984 1147.45 771.306 1161.95 757.873 1168.16" stroke="white" stroke-width="3" stroke-linecap="round" stroke-linejoin="round"/>
<path d="M798.621 1119.48C797.11 1122.27 795.511 1124.99 793.886 1127.71" stroke="white" stroke-width="3" stroke-linecap="round" stroke-linejoin="round"/>
<path opacity="0.2" d="M1106.79 924.739C1104.62 914.087 1101.72 903.599 1098.12 893.341H1091.11L1058 912.576C1058 912.576 1051.99 926.989 1106.79 924.739Z" fill="black"/>
<path d="M1092.03 934.505C1092.03 934.505 1074.86 926.781 1058 930.065" stroke="white" stroke-width="3" stroke-linecap="round" stroke-linejoin="round"/>
<path d="M1098.12 893.341C1098.12 893.341 1118.51 948.535 1107.18 983.48C1095.84 1018.43 1014.73 1044.26 996.709 1044.26C978.689 1044.26 834.572 1008.22 834.572 1008.22L827.352 1016.12L805.156 1007.09L840.106 1168.2C840.106 1168.2 857.004 1177.22 840.106 1182.85C823.209 1188.47 758.994 1188.49 757.872 1182.85C757.259 1177.98 757.259 1173.06 757.872 1168.2L748.342 1150.17C748.342 1150.17 750.088 1118.63 748.342 1114.13C746.596 1109.63 674.51 959.718 704.813 923.672C735.111 887.632 914.918 916.896 914.918 916.896L937.849 893.227L1098.12 893.341Z" stroke="#263238" stroke-width="3" stroke-miterlimit="10"/>
<path d="M965.788 1181.39C965.788 1181.39 968.924 1200.8 965.788 1204.32C962.646 1207.85 956.345 1249.22 956.345 1249.22C956.345 1249.22 874.669 1261.92 850.349 1260.17C817.795 1257.83 810.192 1248.33 810.192 1248.33C810.192 1248.33 809.628 1235.84 840.255 1226.04C878.047 1213.97 907.162 1173.61 907.162 1173.61L965.788 1181.39Z" fill="#BFBFBF" stroke="#263238" stroke-width="3" stroke-linecap="round" stroke-linejoin="round"/>
<path d="M815.962 752.426C843.512 800.159 914.323 874.61 914.323 874.61C914.323 874.61 909.889 881.359 919.709 893.757C916.665 896.839 914.766 900.868 914.323 905.181C913.731 911.925 971.968 945.721 1027.19 936.727C1082.41 927.728 1106.05 911.925 1107.09 900.654C1108.13 889.378 1051.22 738.78 1012.92 692.591C982.44 670.904 945.995 659.173 908.586 659.003C864.373 658.763 829.899 673.356 814.243 695.044" fill="#92E3A9"/>
<path opacity="0.2" d="M1036.78 934.773C1033.82 935.364 1030.51 935.955 1027.19 936.486C971.969 945.365 913.732 911.69 914.323 904.94C914.799 900.687 916.699 896.713 919.709 893.669C919.353 893.193 919.003 892.75 918.707 892.306C945.661 887.101 970.343 872.628 959.012 873.131C943.471 873.843 933.947 871.533 950.899 861.445C967.858 851.351 963.599 791.307 963.599 791.307C963.599 791.307 997.981 764.677 1033.91 834.486C1067.82 900.386 1052.97 916.808 1036.78 934.773Z" fill="black"/>
<path d="M815.962 752.426C843.512 800.159 914.323 874.61 914.323 874.61C914.323 874.61 909.889 881.359 919.709 893.757C916.665 896.839 914.766 900.868 914.323 905.181C913.731 911.925 971.968 945.721 1027.19 936.727C1082.41 927.728 1106.05 911.925 1107.09 900.654C1108.13 889.378 1051.22 738.78 1012.92 692.591C982.44 670.904 945.995 659.173 908.586 659.003C864.373 658.763 829.899 673.356 814.243 695.044" stroke="#263238" stroke-width="3" stroke-linecap="round" stroke-linejoin="round"/>
<path d="M950.899 667.788C950.899 667.788 929.622 635.093 906.78 639.384C883.932 643.67 819.482 572.827 813.384 564.069C807.291 555.311 799.091 575.405 799.091 575.405C799.091 575.405 789.118 583.244 786.781 591.8C784.443 600.35 790.897 641.897 786.781 650.688C784.219 657.147 783.031 664.072 783.288 671.018L800.247 658.822C800.247 658.822 812.705 688.743 821.704 698.092C830.698 707.441 853.157 683.712 870.323 671.018C887.484 658.319 912.046 652.401 925.511 674.357" fill="#BFBFBF"/>
<path d="M950.899 667.788C950.899 667.788 929.622 635.093 906.78 639.384C883.932 643.67 819.482 572.827 813.384 564.069C807.291 555.311 799.091 575.405 799.091 575.405C799.091 575.405 789.118 583.244 786.781 591.8C784.443 600.35 790.897 641.897 786.781 650.688C784.219 657.147 783.031 664.072 783.288 671.018L800.247 658.822C800.247 658.822 812.705 688.743 821.704 698.092C830.698 707.441 853.157 683.712 870.323 671.018C887.484 658.319 912.046 652.401 925.511 674.357" stroke="#263238" stroke-width="3" stroke-linecap="round" stroke-linejoin="round"/>
<path d="M800.246 658.823L809.125 656.546C809.125 656.546 798.588 615.267 800.246 609.848C801.905 604.434 808.95 575.91 809.125 568.925" stroke="#263238" stroke-width="3" stroke-linecap="round" stroke-linejoin="round"/>
<path d="M826.493 677.647C831.819 683.564 847.978 671.018 853.129 667.789" stroke="#263238" stroke-width="3" stroke-linecap="round" stroke-linejoin="round"/>
<path d="M816.493 653.201C817.637 658.04 819.104 662.791 820.872 667.433" stroke="#263238" stroke-width="3" stroke-linecap="round" stroke-linejoin="round"/>
<path d="M836.172 661.664C842.237 662.851 847.449 668.977 850.968 674.358C852.791 677.188 854.384 680.155 855.731 683.236C855.731 683.236 846.857 712.505 876.181 706.911C905.505 701.317 915.068 671.402 915.068 671.402C897.579 658.44 899.264 641.126 899.264 641.126C880.56 634.59 844.903 650.004 836.408 657.788C834.158 659.562 833.835 661.22 836.172 661.664Z" fill="white" stroke="#263238" stroke-width="3" stroke-linecap="round" stroke-linejoin="round"/>
<path d="M836.171 661.664C842.236 662.852 847.447 668.977 850.967 674.358C863.453 664.8 864.104 653.201 864.104 653.201L836.467 657.613C834.157 659.562 833.834 661.22 836.171 661.664Z" fill="#263238"/>
<path d="M925.512 872.628C925.512 872.628 978.953 868.779 992.507 838.093" stroke="#263238" stroke-width="3" stroke-linecap="round" stroke-linejoin="round"/>
<path d="M1052.13 904.645C1011.3 908.876 968.005 907.754 929.179 893.253" stroke="#263238" stroke-width="3" stroke-linecap="round" stroke-linejoin="round"/>
<path d="M1082.26 900.205C1075.78 901.541 1069.24 902.548 1062.67 903.402" stroke="#263238" stroke-width="3" stroke-linecap="round" stroke-linejoin="round"/>
<path d="M893.67 643.731C893.67 643.731 906.988 627.222 910.655 615.617C926.371 565.903 929.119 534.005 872.776 521.783C832.975 513.172 812.53 566.527 813.444 585.823C813.975 596.711 808.622 607.335 805.928 615.973C802.967 625.624 808.649 663.323 820.993 666.547C836.763 670.482 862.802 665.041 866.891 656.31" fill="white"/>
<path d="M893.67 643.731C893.67 643.731 906.988 627.222 910.655 615.617C926.371 565.903 929.119 534.005 872.776 521.783C832.975 513.172 812.53 566.527 813.444 585.823C813.975 596.711 808.622 607.335 805.928 615.973C802.967 625.624 808.649 663.323 820.993 666.547C836.763 670.482 862.802 665.041 866.891 656.31" stroke="#263238" stroke-width="3" stroke-linecap="round" stroke-linejoin="round"/>
<path d="M846.468 599.907C845.762 602.513 846.616 605.025 848.422 605.529C850.229 606.032 852.27 604.314 852.982 601.714C853.688 599.108 852.834 596.59 851.028 596.086C849.221 595.588 847.18 597.422 846.468 599.907Z" fill="#263238"/>
<path d="M819.246 590.881C818.534 593.486 819.393 595.999 821.2 596.502C823.001 597.006 825.043 595.287 825.754 592.687C826.466 590.081 825.606 587.569 823.8 587.093C821.999 586.622 819.957 588.275 819.246 590.881Z" fill="#263238"/>
<path d="M829.099 597.63C829.099 597.63 815.015 610.028 814.304 612.426C813.592 614.818 822.202 621.627 822.202 621.627" stroke="#263238" stroke-width="3" stroke-linecap="round" stroke-linejoin="round"/>
<path d="M817.265 631.245C824.26 635.066 832.455 636.073 840.167 634.053" stroke="#263238" stroke-width="3" stroke-linecap="round" stroke-linejoin="round"/>
<path d="M849.31 575.964C849.31 575.964 855.643 572.828 864.105 581.411" stroke="#263238" stroke-width="3" stroke-linecap="round" stroke-linejoin="round"/>
<path d="M829.099 572.061C829.099 572.061 821.375 565.016 819.038 572.061" stroke="#263238" stroke-width="3" stroke-linecap="round" stroke-linejoin="round"/>
<path d="M876.181 560.342C876.181 560.342 883.226 572.828 882.098 585.319C881.058 594.378 879.071 603.301 876.181 611.95L879.142 614.287C879.142 614.287 891.124 608.041 894.234 614.287C897.337 620.533 885.623 636.927 885.623 636.927C885.623 636.927 892.455 651.723 902.724 653.288C902.724 653.288 902.132 647.847 905.685 646.276C909.238 644.711 922.227 633.522 922.227 621.775C922.227 621.775 924.948 625.443 922.227 633.61C922.227 633.61 942.94 591.74 923.442 560.517C903.939 529.299 876.181 560.342 876.181 560.342Z" fill="#263238"/>
<path d="M885.738 615.47C885.738 615.47 900.714 602.836 902.636 615.47C904.557 628.109 883.488 645.893 878.43 639.708C873.367 633.522 878.43 632.367 878.43 632.367" fill="white"/>
<path d="M885.738 615.47C885.738 615.47 900.714 602.836 902.636 615.47C904.557 628.109 883.488 645.893 878.43 639.708C873.367 633.522 878.43 632.367 878.43 632.367" stroke="#263238" stroke-width="3" stroke-linecap="round" stroke-linejoin="round"/>
<path d="M814.304 660.925C814.304 660.925 823.478 659.742 828.629 663.886C833.774 668.03 827.709 674.303 818.951 669.212C810.193 664.121 814.304 660.925 814.304 660.925Z" fill="#263238"/>
<path d="M827.474 663.793C827.474 663.793 872.245 664.121 899.472 564.069H904.086C904.086 564.069 902.548 648.614 830.462 667.789L827.474 663.793Z" fill="#263238"/>
<path d="M822.914 537.821C822.914 537.821 808.118 544.095 809.065 547.232C810.012 550.368 834.606 567.534 884.172 567.945C920.864 568.241 939.568 600.498 939.568 600.498C943.088 590.525 936.399 578.247 936.399 578.247C936.399 578.247 941.134 544.865 924.356 530.424C924.356 530.424 920.777 516.042 898.23 507.016C867.953 494.913 858.812 511.721 858.812 511.721C850.924 512.07 843.321 514.73 836.938 519.372C830.556 524.012 825.678 530.429 822.914 537.821Z" fill="#92E3A9" stroke="#263238" stroke-width="3" stroke-linecap="round" stroke-linejoin="round"/>
<path d="M889.586 555.606C907.606 557.232 925.539 562.887 936.399 578.274" stroke="#263238" stroke-width="3" stroke-linecap="round" stroke-linejoin="round"/>
<path d="M862.452 554.688C868.134 554.688 873.816 554.687 879.498 555.016" stroke="#263238" stroke-width="3" stroke-linecap="round" stroke-linejoin="round"/>
<path d="M822.914 537.821C826.434 552.618 839.429 554.036 852.271 554.484" stroke="#263238" stroke-width="3" stroke-linecap="round" stroke-linejoin="round"/>
<path d="M895.208 519.356C900.583 518.951 905.981 519.735 911.022 521.654C916.058 523.572 920.612 526.576 924.357 530.453" stroke="#263238" stroke-width="3" stroke-linecap="round" stroke-linejoin="round"/>
<path d="M858.691 511.751C843.216 535.425 874.494 523.825 885.918 520.925" stroke="#263238" stroke-width="3" stroke-linecap="round" stroke-linejoin="round"/>
<path d="M876.18 593.043C876.18 594.46 872.896 598.517 875.173 600.525C877.456 602.54 879.257 596.234 877.691 589.37" stroke="#263238" stroke-width="3" stroke-linecap="round" stroke-linejoin="round"/>
<path d="M873.488 574.426C873.488 575.849 868.961 582.506 871.238 584.487C873.521 586.469 875.261 581.915 874.2 578.57" stroke="#263238" stroke-width="3" stroke-linecap="round" stroke-linejoin="round"/>
<path d="M1026.39 792.227C1026.39 792.227 957.676 776.068 961.289 800.482C964.896 824.896 981.203 874.106 981.203 874.106C981.203 874.106 890.445 929.682 885.322 933.793C883.729 935.069 904.174 954.835 904.174 954.835C920.776 945.453 1037.04 917.284 1041.54 897.014C1046.04 876.739 1026.39 792.227 1026.39 792.227Z" fill="white" stroke="#263238" stroke-width="3" stroke-linecap="round" stroke-linejoin="round"/>
<path d="M989.961 685.962C989.961 685.962 1021.51 715.259 1020.39 736.651C1019.26 758.048 1033.91 798.468 1033.91 798.468L1027.13 805.365C1027.13 805.365 982.062 807.614 960.665 820.161C960.665 820.161 951.255 826.078 953.921 804.39C953.691 798.566 952.306 792.851 949.854 787.569C947.402 782.287 943.926 777.541 939.629 773.611C931.724 766.598 932.496 726.65 932.496 726.65" fill="#92E3A9"/>
<path d="M989.961 685.962C989.961 685.962 1021.51 715.259 1020.39 736.651C1019.26 758.048 1033.91 798.468 1033.91 798.468L1027.13 805.365C1027.13 805.365 982.062 807.614 960.665 820.161C960.665 820.161 951.255 826.078 953.921 804.39C953.691 798.566 952.306 792.851 949.854 787.569C947.402 782.287 943.926 777.541 939.629 773.611C931.724 766.598 932.496 726.65 932.496 726.65" stroke="#263238" stroke-width="3" stroke-linecap="round" stroke-linejoin="round"/>
<path d="M1044.03 998.04C1039.53 1019.43 1022.63 1049.38 1015.88 1061.78C1009.14 1074.18 980.934 1172.25 980.934 1172.25C980.934 1172.25 982.061 1190.27 956.17 1194.77C930.273 1199.27 881.15 1182.4 894.2 1174.47C907.25 1166.54 921.339 1075.72 921.339 1075.72C921.339 1075.72 914.442 1063.35 927.049 1045.09C939.655 1026.83 940.69 922.933 965.224 915.773C1008.04 903.402 1058.06 930.065 1058.06 930.065C1058.06 930.065 1072.2 934.505 1076.87 947.379" fill="#263238"/>
<path d="M1034.56 953.505C1026.81 937.581 1013.84 923.349 995.884 919.884" stroke="white" stroke-width="3" stroke-linecap="round" stroke-linejoin="round"/>
<path d="M1042.17 974.897C1041.23 970.666 1039.99 966.5 1038.46 962.438" stroke="white" stroke-width="3" stroke-linecap="round" stroke-linejoin="round"/>
<path d="M931.549 1075.93C928.166 1076.36 924.734 1076.3 921.367 1075.75" stroke="white" stroke-width="3" stroke-linecap="round" stroke-linejoin="round"/>
<path d="M1005.7 1023.19C988.779 1043.58 966.643 1065.36 940.986 1073.77" stroke="white" stroke-width="3" stroke-linecap="round" stroke-linejoin="round"/>
<path d="M1044.03 998.04C1039.53 1019.43 1022.63 1049.38 1015.88 1061.78C1009.14 1074.18 980.934 1172.25 980.934 1172.25C980.934 1172.25 982.061 1190.27 956.17 1194.77C930.273 1199.27 881.15 1182.4 894.2 1174.47C907.25 1166.54 921.339 1075.72 921.339 1075.72C921.339 1075.72 914.442 1063.35 927.049 1045.09C939.655 1026.83 940.69 922.933 965.224 915.773C1008.04 903.402 1058.06 930.065 1058.06 930.065C1058.06 930.065 1072.2 934.505 1076.87 947.379" stroke="#263238" stroke-width="3" stroke-miterlimit="10"/>
<path d="M928.44 999.666C928.555 999.102 928.785 998.566 929.108 998.09C929.43 997.614 929.841 997.208 930.323 996.891C930.804 996.579 931.346 996.36 931.91 996.251C932.474 996.141 933.054 996.147 933.618 996.261L947.648 999.223C947.434 995.785 946.142 992.506 943.947 989.852C941.758 987.197 938.78 985.308 935.441 984.454C932.107 983.6 928.588 983.825 925.391 985.095C922.189 986.365 919.479 988.62 917.64 991.532L812.825 969.927C812.289 966.527 810.691 963.385 808.255 960.949C805.824 958.513 802.682 956.915 799.278 956.379C795.878 955.842 792.397 956.401 789.331 957.966C786.271 959.532 783.781 962.033 782.226 965.104L796.25 968.065C796.814 968.18 797.351 968.405 797.827 968.728C798.303 969.051 798.708 969.467 799.026 969.948C799.343 970.43 799.562 970.967 799.666 971.53C799.776 972.1 799.77 972.68 799.655 973.244C799.54 973.807 799.31 974.338 798.987 974.815C798.664 975.291 798.254 975.702 797.772 976.014C797.29 976.331 796.754 976.55 796.185 976.659C795.621 976.763 795.041 976.763 794.477 976.643L780.447 973.687C780.661 977.119 781.958 980.404 784.148 983.053C786.343 985.708 789.32 987.602 792.654 988.456C795.988 989.31 799.507 989.085 802.704 987.815C805.906 986.545 808.616 984.29 810.455 981.378L915.27 1002.84C915.811 1006.23 917.415 1009.37 919.851 1011.8C922.287 1014.23 925.429 1015.83 928.828 1016.36C932.228 1016.89 935.709 1016.33 938.769 1014.77C941.829 1013.2 944.32 1010.7 945.869 1007.63L931.844 1004.67C930.744 1004.42 929.781 1003.77 929.151 1002.84C928.516 1001.92 928.265 1000.78 928.44 999.666Z" fill="#BFBFBF" stroke="#263238" stroke-width="3" stroke-linecap="round" stroke-linejoin="round"/>
<path d="M908.257 914.054C899.412 919.451 891.223 925.867 883.877 933.175C878.282 937.581 846.588 964.036 847.004 968.032C847.415 972.028 844.607 998.779 847.004 1001.2C849.402 1003.63 859.43 995.703 859.43 995.703C859.43 995.703 862.244 1002.92 865.348 1003.34C868.435 1003.48 871.522 1003.34 874.582 1002.92C874.582 1002.92 879.793 1010.94 884.583 1010.14C889.378 1009.34 895.832 1000.11 891.124 999.726C889.882 999.535 888.617 999.693 887.457 1000.19C886.302 1000.68 885.311 1001.48 884.583 1002.51V992.506C888.612 989.485 892.372 986.129 895.832 982.473C901.037 976.851 903.939 958.535 903.939 958.535C906.101 957.32 920.541 950.631 925.424 948.885L908.257 914.054Z" fill="#92E3A9" stroke="#263238" stroke-width="3" stroke-linecap="round" stroke-linejoin="round"/>
<path d="M859.43 995.73L854.547 977.059" stroke="#263238" stroke-width="3" stroke-linecap="round" stroke-linejoin="round"/>
<path d="M874.669 1002.95L870.378 991.646" stroke="#263238" stroke-width="3" stroke-linecap="round" stroke-linejoin="round"/>
<path d="M856.979 986.409L852.896 993.722" stroke="#263238" stroke-width="3" stroke-linecap="round" stroke-linejoin="round"/>
<path d="M868.724 1002.84C864.548 999.874 861.619 986.293 861.619 986.293" stroke="#263238" stroke-width="3" stroke-linecap="round" stroke-linejoin="round"/>
<path d="M921.871 640.978C921.871 640.978 952.41 650.891 952.289 677.379C952.289 689.006 919.742 762.635 925.511 798.467C931.281 834.305 931.992 837.945 931.992 837.945C931.992 837.945 918.023 838.509 912.992 837.945C907.962 837.381 909.768 846.824 909.768 846.824L892.011 850.196C892.011 850.196 886.718 791.488 886.094 766.007C885.475 740.526 915.122 661.368 915.122 661.368C915.423 658.91 915.072 656.419 914.098 654.142C913.129 651.871 911.575 649.889 909.588 648.406" fill="#BFBFBF"/>
<path d="M921.871 640.978C921.871 640.978 952.41 650.891 952.289 677.379C952.289 689.006 919.742 762.635 925.511 798.467C931.281 834.305 931.992 837.945 931.992 837.945C931.992 837.945 918.023 838.509 912.992 837.945C907.962 837.381 909.768 846.824 909.768 846.824L892.011 850.196C892.011 850.196 886.718 791.488 886.094 766.007C885.475 740.526 915.122 661.368 915.122 661.368C915.423 658.91 915.072 656.419 914.098 654.142C913.129 651.871 911.575 649.889 909.588 648.406" stroke="#263238" stroke-width="3" stroke-linecap="round" stroke-linejoin="round"/>
<path d="M910.803 779.648C908.881 797.405 907.578 815.157 906.779 833.122" stroke="#263238" stroke-width="3" stroke-linecap="round" stroke-linejoin="round"/>
<path d="M916.25 740.499C914.679 749.673 913.288 758.874 912.166 768.109" stroke="#263238" stroke-width="3" stroke-linecap="round" stroke-linejoin="round"/>
<path d="M929.179 682.174C924.92 697.523 921.318 713.036 918.379 728.719" stroke="#263238" stroke-width="3" stroke-linecap="round" stroke-linejoin="round"/>
<path d="M931.993 653.201C934.599 659.299 932.229 666.251 931.134 672.436" stroke="#263238" stroke-width="3" stroke-linecap="round" stroke-linejoin="round"/>
<path d="M781.367 722.741C783.666 732.485 787.405 741.834 792.463 750.472" stroke="#263238" stroke-width="3" stroke-linecap="round" stroke-linejoin="round"/>
<path d="M775.833 689.778C776.189 694.869 776.84 699.926 777.607 704.99" stroke="#263238" stroke-width="3" stroke-linecap="round" stroke-linejoin="round"/>
<path d="M980.847 762.307C976.035 766.922 970.08 770.173 963.599 771.717" stroke="#263238" stroke-width="3" stroke-linecap="round" stroke-linejoin="round"/>
<path d="M1005.7 721.707C1001.75 733.284 995.955 744.144 988.543 753.877" stroke="#263238" stroke-width="3" stroke-linecap="round" stroke-linejoin="round"/>
<path d="M415.655 1233.36C548.267 1202.57 630.819 1070.11 600.028 937.494C569.243 804.883 436.779 722.331 304.165 753.122C171.551 783.907 89.003 916.37 119.79 1048.99C150.577 1181.6 283.04 1264.15 415.655 1233.36Z" fill="#263238" stroke="#263238" stroke-width="1.95486" stroke-miterlimit="10"/>
<path d="M360.175 815.168C324.982 815.168 290.58 825.607 261.322 845.165C232.064 864.724 209.266 892.52 195.811 925.041C182.356 957.561 178.849 993.339 185.735 1027.85C192.621 1062.36 209.59 1094.06 234.494 1118.93C259.398 1143.79 291.119 1160.71 325.642 1167.54C360.165 1174.37 395.939 1170.81 428.437 1157.3C460.935 1143.8 488.697 1120.96 508.21 1091.67C527.721 1062.38 538.108 1027.96 538.053 992.769C537.955 945.65 519.174 900.49 485.829 867.198C452.484 833.906 407.295 815.196 360.175 815.168ZM479.927 957.397L376.295 976.835L405.681 876.887C423.307 883.839 439.128 894.693 451.956 908.641C464.784 922.583 474.284 939.256 479.743 957.397H479.927ZM369.387 984.11V1001.98H351.608V984.11H369.387ZM324.894 873.57L344.331 977.201L244.291 947.725C251.151 930.126 261.909 914.312 275.758 901.47C289.606 888.628 306.185 879.087 324.249 873.57H324.894ZM240.975 1028.69L344.607 1009.26L315.037 1109.2C297.328 1102.35 281.422 1091.52 268.538 1077.57C255.653 1063.61 246.131 1046.9 240.699 1028.69H240.975ZM396.1 1112.52L376.664 1008.98L476.427 1038.83C469.443 1056.41 458.561 1072.18 444.599 1084.94C430.637 1097.71 413.96 1107.14 395.824 1112.52H396.1Z" fill="white" stroke="#263238" stroke-width="1.95486" stroke-miterlimit="10"/>
<path d="M415.351 992.769C415.351 981.838 412.11 971.153 406.036 962.066C399.963 952.974 391.331 945.891 381.232 941.709C371.132 937.527 360.019 936.432 349.298 938.561C338.577 940.696 328.728 945.956 320.999 953.691C313.269 961.42 308.005 971.268 305.873 981.986C303.74 992.709 304.835 1003.82 309.018 1013.92C313.201 1024.02 320.285 1032.65 329.374 1038.73C338.464 1044.8 349.149 1048.04 360.081 1048.04C374.739 1048.04 388.797 1042.22 399.163 1031.85C409.528 1021.49 415.351 1007.43 415.351 992.769Z" fill="white" stroke="#263238" stroke-width="1.95486" stroke-miterlimit="10"/>
</g>
<defs>
<clipPath id="clip0_379_161">
<rect width="1291.29" height="1311" fill="white"/>
</clipPath>
</defs>
</svg>
