<svg width="2359" height="2395" viewBox="0 0 2359 2395" fill="none" xmlns="http://www.w3.org/2000/svg">
<path d="M1 2263.43H2357.82" stroke="#263238" stroke-linecap="round" stroke-linejoin="round"/>
<path d="M2085.52 1808.51H1447.71V2263.43H2085.52V1808.51Z" fill="#999999"/>
<path opacity="0.3" d="M1447.71 2263.48H1778.24V2003.67L2085.57 1990.37V1973.83H1447.71V2263.48Z" fill="black" fill-opacity="0.7"/>
<path d="M2085.52 1808.51H1447.71V2263.43H2085.52V1808.51Z" stroke="#263238" stroke-linecap="round" stroke-linejoin="round"/>
<path d="M2100.71 1802.02H1432.58V1972.37H2100.71V1802.02Z" fill="#999999"/>
<path opacity="0.3" d="M1786.78 1802.02H1432.58V1972.37H1786.78V1802.02Z" fill="black" fill-opacity="0.7"/>
<path d="M2100.71 1802.02H1432.58V1972.37H2100.71V1802.02Z" stroke="#263238" stroke-linecap="round" stroke-linejoin="round"/>
<path d="M1786.78 1928.09V1951.82" stroke="#263238" stroke-linecap="round" stroke-linejoin="round"/>
<path d="M1786.78 1880.95V1907.28" stroke="#263238" stroke-linecap="round" stroke-linejoin="round"/>
<path d="M1786.78 1802.02V1862.14" stroke="#263238" stroke-linecap="round" stroke-linejoin="round"/>
<path d="M1778.24 2234.13V2243.97" stroke="#263238" stroke-linecap="round" stroke-linejoin="round"/>
<path d="M1778.24 2088.71V2212.77" stroke="#263238" stroke-linecap="round" stroke-linejoin="round"/>
<path d="M1778.24 1973.77V2044.86" stroke="#263238" stroke-linecap="round" stroke-linejoin="round"/>
<path d="M1983.18 1936.15H1951.12V2021.02H1983.18V1936.15Z" fill="#BFBFBF" stroke="#263238" stroke-linecap="round" stroke-linejoin="round"/>
<path d="M1514.64 1231.95C1480.58 1246.12 1329.48 1262.61 1329.48 1262.61C1353.36 1210.29 1382.48 1160.53 1416.41 1114.1L1371.92 1084.37C1371.92 1084.37 1254.39 1210.82 1225.47 1299.91C1225.47 1299.91 1216.82 1340.18 1222.55 1345.91C1228.28 1351.64 1276.61 1369.48 1367.92 1376.24C1459.23 1383 1524.7 1384.68 1524.7 1384.68" fill="white"/>
<path d="M1514.64 1231.95C1480.58 1246.12 1329.48 1262.61 1329.48 1262.61C1353.36 1210.29 1382.48 1160.53 1416.41 1114.1L1371.92 1084.37C1371.92 1084.37 1254.39 1210.82 1225.47 1299.91C1225.47 1299.91 1216.82 1340.18 1222.55 1345.91C1228.28 1351.64 1276.61 1369.48 1367.92 1376.24C1459.23 1383 1524.7 1384.68 1524.7 1384.68" stroke="#263238" stroke-linecap="round" stroke-linejoin="round"/>
<path d="M1340.57 1110.64C1340.57 1110.64 1375.33 1144.27 1403.11 1142.54L1424.74 1108.53C1424.74 1108.53 1494.1 1073.99 1486.15 1056.69C1478.2 1039.39 1471.12 1051.28 1471.12 1051.28L1501.83 1030.58C1501.83 1030.58 1463.39 1007.71 1455.23 1007.77C1447.06 1007.82 1426.2 1003.87 1412.3 1009.6C1398.41 1015.33 1373.06 1076.53 1373.06 1076.53L1340.57 1110.64Z" fill="#92E3A9" stroke="#263238" stroke-linecap="round" stroke-linejoin="round"/>
<path d="M1417.33 1097.56C1417.33 1097.56 1432.25 1091.72 1437.12 1081.34C1441.98 1070.96 1437.12 1051.39 1437.12 1051.39" fill="#92E3A9"/>
<path d="M1417.33 1097.56C1417.33 1097.56 1432.25 1091.72 1437.12 1081.34C1441.98 1070.96 1437.12 1051.39 1437.12 1051.39" stroke="#263238" stroke-linecap="round" stroke-linejoin="round"/>
<path d="M1430.9 1039.34C1433.84 1043.54 1438.26 1046.48 1443.28 1047.54C1448.3 1048.6 1453.54 1047.72 1457.93 1045.07" fill="#92E3A9"/>
<path d="M1430.9 1039.34C1433.84 1043.54 1438.26 1046.48 1443.28 1047.54C1448.3 1048.6 1453.54 1047.72 1457.93 1045.07" stroke="#263238" stroke-linecap="round" stroke-linejoin="round"/>
<path d="M1442.15 1030.47C1452.12 1036.82 1461.72 1043.73 1470.91 1051.18Z" fill="#92E3A9"/>
<path d="M1442.15 1030.47C1452.12 1036.82 1461.72 1043.73 1470.91 1051.18" stroke="#263238" stroke-linecap="round" stroke-linejoin="round"/>
<path d="M1484.2 1042.2L1461.61 1023.5Z" fill="#92E3A9"/>
<path d="M1484.2 1042.2L1461.61 1023.5" stroke="#263238" stroke-linecap="round" stroke-linejoin="round"/>
<path d="M1329.37 1262.61C1328.37 1284.29 1322.16 1305.41 1311.26 1324.18" stroke="#263238" stroke-linecap="round" stroke-linejoin="round"/>
<path d="M1593.95 1212.65C1593.95 1212.65 1480.42 1222.71 1459.12 1235.52C1437.82 1248.33 1389.22 1253.15 1389.22 1253.15C1389.22 1253.15 1410.84 1314.07 1389.22 1377.76L1409.17 1395.16C1409.17 1395.16 1446.25 1391.65 1454.8 1395.16C1463.34 1398.68 1551.56 1424.3 1551.56 1424.3" fill="#92E3A9"/>
<path opacity="0.2" d="M1515.51 1413.76C1490.1 1406.25 1459.66 1397.16 1454.8 1395.16C1446.25 1391.65 1409.17 1395.16 1409.17 1395.16L1397.98 1385.38C1414.2 1361.48 1423.87 1331.32 1430.41 1331.32C1433.93 1331.32 1441.55 1341.1 1448.69 1352.19C1443.28 1317.86 1455.44 1272.55 1461.5 1311.1C1465.99 1339.43 1493.02 1382.41 1515.51 1413.76Z" fill="black"/>
<path d="M1593.95 1212.65C1593.95 1212.65 1480.42 1222.71 1459.12 1235.52C1437.82 1248.33 1389.22 1253.15 1389.22 1253.15C1389.22 1253.15 1410.84 1314.07 1389.22 1377.76L1409.17 1395.16C1409.17 1395.16 1446.25 1391.65 1454.8 1395.16C1463.34 1398.68 1551.56 1424.3 1551.56 1424.3" stroke="#263238" stroke-linecap="round" stroke-linejoin="round"/>
<path d="M1506.32 2093.95C1506.32 2093.95 1548.48 2216.56 1546.64 2255.05C1546.64 2255.05 1477.99 2272.19 1442.96 2267.92C1407.93 2263.65 1338.08 2269.27 1300.99 2268.56C1263.91 2267.86 1259.64 2259.32 1259.64 2259.32C1259.64 2259.32 1256.77 2243.64 1281.26 2229.43C1305.75 2215.21 1403.87 2207.8 1412.41 2136.66C1420.95 2065.51 1506.32 2093.95 1506.32 2093.95Z" fill="#BFBFBF" stroke="#263238" stroke-linecap="round" stroke-linejoin="round"/>
<path d="M2006.1 1632C2006.1 1632 2043.35 1732.83 2022.65 1796.67C2001.94 1860.52 1853.76 1907.71 1820.84 1907.71C1787.92 1907.71 1524.64 1841.87 1524.64 1841.87L1511.45 1856.3L1470.9 1839.81L1534.75 2134.12C1534.75 2134.12 1565.62 2150.6 1534.75 2160.88C1503.88 2171.15 1386.57 2171.2 1384.52 2160.88C1383.4 2151.99 1383.4 2143 1384.52 2134.12L1367.11 2101.19C1367.11 2101.19 1370.3 2043.57 1367.11 2035.35C1363.92 2027.13 1232.23 1753.26 1287.59 1687.41C1342.94 1621.57 1671.42 1675.03 1671.42 1675.03L1713.31 1631.79L2006.1 1632Z" fill="#263238"/>
<path opacity="0.2" d="M1479.01 1842.84L1511.45 1856.03L1524.64 1841.59C1524.64 1841.59 1787.92 1907.71 1820.84 1907.71C1853.76 1907.71 2002 1860.41 2022.65 1796.56C2024.23 1791.63 2025.48 1786.59 2026.38 1781.48C2003.73 1803.86 1959.83 1842.24 1913.72 1855.43C1913.72 1855.43 1927.18 1841.32 1891.39 1833.81C1855.6 1826.3 1745.8 1652.22 1745.8 1652.22L1697.69 1648.44L1671.42 1675.25C1671.42 1675.25 1620.76 1666.98 1555.89 1660.98C1533.74 1723.01 1508.07 1783.73 1479.01 1842.84V1842.84Z" fill="black"/>
<path opacity="0.2" d="M1367.11 2035.24C1370.3 2043.46 1367.11 2101.09 1367.11 2101.09L1384.52 2134.01C1383.4 2142.89 1383.4 2151.88 1384.52 2160.77C1386.57 2171.04 1503.88 2171.04 1534.75 2160.77C1565.62 2150.5 1534.75 2134.01 1534.75 2134.01L1473.82 1853.27C1441.39 1917.01 1401.92 1979.99 1359.49 2018.37C1363.87 2028.1 1366.68 2034.1 1367.11 2035.24Z" fill="black"/>
<path d="M1470.91 1839.7C1470.91 1839.7 1489.56 1806.02 1479.18 1781.75" stroke="white" stroke-linecap="round" stroke-linejoin="round"/>
<path d="M1462.47 1788.78C1463.71 1798.69 1464.16 1808.69 1463.82 1818.67" stroke="white" stroke-linecap="round" stroke-linejoin="round"/>
<path d="M1453.98 1749.96C1456.32 1757.14 1458.23 1764.45 1459.71 1771.86" stroke="white" stroke-linecap="round" stroke-linejoin="round"/>
<path d="M1422.14 1886.68C1422.14 1886.68 1420.41 1984.75 1367.11 2035.24" stroke="white" stroke-linecap="round" stroke-linejoin="round"/>
<path d="M1441.17 2074.6C1426.74 2096.22 1409.06 2122.71 1384.52 2134.06" stroke="white" stroke-linecap="round" stroke-linejoin="round"/>
<path d="M1458.96 2045.13C1456.2 2050.21 1453.28 2055.19 1450.31 2060.16" stroke="white" stroke-linecap="round" stroke-linejoin="round"/>
<path opacity="0.2" d="M2021.94 1689.36C2017.97 1669.9 2012.68 1650.74 2006.1 1632H1993.29L1932.8 1667.14C1932.8 1667.14 1921.82 1693.47 2021.94 1689.36Z" fill="black"/>
<path d="M1994.97 1707.2C1994.97 1707.2 1963.61 1693.09 1932.8 1699.09" stroke="white" stroke-linecap="round" stroke-linejoin="round"/>
<path d="M2006.1 1632C2006.1 1632 2043.35 1732.83 2022.65 1796.67C2001.94 1860.52 1853.76 1907.71 1820.84 1907.71C1787.92 1907.71 1524.64 1841.87 1524.64 1841.87L1511.45 1856.3L1470.9 1839.81L1534.75 2134.12C1534.75 2134.12 1565.62 2150.6 1534.75 2160.88C1503.88 2171.15 1386.57 2171.2 1384.52 2160.88C1383.4 2151.99 1383.4 2143 1384.52 2134.12L1367.11 2101.19C1367.11 2101.19 1370.3 2043.57 1367.11 2035.35C1363.92 2027.13 1232.23 1753.26 1287.59 1687.41C1342.94 1621.57 1671.42 1675.03 1671.42 1675.03L1713.31 1631.79L2006.1 1632Z" stroke="#263238" stroke-miterlimit="10"/>
<path d="M1764.35 2158.23C1764.35 2158.23 1770.08 2193.69 1764.35 2200.12C1758.61 2206.56 1747.1 2282.13 1747.1 2282.13C1747.1 2282.13 1597.89 2305.33 1553.46 2302.14C1493.99 2297.87 1480.1 2280.51 1480.1 2280.51C1480.1 2280.51 1479.07 2257.7 1535.02 2239.8C1604.06 2217.75 1657.25 2144.01 1657.25 2144.01L1764.35 2158.23Z" fill="#BFBFBF" stroke="#263238" stroke-linecap="round" stroke-linejoin="round"/>
<path d="M1490.64 1374.57C1540.97 1461.77 1670.33 1597.78 1670.33 1597.78C1670.33 1597.78 1662.23 1610.11 1680.17 1632.76C1674.61 1638.39 1671.14 1645.75 1670.33 1653.63C1669.25 1665.95 1775.64 1727.69 1876.52 1711.26C1977.4 1694.82 2020.59 1665.95 2022.48 1645.36C2024.38 1624.76 1920.42 1349.64 1850.46 1265.26C1794.77 1225.64 1728.19 1204.21 1659.85 1203.9C1579.08 1203.46 1516.1 1230.12 1487.5 1269.74" fill="#92E3A9"/>
<path opacity="0.2" d="M1894.04 1707.69C1888.63 1708.77 1882.58 1709.85 1876.52 1710.82C1775.64 1727.04 1669.25 1665.52 1670.33 1653.19C1671.2 1645.42 1674.67 1638.16 1680.17 1632.6C1679.52 1631.73 1678.88 1630.92 1678.34 1630.11C1727.58 1620.6 1772.67 1594.16 1751.97 1595.08C1723.58 1596.38 1706.18 1592.16 1737.15 1573.73C1768.13 1555.29 1760.35 1445.6 1760.35 1445.6C1760.35 1445.6 1823.16 1396.95 1888.79 1524.48C1950.75 1644.87 1923.61 1674.87 1894.04 1707.69Z" fill="black"/>
<path d="M1490.64 1374.57C1540.97 1461.77 1670.33 1597.78 1670.33 1597.78C1670.33 1597.78 1662.23 1610.11 1680.17 1632.76C1674.61 1638.39 1671.14 1645.75 1670.33 1653.63C1669.25 1665.95 1775.64 1727.69 1876.52 1711.26C1977.4 1694.82 2020.59 1665.95 2022.48 1645.36C2024.38 1624.76 1920.42 1349.64 1850.46 1265.26C1794.77 1225.64 1728.19 1204.21 1659.85 1203.9C1579.08 1203.46 1516.1 1230.12 1487.5 1269.74" stroke="#263238" stroke-linecap="round" stroke-linejoin="round"/>
<path d="M1737.15 1219.95C1737.15 1219.95 1698.28 1160.22 1656.55 1168.06C1614.81 1175.89 1497.07 1046.47 1485.93 1030.47C1474.8 1014.47 1459.82 1051.18 1459.82 1051.18C1459.82 1051.18 1441.6 1065.5 1437.33 1081.13C1433.06 1096.75 1444.85 1172.65 1437.33 1188.71C1432.65 1200.51 1430.48 1213.16 1430.95 1225.85L1461.93 1203.57C1461.93 1203.57 1484.69 1258.23 1501.13 1275.31C1517.56 1292.39 1558.59 1249.04 1589.95 1225.85C1621.3 1202.65 1666.17 1191.84 1690.77 1231.95" fill="#BFBFBF"/>
<path d="M1737.15 1219.95C1737.15 1219.95 1698.28 1160.22 1656.55 1168.06C1614.81 1175.89 1497.07 1046.47 1485.93 1030.47C1474.8 1014.47 1459.82 1051.18 1459.82 1051.18C1459.82 1051.18 1441.6 1065.5 1437.33 1081.13C1433.06 1096.75 1444.85 1172.65 1437.33 1188.71C1432.65 1200.51 1430.48 1213.16 1430.95 1225.85L1461.93 1203.57C1461.93 1203.57 1484.69 1258.23 1501.13 1275.31C1517.56 1292.39 1558.59 1249.04 1589.95 1225.85C1621.3 1202.65 1666.17 1191.84 1690.77 1231.95" stroke="#263238" stroke-linecap="round" stroke-linejoin="round"/>
<path d="M1461.93 1203.57L1478.15 1199.41C1478.15 1199.41 1458.9 1124 1461.93 1114.1C1464.96 1104.21 1477.83 1052.1 1478.15 1039.34" stroke="#263238" stroke-linecap="round" stroke-linejoin="round"/>
<path d="M1509.88 1237.96C1519.61 1248.77 1549.13 1225.85 1558.54 1219.95" stroke="#263238" stroke-linecap="round" stroke-linejoin="round"/>
<path d="M1491.61 1193.3C1493.7 1202.14 1496.38 1210.82 1499.61 1219.3" stroke="#263238" stroke-linecap="round" stroke-linejoin="round"/>
<path d="M1527.56 1208.76C1538.64 1210.93 1548.16 1222.12 1554.59 1231.95C1557.92 1237.12 1560.83 1242.54 1563.29 1248.17C1563.29 1248.17 1547.08 1301.64 1600.65 1291.42C1654.22 1281.2 1671.69 1226.55 1671.69 1226.55C1639.74 1202.87 1642.82 1171.24 1642.82 1171.24C1608.65 1159.3 1543.51 1187.46 1527.99 1201.68C1523.88 1204.92 1523.29 1207.95 1527.56 1208.76Z" fill="white" stroke="#263238" stroke-linecap="round" stroke-linejoin="round"/>
<path d="M1527.56 1208.76C1538.64 1210.93 1548.16 1222.12 1554.59 1231.95C1577.4 1214.49 1578.59 1193.3 1578.59 1193.3L1528.1 1201.36C1523.88 1204.92 1523.29 1207.95 1527.56 1208.76Z" fill="#263238"/>
<path d="M1690.77 1594.16C1690.77 1594.16 1788.4 1587.13 1813.16 1531.07" stroke="#263238" stroke-linecap="round" stroke-linejoin="round"/>
<path d="M1922.09 1652.65C1847.49 1660.38 1768.4 1658.33 1697.47 1631.84" stroke="#263238" stroke-linecap="round" stroke-linejoin="round"/>
<path d="M1977.13 1644.54C1965.29 1646.98 1953.34 1648.82 1941.34 1650.38" stroke="#263238" stroke-linecap="round" stroke-linejoin="round"/>
<path d="M1632.6 1176C1632.6 1176 1656.93 1145.84 1663.63 1124.64C1692.34 1033.82 1697.36 975.546 1594.43 953.219C1521.72 937.487 1484.37 1034.96 1486.04 1070.21C1487.01 1090.1 1477.23 1109.51 1472.31 1125.29C1466.9 1142.92 1477.28 1211.79 1499.83 1217.68C1528.64 1224.87 1576.21 1214.93 1583.68 1198.98" fill="white"/>
<path d="M1632.6 1176C1632.6 1176 1656.93 1145.84 1663.63 1124.64C1692.34 1033.82 1697.36 975.546 1594.43 953.219C1521.72 937.487 1484.37 1034.96 1486.04 1070.21C1487.01 1090.1 1477.23 1109.51 1472.31 1125.29C1466.9 1142.92 1477.28 1211.79 1499.83 1217.68C1528.64 1224.87 1576.21 1214.93 1583.68 1198.98" stroke="#263238" stroke-linecap="round" stroke-linejoin="round"/>
<path d="M1546.37 1095.94C1545.08 1100.7 1546.64 1105.29 1549.94 1106.21C1553.24 1107.13 1556.97 1103.99 1558.27 1099.24C1559.56 1094.48 1558 1089.88 1554.7 1088.96C1551.4 1088.05 1547.67 1091.4 1546.37 1095.94Z" fill="#263238"/>
<path d="M1496.64 1079.45C1495.34 1084.21 1496.91 1088.8 1500.21 1089.72C1503.5 1090.64 1507.23 1087.5 1508.53 1082.75C1509.83 1077.99 1508.26 1073.4 1504.96 1072.53C1501.67 1071.67 1497.94 1074.69 1496.64 1079.45Z" fill="#263238"/>
<path d="M1514.64 1091.78C1514.64 1091.78 1488.91 1114.43 1487.61 1118.81C1486.31 1123.18 1502.04 1135.62 1502.04 1135.62" stroke="#263238" stroke-linecap="round" stroke-linejoin="round"/>
<path d="M1493.02 1153.19C1505.8 1160.17 1520.77 1162.01 1534.86 1158.32" stroke="#263238" stroke-linecap="round" stroke-linejoin="round"/>
<path d="M1551.56 1052.2C1551.56 1052.2 1563.13 1046.47 1578.59 1062.15" stroke="#263238" stroke-linecap="round" stroke-linejoin="round"/>
<path d="M1514.64 1045.07C1514.64 1045.07 1500.53 1032.2 1496.26 1045.07" stroke="#263238" stroke-linecap="round" stroke-linejoin="round"/>
<path d="M1600.65 1023.66C1600.65 1023.66 1613.52 1046.47 1611.46 1069.29C1609.56 1085.84 1605.93 1102.14 1600.65 1117.94L1606.06 1122.21C1606.06 1122.21 1627.95 1110.8 1633.63 1122.21C1639.3 1133.62 1617.9 1163.57 1617.9 1163.57C1617.9 1163.57 1630.38 1190.6 1649.14 1193.46C1649.14 1193.46 1648.06 1183.52 1654.55 1180.65C1661.04 1177.79 1684.77 1157.35 1684.77 1135.89C1684.77 1135.89 1689.74 1142.59 1684.77 1157.51C1684.77 1157.51 1722.61 1081.02 1686.99 1023.98C1651.36 966.95 1600.65 1023.66 1600.65 1023.66Z" fill="#263238"/>
<path d="M1618.11 1124.37C1618.11 1124.37 1645.47 1101.29 1648.98 1124.37C1652.49 1147.46 1614 1179.95 1604.76 1168.65C1595.51 1157.35 1604.76 1155.24 1604.76 1155.24" fill="white"/>
<path d="M1618.11 1124.37C1618.11 1124.37 1645.47 1101.29 1648.98 1124.37C1652.49 1147.46 1614 1179.95 1604.76 1168.65C1595.51 1157.35 1604.76 1155.24 1604.76 1155.24" stroke="#263238" stroke-linecap="round" stroke-linejoin="round"/>
<path d="M1487.61 1207.41C1487.61 1207.41 1504.37 1205.25 1513.78 1212.82C1523.18 1220.39 1512.1 1231.85 1496.1 1222.55C1480.1 1213.25 1487.61 1207.41 1487.61 1207.41Z" fill="#263238"/>
<path d="M1511.67 1212.65C1511.67 1212.65 1593.46 1213.25 1643.2 1030.47H1651.63C1651.63 1030.47 1648.82 1184.92 1517.13 1219.95L1511.67 1212.65Z" fill="#263238"/>
<path d="M1503.34 982.519C1503.34 982.519 1476.31 993.98 1478.04 999.711C1479.77 1005.44 1524.7 1036.8 1615.25 1037.55C1682.28 1038.09 1716.45 1097.02 1716.45 1097.02C1722.88 1078.8 1710.66 1056.37 1710.66 1056.37C1710.66 1056.37 1719.31 995.386 1688.66 969.004C1688.66 969.004 1682.12 942.731 1640.93 926.242C1585.62 904.132 1568.92 934.838 1568.92 934.838C1554.51 935.475 1540.62 940.335 1528.96 948.814C1517.3 957.292 1508.39 969.014 1503.34 982.519V982.519Z" fill="#92E3A9" stroke="#263238" stroke-linecap="round" stroke-linejoin="round"/>
<path d="M1625.14 1015.01C1658.06 1017.98 1690.82 1028.31 1710.66 1056.42" stroke="#263238" stroke-linecap="round" stroke-linejoin="round"/>
<path d="M1575.57 1013.33C1585.95 1013.33 1596.33 1013.33 1606.71 1013.93" stroke="#263238" stroke-linecap="round" stroke-linejoin="round"/>
<path d="M1503.34 982.519C1509.77 1009.55 1533.51 1012.14 1556.97 1012.96" stroke="#263238" stroke-linecap="round" stroke-linejoin="round"/>
<path d="M1635.41 948.786C1645.23 948.046 1655.09 949.479 1664.3 952.983C1673.5 956.487 1681.82 961.975 1688.66 969.058" stroke="#263238" stroke-linecap="round" stroke-linejoin="round"/>
<path d="M1568.7 934.892C1540.43 978.14 1597.57 956.949 1618.44 951.651" stroke="#263238" stroke-linecap="round" stroke-linejoin="round"/>
<path d="M1600.65 1083.4C1600.65 1085.99 1594.65 1093.4 1598.81 1097.07C1602.98 1100.75 1606.27 1089.23 1603.41 1076.69" stroke="#263238" stroke-width="0.5" stroke-linecap="round" stroke-linejoin="round"/>
<path d="M1595.73 1049.39C1595.73 1051.99 1587.46 1064.15 1591.62 1067.77C1595.79 1071.39 1598.97 1063.07 1597.03 1056.96" stroke="#263238" stroke-width="0.5" stroke-linecap="round" stroke-linejoin="round"/>
<path d="M1875.06 1447.28C1875.06 1447.28 1749.53 1417.76 1756.13 1462.36C1762.72 1506.96 1792.51 1596.86 1792.51 1596.86C1792.51 1596.86 1626.71 1698.39 1617.35 1705.9C1614.44 1708.23 1651.79 1744.34 1651.79 1744.34C1682.12 1727.2 1894.52 1675.74 1902.74 1638.71C1910.96 1601.67 1875.06 1447.28 1875.06 1447.28Z" fill="white" stroke="#263238" stroke-linecap="round" stroke-linejoin="round"/>
<path d="M1808.51 1253.15C1808.51 1253.15 1866.14 1306.67 1864.09 1345.75C1862.03 1384.84 1888.79 1458.68 1888.79 1458.68L1876.41 1471.28C1876.41 1471.28 1794.08 1475.39 1754.99 1498.31C1754.99 1498.31 1737.8 1509.12 1742.67 1469.5C1742.25 1458.86 1739.72 1448.42 1735.24 1438.77C1730.76 1429.12 1724.41 1420.45 1716.56 1413.27C1702.12 1400.46 1703.53 1327.48 1703.53 1327.48" fill="#92E3A9"/>
<path d="M1808.51 1253.15C1808.51 1253.15 1866.14 1306.67 1864.09 1345.75C1862.03 1384.84 1888.79 1458.68 1888.79 1458.68L1876.41 1471.28C1876.41 1471.28 1794.08 1475.39 1754.99 1498.31C1754.99 1498.31 1737.8 1509.12 1742.67 1469.5C1742.25 1458.86 1739.72 1448.42 1735.24 1438.77C1730.76 1429.12 1724.41 1420.45 1716.56 1413.27C1702.12 1400.46 1703.53 1327.48 1703.53 1327.48" stroke="#263238" stroke-linecap="round" stroke-linejoin="round"/>
<path d="M1907.28 1823.27C1899.06 1862.35 1868.2 1917.06 1855.87 1939.71C1843.54 1962.37 1792.02 2141.52 1792.02 2141.52C1792.02 2141.52 1794.08 2174.45 1746.78 2182.66C1699.47 2190.88 1609.73 2160.07 1633.57 2145.58C1657.41 2131.09 1683.15 1965.18 1683.15 1965.18C1683.15 1965.18 1670.55 1942.58 1693.58 1909.22C1716.61 1875.87 1718.5 1686.06 1763.32 1672.98C1841.54 1650.38 1932.91 1699.09 1932.91 1699.09C1932.91 1699.09 1958.75 1707.2 1967.29 1730.72" fill="#263238"/>
<path d="M1889.98 1741.91C1875.82 1712.82 1852.14 1686.82 1819.33 1680.49" stroke="white" stroke-linecap="round" stroke-linejoin="round"/>
<path d="M1903.88 1780.99C1902.17 1773.26 1899.91 1765.65 1897.12 1758.23" stroke="white" stroke-linecap="round" stroke-linejoin="round"/>
<path d="M1701.8 1965.56C1695.62 1966.34 1689.35 1966.23 1683.2 1965.23" stroke="white" stroke-linecap="round" stroke-linejoin="round"/>
<path d="M1837.27 1869.22C1806.35 1906.47 1765.91 1946.26 1719.04 1961.61" stroke="white" stroke-linecap="round" stroke-linejoin="round"/>
<path d="M1907.28 1823.27C1899.06 1862.35 1868.2 1917.06 1855.87 1939.71C1843.54 1962.37 1792.02 2141.52 1792.02 2141.52C1792.02 2141.52 1794.08 2174.45 1746.78 2182.66C1699.47 2190.88 1609.73 2160.07 1633.57 2145.58C1657.41 2131.09 1683.15 1965.18 1683.15 1965.18C1683.15 1965.18 1670.55 1942.58 1693.58 1909.22C1716.61 1875.87 1718.5 1686.06 1763.32 1672.98C1841.54 1650.38 1932.91 1699.09 1932.91 1699.09C1932.91 1699.09 1958.75 1707.2 1967.29 1730.72" stroke="#263238" stroke-miterlimit="10"/>
<path d="M1696.12 1826.24C1696.33 1825.21 1696.75 1824.23 1697.34 1823.36C1697.93 1822.49 1698.68 1821.75 1699.56 1821.17C1700.44 1820.6 1701.43 1820.2 1702.46 1820C1703.49 1819.8 1704.55 1819.81 1705.58 1820.02L1731.21 1825.43C1730.82 1819.15 1728.46 1813.16 1724.45 1808.31C1720.45 1803.46 1715.01 1800.01 1708.91 1798.45C1702.82 1796.89 1696.39 1797.3 1690.55 1799.62C1684.7 1801.94 1679.75 1806.06 1676.39 1811.38L1484.91 1771.91C1483.93 1765.7 1481.01 1759.96 1476.56 1755.51C1472.12 1751.06 1466.38 1748.14 1460.16 1747.16C1453.95 1746.18 1447.59 1747.2 1441.99 1750.06C1436.4 1752.92 1431.85 1757.49 1429.01 1763.1L1454.63 1768.51C1455.66 1768.72 1456.64 1769.13 1457.51 1769.72C1458.38 1770.31 1459.12 1771.07 1459.7 1771.95C1460.28 1772.83 1460.68 1773.81 1460.87 1774.84C1461.07 1775.88 1461.06 1776.94 1460.85 1777.97C1460.64 1779 1460.22 1779.97 1459.63 1780.84C1459.04 1781.71 1458.29 1782.46 1457.41 1783.03C1456.53 1783.61 1455.55 1784.01 1454.51 1784.21C1453.48 1784.4 1452.42 1784.4 1451.39 1784.18L1425.76 1778.78C1426.15 1785.05 1428.52 1791.05 1432.52 1795.89C1436.53 1800.74 1441.97 1804.2 1448.06 1805.76C1454.15 1807.32 1460.58 1806.91 1466.42 1804.59C1472.27 1802.27 1477.22 1798.15 1480.58 1792.83L1672.06 1832.03C1673.05 1838.23 1675.98 1843.97 1680.43 1848.41C1684.88 1852.85 1690.62 1855.77 1696.83 1856.74C1703.04 1857.71 1709.4 1856.69 1714.99 1853.83C1720.58 1850.96 1725.13 1846.39 1727.96 1840.78L1702.34 1835.38C1700.33 1834.93 1698.57 1833.74 1697.42 1832.04C1696.26 1830.35 1695.8 1828.27 1696.12 1826.24V1826.24Z" fill="#BFBFBF" stroke="#263238" stroke-linecap="round" stroke-linejoin="round"/>
<path d="M1659.25 1669.84C1643.09 1679.7 1628.13 1691.42 1614.71 1704.77C1604.49 1712.82 1546.59 1761.15 1547.35 1768.45C1548.1 1775.75 1542.97 1824.62 1547.35 1829.05C1551.73 1833.49 1570.05 1819 1570.05 1819C1570.05 1819 1575.19 1832.19 1580.86 1832.95C1586.5 1833.21 1592.14 1832.96 1597.73 1832.19C1597.73 1832.19 1607.25 1846.84 1616 1845.38C1624.76 1843.92 1636.55 1827.05 1627.95 1826.35C1625.68 1826 1623.37 1826.29 1621.25 1827.19C1619.14 1828.09 1617.33 1829.56 1616 1831.43V1813.16C1623.36 1807.64 1630.23 1801.51 1636.55 1794.83C1646.06 1784.56 1651.36 1751.1 1651.36 1751.1C1655.31 1748.88 1681.69 1736.66 1690.61 1733.47L1659.25 1669.84Z" fill="#92E3A9" stroke="#263238" stroke-linecap="round" stroke-linejoin="round"/>
<path d="M1570.05 1819.05L1561.13 1784.94" stroke="#263238" stroke-linecap="round" stroke-linejoin="round"/>
<path d="M1597.89 1832.24L1590.05 1811.59" stroke="#263238" stroke-linecap="round" stroke-linejoin="round"/>
<path d="M1565.57 1802.02L1558.11 1815.38" stroke="#263238" stroke-linecap="round" stroke-linejoin="round"/>
<path d="M1587.03 1832.03C1579.4 1826.62 1574.05 1801.81 1574.05 1801.81" stroke="#263238" stroke-linecap="round" stroke-linejoin="round"/>
<path d="M1684.12 1170.97C1684.12 1170.97 1739.91 1189.08 1739.69 1237.47C1739.69 1258.71 1680.23 1393.22 1690.77 1458.68C1701.31 1524.15 1702.61 1530.8 1702.61 1530.8C1702.61 1530.8 1677.09 1531.83 1667.9 1530.8C1658.71 1529.77 1662.01 1547.02 1662.01 1547.02L1629.57 1553.18C1629.57 1553.18 1619.9 1445.93 1618.76 1399.38C1617.63 1352.83 1671.79 1208.22 1671.79 1208.22C1672.34 1203.73 1671.7 1199.18 1669.92 1195.02C1668.15 1190.87 1665.31 1187.25 1661.68 1184.54" fill="#BFBFBF"/>
<path d="M1684.12 1170.97C1684.12 1170.97 1739.91 1189.08 1739.69 1237.47C1739.69 1258.71 1680.23 1393.22 1690.77 1458.68C1701.31 1524.15 1702.61 1530.8 1702.61 1530.8C1702.61 1530.8 1677.09 1531.83 1667.9 1530.8C1658.71 1529.77 1662.01 1547.02 1662.01 1547.02L1629.57 1553.18C1629.57 1553.18 1619.9 1445.93 1618.76 1399.38C1617.63 1352.83 1671.79 1208.22 1671.79 1208.22C1672.34 1203.73 1671.7 1199.18 1669.92 1195.02C1668.15 1190.87 1665.31 1187.25 1661.68 1184.54" stroke="#263238" stroke-linecap="round" stroke-linejoin="round"/>
<path d="M1663.9 1424.3C1660.39 1456.74 1658.01 1489.17 1656.55 1521.99" stroke="#263238" stroke-linecap="round" stroke-linejoin="round"/>
<path d="M1673.85 1352.78C1670.98 1369.54 1668.44 1386.35 1666.39 1403.22" stroke="#263238" stroke-linecap="round" stroke-linejoin="round"/>
<path d="M1697.47 1246.23C1689.69 1274.27 1683.11 1302.61 1677.74 1331.26" stroke="#263238" stroke-linecap="round" stroke-linejoin="round"/>
<path d="M1702.61 1193.3C1707.37 1204.44 1703.04 1217.14 1701.04 1228.44" stroke="#263238" stroke-linecap="round" stroke-linejoin="round"/>
<path d="M1427.44 1320.34C1431.64 1338.14 1438.47 1355.22 1447.71 1371" stroke="#263238" stroke-linecap="round" stroke-linejoin="round"/>
<path d="M1417.33 1260.12C1417.98 1269.42 1419.17 1278.66 1420.57 1287.91" stroke="#263238" stroke-linecap="round" stroke-linejoin="round"/>
<path d="M1791.86 1392.62C1783.07 1401.05 1772.19 1406.99 1760.35 1409.81" stroke="#263238" stroke-linecap="round" stroke-linejoin="round"/>
<path d="M1837.27 1318.45C1830.05 1339.6 1819.46 1359.44 1805.92 1377.22" stroke="#263238" stroke-linecap="round" stroke-linejoin="round"/>
<path d="M759.338 2253.16C1001.6 2196.92 1152.41 1954.93 1096.16 1712.66C1039.92 1470.4 797.928 1319.59 555.662 1375.84C313.396 1432.08 162.594 1674.07 218.838 1916.34C275.081 2158.6 517.071 2309.41 759.338 2253.16Z" fill="#263238" stroke="#263238" stroke-width="3.57123" stroke-miterlimit="10"/>
<path d="M657.985 1489.19C593.693 1489.19 530.846 1508.26 477.396 1543.99C423.946 1579.72 382.296 1630.5 357.716 1689.91C333.136 1749.32 326.73 1814.68 339.309 1877.73C351.889 1940.78 382.888 1998.68 428.385 2044.11C473.881 2089.53 531.83 2120.44 594.899 2132.92C657.967 2145.4 723.321 2138.9 782.69 2114.22C842.059 2089.55 892.776 2047.82 928.422 1994.32C964.067 1940.81 983.041 1877.93 982.941 1813.64C982.763 1727.56 948.453 1645.06 887.536 1584.24C826.619 1523.42 744.067 1489.24 657.985 1489.19V1489.19ZM876.754 1749.02L687.434 1784.53L741.117 1601.94C773.317 1614.64 802.221 1634.47 825.655 1659.95C849.089 1685.42 866.445 1715.88 876.417 1749.02H876.754ZM674.813 1797.82V1830.47H642.334V1797.82H674.813ZM593.532 1595.88L629.04 1785.2L446.283 1731.35C458.814 1699.2 478.468 1670.31 503.767 1646.85C529.066 1623.39 559.354 1605.96 592.354 1595.88H593.532ZM440.225 1879.27L629.544 1843.77L575.525 2026.35C543.172 2013.82 514.115 1994.04 490.577 1968.55C467.039 1943.06 449.643 1912.52 439.72 1879.27H440.225ZM723.615 2032.41L688.107 1843.26L870.359 1897.78C857.602 1929.9 837.721 1958.71 812.215 1982.03C786.709 2005.35 756.242 2022.58 723.11 2032.41H723.615Z" fill="white" stroke="#263238" stroke-width="3.57123" stroke-miterlimit="10"/>
<path d="M758.785 1813.64C758.785 1793.67 752.863 1774.15 741.768 1757.55C730.673 1740.94 714.904 1728 696.454 1720.36C678.004 1712.72 657.702 1710.72 638.116 1714.61C618.53 1718.51 600.538 1728.12 586.417 1742.25C572.296 1756.37 562.68 1774.36 558.784 1793.94C554.888 1813.53 556.888 1833.83 564.53 1852.28C572.172 1870.73 585.114 1886.5 601.718 1897.6C618.323 1908.69 637.844 1914.61 657.814 1914.61C684.593 1914.61 710.275 1903.98 729.211 1885.04C748.147 1866.1 758.785 1840.42 758.785 1813.64V1813.64Z" fill="white" stroke="#263238" stroke-width="3.57123" stroke-miterlimit="10"/>
</svg>
